<svg width="295" height="42" viewBox="0 0 295 42" fill="none" xmlns="http://www.w3.org/2000/svg">
<rect width="295" height="42" rx="21" fill="#7AFFE7"/>
<path d="M27.232 14.008V28.424H28.88V15.784H34.176V14.008H27.232ZM33.424 14.008V26.376C33.424 26.568 33.344 26.648 33.168 26.648C32.976 26.664 32.384 26.664 31.808 26.632C32.032 27.112 32.256 27.96 32.304 28.44C33.328 28.44 34 28.392 34.496 28.088C34.976 27.784 35.104 27.256 35.104 26.392V14.008H33.424ZM29.328 16.904V18.52H32.928V16.904H29.328ZM29.456 19.688V25.464H30.704V19.688H29.456ZM30.08 19.688V21.144H31.568V23.112H30.08V24.568H32.848V19.688H30.08ZM21.6 17.4V19H26.336V17.4H21.6ZM20.832 20.168V21.8H26.672V20.168H20.832ZM20.992 22.696C21.232 23.592 21.456 24.744 21.488 25.512L22.784 25.176C22.704 24.408 22.48 23.288 22.208 22.392L20.992 22.696ZM20.656 26.36L21.024 28.104C22.704 27.768 24.912 27.32 26.976 26.872L26.848 25.288C24.608 25.704 22.224 26.136 20.656 26.36ZM25.424 22.264C25.312 23.032 25.072 24.152 24.864 24.872L26.016 25.192C26.256 24.52 26.512 23.512 26.8 22.6L25.424 22.264ZM23.024 18.04V26.952L24.672 26.664V18.04H23.024ZM22.944 13.416C22.448 14.664 21.504 16.168 20.16 17.32C20.512 17.576 21.056 18.184 21.312 18.568C22.896 17.128 23.872 15.48 24.496 14.264V13.768H23.952V13.416H22.944ZM23.184 13.416V14.776H23.52C24.4 15.496 25.488 16.84 26 17.64L27.232 16.168C26.656 15.352 25.456 14.216 24.528 13.416H23.184ZM44.576 14.168L42.464 13.992C42.416 14.808 42.208 15.784 41.888 16.648C41.216 18.408 39.984 20.136 37.936 22.024L39.648 23.304C40.192 22.6 40.64 22.024 41.12 21.544C41.728 20.968 42.736 20.44 43.616 20.44C44.288 20.44 44.928 20.776 44.928 21.8C44.944 22.664 44.912 24.024 44.848 24.776H46.768C46.752 23.768 46.704 22.024 46.704 21.16C46.704 19.672 45.696 18.888 44.368 18.888C43.824 18.888 42.976 19 42.544 19.192C42.992 18.552 43.456 17.64 43.792 16.856C44.24 15.704 44.448 14.76 44.576 14.168ZM38.544 15.656V17.512C39.424 17.592 40.592 17.624 41.248 17.624C43.2 17.624 46.416 17.48 48.672 17.16L48.688 15.304C46.368 15.72 43.472 15.832 41.36 15.832C40.544 15.832 39.36 15.768 38.544 15.656ZM51.216 20.2L50.432 18.328C49.824 18.632 49.264 18.888 48.64 19.16C47.68 19.608 46.672 19.992 45.2 20.76C43.28 21.72 40.992 23.032 40.992 25.256C40.992 27.32 42.864 27.944 45.36 27.944C46.88 27.944 48.832 27.8 49.904 27.656L49.968 25.592C48.56 25.88 46.768 26.056 45.408 26.056C43.856 26.056 43.088 25.816 43.088 24.936C43.088 24.056 43.872 23.368 45.328 22.616C46.832 21.848 48.272 21.272 49.312 20.872C49.856 20.664 50.72 20.344 51.216 20.2ZM59.2 16.872V18.824H69.088V16.872H59.2ZM65.328 13.592V26.104C65.328 26.472 65.168 26.584 64.768 26.6C64.384 26.616 62.992 26.616 61.744 26.552C62.032 27.064 62.384 27.928 62.48 28.456C64.256 28.472 65.472 28.44 66.256 28.136C67.024 27.848 67.312 27.336 67.312 26.12V13.592H65.328ZM59.92 20.76C60.64 21.992 61.584 23.64 62 24.616L63.824 23.688C63.344 22.712 62.336 21.128 61.616 19.96L59.92 20.76ZM56.256 18.12V28.408H58.208V16.216L58.192 16.184L56.256 18.12ZM57.856 13.496C56.992 15.848 55.536 18.184 54 19.64C54.352 20.12 54.928 21.176 55.136 21.656C56.944 19.816 58.672 16.888 59.744 14.104L57.856 13.496ZM80.192 25.144V27H84.304V25.144H80.192ZM71.184 16.28V18.168H77.056V16.28H71.184ZM79.344 15.24V28.12H81.184V17.096H83.232V27.992H85.168V15.24H79.344ZM76.576 16.28V16.712C76.464 23.176 76.336 25.48 76 25.96C75.84 26.184 75.696 26.264 75.456 26.248C75.152 26.248 74.576 26.248 73.936 26.184C74.256 26.728 74.464 27.56 74.496 28.12C75.232 28.152 75.952 28.152 76.432 28.04C76.96 27.944 77.296 27.752 77.664 27.224C78.176 26.472 78.288 24.008 78.432 17.16C78.432 16.92 78.432 16.28 78.432 16.28H76.576ZM73.088 13.64C73.072 19.496 73.2 24.216 70.704 27.032C71.184 27.336 71.824 27.976 72.128 28.44C74.896 25.256 74.96 19.944 74.976 13.64H73.088ZM93.136 14.312L90.56 14.296C90.688 14.92 90.752 15.688 90.752 16.456C90.752 17.832 90.608 22.024 90.608 24.168C90.608 26.904 92.288 28.056 94.912 28.056C98.56 28.056 100.832 25.928 101.872 24.392L100.416 22.616C99.248 24.36 97.584 25.88 94.944 25.88C93.696 25.88 92.736 25.352 92.736 23.736C92.736 21.752 92.848 18.184 92.928 16.456C92.96 15.816 93.04 14.984 93.136 14.312ZM111.568 14.232L109.12 14.04C109.168 14.424 109.152 15.08 109.072 15.672C108.96 16.616 108.592 18.376 108.192 19.88C107.584 22.12 106.368 25.464 105.424 27.08L107.648 27.832C108.528 25.928 109.6 22.664 110.176 20.424C110.608 18.792 111.008 16.84 111.232 15.752C111.312 15.4 111.456 14.68 111.568 14.232ZM107.488 16.632C106.832 16.632 106.304 16.6 105.472 16.504L105.536 18.504C106.096 18.536 106.688 18.568 107.472 18.568C109.28 18.568 111.792 18.296 113.776 17.832V15.832C111.696 16.328 109.44 16.632 107.488 16.632ZM112.512 19.08V20.952C113.52 20.824 114.512 20.776 115.616 20.776C116.576 20.776 117.552 20.888 118.368 20.984L118.4 19.064C117.472 18.968 116.512 18.92 115.6 18.92C114.56 18.92 113.408 18.984 112.512 19.08ZM113.376 23.096L111.472 22.92C111.344 23.544 111.2 24.312 111.2 25.064C111.2 26.68 112.64 27.592 115.344 27.592C116.624 27.592 117.696 27.496 118.592 27.368L118.672 25.336C117.536 25.544 116.432 25.656 115.36 25.656C113.632 25.656 113.168 25.128 113.168 24.424C113.168 24.072 113.264 23.56 113.376 23.096ZM121.408 20.424V22.344H136.192V20.424H121.408ZM127.808 17.88V26.184C127.808 26.456 127.696 26.536 127.344 26.552C126.976 26.552 125.744 26.552 124.624 26.504C124.944 27.032 125.328 27.912 125.456 28.488C126.912 28.504 128.032 28.44 128.8 28.136C129.568 27.832 129.824 27.304 129.824 26.216V17.88H127.808ZM123.088 14.392V16.296H133.168V14.392H123.088ZM132.544 14.392V14.84C131.728 15.88 129.728 17.432 128.032 18.296C128.4 18.632 128.992 19.272 129.28 19.688C131.248 18.648 133.456 16.952 134.96 15.4L133.488 14.296L133.056 14.392H132.544ZM143.168 18.936H147.84V20.36H143.168V18.936ZM141.376 17.416V21.88H149.76V17.416H141.376ZM144.544 21.016C144.528 21.8 144.432 22.888 144.32 23.656L146.016 24.04C146.224 23.368 146.48 22.376 146.784 21.4L144.544 21.016ZM140.224 22.872V28.408H142.144V24.52H149.2V28.376H151.2V22.872H140.224ZM141.072 26.152V27.816H150.192V26.152H141.072ZM144.48 13.416V15.72H146.512V13.416H144.48ZM138.72 14.744V18.776H140.592V16.488H150.544V18.776H152.512V14.744H138.72ZM161.376 20.536C162.816 21.896 164.688 23.816 165.536 25.016L167.136 23.784C166.192 22.584 164.256 20.76 162.832 19.48L161.376 20.536ZM161.424 13.416V17.24C161.424 19.336 161.152 22.136 157.696 23.912C158.144 24.248 158.8 24.952 159.072 25.368C162.72 23.192 163.392 19.912 163.392 17.256V13.416H161.424ZM155.808 16.072V28.472H157.728V17.96H167.968V16.072H155.808ZM167.12 16.072V26.216C167.12 26.488 167.024 26.584 166.72 26.6C166.416 26.6 165.344 26.6 164.4 26.552C164.656 27.048 164.96 27.928 165.024 28.456C166.448 28.456 167.472 28.44 168.144 28.136C168.8 27.816 169.024 27.288 169.024 26.248V16.072H167.12ZM174.976 19.656H171.76V21.384H173.248V25.528H174.976V19.656ZM174.976 24.888H173.424C172.816 25.496 172.128 26.088 171.52 26.552L172.4 28.328C173.104 27.624 173.696 27 174.24 26.376C175.216 27.608 176.528 28.088 178.496 28.168C180.544 28.248 184.192 28.216 186.272 28.12C186.352 27.608 186.64 26.792 186.848 26.376C184.544 26.568 180.496 26.616 178.48 26.52C176.816 26.456 175.616 25.96 174.976 24.888ZM171.664 14.712C172.432 15.56 173.264 16.744 173.584 17.544L175.264 16.552C174.896 15.752 174 14.616 173.216 13.816L171.664 14.712ZM176.016 14.024V16.76C176.016 18.712 175.872 21.448 174.448 23.416C174.784 23.608 175.44 24.264 175.664 24.6C177.312 22.408 177.616 19.032 177.616 16.792V14.024H176.016ZM176.992 14.024V15.48H178.88V17.336H176.992V18.792H180.496V14.024H176.992ZM177.28 20.072V21.528H179.088V23.544H177.28V25H180.688V20.072H177.28ZM176.48 20.072V25.736H178.032V20.072H176.48ZM180.96 15.16V16.664H186.384V15.16H180.96ZM180.992 21.768V23.272H186.368V21.768H180.992ZM180.848 19V20.52H186.496V19H180.848ZM182.816 13.416V15.928H184.56V13.416H182.816ZM182.816 19.544V25.928H184.56V19.544H182.816ZM181.472 16.872C181.712 17.576 181.872 18.472 181.888 19.08L183.296 18.744C183.264 18.168 183.056 17.256 182.8 16.584L181.472 16.872ZM184.528 16.52C184.432 17.192 184.192 18.152 184.016 18.776L185.264 19.112C185.488 18.536 185.776 17.672 186.08 16.872L184.528 16.52ZM194.896 26.328V28.12H203.248V26.328H194.896ZM194.672 20.072V21.88H203.52V20.072H194.672ZM198.08 15.432V27.176H200V15.432H198.08ZM201.52 13.432C199.904 14.184 197.152 14.808 194.64 15.144C194.864 15.56 195.136 16.248 195.2 16.68C197.888 16.36 200.912 15.768 203.072 14.824L201.52 13.432ZM188.592 16.6V18.376H193.76V16.6H188.592ZM190.736 13.416C190.24 16.6 189.376 20.824 188.688 23.352L190.256 24.184C191.008 21.304 191.936 17.016 192.544 13.608L190.736 13.416ZM189.52 23.08C191.2 24.184 193.232 25.864 194.128 27.08L195.28 25.528C194.352 24.328 192.24 22.776 190.576 21.736L189.52 23.08ZM193.104 16.6V16.952C192.784 22.008 191.36 25.544 188.64 26.968C189.024 27.336 189.536 28.024 189.792 28.488C192.96 26.52 194.512 22.984 194.88 16.744L193.744 16.552L193.408 16.6H193.104ZM209.808 17.752H215.776V18.712H209.808V17.752ZM209.808 20.056H215.776V21.032H209.808V20.056ZM209.808 15.448H215.776V16.392H209.808V15.448ZM207.92 13.992V22.472H217.76V13.992H207.92ZM205.664 23.224V25H219.952V23.224H205.664ZM213.632 26.344C215.36 26.968 217.184 27.832 218.224 28.44L220.192 27.144C218.976 26.552 216.896 25.688 215.104 25.064L213.632 26.344ZM210.304 24.968C209.216 25.656 207.12 26.52 205.472 26.952C205.904 27.368 206.48 28.024 206.784 28.44C208.432 27.944 210.544 27.08 211.968 26.264L210.304 24.968ZM232.208 20.92C232.208 24.344 233.632 26.904 235.36 28.616L236.88 27.928C235.264 26.216 234.016 23.992 234.016 20.92C234.016 17.864 235.264 15.64 236.88 13.928L235.36 13.24C233.632 14.952 232.208 17.512 232.208 20.92ZM241.872 15.3636V27H239.411V15.3636H241.872ZM251.883 15.3636H254.343V22.9205C254.343 23.7689 254.141 24.5114 253.736 25.1477C253.334 25.7841 252.771 26.2803 252.048 26.6364C251.325 26.9886 250.482 27.1648 249.52 27.1648C248.554 27.1648 247.709 26.9886 246.986 26.6364C246.262 26.2803 245.7 25.7841 245.298 25.1477C244.896 24.5114 244.696 23.7689 244.696 22.9205V15.3636H247.156V22.7102C247.156 23.1534 247.253 23.5473 247.446 23.892C247.643 24.2367 247.919 24.5076 248.275 24.7045C248.631 24.9015 249.046 25 249.52 25C249.997 25 250.412 24.9015 250.764 24.7045C251.12 24.5076 251.395 24.2367 251.588 23.892C251.785 23.5473 251.883 23.1534 251.883 22.7102V15.3636ZM261.293 27H257.168V15.3636H261.327C262.497 15.3636 263.505 15.5966 264.349 16.0625C265.194 16.5246 265.844 17.1894 266.298 18.0568C266.757 18.9242 266.986 19.9621 266.986 21.1705C266.986 22.3826 266.757 23.4242 266.298 24.2955C265.844 25.1667 265.19 25.8352 264.338 26.3011C263.49 26.767 262.474 27 261.293 27ZM259.628 24.892H261.19C261.918 24.892 262.529 24.7633 263.026 24.5057C263.526 24.2443 263.901 23.8409 264.151 23.2955C264.404 22.7462 264.531 22.0379 264.531 21.1705C264.531 20.3106 264.404 19.608 264.151 19.0625C263.901 18.517 263.527 18.1155 263.031 17.858C262.535 17.6004 261.923 17.4716 261.196 17.4716H259.628V24.892ZM273.973 20.92C273.973 17.512 272.549 14.952 270.821 13.24L269.301 13.928C270.917 15.64 272.165 17.864 272.165 20.92C272.165 23.992 270.917 26.216 269.301 27.928L270.821 28.616C272.549 26.904 273.973 24.344 273.973 20.92Z" fill="#5D504F"/>
</svg>
