<svg width="333" height="42" viewBox="0 0 333 42" fill="none" xmlns="http://www.w3.org/2000/svg">
<rect x="0.5" width="332" height="42" rx="21" fill="#7AFFE7"/>
<path d="M27.476 24.776V28.44H29.38V24.776H27.476ZM26.708 20.28C26.132 20.856 25.124 21.608 24.324 22.104L25.588 22.792C26.388 22.376 27.444 21.736 28.388 21.08L26.708 20.28ZM30.42 20.84C28.948 21.96 26.516 23.368 24.596 24.2L25.764 25.048C27.668 24.264 30.148 22.984 32.036 21.752L30.42 20.84ZM22.724 22.232C23.892 22.84 25.396 23.784 26.1 24.44L27.412 23.272C26.628 22.616 25.108 21.736 23.94 21.192L22.724 22.232ZM31.156 23.144C32.388 23.912 33.86 25.08 34.532 25.896L35.956 24.936C35.22 24.104 33.7 23 32.484 22.296L31.156 23.144ZM30.42 26.36C31.652 26.888 33.284 27.736 34.052 28.312L35.556 27.224C34.66 26.632 33.012 25.848 31.828 25.384L30.42 26.36ZM21.46 23.928L21.508 25.464C24.628 25.4 29.428 25.288 33.892 25.16L33.988 23.784C29.444 23.848 24.548 23.928 21.46 23.928ZM24.868 25.448C24.02 26.072 22.548 26.68 21.188 27.048C21.588 27.336 22.26 27.992 22.564 28.328C23.908 27.848 25.54 27 26.58 26.136L24.868 25.448ZM28.916 14.072V15.656H34.036V14.072H28.916ZM21.684 19.448V20.744H28.5V19.448H21.684ZM21.684 13.88V20.2H23.46V15.16H28.516V13.88H21.684ZM22.708 15.816V16.904H26.532V17.64H22.708V18.744H28.292V15.816H22.708ZM24.724 14.456V16.552H26.276V14.456H24.724ZM24.724 18.12V20.2H26.276V18.12H24.724ZM30.724 15.656L29.172 16.104C30.26 18.696 32.132 20.616 34.836 21.528C35.092 21.08 35.604 20.376 36.004 20.024C33.492 19.32 31.62 17.704 30.724 15.656ZM33.652 14.072V14.344C32.98 17.048 31.028 18.856 28.452 19.592C28.804 19.944 29.22 20.6 29.428 21.032C32.42 20.008 34.596 18.024 35.476 14.392L34.324 14.024L34.004 14.072H33.652ZM40.02 17.16V18.696H48.98V21.72H39.732V23.256H50.884V17.16H40.02ZM41.86 14.552V16.072H47.108V14.552H41.86ZM40.292 19.48V20.904H49.732V19.48H40.292ZM42.084 13.336C41.316 14.84 39.892 16.504 37.764 17.736C38.196 18.04 38.82 18.68 39.108 19.128C41.444 17.624 43.012 15.72 44.148 13.72L42.084 13.336ZM42.036 24.248V26.168C42.036 27.736 42.484 28.264 44.452 28.264C44.836 28.264 46.388 28.264 46.788 28.264C48.276 28.264 48.788 27.768 48.98 25.768C48.484 25.672 47.7 25.4 47.332 25.112C47.252 26.44 47.156 26.632 46.612 26.632C46.228 26.632 44.98 26.632 44.692 26.632C44.02 26.632 43.908 26.568 43.908 26.136V24.248H42.036ZM43.156 23.752C44.18 24.216 45.396 25 45.956 25.592L47.22 24.28C46.596 23.688 45.348 22.984 44.34 22.568L43.156 23.752ZM48.436 24.664C49.46 25.656 50.628 27.048 51.108 27.976L52.836 26.984C52.292 26.024 51.06 24.696 50.02 23.768L48.436 24.664ZM39.956 23.976C39.572 25.128 38.82 26.2 37.764 26.84L39.348 27.976C40.548 27.176 41.22 25.912 41.668 24.6L39.956 23.976ZM46.724 14.552V14.904C46.42 15.608 45.652 16.776 44.98 17.496C45.412 17.72 46.068 18.136 46.436 18.424C47.204 17.608 48.196 16.312 48.772 15.304L47.444 14.472L47.156 14.552H46.724ZM57.876 19.656H54.66V21.384H56.148V25.528H57.876V19.656ZM57.876 24.888H56.324C55.716 25.496 55.028 26.088 54.42 26.552L55.3 28.328C56.004 27.624 56.596 27 57.14 26.376C58.116 27.608 59.428 28.088 61.396 28.168C63.444 28.248 67.092 28.216 69.172 28.12C69.252 27.608 69.54 26.792 69.748 26.376C67.444 26.568 63.396 26.616 61.38 26.52C59.716 26.456 58.516 25.96 57.876 24.888ZM54.564 14.712C55.332 15.56 56.164 16.744 56.484 17.544L58.164 16.552C57.796 15.752 56.9 14.616 56.116 13.816L54.564 14.712ZM58.916 14.024V16.76C58.916 18.712 58.772 21.448 57.348 23.416C57.684 23.608 58.34 24.264 58.564 24.6C60.212 22.408 60.516 19.032 60.516 16.792V14.024H58.916ZM59.892 14.024V15.48H61.78V17.336H59.892V18.792H63.396V14.024H59.892ZM60.18 20.072V21.528H61.988V23.544H60.18V25H63.588V20.072H60.18ZM59.38 20.072V25.736H60.932V20.072H59.38ZM63.86 15.16V16.664H69.284V15.16H63.86ZM63.892 21.768V23.272H69.268V21.768H63.892ZM63.748 19V20.52H69.396V19H63.748ZM65.716 13.416V15.928H67.46V13.416H65.716ZM65.716 19.544V25.928H67.46V19.544H65.716ZM64.372 16.872C64.612 17.576 64.772 18.472 64.788 19.08L66.196 18.744C66.164 18.168 65.956 17.256 65.7 16.584L64.372 16.872ZM67.428 16.52C67.332 17.192 67.092 18.152 66.916 18.776L68.164 19.112C68.388 18.536 68.676 17.672 68.98 16.872L67.428 16.52ZM77.796 26.328V28.12H86.148V26.328H77.796ZM77.572 20.072V21.88H86.42V20.072H77.572ZM80.98 15.432V27.176H82.9V15.432H80.98ZM84.42 13.432C82.804 14.184 80.052 14.808 77.54 15.144C77.764 15.56 78.036 16.248 78.1 16.68C80.788 16.36 83.812 15.768 85.972 14.824L84.42 13.432ZM71.492 16.6V18.376H76.66V16.6H71.492ZM73.636 13.416C73.14 16.6 72.276 20.824 71.588 23.352L73.156 24.184C73.908 21.304 74.836 17.016 75.444 13.608L73.636 13.416ZM72.42 23.08C74.1 24.184 76.132 25.864 77.028 27.08L78.18 25.528C77.252 24.328 75.14 22.776 73.476 21.736L72.42 23.08ZM76.004 16.6V16.952C75.684 22.008 74.26 25.544 71.54 26.968C71.924 27.336 72.436 28.024 72.692 28.488C75.86 26.52 77.412 22.984 77.78 16.744L76.644 16.552L76.308 16.6H76.004ZM100.068 15.656C100.068 15.144 100.484 14.728 100.996 14.728C101.492 14.728 101.924 15.144 101.924 15.656C101.924 16.152 101.492 16.568 100.996 16.568C100.484 16.568 100.068 16.152 100.068 15.656ZM99.076 15.656C99.076 16.696 99.94 17.56 100.996 17.56C102.052 17.56 102.916 16.696 102.916 15.656C102.916 14.6 102.052 13.736 100.996 13.736C99.94 13.736 99.076 14.6 99.076 15.656ZM92.596 14.744H90.244C90.308 15.224 90.356 16.04 90.356 16.408C90.356 17.4 90.356 23.272 90.356 25.112C90.356 26.504 91.172 27.256 92.548 27.512C93.236 27.624 94.212 27.688 95.252 27.688C97.012 27.688 99.428 27.592 100.948 27.368V25.032C99.62 25.384 97.044 25.576 95.364 25.576C94.66 25.576 94.004 25.56 93.524 25.48C92.804 25.352 92.484 25.176 92.484 24.472C92.484 23.272 92.484 17.384 92.484 16.408C92.484 15.944 92.532 15.224 92.596 14.744ZM91.54 19.656L91.556 21.752C93.732 21.24 96.868 20.296 98.756 19.576C99.284 19.368 100.004 19.064 100.612 18.808L99.764 16.792C99.124 17.16 98.58 17.416 98.02 17.656C96.34 18.344 93.604 19.208 91.54 19.656ZM112.532 26.648L113.876 27.752C114.036 27.64 114.228 27.464 114.564 27.288C116.372 26.376 118.66 24.648 119.988 22.92L118.772 21.144C117.684 22.696 116.116 23.96 114.804 24.52C114.804 23.544 114.804 17.448 114.804 16.168C114.804 15.448 114.916 14.808 114.916 14.776H112.548C112.548 14.808 112.66 15.432 112.66 16.152C112.66 17.448 112.66 24.632 112.66 25.48C112.66 25.912 112.612 26.344 112.532 26.648ZM105.124 26.424L107.076 27.72C108.452 26.504 109.444 24.92 109.94 23.128C110.356 21.512 110.404 18.136 110.404 16.232C110.404 15.576 110.516 14.856 110.516 14.792H108.164C108.26 15.192 108.324 15.608 108.324 16.264C108.324 18.184 108.308 21.224 107.844 22.584C107.412 23.96 106.548 25.432 105.124 26.424ZM131.908 20.92C131.908 24.344 133.332 26.904 135.06 28.616L136.58 27.928C134.964 26.216 133.716 23.992 133.716 20.92C133.716 17.864 134.964 15.64 136.58 13.928L135.06 13.24C133.332 14.952 131.908 17.512 131.908 20.92ZM140.836 15.256V17.24C141.3 17.224 141.812 17.208 142.388 17.208C143.172 17.208 148.676 17.208 150.1 17.208C150.676 17.208 151.108 17.224 151.524 17.24V15.256C151.156 15.288 150.628 15.32 150.1 15.32C148.676 15.32 143.764 15.32 142.388 15.32C141.812 15.32 141.3 15.288 140.836 15.256ZM146.34 20.888C146.34 20.728 146.34 17.224 146.34 16.728H144.148C144.148 17.256 144.148 20.2 144.148 20.808C144.148 21.752 144.148 23.896 144.148 24.952C144.148 26.568 144.868 27.56 147.796 27.56C149.284 27.56 151.108 27.512 152.148 27.448L152.292 25.272C150.996 25.416 149.588 25.496 148.164 25.496C146.868 25.496 146.34 25.176 146.34 24.312C146.34 23.752 146.34 21.624 146.34 20.888ZM139.78 19.832V21.928C140.26 21.896 141.076 21.864 141.524 21.864C142.98 21.864 150.068 21.864 151.22 21.864C151.572 21.864 152.292 21.848 152.724 21.912V19.848C152.308 19.88 151.492 19.928 151.156 19.928C150.1 19.928 142.996 19.928 141.524 19.928C141.044 19.928 140.228 19.864 139.78 19.832ZM156.356 19.592V22.12C156.964 22.072 158.036 22.024 158.932 22.024C160.82 22.024 166.084 22.024 167.54 22.024C168.212 22.024 169.028 22.104 169.412 22.12V19.592C168.98 19.624 168.276 19.704 167.524 19.704C166.1 19.704 160.82 19.704 158.932 19.704C158.1 19.704 156.948 19.64 156.356 19.592ZM174.404 16.136V18.456C174.948 18.44 175.684 18.408 176.292 18.408C177.188 18.408 182.068 18.408 182.916 18.408C183.476 18.408 184.228 18.44 184.692 18.456V16.136C184.228 16.2 183.556 16.232 182.916 16.232C182.036 16.232 177.636 16.232 176.292 16.232C175.732 16.232 174.996 16.2 174.404 16.136ZM173.06 23.976V26.424C173.668 26.36 174.436 26.312 175.076 26.312C176.084 26.312 183.252 26.312 184.26 26.312C184.724 26.312 185.444 26.36 186.02 26.424V23.976C185.476 24.024 184.788 24.072 184.26 24.072C183.252 24.072 176.084 24.072 175.076 24.072C174.436 24.072 173.684 24.008 173.06 23.976ZM200.964 13.896L199.684 14.424C200.116 15.032 200.612 15.992 200.948 16.648L202.228 16.088C201.924 15.496 201.364 14.488 200.964 13.896ZM202.852 13.176L201.588 13.704C202.02 14.296 202.532 15.24 202.868 15.896L204.148 15.352C203.86 14.792 203.268 13.784 202.852 13.176ZM202.388 17.416L200.756 16.408C200.388 16.536 199.86 16.6 199.364 16.6C198.852 16.6 195.508 16.6 194.788 16.6L194.052 18.424H199.444C199.188 19.608 198.26 21.528 197.172 22.776C195.78 24.36 194.004 25.752 190.724 26.744L192.612 28.424C195.62 27.24 197.556 25.768 199.076 23.912C200.516 22.136 201.428 19.992 201.86 18.568C201.988 18.168 202.212 17.736 202.388 17.416ZM197.172 14.888L194.836 14.12C194.692 14.664 194.356 15.416 194.116 15.8C193.316 17.176 191.924 19.24 189.108 20.952L190.916 22.28C193.204 20.712 195.124 18.456 196.196 16.52C196.388 16.184 196.804 15.448 197.172 14.888ZM220.564 16.184L219.3 15C218.996 15.08 218.116 15.144 217.668 15.144C216.836 15.144 210.052 15.144 209.044 15.144C208.388 15.144 207.716 15.064 207.092 14.968V17.208C207.844 17.128 208.388 17.096 209.044 17.096C210.052 17.096 216.42 17.096 217.396 17.096C216.98 17.88 215.732 19.288 214.436 20.072L216.1 21.4C217.684 20.28 219.204 18.248 219.956 17C220.1 16.776 220.404 16.392 220.564 16.184ZM214.052 18.328H211.732C211.812 18.856 211.828 19.272 211.828 19.784C211.828 22.408 211.444 24.088 209.428 25.496C208.836 25.944 208.26 26.216 207.732 26.392L209.604 27.912C213.956 25.56 214.052 22.296 214.052 18.328ZM236.324 16.36L234.74 15.352C234.308 15.448 233.796 15.464 233.492 15.464C232.596 15.464 227.284 15.464 226.084 15.464C225.556 15.464 224.66 15.4 224.18 15.336V17.592C224.596 17.576 225.348 17.528 226.084 17.528C227.284 17.528 232.564 17.528 233.54 17.528C233.316 18.904 232.724 20.712 231.652 22.056C230.356 23.672 228.564 25.064 225.38 25.8L227.124 27.72C229.988 26.808 232.116 25.208 233.556 23.304C234.9 21.512 235.604 19.032 235.972 17.464C236.052 17.128 236.164 16.664 236.324 16.36ZM245.748 19.512L244.324 20.968C246.196 22.152 249.236 24.392 250.628 25.704L252.164 23.88C250.676 22.696 247.716 20.648 245.748 19.512ZM253.284 16.792L251.652 15.784C251.284 15.896 250.756 15.976 250.26 15.976H245.7L244.964 17.784H250.372C250.068 19.032 249.076 20.872 248.004 22.136C246.628 23.736 244.724 25.416 241.38 26.456L243.236 28.056C246.292 26.904 248.34 25.112 249.844 23.24C251.284 21.464 252.26 19.416 252.74 17.944C252.884 17.544 253.092 17.096 253.284 16.792ZM247.988 14.328L245.668 13.608C245.524 14.168 245.188 14.904 244.948 15.288C244.132 16.68 242.66 18.872 239.86 20.6L241.572 21.928C243.876 20.344 245.924 17.896 246.996 15.96C247.188 15.624 247.604 14.888 247.988 14.328ZM257.156 19.592V22.12C257.764 22.072 258.836 22.024 259.732 22.024C261.62 22.024 266.884 22.024 268.34 22.024C269.012 22.024 269.828 22.104 270.212 22.12V19.592C269.78 19.624 269.076 19.704 268.324 19.704C266.9 19.704 261.62 19.704 259.732 19.704C258.9 19.704 257.748 19.64 257.156 19.592ZM284.868 15.656C284.868 15.144 285.284 14.728 285.796 14.728C286.292 14.728 286.724 15.144 286.724 15.656C286.724 16.152 286.292 16.568 285.796 16.568C285.284 16.568 284.868 16.152 284.868 15.656ZM283.876 15.656C283.876 16.696 284.74 17.56 285.796 17.56C286.852 17.56 287.716 16.696 287.716 15.656C287.716 14.6 286.852 13.736 285.796 13.736C284.74 13.736 283.876 14.6 283.876 15.656ZM277.396 14.744H275.044C275.108 15.224 275.156 16.04 275.156 16.408C275.156 17.4 275.156 23.272 275.156 25.112C275.156 26.504 275.972 27.256 277.348 27.512C278.036 27.624 279.012 27.688 280.052 27.688C281.812 27.688 284.228 27.592 285.748 27.368V25.032C284.42 25.384 281.844 25.576 280.164 25.576C279.46 25.576 278.804 25.56 278.324 25.48C277.604 25.352 277.284 25.176 277.284 24.472C277.284 23.272 277.284 17.384 277.284 16.408C277.284 15.944 277.332 15.224 277.396 14.744ZM276.34 19.656L276.356 21.752C278.532 21.24 281.668 20.296 283.556 19.576C284.084 19.368 284.804 19.064 285.412 18.808L284.564 16.792C283.924 17.16 283.38 17.416 282.82 17.656C281.14 18.344 278.404 19.208 276.34 19.656ZM297.332 26.648L298.676 27.752C298.836 27.64 299.028 27.464 299.364 27.288C301.172 26.376 303.46 24.648 304.788 22.92L303.572 21.144C302.484 22.696 300.916 23.96 299.604 24.52C299.604 23.544 299.604 17.448 299.604 16.168C299.604 15.448 299.716 14.808 299.716 14.776H297.348C297.348 14.808 297.46 15.432 297.46 16.152C297.46 17.448 297.46 24.632 297.46 25.48C297.46 25.912 297.412 26.344 297.332 26.648ZM289.924 26.424L291.876 27.72C293.252 26.504 294.244 24.92 294.74 23.128C295.156 21.512 295.204 18.136 295.204 16.232C295.204 15.576 295.316 14.856 295.316 14.792H292.964C293.06 15.192 293.124 15.608 293.124 16.264C293.124 18.184 293.108 21.224 292.644 22.584C292.212 23.96 291.348 25.432 289.924 26.424ZM311.476 20.92C311.476 17.512 310.052 14.952 308.324 13.24L306.804 13.928C308.42 15.64 309.668 17.864 309.668 20.92C309.668 23.992 308.42 26.216 306.804 27.928L308.324 28.616C310.052 26.904 311.476 24.344 311.476 20.92Z" fill="#5D504F"/>
</svg>
