<svg width="332" height="78" viewBox="0 0 332 78" fill="none" xmlns="http://www.w3.org/2000/svg">
<rect width="332" height="78" rx="20" fill="white"/>
<path d="M72.96 35.392V31.232H66.688V30.192H72.96V29.104H74.24V30.192H80.512V31.232H74.24V35.392H72.96ZM66.704 35.216L66.256 34.192C67.7707 33.6587 69.072 33.0987 70.16 32.512C71.2587 31.9147 72.1653 31.2853 72.88 30.624L73.632 31.136C72.8747 31.904 71.92 32.6293 70.768 33.312C69.616 33.984 68.2613 34.6187 66.704 35.216ZM80.496 35.216C78.9387 34.6187 77.584 33.984 76.432 33.312C75.28 32.6293 74.3253 31.904 73.568 31.136L74.32 30.624C75.0347 31.2853 75.936 31.9147 77.024 32.512C78.1227 33.0987 79.4293 33.6587 80.944 34.192L80.496 35.216ZM67.504 29.84L67.232 28.88C68.576 28.72 69.7493 28.5227 70.752 28.288C71.7653 28.0533 72.64 27.7707 73.376 27.44C74.1227 27.1093 74.7627 26.72 75.296 26.272C75.8293 25.8133 76.2827 25.2853 76.656 24.688L77.728 24.976C77.3013 25.6693 76.8 26.2827 76.224 26.816C75.648 27.3493 74.9547 27.808 74.144 28.192C73.344 28.576 72.4 28.9013 71.312 29.168C70.224 29.4347 68.9547 29.6587 67.504 29.84ZM69.44 27.68L68.464 27.088C69.072 26.6613 69.6213 26.224 70.112 25.776C70.6027 25.328 71.0507 24.8587 71.456 24.368C71.8613 23.8667 72.2293 23.3387 72.56 22.784L73.808 22.96C73.3387 23.856 72.7413 24.6933 72.016 25.472C71.2907 26.2507 70.432 26.9867 69.44 27.68ZM79.424 30.048C78.2507 29.5573 77.1467 29.1413 76.112 28.8C75.0773 28.448 74.048 28.144 73.024 27.888C72 27.6213 70.912 27.392 69.76 27.2L69.92 26.256C71.1573 26.4693 72.3307 26.7147 73.44 26.992C74.5493 27.2693 75.6373 27.5893 76.704 27.952C77.7813 28.3147 78.8853 28.736 80.016 29.216L79.424 30.048ZM66.752 25.248V24.208H80.448V25.248H66.752ZM67.008 24.16V21.92H72.96V20.512H74.24V21.92H80.192V24.16H78.96V22.864H68.24V24.16H67.008ZM83.968 35.168L83.488 34.144C84.3947 33.792 85.2213 33.296 85.968 32.656C86.7147 32.0053 87.36 31.232 87.904 30.336C88.4587 29.44 88.896 28.4427 89.216 27.344C89.536 26.2347 89.7173 25.04 89.76 23.76H85.824V22.672H90.928C90.928 24.2933 90.7627 25.7813 90.432 27.136C90.112 28.48 89.648 29.68 89.04 30.736C88.4427 31.7813 87.7173 32.6773 86.864 33.424C86.0107 34.1707 85.0453 34.752 83.968 35.168ZM89.072 29.68C88.5493 29.264 87.984 28.832 87.376 28.384C86.7787 27.936 86.2027 27.5253 85.648 27.152L86.32 26.24C86.8853 26.624 87.4667 27.0347 88.064 27.472C88.672 27.9093 89.2427 28.336 89.776 28.752L89.072 29.68ZM83.76 29.104L82.976 28.224C83.456 27.5307 83.8933 26.7893 84.288 26C84.6827 25.2107 85.0347 24.3893 85.344 23.536C85.6533 22.6827 85.9093 21.808 86.112 20.912L87.248 21.056C87.0453 22.048 86.7733 23.024 86.432 23.984C86.0907 24.944 85.696 25.856 85.248 26.72C84.8 27.584 84.304 28.3787 83.76 29.104ZM93.408 35.392V21.088H94.656V35.392H93.408ZM97.696 31.312C96.2773 30.4907 94.9173 29.536 93.616 28.448C92.3253 27.3493 91.1093 26.1387 89.968 24.816L90.64 23.904C91.76 25.2267 92.9493 26.4213 94.208 27.488C95.4667 28.544 96.8 29.4773 98.208 30.288L97.696 31.312ZM105.76 34.688V33.6H109.424V28.784H105.344V27.648H109.424V23.056H110.672V27.648H114.672V28.784H110.672V33.6H114.16V34.688H105.76ZM104.608 33.6C103.979 32.5867 103.376 31.744 102.8 31.072C102.235 30.3893 101.611 29.7867 100.928 29.264L101.552 28.368C102.277 28.8907 102.944 29.5093 103.552 30.224C104.171 30.9387 104.811 31.8133 105.472 32.848L104.608 33.6ZM100.352 35.584L99.808 34.56C100.459 34.0373 101.04 33.44 101.552 32.768C102.064 32.0853 102.507 31.3333 102.88 30.512C103.253 29.68 103.547 28.7787 103.76 27.808C103.973 26.8373 104.096 25.808 104.128 24.72H99.872V23.648H105.28V24.16C105.28 25.4187 105.168 26.6133 104.944 27.744C104.72 28.8747 104.395 29.92 103.968 30.88C103.552 31.84 103.035 32.7147 102.416 33.504C101.808 34.2933 101.12 34.9867 100.352 35.584ZM101.008 30.736L100.096 29.904C100.395 29.0933 100.661 28.2347 100.896 27.328C101.141 26.4213 101.355 25.4453 101.536 24.4C101.717 23.344 101.872 22.2027 102 20.976L103.168 21.024C102.965 23.0293 102.683 24.8533 102.32 26.496C101.957 28.128 101.52 29.5413 101.008 30.736ZM105.984 23.888L105.92 22.8C106.955 22.7573 107.952 22.6773 108.912 22.56C109.872 22.4427 110.773 22.2933 111.616 22.112C112.459 21.92 113.216 21.7067 113.888 21.472L114.176 22.544C113.493 22.7893 112.725 23.008 111.872 23.2C111.029 23.3813 110.112 23.5307 109.12 23.648C108.128 23.7547 107.083 23.8347 105.984 23.888ZM121.76 35.136L120.64 34.512C120.917 33.9467 121.147 33.3813 121.328 32.816C121.52 32.2507 121.675 31.6533 121.792 31.024C121.909 30.3947 121.995 29.7067 122.048 28.96C122.101 28.2133 122.128 27.376 122.128 26.448V21.52H131.04V22.592H123.296V27.056V27.152C123.296 27.9947 123.264 28.784 123.2 29.52C123.147 30.2453 123.056 30.928 122.928 31.568C122.811 32.1973 122.651 32.8107 122.448 33.408C122.256 33.9947 122.027 34.5707 121.76 35.136ZM121.328 33.84C120.859 33.1467 120.405 32.5387 119.968 32.016C119.541 31.4933 119.115 31.0293 118.688 30.624C118.261 30.2187 117.808 29.8453 117.328 29.504L117.712 28.464C118.203 28.8053 118.677 29.1893 119.136 29.616C119.605 30.032 120.069 30.512 120.528 31.056C120.997 31.6 121.477 32.224 121.968 32.928L121.328 33.84ZM116.944 35.584L116.416 34.56C117.024 34.016 117.568 33.408 118.048 32.736C118.528 32.0533 118.933 31.3013 119.264 30.48C119.595 29.6587 119.845 28.768 120.016 27.808C120.197 26.848 120.299 25.8187 120.32 24.72H116.512V23.648H121.408V24.16C121.408 25.472 121.312 26.6933 121.12 27.824C120.928 28.9547 120.645 29.9947 120.272 30.944C119.899 31.8827 119.435 32.7413 118.88 33.52C118.325 34.288 117.68 34.976 116.944 35.584ZM122.816 35.28L122.688 34.208C123.573 34.0693 124.453 33.8827 125.328 33.648C126.203 33.4133 127.093 33.1253 128 32.784L128.16 33.808C127.243 34.1493 126.347 34.4427 125.472 34.688C124.597 34.9333 123.712 35.1307 122.816 35.28ZM117.584 30.72L116.704 29.92C117.003 29.1093 117.264 28.2507 117.488 27.344C117.723 26.4267 117.925 25.44 118.096 24.384C118.267 23.328 118.416 22.192 118.544 20.976L119.68 21.024C119.488 23.0187 119.211 24.8373 118.848 26.48C118.496 28.1227 118.075 29.536 117.584 30.72ZM124.464 34.432V28.128H122.4V27.056H131.264V28.128H125.632V34.432H124.464ZM130.896 35.344C130.235 34.9387 129.621 34.3787 129.056 33.664C128.501 32.9493 128.016 32.1173 127.6 31.168C127.195 30.2187 126.885 29.184 126.672 28.064L127.776 27.696C128.032 29.2107 128.475 30.528 129.104 31.648C129.733 32.7573 130.512 33.6373 131.44 34.288L130.896 35.344ZM128.88 31.984L128.112 31.248C128.528 30.8747 128.933 30.4587 129.328 30C129.723 29.5307 130.107 29.0293 130.48 28.496L131.344 29.152C130.971 29.7067 130.576 30.224 130.16 30.704C129.744 31.1733 129.317 31.6 128.88 31.984ZM123.952 25.344V24.288H130.64V25.344H123.952ZM143.328 33.92C142.347 33.92 141.483 33.7973 140.736 33.552C139.989 33.296 139.403 32.944 138.976 32.496C138.56 32.048 138.352 31.536 138.352 30.96C138.352 29.904 139.088 28.832 140.56 27.744L141.408 28.448C140.779 28.9067 140.315 29.3333 140.016 29.728C139.717 30.1227 139.568 30.5067 139.568 30.88C139.568 31.264 139.723 31.6 140.032 31.888C140.341 32.176 140.779 32.4 141.344 32.56C141.909 32.72 142.571 32.8 143.328 32.8C143.893 32.8 144.507 32.7573 145.168 32.672C145.829 32.5867 146.48 32.4747 147.12 32.336L147.312 33.44C146.651 33.5893 145.979 33.7067 145.296 33.792C144.613 33.8773 143.957 33.92 143.328 33.92ZM142.176 24.432C141.685 24.432 141.168 24.416 140.624 24.384C140.08 24.352 139.605 24.3147 139.2 24.272L139.248 23.152C139.643 23.1947 140.107 23.232 140.64 23.264C141.173 23.296 141.685 23.312 142.176 23.312C142.912 23.312 143.664 23.2747 144.432 23.2C145.2 23.1253 146.064 23.0027 147.024 22.832L147.088 23.952C146.128 24.1227 145.259 24.2453 144.48 24.32C143.701 24.3947 142.933 24.432 142.176 24.432ZM135.472 34.8C135.195 33.712 134.992 32.6453 134.864 31.6C134.736 30.5547 134.672 29.4347 134.672 28.24C134.672 27.0667 134.736 25.9573 134.864 24.912C134.992 23.8667 135.195 22.7947 135.472 21.696L136.688 21.872C136.421 22.928 136.224 23.9733 136.096 25.008C135.979 26.032 135.92 27.1093 135.92 28.24C135.92 29.3813 135.979 30.4693 136.096 31.504C136.224 32.528 136.421 33.5573 136.688 34.592L135.472 34.8ZM157.328 34.752C156.571 34.752 155.925 34.64 155.392 34.416C154.859 34.192 154.448 33.872 154.16 33.456C153.883 33.0293 153.744 32.5173 153.744 31.92C153.744 31.0027 154.069 30.304 154.72 29.824C155.381 29.3333 156.325 29.088 157.552 29.088C158.085 29.088 158.603 29.1573 159.104 29.296C159.605 29.424 160.123 29.6427 160.656 29.952C161.2 30.2613 161.792 30.672 162.432 31.184C163.072 31.6853 163.792 32.3093 164.592 33.056L163.856 33.904C162.992 33.104 162.256 32.4533 161.648 31.952C161.051 31.4507 160.523 31.0667 160.064 30.8C159.616 30.5333 159.195 30.352 158.8 30.256C158.416 30.1493 158 30.096 157.552 30.096C156.656 30.096 155.989 30.2453 155.552 30.544C155.125 30.832 154.912 31.28 154.912 31.888C154.912 32.4853 155.115 32.9387 155.52 33.248C155.936 33.5573 156.539 33.712 157.328 33.712C158.213 33.712 158.88 33.5253 159.328 33.152C159.776 32.768 160 32.224 160 31.52V23.44C161.76 23.44 163.328 23.52 164.704 23.68L164.608 24.768C163.285 24.608 161.792 24.528 160.128 24.528L161.2 23.776V31.408C161.2 32.496 160.869 33.328 160.208 33.904C159.547 34.4693 158.587 34.752 157.328 34.752ZM150.432 32.24C151.328 30.3307 152.069 28.4693 152.656 26.656C153.243 24.832 153.712 22.9493 154.064 21.008L155.232 21.136C154.912 22.992 154.448 24.8587 153.84 26.736C153.243 28.6133 152.485 30.5707 151.568 32.608L150.432 32.24ZM150.288 23.68C152.496 23.68 155.115 23.52 158.144 23.2L158.208 24.304C155.157 24.624 152.517 24.784 150.288 24.784V23.68ZM174.256 34.448C173.712 34.448 173.131 34.4267 172.512 34.384C171.893 34.3413 171.28 34.2773 170.672 34.192C170.075 34.1067 169.504 34.0053 168.96 33.888L169.088 32.8C169.696 32.9173 170.304 33.0187 170.912 33.104C171.52 33.1893 172.107 33.2533 172.672 33.296C173.248 33.3387 173.776 33.36 174.256 33.36C175.931 33.36 177.211 33.0933 178.096 32.56C178.981 32.016 179.424 31.2427 179.424 30.24C179.424 29.3867 179.109 28.7307 178.48 28.272C177.861 27.8133 176.965 27.584 175.792 27.584C175.056 27.584 174.304 27.68 173.536 27.872C172.768 28.0533 172.048 28.3093 171.376 28.64C170.704 28.9707 170.117 29.36 169.616 29.808L168.496 29.584C168.635 28.9547 168.757 28.3467 168.864 27.76C168.971 27.1733 169.067 26.608 169.152 26.064C169.237 25.5093 169.307 24.976 169.36 24.464L170.56 24.56C170.485 25.2107 170.395 25.8987 170.288 26.624C170.181 27.3387 170.048 28.048 169.888 28.752L169.712 28.448C170.267 28.032 170.875 27.6853 171.536 27.408C172.208 27.12 172.907 26.896 173.632 26.736C174.368 26.576 175.109 26.496 175.856 26.496C177.413 26.496 178.597 26.816 179.408 27.456C180.229 28.096 180.64 29.0133 180.64 30.208C180.64 31.584 180.096 32.6347 179.008 33.36C177.92 34.0853 176.336 34.448 174.256 34.448ZM178.624 23.984C177.643 23.92 176.725 23.8453 175.872 23.76C175.029 23.664 174.187 23.5413 173.344 23.392C172.512 23.232 171.621 23.04 170.672 22.816L170.912 21.728C171.808 21.9413 172.672 22.1227 173.504 22.272C174.347 22.4213 175.195 22.5493 176.048 22.656C176.901 22.752 177.797 22.832 178.736 22.896L178.624 23.984ZM190.928 34.752C190.171 34.752 189.525 34.64 188.992 34.416C188.459 34.192 188.048 33.872 187.76 33.456C187.483 33.0293 187.344 32.5173 187.344 31.92C187.344 31.0027 187.669 30.304 188.32 29.824C188.981 29.3333 189.925 29.088 191.152 29.088C191.685 29.088 192.203 29.1573 192.704 29.296C193.205 29.424 193.723 29.6427 194.256 29.952C194.8 30.2613 195.392 30.672 196.032 31.184C196.672 31.6853 197.392 32.3093 198.192 33.056L197.456 33.904C196.592 33.104 195.856 32.4533 195.248 31.952C194.651 31.4507 194.123 31.0667 193.664 30.8C193.216 30.5333 192.795 30.352 192.4 30.256C192.016 30.1493 191.6 30.096 191.152 30.096C190.256 30.096 189.589 30.2453 189.152 30.544C188.725 30.832 188.512 31.28 188.512 31.888C188.512 32.4853 188.715 32.9387 189.12 33.248C189.536 33.5573 190.139 33.712 190.928 33.712C191.813 33.712 192.48 33.5253 192.928 33.152C193.376 32.768 193.6 32.224 193.6 31.52V23.44C195.36 23.44 196.928 23.52 198.304 23.68L198.208 24.768C196.885 24.608 195.392 24.528 193.728 24.528L194.8 23.776V31.408C194.8 32.496 194.469 33.328 193.808 33.904C193.147 34.4693 192.187 34.752 190.928 34.752ZM184.032 32.24C184.928 30.3307 185.669 28.4693 186.256 26.656C186.843 24.832 187.312 22.9493 187.664 21.008L188.832 21.136C188.512 22.992 188.048 24.8587 187.44 26.736C186.843 28.6133 186.085 30.5707 185.168 32.608L184.032 32.24ZM183.888 23.68C186.096 23.68 188.715 23.52 191.744 23.2L191.808 24.304C188.757 24.624 186.117 24.784 183.888 24.784V23.68ZM205.632 34.272C205.056 34.272 204.523 34.0853 204.032 33.712C203.541 33.3387 203.109 32.8213 202.736 32.16C202.363 31.4987 202.069 30.736 201.856 29.872C201.653 29.008 201.552 28.08 201.552 27.088C201.552 26.6933 201.568 26.24 201.6 25.728C201.632 25.216 201.675 24.7093 201.728 24.208C201.781 23.696 201.84 23.2587 201.904 22.896L203.152 23.008C203.099 23.328 203.045 23.728 202.992 24.208C202.939 24.6773 202.896 25.1627 202.864 25.664C202.832 26.1547 202.816 26.592 202.816 26.976C202.816 27.776 202.891 28.5387 203.04 29.264C203.2 29.9787 203.413 30.6187 203.68 31.184C203.947 31.7387 204.245 32.1813 204.576 32.512C204.917 32.832 205.275 32.992 205.648 32.992C206.021 32.992 206.379 32.8107 206.72 32.448C207.061 32.0853 207.381 31.552 207.68 30.848C207.979 30.1333 208.245 29.2693 208.48 28.256L209.664 28.704C209.216 30.5173 208.651 31.8987 207.968 32.848C207.285 33.7973 206.507 34.272 205.632 34.272ZM213.856 32.352C213.76 31.2 213.573 30.0747 213.296 28.976C213.029 27.8667 212.688 26.8213 212.272 25.84C211.867 24.8587 211.397 23.9787 210.864 23.2L211.968 22.752C212.533 23.5413 213.029 24.4373 213.456 25.44C213.883 26.4427 214.235 27.5093 214.512 28.64C214.789 29.7707 214.981 30.9387 215.088 32.144L213.856 32.352ZM221.488 34.688C220.293 34.688 219.371 34.4427 218.72 33.952C218.08 33.4507 217.76 32.736 217.76 31.808C217.76 30.8693 218.08 30.1547 218.72 29.664C219.36 29.1733 220.283 28.928 221.488 28.928C222.171 28.928 222.859 29.008 223.552 29.168C224.245 29.3173 224.976 29.5627 225.744 29.904C226.512 30.2347 227.344 30.6667 228.24 31.2C229.136 31.7333 230.128 32.3787 231.216 33.136L230.48 34.016C229.157 33.056 227.968 32.2827 226.912 31.696C225.856 31.1093 224.891 30.6827 224.016 30.416C223.141 30.1387 222.299 30 221.488 30C220.635 30 219.995 30.1493 219.568 30.448C219.141 30.7467 218.928 31.2 218.928 31.808C218.928 33.024 219.765 33.632 221.44 33.632C222.368 33.632 223.045 33.4347 223.472 33.04C223.899 32.6453 224.112 32.0213 224.112 31.168V21.152H225.328V31.168C225.328 32.3627 225.013 33.248 224.384 33.824C223.765 34.4 222.8 34.688 221.488 34.688ZM224.672 24.24C225.568 24.24 226.576 24.1867 227.696 24.08C228.816 23.9627 229.995 23.8027 231.232 23.6L231.36 24.672C230.123 24.8747 228.933 25.0347 227.792 25.152C226.661 25.2587 225.637 25.312 224.72 25.312L224.672 24.24ZM237.728 33.552C239.595 33.488 241.163 33.2907 242.432 32.96C243.712 32.6187 244.677 32.1493 245.328 31.552C245.989 30.9547 246.32 30.24 246.32 29.408C246.32 28.6293 246.032 28.0427 245.456 27.648C244.88 27.2533 244.011 27.056 242.848 27.056C242.453 27.056 242.027 27.0827 241.568 27.136C241.109 27.1787 240.592 27.2587 240.016 27.376C239.44 27.4827 238.789 27.6267 238.064 27.808C237.349 27.9787 236.539 28.192 235.632 28.448L235.28 27.28C236.261 27.024 237.131 26.8107 237.888 26.64C238.645 26.4693 239.323 26.3307 239.92 26.224C240.517 26.1173 241.056 26.0427 241.536 26C242.016 25.9467 242.469 25.92 242.896 25.92C244.464 25.92 245.643 26.208 246.432 26.784C247.221 27.3493 247.616 28.1973 247.616 29.328C247.616 30.4267 247.243 31.3707 246.496 32.16C245.749 32.9493 244.656 33.5627 243.216 34C241.787 34.4267 240.043 34.6667 237.984 34.72L237.728 33.552ZM245.248 24C244.523 23.936 243.717 23.8453 242.832 23.728C241.947 23.6 241.04 23.456 240.112 23.296C239.184 23.1253 238.293 22.944 237.44 22.752L237.696 21.584C238.464 21.7653 239.296 21.9413 240.192 22.112C241.088 22.272 241.979 22.416 242.864 22.544C243.76 22.6613 244.592 22.752 245.36 22.816L245.248 24ZM260.928 33.92C259.947 33.92 259.083 33.7973 258.336 33.552C257.589 33.296 257.003 32.944 256.576 32.496C256.16 32.048 255.952 31.536 255.952 30.96C255.952 29.904 256.688 28.832 258.16 27.744L259.008 28.448C258.379 28.9067 257.915 29.3333 257.616 29.728C257.317 30.1227 257.168 30.5067 257.168 30.88C257.168 31.264 257.323 31.6 257.632 31.888C257.941 32.176 258.379 32.4 258.944 32.56C259.509 32.72 260.171 32.8 260.928 32.8C261.493 32.8 262.107 32.7573 262.768 32.672C263.429 32.5867 264.08 32.4747 264.72 32.336L264.912 33.44C264.251 33.5893 263.579 33.7067 262.896 33.792C262.213 33.8773 261.557 33.92 260.928 33.92ZM259.776 24.432C259.285 24.432 258.768 24.416 258.224 24.384C257.68 24.352 257.205 24.3147 256.8 24.272L256.848 23.152C257.243 23.1947 257.707 23.232 258.24 23.264C258.773 23.296 259.285 23.312 259.776 23.312C260.512 23.312 261.264 23.2747 262.032 23.2C262.8 23.1253 263.664 23.0027 264.624 22.832L264.688 23.952C263.728 24.1227 262.859 24.2453 262.08 24.32C261.301 24.3947 260.533 24.432 259.776 24.432ZM253.072 34.8C252.795 33.712 252.592 32.6453 252.464 31.6C252.336 30.5547 252.272 29.4347 252.272 28.24C252.272 27.0667 252.336 25.9573 252.464 24.912C252.592 23.8667 252.795 22.7947 253.072 21.696L254.288 21.872C254.021 22.928 253.824 23.9733 253.696 25.008C253.579 26.032 253.52 27.1093 253.52 28.24C253.52 29.3813 253.579 30.4693 253.696 31.504C253.824 32.528 254.021 33.5573 254.288 34.592L253.072 34.8ZM47.712 57.624C47.072 57.624 46.448 57.5387 45.84 57.368C45.232 57.208 44.672 56.9733 44.16 56.664L44.608 55.624C45.088 55.912 45.6 56.1307 46.144 56.28C46.6987 56.4293 47.248 56.4987 47.792 56.488C48.3147 56.4773 48.7627 56.408 49.136 56.28C49.52 56.152 49.8133 55.9707 50.016 55.736C50.2293 55.4907 50.336 55.208 50.336 54.888C50.336 54.6427 50.272 54.4187 50.144 54.216C50.0267 54.0027 49.8453 53.7733 49.6 53.528C49.3547 53.2827 49.0347 52.9947 48.64 52.664C48.2347 52.3333 47.8827 52.008 47.584 51.688C47.296 51.3573 47.072 51.0267 46.912 50.696C46.752 50.3547 46.672 50.0027 46.672 49.64C46.672 49.1493 46.8213 48.6853 47.12 48.248C47.4293 47.8107 47.8773 47.4053 48.464 47.032C49.0613 46.6587 49.7973 46.3227 50.672 46.024L51.152 46.488C50.1707 46.488 49.2427 46.472 48.368 46.44C47.4933 46.3973 46.64 46.344 45.808 46.28C44.976 46.2053 44.128 46.1253 43.264 46.04L43.376 44.968C44.1013 45.0533 44.8213 45.128 45.536 45.192C46.2613 45.256 47.0027 45.3093 47.76 45.352C48.5173 45.384 49.3173 45.4107 50.16 45.432C51.0133 45.4427 51.92 45.448 52.88 45.448V46.52C51.8347 46.712 50.944 46.9627 50.208 47.272C49.4827 47.5813 48.9333 47.9333 48.56 48.328C48.1867 48.712 48 49.128 48 49.576C48 49.8427 48.064 50.0987 48.192 50.344C48.3307 50.5893 48.528 50.8507 48.784 51.128C49.0507 51.3947 49.3707 51.6933 49.744 52.024C50.096 52.3333 50.416 52.6427 50.704 52.952C51.0027 53.2613 51.2373 53.5813 51.408 53.912C51.5787 54.232 51.664 54.584 51.664 54.968C51.664 55.4907 51.4987 55.9547 51.168 56.36C50.8373 56.7547 50.3733 57.064 49.776 57.288C49.1787 57.512 48.4907 57.624 47.712 57.624ZM40.864 55.368C41.1733 54.8347 41.4667 54.264 41.744 53.656C42.0213 53.0373 42.272 52.4187 42.496 51.8C42.7307 51.1707 42.9227 50.5787 43.072 50.024L44.24 50.36C44.0907 50.936 43.8987 51.5387 43.664 52.168C43.4293 52.7973 43.168 53.432 42.88 54.072C42.592 54.7013 42.288 55.304 41.968 55.88L40.864 55.368ZM54.816 55.784C54.6347 55.176 54.4053 54.5573 54.128 53.928C53.8613 53.2987 53.5733 52.6853 53.264 52.088C52.9547 51.48 52.64 50.9253 52.32 50.424L53.376 49.896C53.7067 50.3973 54.0267 50.9573 54.336 51.576C54.656 52.1947 54.9547 52.8347 55.232 53.496C55.5093 54.1467 55.7493 54.7867 55.952 55.416L54.816 55.784ZM58.72 57.672C59.1893 56.232 59.616 54.76 60 53.256C60.384 51.752 60.72 50.232 61.008 48.696C61.3067 47.1493 61.5573 45.6133 61.76 44.088L62.992 44.152C62.8 45.656 62.5547 47.1867 62.256 48.744C61.968 50.3013 61.6267 51.848 61.232 53.384C60.848 54.92 60.416 56.424 59.936 57.896L58.72 57.672ZM58.48 46.712C59.3973 46.6907 60.2933 46.664 61.168 46.632C62.0427 46.5893 62.9173 46.536 63.792 46.472C64.6667 46.408 65.568 46.3333 66.496 46.248C67.4347 46.152 68.4213 46.04 69.456 45.912L69.536 47C68.48 47.128 67.4773 47.24 66.528 47.336C65.5893 47.4213 64.6773 47.496 63.792 47.56C62.9173 47.624 62.0427 47.6773 61.168 47.72C60.2933 47.752 59.3973 47.7787 58.48 47.8V46.712ZM68.4 57.528C67.472 57.528 66.6667 57.4213 65.984 57.208C65.3013 56.9947 64.768 56.696 64.384 56.312C64 55.928 63.808 55.4747 63.808 54.952C63.808 54.5253 63.9573 54.1093 64.256 53.704C64.5653 53.288 65.04 52.856 65.68 52.408L66.544 53.192C66.0427 53.5013 65.6747 53.7893 65.44 54.056C65.2053 54.3227 65.088 54.584 65.088 54.84C65.088 55.1493 65.2267 55.4213 65.504 55.656C65.7813 55.8907 66.1707 56.0773 66.672 56.216C67.1733 56.344 67.7493 56.408 68.4 56.408C68.9013 56.408 69.424 56.3813 69.968 56.328C70.512 56.2747 71.0667 56.1947 71.632 56.088L71.776 57.208C71.2 57.3147 70.6293 57.3947 70.064 57.448C69.5093 57.5013 68.9547 57.528 68.4 57.528ZM64.32 49.784C65.5253 49.592 66.688 49.4427 67.808 49.336C68.9387 49.2293 70.0693 49.1547 71.2 49.112L71.232 50.2C70.1547 50.2427 69.04 50.3227 67.888 50.44C66.736 50.5467 65.5893 50.6907 64.448 50.872L64.32 49.784ZM77.6 56.52C79.7013 56.52 81.4027 56.3227 82.704 55.928C84.0053 55.5333 84.9547 54.9093 85.552 54.056C86.1493 53.2027 86.448 52.0933 86.448 50.728C86.448 49.2987 86.144 48.216 85.536 47.48C84.928 46.7333 84.048 46.36 82.896 46.36C82.0747 46.36 81.3387 46.536 80.688 46.888C80.048 47.2293 79.5147 47.7093 79.088 48.328C78.6613 48.9467 78.368 49.672 78.208 50.504C78.0587 51.3253 78.0587 52.2107 78.208 53.16L77.008 53.256C76.7947 51.9547 76.688 50.552 76.688 49.048C76.688 47.544 76.7947 46.1413 77.008 44.84L78.208 44.936C77.9947 46.2053 77.888 47.5813 77.888 49.064C77.888 49.4373 77.8933 49.8213 77.904 50.216C77.9253 50.6 77.952 50.9787 77.984 51.352L77.184 50.136C77.408 49.112 77.7813 48.232 78.304 47.496C78.8373 46.7493 79.4987 46.1787 80.288 45.784C81.0773 45.3787 81.9627 45.176 82.944 45.176C84.4907 45.176 85.6693 45.656 86.48 46.616C87.3013 47.5653 87.712 48.936 87.712 50.728C87.712 52.3493 87.36 53.672 86.656 54.696C85.952 55.7093 84.8587 56.4613 83.376 56.952C81.8933 57.432 79.984 57.672 77.648 57.672L77.6 56.52ZM100.272 54.76C100.272 53.448 100.181 52.392 100 51.592C99.8187 50.7813 99.5307 50.1947 99.136 49.832C98.7413 49.4693 98.224 49.288 97.584 49.288C97.0293 49.288 96.5013 49.4267 96 49.704C95.5093 49.9707 95.008 50.4027 94.496 51C93.9947 51.5973 93.4347 52.3973 92.816 53.4L91.792 52.808C92.3253 51.9653 92.8 51.1867 93.216 50.472C93.632 49.7467 94.0107 49.0427 94.352 48.36C94.704 47.6773 95.024 46.984 95.312 46.28C95.6107 45.5653 95.8987 44.7973 96.176 43.976L97.376 44.2C97.024 45.2453 96.6453 46.2107 96.24 47.096C95.8453 47.9813 95.3973 48.8773 94.896 49.784L94.496 49.592C95.0187 49.1547 95.5627 48.8293 96.128 48.616C96.704 48.392 97.296 48.28 97.904 48.28C98.7573 48.28 99.4453 48.4987 99.968 48.936C100.501 49.3733 100.891 50.072 101.136 51.032C101.381 51.9813 101.504 53.224 101.504 54.76H100.272ZM99.872 57.8C98.24 57.8 96.9653 57.5653 96.048 57.096C95.1307 56.6267 94.672 55.9813 94.672 55.16C94.672 54.5733 94.912 53.9813 95.392 53.384C95.872 52.7867 96.5547 52.2213 97.44 51.688C98.3253 51.144 99.3813 50.6373 100.608 50.168C101.845 49.6987 103.221 49.2933 104.736 48.952L104.928 49.992C103.584 50.3013 102.363 50.6587 101.264 51.064C100.165 51.4587 99.216 51.8853 98.416 52.344C97.616 52.792 96.9973 53.2507 96.56 53.72C96.1227 54.1787 95.904 54.6213 95.904 55.048C95.904 55.5813 96.2507 55.9973 96.944 56.296C97.6373 56.5947 98.6133 56.744 99.872 56.744C100.565 56.744 101.323 56.7013 102.144 56.616C102.965 56.5307 103.797 56.4027 104.64 56.232L104.816 57.288C104.293 57.384 103.744 57.4693 103.168 57.544C102.592 57.6187 102.021 57.6773 101.456 57.72C100.891 57.7733 100.363 57.8 99.872 57.8ZM91.776 46.104C95.3067 46.104 99.5093 45.944 104.384 45.624L104.432 46.616C99.5467 46.936 95.328 47.096 91.776 47.096V46.104ZM113.36 57.688C112.176 57.688 111.264 57.4587 110.624 57C109.984 56.5413 109.664 55.8853 109.664 55.032C109.664 54.1467 109.979 53.4853 110.608 53.048C111.248 52.6 112.165 52.376 113.36 52.376C114.032 52.376 114.693 52.456 115.344 52.616C115.995 52.7653 116.656 53.0053 117.328 53.336C118.011 53.6667 118.72 54.0933 119.456 54.616C120.192 55.128 120.976 55.752 121.808 56.488L121.024 57.304C120.213 56.6 119.461 56.0027 118.768 55.512C118.085 55.0107 117.44 54.6053 116.832 54.296C116.224 53.9867 115.632 53.7627 115.056 53.624C114.491 53.4747 113.925 53.4 113.36 53.4C111.707 53.4 110.88 53.9387 110.88 55.016C110.88 56.0933 111.701 56.632 113.344 56.632C114.293 56.632 114.976 56.4347 115.392 56.04C115.819 55.6453 116.032 55.0213 116.032 54.168V44.088H117.2V54.168C117.2 55.3733 116.885 56.264 116.256 56.84C115.637 57.4053 114.672 57.688 113.36 57.688ZM114.224 47.128C113.712 47.128 113.173 47.1227 112.608 47.112C112.043 47.0907 111.493 47.0693 110.96 47.048C110.427 47.0267 109.947 47 109.52 46.968L109.568 45.896C109.984 45.928 110.453 45.96 110.976 45.992C111.499 46.0133 112.043 46.0293 112.608 46.04C113.173 46.0507 113.717 46.056 114.24 46.056C115.392 46.056 116.571 46.0187 117.776 45.944C118.992 45.8693 120.352 45.7467 121.856 45.576L121.888 46.648C120.395 46.8187 119.04 46.9413 117.824 47.016C116.608 47.0907 115.408 47.128 114.224 47.128ZM114.336 50.472C113.856 50.472 113.355 50.4667 112.832 50.456C112.32 50.4347 111.819 50.4133 111.328 50.392C110.837 50.3707 110.395 50.344 110 50.312L110.048 49.256C110.432 49.288 110.864 49.3147 111.344 49.336C111.835 49.3573 112.336 49.3787 112.848 49.4C113.371 49.4107 113.867 49.416 114.336 49.416C115.403 49.416 116.491 49.3787 117.6 49.304C118.72 49.2293 119.979 49.1067 121.376 48.936L121.408 49.992C120.032 50.1627 118.779 50.2853 117.648 50.36C116.528 50.4347 115.424 50.472 114.336 50.472ZM134.32 57.64C133.168 57.64 132.261 57.5227 131.6 57.288C130.939 57.064 130.469 56.6747 130.192 56.12C129.915 55.5547 129.776 54.7867 129.776 53.816C129.776 53.592 129.781 53.2347 129.792 52.744C129.803 52.2533 129.819 51.672 129.84 51C129.861 50.328 129.883 49.608 129.904 48.84C129.936 48.0613 129.963 47.272 129.984 46.472C130.016 45.672 130.048 44.8987 130.08 44.152L131.312 44.168C131.28 44.8613 131.248 45.5973 131.216 46.376C131.195 47.144 131.168 47.9067 131.136 48.664C131.115 49.4107 131.093 50.12 131.072 50.792C131.051 51.4533 131.035 52.0293 131.024 52.52C131.013 53.0107 131.008 53.3787 131.008 53.624C131.008 54.4027 131.093 55.0053 131.264 55.432C131.445 55.848 131.776 56.136 132.256 56.296C132.736 56.4453 133.424 56.52 134.32 56.52C135.248 56.52 135.979 56.4453 136.512 56.296C137.045 56.1467 137.424 55.9067 137.648 55.576C137.883 55.2347 138 54.776 138 54.2C138 53.976 137.984 53.7413 137.952 53.496C137.92 53.2507 137.872 53.0267 137.808 52.824L139.008 52.552C139.083 52.872 139.136 53.1653 139.168 53.432C139.211 53.688 139.232 53.9547 139.232 54.232C139.232 55.0533 139.072 55.7147 138.752 56.216C138.432 56.7173 137.909 57.08 137.184 57.304C136.469 57.528 135.515 57.64 134.32 57.64ZM130.288 51.56C129.787 51.56 129.264 51.5547 128.72 51.544C128.187 51.5227 127.669 51.5013 127.168 51.48C126.667 51.4587 126.213 51.432 125.808 51.4L125.856 50.328C126.24 50.36 126.683 50.3867 127.184 50.408C127.685 50.4293 128.203 50.4507 128.736 50.472C129.28 50.4827 129.797 50.488 130.288 50.488C131.387 50.488 132.507 50.4507 133.648 50.376C134.789 50.3013 136.075 50.1787 137.504 50.008L137.568 51.08C136.128 51.2507 134.832 51.3733 133.68 51.448C132.528 51.5227 131.397 51.56 130.288 51.56ZM130.32 47.32C129.84 47.32 129.333 47.3147 128.8 47.304C128.277 47.2827 127.771 47.2613 127.28 47.24C126.8 47.2187 126.363 47.192 125.968 47.16L126.016 46.088C126.389 46.12 126.821 46.152 127.312 46.184C127.803 46.2053 128.304 46.2213 128.816 46.232C129.339 46.2427 129.84 46.248 130.32 46.248C131.387 46.248 132.475 46.2107 133.584 46.136C134.704 46.0613 135.957 45.9387 137.344 45.768L137.408 46.84C136.011 47.0107 134.752 47.1333 133.632 47.208C132.512 47.2827 131.408 47.32 130.32 47.32ZM149.056 57.688C147.509 57.688 146.315 57.4533 145.472 56.984C144.64 56.504 144.224 55.8267 144.224 54.952C144.224 54.2053 144.533 53.624 145.152 53.208C145.771 52.7813 146.624 52.568 147.712 52.568C148.768 52.568 149.568 52.7707 150.112 53.176C150.667 53.5813 150.944 54.1733 150.944 54.952C150.944 55.2507 150.896 55.5653 150.8 55.896C150.715 56.2267 150.576 56.5947 150.384 57L149.216 56.824C149.397 56.4187 149.525 56.0773 149.6 55.8C149.685 55.5227 149.728 55.272 149.728 55.048C149.728 54.0773 149.029 53.592 147.632 53.592C146.939 53.592 146.4 53.7093 146.016 53.944C145.632 54.1787 145.44 54.5093 145.44 54.936C145.44 55.4907 145.749 55.9227 146.368 56.232C146.987 56.5413 147.84 56.696 148.928 56.696C150.677 56.696 152.005 56.4027 152.912 55.816C153.819 55.2187 154.272 54.3547 154.272 53.224C154.272 52.2427 153.915 51.5173 153.2 51.048C152.496 50.568 151.419 50.328 149.968 50.328C149.381 50.328 148.832 50.3707 148.32 50.456C147.808 50.5307 147.323 50.6587 146.864 50.84C146.405 51.0213 145.941 51.2507 145.472 51.528L143.44 52.792L142.928 51.864L152.752 45.784L152.736 46.04C151.755 46.136 150.779 46.2213 149.808 46.296C148.848 46.36 147.877 46.408 146.896 46.44C145.925 46.472 144.917 46.488 143.872 46.488V45.432C145.152 45.432 146.363 45.416 147.504 45.384C148.656 45.352 149.787 45.2987 150.896 45.224C152.005 45.1493 153.136 45.0587 154.288 44.952L154.448 46.008L146.72 50.776L146.176 50.168C146.496 50.0293 146.837 49.912 147.2 49.816C147.573 49.7093 147.952 49.6187 148.336 49.544C148.731 49.4693 149.12 49.416 149.504 49.384C149.899 49.3413 150.288 49.32 150.672 49.32C152.251 49.32 153.451 49.6507 154.272 50.312C155.104 50.9627 155.52 51.912 155.52 53.16C155.52 54.6107 154.96 55.7307 153.84 56.52C152.72 57.2987 151.125 57.688 149.056 57.688ZM165.664 53.752L165.504 45.32H166.992L166.832 53.752H165.664ZM166.24 57.128C165.963 57.128 165.733 57.0427 165.552 56.872C165.381 56.6907 165.296 56.4613 165.296 56.184C165.296 55.896 165.381 55.6667 165.552 55.496C165.733 55.3147 165.963 55.224 166.24 55.224C166.528 55.224 166.757 55.3147 166.928 55.496C167.109 55.6667 167.2 55.896 167.2 56.184C167.2 56.4613 167.109 56.6907 166.928 56.872C166.757 57.0427 166.528 57.128 166.24 57.128ZM175.76 52.488V51.48H186.048V50.312H179.552V49.464H186.048V48.28H179.552V47.432H186.048V46.248H179.552V51.48H178.304V46.248H175.92V45.24H178.304V43.752H179.552V45.24H186.048V43.752H187.296V45.24H189.68V46.248H187.296V51.48H189.84V52.488H175.76ZM175.76 55.672L175.344 54.632C176.133 54.3547 176.837 54.0613 177.456 53.752C178.075 53.432 178.624 53.0907 179.104 52.728C179.595 52.3547 180.027 51.9493 180.4 51.512L181.104 52.152C180.688 52.6533 180.219 53.1173 179.696 53.544C179.173 53.96 178.587 54.344 177.936 54.696C177.296 55.0373 176.571 55.3627 175.76 55.672ZM175.952 57.928V56.92H182.16V55.352H178.08V54.36H182.16V52.92H183.44V54.36H187.52V55.352H183.44V56.92H189.648V57.928H175.952ZM189.84 55.672C189.051 55.3627 188.336 55.0373 187.696 54.696C187.056 54.3547 186.475 53.976 185.952 53.56C185.429 53.1333 184.955 52.664 184.528 52.152L185.2 51.512C185.573 51.9493 186 52.3547 186.48 52.728C186.971 53.0907 187.525 53.432 188.144 53.752C188.763 54.0613 189.467 54.3547 190.256 54.632L189.84 55.672ZM198.976 58.552V55.688H195.36V54.616H198.976V47.672H192.512V46.584H198.976V43.928H200.224V46.584H206.688V47.672H200.224V54.616H203.84V55.688H200.224V58.552H198.976ZM192.608 56.424L191.92 55.384C193.424 54.072 194.725 52.728 195.824 51.352C196.923 49.976 197.803 48.6 198.464 47.224L199.408 47.752C198.875 48.8187 198.256 49.8587 197.552 50.872C196.859 51.8853 196.096 52.856 195.264 53.784C194.443 54.712 193.557 55.592 192.608 56.424ZM206.592 56.424C205.653 55.592 204.768 54.712 203.936 53.784C203.104 52.856 202.341 51.8853 201.648 50.872C200.955 49.8587 200.336 48.8187 199.792 47.752L200.736 47.224C201.408 48.6 202.293 49.976 203.392 51.352C204.491 52.728 205.787 54.072 207.28 55.384L206.592 56.424ZM221.696 58.072C221.461 58.072 221.157 58.0613 220.784 58.04C220.411 58.0293 220.016 58.0133 219.6 57.992C219.184 57.9707 218.789 57.9493 218.416 57.928L218.384 56.824C218.736 56.8453 219.088 56.8667 219.44 56.888C219.803 56.9093 220.133 56.9253 220.432 56.936C220.741 56.9467 220.997 56.952 221.2 56.952C221.317 56.952 221.424 56.888 221.52 56.76C221.616 56.6213 221.701 56.36 221.776 55.976C221.851 55.592 221.92 55.032 221.984 54.296C222.048 53.5493 222.107 52.5733 222.16 51.368C222.213 50.1627 222.267 48.664 222.32 46.872H217.184V45.768H223.552C223.509 47.688 223.461 49.3307 223.408 50.696C223.365 52.0507 223.312 53.1813 223.248 54.088C223.184 54.984 223.104 55.704 223.008 56.248C222.912 56.7813 222.8 57.176 222.672 57.432C222.555 57.6987 222.416 57.8693 222.256 57.944C222.096 58.0293 221.909 58.072 221.696 58.072ZM209.552 58.04V46.088H214.96V56.808H210.752V55.784H213.776V51.912H210.752V50.872H213.776V47.16H210.752V58.04H209.552ZM212.304 46.68L211.136 46.472C211.339 46.056 211.525 45.6347 211.696 45.208C211.867 44.7707 212.016 44.3173 212.144 43.848L213.328 44.024C213.189 44.5147 213.035 44.9787 212.864 45.416C212.693 45.8533 212.507 46.2747 212.304 46.68ZM219.408 53.72C219.088 53.0053 218.725 52.28 218.32 51.544C217.925 50.808 217.525 50.1307 217.12 49.512L218.144 48.968C218.56 49.5973 218.965 50.2853 219.36 51.032C219.765 51.7787 220.123 52.5147 220.432 53.24L219.408 53.72ZM215.44 50.664L214.608 49.864C215.216 49.1067 215.771 48.1947 216.272 47.128C216.773 46.0507 217.157 44.9413 217.424 43.8L218.608 43.944C218.405 44.7867 218.139 45.6187 217.808 46.44C217.488 47.2613 217.125 48.0347 216.72 48.76C216.315 49.4853 215.888 50.12 215.44 50.664ZM232.928 57.752C232.171 57.752 231.525 57.64 230.992 57.416C230.459 57.192 230.048 56.872 229.76 56.456C229.483 56.0293 229.344 55.5173 229.344 54.92C229.344 54.0027 229.669 53.304 230.32 52.824C230.981 52.3333 231.925 52.088 233.152 52.088C233.685 52.088 234.203 52.1573 234.704 52.296C235.205 52.424 235.723 52.6427 236.256 52.952C236.8 53.2613 237.392 53.672 238.032 54.184C238.672 54.6853 239.392 55.3093 240.192 56.056L239.456 56.904C238.592 56.104 237.856 55.4533 237.248 54.952C236.651 54.4507 236.123 54.0667 235.664 53.8C235.216 53.5333 234.795 53.352 234.4 53.256C234.016 53.1493 233.6 53.096 233.152 53.096C232.256 53.096 231.589 53.2453 231.152 53.544C230.725 53.832 230.512 54.28 230.512 54.888C230.512 55.4853 230.715 55.9387 231.12 56.248C231.536 56.5573 232.139 56.712 232.928 56.712C233.813 56.712 234.48 56.5253 234.928 56.152C235.376 55.768 235.6 55.224 235.6 54.52V46.44C237.36 46.44 238.928 46.52 240.304 46.68L240.208 47.768C238.885 47.608 237.392 47.528 235.728 47.528L236.8 46.776V54.408C236.8 55.496 236.469 56.328 235.808 56.904C235.147 57.4693 234.187 57.752 232.928 57.752ZM226.032 55.24C226.928 53.3307 227.669 51.4693 228.256 49.656C228.843 47.832 229.312 45.9493 229.664 44.008L230.832 44.136C230.512 45.992 230.048 47.8587 229.44 49.736C228.843 51.6133 228.085 53.5707 227.168 55.608L226.032 55.24ZM225.888 46.68C228.096 46.68 230.715 46.52 233.744 46.2L233.808 47.304C230.757 47.624 228.117 47.784 225.888 47.784V46.68ZM246.848 54.968L245.984 54.2C246.219 53.688 246.411 53.144 246.56 52.568C246.72 51.992 246.837 51.3467 246.912 50.632C246.997 49.9173 247.04 49.1067 247.04 48.2V44.552H251.232V49.288H247.648V48.248H250.112V45.608H248.16V48.856C248.16 49.1973 248.149 49.5227 248.128 49.832C248.107 50.1413 248.085 50.4507 248.064 50.76L247.952 50.792C247.877 51.5813 247.744 52.3227 247.552 53.016C247.371 53.6987 247.136 54.3493 246.848 54.968ZM243.136 58.312L242.56 57.288C243.168 56.872 243.707 56.456 244.176 56.04C244.645 55.6133 245.061 55.1653 245.424 54.696L246.144 55.528C245.771 56.0187 245.339 56.4933 244.848 56.952C244.368 57.4 243.797 57.8533 243.136 58.312ZM244.768 55.432V51.16H242.72V50.088H245.984V55.432H244.768ZM251.936 58.04C251.019 58.04 250.208 58.008 249.504 57.944C248.811 57.88 248.213 57.784 247.712 57.656C247.221 57.528 246.8 57.352 246.448 57.128C246.096 56.904 245.797 56.632 245.552 56.312C245.307 55.992 245.093 55.6133 244.912 55.176L245.968 55.032C246.128 55.3307 246.309 55.592 246.512 55.816C246.725 56.0293 246.976 56.2107 247.264 56.36C247.563 56.5093 247.92 56.632 248.336 56.728C248.763 56.8133 249.275 56.8773 249.872 56.92C250.48 56.952 251.189 56.968 252 56.968H257.136L257.104 58.04H251.936ZM247.168 55.96V50.712H251.312V55.96H248.24V54.888H250.192V51.736H248.24V55.96H247.168ZM245.488 48.088C245.051 47.5867 244.613 47.1067 244.176 46.648C243.749 46.1787 243.301 45.7147 242.832 45.256L243.68 44.52C244.139 44.9787 244.581 45.4427 245.008 45.912C245.445 46.3707 245.883 46.8507 246.32 47.352L245.488 48.088ZM253.728 56.12V53.208H251.648V52.152H253.728V50.2H251.472V49.128H257.104V50.2H254.944V52.152H257.008V53.208H254.944V56.12H253.728ZM252.832 49.448C252.747 48.8507 252.645 48.248 252.528 47.64C252.411 47.0213 252.288 46.424 252.16 45.848L253.216 45.72C253.344 46.3067 253.467 46.904 253.584 47.512C253.701 48.12 253.803 48.7227 253.888 49.32L252.832 49.448ZM255.584 49.512L254.56 49.336C254.752 48.7813 254.923 48.2053 255.072 47.608C255.221 47.0107 255.355 46.392 255.472 45.752L256.56 45.848C256.443 46.4987 256.299 47.1333 256.128 47.752C255.968 48.3707 255.787 48.9573 255.584 49.512ZM251.632 46.152V45.08H257.008V46.152H251.632ZM253.728 45.352V43.992H254.944V45.352H253.728ZM265.36 57.688V56.6H269.024V51.784H264.944V50.648H269.024V46.056H270.272V50.648H274.272V51.784H270.272V56.6H273.76V57.688H265.36ZM264.208 56.6C263.579 55.5867 262.976 54.744 262.4 54.072C261.835 53.3893 261.211 52.7867 260.528 52.264L261.152 51.368C261.877 51.8907 262.544 52.5093 263.152 53.224C263.771 53.9387 264.411 54.8133 265.072 55.848L264.208 56.6ZM259.952 58.584L259.408 57.56C260.059 57.0373 260.64 56.44 261.152 55.768C261.664 55.0853 262.107 54.3333 262.48 53.512C262.853 52.68 263.147 51.7787 263.36 50.808C263.573 49.8373 263.696 48.808 263.728 47.72H259.472V46.648H264.88V47.16C264.88 48.4187 264.768 49.6133 264.544 50.744C264.32 51.8747 263.995 52.92 263.568 53.88C263.152 54.84 262.635 55.7147 262.016 56.504C261.408 57.2933 260.72 57.9867 259.952 58.584ZM260.608 53.736L259.696 52.904C259.995 52.0933 260.261 51.2347 260.496 50.328C260.741 49.4213 260.955 48.4453 261.136 47.4C261.317 46.344 261.472 45.2027 261.6 43.976L262.768 44.024C262.565 46.0293 262.283 47.8533 261.92 49.496C261.557 51.128 261.12 52.5413 260.608 53.736ZM265.584 46.888L265.52 45.8C266.555 45.7573 267.552 45.6773 268.512 45.56C269.472 45.4427 270.373 45.2933 271.216 45.112C272.059 44.92 272.816 44.7067 273.488 44.472L273.776 45.544C273.093 45.7893 272.325 46.008 271.472 46.2C270.629 46.3813 269.712 46.5307 268.72 46.648C267.728 46.7547 266.683 46.8347 265.584 46.888ZM280.112 51.128V50.04H284.768V46.968H280.864V45.912H284.768V44.072H286.032V45.912H290.16V46.968H286.032V50.04H290.88V51.128H280.112ZM277.552 58.184L276.56 57.512C277.072 56.7867 277.541 56.0027 277.968 55.16C278.405 54.3067 278.773 53.448 279.072 52.584L280.128 53.016C279.936 53.6027 279.707 54.2053 279.44 54.824C279.173 55.432 278.88 56.024 278.56 56.6C278.251 57.1653 277.915 57.6933 277.552 58.184ZM279.792 57.768L279.728 56.68C281.253 56.6267 282.859 56.52 284.544 56.36C286.229 56.2 287.92 55.9973 289.616 55.752L289.728 56.808C288.021 57.064 286.32 57.272 284.624 57.432C282.928 57.6027 281.317 57.7147 279.792 57.768ZM278.928 51.08C278.501 50.6747 278.048 50.2693 277.568 49.864C277.099 49.4587 276.592 49.0533 276.048 48.648L276.768 47.8C277.312 48.1947 277.824 48.5947 278.304 49C278.784 49.3947 279.237 49.7947 279.664 50.2L278.928 51.08ZM283.04 57.368L281.84 56.984C282.277 55.992 282.704 54.9307 283.12 53.8C283.536 52.6693 283.92 51.5067 284.272 50.312L285.536 50.536C285.173 51.7627 284.779 52.9573 284.352 54.12C283.925 55.272 283.488 56.3547 283.04 57.368ZM279.392 47.352C279.019 46.9787 278.613 46.6107 278.176 46.248C277.739 45.8747 277.275 45.5013 276.784 45.128L277.52 44.28C278 44.6427 278.459 45.0107 278.896 45.384C279.344 45.7467 279.755 46.1093 280.128 46.472L279.392 47.352ZM289.824 58.248C289.568 57.6933 289.28 57.1067 288.96 56.488C288.64 55.8693 288.309 55.256 287.968 54.648C287.637 54.0293 287.317 53.4587 287.008 52.936L288.112 52.456C288.432 52.9893 288.763 53.5653 289.104 54.184C289.445 54.8027 289.771 55.4267 290.08 56.056C290.4 56.6747 290.688 57.2613 290.944 57.816L289.824 58.248Z" fill="#5D504F"/>
</svg>
