<svg width="564" height="102" viewBox="0 0 564 102" fill="none" xmlns="http://www.w3.org/2000/svg">
<rect y="29" width="496" height="45" rx="22.5" fill="#E05353"/>
<path d="M60.968 42.968V45.776H77.672V42.968H60.968ZM59.984 50.048V52.808H76.76V50.048H59.984ZM57.2 57.656V60.464H78.896V57.656H57.2ZM66.536 38.624V59.048H69.536V38.624H66.536ZM60.992 38.912C60.128 42.224 58.592 45.536 56.696 47.552C57.44 47.96 58.712 48.8 59.288 49.304C61.16 47 62.912 43.304 63.968 39.584L60.992 38.912ZM93.512 46.352H100.784V48.416H93.512V46.352ZM93.512 42.08H100.784V44.096H93.512V42.08ZM90.92 39.632V50.84H103.52V39.632H90.92ZM90.752 52.904V55.496H103.784V52.904H90.752ZM89.072 57.8V60.392H104.576V57.8H89.072ZM82.04 39.992V42.68H90.008V39.992H82.04ZM82.28 46.904V49.568H89.6V46.904H82.28ZM81.776 56.024L82.424 58.952C84.728 58.208 87.608 57.272 90.296 56.36L89.792 53.6C86.912 54.536 83.84 55.496 81.776 56.024ZM84.704 41.048V56.24L87.44 55.808V41.048H84.704ZM95.984 40.664V49.712H95.72V59.024H98.672V49.712H98.408V40.664H95.984ZM108.488 42.8V54.968H111.392V45.632H125.312V54.848H128.336V42.8H108.488ZM110 50.792V53.624H126.992V50.792H110ZM116.816 38.624V61.16H119.864V38.624H116.816ZM133.256 42.56L133.568 45.848C136.328 45.248 141.248 44.72 143.48 44.48C141.872 45.704 139.928 48.44 139.928 51.872C139.928 57.08 144.68 59.792 149.696 60.104L150.824 56.816C146.768 56.624 143.072 55.184 143.072 51.248C143.072 48.392 145.256 45.272 148.136 44.504C149.432 44.216 151.496 44.192 152.792 44.192L152.768 41.096C151.064 41.168 148.448 41.336 145.952 41.528C141.56 41.912 137.6 42.248 135.608 42.44C135.152 42.488 134.192 42.536 133.256 42.56ZM149.36 46.544L147.584 47.288C148.328 48.344 148.832 49.304 149.456 50.6L151.256 49.808C150.8 48.848 149.936 47.384 149.36 46.544ZM152.024 45.44L150.296 46.232C151.064 47.288 151.616 48.2 152.264 49.496L154.064 48.632C153.56 47.696 152.648 46.28 152.024 45.44ZM168.056 39.776L164.672 39.584C164.72 40.136 164.72 40.616 164.624 41.72C164.384 45.08 163.232 52.376 163.232 54.824C163.232 58.856 165.896 60.488 169.688 60.488C174.944 60.488 178.184 57.872 178.184 54.248C178.184 52.208 177.464 50.528 175.856 48.512L172.496 49.232C174.056 50.696 174.968 52.256 174.968 53.864C174.968 55.832 173.12 57.392 169.76 57.392C167.408 57.392 166.208 56.312 166.208 54.32C166.208 51.896 167.336 43.976 167.624 41.912C167.744 41.288 167.84 40.664 168.056 39.776ZM159.488 42.752L159.344 45.512C161.552 46.136 164.48 46.52 166.904 46.52C168.92 46.52 170.24 46.448 171.656 46.304L171.752 43.424C170.552 43.64 168.848 43.76 167 43.76C164.552 43.76 161.576 43.448 159.488 42.752ZM158.96 48.704L158.816 51.608C161 52.232 164.048 52.568 167.24 52.568C168.752 52.568 170.168 52.496 171.488 52.352L171.56 49.496C170 49.688 168.224 49.784 166.76 49.784C164.336 49.784 161.552 49.592 158.96 48.704ZM192.344 57.992V60.68H204.872V57.992H192.344ZM192.008 48.608V51.32H205.28V48.608H192.008ZM197.12 41.648V59.264H200V41.648H197.12ZM202.28 38.648C199.856 39.776 195.728 40.712 191.96 41.216C192.296 41.84 192.704 42.872 192.8 43.52C196.832 43.04 201.368 42.152 204.608 40.736L202.28 38.648ZM182.888 43.4V46.064H190.64V43.4H182.888ZM186.104 38.624C185.36 43.4 184.064 49.736 183.032 53.528L185.384 54.776C186.512 50.456 187.904 44.024 188.816 38.912L186.104 38.624ZM184.28 53.12C186.8 54.776 189.848 57.296 191.192 59.12L192.92 56.792C191.528 54.992 188.36 52.664 185.864 51.104L184.28 53.12ZM189.656 43.4V43.928C189.176 51.512 187.04 56.816 182.96 58.952C183.536 59.504 184.304 60.536 184.688 61.232C189.44 58.28 191.768 52.976 192.32 43.616L190.616 43.328L190.112 43.4H189.656ZM218.624 39.68V42.248H230.024V39.68H218.624ZM220.76 43.976V46.4H229.304V43.976H220.76ZM218.504 48.248V50.744H230.24V48.248H218.504ZM217.184 39.68V47.6C217.184 51.224 217.016 56.192 214.952 59.6C215.576 59.864 216.704 60.656 217.16 61.136C219.464 57.44 219.8 51.584 219.8 47.6V39.68H217.184ZM220.688 49.088V58.928L223.232 58.496V49.088H220.688ZM218.888 58.136L219.608 60.824C221.552 60.416 223.904 59.888 226.16 59.384L225.968 56.984C223.352 57.44 220.688 57.896 218.888 58.136ZM226.28 49.712L224.072 50.048C224.744 54.992 226.016 59.072 228.968 61.184C229.352 60.464 230.192 59.408 230.792 58.88C228.152 57.272 226.88 53.72 226.28 49.712ZM228.656 51.272C227.936 52.28 226.664 53.72 225.776 54.512L227.12 55.88C228.08 55.136 229.304 54.008 230.48 52.952L228.656 51.272ZM207.944 43.4V46.016H214.616V43.4H207.944ZM210.488 38.624C209.936 43.328 208.88 49.568 208.016 53.288L210.2 54.728C211.208 50.336 212.36 43.928 213.104 38.84L210.488 38.624ZM209.12 52.808C211.088 54.536 213.536 56.984 214.544 58.688L216.296 56.408C215.216 54.776 212.696 52.448 210.704 50.816L209.12 52.808ZM213.632 43.4V43.904C213.344 51.584 211.616 56.84 207.944 58.928C208.52 59.48 209.24 60.488 209.6 61.184C213.992 58.28 215.84 53 216.2 43.52L214.568 43.352L214.112 43.4H213.632ZM248.072 39.656H244.592C244.64 39.968 244.736 40.784 244.808 41.744C244.904 43.016 244.904 47.624 244.904 49.112L247.904 50.12C247.88 48.2 247.832 43.304 247.904 41.72C247.928 41.336 248 40.064 248.072 39.656ZM234.488 42.656L234.56 45.536C238.184 45.344 242.96 45.152 247.328 45.152C250.856 45.152 253.304 45.224 254.792 45.296L254.84 42.464C253.496 42.44 249.848 42.464 247.4 42.464C244.4 42.464 238.064 42.656 234.488 42.656ZM247.496 49.76L245.24 49.136C246.008 51.992 245.024 52.952 243.896 52.952C242.912 52.952 242.024 52.256 242.024 51.176C242.024 49.904 242.96 49.256 243.896 49.256C244.952 49.256 245.792 50 245.792 51.56C245.792 55.76 242.6 57.368 238.52 58.256L241.064 60.8C246.92 59.144 248.768 55.184 248.768 52.04C248.768 49.064 247.112 46.736 243.944 46.736C241.352 46.736 239.144 48.512 239.144 51.224C239.144 54.152 241.448 55.616 243.296 55.616C246.056 55.616 247.496 53.672 247.496 49.76ZM262.88 40.736L262.976 43.856C263.528 43.76 264.272 43.712 264.92 43.664C266.216 43.568 269.528 43.448 270.752 43.4C269.576 44.456 267.056 46.472 265.712 47.576C264.32 48.752 261.416 51.2 259.712 52.544L261.896 54.8C264.464 51.896 266.84 49.928 270.536 49.928C273.344 49.928 275.504 51.392 275.504 53.576C275.504 56.144 273.44 57.68 269.384 57.68C267.92 57.68 266.936 57.08 266.936 56.192C266.936 55.568 267.536 55.016 268.424 55.016C269.84 55.016 270.752 56.216 270.8 57.944L273.608 57.584C273.536 54.944 271.712 52.736 268.424 52.736C265.88 52.736 264.104 54.512 264.104 56.456C264.104 58.88 266.624 60.392 269.96 60.392C275.768 60.392 278.648 57.392 278.648 53.6C278.648 50.12 275.552 47.576 271.472 47.576C270.728 47.576 270.008 47.624 269.192 47.84C270.728 46.64 273.248 44.528 274.544 43.616C275.072 43.208 275.648 42.872 276.2 42.512L274.664 40.352C274.376 40.448 273.824 40.544 272.816 40.616C271.448 40.736 266.336 40.856 265.04 40.856C264.368 40.856 263.552 40.808 262.88 40.736ZM299.888 41.024V57.464C299.888 57.968 299.696 58.136 299.12 58.16C298.544 58.16 296.456 58.184 294.728 58.064C295.184 58.856 295.76 60.272 295.928 61.136C298.4 61.136 300.152 61.088 301.352 60.584C302.504 60.128 302.912 59.264 302.912 57.536V41.024H299.888ZM286.16 45.824V57.008H288.968V45.824H286.16ZM287.36 45.824V48.56H293.552V52.424H287.36V55.16H296.408V45.824H287.36ZM283.952 40.232V43.136H305.696V40.232H283.952ZM312.344 38.504C311.84 40.424 310.856 42.968 309.992 44.6L312.488 45.248C313.4 43.712 314.48 41.36 315.344 39.152L312.344 38.504ZM308.72 43.424L308.936 46.16C311.672 45.992 315.368 45.776 318.896 45.512L318.92 43.016C315.2 43.184 311.312 43.352 308.72 43.424ZM310.136 47.288V61.136H312.8V49.664H317.768V47.288H310.136ZM316.4 47.288V58.184C316.4 58.496 316.304 58.568 316.016 58.568C315.704 58.592 314.744 58.592 313.904 58.544C314.264 59.24 314.672 60.344 314.816 61.112C316.28 61.112 317.36 61.064 318.2 60.632C319.016 60.2 319.256 59.48 319.256 58.256V47.288H316.4ZM311.36 50.912V53.048H318.008V50.912H311.36ZM311.36 54.44V56.576H318.008V54.44H311.36ZM321.128 38.72V45.968C321.128 48.632 321.824 49.448 324.656 49.448C325.208 49.448 327.368 49.448 327.968 49.448C330.2 49.448 330.968 48.584 331.28 45.464C330.488 45.296 329.312 44.864 328.712 44.408C328.616 46.52 328.472 46.88 327.68 46.88C327.176 46.88 325.448 46.88 325.064 46.88C324.152 46.88 324.008 46.76 324.008 45.92V38.72H321.128ZM328.328 40.136C326.744 41.048 324.272 42.128 322.04 42.824C322.352 43.376 322.736 44.24 322.856 44.816C325.232 44.168 328.016 43.256 330.152 42.224L328.328 40.136ZM321.128 49.928V57.512C321.128 60.176 321.848 60.992 324.68 60.992C325.256 60.992 327.488 60.992 328.088 60.992C330.392 60.992 331.16 60.032 331.472 56.648C330.68 56.48 329.528 56.024 328.928 55.592C328.808 58.04 328.664 58.472 327.824 58.472C327.296 58.472 325.496 58.472 325.088 58.472C324.152 58.472 323.984 58.376 323.984 57.488V49.928H321.128ZM328.52 50.936C326.888 51.992 324.32 53.168 321.992 53.912C322.28 54.464 322.688 55.376 322.832 55.928C325.304 55.232 328.208 54.224 330.392 53.048L328.52 50.936ZM315.608 41.144C316.76 42.944 317.912 45.344 318.32 46.88L320.936 45.824C320.48 44.24 319.232 41.96 318.056 40.232L315.608 41.144ZM336.752 38.624V61.16H339.656V38.624H336.752ZM334.736 43.232C334.568 45.224 334.16 47.912 333.56 49.544L335.696 50.288C336.272 48.464 336.68 45.608 336.8 43.52L334.736 43.232ZM339.08 43.424C339.704 44.72 340.352 46.4 340.568 47.456L342.632 46.472C342.392 45.464 341.696 43.832 341.024 42.584L339.08 43.424ZM343.64 39.728C343.256 42.944 342.464 46.208 341.192 48.224C341.888 48.512 343.184 49.136 343.76 49.544C345.008 47.288 345.944 43.736 346.424 40.16L343.64 39.728ZM344.48 43.472L343.664 46.208H355.568V43.472H344.48ZM347.768 38.768V59.24H350.648V38.768H347.768ZM343.112 50.144V52.832H355.064V50.144H343.112ZM341.312 57.656V60.392H356.312V57.656H341.312ZM369.296 40.232L365.744 39.848C365.768 41.648 365.504 43.688 365.048 45.848C364.376 48.872 362.576 55.208 359.72 59.048L362.864 60.296C365.384 56.24 367.304 49.4 368.096 46.016C368.36 44.792 368.648 43.304 368.888 42.224C369.008 41.624 369.152 40.856 369.296 40.232ZM377.576 42.632L374.696 43.856C376.424 45.992 378.128 50.216 378.752 52.88L381.8 51.464C381.056 49.184 379.04 44.72 377.576 42.632ZM359.576 45.152L359.864 48.392C360.584 48.272 361.832 48.104 362.528 48.008C363.848 47.84 368 47.312 369.416 47.312C370.928 47.312 371.744 47.6 371.744 49.52C371.744 51.872 371.432 54.8 370.76 56.144C370.4 56.936 369.776 57.176 368.96 57.176C368.336 57.176 366.968 56.936 366.032 56.672L366.56 59.84C367.376 60.032 368.504 60.176 369.44 60.176C371.24 60.176 372.584 59.648 373.376 57.968C374.384 55.904 374.744 52.016 374.744 49.184C374.744 45.704 372.944 44.576 370.4 44.576C368.624 44.576 364.064 45.104 362.144 45.152C361.256 45.176 360.44 45.2 359.576 45.152ZM377.144 39.32L375.224 40.088C375.872 41.024 376.616 42.44 377.12 43.424L379.04 42.608C378.584 41.72 377.744 40.184 377.144 39.32ZM379.976 38.216L378.08 39.008C378.728 39.92 379.52 41.312 380 42.32L381.92 41.504C381.488 40.664 380.6 39.128 379.976 38.216ZM395.504 39.704L392.384 39.608C392.408 40.04 392.36 40.592 392.312 41.072C392.048 43.448 391.616 46.976 391.616 50.12C391.616 53.648 392.312 57.2 393.032 59.36L395.792 58.544C395 56.12 394.304 53.432 394.304 49.64C394.304 46.664 394.712 43.208 395.168 40.976C395.264 40.592 395.36 40.16 395.504 39.704ZM391.208 42.344C389.744 42.344 387.656 42.152 386.792 42.032L386.864 44.792C387.992 44.84 389.864 44.96 391.136 44.96C394.76 44.96 399.8 44.6 403.088 44L403.064 41.24C399.392 42.128 395.768 42.344 391.208 42.344ZM401.576 45.872L398.624 45.152C398.6 45.68 398.432 46.712 398.264 47.216C397.304 50.528 395.672 52.664 393.92 54.272C392.456 55.64 390.848 56.432 389.72 56.432C388.928 56.432 388.616 56.024 388.616 55.232C388.616 53.624 390.32 51.32 392.72 50.192C393.896 49.664 395.624 49.04 397.808 49.04C401.048 49.04 402.8 50.768 402.8 52.808C402.8 55.184 400.904 57.512 396.272 58.016L397.88 60.56C403.76 59.648 405.776 56.36 405.776 52.952C405.776 49.208 402.464 46.616 397.976 46.616C396.176 46.616 394.208 46.976 392.624 47.552C388.808 48.944 385.784 52.472 385.784 55.856C385.784 58.304 387.248 59.36 389 59.36C391.088 59.36 393.176 58.304 394.736 57.152C397.016 55.472 399.488 52.232 400.856 47.912C401.024 47.408 401.384 46.304 401.576 45.872ZM414.08 40.736L414.176 43.856C414.728 43.76 415.472 43.712 416.12 43.664C417.416 43.568 420.728 43.448 421.952 43.4C420.776 44.456 418.256 46.472 416.912 47.576C415.52 48.752 412.616 51.2 410.912 52.544L413.096 54.8C415.664 51.896 418.04 49.928 421.736 49.928C424.544 49.928 426.704 51.392 426.704 53.576C426.704 56.144 424.64 57.68 420.584 57.68C419.12 57.68 418.136 57.08 418.136 56.192C418.136 55.568 418.736 55.016 419.624 55.016C421.04 55.016 421.952 56.216 422 57.944L424.808 57.584C424.736 54.944 422.912 52.736 419.624 52.736C417.08 52.736 415.304 54.512 415.304 56.456C415.304 58.88 417.824 60.392 421.16 60.392C426.968 60.392 429.848 57.392 429.848 53.6C429.848 50.12 426.752 47.576 422.672 47.576C421.928 47.576 421.208 47.624 420.392 47.84C421.928 46.64 424.448 44.528 425.744 43.616C426.272 43.208 426.848 42.872 427.4 42.512L425.864 40.352C425.576 40.448 425.024 40.544 424.016 40.616C422.648 40.736 417.536 40.856 416.24 40.856C415.568 40.856 414.752 40.808 414.08 40.736Z" fill="white"/>
<circle cx="513" cy="51" r="48.5" fill="#FCFF61" stroke="white" stroke-width="5"/>
<path d="M509.722 33.3985L493.488 60.5001C493.154 61.0798 492.976 61.737 492.975 62.4063C492.973 63.0756 493.146 63.7338 493.478 64.3153C493.809 64.8968 494.287 65.3814 494.864 65.7209C495.441 66.0603 496.097 66.2428 496.766 66.2501H529.234C529.903 66.2428 530.559 66.0603 531.136 65.7209C531.713 65.3814 532.191 64.8968 532.522 64.3153C532.854 63.7338 533.027 63.0756 533.025 62.4063C533.023 61.737 532.846 61.0798 532.512 60.5001L516.277 33.3985C515.936 32.8352 515.455 32.3695 514.881 32.0462C514.307 31.723 513.659 31.5532 513 31.5532C512.341 31.5532 511.693 31.723 511.119 32.0462C510.545 32.3695 510.064 32.8352 509.722 33.3985V33.3985Z" stroke="#5D504F" stroke-width="3" stroke-linecap="round" stroke-linejoin="round"/>
<path d="M513 43.25V50.9167" stroke="#5D504F" stroke-width="4" stroke-linecap="round" stroke-linejoin="round"/>
<path d="M513 58.5835H513.019" stroke="#5D504F" stroke-width="5" stroke-linecap="round" stroke-linejoin="round"/>
</svg>
