<svg width="517" height="102" viewBox="0 0 517 102" fill="none" xmlns="http://www.w3.org/2000/svg">
<rect x="66" y="29" width="451" height="45" rx="22.5" fill="#E05353"/>
<path d="M134.352 59H147.744V56.072H142.68C141.816 56.072 140.976 56.144 140.016 56.24C143.856 53 146.976 49.952 146.976 46.496C146.976 42.896 144.288 40.88 140.616 40.88C138.216 40.88 135.936 42.008 134.088 44.072L136.152 46.064C137.616 44.552 138.792 43.712 140.472 43.712C142.224 43.712 143.52 44.816 143.52 46.616C143.52 49.448 139.44 53.024 134.352 56.984V59ZM163.896 47.72H168.144V51.872H163.896V47.72ZM161.184 45.2V54.368H171.024V45.2H161.184ZM155.904 39.44V61.16H158.88V42.368H173.376V61.16H176.496V39.44H155.904ZM157.584 57.176V59.864H175.152V57.176H157.584ZM184.848 45.488V48.2H197.88V45.488H184.848ZM184.848 51.056V53.768H197.88V51.056H184.848ZM184.848 56.6V59.408H197.88V56.6H184.848ZM182.76 39.92V60.896H185.664V42.752H196.824V60.896H199.872V39.92H182.76ZM213 42.752C214.464 44.576 216 47.096 216.624 48.776L219.432 47.264C218.736 45.584 217.2 43.232 215.64 41.48L213 42.752ZM205.2 55.376L206.208 58.448C208.92 57.296 212.472 55.808 215.664 54.368L214.992 51.536C211.488 53 207.672 54.536 205.2 55.376ZM219.264 53.216C221.472 55.664 224.4 59 225.672 61.136L228.12 58.76C226.752 56.672 223.68 53.48 221.496 51.2L219.264 53.216ZM222.528 39.992C221.64 49.904 219.168 55.76 211.512 58.64C212.208 59.264 213.408 60.56 213.816 61.208C221.688 57.656 224.592 51.152 225.72 40.28L222.528 39.992ZM207.936 40.088L208.488 55.688L211.488 55.568L210.96 39.968L207.936 40.088ZM239.904 50.864V53.216H252.096V50.864H239.904ZM238.632 55.4V57.824H252.84V55.4H238.632ZM245.76 49.28V61.16H248.568V49.28H245.76ZM241.224 51.896V56.384H243.72V51.896H241.224ZM231.504 39.656V61.184H234.024V42.224H237.168V39.656H231.504ZM236.28 39.656V40.472C235.944 42.008 235.176 45.32 234.504 47.48C235.872 49.088 236.184 50.576 236.184 51.704C236.184 52.376 236.064 52.856 235.776 53.072C235.608 53.216 235.368 53.264 235.104 53.264C234.816 53.288 234.504 53.264 234.072 53.24C234.456 53.936 234.672 55.016 234.696 55.712C235.248 55.712 235.824 55.688 236.256 55.64C236.784 55.568 237.24 55.4 237.624 55.136C238.392 54.608 238.704 53.6 238.704 52.04C238.704 50.648 238.416 49.04 236.928 47.168C237.624 45.296 238.416 42.68 239.04 40.616L237.168 39.56L236.76 39.656H236.28ZM243.072 40.64V42.872H249.456V40.64H243.072ZM248.904 40.64V41.048C247.44 44.888 243.336 47.48 238.728 48.512C239.232 49.064 239.856 50.096 240.168 50.792C245.304 49.352 249.696 46.448 251.664 41.36L249.888 40.544L249.408 40.64H248.904ZM243.648 42.248L241.344 42.968C243.384 46.808 246.864 49.352 251.736 50.408C252.096 49.712 252.84 48.632 253.392 48.104C248.808 47.336 245.304 45.224 243.648 42.248ZM243.696 38.648C242.832 40.568 241.176 42.704 238.56 44.264C239.16 44.648 240.024 45.536 240.408 46.112C243.288 44.144 245.136 41.72 246.384 39.104L243.696 38.648ZM269.184 42.56L265.896 42.464C265.656 44.984 265.128 47.744 264.432 50C263.424 53.24 262.512 54.776 261.48 54.776C260.568 54.776 259.608 53.6 259.608 51.176C259.608 48.152 262.392 44 267.48 44C271.632 44 273.984 46.688 273.984 50.456C273.984 53.984 271.584 56.168 268.536 56.912C267.888 57.056 267.216 57.176 266.28 57.296L268.104 60.128C274.152 59.192 277.248 55.616 277.248 50.576C277.248 45.32 273.48 41.192 267.552 41.192C261.336 41.192 256.512 45.944 256.512 51.464C256.512 55.52 258.72 58.472 261.408 58.472C264.024 58.472 266.088 55.496 267.528 50.648C268.368 47.816 268.848 45.008 269.184 42.56ZM284.472 44.768V46.784H289.68V44.768H284.472ZM284.472 48.104V50.12H289.68V48.104H284.472ZM285.864 38.6C285.672 39.536 285.264 40.832 284.928 41.768L287.616 42.2C288.072 41.384 288.648 40.232 289.176 38.96L285.864 38.6ZM282.84 41.288V52.736H285.408V43.472H289.8V41.288H282.84ZM288.912 41.288V58.184C288.912 58.52 288.792 58.616 288.456 58.64C288.12 58.64 287.088 58.664 286.104 58.616C286.464 59.264 286.872 60.44 286.968 61.16C288.6 61.16 289.704 61.112 290.52 60.656C291.312 60.224 291.552 59.504 291.552 58.232V41.288H288.912ZM280.896 52.016L281.256 54.536C283.512 54.248 286.416 53.888 289.2 53.48L289.104 51.152C286.104 51.512 283.008 51.824 280.896 52.016ZM290.232 48.128C288.336 52.328 284.808 55.712 280.608 57.656C281.184 58.16 282.12 59.24 282.504 59.792C286.776 57.488 290.568 53.696 292.824 48.92L290.232 48.128ZM292.224 44.336V47H303.48V44.336H292.224ZM298.296 38.768V57.848C298.296 58.256 298.152 58.376 297.72 58.4C297.288 58.4 295.992 58.424 294.672 58.352C295.08 59.096 295.608 60.392 295.728 61.16C297.696 61.184 299.016 61.064 299.928 60.584C300.84 60.128 301.152 59.36 301.152 57.872V38.768H298.296ZM292.92 49.736C293.88 51.488 294.768 53.768 295.008 55.208L297.624 54.128C297.336 52.64 296.352 50.456 295.32 48.776L292.92 49.736ZM309.264 38.72V61.088H311.832V38.72H309.264ZM306.216 46.616V49.304H314.136V46.616H306.216ZM309.24 48.056C308.64 50.432 307.224 53.768 305.832 55.544C306.264 56.36 306.912 57.656 307.152 58.544C308.712 56.24 310.104 52.04 310.848 48.848L309.24 48.056ZM311.88 49.496L310.56 50.6C311.304 51.824 312.696 54.512 313.224 55.928L315.048 53.72C314.592 53 312.504 50.144 311.88 49.496ZM306.192 40.592C306.768 42.296 307.224 44.576 307.296 46.04L309.288 45.56C309.168 44.072 308.712 41.84 308.064 40.112L306.192 40.592ZM312.864 39.992C312.624 41.672 312.096 44.024 311.64 45.512L313.344 45.992C313.896 44.6 314.568 42.344 315.144 40.472L312.864 39.992ZM315.432 40.376V42.44H327.936V40.376H315.432ZM316.008 43.376V45.32H327.432V43.376H316.008ZM314.76 46.352V48.44H328.56V46.352H314.76ZM320.088 38.648V47.528H322.824V38.648H320.088ZM316.008 49.424V61.184H318.696V51.464H325.128V49.424H316.008ZM324.48 49.424V58.544C324.48 58.808 324.384 58.904 324.072 58.904C323.784 58.904 322.776 58.904 321.888 58.856C322.2 59.504 322.512 60.464 322.632 61.16C324.168 61.16 325.296 61.136 326.112 60.776C326.952 60.392 327.168 59.768 327.168 58.568V49.424H324.48ZM317.52 52.616V54.488H325.416V52.616H317.52ZM317.52 55.64V57.512H325.416V55.64H317.52ZM332.256 42.56L332.568 45.848C335.328 45.248 340.248 44.72 342.48 44.48C340.872 45.704 338.928 48.44 338.928 51.872C338.928 57.08 343.68 59.792 348.696 60.104L349.824 56.816C345.768 56.624 342.072 55.184 342.072 51.248C342.072 48.392 344.256 45.272 347.136 44.504C348.432 44.216 350.496 44.192 351.792 44.192L351.768 41.096C350.064 41.168 347.448 41.336 344.952 41.528C340.56 41.912 336.6 42.248 334.608 42.44C334.152 42.488 333.192 42.536 332.256 42.56ZM348.36 46.544L346.584 47.288C347.328 48.344 347.832 49.304 348.456 50.6L350.256 49.808C349.8 48.848 348.936 47.384 348.36 46.544ZM351.024 45.44L349.296 46.232C350.064 47.288 350.616 48.2 351.264 49.496L353.064 48.632C352.56 47.696 351.648 46.28 351.024 45.44ZM367.056 39.776L363.672 39.584C363.72 40.136 363.72 40.616 363.624 41.72C363.384 45.08 362.232 52.376 362.232 54.824C362.232 58.856 364.896 60.488 368.688 60.488C373.944 60.488 377.184 57.872 377.184 54.248C377.184 52.208 376.464 50.528 374.856 48.512L371.496 49.232C373.056 50.696 373.968 52.256 373.968 53.864C373.968 55.832 372.12 57.392 368.76 57.392C366.408 57.392 365.208 56.312 365.208 54.32C365.208 51.896 366.336 43.976 366.624 41.912C366.744 41.288 366.84 40.664 367.056 39.776ZM358.488 42.752L358.344 45.512C360.552 46.136 363.48 46.52 365.904 46.52C367.92 46.52 369.24 46.448 370.656 46.304L370.752 43.424C369.552 43.64 367.848 43.76 366 43.76C363.552 43.76 360.576 43.448 358.488 42.752ZM357.96 48.704L357.816 51.608C360 52.232 363.048 52.568 366.24 52.568C367.752 52.568 369.168 52.496 370.488 52.352L370.56 49.496C369 49.688 367.224 49.784 365.76 49.784C363.336 49.784 360.552 49.592 357.96 48.704ZM391.344 57.992V60.68H403.872V57.992H391.344ZM391.008 48.608V51.32H404.28V48.608H391.008ZM396.12 41.648V59.264H399V41.648H396.12ZM401.28 38.648C398.856 39.776 394.728 40.712 390.96 41.216C391.296 41.84 391.704 42.872 391.8 43.52C395.832 43.04 400.368 42.152 403.608 40.736L401.28 38.648ZM381.888 43.4V46.064H389.64V43.4H381.888ZM385.104 38.624C384.36 43.4 383.064 49.736 382.032 53.528L384.384 54.776C385.512 50.456 386.904 44.024 387.816 38.912L385.104 38.624ZM383.28 53.12C385.8 54.776 388.848 57.296 390.192 59.12L391.92 56.792C390.528 54.992 387.36 52.664 384.864 51.104L383.28 53.12ZM388.656 43.4V43.928C388.176 51.512 386.04 56.816 381.96 58.952C382.536 59.504 383.304 60.536 383.688 61.232C388.44 58.28 390.768 52.976 391.32 43.616L389.616 43.328L389.112 43.4H388.656ZM417.624 39.68V42.248H429.024V39.68H417.624ZM419.76 43.976V46.4H428.304V43.976H419.76ZM417.504 48.248V50.744H429.24V48.248H417.504ZM416.184 39.68V47.6C416.184 51.224 416.016 56.192 413.952 59.6C414.576 59.864 415.704 60.656 416.16 61.136C418.464 57.44 418.8 51.584 418.8 47.6V39.68H416.184ZM419.688 49.088V58.928L422.232 58.496V49.088H419.688ZM417.888 58.136L418.608 60.824C420.552 60.416 422.904 59.888 425.16 59.384L424.968 56.984C422.352 57.44 419.688 57.896 417.888 58.136ZM425.28 49.712L423.072 50.048C423.744 54.992 425.016 59.072 427.968 61.184C428.352 60.464 429.192 59.408 429.792 58.88C427.152 57.272 425.88 53.72 425.28 49.712ZM427.656 51.272C426.936 52.28 425.664 53.72 424.776 54.512L426.12 55.88C427.08 55.136 428.304 54.008 429.48 52.952L427.656 51.272ZM406.944 43.4V46.016H413.616V43.4H406.944ZM409.488 38.624C408.936 43.328 407.88 49.568 407.016 53.288L409.2 54.728C410.208 50.336 411.36 43.928 412.104 38.84L409.488 38.624ZM408.12 52.808C410.088 54.536 412.536 56.984 413.544 58.688L415.296 56.408C414.216 54.776 411.696 52.448 409.704 50.816L408.12 52.808ZM412.632 43.4V43.904C412.344 51.584 410.616 56.84 406.944 58.928C407.52 59.48 408.24 60.488 408.6 61.184C412.992 58.28 414.84 53 415.2 43.52L413.568 43.352L413.112 43.4H412.632ZM447.072 39.656H443.592C443.64 39.968 443.736 40.784 443.808 41.744C443.904 43.016 443.904 47.624 443.904 49.112L446.904 50.12C446.88 48.2 446.832 43.304 446.904 41.72C446.928 41.336 447 40.064 447.072 39.656ZM433.488 42.656L433.56 45.536C437.184 45.344 441.96 45.152 446.328 45.152C449.856 45.152 452.304 45.224 453.792 45.296L453.84 42.464C452.496 42.44 448.848 42.464 446.4 42.464C443.4 42.464 437.064 42.656 433.488 42.656ZM446.496 49.76L444.24 49.136C445.008 51.992 444.024 52.952 442.896 52.952C441.912 52.952 441.024 52.256 441.024 51.176C441.024 49.904 441.96 49.256 442.896 49.256C443.952 49.256 444.792 50 444.792 51.56C444.792 55.76 441.6 57.368 437.52 58.256L440.064 60.8C445.92 59.144 447.768 55.184 447.768 52.04C447.768 49.064 446.112 46.736 442.944 46.736C440.352 46.736 438.144 48.512 438.144 51.224C438.144 54.152 440.448 55.616 442.296 55.616C445.056 55.616 446.496 53.672 446.496 49.76ZM461.88 40.736L461.976 43.856C462.528 43.76 463.272 43.712 463.92 43.664C465.216 43.568 468.528 43.448 469.752 43.4C468.576 44.456 466.056 46.472 464.712 47.576C463.32 48.752 460.416 51.2 458.712 52.544L460.896 54.8C463.464 51.896 465.84 49.928 469.536 49.928C472.344 49.928 474.504 51.392 474.504 53.576C474.504 56.144 472.44 57.68 468.384 57.68C466.92 57.68 465.936 57.08 465.936 56.192C465.936 55.568 466.536 55.016 467.424 55.016C468.84 55.016 469.752 56.216 469.8 57.944L472.608 57.584C472.536 54.944 470.712 52.736 467.424 52.736C464.88 52.736 463.104 54.512 463.104 56.456C463.104 58.88 465.624 60.392 468.96 60.392C474.768 60.392 477.648 57.392 477.648 53.6C477.648 50.12 474.552 47.576 470.472 47.576C469.728 47.576 469.008 47.624 468.192 47.84C469.728 46.64 472.248 44.528 473.544 43.616C474.072 43.208 474.648 42.872 475.2 42.512L473.664 40.352C473.376 40.448 472.824 40.544 471.816 40.616C470.448 40.736 465.336 40.856 464.04 40.856C463.368 40.856 462.552 40.808 461.88 40.736Z" fill="white"/>
<circle cx="51" cy="51" r="48.5" fill="#FCFF61" stroke="white" stroke-width="5"/>
<path d="M47.7225 33.3985L31.4883 60.5001C31.1536 61.0798 30.9765 61.737 30.9746 62.4063C30.9728 63.0756 31.1462 63.7338 31.4776 64.3153C31.8091 64.8968 32.287 65.3814 32.8639 65.7209C33.4408 66.0603 34.0965 66.2428 34.7658 66.2501H67.2341C67.9034 66.2428 68.5592 66.0603 69.136 65.7209C69.7129 65.3814 70.1909 64.8968 70.5223 64.3153C70.8538 63.7338 71.0272 63.0756 71.0253 62.4063C71.0235 61.737 70.8464 61.0798 70.5117 60.5001L54.2775 33.3985C53.9358 32.8352 53.4547 32.3695 52.8806 32.0462C52.3065 31.723 51.6588 31.5532 51 31.5532C50.3412 31.5532 49.6934 31.723 49.1194 32.0462C48.5453 32.3695 48.0642 32.8352 47.7225 33.3985V33.3985Z" stroke="#5D504F" stroke-width="3" stroke-linecap="round" stroke-linejoin="round"/>
<path d="M51 43.25V50.9167" stroke="#5D504F" stroke-width="4" stroke-linecap="round" stroke-linejoin="round"/>
<path d="M51 58.5835H51.0192" stroke="#5D504F" stroke-width="5" stroke-linecap="round" stroke-linejoin="round"/>
</svg>
