<svg width="562" height="48" viewBox="0 0 562 48" fill="none" xmlns="http://www.w3.org/2000/svg">
<path d="M2 3.1875C5.875 2.6875 9.8125 2.375 13.8125 2.25C17.6875 2.125 20.125 3.4375 21.125 6.1875C21.625 7.5625 21.875 9.75 21.875 12.75C22 15.875 21.9375 18.9375 21.6875 21.9375L8.375 22.6875L7.625 47.625L0.3125 47.4375L2 3.1875ZM14.375 17.4375V14.8125L8.75 15.375L8.5625 17.8125L14.375 17.4375ZM14.375 10.5V8.25L9.3125 8.4375L9.125 10.875L14.375 10.5ZM34.8125 31.3125C34.8125 32.9375 34.75 35.8125 34.625 39.9375L11.75 41.625L12.6875 24L28.0625 23.0625C30.3125 22.9375 32.0625 23.75 33.3125 25.5C34.3125 26.875 34.8125 28.8125 34.8125 31.3125ZM27.125 35.8125V33.75L18.875 33.9375L18.6875 36.1875L27.125 35.8125ZM27.125 29.8125V27.5625L19.0625 27.9375L18.875 30L27.125 29.8125ZM24.875 2.0625L31.0625 1.875C34.1875 1.75 36.25 1.75 37.25 1.875C39.125 2.125 40.6875 2.75 41.9375 3.75C43.4375 5.125 44.375 7.6875 44.75 11.4375C45.25 16.1875 45.5 20.4375 45.5 24.1875L45.6875 41.625C45.1875 43.625 44.5625 45.0625 43.8125 45.9375C43.0625 46.8125 42.25 47.25 41.375 47.25L33.6875 47.8125L31.625 40.6875L38.375 40.5L38 21.75H24.3125L24.875 2.0625ZM37.8125 16.875L37.4375 14.0625H31.25V16.875H37.8125ZM37.0625 9.9375L36.875 8.0625H31.4375L31.25 9.9375H37.0625ZM54.65 32.25C55.275 30.625 55.9625 28.5 56.7125 25.875L50.7125 26.0625V18.75C53.7125 18.625 56.775 18.5 59.9 18.375C61.9 18.375 63.2125 18.8125 63.8375 19.6875C64.5875 20.6875 64.8375 22.1875 64.5875 24.1875C64.3375 26.0625 63.8375 27.9375 63.0875 29.8125L60.65 36.375C63.9 37.875 66.65 38.9375 68.9 39.5625C72.775 40.6875 77.275 41.25 82.4 41.25C85.525 41.25 90.0875 41 96.0875 40.5L95.525 46.875L80.3375 47.25C77.3375 47.375 74.4625 47.1875 71.7125 46.6875C69.7125 46.3125 67.15 45.6875 64.025 44.8125C62.025 44.1875 60.025 43.5625 58.025 42.9375L56.15 47.25L50.3375 41.25C52.2125 37.75 53.65 34.75 54.65 32.25ZM55.025 1.875L64.025 6.75L59.3375 13.125L50.525 6.75L55.025 1.875ZM64.025 10.125L70.9625 9.5625L71.3375 8.4375L67.2125 8.8125L66.8375 4.3125L72.0875 3.9375L72.4625 1.875L79.5875 2.25L79.4 3.375L84.4625 3C86.8375 2.875 88.4625 3.375 89.3375 4.5C89.9625 5.375 90.275 6.9375 90.275 9.1875H95.3375L95.7125 14.25C87.7125 13.875 82.025 13.75 78.65 13.875C74.775 14 69.7125 14.5625 63.4625 15.5625L64.025 10.125ZM63.8375 32.4375L68.525 31.875L68.7125 30.375L65.15 30.75L65.525 26.25L80.7125 25.5V24L67.2125 24.75L67.775 16.125L80.9 14.8125C83.525 14.5625 85.9625 14.5 88.2125 14.625C89.5875 14.75 90.7125 15.125 91.5875 15.75C92.5875 16.5 93.0875 17.4375 93.0875 18.5625V23.4375H88.025L88.2125 25.3125L94.775 25.125V29.0625L88.4 29.25V30.9375H95.9V35.4375H88.4V39.375L80.525 39.5625L80.9 36L63.65 37.3125L63.8375 32.4375ZM84.275 19.6875V18.375L74.7125 18.5625L74.525 20.0625L84.275 19.6875ZM80.7125 31.125V29.4375L76.025 29.625L75.65 31.3125L80.7125 31.125ZM82.775 9V7.3125L78.8375 7.5L78.275 9.1875L82.775 9ZM123.05 41.8125C121.05 43.1875 118.05 44.5 114.05 45.75L111.05 40.875C113.175 40 115.175 39.0625 117.05 38.0625C119.675 36.6875 121.3 35.0625 121.925 33.1875C122.425 31.9375 122.3 30.8125 121.55 29.8125C120.925 28.8125 119.925 28.1875 118.55 27.9375C116.8 27.6875 114.863 27.8125 112.738 28.3125C110.488 28.9375 107.3 30.4375 103.175 32.8125L100.925 26.625C105.925 24.5 109.738 23.1875 112.363 22.6875C117.113 21.8125 121.05 22.25 124.175 24C126.05 25.125 127.425 26.5 128.3 28.125C129.3 30 129.488 32.125 128.863 34.5C128.113 37.375 126.175 39.8125 123.05 41.8125ZM137.262 29.0625L139.887 16.875L134.637 17.4375L134.262 9.75H141.387L142.887 3.75L151.512 4.3125L150.2 9.5625L174.762 9.375L175.325 15.375L159.387 16.125L148.137 16.5C147.262 20.5 146.387 24.5625 145.512 28.6875C144.762 32.8125 143.825 38.3125 142.7 45.1875L134.075 43.875L137.262 29.0625ZM164.262 37.5C166.512 37 169.075 35.1875 171.95 32.0625L176.262 39C172.887 41.875 170.137 43.6875 168.012 44.4375C164.137 45.9375 159.95 46.1875 155.45 45.1875C152.075 44.4375 149.45 42.5 147.575 39.375C146.575 37.625 145.95 35.0625 145.7 31.6875L152.825 30.375C153.45 33.5 154.512 35.5 156.012 36.375C158.387 37.875 161.137 38.25 164.262 37.5ZM161.45 18.5625C165.2 18.4375 169.387 18.5 174.012 18.75L174.2 25.125C168.7 24.75 165.012 24.625 163.137 24.75C160.387 24.875 156.262 25.375 150.762 26.25L150.575 19.3125C156.45 18.8125 160.075 18.5625 161.45 18.5625ZM191.038 27.9375C190.788 30.8125 190.475 33.9375 190.1 37.3125C192.85 38.4375 194.788 39.1875 195.913 39.5625C197.913 40.1875 200.225 40.5625 202.85 40.6875C207.225 40.9375 210.35 41 212.225 40.875L226.85 40.125L225.913 47.4375L225.538 47.625H200.975C199.225 47.625 197.288 47.25 195.163 46.5C193.288 45.875 191.288 45.125 189.163 44.25L188.6 47.8125L181.1 45.375C181.725 42.25 182.35 39.125 182.975 36C183.475 33.625 183.913 30.375 184.288 26.25L180.725 26.625L181.1 19.6875C184.225 19.4375 186.35 19.3125 187.475 19.3125C189.475 19.4375 190.663 20.25 191.038 21.75C191.288 23 191.288 25.0625 191.038 27.9375ZM185.413 3.75L193.1 9.9375L188.038 13.875L187.475 13.5L183.725 9.9375L181.475 8.4375L185.413 3.75ZM211.663 16.875V12.375L209.975 12.5625L209.788 12.375L210.163 7.125L215.6 6.9375V2.0625H221.6V6.9375L226.85 6.75L226.663 11.4375L226.475 11.625H224.975L223.663 16.875H227.038L226.85 21.75L221.788 21.9375L221.6 24.5625H226.663V29.4375H221.6V38.625L215.038 38.8125L214.85 29.8125L209.975 30.1875V36.75L208.663 36.9375L199.85 37.5L197.6 37.3125V33L197.038 38.0625L190.85 36.1875L193.85 3C196.35 2.875 198.475 2.75 200.225 2.625C202.85 2.375 204.788 2.5625 206.038 3.1875C208.163 4.1875 209.225 5.625 209.225 7.5L209.413 17.0625L211.663 16.875ZM208.1 22.125C208.725 22.625 209.288 23.4375 209.788 24.5625L215.038 24.75L215.225 22.5L209.225 23.0625L209.413 17.8125L209.038 18L201.538 18.375L198.725 18.75L198.538 21.375C199.788 21.375 201.038 21.375 202.288 21.375C203.288 21.375 204.35 21.375 205.475 21.375C206.6 21.375 207.475 21.625 208.1 22.125ZM203.6 13.125V8.0625L199.475 8.625L199.1 13.125H203.6ZM202.663 31.875L204.538 31.6875L204.725 26.4375L202.85 26.625L202.663 31.875ZM218.413 16.875L219.35 11.8125L216.913 12L216.538 16.875H218.413ZM231.5 10.5L235.062 10.3125L236.75 1.875L243.312 3L242 10.125H251.188L251.375 15.375H248.938L246.688 33.1875L250.625 34.3125L249.5 40.875L245.938 39.75L244.812 47.625L237.5 46.125L239 37.3125C236.375 36.5625 234.562 35.75 233.562 34.875C232.312 33.875 231.812 32.5 232.062 30.75L233.938 16.5L231.312 16.875L231.5 10.5ZM240.5 31.125L242.75 15.75L241.062 15.9375L238.812 30.5625L240.5 31.125ZM272.562 1.6875L276.875 6.375L267.312 7.875L266.938 19.6875L277.062 19.875L277.25 25.875L266.938 26.0625L267.125 40.125H275.188L275.375 45.75L252.125 47.4375V40.3125L259.438 40.125L260 26.4375L249.125 27.9375L249.312 19.875L259.812 19.6875L260.188 9.1875L251.938 10.6875L247.438 4.6875L272.562 1.6875ZM286.025 26.0625L293.15 28.125L289.025 46.875L281.525 44.25L286.025 26.0625ZM284.337 22.875C282.837 21.875 281.962 20.5 281.712 18.75C281.587 17.5 281.837 16.4375 282.462 15.5625C283.337 14.4375 284.462 13.8125 285.837 13.6875C287.087 13.5625 288.337 13.9375 289.587 14.8125C290.587 15.4375 291.275 16.375 291.65 17.625C292.025 18.75 292.025 19.8125 291.65 20.8125C291.15 22.1875 290.275 23.0625 289.025 23.4375C287.4 24.0625 285.837 23.875 284.337 22.875ZM287.9 11.4375C285.9 10.6875 284.775 9.3125 284.525 7.3125C284.15 5.1875 284.712 3.625 286.212 2.625C287.587 1.625 289.212 1.375 291.087 1.875C293.337 2.5 294.65 3.75 295.025 5.625C295.4 7.5 294.9 9.0625 293.525 10.3125C291.775 11.8125 289.9 12.1875 287.9 11.4375ZM306.462 21.5625L306.65 16.6875L296.525 17.4375L297.087 10.6875L307.025 10.125L307.775 2.0625L316.587 2.25L316.025 10.125H325.587L325.775 15.9375L315.837 16.125L315.65 21.375H327.837L327.65 27L311.15 27.5625L305.9 38.0625L315.087 36.75L312.462 29.625L319.775 27.375L327.087 45.375L318.65 47.0625L317.337 43.5L302.337 46.6875C300.712 47.0625 299.337 47.1875 298.212 47.0625C296.587 46.9375 295.462 46.3125 294.837 45.1875C294.462 44.3125 294.4 43.3125 294.65 42.1875C295.025 40.9375 295.9 39 297.275 36.375L301.587 28.5L293.525 29.0625L294.275 21.9375L306.462 21.5625ZM343.175 5.625C341.925 13.875 341.175 19.9375 340.925 23.8125C340.675 27.5625 340.612 34.4375 340.737 44.4375L332.3 45.375C332.425 34.125 332.675 26.25 333.05 21.75C333.55 16.875 334.3 11.0625 335.3 4.3125L343.175 5.625ZM350.3 28.875C350.3 30.875 350.487 32.3125 350.862 33.1875C351.362 34.8125 352.55 35.875 354.425 36.375C356.55 37 358.862 37.0625 361.362 36.5625C362.737 36.3125 363.987 35.9375 365.112 35.4375C366.612 34.8125 368.425 33.75 370.55 32.25L373.925 39.75C370.175 42 366.862 43.4375 363.987 44.0625C358.112 45.4375 353.237 45.125 349.362 43.125C346.737 41.75 344.8 39.625 343.55 36.75C342.925 35.25 342.487 32.8125 342.237 29.4375L350.3 28.875ZM357.987 7.125C360.987 7 365.612 6.9375 371.862 6.9375L371.675 13.5C364.8 13.625 359.675 13.9375 356.3 14.4375C354.425 14.6875 351.362 15.3125 347.112 16.3125L346.362 8.25C350.987 7.75 354.862 7.375 357.987 7.125ZM403.888 2.4375C408.763 2.5625 415.513 2.75 424.138 3L423.95 7.6875L410.263 7.3125L410.45 10.6875H412.513C415.763 10.6875 418.075 11.75 419.45 13.875C419.825 14.375 420.075 15.0625 420.2 15.9375C420.45 16.9375 420.575 20.0625 420.575 25.3125L397.888 25.5L397.325 27.5625L424.138 27.75V32.8125L413.825 32.4375L409.513 38.8125L416.45 40.125L414.388 47.0625L405.388 44.8125L403.138 48L395.075 45.75L397.138 43.125C393.638 42.625 391.138 42.125 389.638 41.625C387.513 41 386.263 40 385.888 38.625C385.513 37.5 385.7 35.875 386.45 33.75L378.575 34.6875L378.763 28.125L388.7 27.75L389.45 25.875L381.575 26.625L381.388 26.25L383.075 11.0625L393.763 10.6875L394.138 7.6875L378.575 9V2.4375C387.7 2.3125 396.138 2.3125 403.888 2.4375ZM392.825 20.625L393.2 16.3125L390.2 16.5L389.638 20.625H392.825ZM401.263 36.9375L404.075 32.625L395.638 33L394.888 35.4375L401.263 36.9375ZM403.138 20.4375L403.325 15.5625L400.325 15.75L399.95 20.625L403.138 20.4375ZM403.325 10.5V7.3125H400.888L400.7 10.6875L403.325 10.5ZM413.075 20.625L412.888 15.5625L410.263 15.375V20.625H413.075ZM434.225 27L440.975 29.0625L436.663 47.25L429.163 44.4375L434.225 27ZM429.913 15.1875C430.788 13.6875 432.288 13 434.413 13.125C436.413 13.25 437.725 14.25 438.35 16.125C438.6 17.125 438.6 18.125 438.35 19.125C437.975 20.5 437.35 21.4375 436.475 21.9375C435.225 22.6875 433.913 22.8125 432.538 22.3125C431.163 21.8125 430.225 20.9375 429.725 19.6875C429.1 18.0625 429.163 16.5625 429.913 15.1875ZM436.663 10.875C434.913 10.125 433.975 8.875 433.85 7.125C433.725 5.375 434.35 4.0625 435.725 3.1875C437.6 2.0625 439.413 1.9375 441.163 2.8125C442.288 3.5625 442.913 4.625 443.038 6C443.288 7.75 442.725 9.1875 441.35 10.3125C439.975 11.4375 438.413 11.625 436.663 10.875ZM455.225 38.4375L455.6 28.6875L446.788 29.625L446.975 22.875L455.6 22.6875L455.788 16.3125L444.538 17.4375L444.725 10.5L458.975 10.3125C455.975 9.3125 454.663 7.5625 455.038 5.0625C455.413 3.1875 456.538 2 458.413 1.5C460.413 1 462.1 1.4375 463.475 2.8125C464.725 4.3125 464.975 5.9375 464.225 7.6875C463.725 8.8125 462.35 9.625 460.1 10.125H474.725L474.538 15.75H463.475V22.5L472.475 22.3125L472.288 28.125H463.475V38.25H474.725V44.8125L472.663 44.625L457.85 45L452.6 45.5625L444.163 46.5V39L455.225 38.4375ZM485.75 36.9375L483.875 37.125C484 34.125 484.125 31.8125 484.25 30.1875C484.375 28.0625 484.688 25.375 485.188 22.125L501.5 20.4375L512.562 20.25C515.062 20.25 516.812 21.25 517.812 23.25C518.312 24.25 518.812 26.375 519.312 29.625C519.562 30.875 519.5 32.875 519.125 35.625H506.562C507.938 37.125 508.5 38.4375 508.25 39.5625C508 40.5625 507.312 41.25 506.188 41.625C505.188 41.875 504.25 41.8125 503.375 41.4375C502.125 40.9375 501.438 40.0625 501.312 38.8125C501.188 37.8125 501.625 36.75 502.625 35.625L487.812 36.9375L491.188 40.875L482.938 47.25L479.375 41.8125L485.75 36.9375ZM490.625 13.5L491.188 11.4375L482.75 12L483.688 5.625L498.688 4.875L499.062 2.25H506.938L506.188 4.875L522.312 5.8125L521.75 11.625L514.062 11.25L513.5 13.125L524.75 13.3125L524 19.6875C519.125 19.4375 514.812 19.25 511.062 19.125C507.688 19 504.125 19.0625 500.375 19.3125C495.125 19.5625 488.375 20.1875 480.125 21.1875L479.938 15L490.625 13.5ZM510.5 31.3125L510.312 29.625L492.125 31.125V32.0625L510.5 31.3125ZM498.688 36.75L498.875 41.625L507.5 42L509 38.25L515.188 40.6875C514.812 42.3125 514.5 43.4375 514.25 44.0625C513.875 45.0625 513.312 45.8125 512.562 46.3125C511.938 46.8125 510.938 47.125 509.562 47.25C508.438 47.375 507.125 47.4375 505.625 47.4375L497 47.25C495.125 47.25 493.75 46.625 492.875 45.375C492.25 44.5 492 43.0625 492.125 41.0625C492.25 39.9375 492.438 38.5 492.688 36.75H498.688ZM510.125 25.875L509.938 24.5625L492.688 25.5L492.5 27L510.125 25.875ZM504.312 13.125L504.875 11.25H498.875L498.5 13.3125L504.312 13.125ZM516.125 44.25C515.625 43.5 515.375 42.6875 515.375 41.8125C515.375 40.3125 515.938 39.125 517.062 38.25C518.188 37.375 519.438 37.0625 520.812 37.3125C522.062 37.5625 523 38.25 523.625 39.375C524.25 40.5 524.438 41.625 524.188 42.75C523.562 45.5 521.688 46.5625 518.562 45.9375C517.562 45.6875 516.75 45.125 516.125 44.25ZM547.213 40.3125C546.338 39.4375 545.9 38.3125 545.9 36.9375C545.9 35.6875 546.4 34.5625 547.4 33.5625C548.275 32.6875 549.338 32.25 550.588 32.25C551.838 32.25 552.963 32.75 553.963 33.75C554.838 34.625 555.275 35.75 555.275 37.125C555.275 38.375 554.775 39.5 553.775 40.5C552.9 41.375 551.838 41.8125 550.588 41.8125C549.338 41.8125 548.213 41.3125 547.213 40.3125ZM551.713 3L561.463 4.6875C560.588 7.9375 559.525 12.125 558.275 17.25C557.4 20.75 556.4 25.5 555.275 31.5L547.775 30.1875L551.713 3Z" fill="#765EC5"/>
</svg>
