<svg width="782" height="36" viewBox="0 0 782 36" fill="none" xmlns="http://www.w3.org/2000/svg">
<path d="M14.3438 14.6875C9.84375 15.0625 5.34375 15.6719 0.84375 16.5156L0.984375 9.625L18.4219 8.35938L17.7188 2.03125L23.625 1.89062L24.4688 8.5L32.3438 8.78125V13.9844H24.8906L25.875 33.25L19.125 33.5312V18.4844C16.7812 20.6406 14.4375 22.9375 12.0938 25.375C9.75 27.9062 7.5 30.4375 5.34375 32.9688L0.5625 28.1875L14.3438 14.6875ZM47.6437 17.0781C50.2687 14.2656 52.4719 11.5469 54.2531 8.92188L37.8 11.3125L37.2375 4.28125L49.6125 3.15625C51.3937 2.96875 53.0344 2.82812 54.5344 2.73438C56.5031 2.64063 58.0969 2.82812 59.3156 3.29688C61.4719 4.14062 62.55 5.5 62.55 7.375C62.55 8.5 62.2219 9.67188 61.5656 10.8906C61.0969 11.8281 60.2062 13.0938 58.8937 14.6875L54.675 19.8906L65.925 29.0312L60.4406 33.8125L50.0344 25.0938L41.4562 33.9531L35.9719 29.4531L42.0187 23.125C44.0812 20.875 45.9562 18.8594 47.6437 17.0781ZM81.225 17.0781C83.85 14.2656 86.0531 11.5469 87.8344 8.92188L71.3812 11.3125L70.8187 4.28125L83.1937 3.15625C84.975 2.96875 86.6156 2.82812 88.1156 2.73438C90.0844 2.64063 91.6781 2.82812 92.8969 3.29688C95.0531 4.14062 96.1312 5.5 96.1312 7.375C96.1312 8.5 95.8031 9.67188 95.1469 10.8906C94.6781 11.8281 93.7875 13.0938 92.475 14.6875L88.2562 19.8906L99.5062 29.0312L94.0219 33.8125L83.6156 25.0938L75.0375 33.9531L69.5531 29.4531L75.6 23.125C77.6625 20.875 79.5375 18.8594 81.225 17.0781ZM107.213 24.5312L111.713 18.3438L103.134 14.2656L107.072 8.64062L116.072 13.1406L121.134 7.51562L126.338 2.03125L131.963 5.6875L122.259 16.6562L130.556 22L126.338 27.4844L118.041 22L109.603 33.8125L102.994 30.1562L107.213 24.5312ZM142.762 2.73438C141.825 11.1719 141.309 17.5 141.216 21.7188C141.122 24.9062 141.122 28.8906 141.216 33.6719L135.309 32.9688C135.403 26.6875 135.544 21.7656 135.731 18.2031C135.919 14.9219 136.481 9.625 137.419 2.3125L142.762 2.73438ZM143.184 9.34375L154.575 8.78125L153.45 2.73438L159.356 2.3125L160.481 8.78125L166.528 8.92188V13.5625H160.903L161.184 18.0625L166.387 18.625L166.528 24.3906L161.466 23.6875C161.372 27.3438 160.622 29.9219 159.216 31.4219C157.528 33.2969 154.95 34.0469 151.481 33.6719C147.356 33.2969 144.919 31.4688 144.169 28.1875C143.512 25.1875 144.169 22.5625 146.137 20.3125C147.45 18.9062 148.95 18.0156 150.637 17.6406C152.044 17.3594 153.731 17.3125 155.7 17.5L155.419 13.9844L143.044 15.1094L143.184 9.34375ZM155.137 26.9219C155.7 26.1719 155.934 24.8594 155.841 22.9844C154.247 22.7969 153.075 22.7969 152.325 22.9844C150.825 23.2656 149.887 24.0156 149.512 25.2344C149.137 26.2656 149.278 27.1094 149.934 27.7656C150.497 28.3281 151.294 28.5625 152.325 28.4688C153.544 28.2812 154.481 27.7656 155.137 26.9219ZM173.531 24.8125L175.219 26.7812L179.719 32.4062L174.516 35.3594L170.156 27.0625L173.531 24.8125ZM215.55 25.0938L215.128 10.8906C211.753 10.9844 208.8 11.125 206.269 11.3125C203.925 11.5 200.55 11.875 196.144 12.4375L196.566 5.6875L207.534 4.98438C210.534 4.79687 213.113 4.79687 215.269 4.98438C219.769 5.35937 222.019 8.45312 222.019 14.2656L222.159 31.1406C216.816 31.1406 212.269 31.1875 208.519 31.2812C206.175 31.375 201.956 31.7031 195.863 32.2656L196.003 25.375L215.55 25.0938ZM229.303 2.03125L241.116 8.21875L237.178 14.2656L225.506 7.23438L229.303 2.03125ZM253.069 13L256.163 18.625L231.413 34.5156L227.053 28.6094L253.069 13ZM260.212 2.59375H266.4L266.119 16.5156L268.228 12.4375L284.259 19.1875L281.728 24.9531C279.103 23.5469 276.572 22.2812 274.134 21.1562C271.228 19.9375 268.556 18.8594 266.119 17.9219V33.6719L259.509 33.5312L260.212 2.59375ZM276.384 4.14062L279.478 10.1875L276.244 11.4531L273.291 5.26562L276.384 4.14062ZM280.744 2.875L283.837 8.92188L280.603 10.3281L277.65 3.85938L280.744 2.875ZM287.184 15.5312L317.278 15.1094L317.138 19.75C310.294 19.9375 304.153 20.1719 298.716 20.4531C296.747 20.6406 292.903 21.0625 287.184 21.7188V15.5312ZM337.5 4.84375C335.719 8.5 334.031 12.1094 332.438 15.6719C330.844 19.7031 329.438 23.4531 328.219 26.9219H331.594L344.391 26.0781L339.609 14.5469L346.078 12.2969C347.578 15.4844 349.078 18.625 350.578 21.7188C351.609 23.9688 352.219 25.8438 352.406 27.3438C352.594 29.0312 351.984 30.3438 350.578 31.2812C349.266 32.125 347.531 32.5938 345.375 32.6875L334.688 33.25C329.625 33.5312 326.297 33.4844 324.703 33.1094C322.828 32.7344 321.656 31.7031 321.188 30.0156C320.812 28.7969 320.812 27.5312 321.188 26.2188C321.656 24.3438 322.266 22.5625 323.016 20.875C324.609 17.2188 326.203 13.75 327.797 10.4688L331.594 2.3125L337.5 4.84375ZM360.675 4.5625L366.159 2.45312L369.253 8.92188L381.347 5.82812L383.597 11.3125L371.644 14.125L374.175 19.6094L368.831 21.5781L366.722 16.375C364.753 17.5 363.487 18.7656 362.925 20.1719C361.519 23.5469 362.175 25.9375 364.894 27.3438C366.862 28.375 369.206 28.75 371.925 28.4688C373.706 28.2812 375.347 27.8594 376.847 27.2031C378.534 26.3594 380.362 25.2812 382.331 23.9688L385.706 28.6094C381.3 31.5156 377.691 33.25 374.878 33.8125C372.253 34.2812 369.769 34.375 367.425 34.0938C363.862 33.625 361.097 32.5 359.128 30.7188C356.503 28.1875 355.566 24.6719 356.316 20.1719C356.597 18.2031 357.347 16.5156 358.566 15.1094C359.784 13.7031 361.612 12.2969 364.05 10.8906L360.675 4.5625ZM395.944 1.04688L400.163 3.15625L399.6 4.28125L412.959 1.89062L418.866 1.1875L422.241 4.98438L422.1 5.26562L414.084 6.53125L415.35 12.8594L421.678 12.5781V16.9375L416.616 17.0781L419.147 23.125L420.413 21.7188H420.553C421.209 22.6562 421.725 23.5 422.1 24.25C422.381 24.8125 422.709 25.375 423.084 25.9375L423.225 26.5C422.475 27.3438 421.725 28.0938 420.975 28.75C419.85 29.6875 418.678 30.0156 417.459 29.7344C416.428 29.4531 415.538 28.7031 414.788 27.4844C414.413 26.8281 414.084 26.1719 413.803 25.5156C413.053 23.7344 412.116 21.0625 410.991 17.5L405.366 18.0625L404.663 24.1094L411.975 21.4375L412.397 26.2188C409.584 27.7188 406.959 28.8906 404.522 29.7344C403.772 30.0156 402.975 30.2031 402.131 30.2969C400.913 30.3906 400.069 30.1562 399.6 29.5938C399.038 28.9375 398.803 28.0469 398.897 26.9219L399.319 19.8906L400.444 7.09375L399.319 4.98438L398.053 7.51562L397.631 21.4375L397.35 35.2188H391.725L392.569 18.7656L391.444 21.1562L391.163 21.0156C390.506 19.0469 389.709 17.0312 388.772 14.9688L392.991 6.8125L395.803 1.1875L395.944 1.04688ZM402.553 30.7188L416.756 30.4375H420.834L420.975 34.2344L406.772 34.9375L402.694 35.2188L402.553 30.7188ZM409.725 13L408.881 7.65625L406.069 8.21875L405.647 13.1406L409.725 13ZM430.087 2.3125L448.509 1.89062L451.181 1.75C452.587 1.65625 453.712 1.70312 454.556 1.89062C456.056 2.17188 457.181 2.82812 457.931 3.85938C458.775 5.07812 459.244 6.625 459.337 8.5L459.759 22.7031C459.947 27.4844 459.947 30.4844 459.759 31.7031C459.572 33.3906 458.541 34.5156 456.666 35.0781C455.728 35.3594 453.759 35.5 450.759 35.5L448.791 29.0312L453.009 29.1719V24.25L447.384 24.3906L447.525 32.125L440.353 32.2656L440.494 24.8125L434.869 25.0938L434.587 35.3594L427.416 34.6562L429.806 2.3125H430.087ZM440.634 19.8906L440.916 16.375L435.431 16.6562L435.15 19.8906H440.634ZM441.056 11.5938L441.337 6.8125L435.712 7.09375L435.572 11.5938H441.056ZM453.009 19.8906V16.375H447.244V19.8906H453.009ZM452.869 11.5938L452.587 6.67188L447.666 6.53125L447.384 11.5938H452.869ZM498.825 12.0156V15.6719C493.763 15.5781 490.059 15.5312 487.716 15.5312C481.622 15.7188 473.934 16.1875 464.653 16.9375V12.1562L498.825 12.0156ZM478.153 31.1406L478.294 29.875L468.028 30.7188L468.591 27.0625L478.434 26.7812L478.575 25.6562L468.591 26.5L468.45 26.3594L469.153 17.0781L481.106 16.5156L487.434 16.375C490.341 16.2812 492.356 17.1719 493.481 19.0469C494.419 20.5469 494.841 22.75 494.747 25.6562L485.044 25.5156V26.7812L494.747 26.6406L495.028 29.5938L485.044 29.7344V31.1406H498.825V34.2344C492.169 34.0469 486.544 34 481.95 34.0938C478.294 34.1875 472.528 34.5156 464.653 35.0781V31.2812L478.153 31.1406ZM470.278 1.04688L479.7 0.90625C483.825 0.8125 486.966 0.859375 489.122 1.04688C491.466 1.23438 492.966 2.5 493.622 4.84375C493.997 6.15625 494.184 8.3125 494.184 11.3125L488.7 11.0312L474.356 11.4531L469.294 11.5938L470.278 1.04688ZM478.716 23.2656V22.4219L474.497 22.7031V23.2656H478.716ZM478.716 20.1719V19.4688L474.497 19.6094V20.1719H478.716ZM487.856 8.5L487.716 7.23438L475.622 7.375V8.64062L487.856 8.5ZM487.716 5.125L487.575 3.85938L475.622 4.14062V4.98438L487.716 5.125ZM488.7 23.2656V22.2812L485.044 22.1406V23.2656H488.7ZM488.7 20.1719V19.4688L488.559 19.1875H485.044V20.1719H488.7ZM510.609 2.73438L509.766 11.875L526.359 8.64062C525.422 7.04687 525.188 5.59375 525.656 4.28125C526.031 3.25 526.641 2.45312 527.484 1.89062C528.516 1.23438 529.641 1 530.859 1.1875C532.266 1.46875 533.297 2.21875 533.953 3.4375C534.328 4.09375 534.516 4.79687 534.516 5.54688C534.516 6.29688 534.422 6.90625 534.234 7.375C533.766 8.59375 532.922 9.4375 531.703 9.90625C530.953 10.2812 529.875 10.3281 528.469 10.0469L529.594 13.5625L509.344 18.2031L508.781 27.0625C513.469 26.9688 517.031 26.8281 519.469 26.6406C522.281 26.4531 526.594 25.9844 532.406 25.2344L532.266 31.8438C525.141 32.6875 519.094 33.1094 514.125 33.1094C511.219 33.1094 509.391 33.0625 508.641 32.9688C506.859 32.6875 505.5 32.0781 504.562 31.1406C503.625 30.2031 503.016 28.9375 502.734 27.3438C502.547 26.2188 502.5 24.7188 502.594 22.8438L503.859 2.875L510.609 2.73438ZM528.328 7.51562C528.891 7.98438 529.453 8.21875 530.016 8.21875C530.766 8.21875 531.375 7.98438 531.844 7.51562C532.312 7.04687 532.547 6.34375 532.547 5.40625C532.547 4.65625 532.266 4 531.703 3.4375C531.328 3.0625 530.766 2.875 530.016 2.875C529.266 2.875 528.609 3.20313 528.047 3.85938C527.672 4.32813 527.484 4.89063 527.484 5.54688C527.484 6.39062 527.766 7.04687 528.328 7.51562ZM539.691 18.3438C540.534 14.0312 541.378 9.85937 542.222 5.82812L549.112 6.95312C547.8 12.2969 546.816 16.6562 546.159 20.0312C545.597 23.125 544.987 27.625 544.331 33.5312L537.441 32.125C538.378 25.9375 539.128 21.3438 539.691 18.3438ZM559.378 2.875C558.534 10.75 558.253 18.625 558.534 26.5L566.55 21.4375L569.222 27.3438L563.456 31C559.425 33.5312 556.284 34.2812 554.034 33.25C552.253 32.4062 551.362 30.5781 551.362 27.7656C551.362 25.6094 551.878 17.2656 552.909 2.73438L559.378 2.875ZM591.412 29.1719C593.756 27.5781 595.303 26.0781 596.053 24.6719C597.084 22.9844 597.6 20.875 597.6 18.3438C597.6 15.7188 597.037 13.6562 595.912 12.1562C594.787 10.6563 593.381 9.625 591.694 9.0625C589.912 8.5 588.084 8.45312 586.209 8.92188C583.303 9.76562 581.1 11.4531 579.6 13.9844C578.381 16.0469 577.866 18.1562 578.053 20.3125C578.147 21.25 578.381 22.0469 578.756 22.7031C579.319 23.6406 579.975 23.9688 580.725 23.6875C581.381 23.5 582.319 22.8906 583.537 21.8594C584.475 21.1094 585.178 20.5 585.647 20.0312C587.334 18.4375 589.162 16.4219 591.131 13.9844L595.209 17.6406C592.959 20.6406 591.037 22.9375 589.444 24.5312C587.1 26.875 584.709 28.6562 582.272 29.875C580.772 30.625 579.319 30.8594 577.912 30.5781C576.319 30.2969 575.1 29.4531 574.256 28.0469C573.225 26.4531 572.662 24.25 572.569 21.4375C572.475 19 572.756 16.75 573.412 14.6875C574.444 11.3125 576.272 8.64062 578.897 6.67188C581.897 4.42188 585.178 3.29688 588.741 3.29688C593.241 3.29688 596.897 4.89063 599.709 8.07812C601.303 9.85937 602.381 12.0625 602.944 14.6875C603.506 17.3125 603.553 19.8438 603.084 22.2812C602.709 24.1562 602.1 25.9375 601.256 27.625C600.412 29.3125 598.866 31.2344 596.616 33.3906L591.412 29.1719ZM618.666 2.03125L624.853 4.14062L623.166 6.10938L630.9 5.40625L632.025 8.78125L636.666 7.9375C637.228 8.5 637.509 9.10938 637.509 9.76562C637.603 11.2656 636.994 13.0938 635.681 15.25L632.166 21.1562L636.244 23.5469L632.588 28.3281L628.791 26.0781L623.025 34.0938L617.119 31L623.025 22.8438L616.556 19.6094L620.072 14.6875L626.259 17.7812L630.338 11.4531L618.384 12.8594L612.759 22.2812L607.134 19.3281L618.666 2.03125ZM633.853 1.89062L635.963 7.51562L632.447 8.21875L630.478 2.73438L633.853 1.89062ZM637.65 1.60938L639.9 6.8125L636.947 7.65625L634.838 2.45312L637.65 1.60938ZM660.684 34.0938L654.497 31L667.013 9.48438L652.528 11.5938L643.809 13.2812L642.825 6.67188L657.731 4.28125C662.044 3.625 665.278 3.39062 667.434 3.57812C670.059 3.85938 671.841 4.70312 672.778 6.10938C674.091 8.07812 673.763 10.8437 671.794 14.4062L660.684 34.0938ZM672.216 23.5469L674.606 29.4531L671.372 30.4375L669.263 24.5312L672.216 23.5469ZM668.559 25.2344L670.95 31L667.716 32.125L665.606 26.0781L668.559 25.2344ZM679.781 18.3438C680.625 14.0312 681.469 9.85937 682.312 5.82812L689.203 6.95312C687.891 12.2969 686.906 16.6562 686.25 20.0312C685.688 23.125 685.078 27.625 684.422 33.5312L677.531 32.125C678.469 25.9375 679.219 21.3438 679.781 18.3438ZM699.469 2.875C698.625 10.75 698.344 18.625 698.625 26.5L706.641 21.4375L709.312 27.3438L703.547 31C699.516 33.5312 696.375 34.2812 694.125 33.25C692.344 32.4062 691.453 30.5781 691.453 27.7656C691.453 25.6094 691.969 17.2656 693 2.73438L699.469 2.875ZM719.972 0.90625L724.612 2.59375L722.503 6.8125L721.8 18.625L721.378 35.0781L715.612 34.9375L716.737 18.625L714.769 22.2812H714.628L712.378 16.375L719.972 0.90625ZM725.456 24.25L724.191 24.3906L724.894 11.875L732.347 11.1719L732.769 9.0625L724.05 9.76562L724.331 5.26562L733.472 5.125L734.175 0.90625L739.519 1.1875L738.956 4.98438H746.691L746.831 9.0625L738.112 8.92188L737.691 11.0312C738.816 10.9375 739.8 10.8906 740.644 10.8906C741.769 10.8906 742.706 11.0781 743.456 11.4531C744.3 11.8281 744.909 12.6719 745.284 13.9844C745.659 15.4844 745.847 18.625 745.847 23.4062L735.722 23.2656L735.159 26.7812L746.831 30.2969L744.019 35.0781L734.597 31.8438L733.894 35.3594L728.409 33.9531L728.972 30.1562L722.503 28.1875L725.456 24.25ZM729.816 25.2344L730.097 23.6875L726.019 24.25L729.816 25.2344ZM730.8 19.6094L731.644 14.9688L729.534 15.1094L729.112 19.6094H730.8ZM740.081 19.6094V14.6875H737.128L736.144 19.6094H740.081ZM759.6 4.42188C758.1 8.26563 757.116 11.3125 756.647 13.5625C756.178 15.625 756.037 19 756.225 23.6875L759.881 17.5L764.662 20.5938L760.584 28.3281C759.741 29.9219 759.084 31 758.616 31.5625C757.866 32.5 756.975 33.0625 755.944 33.25C753.881 33.5312 752.381 32.2656 751.444 29.4531C750.881 27.6719 750.553 25.3281 750.459 22.4219C750.366 18.9531 750.6 15.625 751.162 12.4375C751.631 10 752.616 6.625 754.116 2.3125L759.6 4.42188ZM777.6 3.15625C778.725 7.375 779.522 10.9844 779.991 13.9844C780.553 17.3594 780.975 21.9531 781.256 27.7656L775.069 27.9062C774.881 22.2812 774.6 18.1562 774.225 15.5312C773.85 13.1875 773.006 9.48438 771.694 4.42188L777.6 3.15625Z" fill="#765EC5"/>
</svg>
