<svg width="733" height="32" viewBox="0 0 733 32" fill="none" xmlns="http://www.w3.org/2000/svg">
<path d="M20.888 2.368H16.312C16.472 3.232 16.536 4.256 16.632 5.632C16.888 10.912 16.952 19.68 16.952 24.096C16.952 24.992 16.664 25.408 15.864 25.408C14.776 25.408 13.048 25.28 11.576 25.056L11.96 29.216C13.784 29.344 15.544 29.408 17.496 29.408C19.928 29.408 21.112 28.224 21.08 26.176C21.016 19.712 20.792 10.912 20.696 5.632C20.664 4.608 20.728 3.392 20.888 2.368ZM2.616 7.712V11.968C3.736 11.904 5.08 11.84 6.264 11.84C8.024 11.84 23.672 11.84 24.92 11.84C25.784 11.84 27.032 11.872 28.024 11.904V7.68C27.256 7.776 25.752 7.936 24.728 7.936C23.16 7.936 8.376 7.936 6.136 7.936C5.048 7.936 3.512 7.808 2.616 7.712ZM0.888 22.944L3.832 26.272C9.336 23.36 15 18.336 17.592 14.464L17.56 11.04H15.48C13.176 14.816 7.576 19.744 0.888 22.944ZM57.656 6.336L55.064 4.384C54.392 4.608 53.144 4.768 51.736 4.768C50.328 4.768 42.136 4.768 40.44 4.768C39.512 4.768 37.528 4.672 36.664 4.544V9.12C37.368 9.056 39.128 8.896 40.44 8.896C41.816 8.896 49.976 8.896 51.32 8.896C50.584 11.168 48.632 14.336 46.52 16.736C43.512 20.064 38.584 23.968 33.4 25.888L36.728 29.344C41.688 27.008 46.52 23.04 50.104 18.912C52.856 15.712 55.224 11.36 56.536 8.32C56.824 7.648 57.4 6.688 57.656 6.336ZM50.52 16.256L47.512 19.232C50.936 22.336 54.424 26.144 56.792 29.44L60.44 26.272C58.36 23.712 53.816 18.944 50.52 16.256ZM89.656 6.336L87.064 4.384C86.392 4.608 85.144 4.768 83.736 4.768C82.328 4.768 74.136 4.768 72.44 4.768C71.512 4.768 69.528 4.672 68.664 4.544V9.12C69.368 9.056 71.128 8.896 72.44 8.896C73.816 8.896 81.976 8.896 83.32 8.896C82.584 11.168 80.632 14.336 78.52 16.736C75.512 20.064 70.584 23.968 65.4 25.888L68.728 29.344C73.688 27.008 78.52 23.04 82.104 18.912C84.856 15.712 87.224 11.36 88.536 8.32C88.824 7.648 89.4 6.688 89.656 6.336ZM82.52 16.256L79.512 19.232C82.936 22.336 86.424 26.144 88.792 29.44L92.44 26.272C90.36 23.712 85.816 18.944 82.52 16.256ZM121.976 4.48L117.208 2.848C117.048 3.648 116.728 4.96 116.44 5.792C115.32 8.992 113.88 12.288 111.352 15.616C107.96 20.032 103.96 23.584 98.136 26.368L101.688 29.632C107.896 26.208 111.832 22.08 114.808 18.24C117.464 14.784 119.416 10.56 120.632 7.392C120.92 6.624 121.528 5.216 121.976 4.48ZM104.376 7.584L101.624 10.848C105.656 13.312 109.4 16.192 111.704 18.112C115.096 20.928 117.912 23.552 120.696 26.816L123.992 23.136C121.4 20.384 118.04 17.376 114.616 14.72C111.928 12.608 107.544 9.568 104.376 7.584ZM139.48 8.352L139.512 12.192C141.4 12.32 143.224 12.384 145.112 12.384C148.952 12.352 152.984 12.096 156.344 11.584V7.616C153.016 8.32 149.016 8.64 145.112 8.64C143.16 8.64 141.336 8.544 139.48 8.352ZM151.672 2.976H147.096C147.192 3.584 147.288 4.576 147.288 5.088C147.32 6.048 147.352 8.192 147.352 10.624C147.352 15.232 147.768 20.608 147.768 22.816C147.768 24.704 147.096 25.728 145.144 25.728C143.416 25.728 142.136 25.152 142.136 23.84C142.136 22.624 143.384 21.888 145.208 21.888C148.824 21.888 152.056 24.032 155.736 27.456L157.912 24.096C155.416 21.792 151.544 18.784 145.528 18.784C141.144 18.784 138.392 21.024 138.392 24.288C138.392 27.648 141.144 29.472 145.592 29.472C150.2 29.472 151.864 27.04 151.864 23.68C151.864 20.64 151.352 16.48 151.352 10.592C151.352 8.288 151.416 6.08 151.48 5.024C151.512 4.352 151.576 3.584 151.672 2.976ZM136.056 3.296L131.608 2.944C131.576 3.936 131.448 5.184 131.32 6.08C130.936 8.544 129.976 14.592 129.976 19.424C129.976 23.744 130.616 27.424 131.256 29.632L134.872 29.376C134.84 28.928 134.84 28.384 134.84 28.032C134.808 27.712 134.904 27.008 135 26.56C135.352 24.8 136.408 21.568 137.304 18.912L135.32 17.344C134.872 18.432 134.328 19.52 133.88 20.64C133.784 20 133.752 19.168 133.752 18.56C133.752 15.36 134.808 8.32 135.288 6.176C135.416 5.6 135.8 3.936 136.056 3.296ZM167.16 30.208L170.584 27.264C168.952 25.28 165.88 22.144 163.608 20.288L160.248 23.168C162.488 25.088 165.208 27.84 167.16 30.208ZM195.992 5.28V9.76C196.888 9.696 198.616 9.632 199.96 9.632H214.36V25.44C214.36 26.624 214.328 27.776 214.296 28.736H218.936C218.872 27.744 218.776 26.08 218.776 24.96V8.384C218.776 7.424 218.84 6.176 218.872 5.408C218.328 5.44 217.016 5.504 216.088 5.504H199.96C198.84 5.504 197.208 5.408 195.992 5.28ZM195.608 22.656V27.264C196.664 27.136 198.456 27.072 199.704 27.072H216.888V22.848H199.576C198.136 22.848 196.696 22.752 195.608 22.656ZM230.712 3.68L227.672 6.912C230.008 8.512 234.04 12 235.704 13.792L238.968 10.464C237.08 8.512 232.92 5.184 230.712 3.68ZM226.68 24.992L229.4 29.216C233.88 28.448 238.008 26.688 241.272 24.736C246.424 21.632 250.68 17.216 253.08 12.864L250.616 8.384C248.568 12.704 244.408 17.568 238.936 20.832C235.832 22.656 231.704 24.288 226.68 24.992ZM276.792 4.192L274.104 5.344C275.288 6.976 275.992 8.256 276.952 10.272L279.704 9.056C279 7.584 277.688 5.536 276.792 4.192ZM280.984 2.464L278.328 3.712C279.512 5.28 280.28 6.464 281.304 8.512L283.992 7.168C283.288 5.728 281.944 3.744 280.984 2.464ZM264.056 25.408C264.056 26.688 263.928 28.608 263.736 29.856H268.728C268.6 28.576 268.44 26.336 268.44 25.408C268.44 23.04 268.44 10.56 268.44 7.008C268.44 5.696 268.6 4.288 268.728 3.168H263.704C263.928 4.288 264.056 5.856 264.056 7.008C264.056 9.728 264.056 22.976 264.056 25.408ZM267.48 11.424V16.032C270.968 17.184 276.376 19.232 279.992 21.12L281.816 16.704C278.648 15.136 271.768 12.608 267.48 11.424ZM289.912 13.184V18.24C291.128 18.144 293.272 18.048 295.064 18.048C298.84 18.048 309.368 18.048 312.28 18.048C313.624 18.048 315.256 18.208 316.024 18.24V13.184C315.16 13.248 313.752 13.408 312.248 13.408C309.4 13.408 298.84 13.408 295.064 13.408C293.4 13.408 291.096 13.28 289.912 13.184ZM335.759 3.872L330.671 2.848C330.543 3.904 330.383 4.928 329.935 6.528C328.879 10.24 325.551 20.736 323.823 24.832L328.527 24.672C329.903 21.344 333.231 11.04 334.415 7.456C334.895 6.016 335.343 4.832 335.759 3.872ZM341.487 14.208L337.519 15.872C339.791 18.944 342.767 25.568 344.207 29.44L348.527 27.52C347.055 23.968 343.791 17.664 341.487 14.208ZM323.503 23.392C322.479 23.424 321.071 23.456 319.983 23.424L320.751 28.128C321.743 28 322.959 27.84 323.759 27.744C328.079 27.296 339.087 26.144 343.823 25.536L342.895 21.44C338.415 22.048 327.951 23.232 323.503 23.392ZM376.687 9.344L374.447 5.664C373.615 6.336 372.719 6.88 371.503 7.584C369.551 8.704 365.519 10.688 362.479 12.704C358.671 15.2 355.695 18.048 355.695 22.112C355.695 27.616 360.527 29.408 366.927 29.408C371.087 29.408 374.447 29.056 377.199 28.608L377.231 24C374.383 24.672 370.063 25.184 366.799 25.184C362.351 25.184 360.111 23.936 360.111 21.632C360.111 19.424 361.903 17.568 364.559 15.84C367.503 13.952 371.503 12.064 373.487 11.072C374.671 10.496 375.695 9.92 376.687 9.344ZM360.591 2.496L356.559 4.16C358.319 8.288 360.239 12.48 361.999 15.392L365.647 13.28C364.143 10.592 362.127 6.752 360.591 2.496ZM408.879 1.792C405.423 3.008 399.727 4.064 394.607 4.64C394.991 5.44 395.503 6.816 395.663 7.68C401.007 7.136 407.183 6.144 411.727 4.704L408.879 1.792ZM393.583 3.648V22.848H397.327V4.864L393.583 3.648ZM391.535 22.112L392.271 25.664C395.407 25.184 399.471 24.544 403.279 23.936L403.087 20.48C398.895 21.152 394.543 21.76 391.535 22.112ZM395.855 11.648V15.104H413.007V11.648H395.855ZM402.223 5.408C402.447 17.376 404.399 29.824 409.487 29.824C412.015 29.824 413.199 28.704 413.679 23.744C412.751 23.36 411.503 22.56 410.703 21.728C410.607 24.704 410.351 26.08 409.871 26.08C408.047 26.08 405.999 15.584 406.095 5.408H402.223ZM392.655 26.88V30.24H405.519V26.88H392.655ZM389.615 0.959999C387.983 5.536 385.199 10.08 382.287 12.992C382.959 13.92 383.983 16.032 384.335 16.96C387.823 13.312 391.151 7.552 393.231 2.08L389.615 0.959999ZM386.511 9.792V30.848H390.191V6.176L390.159 6.144L386.511 9.792ZM420.751 2.976V6.624H440.399V2.976H420.751ZM420.751 10.336V13.92H440.463V10.336H420.751ZM420.687 17.888V21.504H440.591V17.888H420.687ZM418.543 2.976V14.464C418.543 18.976 418.255 24.704 414.767 28.576C415.599 29.056 417.167 30.336 417.775 31.072C421.711 26.784 422.351 19.584 422.351 14.496V2.976H418.543ZM439.055 2.976V26.336C439.055 26.88 438.831 27.072 438.223 27.104C437.647 27.104 435.535 27.136 433.711 27.008C434.223 28 434.799 29.664 434.959 30.688C437.871 30.72 439.791 30.656 441.135 30.048C442.415 29.44 442.863 28.416 442.863 26.368V2.976H439.055ZM428.399 4.416V30.496H432.303V4.416H428.399ZM455.247 6.688H468.559V7.776H455.247V6.688ZM455.247 3.776H468.559V4.832H455.247V3.776ZM451.535 1.824V9.728H472.431V1.824H451.535ZM454.575 19.456H469.423V20.608H454.575V19.456ZM454.575 16.448H469.423V17.568H454.575V16.448ZM450.959 14.4V22.624H473.199V14.4H450.959ZM460.111 15.072V28.8H463.855V15.072H460.111ZM447.471 10.72V13.44H476.623V10.72H447.471ZM450.319 23.68V26.144H473.807V23.68H450.319ZM447.407 27.296V30.112H476.687V27.296H447.407ZM502.767 5.312C502.767 4.288 503.599 3.456 504.623 3.456C505.615 3.456 506.479 4.288 506.479 5.312C506.479 6.304 505.615 7.136 504.623 7.136C503.599 7.136 502.767 6.304 502.767 5.312ZM500.783 5.312C500.783 7.392 502.511 9.12 504.623 9.12C506.735 9.12 508.463 7.392 508.463 5.312C508.463 3.2 506.735 1.472 504.623 1.472C502.511 1.472 500.783 3.2 500.783 5.312ZM487.823 3.488H483.119C483.247 4.448 483.343 6.08 483.343 6.816C483.343 8.8 483.343 20.544 483.343 24.224C483.343 27.008 484.975 28.512 487.727 29.024C489.103 29.248 491.055 29.376 493.135 29.376C496.655 29.376 501.487 29.184 504.527 28.736V24.064C501.871 24.768 496.719 25.152 493.359 25.152C491.951 25.152 490.639 25.12 489.679 24.96C488.239 24.704 487.599 24.352 487.599 22.944C487.599 20.544 487.599 8.768 487.599 6.816C487.599 5.888 487.695 4.448 487.823 3.488ZM485.711 13.312L485.743 17.504C490.095 16.48 496.367 14.592 500.143 13.152C501.199 12.736 502.639 12.128 503.855 11.616L502.159 7.584C500.879 8.32 499.791 8.832 498.671 9.312C495.311 10.688 489.839 12.416 485.711 13.312ZM526.095 27.296L528.783 29.504C529.103 29.28 529.487 28.928 530.159 28.576C533.775 26.752 538.351 23.296 541.007 19.84L538.575 16.288C536.399 19.392 533.263 21.92 530.639 23.04C530.639 21.088 530.639 8.896 530.639 6.336C530.639 4.896 530.863 3.616 530.863 3.552H526.127C526.127 3.616 526.351 4.864 526.351 6.304C526.351 8.896 526.351 23.264 526.351 24.96C526.351 25.824 526.255 26.688 526.095 27.296ZM511.279 26.848L515.183 29.44C517.935 27.008 519.919 23.84 520.911 20.256C521.743 17.024 521.839 10.272 521.839 6.464C521.839 5.152 522.063 3.712 522.063 3.584H517.359C517.551 4.384 517.679 5.216 517.679 6.528C517.679 10.368 517.647 16.448 516.719 19.168C515.855 21.92 514.127 24.864 511.279 26.848ZM560.943 6.08L556.559 5.952C556.239 9.312 555.535 12.992 554.607 16C553.263 20.32 552.047 22.368 550.671 22.368C549.455 22.368 548.175 20.8 548.175 17.568C548.175 13.536 551.887 8 558.671 8C564.207 8 567.343 11.584 567.343 16.608C567.343 21.312 564.143 24.224 560.079 25.216C559.215 25.408 558.319 25.568 557.071 25.728L559.503 29.504C567.567 28.256 571.695 23.488 571.695 16.768C571.695 9.76 566.671 4.256 558.767 4.256C550.479 4.256 544.047 10.592 544.047 17.952C544.047 23.36 546.991 27.296 550.575 27.296C554.063 27.296 556.815 23.328 558.735 16.864C559.855 13.088 560.495 9.344 560.943 6.08ZM598.959 1.728L596.399 2.784C597.263 4 598.255 5.92 598.927 7.2L601.487 6.112C600.879 4.928 599.759 2.912 598.959 1.728ZM602.735 0.287998L600.207 1.312C601.071 2.528 602.095 4.384 602.767 5.728L605.327 4.64C604.751 3.52 603.567 1.472 602.735 0.287998ZM586.959 13.792L584.143 16.704C587.887 19.072 593.935 23.52 596.751 26.144L599.791 22.528C596.847 20.16 590.895 16.064 586.959 13.792ZM602.031 8.352L598.767 6.336C598.063 6.56 596.975 6.72 595.983 6.72H586.895L585.391 10.336H596.239C595.631 12.832 593.647 16.48 591.471 19.04C588.751 22.24 584.911 25.6 578.223 27.68L581.935 30.88C588.047 28.576 592.175 24.992 595.183 21.248C598.031 17.696 599.983 13.6 600.975 10.656C601.263 9.856 601.679 8.96 602.031 8.352ZM591.439 3.424L586.831 1.984C586.543 3.072 585.839 4.544 585.359 5.344C583.759 8.096 580.783 12.512 575.183 15.968L578.639 18.624C583.215 15.456 587.311 10.56 589.487 6.688C589.871 6.016 590.671 4.544 591.439 3.424ZM630.319 1.056L627.663 2.144C628.495 3.424 629.455 5.056 630.095 6.4L632.751 5.28C632.175 4.096 631.119 2.272 630.319 1.056ZM634.767 0.223999L632.111 1.312C633.007 2.496 633.999 4.288 634.671 5.6L637.327 4.48C636.719 3.328 635.599 1.408 634.767 0.223999ZM633.615 7.072L630.447 5.056C629.615 5.28 628.591 5.312 627.951 5.312C626.159 5.312 615.535 5.312 613.135 5.312C612.079 5.312 610.287 5.152 609.327 5.024V9.568C610.159 9.504 611.695 9.408 613.135 9.408C615.535 9.408 626.127 9.408 628.047 9.408C627.631 12.16 626.415 15.808 624.271 18.464C621.711 21.696 618.095 24.48 611.759 25.952L615.247 29.792C620.943 27.968 625.199 24.8 628.111 20.96C630.767 17.408 632.175 12.416 632.911 9.28C633.071 8.608 633.327 7.68 633.615 7.072ZM654.095 27.296L656.783 29.504C657.103 29.28 657.487 28.928 658.159 28.576C661.775 26.752 666.351 23.296 669.007 19.84L666.575 16.288C664.399 19.392 661.263 21.92 658.639 23.04C658.639 21.088 658.639 8.896 658.639 6.336C658.639 4.896 658.863 3.616 658.863 3.552H654.127C654.127 3.616 654.351 4.864 654.351 6.304C654.351 8.896 654.351 23.264 654.351 24.96C654.351 25.824 654.255 26.688 654.095 27.296ZM639.279 26.848L643.183 29.44C645.935 27.008 647.919 23.84 648.911 20.256C649.743 17.024 649.839 10.272 649.839 6.464C649.839 5.152 650.063 3.712 650.063 3.584H645.359C645.551 4.384 645.679 5.216 645.679 6.528C645.679 10.368 645.647 16.448 644.719 19.168C643.855 21.92 642.127 24.864 639.279 26.848ZM680.623 3.968V7.456H701.039V3.968H680.623ZM684.815 12.832H696.495V16H684.815V12.832ZM681.327 9.696V19.136H700.175V9.696H681.327ZM684.335 19.456L681.199 20.416C684.687 26.432 690.607 29.664 699.279 30.848C699.759 29.792 700.719 28.256 701.519 27.424C693.231 26.656 687.183 24.064 684.335 19.456ZM688.719 1.024V15.616C688.719 20.864 687.887 25.76 679.279 27.68C680.111 28.48 681.231 30.016 681.679 30.88C690.863 28.128 692.495 22.176 692.495 15.648V1.024H688.719ZM678.191 0.735998C676.463 5.312 673.487 9.856 670.447 12.736C671.087 13.664 672.111 15.776 672.431 16.672C676.079 13.056 679.599 7.328 681.775 1.888L678.191 0.735998ZM675.087 9.664V30.944H678.735V6.048L678.703 6.016L675.087 9.664ZM710.319 5.152L705.391 5.088C705.615 6.08 705.647 7.456 705.647 8.32C705.647 10.272 705.679 14.048 705.999 16.992C706.895 25.568 709.935 28.704 713.487 28.704C716.047 28.704 718.031 26.784 720.175 21.184L716.943 17.312C716.335 19.84 715.087 23.616 713.551 23.616C711.535 23.616 710.575 20.448 710.127 15.84C709.935 13.504 709.935 11.136 709.935 9.056C709.935 8.16 710.095 6.272 710.319 5.152ZM726.319 5.856L722.255 7.2C725.743 11.168 727.471 18.912 727.951 24.096L732.175 22.432C731.823 17.536 729.359 9.536 726.319 5.856Z" fill="#765EC5"/>
</svg>
