<svg width="664" height="133" viewBox="0 0 664 133" fill="none" xmlns="http://www.w3.org/2000/svg">
<g filter="url(#filter0_d_801_2666)">
<rect x="74" y="15" width="590" height="114" rx="30" fill="white" shape-rendering="crispEdges"/>
<path d="M120.56 63.688V62.6H124.224V57.784H120.144V56.648H124.224V52.056H125.472V56.648H129.472V57.784H125.472V62.6H128.96V63.688H120.56ZM119.408 62.6C118.779 61.5867 118.176 60.744 117.6 60.072C117.035 59.3893 116.411 58.7867 115.728 58.264L116.352 57.368C117.077 57.8907 117.744 58.5093 118.352 59.224C118.971 59.9387 119.611 60.8133 120.272 61.848L119.408 62.6ZM115.152 64.584L114.608 63.56C115.259 63.0373 115.84 62.44 116.352 61.768C116.864 61.0853 117.307 60.3333 117.68 59.512C118.053 58.68 118.347 57.7787 118.56 56.808C118.773 55.8373 118.896 54.808 118.928 53.72H114.672V52.648H120.08V53.16C120.08 54.4187 119.968 55.6133 119.744 56.744C119.52 57.8747 119.195 58.92 118.768 59.88C118.352 60.84 117.835 61.7147 117.216 62.504C116.608 63.2933 115.92 63.9867 115.152 64.584ZM115.808 59.736L114.896 58.904C115.195 58.0933 115.461 57.2347 115.696 56.328C115.941 55.4213 116.155 54.4453 116.336 53.4C116.517 52.344 116.672 51.2027 116.8 49.976L117.968 50.024C117.765 52.0293 117.483 53.8533 117.12 55.496C116.757 57.128 116.32 58.5413 115.808 59.736ZM120.784 52.888L120.72 51.8C121.755 51.7573 122.752 51.6773 123.712 51.56C124.672 51.4427 125.573 51.2933 126.416 51.112C127.259 50.92 128.016 50.7067 128.688 50.472L128.976 51.544C128.293 51.7893 127.525 52.008 126.672 52.2C125.829 52.3813 124.912 52.5307 123.92 52.648C122.928 52.7547 121.883 52.8347 120.784 52.888ZM136.56 64.136L135.44 63.512C135.717 62.9467 135.947 62.3813 136.128 61.816C136.32 61.2507 136.475 60.6533 136.592 60.024C136.709 59.3947 136.795 58.7067 136.848 57.96C136.901 57.2133 136.928 56.376 136.928 55.448V50.52H145.84V51.592H138.096V56.056V56.152C138.096 56.9947 138.064 57.784 138 58.52C137.947 59.2453 137.856 59.928 137.728 60.568C137.611 61.1973 137.451 61.8107 137.248 62.408C137.056 62.9947 136.827 63.5707 136.56 64.136ZM136.128 62.84C135.659 62.1467 135.205 61.5387 134.768 61.016C134.341 60.4933 133.915 60.0293 133.488 59.624C133.061 59.2187 132.608 58.8453 132.128 58.504L132.512 57.464C133.003 57.8053 133.477 58.1893 133.936 58.616C134.405 59.032 134.869 59.512 135.328 60.056C135.797 60.6 136.277 61.224 136.768 61.928L136.128 62.84ZM131.744 64.584L131.216 63.56C131.824 63.016 132.368 62.408 132.848 61.736C133.328 61.0533 133.733 60.3013 134.064 59.48C134.395 58.6587 134.645 57.768 134.816 56.808C134.997 55.848 135.099 54.8187 135.12 53.72H131.312V52.648H136.208V53.16C136.208 54.472 136.112 55.6933 135.92 56.824C135.728 57.9547 135.445 58.9947 135.072 59.944C134.699 60.8827 134.235 61.7413 133.68 62.52C133.125 63.288 132.48 63.976 131.744 64.584ZM137.616 64.28L137.488 63.208C138.373 63.0693 139.253 62.8827 140.128 62.648C141.003 62.4133 141.893 62.1253 142.8 61.784L142.96 62.808C142.043 63.1493 141.147 63.4427 140.272 63.688C139.397 63.9333 138.512 64.1307 137.616 64.28ZM132.384 59.72L131.504 58.92C131.803 58.1093 132.064 57.2507 132.288 56.344C132.523 55.4267 132.725 54.44 132.896 53.384C133.067 52.328 133.216 51.192 133.344 49.976L134.48 50.024C134.288 52.0187 134.011 53.8373 133.648 55.48C133.296 57.1227 132.875 58.536 132.384 59.72ZM139.264 63.432V57.128H137.2V56.056H146.064V57.128H140.432V63.432H139.264ZM145.696 64.344C145.035 63.9387 144.421 63.3787 143.856 62.664C143.301 61.9493 142.816 61.1173 142.4 60.168C141.995 59.2187 141.685 58.184 141.472 57.064L142.576 56.696C142.832 58.2107 143.275 59.528 143.904 60.648C144.533 61.7573 145.312 62.6373 146.24 63.288L145.696 64.344ZM143.68 60.984L142.912 60.248C143.328 59.8747 143.733 59.4587 144.128 59C144.523 58.5307 144.907 58.0293 145.28 57.496L146.144 58.152C145.771 58.7067 145.376 59.224 144.96 59.704C144.544 60.1733 144.117 60.6 143.68 60.984ZM138.752 54.344V53.288H145.44V54.344H138.752ZM156.192 63.432C155.093 63.432 154.24 63.1973 153.632 62.728C153.024 62.248 152.72 61.576 152.72 60.712C152.72 59.8373 153.019 59.1653 153.616 58.696C154.224 58.2267 155.083 57.992 156.192 57.992C156.704 57.992 157.195 58.056 157.664 58.184C158.144 58.3013 158.635 58.5093 159.136 58.808C159.648 59.096 160.208 59.5013 160.816 60.024C161.435 60.536 162.139 61.1813 162.928 61.96L162.16 62.776C161.413 62.04 160.757 61.432 160.192 60.952C159.637 60.472 159.136 60.0933 158.688 59.816C158.24 59.5387 157.808 59.3413 157.392 59.224C156.987 59.1067 156.565 59.048 156.128 59.048C154.603 59.048 153.84 59.6027 153.84 60.712C153.84 61.8107 154.603 62.36 156.128 62.36C156.96 62.36 157.552 62.1787 157.904 61.816C158.256 61.4533 158.432 60.8507 158.432 60.008V50.312H159.632V60.072C159.632 61.2133 159.349 62.0613 158.784 62.616C158.219 63.16 157.355 63.432 156.192 63.432ZM156.656 54.168C156.037 54.168 155.381 54.152 154.688 54.12C154.005 54.088 153.413 54.0507 152.912 54.008L152.96 52.936C153.451 52.9787 154.032 53.016 154.704 53.048C155.387 53.08 156.037 53.096 156.656 53.096C157.573 53.096 158.512 53.0587 159.472 52.984C160.432 52.9093 161.509 52.7867 162.704 52.616L162.752 53.688C161.557 53.8587 160.475 53.9813 159.504 54.056C158.544 54.1307 157.595 54.168 156.656 54.168ZM149.888 63.8C149.611 62.712 149.408 61.6453 149.28 60.6C149.152 59.5547 149.088 58.4347 149.088 57.24C149.088 56.0667 149.152 54.9573 149.28 53.912C149.408 52.8667 149.611 51.7947 149.888 50.696L151.104 50.872C150.837 51.928 150.64 52.9733 150.512 54.008C150.395 55.032 150.336 56.1093 150.336 57.24C150.336 58.3813 150.395 59.4693 150.512 60.504C150.64 61.528 150.837 62.5573 151.104 63.592L149.888 63.8ZM165.808 64.12L165.616 63.112C167.173 62.888 168.533 62.536 169.696 62.056C170.859 61.576 171.851 60.9467 172.672 60.168C173.493 59.3893 174.16 58.4347 174.672 57.304C175.195 56.1627 175.584 54.8187 175.84 53.272L177.04 53.368C176.773 55.0427 176.357 56.504 175.792 57.752C175.227 59 174.491 60.056 173.584 60.92C172.677 61.7733 171.579 62.4613 170.288 62.984C169.008 63.5067 167.515 63.8853 165.808 64.12ZM178.496 64.264C177.493 63.496 176.544 62.8133 175.648 62.216C174.752 61.608 173.877 61.0693 173.024 60.6C172.181 60.1307 171.328 59.7093 170.464 59.336C169.6 58.9627 168.704 58.6213 167.776 58.312L168.224 57.352C169.483 57.7467 170.699 58.2267 171.872 58.792C173.045 59.3467 174.235 60.0027 175.44 60.76C176.656 61.5173 177.931 62.4133 179.264 63.448L178.496 64.264ZM167.328 59.448L166.432 58.776C167.157 57.9547 167.797 57.0907 168.352 56.184C168.917 55.2667 169.408 54.28 169.824 53.224C170.251 52.168 170.613 51.0267 170.912 49.8L172.128 49.896C171.733 51.752 171.131 53.4853 170.32 55.096C169.52 56.696 168.523 58.1467 167.328 59.448ZM165.248 53.752V52.648H179.552V53.752H165.248ZM186 63.848V62.76H191.024V58.456H187.184V57.4H191.024V53.88H187.712V52.792H191.024V50.088H192.272V52.792H196.32V53.88H192.272V57.4H195.888V58.456H192.272V62.76H196.528V63.848H186ZM182.432 58.68L181.472 58.504C181.664 57.6187 181.829 56.7227 181.968 55.816C182.107 54.8987 182.208 53.992 182.272 53.096L183.232 53.192C183.157 54.0987 183.051 55.0213 182.912 55.96C182.784 56.888 182.624 57.7947 182.432 58.68ZM183.68 64.392V50.088H184.928V64.392H183.68ZM185.664 56.44C185.579 55.8747 185.483 55.288 185.376 54.68C185.269 54.072 185.152 53.4747 185.024 52.888L185.92 52.68C186.059 53.2667 186.181 53.8693 186.288 54.488C186.405 55.1067 186.507 55.704 186.592 56.28L185.664 56.44ZM187.312 57.352L186.176 56.92C186.571 55.9707 186.928 54.9413 187.248 53.832C187.568 52.7227 187.819 51.5867 188 50.424L189.152 50.616C188.981 51.8 188.736 52.9733 188.416 54.136C188.096 55.288 187.728 56.36 187.312 57.352ZM207.472 62.232C208.091 62.168 208.656 61.9973 209.168 61.72C209.691 61.432 210.144 61.064 210.528 60.616C210.912 60.1573 211.211 59.64 211.424 59.064C211.637 58.4773 211.744 57.848 211.744 57.176C211.744 56.216 211.531 55.384 211.104 54.68C210.677 53.976 210.08 53.4267 209.312 53.032C208.544 52.6373 207.637 52.44 206.592 52.44C205.696 52.44 204.859 52.584 204.08 52.872C203.312 53.16 202.64 53.56 202.064 54.072C201.488 54.584 201.035 55.1867 200.704 55.88C200.384 56.5627 200.224 57.2987 200.224 58.088C200.224 58.5573 200.277 59.0053 200.384 59.432C200.491 59.848 200.635 60.2267 200.816 60.568C201.008 60.8987 201.221 61.1653 201.456 61.368C201.701 61.56 201.947 61.656 202.192 61.656C202.576 61.656 202.939 61.4373 203.28 61C203.632 60.552 203.963 59.9013 204.272 59.048C204.581 58.1947 204.864 57.1493 205.12 55.912C205.376 54.6747 205.6 53.2667 205.792 51.688L206.976 51.816C206.795 53.2987 206.581 54.6373 206.336 55.832C206.101 57.016 205.84 58.0507 205.552 58.936C205.275 59.8107 204.965 60.5467 204.624 61.144C204.293 61.7307 203.931 62.1733 203.536 62.472C203.152 62.76 202.736 62.904 202.288 62.904C201.84 62.904 201.419 62.7813 201.024 62.536C200.64 62.28 200.299 61.9333 200 61.496C199.712 61.048 199.483 60.536 199.312 59.96C199.152 59.3733 199.072 58.7493 199.072 58.088C199.072 57.1173 199.259 56.2213 199.632 55.4C200.005 54.5787 200.533 53.864 201.216 53.256C201.899 52.6373 202.699 52.1627 203.616 51.832C204.533 51.4907 205.536 51.32 206.624 51.32C207.904 51.32 209.013 51.56 209.952 52.04C210.901 52.52 211.632 53.2027 212.144 54.088C212.667 54.9627 212.928 55.992 212.928 57.176C212.928 57.9867 212.8 58.7493 212.544 59.464C212.299 60.168 211.947 60.7973 211.488 61.352C211.04 61.896 210.507 62.3387 209.888 62.68C209.269 63.0213 208.581 63.2347 207.824 63.32L207.472 62.232ZM223.296 63.272C223.029 63.272 222.683 63.2293 222.256 63.144C221.84 63.0587 221.397 62.9467 220.928 62.808C220.459 62.6693 220.016 62.5253 219.6 62.376L219.904 61.288C220.267 61.4267 220.645 61.56 221.04 61.688C221.445 61.8053 221.819 61.9013 222.16 61.976C222.501 62.0507 222.763 62.088 222.944 62.088C223.36 62.088 223.707 61.8747 223.984 61.448C224.272 61.0107 224.491 60.3707 224.64 59.528C224.789 58.6747 224.864 57.6133 224.864 56.344C224.864 55.7787 224.837 55.3253 224.784 54.984C224.731 54.6427 224.629 54.392 224.48 54.232C224.331 54.0613 224.101 53.9493 223.792 53.896C223.493 53.832 223.088 53.8 222.576 53.8C222.096 53.8 221.52 53.8213 220.848 53.864C220.176 53.896 219.413 53.9493 218.56 54.024C217.717 54.088 216.779 54.1733 215.744 54.28L215.648 53.192C217.269 53.0213 218.645 52.8987 219.776 52.824C220.917 52.7493 221.925 52.712 222.8 52.712C223.376 52.712 223.856 52.7387 224.24 52.792C224.635 52.8453 224.955 52.9467 225.2 53.096C225.445 53.2347 225.632 53.4427 225.76 53.72C225.888 53.9973 225.973 54.36 226.016 54.808C226.059 55.256 226.08 55.8107 226.08 56.472C226.08 57.976 225.979 59.2347 225.776 60.248C225.573 61.2507 225.264 62.008 224.848 62.52C224.443 63.0213 223.925 63.272 223.296 63.272ZM215.904 63.064C216.331 62.232 216.709 61.4267 217.04 60.648C217.381 59.8587 217.685 59.0693 217.952 58.28C218.229 57.48 218.48 56.6587 218.704 55.816C218.928 54.9627 219.131 54.056 219.312 53.096C219.493 52.1253 219.669 51.0747 219.84 49.944L221.024 50.072C220.832 51.4693 220.613 52.76 220.368 53.944C220.133 55.128 219.856 56.248 219.536 57.304C219.227 58.36 218.864 59.4 218.448 60.424C218.043 61.4373 217.573 62.4773 217.04 63.544L215.904 63.064ZM229.168 60.264C229.061 59.6133 228.912 58.92 228.72 58.184C228.539 57.4373 228.325 56.6907 228.08 55.944C227.845 55.1973 227.595 54.4773 227.328 53.784C227.061 53.08 226.795 52.44 226.528 51.864L227.68 51.48C227.957 52.0773 228.229 52.728 228.496 53.432C228.763 54.136 229.013 54.8667 229.248 55.624C229.493 56.3707 229.707 57.1173 229.888 57.864C230.08 58.6107 230.235 59.3147 230.352 59.976L229.168 60.264ZM239.456 63.448C238.912 63.448 238.331 63.4267 237.712 63.384C237.093 63.3413 236.48 63.2773 235.872 63.192C235.275 63.1067 234.704 63.0053 234.16 62.888L234.288 61.8C234.896 61.9173 235.504 62.0187 236.112 62.104C236.72 62.1893 237.307 62.2533 237.872 62.296C238.448 62.3387 238.976 62.36 239.456 62.36C241.131 62.36 242.411 62.0933 243.296 61.56C244.181 61.016 244.624 60.2427 244.624 59.24C244.624 58.3867 244.309 57.7307 243.68 57.272C243.061 56.8133 242.165 56.584 240.992 56.584C240.256 56.584 239.504 56.68 238.736 56.872C237.968 57.0533 237.248 57.3093 236.576 57.64C235.904 57.9707 235.317 58.36 234.816 58.808L233.696 58.584C233.835 57.9547 233.957 57.3467 234.064 56.76C234.171 56.1733 234.267 55.608 234.352 55.064C234.437 54.5093 234.507 53.976 234.56 53.464L235.76 53.56C235.685 54.2107 235.595 54.8987 235.488 55.624C235.381 56.3387 235.248 57.048 235.088 57.752L234.912 57.448C235.467 57.032 236.075 56.6853 236.736 56.408C237.408 56.12 238.107 55.896 238.832 55.736C239.568 55.576 240.309 55.496 241.056 55.496C242.613 55.496 243.797 55.816 244.608 56.456C245.429 57.096 245.84 58.0133 245.84 59.208C245.84 60.584 245.296 61.6347 244.208 62.36C243.12 63.0853 241.536 63.448 239.456 63.448ZM243.824 52.984C242.843 52.92 241.925 52.8453 241.072 52.76C240.229 52.664 239.387 52.5413 238.544 52.392C237.712 52.232 236.821 52.04 235.872 51.816L236.112 50.728C237.008 50.9413 237.872 51.1227 238.704 51.272C239.547 51.4213 240.395 51.5493 241.248 51.656C242.101 51.752 242.997 51.832 243.936 51.896L243.824 52.984ZM249.76 63.832C250.229 62.392 250.656 60.92 251.04 59.416C251.424 57.912 251.76 56.392 252.048 54.856C252.347 53.3093 252.597 51.7733 252.8 50.248L254.032 50.312C253.84 51.816 253.595 53.3467 253.296 54.904C253.008 56.4613 252.667 58.008 252.272 59.544C251.888 61.08 251.456 62.584 250.976 64.056L249.76 63.832ZM249.52 52.872C250.619 52.8507 251.685 52.8133 252.72 52.76C253.765 52.7067 254.827 52.6373 255.904 52.552C256.981 52.456 258.117 52.344 259.312 52.216L259.408 53.288C258.192 53.4267 257.04 53.544 255.952 53.64C254.864 53.7253 253.792 53.7947 252.736 53.848C251.691 53.9013 250.619 53.9387 249.52 53.96V52.872ZM259.44 63.688C258.512 63.688 257.707 63.5813 257.024 63.368C256.341 63.1547 255.808 62.856 255.424 62.472C255.04 62.088 254.848 61.6347 254.848 61.112C254.848 60.6853 254.997 60.2693 255.296 59.864C255.605 59.448 256.08 59.016 256.72 58.568L257.584 59.352C257.083 59.6613 256.715 59.9493 256.48 60.216C256.245 60.4827 256.128 60.744 256.128 61C256.128 61.3093 256.267 61.5813 256.544 61.816C256.821 62.0507 257.211 62.2373 257.712 62.376C258.213 62.504 258.789 62.568 259.44 62.568C259.941 62.568 260.464 62.5413 261.008 62.488C261.552 62.4347 262.107 62.3547 262.672 62.248L262.816 63.368C262.24 63.4747 261.669 63.5547 261.104 63.608C260.549 63.6613 259.995 63.688 259.44 63.688ZM255.36 55.944C256.565 55.752 257.728 55.6027 258.848 55.496C259.979 55.3893 261.109 55.3147 262.24 55.272L262.272 56.36C261.195 56.4027 260.08 56.4827 258.928 56.6C257.776 56.7067 256.629 56.8507 255.488 57.032L255.36 55.944ZM260.976 53.608C260.709 53.0107 260.443 52.4827 260.176 52.024C259.92 51.5547 259.637 51.1067 259.328 50.68L260.24 50.136C260.581 50.5947 260.88 51.0693 261.136 51.56C261.403 52.04 261.669 52.568 261.936 53.144L260.976 53.608ZM263.152 52.776C262.896 52.168 262.64 51.6347 262.384 51.176C262.128 50.7067 261.851 50.2587 261.552 49.832L262.448 49.32C262.789 49.7893 263.088 50.2693 263.344 50.76C263.611 51.24 263.867 51.768 264.112 52.344L263.152 52.776ZM275.728 62.92C274.747 62.92 273.883 62.7973 273.136 62.552C272.389 62.296 271.803 61.944 271.376 61.496C270.96 61.048 270.752 60.536 270.752 59.96C270.752 58.904 271.488 57.832 272.96 56.744L273.808 57.448C273.179 57.9067 272.715 58.3333 272.416 58.728C272.117 59.1227 271.968 59.5067 271.968 59.88C271.968 60.264 272.123 60.6 272.432 60.888C272.741 61.176 273.179 61.4 273.744 61.56C274.309 61.72 274.971 61.8 275.728 61.8C276.293 61.8 276.907 61.7573 277.568 61.672C278.229 61.5867 278.88 61.4747 279.52 61.336L279.712 62.44C279.051 62.5893 278.379 62.7067 277.696 62.792C277.013 62.8773 276.357 62.92 275.728 62.92ZM274.576 53.432C274.085 53.432 273.568 53.416 273.024 53.384C272.48 53.352 272.005 53.3147 271.6 53.272L271.648 52.152C272.043 52.1947 272.507 52.232 273.04 52.264C273.573 52.296 274.085 52.312 274.576 52.312C275.312 52.312 276.064 52.2747 276.832 52.2C277.6 52.1253 278.464 52.0027 279.424 51.832L279.488 52.952C278.528 53.1227 277.659 53.2453 276.88 53.32C276.101 53.3947 275.333 53.432 274.576 53.432ZM267.872 63.8C267.595 62.712 267.392 61.6453 267.264 60.6C267.136 59.5547 267.072 58.4347 267.072 57.24C267.072 56.0667 267.136 54.9573 267.264 53.912C267.392 52.8667 267.595 51.7947 267.872 50.696L269.088 50.872C268.821 51.928 268.624 52.9733 268.496 54.008C268.379 55.032 268.32 56.1093 268.32 57.24C268.32 58.3813 268.379 59.4693 268.496 60.504C268.624 61.528 268.821 62.5573 269.088 63.592L267.872 63.8ZM289.088 63.752C288.053 63.752 287.216 63.56 286.576 63.176C285.936 62.8027 285.472 62.2053 285.184 61.384C284.896 60.5627 284.752 59.4853 284.752 58.152V50.68H286V58.152C286 59.2293 286.101 60.0933 286.304 60.744C286.517 61.3947 286.853 61.864 287.312 62.152C287.781 62.4293 288.4 62.568 289.168 62.568C290.587 62.568 291.851 62.1467 292.96 61.304C294.069 60.4613 295.008 59.2133 295.776 57.56L296.816 58.088C295.963 59.9547 294.885 61.368 293.584 62.328C292.293 63.2773 290.795 63.752 289.088 63.752ZM307.296 63.272C307.029 63.272 306.683 63.2293 306.256 63.144C305.84 63.0587 305.397 62.9467 304.928 62.808C304.459 62.6693 304.016 62.5253 303.6 62.376L303.904 61.288C304.267 61.4267 304.645 61.56 305.04 61.688C305.445 61.8053 305.819 61.9013 306.16 61.976C306.501 62.0507 306.763 62.088 306.944 62.088C307.36 62.088 307.707 61.8747 307.984 61.448C308.272 61.0107 308.491 60.3707 308.64 59.528C308.789 58.6747 308.864 57.6133 308.864 56.344C308.864 55.7787 308.837 55.3253 308.784 54.984C308.731 54.6427 308.629 54.392 308.48 54.232C308.331 54.0613 308.101 53.9493 307.792 53.896C307.493 53.832 307.088 53.8 306.576 53.8C306.096 53.8 305.52 53.8213 304.848 53.864C304.176 53.896 303.413 53.9493 302.56 54.024C301.717 54.088 300.779 54.1733 299.744 54.28L299.648 53.192C301.269 53.0213 302.645 52.8987 303.776 52.824C304.917 52.7493 305.925 52.712 306.8 52.712C307.376 52.712 307.856 52.7387 308.24 52.792C308.635 52.8453 308.955 52.9467 309.2 53.096C309.445 53.2347 309.632 53.4427 309.76 53.72C309.888 53.9973 309.973 54.36 310.016 54.808C310.059 55.256 310.08 55.8107 310.08 56.472C310.08 57.976 309.979 59.2347 309.776 60.248C309.573 61.2507 309.264 62.008 308.848 62.52C308.443 63.0213 307.925 63.272 307.296 63.272ZM299.904 63.064C300.331 62.232 300.709 61.4267 301.04 60.648C301.381 59.8587 301.685 59.0693 301.952 58.28C302.229 57.48 302.48 56.6587 302.704 55.816C302.928 54.9627 303.131 54.056 303.312 53.096C303.493 52.1253 303.669 51.0747 303.84 49.944L305.024 50.072C304.832 51.4693 304.613 52.76 304.368 53.944C304.133 55.128 303.856 56.248 303.536 57.304C303.227 58.36 302.864 59.4 302.448 60.424C302.043 61.4373 301.573 62.4773 301.04 63.544L299.904 63.064ZM313.168 60.264C313.061 59.6133 312.912 58.92 312.72 58.184C312.539 57.4373 312.325 56.6907 312.08 55.944C311.845 55.1973 311.595 54.4773 311.328 53.784C311.061 53.08 310.795 52.44 310.528 51.864L311.68 51.48C311.957 52.0773 312.229 52.728 312.496 53.432C312.763 54.136 313.013 54.8667 313.248 55.624C313.493 56.3707 313.707 57.1173 313.888 57.864C314.08 58.6107 314.235 59.3147 314.352 59.976L313.168 60.264ZM319.792 62.84V55.88H316.448V54.808H319.632V52.52H316.88V51.48H319.632V49.832H320.848V51.48H323.344V52.52H320.848V54.808H323.504V55.88H321.008V58.328H323.408V59.368H321.008V62.84H319.792ZM317.328 64.264L316.24 63.848C316.581 62.8667 316.859 61.7893 317.072 60.616C317.296 59.4427 317.435 58.2427 317.488 57.016L318.608 57.112C318.555 58.392 318.416 59.6453 318.192 60.872C317.968 62.088 317.68 63.2187 317.328 64.264ZM325.792 64.04C324.704 64.04 323.755 63.9973 322.944 63.912C322.144 63.8373 321.451 63.704 320.864 63.512C320.277 63.32 319.771 63.064 319.344 62.744C318.917 62.4133 318.544 62.008 318.224 61.528C317.915 61.0373 317.621 60.4507 317.344 59.768L318.096 59.192C318.331 59.8 318.587 60.3227 318.864 60.76C319.141 61.1867 319.467 61.544 319.84 61.832C320.213 62.12 320.661 62.3493 321.184 62.52C321.717 62.68 322.357 62.7973 323.104 62.872C323.861 62.936 324.757 62.968 325.792 62.968H330.672L330.608 64.04H325.792ZM326.992 61.672C326.725 61.672 326.469 61.6667 326.224 61.656C325.979 61.6347 325.723 61.6133 325.456 61.592C325.168 61.5707 324.939 61.5387 324.768 61.496C324.597 61.4427 324.469 61.352 324.384 61.224C324.309 61.0853 324.256 60.8933 324.224 60.648C324.203 60.392 324.192 60.0507 324.192 59.624V54.888H328.8V51.848H324.032V50.792H330.032V56.728H328.8V55.88H325.36V59.672C325.36 59.96 325.371 60.168 325.392 60.296C325.413 60.4133 325.467 60.488 325.552 60.52C325.637 60.552 325.781 60.5787 325.984 60.6C326.187 60.6213 326.373 60.6373 326.544 60.648C326.715 60.648 326.896 60.648 327.088 60.648C327.28 60.648 327.477 60.648 327.68 60.648C327.893 60.6373 328.107 60.6213 328.32 60.6C328.555 60.5787 328.736 60.552 328.864 60.52C328.992 60.4773 329.088 60.3813 329.152 60.232C329.216 60.072 329.259 59.8213 329.28 59.48C329.301 59.128 329.323 58.632 329.344 57.992L330.512 58.072C330.491 58.8507 330.459 59.4693 330.416 59.928C330.373 60.3867 330.293 60.7333 330.176 60.968C330.059 61.192 329.883 61.3467 329.648 61.432C329.413 61.5067 329.099 61.56 328.704 61.592C328.427 61.6133 328.133 61.6347 327.824 61.656C327.525 61.6667 327.248 61.672 326.992 61.672ZM340.56 63.448C339.344 63.448 338.277 63.3147 337.36 63.048C336.453 62.7813 335.744 62.4027 335.232 61.912C334.731 61.4213 334.48 60.8507 334.48 60.2C334.48 59.656 334.661 59.0693 335.024 58.44C335.387 57.8 335.941 57.096 336.688 56.328L337.696 56.968C337.056 57.608 336.576 58.1893 336.256 58.712C335.936 59.2347 335.776 59.6933 335.776 60.088C335.776 60.5253 335.973 60.9147 336.368 61.256C336.773 61.5973 337.333 61.864 338.048 62.056C338.773 62.2373 339.611 62.328 340.56 62.328C341.125 62.328 341.733 62.3013 342.384 62.248C343.045 62.184 343.68 62.0987 344.288 61.992C344.896 61.8853 345.408 61.768 345.824 61.64L346.096 62.744C345.669 62.8827 345.141 63.0053 344.512 63.112C343.883 63.2187 343.221 63.2987 342.528 63.352C341.835 63.416 341.179 63.448 340.56 63.448ZM345.52 52.712C344.389 52.7013 343.259 52.6853 342.128 52.664C341.008 52.6427 339.888 52.6107 338.768 52.568C337.648 52.5147 336.528 52.456 335.408 52.392L335.504 51.272C336.603 51.336 337.707 51.3947 338.816 51.448C339.925 51.4907 341.04 51.5227 342.16 51.544C343.28 51.5653 344.4 51.5813 345.52 51.592V52.712ZM357.056 63.448C356.512 63.448 355.931 63.4267 355.312 63.384C354.693 63.3413 354.08 63.2773 353.472 63.192C352.875 63.1067 352.304 63.0053 351.76 62.888L351.888 61.8C352.496 61.9173 353.104 62.0187 353.712 62.104C354.32 62.1893 354.907 62.2533 355.472 62.296C356.048 62.3387 356.576 62.36 357.056 62.36C358.731 62.36 360.011 62.0933 360.896 61.56C361.781 61.016 362.224 60.2427 362.224 59.24C362.224 58.3867 361.909 57.7307 361.28 57.272C360.661 56.8133 359.765 56.584 358.592 56.584C357.856 56.584 357.104 56.68 356.336 56.872C355.568 57.0533 354.848 57.3093 354.176 57.64C353.504 57.9707 352.917 58.36 352.416 58.808L351.296 58.584C351.435 57.9547 351.557 57.3467 351.664 56.76C351.771 56.1733 351.867 55.608 351.952 55.064C352.037 54.5093 352.107 53.976 352.16 53.464L353.36 53.56C353.285 54.2107 353.195 54.8987 353.088 55.624C352.981 56.3387 352.848 57.048 352.688 57.752L352.512 57.448C353.067 57.032 353.675 56.6853 354.336 56.408C355.008 56.12 355.707 55.896 356.432 55.736C357.168 55.576 357.909 55.496 358.656 55.496C360.213 55.496 361.397 55.816 362.208 56.456C363.029 57.096 363.44 58.0133 363.44 59.208C363.44 60.584 362.896 61.6347 361.808 62.36C360.72 63.0853 359.136 63.448 357.056 63.448ZM361.424 52.984C360.443 52.92 359.525 52.8453 358.672 52.76C357.829 52.664 356.987 52.5413 356.144 52.392C355.312 52.232 354.421 52.04 353.472 51.816L353.712 50.728C354.608 50.9413 355.472 51.1227 356.304 51.272C357.147 51.4213 357.995 51.5493 358.848 51.656C359.701 51.752 360.597 51.832 361.536 51.896L361.424 52.984ZM373.728 63.752C372.971 63.752 372.325 63.64 371.792 63.416C371.259 63.192 370.848 62.872 370.56 62.456C370.283 62.0293 370.144 61.5173 370.144 60.92C370.144 60.0027 370.469 59.304 371.12 58.824C371.781 58.3333 372.725 58.088 373.952 58.088C374.485 58.088 375.003 58.1573 375.504 58.296C376.005 58.424 376.523 58.6427 377.056 58.952C377.6 59.2613 378.192 59.672 378.832 60.184C379.472 60.6853 380.192 61.3093 380.992 62.056L380.256 62.904C379.392 62.104 378.656 61.4533 378.048 60.952C377.451 60.4507 376.923 60.0667 376.464 59.8C376.016 59.5333 375.595 59.352 375.2 59.256C374.816 59.1493 374.4 59.096 373.952 59.096C373.056 59.096 372.389 59.2453 371.952 59.544C371.525 59.832 371.312 60.28 371.312 60.888C371.312 61.4853 371.515 61.9387 371.92 62.248C372.336 62.5573 372.939 62.712 373.728 62.712C374.613 62.712 375.28 62.5253 375.728 62.152C376.176 61.768 376.4 61.224 376.4 60.52V52.44C378.16 52.44 379.728 52.52 381.104 52.68L381.008 53.768C379.685 53.608 378.192 53.528 376.528 53.528L377.6 52.776V60.408C377.6 61.496 377.269 62.328 376.608 62.904C375.947 63.4693 374.987 63.752 373.728 63.752ZM366.832 61.24C367.728 59.3307 368.469 57.4693 369.056 55.656C369.643 53.832 370.112 51.9493 370.464 50.008L371.632 50.136C371.312 51.992 370.848 53.8587 370.24 55.736C369.643 57.6133 368.885 59.5707 367.968 61.608L366.832 61.24ZM366.688 52.68C368.896 52.68 371.515 52.52 374.544 52.2L374.608 53.304C371.557 53.624 368.917 53.784 366.688 53.784V52.68ZM388.432 63.272C387.856 63.272 387.323 63.0853 386.832 62.712C386.341 62.3387 385.909 61.8213 385.536 61.16C385.163 60.4987 384.869 59.736 384.656 58.872C384.453 58.008 384.352 57.08 384.352 56.088C384.352 55.6933 384.368 55.24 384.4 54.728C384.432 54.216 384.475 53.7093 384.528 53.208C384.581 52.696 384.64 52.2587 384.704 51.896L385.952 52.008C385.899 52.328 385.845 52.728 385.792 53.208C385.739 53.6773 385.696 54.1627 385.664 54.664C385.632 55.1547 385.616 55.592 385.616 55.976C385.616 56.776 385.691 57.5387 385.84 58.264C386 58.9787 386.213 59.6187 386.48 60.184C386.747 60.7387 387.045 61.1813 387.376 61.512C387.717 61.832 388.075 61.992 388.448 61.992C388.821 61.992 389.179 61.8107 389.52 61.448C389.861 61.0853 390.181 60.552 390.48 59.848C390.779 59.1333 391.045 58.2693 391.28 57.256L392.464 57.704C392.016 59.5173 391.451 60.8987 390.768 61.848C390.085 62.7973 389.307 63.272 388.432 63.272ZM396.656 61.352C396.56 60.2 396.373 59.0747 396.096 57.976C395.829 56.8667 395.488 55.8213 395.072 54.84C394.667 53.8587 394.197 52.9787 393.664 52.2L394.768 51.752C395.333 52.5413 395.829 53.4373 396.256 54.44C396.683 55.4427 397.035 56.5093 397.312 57.64C397.589 58.7707 397.781 59.9387 397.888 61.144L396.656 61.352ZM409.072 62.232C409.691 62.168 410.256 61.9973 410.768 61.72C411.291 61.432 411.744 61.064 412.128 60.616C412.512 60.1573 412.811 59.64 413.024 59.064C413.237 58.4773 413.344 57.848 413.344 57.176C413.344 56.216 413.131 55.384 412.704 54.68C412.277 53.976 411.68 53.4267 410.912 53.032C410.144 52.6373 409.237 52.44 408.192 52.44C407.296 52.44 406.459 52.584 405.68 52.872C404.912 53.16 404.24 53.56 403.664 54.072C403.088 54.584 402.635 55.1867 402.304 55.88C401.984 56.5627 401.824 57.2987 401.824 58.088C401.824 58.5573 401.877 59.0053 401.984 59.432C402.091 59.848 402.235 60.2267 402.416 60.568C402.608 60.8987 402.821 61.1653 403.056 61.368C403.301 61.56 403.547 61.656 403.792 61.656C404.176 61.656 404.539 61.4373 404.88 61C405.232 60.552 405.563 59.9013 405.872 59.048C406.181 58.1947 406.464 57.1493 406.72 55.912C406.976 54.6747 407.2 53.2667 407.392 51.688L408.576 51.816C408.395 53.2987 408.181 54.6373 407.936 55.832C407.701 57.016 407.44 58.0507 407.152 58.936C406.875 59.8107 406.565 60.5467 406.224 61.144C405.893 61.7307 405.531 62.1733 405.136 62.472C404.752 62.76 404.336 62.904 403.888 62.904C403.44 62.904 403.019 62.7813 402.624 62.536C402.24 62.28 401.899 61.9333 401.6 61.496C401.312 61.048 401.083 60.536 400.912 59.96C400.752 59.3733 400.672 58.7493 400.672 58.088C400.672 57.1173 400.859 56.2213 401.232 55.4C401.605 54.5787 402.133 53.864 402.816 53.256C403.499 52.6373 404.299 52.1627 405.216 51.832C406.133 51.4907 407.136 51.32 408.224 51.32C409.504 51.32 410.613 51.56 411.552 52.04C412.501 52.52 413.232 53.2027 413.744 54.088C414.267 54.9627 414.528 55.992 414.528 57.176C414.528 57.9867 414.4 58.7493 414.144 59.464C413.899 60.168 413.547 60.7973 413.088 61.352C412.64 61.896 412.107 62.3387 411.488 62.68C410.869 63.0213 410.181 63.2347 409.424 63.32L409.072 62.232ZM426.704 63.64C425.467 63.64 424.395 63.4267 423.488 63C422.581 62.584 421.877 61.9973 421.376 61.24C420.885 60.472 420.64 59.5813 420.64 58.568C420.64 57.8747 420.757 57.1973 420.992 56.536C421.227 55.864 421.557 55.24 421.984 54.664C422.411 54.088 422.917 53.5813 423.504 53.144C424.091 52.7067 424.736 52.3653 425.44 52.12L425.584 52.664C424.624 52.7493 423.68 52.824 422.752 52.888C421.835 52.9413 420.901 52.9893 419.952 53.032C419.003 53.064 418.005 53.0907 416.96 53.112V51.992C418.144 51.9707 419.269 51.9387 420.336 51.896C421.403 51.8533 422.453 51.7947 423.488 51.72C424.533 51.6453 425.605 51.5547 426.704 51.448C427.803 51.3307 428.981 51.192 430.24 51.032L430.304 52.152C429.909 52.1947 429.525 52.2427 429.152 52.296C428.789 52.3387 428.421 52.3813 428.048 52.424C427.163 52.5307 426.347 52.76 425.6 53.112C424.864 53.464 424.219 53.912 423.664 54.456C423.12 54.9893 422.699 55.592 422.4 56.264C422.101 56.936 421.952 57.6453 421.952 58.392C421.952 59.2133 422.144 59.9333 422.528 60.552C422.912 61.1707 423.456 61.6507 424.16 61.992C424.875 62.3227 425.723 62.488 426.704 62.488C426.928 62.488 427.173 62.4827 427.44 62.472C427.707 62.4507 427.963 62.4293 428.208 62.408C428.464 62.376 428.661 62.344 428.8 62.312L428.96 63.464C428.8 63.496 428.587 63.5227 428.32 63.544C428.064 63.576 427.792 63.5973 427.504 63.608C427.216 63.6293 426.949 63.64 426.704 63.64ZM428.944 58.392C428.699 57.848 428.437 57.3307 428.16 56.84C427.893 56.3493 427.579 55.8427 427.216 55.32L428.176 54.776C428.539 55.2987 428.859 55.8107 429.136 56.312C429.413 56.8133 429.68 57.3467 429.936 57.912L428.944 58.392ZM431.328 57.464C431.093 56.9093 430.837 56.3867 430.56 55.896C430.293 55.3947 429.989 54.888 429.648 54.376L430.608 53.848C430.949 54.3707 431.259 54.888 431.536 55.4C431.824 55.9013 432.085 56.44 432.32 57.016L431.328 57.464ZM437.568 62.76C438.56 62.696 439.445 62.4773 440.224 62.104C441.003 61.7307 441.611 61.2453 442.048 60.648C442.496 60.04 442.72 59.3573 442.72 58.6V58.232L443.328 58.472C443.253 58.76 443.115 59.0213 442.912 59.256C442.72 59.4907 442.475 59.6933 442.176 59.864C441.888 60.0347 441.563 60.168 441.2 60.264C440.837 60.36 440.464 60.408 440.08 60.408C439.419 60.408 438.843 60.28 438.352 60.024C437.872 59.7573 437.499 59.384 437.232 58.904C436.976 58.424 436.848 57.864 436.848 57.224C436.848 56.552 436.981 55.9813 437.248 55.512C437.525 55.032 437.92 54.664 438.432 54.408C438.944 54.1413 439.547 54.008 440.24 54.008C440.923 54.008 441.52 54.1413 442.032 54.408C442.544 54.664 442.96 55.0373 443.28 55.528L442.416 55.848V49.896H443.664V57L443.552 56.312C443.701 56.5893 443.803 56.8773 443.856 57.176C443.92 57.464 443.952 57.784 443.952 58.136C443.952 59.224 443.696 60.1893 443.184 61.032C442.672 61.864 441.952 62.5253 441.024 63.016C440.096 63.5067 439.008 63.7893 437.76 63.864L437.568 62.76ZM440.288 59.336C440.587 59.336 440.869 59.2933 441.136 59.208C441.413 59.1227 441.659 58.9947 441.872 58.824C442.085 58.6427 442.251 58.4187 442.368 58.152C442.496 57.8853 442.56 57.5707 442.56 57.208C442.56 56.5573 442.357 56.04 441.952 55.656C441.557 55.272 441.019 55.08 440.336 55.08C439.664 55.08 439.125 55.272 438.72 55.656C438.315 56.0293 438.112 56.5467 438.112 57.208C438.112 57.848 438.309 58.3653 438.704 58.76C439.099 59.144 439.627 59.336 440.288 59.336ZM434.224 52.072C438.128 52.072 442.768 51.912 448.144 51.592L448.192 52.6C442.773 52.92 438.117 53.08 434.224 53.08V52.072ZM453.52 64.28C453.008 64.28 452.56 64.1733 452.176 63.96C451.792 63.7467 451.493 63.448 451.28 63.064C451.067 62.68 450.96 62.232 450.96 61.72C450.96 61.208 451.067 60.76 451.28 60.376C451.493 59.992 451.792 59.6933 452.176 59.48C452.56 59.2667 453.008 59.16 453.52 59.16C454.032 59.16 454.48 59.2667 454.864 59.48C455.248 59.6933 455.547 59.992 455.76 60.376C455.973 60.76 456.08 61.208 456.08 61.72C456.08 62.232 455.973 62.68 455.76 63.064C455.547 63.448 455.248 63.7467 454.864 63.96C454.48 64.1733 454.032 64.28 453.52 64.28ZM453.52 63.24C453.979 63.24 454.347 63.1013 454.624 62.824C454.901 62.5467 455.04 62.1787 455.04 61.72C455.04 61.2613 454.901 60.8933 454.624 60.616C454.347 60.3387 453.979 60.2 453.52 60.2C453.061 60.2 452.693 60.3387 452.416 60.616C452.139 60.8933 452 61.2613 452 61.72C452 62.1787 452.139 62.5467 452.416 62.824C452.693 63.1013 453.061 63.24 453.52 63.24ZM468.112 57.128V50.424H474.688V51.352H472.592V52.28H474.432V54.76H472.592V55.72H471.408V54.76H469.328V53.976H473.232V53.048H469.328V52.28H471.408V51.352H469.328V55.72H474.592V56.616H469.312V57.128H468.112ZM468.432 64.328L467.872 63.384C468.683 63.0533 469.44 62.712 470.144 62.36C470.859 61.9973 471.509 61.624 472.096 61.24L472.768 62.072C472.192 62.456 471.541 62.84 470.816 63.224C470.091 63.608 469.296 63.976 468.432 64.328ZM474.16 64.312V60.568H475.44V64.312H474.16ZM473.088 60.648C472.704 60.3493 472.283 60.04 471.824 59.72C471.376 59.4 470.923 59.08 470.464 58.76C470.005 58.4293 469.568 58.1307 469.152 57.864L470.048 57.096C470.464 57.3627 470.901 57.656 471.36 57.976C471.829 58.296 472.288 58.6213 472.736 58.952C473.195 59.272 473.621 59.576 474.016 59.864L473.088 60.648ZM467.76 61.256L467.728 60.248L480.8 59.96L480.832 60.936L467.76 61.256ZM471.568 58.68L470.624 57.992C471.211 57.6613 471.765 57.3307 472.288 57C472.811 56.6693 473.333 56.328 473.856 55.976L474.832 56.648C474.309 57 473.781 57.3467 473.248 57.688C472.715 58.0187 472.155 58.3493 471.568 58.68ZM481.136 64.424C480.453 64.0187 479.733 63.6187 478.976 63.224C478.229 62.84 477.451 62.4613 476.64 62.088L477.248 61.192C478.08 61.5653 478.864 61.944 479.6 62.328C480.347 62.712 481.056 63.1013 481.728 63.496L481.136 64.424ZM472.48 60.984L471.744 60.232C472.96 59.6453 474.107 59.0427 475.184 58.424C476.272 57.8053 477.307 57.1653 478.288 56.504L479.152 57.256C478.16 57.9173 477.104 58.5627 475.984 59.192C474.864 59.8107 473.696 60.408 472.48 60.984ZM481.28 61.784C480.896 61.368 480.448 60.904 479.936 60.392C479.424 59.88 478.933 59.4107 478.464 58.984L479.456 58.36C479.925 58.7867 480.411 59.2507 480.912 59.752C481.424 60.2533 481.872 60.7173 482.256 61.144L481.28 61.784ZM475.232 56.488L474.928 55.48C476.389 55.1173 477.616 54.5573 478.608 53.8C479.6 53.032 480.325 52.1093 480.784 51.032L481.904 51.416C481.552 52.2267 481.067 52.9627 480.448 53.624C479.84 54.2747 479.099 54.84 478.224 55.32C477.36 55.8 476.363 56.1893 475.232 56.488ZM481.888 57.24C480.363 56.76 479.072 56.0773 478.016 55.192C476.971 54.296 476.165 53.2133 475.6 51.944L476.688 51.432C477.125 52.5307 477.808 53.4853 478.736 54.296C479.675 55.096 480.853 55.7253 482.272 56.184L481.888 57.24ZM475.168 51.416V50.424H481.904V51.416H475.168ZM485.632 59.128V58.12H496.24V56.6H485.84V55.608H496.24V54.152H487.472V53.16H497.504V59.128H485.632ZM485.04 64.088L484.128 63.368C484.576 62.9093 484.976 62.4027 485.328 61.848C485.691 61.2827 485.979 60.696 486.192 60.088L487.216 60.52C486.992 61.1707 486.693 61.8053 486.32 62.424C485.947 63.0427 485.52 63.5973 485.04 64.088ZM491.76 64.36C491.397 64.36 491.035 64.3493 490.672 64.328C490.32 64.3173 490.005 64.3067 489.728 64.296C489.344 64.264 489.04 64.2213 488.816 64.168C488.603 64.1147 488.437 64.0133 488.32 63.864C488.213 63.7253 488.144 63.5173 488.112 63.24C488.091 62.9733 488.08 62.6107 488.08 62.152V59.832H489.328V61.976C489.328 62.3813 489.339 62.6693 489.36 62.84C489.392 63.0107 489.461 63.1173 489.568 63.16C489.675 63.2027 489.845 63.2347 490.08 63.256C490.304 63.2667 490.56 63.2773 490.848 63.288C491.147 63.3093 491.451 63.32 491.76 63.32C492.037 63.32 492.325 63.3093 492.624 63.288C492.933 63.2773 493.205 63.2667 493.44 63.256C493.76 63.2347 494.011 63.1973 494.192 63.144C494.373 63.1013 494.512 63.0213 494.608 62.904C494.704 62.776 494.773 62.584 494.816 62.328C494.859 62.0613 494.896 61.6987 494.928 61.24L496.112 61.432C496.059 62.0507 495.995 62.5413 495.92 62.904C495.856 63.2667 495.749 63.5387 495.6 63.72C495.461 63.9013 495.248 64.0293 494.96 64.104C494.672 64.1787 494.283 64.2373 493.792 64.28C493.515 64.3013 493.205 64.3173 492.864 64.328C492.523 64.3493 492.155 64.36 491.76 64.36ZM493.216 62.152C492.789 61.768 492.331 61.4 491.84 61.048C491.36 60.696 490.864 60.3653 490.352 60.056L491.04 59.256C491.563 59.5653 492.064 59.896 492.544 60.248C493.024 60.6 493.477 60.9627 493.904 61.336L493.216 62.152ZM484.752 56.008L484.208 54.904C484.837 54.424 485.419 53.9013 485.952 53.336C486.496 52.7707 486.976 52.1787 487.392 51.56C487.819 50.9413 488.176 50.312 488.464 49.672L489.648 49.896C489.435 50.44 489.163 50.984 488.832 51.528C488.512 52.072 488.139 52.6107 487.712 53.144C487.296 53.6667 486.837 54.168 486.336 54.648C485.845 55.128 485.317 55.5813 484.752 56.008ZM498.048 63.928C497.739 63.2987 497.387 62.6693 496.992 62.04C496.608 61.4 496.197 60.7813 495.76 60.184L496.752 59.656C497.2 60.2533 497.621 60.8773 498.016 61.528C498.411 62.168 498.763 62.8133 499.072 63.464L498.048 63.928ZM488.48 51.688V50.68H495.04V51.688H488.48ZM492.768 54.04L491.632 53.56C491.899 53.3253 492.171 53.0747 492.448 52.808C492.736 52.5307 493.013 52.2533 493.28 51.976C493.547 51.6987 493.776 51.4373 493.968 51.192L495.04 51.688C494.752 52.0613 494.405 52.456 494 52.872C493.595 53.288 493.184 53.6773 492.768 54.04ZM505.248 60.968L504.384 60.2C504.619 59.688 504.811 59.144 504.96 58.568C505.12 57.992 505.237 57.3467 505.312 56.632C505.397 55.9173 505.44 55.1067 505.44 54.2V50.552H509.632V55.288H506.048V54.248H508.512V51.608H506.56V54.856C506.56 55.1973 506.549 55.5227 506.528 55.832C506.507 56.1413 506.485 56.4507 506.464 56.76L506.352 56.792C506.277 57.5813 506.144 58.3227 505.952 59.016C505.771 59.6987 505.536 60.3493 505.248 60.968ZM501.536 64.312L500.96 63.288C501.568 62.872 502.107 62.456 502.576 62.04C503.045 61.6133 503.461 61.1653 503.824 60.696L504.544 61.528C504.171 62.0187 503.739 62.4933 503.248 62.952C502.768 63.4 502.197 63.8533 501.536 64.312ZM503.168 61.432V57.16H501.12V56.088H504.384V61.432H503.168ZM510.336 64.04C509.419 64.04 508.608 64.008 507.904 63.944C507.211 63.88 506.613 63.784 506.112 63.656C505.621 63.528 505.2 63.352 504.848 63.128C504.496 62.904 504.197 62.632 503.952 62.312C503.707 61.992 503.493 61.6133 503.312 61.176L504.368 61.032C504.528 61.3307 504.709 61.592 504.912 61.816C505.125 62.0293 505.376 62.2107 505.664 62.36C505.963 62.5093 506.32 62.632 506.736 62.728C507.163 62.8133 507.675 62.8773 508.272 62.92C508.88 62.952 509.589 62.968 510.4 62.968H515.536L515.504 64.04H510.336ZM505.568 61.96V56.712H509.712V61.96H506.64V60.888H508.592V57.736H506.64V61.96H505.568ZM503.888 54.088C503.451 53.5867 503.013 53.1067 502.576 52.648C502.149 52.1787 501.701 51.7147 501.232 51.256L502.08 50.52C502.539 50.9787 502.981 51.4427 503.408 51.912C503.845 52.3707 504.283 52.8507 504.72 53.352L503.888 54.088ZM512.128 62.12V59.208H510.048V58.152H512.128V56.2H509.872V55.128H515.504V56.2H513.344V58.152H515.408V59.208H513.344V62.12H512.128ZM511.232 55.448C511.147 54.8507 511.045 54.248 510.928 53.64C510.811 53.0213 510.688 52.424 510.56 51.848L511.616 51.72C511.744 52.3067 511.867 52.904 511.984 53.512C512.101 54.12 512.203 54.7227 512.288 55.32L511.232 55.448ZM513.984 55.512L512.96 55.336C513.152 54.7813 513.323 54.2053 513.472 53.608C513.621 53.0107 513.755 52.392 513.872 51.752L514.96 51.848C514.843 52.4987 514.699 53.1333 514.528 53.752C514.368 54.3707 514.187 54.9573 513.984 55.512ZM510.032 52.152V51.08H515.408V52.152H510.032ZM512.128 51.352V49.992H513.344V51.352H512.128ZM523.76 63.688V62.6H527.424V57.784H523.344V56.648H527.424V52.056H528.672V56.648H532.672V57.784H528.672V62.6H532.16V63.688H523.76ZM522.608 62.6C521.979 61.5867 521.376 60.744 520.8 60.072C520.235 59.3893 519.611 58.7867 518.928 58.264L519.552 57.368C520.277 57.8907 520.944 58.5093 521.552 59.224C522.171 59.9387 522.811 60.8133 523.472 61.848L522.608 62.6ZM518.352 64.584L517.808 63.56C518.459 63.0373 519.04 62.44 519.552 61.768C520.064 61.0853 520.507 60.3333 520.88 59.512C521.253 58.68 521.547 57.7787 521.76 56.808C521.973 55.8373 522.096 54.808 522.128 53.72H517.872V52.648H523.28V53.16C523.28 54.4187 523.168 55.6133 522.944 56.744C522.72 57.8747 522.395 58.92 521.968 59.88C521.552 60.84 521.035 61.7147 520.416 62.504C519.808 63.2933 519.12 63.9867 518.352 64.584ZM519.008 59.736L518.096 58.904C518.395 58.0933 518.661 57.2347 518.896 56.328C519.141 55.4213 519.355 54.4453 519.536 53.4C519.717 52.344 519.872 51.2027 520 49.976L521.168 50.024C520.965 52.0293 520.683 53.8533 520.32 55.496C519.957 57.128 519.52 58.5413 519.008 59.736ZM523.984 52.888L523.92 51.8C524.955 51.7573 525.952 51.6773 526.912 51.56C527.872 51.4427 528.773 51.2933 529.616 51.112C530.459 50.92 531.216 50.7067 531.888 50.472L532.176 51.544C531.493 51.7893 530.725 52.008 529.872 52.2C529.029 52.3813 528.112 52.5307 527.12 52.648C526.128 52.7547 525.083 52.8347 523.984 52.888ZM543.472 60.76C543.472 59.448 543.381 58.392 543.2 57.592C543.019 56.7813 542.731 56.1947 542.336 55.832C541.941 55.4693 541.424 55.288 540.784 55.288C540.229 55.288 539.701 55.4267 539.2 55.704C538.709 55.9707 538.208 56.4027 537.696 57C537.195 57.5973 536.635 58.3973 536.016 59.4L534.992 58.808C535.525 57.9653 536 57.1867 536.416 56.472C536.832 55.7467 537.211 55.0427 537.552 54.36C537.904 53.6773 538.224 52.984 538.512 52.28C538.811 51.5653 539.099 50.7973 539.376 49.976L540.576 50.2C540.224 51.2453 539.845 52.2107 539.44 53.096C539.045 53.9813 538.597 54.8773 538.096 55.784L537.696 55.592C538.219 55.1547 538.763 54.8293 539.328 54.616C539.904 54.392 540.496 54.28 541.104 54.28C541.957 54.28 542.645 54.4987 543.168 54.936C543.701 55.3733 544.091 56.072 544.336 57.032C544.581 57.9813 544.704 59.224 544.704 60.76H543.472ZM543.072 63.8C541.44 63.8 540.165 63.5653 539.248 63.096C538.331 62.6267 537.872 61.9813 537.872 61.16C537.872 60.5733 538.112 59.9813 538.592 59.384C539.072 58.7867 539.755 58.2213 540.64 57.688C541.525 57.144 542.581 56.6373 543.808 56.168C545.045 55.6987 546.421 55.2933 547.936 54.952L548.128 55.992C546.784 56.3013 545.563 56.6587 544.464 57.064C543.365 57.4587 542.416 57.8853 541.616 58.344C540.816 58.792 540.197 59.2507 539.76 59.72C539.323 60.1787 539.104 60.6213 539.104 61.048C539.104 61.5813 539.451 61.9973 540.144 62.296C540.837 62.5947 541.813 62.744 543.072 62.744C543.765 62.744 544.523 62.7013 545.344 62.616C546.165 62.5307 546.997 62.4027 547.84 62.232L548.016 63.288C547.493 63.384 546.944 63.4693 546.368 63.544C545.792 63.6187 545.221 63.6773 544.656 63.72C544.091 63.7733 543.563 63.8 543.072 63.8ZM534.976 52.104C538.507 52.104 542.709 51.944 547.584 51.624L547.632 52.616C542.747 52.936 538.528 53.096 534.976 53.096V52.104ZM561.488 60.472C561.072 59.6187 560.704 58.7813 560.384 57.96C560.075 57.1387 559.808 56.3067 559.584 55.464C559.371 54.6213 559.195 53.752 559.056 52.856C558.917 51.96 558.816 51.016 558.752 50.024L559.968 49.944C560.032 50.9147 560.128 51.832 560.256 52.696C560.395 53.56 560.571 54.4027 560.784 55.224C561.008 56.0347 561.275 56.8453 561.584 57.656C561.904 58.4667 562.277 59.304 562.704 60.168L561.488 60.472ZM559.584 63.688C558.315 63.688 557.211 63.5653 556.272 63.32C555.333 63.0853 554.608 62.7493 554.096 62.312C553.595 61.8747 553.339 61.352 553.328 60.744C553.328 60.1893 553.536 59.6667 553.952 59.176C554.368 58.6853 554.949 58.28 555.696 57.96L556.368 58.856C555.781 59.112 555.344 59.3947 555.056 59.704C554.768 60.0027 554.629 60.328 554.64 60.68C554.651 61.0747 554.848 61.416 555.232 61.704C555.627 61.992 556.187 62.216 556.912 62.376C557.637 62.5253 558.501 62.6 559.504 62.6C560.304 62.6 561.125 62.552 561.968 62.456C562.821 62.36 563.6 62.2267 564.304 62.056L564.496 63.144C563.771 63.3147 562.976 63.448 562.112 63.544C561.259 63.64 560.416 63.688 559.584 63.688ZM552.896 52.504C553.963 52.4827 554.965 52.4507 555.904 52.408C556.853 52.3653 557.781 52.312 558.688 52.248C559.595 52.1733 560.523 52.0827 561.472 51.976C562.432 51.8693 563.451 51.7467 564.528 51.608L564.608 52.632C563.52 52.7813 562.496 52.9093 561.536 53.016C560.587 53.1227 559.653 53.2133 558.736 53.288C557.819 53.352 556.885 53.4053 555.936 53.448C554.987 53.48 553.973 53.5067 552.896 53.528V52.504ZM552.544 56.088C553.664 56.0667 554.725 56.0347 555.728 55.992C556.731 55.9493 557.717 55.8907 558.688 55.816C559.669 55.7413 560.672 55.6507 561.696 55.544C562.72 55.4267 563.819 55.288 564.992 55.128L565.072 56.168C563.899 56.328 562.795 56.4667 561.76 56.584C560.725 56.6907 559.717 56.7813 558.736 56.856C557.755 56.9307 556.757 56.9893 555.744 57.032C554.741 57.0747 553.675 57.1067 552.544 57.128V56.088ZM572.496 61.784C574.16 61.784 575.531 61.656 576.608 61.4C577.685 61.1333 578.485 60.7333 579.008 60.2C579.541 59.656 579.808 58.9733 579.808 58.152C579.808 57.2453 579.499 56.552 578.88 56.072C578.272 55.5813 577.381 55.336 576.208 55.336C575.493 55.336 574.672 55.4373 573.744 55.64C572.827 55.832 571.701 56.1467 570.368 56.584L570.112 55.4C571.52 54.9627 572.715 54.648 573.696 54.456C574.677 54.264 575.547 54.168 576.304 54.168C577.808 54.168 578.976 54.5147 579.808 55.208C580.64 55.8907 581.056 56.8613 581.056 58.12C581.056 59.7093 580.347 60.9093 578.928 61.72C577.509 62.5307 575.413 62.936 572.64 62.936L572.496 61.784ZM592.896 63.272C592.629 63.272 592.283 63.2293 591.856 63.144C591.44 63.0587 590.997 62.9467 590.528 62.808C590.059 62.6693 589.616 62.5253 589.2 62.376L589.504 61.288C589.867 61.4267 590.245 61.56 590.64 61.688C591.045 61.8053 591.419 61.9013 591.76 61.976C592.101 62.0507 592.363 62.088 592.544 62.088C592.96 62.088 593.307 61.8747 593.584 61.448C593.872 61.0107 594.091 60.3707 594.24 59.528C594.389 58.6747 594.464 57.6133 594.464 56.344C594.464 55.7787 594.437 55.3253 594.384 54.984C594.331 54.6427 594.229 54.392 594.08 54.232C593.931 54.0613 593.701 53.9493 593.392 53.896C593.093 53.832 592.688 53.8 592.176 53.8C591.696 53.8 591.12 53.8213 590.448 53.864C589.776 53.896 589.013 53.9493 588.16 54.024C587.317 54.088 586.379 54.1733 585.344 54.28L585.248 53.192C586.869 53.0213 588.245 52.8987 589.376 52.824C590.517 52.7493 591.525 52.712 592.4 52.712C592.976 52.712 593.456 52.7387 593.84 52.792C594.235 52.8453 594.555 52.9467 594.8 53.096C595.045 53.2347 595.232 53.4427 595.36 53.72C595.488 53.9973 595.573 54.36 595.616 54.808C595.659 55.256 595.68 55.8107 595.68 56.472C595.68 57.976 595.579 59.2347 595.376 60.248C595.173 61.2507 594.864 62.008 594.448 62.52C594.043 63.0213 593.525 63.272 592.896 63.272ZM585.504 63.064C585.931 62.232 586.309 61.4267 586.64 60.648C586.981 59.8587 587.285 59.0693 587.552 58.28C587.829 57.48 588.08 56.6587 588.304 55.816C588.528 54.9627 588.731 54.056 588.912 53.096C589.093 52.1253 589.269 51.0747 589.44 49.944L590.624 50.072C590.432 51.4693 590.213 52.76 589.968 53.944C589.733 55.128 589.456 56.248 589.136 57.304C588.827 58.36 588.464 59.4 588.048 60.424C587.643 61.4373 587.173 62.4773 586.64 63.544L585.504 63.064ZM598.768 60.264C598.661 59.6133 598.512 58.92 598.32 58.184C598.139 57.4373 597.925 56.6907 597.68 55.944C597.445 55.1973 597.195 54.4773 596.928 53.784C596.661 53.08 596.395 52.44 596.128 51.864L597.28 51.48C597.557 52.0773 597.829 52.728 598.096 53.432C598.363 54.136 598.613 54.8667 598.848 55.624C599.093 56.3707 599.307 57.1173 599.488 57.864C599.68 58.6107 599.835 59.3147 599.952 59.976L598.768 60.264ZM607.552 62.44C608.448 62.3973 609.2 62.3333 609.808 62.248C610.416 62.1627 610.901 62.0293 611.264 61.848C611.637 61.6667 611.92 61.416 612.112 61.096C612.315 60.776 612.448 60.36 612.512 59.848C612.576 59.336 612.608 58.7067 612.608 57.96V50.408H613.84V57.96C613.84 58.8347 613.787 59.5867 613.68 60.216C613.584 60.8347 613.408 61.352 613.152 61.768C612.896 62.1733 612.539 62.4987 612.08 62.744C611.632 62.9893 611.056 63.1707 610.352 63.288C609.659 63.416 608.811 63.5067 607.808 63.56L607.552 62.44ZM610.368 54.728C609.749 54.728 609.093 54.712 608.4 54.68C607.717 54.648 607.125 54.6107 606.624 54.568L606.672 53.48C607.163 53.5227 607.749 53.56 608.432 53.592C609.115 53.624 609.765 53.64 610.384 53.64C611.312 53.64 612.256 53.6027 613.216 53.528C614.176 53.4533 615.259 53.3307 616.464 53.16L616.512 54.248C615.307 54.4187 614.219 54.5413 613.248 54.616C612.277 54.6907 611.317 54.728 610.368 54.728ZM603.776 63.8C603.499 62.712 603.291 61.6453 603.152 60.6C603.024 59.5547 602.96 58.4347 602.96 57.24C602.96 56.0667 603.024 54.9573 603.152 53.912C603.28 52.8667 603.483 51.7947 603.76 50.696L605.008 50.872C604.741 51.928 604.544 52.9733 604.416 54.008C604.288 55.032 604.224 56.1093 604.224 57.24C604.224 58.3813 604.288 59.4693 604.416 60.504C604.544 61.528 604.741 62.5573 605.008 63.592L603.776 63.8ZM628.528 62.92C627.547 62.92 626.683 62.7973 625.936 62.552C625.189 62.296 624.603 61.944 624.176 61.496C623.76 61.048 623.552 60.536 623.552 59.96C623.552 58.904 624.288 57.832 625.76 56.744L626.608 57.448C625.979 57.9067 625.515 58.3333 625.216 58.728C624.917 59.1227 624.768 59.5067 624.768 59.88C624.768 60.264 624.923 60.6 625.232 60.888C625.541 61.176 625.979 61.4 626.544 61.56C627.109 61.72 627.771 61.8 628.528 61.8C629.093 61.8 629.707 61.7573 630.368 61.672C631.029 61.5867 631.68 61.4747 632.32 61.336L632.512 62.44C631.851 62.5893 631.179 62.7067 630.496 62.792C629.813 62.8773 629.157 62.92 628.528 62.92ZM627.376 53.432C626.885 53.432 626.368 53.416 625.824 53.384C625.28 53.352 624.805 53.3147 624.4 53.272L624.448 52.152C624.843 52.1947 625.307 52.232 625.84 52.264C626.373 52.296 626.885 52.312 627.376 52.312C628.112 52.312 628.864 52.2747 629.632 52.2C630.4 52.1253 631.264 52.0027 632.224 51.832L632.288 52.952C631.328 53.1227 630.459 53.2453 629.68 53.32C628.901 53.3947 628.133 53.432 627.376 53.432ZM620.672 63.8C620.395 62.712 620.192 61.6453 620.064 60.6C619.936 59.5547 619.872 58.4347 619.872 57.24C619.872 56.0667 619.936 54.9573 620.064 53.912C620.192 52.8667 620.395 51.7947 620.672 50.696L621.888 50.872C621.621 51.928 621.424 52.9733 621.296 54.008C621.179 55.032 621.12 56.1093 621.12 57.24C621.12 58.3813 621.179 59.4693 621.296 60.504C621.424 61.528 621.621 62.5573 621.888 63.592L620.672 63.8ZM639.248 64.168C638.757 63.528 638.235 62.9307 637.68 62.376C637.125 61.8107 636.523 61.2827 635.872 60.792L636.704 59.912C637.365 60.424 637.984 60.9733 638.56 61.56C639.147 62.1467 639.691 62.776 640.192 63.448L639.248 64.168ZM126.192 85.688C125.808 85.688 125.456 85.5973 125.136 85.416C124.827 85.224 124.576 84.9733 124.384 84.664C124.203 84.344 124.112 83.9973 124.112 83.624C124.112 83.2293 124.203 82.8773 124.384 82.568C124.576 82.2587 124.827 82.008 125.136 81.816C125.456 81.624 125.803 81.528 126.176 81.528C126.571 81.528 126.923 81.624 127.232 81.816C127.541 82.008 127.792 82.2587 127.984 82.568C128.176 82.8773 128.272 83.224 128.272 83.608C128.272 83.992 128.176 84.344 127.984 84.664C127.792 84.9733 127.541 85.224 127.232 85.416C126.923 85.5973 126.576 85.688 126.192 85.688ZM126.192 84.68C126.491 84.68 126.741 84.5733 126.944 84.36C127.147 84.1467 127.248 83.896 127.248 83.608C127.248 83.3093 127.147 83.0587 126.944 82.856C126.741 82.6533 126.491 82.552 126.192 82.552C125.904 82.552 125.653 82.6533 125.44 82.856C125.227 83.0587 125.12 83.3093 125.12 83.608C125.12 83.896 125.227 84.1467 125.44 84.36C125.653 84.5733 125.904 84.68 126.192 84.68ZM127.936 95.336C127.509 93.7253 127.056 92.2427 126.576 90.888C126.096 89.5227 125.563 88.2107 124.976 86.952L126.176 86.504C126.763 87.7733 127.301 89.096 127.792 90.472C128.283 91.8373 128.757 93.3413 129.216 94.984L127.936 95.336ZM114.816 94.616C115.509 93.4427 116.117 92.264 116.64 91.08C117.163 89.8853 117.6 88.6747 117.952 87.448C118.315 86.2107 118.597 84.9413 118.8 83.64L120.08 83.736C119.877 85.1013 119.589 86.4293 119.216 87.72C118.853 89.0107 118.405 90.28 117.872 91.528C117.339 92.7653 116.715 93.9867 116 95.192L114.816 94.616ZM132.288 89.848V88.616H145.312V89.848H132.288ZM161.648 91.304C159.995 90.7173 158.341 90.1893 156.688 89.72C155.045 89.24 153.493 88.8347 152.032 88.504L152.336 87.336C153.861 87.6667 155.461 88.0773 157.136 88.568C158.811 89.0587 160.443 89.5867 162.032 90.152L161.648 91.304ZM151.504 96.072V82.408H152.784V96.072H151.504ZM166.88 94.28C167.904 94.152 168.768 93.9387 169.472 93.64C170.187 93.3307 170.757 92.9093 171.184 92.376C171.621 91.8427 171.936 91.176 172.128 90.376C172.331 89.5653 172.432 88.6 172.432 87.48V82.04H173.712V87.48C173.712 89.1547 173.483 90.552 173.024 91.672C172.576 92.7813 171.867 93.64 170.896 94.248C169.936 94.856 168.693 95.2507 167.168 95.432L166.88 94.28ZM165.312 86.52V85.336H179.488V86.52H165.312ZM182.688 89.848V88.616H195.712V89.848H182.688ZM206.016 95.704C204.064 95.704 202.581 95.4107 201.568 94.824C200.565 94.2373 200.064 93.3733 200.064 92.232C200.064 91.2613 200.432 90.376 201.168 89.576C201.915 88.7653 203.077 88.008 204.656 87.304C206.245 86.6 208.293 85.9173 210.8 85.256L211.088 86.376C208.827 86.9733 206.976 87.576 205.536 88.184C204.107 88.792 203.051 89.4213 202.368 90.072C201.685 90.7227 201.344 91.416 201.344 92.152C201.344 93.7733 202.923 94.584 206.08 94.584C206.581 94.584 207.104 94.5627 207.648 94.52C208.192 94.4667 208.773 94.4027 209.392 94.328C210.021 94.2427 210.688 94.1413 211.392 94.024L211.552 95.16C210.592 95.32 209.637 95.448 208.688 95.544C207.739 95.6507 206.848 95.704 206.016 95.704ZM203.28 88.552C202.971 87.5173 202.709 86.5147 202.496 85.544C202.283 84.5627 202.112 83.5547 201.984 82.52L203.232 82.344C203.371 83.368 203.547 84.36 203.76 85.32C203.973 86.28 204.229 87.256 204.528 88.248L203.28 88.552ZM222.96 95.448C221.744 95.448 220.677 95.3147 219.76 95.048C218.853 94.7813 218.144 94.4027 217.632 93.912C217.131 93.4213 216.88 92.8507 216.88 92.2C216.88 91.656 217.061 91.0693 217.424 90.44C217.787 89.8 218.341 89.096 219.088 88.328L220.096 88.968C219.456 89.608 218.976 90.1893 218.656 90.712C218.336 91.2347 218.176 91.6933 218.176 92.088C218.176 92.5253 218.373 92.9147 218.768 93.256C219.173 93.5973 219.733 93.864 220.448 94.056C221.173 94.2373 222.011 94.328 222.96 94.328C223.525 94.328 224.133 94.3013 224.784 94.248C225.445 94.184 226.08 94.0987 226.688 93.992C227.296 93.8853 227.808 93.768 228.224 93.64L228.496 94.744C228.069 94.8827 227.541 95.0053 226.912 95.112C226.283 95.2187 225.621 95.2987 224.928 95.352C224.235 95.416 223.579 95.448 222.96 95.448ZM227.92 84.712C226.789 84.7013 225.659 84.6853 224.528 84.664C223.408 84.6427 222.288 84.6107 221.168 84.568C220.048 84.5147 218.928 84.456 217.808 84.392L217.904 83.272C219.003 83.336 220.107 83.3947 221.216 83.448C222.325 83.4907 223.44 83.5227 224.56 83.544C225.68 83.5653 226.8 83.5813 227.92 83.592V84.712ZM244.896 95.192C244.32 95.192 243.888 95.032 243.6 94.712C243.312 94.3813 243.168 93.88 243.168 93.208V87C243.168 86.3067 243.061 85.7947 242.848 85.464C242.645 85.1227 242.331 84.952 241.904 84.952C241.659 84.952 241.381 85.0213 241.072 85.16C240.773 85.288 240.411 85.5067 239.984 85.816C239.557 86.1253 239.051 86.5467 238.464 87.08C237.877 87.6027 237.173 88.2533 236.352 89.032H236.256C235.765 89.512 235.221 90.056 234.624 90.664C234.027 91.2613 233.371 91.9333 232.656 92.68L231.952 91.688C233.275 90.376 234.416 89.2613 235.376 88.344C236.336 87.4267 237.157 86.6747 237.84 86.088C238.533 85.5013 239.125 85.0427 239.616 84.712C240.107 84.3813 240.539 84.152 240.912 84.024C241.296 83.896 241.664 83.832 242.016 83.832C242.795 83.832 243.387 84.0773 243.792 84.568C244.197 85.0587 244.4 85.7733 244.4 86.712V92.696C244.4 93.0373 244.421 93.3093 244.464 93.512C244.507 93.704 244.576 93.8427 244.672 93.928C244.779 94.0027 244.912 94.04 245.072 94.04C245.307 94.04 245.595 93.976 245.936 93.848C246.288 93.7093 246.672 93.5067 247.088 93.24L247.52 94.264C247.04 94.5733 246.581 94.808 246.144 94.968C245.717 95.1173 245.301 95.192 244.896 95.192ZM235.792 95.992V82.488H236.992V95.992H235.792ZM236.192 86.216C235.925 86.216 235.611 86.2107 235.248 86.2C234.896 86.1787 234.528 86.152 234.144 86.12C233.771 86.088 233.408 86.056 233.056 86.024C232.704 85.9813 232.395 85.9387 232.128 85.896L232.288 84.84C232.544 84.872 232.843 84.9093 233.184 84.952C233.536 84.984 233.899 85.016 234.272 85.048C234.656 85.08 235.024 85.1067 235.376 85.128C235.728 85.1493 236.037 85.16 236.304 85.16L236.192 86.216ZM256.896 95.272C256.629 95.272 256.283 95.2293 255.856 95.144C255.44 95.0587 254.997 94.9467 254.528 94.808C254.059 94.6693 253.616 94.5253 253.2 94.376L253.504 93.288C253.867 93.4267 254.245 93.56 254.64 93.688C255.045 93.8053 255.419 93.9013 255.76 93.976C256.101 94.0507 256.363 94.088 256.544 94.088C256.96 94.088 257.307 93.8747 257.584 93.448C257.872 93.0107 258.091 92.3707 258.24 91.528C258.389 90.6747 258.464 89.6133 258.464 88.344C258.464 87.7787 258.437 87.3253 258.384 86.984C258.331 86.6427 258.229 86.392 258.08 86.232C257.931 86.0613 257.701 85.9493 257.392 85.896C257.093 85.832 256.688 85.8 256.176 85.8C255.696 85.8 255.12 85.8213 254.448 85.864C253.776 85.896 253.013 85.9493 252.16 86.024C251.317 86.088 250.379 86.1733 249.344 86.28L249.248 85.192C250.869 85.0213 252.245 84.8987 253.376 84.824C254.517 84.7493 255.525 84.712 256.4 84.712C256.976 84.712 257.456 84.7387 257.84 84.792C258.235 84.8453 258.555 84.9467 258.8 85.096C259.045 85.2347 259.232 85.4427 259.36 85.72C259.488 85.9973 259.573 86.36 259.616 86.808C259.659 87.256 259.68 87.8107 259.68 88.472C259.68 89.976 259.579 91.2347 259.376 92.248C259.173 93.2507 258.864 94.008 258.448 94.52C258.043 95.0213 257.525 95.272 256.896 95.272ZM249.504 95.064C249.931 94.232 250.309 93.4267 250.64 92.648C250.981 91.8587 251.285 91.0693 251.552 90.28C251.829 89.48 252.08 88.6587 252.304 87.816C252.528 86.9627 252.731 86.056 252.912 85.096C253.093 84.1253 253.269 83.0747 253.44 81.944L254.624 82.072C254.432 83.4693 254.213 84.76 253.968 85.944C253.733 87.128 253.456 88.248 253.136 89.304C252.827 90.36 252.464 91.4 252.048 92.424C251.643 93.4373 251.173 94.4773 250.64 95.544L249.504 95.064ZM262.768 92.264C262.661 91.6133 262.512 90.92 262.32 90.184C262.139 89.4373 261.925 88.6907 261.68 87.944C261.445 87.1973 261.195 86.4773 260.928 85.784C260.661 85.08 260.395 84.44 260.128 83.864L261.28 83.48C261.557 84.0773 261.829 84.728 262.096 85.432C262.363 86.136 262.613 86.8667 262.848 87.624C263.093 88.3707 263.307 89.1173 263.488 89.864C263.68 90.6107 263.835 91.3147 263.952 91.976L262.768 92.264ZM273.056 95.448C272.512 95.448 271.931 95.4267 271.312 95.384C270.693 95.3413 270.08 95.2773 269.472 95.192C268.875 95.1067 268.304 95.0053 267.76 94.888L267.888 93.8C268.496 93.9173 269.104 94.0187 269.712 94.104C270.32 94.1893 270.907 94.2533 271.472 94.296C272.048 94.3387 272.576 94.36 273.056 94.36C274.731 94.36 276.011 94.0933 276.896 93.56C277.781 93.016 278.224 92.2427 278.224 91.24C278.224 90.3867 277.909 89.7307 277.28 89.272C276.661 88.8133 275.765 88.584 274.592 88.584C273.856 88.584 273.104 88.68 272.336 88.872C271.568 89.0533 270.848 89.3093 270.176 89.64C269.504 89.9707 268.917 90.36 268.416 90.808L267.296 90.584C267.435 89.9547 267.557 89.3467 267.664 88.76C267.771 88.1733 267.867 87.608 267.952 87.064C268.037 86.5093 268.107 85.976 268.16 85.464L269.36 85.56C269.285 86.2107 269.195 86.8987 269.088 87.624C268.981 88.3387 268.848 89.048 268.688 89.752L268.512 89.448C269.067 89.032 269.675 88.6853 270.336 88.408C271.008 88.12 271.707 87.896 272.432 87.736C273.168 87.576 273.909 87.496 274.656 87.496C276.213 87.496 277.397 87.816 278.208 88.456C279.029 89.096 279.44 90.0133 279.44 91.208C279.44 92.584 278.896 93.6347 277.808 94.36C276.72 95.0853 275.136 95.448 273.056 95.448ZM277.424 84.984C276.443 84.92 275.525 84.8453 274.672 84.76C273.829 84.664 272.987 84.5413 272.144 84.392C271.312 84.232 270.421 84.04 269.472 83.816L269.712 82.728C270.608 82.9413 271.472 83.1227 272.304 83.272C273.147 83.4213 273.995 83.5493 274.848 83.656C275.701 83.752 276.597 83.832 277.536 83.896L277.424 84.984ZM291.472 94.232C292.091 94.168 292.656 93.9973 293.168 93.72C293.691 93.432 294.144 93.064 294.528 92.616C294.912 92.1573 295.211 91.64 295.424 91.064C295.637 90.4773 295.744 89.848 295.744 89.176C295.744 88.216 295.531 87.384 295.104 86.68C294.677 85.976 294.08 85.4267 293.312 85.032C292.544 84.6373 291.637 84.44 290.592 84.44C289.696 84.44 288.859 84.584 288.08 84.872C287.312 85.16 286.64 85.56 286.064 86.072C285.488 86.584 285.035 87.1867 284.704 87.88C284.384 88.5627 284.224 89.2987 284.224 90.088C284.224 90.5573 284.277 91.0053 284.384 91.432C284.491 91.848 284.635 92.2267 284.816 92.568C285.008 92.8987 285.221 93.1653 285.456 93.368C285.701 93.56 285.947 93.656 286.192 93.656C286.576 93.656 286.939 93.4373 287.28 93C287.632 92.552 287.963 91.9013 288.272 91.048C288.581 90.1947 288.864 89.1493 289.12 87.912C289.376 86.6747 289.6 85.2667 289.792 83.688L290.976 83.816C290.795 85.2987 290.581 86.6373 290.336 87.832C290.101 89.016 289.84 90.0507 289.552 90.936C289.275 91.8107 288.965 92.5467 288.624 93.144C288.293 93.7307 287.931 94.1733 287.536 94.472C287.152 94.76 286.736 94.904 286.288 94.904C285.84 94.904 285.419 94.7813 285.024 94.536C284.64 94.28 284.299 93.9333 284 93.496C283.712 93.048 283.483 92.536 283.312 91.96C283.152 91.3733 283.072 90.7493 283.072 90.088C283.072 89.1173 283.259 88.2213 283.632 87.4C284.005 86.5787 284.533 85.864 285.216 85.256C285.899 84.6373 286.699 84.1627 287.616 83.832C288.533 83.4907 289.536 83.32 290.624 83.32C291.904 83.32 293.013 83.56 293.952 84.04C294.901 84.52 295.632 85.2027 296.144 86.088C296.667 86.9627 296.928 87.992 296.928 89.176C296.928 89.9867 296.8 90.7493 296.544 91.464C296.299 92.168 295.947 92.7973 295.488 93.352C295.04 93.896 294.507 94.3387 293.888 94.68C293.269 95.0213 292.581 95.2347 291.824 95.32L291.472 94.232ZM303.648 92.968L302.784 92.2C303.019 91.688 303.211 91.144 303.36 90.568C303.52 89.992 303.637 89.3467 303.712 88.632C303.797 87.9173 303.84 87.1067 303.84 86.2V82.552H308.032V87.288H304.448V86.248H306.912V83.608H304.96V86.856C304.96 87.1973 304.949 87.5227 304.928 87.832C304.907 88.1413 304.885 88.4507 304.864 88.76L304.752 88.792C304.677 89.5813 304.544 90.3227 304.352 91.016C304.171 91.6987 303.936 92.3493 303.648 92.968ZM299.936 96.312L299.36 95.288C299.968 94.872 300.507 94.456 300.976 94.04C301.445 93.6133 301.861 93.1653 302.224 92.696L302.944 93.528C302.571 94.0187 302.139 94.4933 301.648 94.952C301.168 95.4 300.597 95.8533 299.936 96.312ZM301.568 93.432V89.16H299.52V88.088H302.784V93.432H301.568ZM308.736 96.04C307.819 96.04 307.008 96.008 306.304 95.944C305.611 95.88 305.013 95.784 304.512 95.656C304.021 95.528 303.6 95.352 303.248 95.128C302.896 94.904 302.597 94.632 302.352 94.312C302.107 93.992 301.893 93.6133 301.712 93.176L302.768 93.032C302.928 93.3307 303.109 93.592 303.312 93.816C303.525 94.0293 303.776 94.2107 304.064 94.36C304.363 94.5093 304.72 94.632 305.136 94.728C305.563 94.8133 306.075 94.8773 306.672 94.92C307.28 94.952 307.989 94.968 308.8 94.968H313.936L313.904 96.04H308.736ZM303.968 93.96V88.712H308.112V93.96H305.04V92.888H306.992V89.736H305.04V93.96H303.968ZM302.288 86.088C301.851 85.5867 301.413 85.1067 300.976 84.648C300.549 84.1787 300.101 83.7147 299.632 83.256L300.48 82.52C300.939 82.9787 301.381 83.4427 301.808 83.912C302.245 84.3707 302.683 84.8507 303.12 85.352L302.288 86.088ZM310.528 94.12V91.208H308.448V90.152H310.528V88.2H308.272V87.128H313.904V88.2H311.744V90.152H313.808V91.208H311.744V94.12H310.528ZM309.632 87.448C309.547 86.8507 309.445 86.248 309.328 85.64C309.211 85.0213 309.088 84.424 308.96 83.848L310.016 83.72C310.144 84.3067 310.267 84.904 310.384 85.512C310.501 86.12 310.603 86.7227 310.688 87.32L309.632 87.448ZM312.384 87.512L311.36 87.336C311.552 86.7813 311.723 86.2053 311.872 85.608C312.021 85.0107 312.155 84.392 312.272 83.752L313.36 83.848C313.243 84.4987 313.099 85.1333 312.928 85.752C312.768 86.3707 312.587 86.9573 312.384 87.512ZM308.432 84.152V83.08H313.808V84.152H308.432ZM310.528 83.352V81.992H311.744V83.352H310.528ZM322.16 95.688V94.6H325.824V89.784H321.744V88.648H325.824V84.056H327.072V88.648H331.072V89.784H327.072V94.6H330.56V95.688H322.16ZM321.008 94.6C320.379 93.5867 319.776 92.744 319.2 92.072C318.635 91.3893 318.011 90.7867 317.328 90.264L317.952 89.368C318.677 89.8907 319.344 90.5093 319.952 91.224C320.571 91.9387 321.211 92.8133 321.872 93.848L321.008 94.6ZM316.752 96.584L316.208 95.56C316.859 95.0373 317.44 94.44 317.952 93.768C318.464 93.0853 318.907 92.3333 319.28 91.512C319.653 90.68 319.947 89.7787 320.16 88.808C320.373 87.8373 320.496 86.808 320.528 85.72H316.272V84.648H321.68V85.16C321.68 86.4187 321.568 87.6133 321.344 88.744C321.12 89.8747 320.795 90.92 320.368 91.88C319.952 92.84 319.435 93.7147 318.816 94.504C318.208 95.2933 317.52 95.9867 316.752 96.584ZM317.408 91.736L316.496 90.904C316.795 90.0933 317.061 89.2347 317.296 88.328C317.541 87.4213 317.755 86.4453 317.936 85.4C318.117 84.344 318.272 83.2027 318.4 81.976L319.568 82.024C319.365 84.0293 319.083 85.8533 318.72 87.496C318.357 89.128 317.92 90.5413 317.408 91.736ZM322.384 84.888L322.32 83.8C323.355 83.7573 324.352 83.6773 325.312 83.56C326.272 83.4427 327.173 83.2933 328.016 83.112C328.859 82.92 329.616 82.7067 330.288 82.472L330.576 83.544C329.893 83.7893 329.125 84.008 328.272 84.2C327.429 84.3813 326.512 84.5307 325.52 84.648C324.528 84.7547 323.483 84.8347 322.384 84.888ZM342.928 94.92C341.947 94.92 341.083 94.7973 340.336 94.552C339.589 94.296 339.003 93.944 338.576 93.496C338.16 93.048 337.952 92.536 337.952 91.96C337.952 90.904 338.688 89.832 340.16 88.744L341.008 89.448C340.379 89.9067 339.915 90.3333 339.616 90.728C339.317 91.1227 339.168 91.5067 339.168 91.88C339.168 92.264 339.323 92.6 339.632 92.888C339.941 93.176 340.379 93.4 340.944 93.56C341.509 93.72 342.171 93.8 342.928 93.8C343.493 93.8 344.107 93.7573 344.768 93.672C345.429 93.5867 346.08 93.4747 346.72 93.336L346.912 94.44C346.251 94.5893 345.579 94.7067 344.896 94.792C344.213 94.8773 343.557 94.92 342.928 94.92ZM341.776 85.432C341.285 85.432 340.768 85.416 340.224 85.384C339.68 85.352 339.205 85.3147 338.8 85.272L338.848 84.152C339.243 84.1947 339.707 84.232 340.24 84.264C340.773 84.296 341.285 84.312 341.776 84.312C342.512 84.312 343.264 84.2747 344.032 84.2C344.8 84.1253 345.664 84.0027 346.624 83.832L346.688 84.952C345.728 85.1227 344.859 85.2453 344.08 85.32C343.301 85.3947 342.533 85.432 341.776 85.432ZM335.072 95.8C334.795 94.712 334.592 93.6453 334.464 92.6C334.336 91.5547 334.272 90.4347 334.272 89.24C334.272 88.0667 334.336 86.9573 334.464 85.912C334.592 84.8667 334.795 83.7947 335.072 82.696L336.288 82.872C336.021 83.928 335.824 84.9733 335.696 86.008C335.579 87.032 335.52 88.1093 335.52 89.24C335.52 90.3813 335.579 91.4693 335.696 92.504C335.824 93.528 336.021 94.5573 336.288 95.592L335.072 95.8ZM353.344 93.576C355.467 93.576 357.216 93.4053 358.592 93.064C359.979 92.712 361.013 92.184 361.696 91.48C362.379 90.7653 362.72 89.8693 362.72 88.792C362.72 87.5653 362.309 86.6267 361.488 85.976C360.667 85.3253 359.483 85 357.936 85C357.339 85 356.688 85.0533 355.984 85.16C355.291 85.2667 354.501 85.432 353.616 85.656C352.741 85.88 351.733 86.1787 350.592 86.552L350.336 85.352C351.488 84.9893 352.523 84.696 353.44 84.472C354.368 84.2373 355.211 84.0667 355.968 83.96C356.736 83.8533 357.44 83.8 358.08 83.8C359.968 83.8 361.429 84.232 362.464 85.096C363.509 85.96 364.032 87.1707 364.032 88.728C364.032 90.7227 363.141 92.2267 361.36 93.24C359.589 94.2533 356.965 94.76 353.488 94.76L353.344 93.576ZM371.632 95.272C371.056 95.272 370.523 95.0853 370.032 94.712C369.541 94.3387 369.109 93.8213 368.736 93.16C368.363 92.4987 368.069 91.736 367.856 90.872C367.653 90.008 367.552 89.08 367.552 88.088C367.552 87.6933 367.568 87.24 367.6 86.728C367.632 86.216 367.675 85.7093 367.728 85.208C367.781 84.696 367.84 84.2587 367.904 83.896L369.152 84.008C369.099 84.328 369.045 84.728 368.992 85.208C368.939 85.6773 368.896 86.1627 368.864 86.664C368.832 87.1547 368.816 87.592 368.816 87.976C368.816 88.776 368.891 89.5387 369.04 90.264C369.2 90.9787 369.413 91.6187 369.68 92.184C369.947 92.7387 370.245 93.1813 370.576 93.512C370.917 93.832 371.275 93.992 371.648 93.992C372.021 93.992 372.379 93.8107 372.72 93.448C373.061 93.0853 373.381 92.552 373.68 91.848C373.979 91.1333 374.245 90.2693 374.48 89.256L375.664 89.704C375.216 91.5173 374.651 92.8987 373.968 93.848C373.285 94.7973 372.507 95.272 371.632 95.272ZM379.856 93.352C379.76 92.2 379.573 91.0747 379.296 89.976C379.029 88.8667 378.688 87.8213 378.272 86.84C377.867 85.8587 377.397 84.9787 376.864 84.2L377.968 83.752C378.533 84.5413 379.029 85.4373 379.456 86.44C379.883 87.4427 380.235 88.5093 380.512 89.64C380.789 90.7707 380.981 91.9387 381.088 93.144L379.856 93.352ZM393.744 95.48C392.507 95.48 391.435 95.2827 390.528 94.888C389.621 94.4933 388.917 93.928 388.416 93.192C387.925 92.4453 387.68 91.5707 387.68 90.568C387.68 89.6507 387.883 88.776 388.288 87.944C388.704 87.112 389.275 86.376 390 85.736C390.725 85.0853 391.552 84.6 392.48 84.28L392.624 84.824C391.664 84.9093 390.72 84.984 389.792 85.048C388.875 85.1013 387.941 85.1493 386.992 85.192C386.043 85.224 385.045 85.2507 384 85.272V84.152C385.184 84.1307 386.309 84.0987 387.376 84.056C388.443 84.0133 389.493 83.9547 390.528 83.88C391.573 83.8053 392.645 83.7147 393.744 83.608C394.843 83.4907 396.021 83.352 397.28 83.192L397.344 84.312C396.949 84.3547 396.565 84.4027 396.192 84.456C395.829 84.4987 395.461 84.5413 395.088 84.584C394.203 84.6907 393.387 84.9147 392.64 85.256C391.904 85.5973 391.259 86.0293 390.704 86.552C390.16 87.0747 389.739 87.6667 389.44 88.328C389.141 88.9787 388.992 89.6667 388.992 90.392C388.992 91.2133 389.179 91.9173 389.552 92.504C389.936 93.0907 390.48 93.544 391.184 93.864C391.899 94.1733 392.752 94.328 393.744 94.328C393.989 94.328 394.24 94.3227 394.496 94.312C394.763 94.2907 395.019 94.2693 395.264 94.248C395.509 94.216 395.701 94.184 395.84 94.152L396 95.304C395.84 95.336 395.627 95.3627 395.36 95.384C395.104 95.416 394.832 95.4373 394.544 95.448C394.267 95.4693 394 95.48 393.744 95.48ZM401.312 96.168V85.768H407.472V94.168C407.472 94.6267 407.456 94.984 407.424 95.24C407.392 95.5067 407.323 95.704 407.216 95.832C407.12 95.96 406.955 96.04 406.72 96.072C406.496 96.104 406.187 96.12 405.792 96.12C405.653 96.12 405.451 96.1093 405.184 96.088C404.928 96.0773 404.592 96.0613 404.176 96.04V94.952C404.581 94.9733 404.896 94.9893 405.12 95C405.355 95.0213 405.52 95.032 405.616 95.032C405.84 95.032 405.995 95.016 406.08 94.984C406.176 94.952 406.229 94.872 406.24 94.744C406.261 94.616 406.272 94.3973 406.272 94.088V92.648H402.528V91.672H406.272V89.688H402.528V88.712H406.272V86.808H402.528V96.168H401.312ZM409.056 93.352V86.04H410.272V93.352H409.056ZM412.192 96.168C412.021 96.168 411.771 96.1627 411.44 96.152C411.109 96.1413 410.672 96.12 410.128 96.088L410.08 94.952C410.592 94.984 411.008 95 411.328 95C411.648 95.0107 411.883 95.016 412.032 95.016C412.256 95.016 412.416 95.0053 412.512 94.984C412.619 94.952 412.688 94.872 412.72 94.744C412.752 94.6053 412.768 94.3867 412.768 94.088V85.56H414V94.152C414 94.6 413.979 94.9573 413.936 95.224C413.904 95.4907 413.824 95.6933 413.696 95.832C413.579 95.9707 413.397 96.0613 413.152 96.104C412.917 96.1467 412.597 96.168 412.192 96.168ZM405.072 84.36C404.869 83.9333 404.656 83.5173 404.432 83.112C404.219 82.7067 404 82.3227 403.776 81.96L404.944 81.656C405.168 82.0187 405.392 82.408 405.616 82.824C405.84 83.2293 406.053 83.6453 406.256 84.072L405.072 84.36ZM400.448 84.68V83.64H414.752V84.68H400.448ZM410.144 84.344L408.96 84.056C409.205 83.6613 409.44 83.2613 409.664 82.856C409.888 82.4507 410.085 82.056 410.256 81.672L411.456 81.928C411.285 82.3013 411.083 82.7013 410.848 83.128C410.624 83.544 410.389 83.9493 410.144 84.344ZM417.76 96.152V83.992H431.04V94.024C431.04 94.472 431.019 94.8293 430.976 95.096C430.933 95.3733 430.848 95.576 430.72 95.704C430.603 95.8427 430.416 95.9333 430.16 95.976C429.915 96.0187 429.579 96.04 429.152 96.04C428.907 96.04 428.576 96.0347 428.16 96.024C427.755 96.0133 427.232 95.992 426.592 95.96L426.528 94.872C427.168 94.8933 427.669 94.9147 428.032 94.936C428.395 94.9467 428.667 94.952 428.848 94.952C429.147 94.952 429.36 94.936 429.488 94.904C429.616 94.872 429.696 94.792 429.728 94.664C429.771 94.536 429.792 94.3227 429.792 94.024V85.048H419.008V96.152H417.76ZM421.088 93.752V86.952H427.712V92.472H422.288V91.48H426.512V87.944H422.288V93.752H421.088ZM423.312 84.808L422.096 84.552C422.363 84.072 422.619 83.5867 422.864 83.096C423.12 82.5947 423.344 82.1147 423.536 81.656L424.784 81.864C424.592 82.3227 424.368 82.808 424.112 83.32C423.856 83.832 423.589 84.328 423.312 84.808ZM443.888 92.472C443.472 91.6187 443.104 90.7813 442.784 89.96C442.475 89.1387 442.208 88.3067 441.984 87.464C441.771 86.6213 441.595 85.752 441.456 84.856C441.317 83.96 441.216 83.016 441.152 82.024L442.368 81.944C442.432 82.9147 442.528 83.832 442.656 84.696C442.795 85.56 442.971 86.4027 443.184 87.224C443.408 88.0347 443.675 88.8453 443.984 89.656C444.304 90.4667 444.677 91.304 445.104 92.168L443.888 92.472ZM441.984 95.688C440.715 95.688 439.611 95.5653 438.672 95.32C437.733 95.0853 437.008 94.7493 436.496 94.312C435.995 93.8747 435.739 93.352 435.728 92.744C435.728 92.1893 435.936 91.6667 436.352 91.176C436.768 90.6853 437.349 90.28 438.096 89.96L438.768 90.856C438.181 91.112 437.744 91.3947 437.456 91.704C437.168 92.0027 437.029 92.328 437.04 92.68C437.051 93.0747 437.248 93.416 437.632 93.704C438.027 93.992 438.587 94.216 439.312 94.376C440.037 94.5253 440.901 94.6 441.904 94.6C442.704 94.6 443.525 94.552 444.368 94.456C445.221 94.36 446 94.2267 446.704 94.056L446.896 95.144C446.171 95.3147 445.376 95.448 444.512 95.544C443.659 95.64 442.816 95.688 441.984 95.688ZM435.296 84.504C436.363 84.4827 437.365 84.4507 438.304 84.408C439.253 84.3653 440.181 84.312 441.088 84.248C441.995 84.1733 442.923 84.0827 443.872 83.976C444.832 83.8693 445.851 83.7467 446.928 83.608L447.008 84.632C445.92 84.7813 444.896 84.9093 443.936 85.016C442.987 85.1227 442.053 85.2133 441.136 85.288C440.219 85.352 439.285 85.4053 438.336 85.448C437.387 85.48 436.373 85.5067 435.296 85.528V84.504ZM434.944 88.088C436.064 88.0667 437.125 88.0347 438.128 87.992C439.131 87.9493 440.117 87.8907 441.088 87.816C442.069 87.7413 443.072 87.6507 444.096 87.544C445.12 87.4267 446.219 87.288 447.392 87.128L447.472 88.168C446.299 88.328 445.195 88.4667 444.16 88.584C443.125 88.6907 442.117 88.7813 441.136 88.856C440.155 88.9307 439.157 88.9893 438.144 89.032C437.141 89.0747 436.075 89.1067 434.944 89.128V88.088ZM460.528 94.92C459.547 94.92 458.683 94.7973 457.936 94.552C457.189 94.296 456.603 93.944 456.176 93.496C455.76 93.048 455.552 92.536 455.552 91.96C455.552 90.904 456.288 89.832 457.76 88.744L458.608 89.448C457.979 89.9067 457.515 90.3333 457.216 90.728C456.917 91.1227 456.768 91.5067 456.768 91.88C456.768 92.264 456.923 92.6 457.232 92.888C457.541 93.176 457.979 93.4 458.544 93.56C459.109 93.72 459.771 93.8 460.528 93.8C461.093 93.8 461.707 93.7573 462.368 93.672C463.029 93.5867 463.68 93.4747 464.32 93.336L464.512 94.44C463.851 94.5893 463.179 94.7067 462.496 94.792C461.813 94.8773 461.157 94.92 460.528 94.92ZM459.376 85.432C458.885 85.432 458.368 85.416 457.824 85.384C457.28 85.352 456.805 85.3147 456.4 85.272L456.448 84.152C456.843 84.1947 457.307 84.232 457.84 84.264C458.373 84.296 458.885 84.312 459.376 84.312C460.112 84.312 460.864 84.2747 461.632 84.2C462.4 84.1253 463.264 84.0027 464.224 83.832L464.288 84.952C463.328 85.1227 462.459 85.2453 461.68 85.32C460.901 85.3947 460.133 85.432 459.376 85.432ZM452.672 95.8C452.395 94.712 452.192 93.6453 452.064 92.6C451.936 91.5547 451.872 90.4347 451.872 89.24C451.872 88.0667 451.936 86.9573 452.064 85.912C452.192 84.8667 452.395 83.7947 452.672 82.696L453.888 82.872C453.621 83.928 453.424 84.9733 453.296 86.008C453.179 87.032 453.12 88.1093 453.12 89.24C453.12 90.3813 453.179 91.4693 453.296 92.504C453.424 93.528 453.621 94.5573 453.888 95.592L452.672 95.8ZM467.84 90.84L467.44 89.752C469.328 89.24 471.088 88.6107 472.72 87.864C474.352 87.1067 475.824 86.2587 477.136 85.32C478.448 84.3813 479.552 83.3787 480.448 82.312L481.392 83C480.443 84.088 479.291 85.1227 477.936 86.104C476.581 87.0853 475.051 87.9813 473.344 88.792C471.648 89.592 469.813 90.2747 467.84 90.84ZM470.656 93.992L469.424 93.784C469.573 93.3573 469.717 92.8827 469.856 92.36C469.995 91.8373 470.123 91.3093 470.24 90.776C470.368 90.2427 470.469 89.7413 470.544 89.272L471.792 89.32C471.707 89.8107 471.605 90.3333 471.488 90.888C471.371 91.432 471.243 91.9707 471.104 92.504C470.965 93.0373 470.816 93.5333 470.656 93.992ZM478.032 96.12C477.797 96.12 477.472 96.1147 477.056 96.104C476.64 96.0933 476.192 96.0773 475.712 96.056C475.232 96.0347 474.773 96.0133 474.336 95.992L474.304 94.904C474.709 94.9253 475.131 94.9467 475.568 94.968C476.016 94.9787 476.427 94.9893 476.8 95C477.173 95.0213 477.456 95.032 477.648 95.032C477.861 95.032 478.037 95.0107 478.176 94.968C478.315 94.9253 478.432 94.8187 478.528 94.648C478.624 94.4667 478.709 94.184 478.784 93.8C478.859 93.416 478.939 92.8827 479.024 92.2H471.008V91.16H480.464C480.357 92.3013 480.24 93.2027 480.112 93.864C479.995 94.5253 479.851 95.016 479.68 95.336C479.509 95.6667 479.291 95.88 479.024 95.976C478.768 96.072 478.437 96.12 478.032 96.12ZM471.392 90.376L471.248 89.4C473.339 89.2613 475.237 89.08 476.944 88.856C478.651 88.632 480.059 88.3813 481.168 88.104L481.44 89.096C480.309 89.384 478.88 89.64 477.152 89.864C475.424 90.0773 473.504 90.248 471.392 90.376ZM467.488 87.24V86.2H473.472V84.136H468.992V83.16H473.472V81.848H474.752V83.16H478.528V84.136H474.752V86.2H482.112V87.24H467.488ZM485.952 95.688L485.184 94.776L494.752 86.856L494.784 87.32C493.248 87.4693 491.739 87.5813 490.256 87.656C488.784 87.72 487.291 87.752 485.776 87.752V86.648C486.939 86.648 488.08 86.632 489.2 86.6C490.32 86.568 491.435 86.52 492.544 86.456C493.664 86.392 494.8 86.312 495.952 86.216L496.032 87.272L491.68 90.92L491.136 90.792C491.211 90.568 491.328 90.4027 491.488 90.296C491.659 90.1787 491.883 90.12 492.16 90.12C492.661 90.12 493.035 90.232 493.28 90.456C493.536 90.6693 493.717 90.9413 493.824 91.272C493.941 91.592 494.032 91.9227 494.096 92.264C494.171 92.6373 494.261 92.984 494.368 93.304C494.475 93.624 494.651 93.8853 494.896 94.088C495.141 94.28 495.509 94.376 496 94.376C496.192 94.376 496.443 94.3653 496.752 94.344C497.061 94.312 497.376 94.2747 497.696 94.232C498.016 94.1787 498.288 94.12 498.512 94.056L498.656 95.16C498.389 95.224 498.085 95.2827 497.744 95.336C497.403 95.3893 497.067 95.4267 496.736 95.448C496.416 95.48 496.139 95.496 495.904 95.496C495.328 95.496 494.864 95.416 494.512 95.256C494.16 95.096 493.883 94.8827 493.68 94.616C493.488 94.3493 493.344 94.0613 493.248 93.752C493.152 93.432 493.072 93.128 493.008 92.84C492.944 92.5307 492.869 92.2533 492.784 92.008C492.709 91.7627 492.592 91.5707 492.432 91.432C492.283 91.2827 492.053 91.208 491.744 91.208C491.627 91.208 491.509 91.2293 491.392 91.272C491.285 91.304 491.152 91.3733 490.992 91.48C490.843 91.5867 490.64 91.7467 490.384 91.96L485.952 95.688ZM495.504 84.824C494.661 84.7493 493.776 84.6533 492.848 84.536C491.92 84.4187 490.976 84.2747 490.016 84.104C489.056 83.9333 488.107 83.7467 487.168 83.544L487.456 82.424C488.352 82.6373 489.269 82.8293 490.208 83C491.147 83.1707 492.075 83.32 492.992 83.448C493.92 83.5653 494.795 83.6613 495.616 83.736L495.504 84.824ZM511.344 95.48C510.107 95.48 509.035 95.2827 508.128 94.888C507.221 94.4933 506.517 93.928 506.016 93.192C505.525 92.4453 505.28 91.5707 505.28 90.568C505.28 89.6507 505.483 88.776 505.888 87.944C506.304 87.112 506.875 86.376 507.6 85.736C508.325 85.0853 509.152 84.6 510.08 84.28L510.224 84.824C509.264 84.9093 508.32 84.984 507.392 85.048C506.475 85.1013 505.541 85.1493 504.592 85.192C503.643 85.224 502.645 85.2507 501.6 85.272V84.152C502.784 84.1307 503.909 84.0987 504.976 84.056C506.043 84.0133 507.093 83.9547 508.128 83.88C509.173 83.8053 510.245 83.7147 511.344 83.608C512.443 83.4907 513.621 83.352 514.88 83.192L514.944 84.312C514.549 84.3547 514.165 84.4027 513.792 84.456C513.429 84.4987 513.061 84.5413 512.688 84.584C511.803 84.6907 510.987 84.9147 510.24 85.256C509.504 85.5973 508.859 86.0293 508.304 86.552C507.76 87.0747 507.339 87.6667 507.04 88.328C506.741 88.9787 506.592 89.6667 506.592 90.392C506.592 91.2133 506.779 91.9173 507.152 92.504C507.536 93.0907 508.08 93.544 508.784 93.864C509.499 94.1733 510.352 94.328 511.344 94.328C511.589 94.328 511.84 94.3227 512.096 94.312C512.363 94.2907 512.619 94.2693 512.864 94.248C513.109 94.216 513.301 94.184 513.44 94.152L513.6 95.304C513.44 95.336 513.227 95.3627 512.96 95.384C512.704 95.416 512.432 95.4373 512.144 95.448C511.867 95.4693 511.6 95.48 511.344 95.48ZM522.832 95.272C522.256 95.272 521.723 95.0853 521.232 94.712C520.741 94.3387 520.309 93.8213 519.936 93.16C519.563 92.4987 519.269 91.736 519.056 90.872C518.853 90.008 518.752 89.08 518.752 88.088C518.752 87.6933 518.768 87.24 518.8 86.728C518.832 86.216 518.875 85.7093 518.928 85.208C518.981 84.696 519.04 84.2587 519.104 83.896L520.352 84.008C520.299 84.328 520.245 84.728 520.192 85.208C520.139 85.6773 520.096 86.1627 520.064 86.664C520.032 87.1547 520.016 87.592 520.016 87.976C520.016 88.776 520.091 89.5387 520.24 90.264C520.4 90.9787 520.613 91.6187 520.88 92.184C521.147 92.7387 521.445 93.1813 521.776 93.512C522.117 93.832 522.475 93.992 522.848 93.992C523.221 93.992 523.579 93.8107 523.92 93.448C524.261 93.0853 524.581 92.552 524.88 91.848C525.179 91.1333 525.445 90.2693 525.68 89.256L526.864 89.704C526.416 91.5173 525.851 92.8987 525.168 93.848C524.485 94.7973 523.707 95.272 522.832 95.272ZM531.056 93.352C530.96 92.2 530.773 91.0747 530.496 89.976C530.229 88.8667 529.888 87.8213 529.472 86.84C529.067 85.8587 528.597 84.9787 528.064 84.2L529.168 83.752C529.733 84.5413 530.229 85.4373 530.656 86.44C531.083 87.4427 531.435 88.5093 531.712 89.64C531.989 90.7707 532.181 91.9387 532.288 93.144L531.056 93.352ZM544.688 92.472C544.272 91.6187 543.904 90.7813 543.584 89.96C543.275 89.1387 543.008 88.3067 542.784 87.464C542.571 86.6213 542.395 85.752 542.256 84.856C542.117 83.96 542.016 83.016 541.952 82.024L543.168 81.944C543.232 82.9147 543.328 83.832 543.456 84.696C543.595 85.56 543.771 86.4027 543.984 87.224C544.208 88.0347 544.475 88.8453 544.784 89.656C545.104 90.4667 545.477 91.304 545.904 92.168L544.688 92.472ZM542.784 95.688C541.515 95.688 540.411 95.5653 539.472 95.32C538.533 95.0853 537.808 94.7493 537.296 94.312C536.795 93.8747 536.539 93.352 536.528 92.744C536.528 92.1893 536.736 91.6667 537.152 91.176C537.568 90.6853 538.149 90.28 538.896 89.96L539.568 90.856C538.981 91.112 538.544 91.3947 538.256 91.704C537.968 92.0027 537.829 92.328 537.84 92.68C537.851 93.0747 538.048 93.416 538.432 93.704C538.827 93.992 539.387 94.216 540.112 94.376C540.837 94.5253 541.701 94.6 542.704 94.6C543.504 94.6 544.325 94.552 545.168 94.456C546.021 94.36 546.8 94.2267 547.504 94.056L547.696 95.144C546.971 95.3147 546.176 95.448 545.312 95.544C544.459 95.64 543.616 95.688 542.784 95.688ZM536.096 84.504C537.163 84.4827 538.165 84.4507 539.104 84.408C540.053 84.3653 540.981 84.312 541.888 84.248C542.795 84.1733 543.723 84.0827 544.672 83.976C545.632 83.8693 546.651 83.7467 547.728 83.608L547.808 84.632C546.72 84.7813 545.696 84.9093 544.736 85.016C543.787 85.1227 542.853 85.2133 541.936 85.288C541.019 85.352 540.085 85.4053 539.136 85.448C538.187 85.48 537.173 85.5067 536.096 85.528V84.504ZM535.744 88.088C536.864 88.0667 537.925 88.0347 538.928 87.992C539.931 87.9493 540.917 87.8907 541.888 87.816C542.869 87.7413 543.872 87.6507 544.896 87.544C545.92 87.4267 547.019 87.288 548.192 87.128L548.272 88.168C547.099 88.328 545.995 88.4667 544.96 88.584C543.925 88.6907 542.917 88.7813 541.936 88.856C540.955 88.9307 539.957 88.9893 538.944 89.032C537.941 89.0747 536.875 89.1067 535.744 89.128V88.088ZM556.56 95.688C555.376 95.688 554.464 95.4587 553.824 95C553.184 94.5413 552.864 93.8853 552.864 93.032C552.864 92.1467 553.179 91.4853 553.808 91.048C554.448 90.6 555.365 90.376 556.56 90.376C557.232 90.376 557.893 90.456 558.544 90.616C559.195 90.7653 559.856 91.0053 560.528 91.336C561.211 91.6667 561.92 92.0933 562.656 92.616C563.392 93.128 564.176 93.752 565.008 94.488L564.224 95.304C563.413 94.6 562.661 94.0027 561.968 93.512C561.285 93.0107 560.64 92.6053 560.032 92.296C559.424 91.9867 558.832 91.7627 558.256 91.624C557.691 91.4747 557.125 91.4 556.56 91.4C554.907 91.4 554.08 91.9387 554.08 93.016C554.08 94.0933 554.901 94.632 556.544 94.632C557.493 94.632 558.176 94.4347 558.592 94.04C559.019 93.6453 559.232 93.0213 559.232 92.168V82.088H560.4V92.168C560.4 93.3733 560.085 94.264 559.456 94.84C558.837 95.4053 557.872 95.688 556.56 95.688ZM557.424 85.128C556.912 85.128 556.373 85.1227 555.808 85.112C555.243 85.0907 554.693 85.0693 554.16 85.048C553.627 85.0267 553.147 85 552.72 84.968L552.768 83.896C553.184 83.928 553.653 83.96 554.176 83.992C554.699 84.0133 555.243 84.0293 555.808 84.04C556.373 84.0507 556.917 84.056 557.44 84.056C558.592 84.056 559.771 84.0187 560.976 83.944C562.192 83.8693 563.552 83.7467 565.056 83.576L565.088 84.648C563.595 84.8187 562.24 84.9413 561.024 85.016C559.808 85.0907 558.608 85.128 557.424 85.128ZM557.536 88.472C557.056 88.472 556.555 88.4667 556.032 88.456C555.52 88.4347 555.019 88.4133 554.528 88.392C554.037 88.3707 553.595 88.344 553.2 88.312L553.248 87.256C553.632 87.288 554.064 87.3147 554.544 87.336C555.035 87.3573 555.536 87.3787 556.048 87.4C556.571 87.4107 557.067 87.416 557.536 87.416C558.603 87.416 559.691 87.3787 560.8 87.304C561.92 87.2293 563.179 87.1067 564.576 86.936L564.608 87.992C563.232 88.1627 561.979 88.2853 560.848 88.36C559.728 88.4347 558.624 88.472 557.536 88.472ZM574.688 95.752C573.653 95.752 572.816 95.56 572.176 95.176C571.536 94.8027 571.072 94.2053 570.784 93.384C570.496 92.5627 570.352 91.4853 570.352 90.152V82.68H571.6V90.152C571.6 91.2293 571.701 92.0933 571.904 92.744C572.117 93.3947 572.453 93.864 572.912 94.152C573.381 94.4293 574 94.568 574.768 94.568C576.187 94.568 577.451 94.1467 578.56 93.304C579.669 92.4613 580.608 91.2133 581.376 89.56L582.416 90.088C581.563 91.9547 580.485 93.368 579.184 94.328C577.893 95.2773 576.395 95.752 574.688 95.752ZM589.76 95.688C588.779 95.688 588.032 95.4853 587.52 95.08C587.019 94.6747 586.768 94.0827 586.768 93.304C586.768 92.536 587.024 91.9493 587.536 91.544C588.048 91.1387 588.789 90.936 589.76 90.936C590.475 90.936 591.211 91.0533 591.968 91.288C592.725 91.512 593.552 91.88 594.448 92.392C595.355 92.8933 596.384 93.56 597.536 94.392L596.816 95.176C595.771 94.4187 594.832 93.8107 594 93.352C593.179 92.8827 592.421 92.5413 591.728 92.328C591.045 92.1147 590.389 92.008 589.76 92.008C589.12 92.008 588.651 92.1147 588.352 92.328C588.064 92.5413 587.92 92.8667 587.92 93.304C587.92 93.7413 588.069 94.072 588.368 94.296C588.667 94.5093 589.115 94.616 589.712 94.616C590.427 94.616 590.944 94.4613 591.264 94.152C591.584 93.8427 591.744 93.3573 591.744 92.696V91.752V84.84H592.928V92.872C592.928 93.8107 592.661 94.5147 592.128 94.984C591.605 95.4533 590.816 95.688 589.76 95.688ZM592.288 87.208C593.024 87.208 593.835 87.1653 594.72 87.08C595.605 86.9947 596.539 86.8667 597.52 86.696L597.664 87.768C596.683 87.9387 595.733 88.0667 594.816 88.152C593.909 88.2373 593.083 88.28 592.336 88.28L592.288 87.208ZM605.328 94.552C607.195 94.488 608.763 94.2907 610.032 93.96C611.312 93.6187 612.277 93.1493 612.928 92.552C613.589 91.9547 613.92 91.24 613.92 90.408C613.92 89.6293 613.632 89.0427 613.056 88.648C612.48 88.2533 611.611 88.056 610.448 88.056C610.053 88.056 609.627 88.0827 609.168 88.136C608.709 88.1787 608.192 88.2587 607.616 88.376C607.04 88.4827 606.389 88.6267 605.664 88.808C604.949 88.9787 604.139 89.192 603.232 89.448L602.88 88.28C603.861 88.024 604.731 87.8107 605.488 87.64C606.245 87.4693 606.923 87.3307 607.52 87.224C608.117 87.1173 608.656 87.0427 609.136 87C609.616 86.9467 610.069 86.92 610.496 86.92C612.064 86.92 613.243 87.208 614.032 87.784C614.821 88.3493 615.216 89.1973 615.216 90.328C615.216 91.4267 614.843 92.3707 614.096 93.16C613.349 93.9493 612.256 94.5627 610.816 95C609.387 95.4267 607.643 95.6667 605.584 95.72L605.328 94.552ZM612.848 85C612.123 84.936 611.317 84.8453 610.432 84.728C609.547 84.6 608.64 84.456 607.712 84.296C606.784 84.1253 605.893 83.944 605.04 83.752L605.296 82.584C606.064 82.7653 606.896 82.9413 607.792 83.112C608.688 83.272 609.579 83.416 610.464 83.544C611.36 83.6613 612.192 83.752 612.96 83.816L612.848 85ZM621.52 96.28C621.008 96.28 620.56 96.1733 620.176 95.96C619.792 95.7467 619.493 95.448 619.28 95.064C619.067 94.68 618.96 94.232 618.96 93.72C618.96 93.208 619.067 92.76 619.28 92.376C619.493 91.992 619.792 91.6933 620.176 91.48C620.56 91.2667 621.008 91.16 621.52 91.16C622.032 91.16 622.48 91.2667 622.864 91.48C623.248 91.6933 623.547 91.992 623.76 92.376C623.973 92.76 624.08 93.208 624.08 93.72C624.08 94.232 623.973 94.68 623.76 95.064C623.547 95.448 623.248 95.7467 622.864 95.96C622.48 96.1733 622.032 96.28 621.52 96.28ZM621.52 95.24C621.979 95.24 622.347 95.1013 622.624 94.824C622.901 94.5467 623.04 94.1787 623.04 93.72C623.04 93.2613 622.901 92.8933 622.624 92.616C622.347 92.3387 621.979 92.2 621.52 92.2C621.061 92.2 620.693 92.3387 620.416 92.616C620.139 92.8933 620 93.2613 620 93.72C620 94.1787 620.139 94.5467 620.416 94.824C620.693 95.1013 621.061 95.24 621.52 95.24Z" fill="#6D574B"/>
</g>
<path d="M95.8164 65.8516C94.2164 63.8516 88.8164 58.6849 86.3164 56.3516C98.7164 45.9516 92.1497 33.3516 87.3164 28.3516C89.483 23.8515 90.7164 12.8514 78.3164 4.85158C65.9164 -3.14823 54.1497 0.518327 49.8164 3.35158C44.6497 1.35158 30.0807 -2.4717 18.3164 6.35156C4.31638 16.8516 4.14971 26.3516 4.81638 32.8516C1.81638 35.6849 -3.18362 44.1516 2.81638 59.3516C8.81638 74.5516 23.6497 76.3516 30.3164 75.3516C35.1164 82.9516 43.3164 80.5182 46.8164 78.3516C64.8164 82.3516 76.3164 71.6849 79.8164 65.8516C83.6497 66.8516 91.8164 68.9516 93.8164 69.3516C96.3164 69.8516 97.8164 68.3516 95.8164 65.8516Z" fill="#9070F7"/>
<path d="M64.5268 58.9602C65.1214 57.3867 65.034 55.7482 64.2649 54.0447C63.5656 52.4961 62.3169 51.3821 60.5186 50.7026C58.9451 50.108 57.384 50.1604 55.8354 50.8596C54.2868 51.5589 53.1727 52.8076 52.4933 54.6059C51.8987 56.1794 51.986 57.8179 52.7552 59.5214C53.4544 61.07 54.7032 62.184 56.5015 62.8635C58.075 63.4581 59.636 63.4057 61.1847 62.7065C62.7333 62.0072 63.8473 60.7584 64.5268 58.9602ZM58.166 46.7311L38.0792 15.2515L26.9441 22.7963C29.8462 26.3332 33.505 30.9266 37.9205 36.5767C40.9624 40.4233 44.8584 45.7486 49.6086 52.5526L58.166 46.7311Z" fill="white"/>
<defs>
<filter id="filter0_d_801_2666" x="74" y="15" width="590" height="118" filterUnits="userSpaceOnUse" color-interpolation-filters="sRGB">
<feFlood flood-opacity="0" result="BackgroundImageFix"/>
<feColorMatrix in="SourceAlpha" type="matrix" values="0 0 0 0 0 0 0 0 0 0 0 0 0 0 0 0 0 0 127 0" result="hardAlpha"/>
<feOffset dy="4"/>
<feComposite in2="hardAlpha" operator="out"/>
<feColorMatrix type="matrix" values="0 0 0 0 0 0 0 0 0 0 0 0 0 0 0 0 0 0 0.1 0"/>
<feBlend mode="normal" in2="BackgroundImageFix" result="effect1_dropShadow_801_2666"/>
<feBlend mode="normal" in="SourceGraphic" in2="effect1_dropShadow_801_2666" result="shape"/>
</filter>
</defs>
</svg>
