<svg width="402" height="47" viewBox="0 0 402 47" fill="none" xmlns="http://www.w3.org/2000/svg">
<path d="M26.375 33.125L25.8125 14.1875C21.3125 14.3125 17.375 14.5 14 14.75C10.875 15 6.375 15.5 0.5 16.25L1.0625 7.25L15.6875 6.3125C19.6875 6.0625 23.125 6.0625 26 6.3125C32 6.8125 35 10.9375 35 18.6875L35.1875 41.1875C28.0625 41.1875 22 41.25 17 41.375C13.875 41.5 8.25 41.9375 0.125 42.6875L0.3125 33.5L26.375 33.125ZM44.7125 2.375L60.4625 10.625L55.2125 18.6875L39.65 9.3125L44.7125 2.375ZM76.4 17L80.525 24.5L47.525 45.6875L41.7125 37.8125L76.4 17ZM85.925 3.125H94.175L93.8 21.6875L96.6125 16.25L117.988 25.25L114.613 32.9375C111.113 31.0625 107.738 29.375 104.488 27.875C100.613 26.25 97.05 24.8125 93.8 23.5625V44.5625L84.9875 44.375L85.925 3.125ZM107.488 5.1875L111.613 13.25L107.3 14.9375L103.363 6.6875L107.488 5.1875ZM113.3 3.5L117.425 11.5625L113.113 13.4375L109.175 4.8125L113.3 3.5ZM121.887 20.375L162.012 19.8125L161.825 26C152.7 26.25 144.512 26.5625 137.262 26.9375C134.637 27.1875 129.512 27.75 121.887 28.625V20.375ZM188.975 6.125C186.6 11 184.35 15.8125 182.225 20.5625C180.1 25.9375 178.225 30.9375 176.6 35.5625H181.1L198.163 34.4375L191.788 19.0625L200.413 16.0625C202.413 20.3125 204.413 24.5 206.413 28.625C207.788 31.625 208.6 34.125 208.85 36.125C209.1 38.375 208.288 40.125 206.413 41.375C204.663 42.5 202.35 43.125 199.475 43.25L185.225 44C178.475 44.375 174.038 44.3125 171.913 43.8125C169.413 43.3125 167.85 41.9375 167.225 39.6875C166.725 38.0625 166.725 36.375 167.225 34.625C167.85 32.125 168.663 29.75 169.663 27.5C171.788 22.625 173.913 18 176.038 13.625L181.1 2.75L188.975 6.125Z" fill="#FCFF61"/>
<path d="M238.812 38.5625C241.938 36.4375 244 34.4375 245 32.5625C246.375 30.3125 247.062 27.5 247.062 24.125C247.062 20.625 246.312 17.875 244.812 15.875C243.312 13.875 241.438 12.5 239.188 11.75C236.812 11 234.375 10.9375 231.875 11.5625C228 12.6875 225.062 14.9375 223.062 18.3125C221.438 21.0625 220.75 23.875 221 26.75C221.125 28 221.438 29.0625 221.938 29.9375C222.688 31.1875 223.562 31.625 224.562 31.25C225.438 31 226.688 30.1875 228.312 28.8125C229.562 27.8125 230.5 27 231.125 26.375C233.375 24.25 235.812 21.5625 238.438 18.3125L243.875 23.1875C240.875 27.1875 238.312 30.25 236.188 32.375C233.062 35.5 229.875 37.875 226.625 39.5C224.625 40.5 222.688 40.8125 220.812 40.4375C218.688 40.0625 217.062 38.9375 215.938 37.0625C214.562 34.9375 213.812 32 213.688 28.25C213.562 25 213.938 22 214.812 19.25C216.188 14.75 218.625 11.1875 222.125 8.5625C226.125 5.5625 230.5 4.0625 235.25 4.0625C241.25 4.0625 246.125 6.1875 249.875 10.4375C252 12.8125 253.438 15.75 254.188 19.25C254.938 22.75 255 26.125 254.375 29.375C253.875 31.875 253.062 34.25 251.938 36.5C250.812 38.75 248.75 41.3125 245.75 44.1875L238.812 38.5625ZM269.525 0.875L275.712 3.125L272.9 8.75L271.962 24.5L271.4 46.4375L263.712 46.25L265.212 24.5L262.587 29.375H262.4L259.4 21.5L269.525 0.875ZM276.837 32L275.15 32.1875L276.087 15.5L286.025 14.5625L286.587 11.75L274.962 12.6875L275.337 6.6875L287.525 6.5L288.462 0.875L295.587 1.25L294.837 6.3125H305.15L305.337 11.75L293.712 11.5625L293.15 14.375C294.65 14.25 295.962 14.1875 297.087 14.1875C298.587 14.1875 299.837 14.4375 300.837 14.9375C301.962 15.4375 302.775 16.5625 303.275 18.3125C303.775 20.3125 304.025 24.5 304.025 30.875L290.525 30.6875L289.775 35.375L305.337 40.0625L301.587 46.4375L289.025 42.125L288.087 46.8125L280.775 44.9375L281.525 39.875L272.9 37.25L276.837 32ZM282.65 33.3125L283.025 31.25L277.587 32L282.65 33.3125ZM283.962 25.8125L285.087 19.625L282.275 19.8125L281.712 25.8125H283.962ZM296.337 25.8125V19.25H292.4L291.087 25.8125H296.337ZM322.362 5.5625C320.362 10.6875 319.05 14.75 318.425 17.75C317.8 20.5 317.612 25 317.862 31.25L322.737 23L329.112 27.125L323.675 37.4375C322.55 39.5625 321.675 41 321.05 41.75C320.05 43 318.862 43.75 317.487 44C314.737 44.375 312.737 42.6875 311.487 38.9375C310.737 36.5625 310.3 33.4375 310.175 29.5625C310.05 24.9375 310.362 20.5 311.112 16.25C311.737 13 313.05 8.5 315.05 2.75L322.362 5.5625ZM346.362 3.875C347.862 9.5 348.925 14.3125 349.55 18.3125C350.3 22.8125 350.862 28.9375 351.237 36.6875L342.987 36.875C342.737 29.375 342.362 23.875 341.862 20.375C341.362 17.25 340.237 12.3125 338.487 5.5625L346.362 3.875ZM356.638 6.5L374.825 6.3125L375.013 1.0625L383.825 1.25L383.45 6.3125L401.825 6.5L401.45 13.25L378.2 12.875L376.888 16.8125H385.513C387.263 16.9375 388.7 17.0625 389.825 17.1875C390.95 17.4375 391.825 17.875 392.45 18.5C393.95 20 394.7 22.5625 394.7 26.1875V40.0625C394.7 41.0625 394.263 42.375 393.388 44C392.763 45.125 391.2 45.875 388.7 46.25C386.825 46.5 384.263 46.5625 381.013 46.4375L378.013 38.375L386.263 38.1875L385.7 23.75L374.825 24.3125L368.638 46.25L360.013 44L367.513 19.4375L369.2 13.625C364.825 14 360.45 14.4375 356.075 14.9375L356.638 6.5Z" fill="white"/>
</svg>
