<svg width="198" height="48" viewBox="0 0 198 48" fill="none" xmlns="http://www.w3.org/2000/svg">
<path d="M23.1875 0.875L23 5.1875H17.375V6.6875C19.625 6.5625 21 6.875 21.5 7.625C22.125 8.375 22.375 9.6875 22.25 11.5625C22.25 12.6875 22.125 14.0625 21.875 15.6875L16.625 16.0625V17.5625L22.8125 17V21.5L20.9375 21.6875L23.5625 22.8125V23.1875L19.25 26.9375V27.125L20 27.6875L25.8125 22.8125L31.8125 25.625L26.1875 31.0625L34.0625 30.875L31.25 27.125L37.0625 24.125C40.0625 27 41.9375 29 42.6875 30.125C43.6875 31.625 44.6875 33.125 45.6875 34.625L40.0625 38.75L37.625 35.375L26.75 35.9375V46.0625L18.3125 46.25L18.875 36.6875L12.875 37.0625C14.75 38.1875 15.8125 39.5 16.0625 41C16.1875 42 16 42.9375 15.5 43.8125C14.875 44.9375 13.9375 45.6875 12.6875 46.0625C10.0625 46.8125 8.0625 46.125 6.6875 44C5.9375 42.75 5.75 41.5625 6.125 40.4375C6.375 39.5625 7.125 38.625 8.375 37.625L2.1875 38.375L2.375 31.8125L12.3125 31.4375C11.3125 30.8125 10.625 30.25 10.25 29.75C9.625 29 9.4375 28.1875 9.6875 27.3125C9.9375 26.3125 11.5625 24.5625 14.5625 22.0625L0.3125 24.3125V24.125L0.6875 8.75C0.8125 7.75 0.875 6.4375 0.875 4.8125C0.875 2.8125 1 1.75 1.25 1.625L6.875 1.4375L21.125 0.875H23.1875ZM9.5 18.5V16.8125L7.0625 17.1875V18.875L9.5 18.5ZM14.75 12.5V10.625L7.25 11.1875L7.0625 13.25L14.75 12.5ZM10.0625 7.0625L10.25 5.5625L7.625 5.75L7.4375 7.4375L10.0625 7.0625ZM27.3125 8.375L32.375 10.625L36.3125 6.875L23.9375 8.5625L24.125 2.5625C29.375 1.8125 34.25 1.3125 38.75 1.0625C42.375 0.9375 44.5 1.8125 45.125 3.6875C45.625 5.1875 45.1875 6.9375 43.8125 8.9375C42.8125 10.3125 41.3125 11.9375 39.3125 13.8125V14L45.875 17.375C45.375 18.375 44.875 19.375 44.375 20.375C44.125 21 43.5 22 42.5 23.375L34.8125 18.5L30.3125 22.8125L23.75 18.875L28.0625 14.75L23.75 12.5L27.3125 8.375ZM30.5 44.9375C29.5 44.0625 28.9375 42.9375 28.8125 41.5625C28.8125 40.0625 29.375 38.8125 30.5 37.8125C31.875 36.6875 33.375 36.25 35 36.5C37.625 37 38.9375 38.5625 38.9375 41.1875C38.9375 42.5625 38.4375 43.75 37.4375 44.75C36.5625 45.75 35.4375 46.25 34.0625 46.25C32.6875 46.375 31.5 45.9375 30.5 44.9375ZM57.0875 32.1875L63.4625 35.75L57.4625 46.625L50.7125 42.5L57.0875 32.1875ZM50.525 12.125L65.525 1.0625L71.15 2.5625L76.775 1.25C79.9 0.5 82.15 0.6875 83.525 1.8125C84.9 2.9375 85.3375 4.4375 84.8375 6.3125C84.7125 7.0625 84.4 7.8125 83.9 8.5625C83.4 9.3125 82.9625 10.0625 82.5875 10.8125C85.8375 10.6875 88.025 11.4375 89.15 13.0625C90.025 14.3125 90.525 16.0625 90.65 18.3125L91.025 28.0625L90.275 28.625L79.2125 29C81.0875 30 82.15 31.25 82.4 32.75C82.65 34.375 82.025 35.5625 80.525 36.3125C79.275 36.9375 77.9625 37 76.5875 36.5C74.8375 35.875 73.9 34.625 73.775 32.75C73.65 31.375 74.275 30.1875 75.65 29.1875L56.15 32V26.5625L82.025 23.5625V22.0625L63.0875 23.9375L56.9 24.875V19.8125L82.025 17.9375V16.0625L63.4625 17.5625L56.3375 18.3125L56.525 15.875L50.525 12.3125V12.125ZM72.4625 11.375L74.7125 7.8125L67.9625 8L63.0875 12.125L72.4625 11.375ZM73.2125 31.8125L72.8375 40.4375L79.2125 40.25L79.4 37.0625L87.0875 37.4375C87.0875 35.5625 87.65 34.3125 88.775 33.6875C89.9 32.9375 91.0875 32.75 92.3375 33.125C93.7125 33.5 94.775 34.25 95.525 35.375C96.4 36.75 96.5875 38.125 96.0875 39.5C95.7125 40.625 94.9 41.4375 93.65 41.9375C92.4 42.4375 91.15 42.375 89.9 41.75C89.025 41.375 88.15 40.5 87.275 39.125C87.15 41.375 87.025 42.875 86.9 43.625C86.65 44.75 86.0875 45.5 85.2125 45.875C84.2125 46.375 81.9625 46.625 78.4625 46.625C77.2125 46.625 74.775 46.5625 71.15 46.4375C67.9 46.3125 65.9625 45.3125 65.3375 43.4375C65.0875 42.6875 65.025 41.375 65.15 39.5C65.15 38.875 65.2125 36.5 65.3375 32.375L73.2125 31.8125ZM110.863 26.9375C110.613 29.8125 110.3 32.9375 109.925 36.3125C112.675 37.4375 114.613 38.1875 115.738 38.5625C117.738 39.1875 120.05 39.5625 122.675 39.6875C127.05 39.9375 130.175 40 132.05 39.875L146.675 39.125L145.738 46.4375L145.363 46.625H120.8C119.05 46.625 117.113 46.25 114.988 45.5C113.113 44.875 111.113 44.125 108.988 43.25L108.425 46.8125L100.925 44.375C101.55 41.25 102.175 38.125 102.8 35C103.3 32.625 103.738 29.375 104.113 25.25L100.55 25.625L100.925 18.6875C104.05 18.4375 106.175 18.3125 107.3 18.3125C109.3 18.4375 110.488 19.25 110.863 20.75C111.113 22 111.113 24.0625 110.863 26.9375ZM105.238 2.75L112.925 8.9375L107.863 12.875L107.3 12.5L103.55 8.9375L101.3 7.4375L105.238 2.75ZM131.488 15.875V11.375L129.8 11.5625L129.613 11.375L129.988 6.125L135.425 5.9375V1.0625H141.425V5.9375L146.675 5.75L146.488 10.4375L146.3 10.625H144.8L143.488 15.875H146.863L146.675 20.75L141.613 20.9375L141.425 23.5625H146.488V28.4375H141.425V37.625L134.863 37.8125L134.675 28.8125L129.8 29.1875V35.75L128.488 35.9375L119.675 36.5L117.425 36.3125V32L116.863 37.0625L110.675 35.1875L113.675 2C116.175 1.875 118.3 1.75 120.05 1.625C122.675 1.375 124.613 1.5625 125.863 2.1875C127.988 3.1875 129.05 4.625 129.05 6.5L129.238 16.0625L131.488 15.875ZM127.925 21.125C128.55 21.625 129.113 22.4375 129.613 23.5625L134.863 23.75L135.05 21.5L129.05 22.0625L129.238 16.8125L128.863 17L121.363 17.375L118.55 17.75L118.363 20.375C119.613 20.375 120.863 20.375 122.113 20.375C123.113 20.375 124.175 20.375 125.3 20.375C126.425 20.375 127.3 20.625 127.925 21.125ZM123.425 12.125V7.0625L119.3 7.625L118.925 12.125H123.425ZM122.488 30.875L124.363 30.6875L124.55 25.4375L122.675 25.625L122.488 30.875ZM138.238 15.875L139.175 10.8125L136.738 11L136.363 15.875H138.238ZM151.325 9.5L154.887 9.3125L156.575 0.875L163.137 2L161.825 9.125H171.012L171.2 14.375H168.762L166.512 32.1875L170.45 33.3125L169.325 39.875L165.762 38.75L164.637 46.625L157.325 45.125L158.825 36.3125C156.2 35.5625 154.387 34.75 153.387 33.875C152.137 32.875 151.637 31.5 151.887 29.75L153.762 15.5L151.137 15.875L151.325 9.5ZM160.325 30.125L162.575 14.75L160.887 14.9375L158.637 29.5625L160.325 30.125ZM192.387 0.6875L196.7 5.375L187.137 6.875L186.762 18.6875L196.887 18.875L197.075 24.875L186.762 25.0625L186.95 39.125H195.012L195.2 44.75L171.95 46.4375V39.3125L179.262 39.125L179.825 25.4375L168.95 26.9375L169.137 18.875L179.637 18.6875L180.012 8.1875L171.762 9.6875L167.262 3.6875L192.387 0.6875Z" fill="white"/>
</svg>
