<svg width="148" height="107" viewBox="0 0 148 107" fill="none" xmlns="http://www.w3.org/2000/svg">
<path d="M131.733 45.4773C129.188 45.4773 126.92 45.0398 124.932 44.1648C122.955 43.2784 121.392 42.0625 120.244 40.517C119.108 38.9602 118.523 37.1648 118.489 35.1307H125.92C125.966 35.983 126.244 36.733 126.756 37.3807C127.278 38.017 127.972 38.5114 128.835 38.8636C129.699 39.2159 130.67 39.392 131.75 39.392C132.875 39.392 133.869 39.1932 134.733 38.7955C135.597 38.3977 136.273 37.8466 136.761 37.142C137.25 36.4375 137.494 35.625 137.494 34.7045C137.494 33.7727 137.233 32.9489 136.71 32.233C136.199 31.5057 135.46 30.9375 134.494 30.5284C133.54 30.1193 132.403 29.9148 131.085 29.9148H127.83V24.4943H131.085C132.199 24.4943 133.182 24.3011 134.034 23.9148C134.898 23.5284 135.568 22.9943 136.045 22.3125C136.523 21.6193 136.761 20.8125 136.761 19.892C136.761 19.017 136.551 18.25 136.131 17.5909C135.722 16.9205 135.142 16.3977 134.392 16.0227C133.653 15.6477 132.79 15.4602 131.801 15.4602C130.801 15.4602 129.886 15.642 129.057 16.0057C128.227 16.358 127.562 16.8636 127.062 17.5227C126.562 18.1818 126.295 18.9545 126.261 19.8409H119.188C119.222 17.8295 119.795 16.0568 120.909 14.5227C122.023 12.9886 123.523 11.7898 125.409 10.9261C127.307 10.0511 129.449 9.61364 131.835 9.61364C134.244 9.61364 136.352 10.0511 138.159 10.9261C139.966 11.8011 141.369 12.983 142.369 14.4716C143.381 15.9489 143.881 17.608 143.869 19.4489C143.881 21.4034 143.273 23.0341 142.045 24.3409C140.83 25.6477 139.244 26.4773 137.29 26.8295V27.1023C139.858 27.4318 141.813 28.3239 143.153 29.7784C144.506 31.2216 145.176 33.0284 145.165 35.1989C145.176 37.1875 144.602 38.9545 143.443 40.5C142.295 42.0455 140.71 43.2614 138.688 44.1477C136.665 45.0341 134.347 45.4773 131.733 45.4773Z" fill="#99E3C1"/>
<path d="M131 58L131 106" stroke="#44AE7D" stroke-linecap="round" stroke-linejoin="round" stroke-dasharray="1 5"/>
<path d="M19.992 24.752L18.048 23.288C17.544 23.456 16.608 23.576 15.552 23.576C14.496 23.576 8.352 23.576 7.08 23.576C6.384 23.576 4.896 23.504 4.248 23.408V26.84C4.776 26.792 6.096 26.672 7.08 26.672C8.112 26.672 14.232 26.672 15.24 26.672C14.688 28.376 13.224 30.752 11.64 32.552C9.384 35.048 5.688 37.976 1.8 39.416L4.296 42.008C8.016 40.256 11.64 37.28 14.328 34.184C16.392 31.784 18.168 28.52 19.152 26.24C19.368 25.736 19.8 25.016 19.992 24.752ZM14.64 32.192L12.384 34.424C14.952 36.752 17.568 39.608 19.344 42.08L22.08 39.704C20.52 37.784 17.112 34.208 14.64 32.192ZM30.024 22.616V25.712C30.744 25.664 31.776 25.616 32.592 25.616C34.104 25.616 40.824 25.616 42.24 25.616C43.056 25.616 43.992 25.664 44.808 25.712V22.616C43.992 22.712 43.032 22.784 42.24 22.784C40.824 22.784 34.104 22.784 32.592 22.784C31.776 22.784 30.792 22.712 30.024 22.616ZM27.216 28.736V31.88C27.888 31.832 28.824 31.808 29.52 31.808C31.032 31.808 43.824 31.808 45.24 31.808C45.912 31.808 46.824 31.832 47.448 31.856V28.736C46.8 28.856 45.744 28.88 45.24 28.88C43.824 28.88 31.032 28.88 29.52 28.88C28.776 28.88 27.936 28.832 27.216 28.736ZM39.504 30.416L36.168 30.44C36.168 33.008 35.832 35.264 34.632 37.088C33.696 38.504 31.992 39.872 30.288 40.544L33.12 42.584C35.232 41.48 37.104 39.632 37.92 37.952C38.952 35.96 39.504 33.56 39.504 30.416ZM52.584 29.888V33.68C53.496 33.608 55.104 33.536 56.448 33.536C59.28 33.536 67.176 33.536 69.36 33.536C70.368 33.536 71.592 33.656 72.168 33.68V29.888C71.52 29.936 70.464 30.056 69.336 30.056C67.2 30.056 59.28 30.056 56.448 30.056C55.2 30.056 53.472 29.96 52.584 29.888ZM92.6272 22.592L90.6112 23.408C91.4992 24.656 92.0272 25.688 92.7472 27.2L94.8112 26.288C94.2832 25.184 93.2992 23.6 92.6272 22.592ZM95.9392 21.416L93.8993 22.28C94.7873 23.48 95.3632 24.416 96.1312 25.928L98.1952 25.016C97.6192 23.96 96.6832 22.376 95.9392 21.416ZM82.2112 22.112L80.4592 24.752C82.0432 25.64 84.5632 27.272 85.8832 28.208L87.6832 25.544C86.4352 24.68 83.7952 22.976 82.2112 22.112ZM77.7712 39.152L79.5712 42.32C81.6832 41.936 85.1392 40.736 87.5632 39.344C91.4992 37.088 94.8832 34.04 97.1153 30.728L95.2672 27.464C93.3472 30.896 90.0112 34.184 85.9312 36.464C83.3152 37.904 80.4352 38.696 77.7712 39.152ZM78.5152 27.584L76.7632 30.248C78.3952 31.088 80.8672 32.72 82.2352 33.656L83.9872 30.968C82.7632 30.104 80.1232 28.448 78.5152 27.584Z" fill="#99E3C1"/>
</svg>
