<svg width="149" height="55" viewBox="0 0 149 55" fill="none" xmlns="http://www.w3.org/2000/svg">
<path d="M19.992 27.752L18.048 26.288C17.544 26.456 16.608 26.576 15.552 26.576C14.496 26.576 8.352 26.576 7.08 26.576C6.384 26.576 4.896 26.504 4.248 26.408V29.84C4.776 29.792 6.096 29.672 7.08 29.672C8.112 29.672 14.232 29.672 15.24 29.672C14.688 31.376 13.224 33.752 11.64 35.552C9.384 38.048 5.688 40.976 1.8 42.416L4.296 45.008C8.016 43.256 11.64 40.28 14.328 37.184C16.392 34.784 18.168 31.52 19.152 29.24C19.368 28.736 19.8 28.016 19.992 27.752ZM14.64 35.192L12.384 37.424C14.952 39.752 17.568 42.608 19.344 45.08L22.08 42.704C20.52 40.784 17.112 37.208 14.64 35.192ZM30.024 25.616V28.712C30.744 28.664 31.776 28.616 32.592 28.616C34.104 28.616 40.824 28.616 42.24 28.616C43.056 28.616 43.992 28.664 44.808 28.712V25.616C43.992 25.712 43.032 25.784 42.24 25.784C40.824 25.784 34.104 25.784 32.592 25.784C31.776 25.784 30.792 25.712 30.024 25.616ZM27.216 31.736V34.88C27.888 34.832 28.824 34.808 29.52 34.808C31.032 34.808 43.824 34.808 45.24 34.808C45.912 34.808 46.824 34.832 47.448 34.856V31.736C46.8 31.856 45.744 31.88 45.24 31.88C43.824 31.88 31.032 31.88 29.52 31.88C28.776 31.88 27.936 31.832 27.216 31.736ZM39.504 33.416L36.168 33.44C36.168 36.008 35.832 38.264 34.632 40.088C33.696 41.504 31.992 42.872 30.288 43.544L33.12 45.584C35.232 44.48 37.104 42.632 37.92 40.952C38.952 38.96 39.504 36.56 39.504 33.416ZM52.584 32.888V36.68C53.496 36.608 55.104 36.536 56.448 36.536C59.28 36.536 67.176 36.536 69.36 36.536C70.368 36.536 71.592 36.656 72.168 36.68V32.888C71.52 32.936 70.464 33.056 69.336 33.056C67.2 33.056 59.28 33.056 56.448 33.056C55.2 33.056 53.472 32.96 52.584 32.888ZM92.6272 25.592L90.6112 26.408C91.4992 27.656 92.0272 28.688 92.7472 30.2L94.8112 29.288C94.2832 28.184 93.2992 26.6 92.6272 25.592ZM95.9392 24.416L93.8993 25.28C94.7873 26.48 95.3632 27.416 96.1312 28.928L98.1952 28.016C97.6192 26.96 96.6832 25.376 95.9392 24.416ZM82.2112 25.112L80.4592 27.752C82.0432 28.64 84.5632 30.272 85.8832 31.208L87.6832 28.544C86.4352 27.68 83.7952 25.976 82.2112 25.112ZM77.7712 42.152L79.5712 45.32C81.6832 44.936 85.1392 43.736 87.5632 42.344C91.4992 40.088 94.8832 37.04 97.1153 33.728L95.2672 30.464C93.3472 33.896 90.0112 37.184 85.9312 39.464C83.3152 40.904 80.4352 41.696 77.7712 42.152ZM78.5152 30.584L76.7632 33.248C78.3952 34.088 80.8672 35.72 82.2352 36.656L83.9872 33.968C82.7632 33.104 80.1232 31.448 78.5152 30.584Z" fill="#99E3C1"/>
<path d="M118.301 38.8636V33.0511L132.875 10.0909H137.886V18.1364H134.92L125.733 32.6761V32.9489H146.443V38.8636H118.301ZM135.057 45V37.0909L135.193 34.517V10.0909H142.114V45H135.057Z" fill="#99E3C1"/>
</svg>
