<svg width="106" height="23" viewBox="0 0 106 23" fill="none" xmlns="http://www.w3.org/2000/svg">
<path d="M8.34375 10.7188C10.0938 8.84375 11.5625 7.03125 12.75 5.28125L1.78125 6.875L1.40625 2.1875L9.65625 1.4375C10.8438 1.3125 11.9375 1.21875 12.9375 1.15625C14.25 1.09375 15.3125 1.21875 16.125 1.53125C17.5625 2.09375 18.2812 3 18.2812 4.25C18.2812 5 18.0625 5.78125 17.625 6.59375C17.3125 7.21875 16.7188 8.0625 15.8438 9.125L13.0312 12.5938L20.5312 18.6875L16.875 21.875L9.9375 16.0625L4.21875 21.9688L0.5625 18.9688L4.59375 14.75C5.96875 13.25 7.21875 11.9062 8.34375 10.7188ZM23.0438 7.71875L43.95 7.4375V10.7188L34.95 10.9062L37.2938 11.75L32.9813 22.0625L28.3875 20.5625L33.075 11.0938L22.95 12.2188L23.0438 7.71875ZM42.1688 1.0625V4.53125C38.8563 4.65625 35.8563 4.8125 33.1688 5C31.2313 5.125 28.45 5.375 24.825 5.75V1.625L42.1688 1.0625ZM46.3688 9.6875L66.4313 9.40625L66.3375 12.5C61.775 12.625 57.6813 12.7812 54.0563 12.9688C52.7438 13.0938 50.1813 13.375 46.3688 13.8125V9.6875ZM70.1625 6.21875L77.7562 8.65625L76.8187 12.3125L68.6625 10.5312L70.1625 6.21875ZM87.4125 7.25L89.5687 10.625L72.6937 21.875L70.2562 18.0312L87.4125 7.25ZM73.2562 0.5L80.0062 3.6875L78.1312 6.96875L71.1 4.0625L73.2562 0.5ZM85.1625 1.4375L85.2562 1.53125L86.5687 5.75L84.0375 6.3125L82.8187 1.8125L85.1625 1.4375ZM87.6937 0.875L89.5687 4.8125L87.0375 5.5625H86.9437L85.4437 1.34375L87.6937 0.875ZM97.5188 1.0625L101.925 0.5C103.675 0.25 104.738 0.6875 105.113 1.8125C105.3 2.3125 105.331 3.15625 105.206 4.34375C105.081 5.53125 104.863 7.125 104.55 9.125C104.113 12.4375 103.706 16.625 103.331 21.6875L97.5188 22.25L99.5813 6.59375L96.7688 7.25L97.5188 1.0625Z" fill="#44AE7D"/>
</svg>
