<svg width="110" height="23" viewBox="0 0 110 23" fill="none" xmlns="http://www.w3.org/2000/svg">
<path d="M8.34375 10.7188C10.0938 8.84375 11.5625 7.03125 12.75 5.28125L1.78125 6.875L1.40625 2.1875L9.65625 1.4375C10.8438 1.3125 11.9375 1.21875 12.9375 1.15625C14.25 1.09375 15.3125 1.21875 16.125 1.53125C17.5625 2.09375 18.2812 3 18.2812 4.25C18.2812 5 18.0625 5.78125 17.625 6.59375C17.3125 7.21875 16.7188 8.0625 15.8438 9.125L13.0312 12.5938L20.5312 18.6875L16.875 21.875L9.9375 16.0625L4.21875 21.9688L0.5625 18.9688L4.59375 14.75C5.96875 13.25 7.21875 11.9062 8.34375 10.7188ZM23.0438 7.71875L43.95 7.4375V10.7188L34.95 10.9062L37.2938 11.75L32.9813 22.0625L28.3875 20.5625L33.075 11.0938L22.95 12.2188L23.0438 7.71875ZM42.1688 1.0625V4.53125C38.8563 4.65625 35.8563 4.8125 33.1688 5C31.2313 5.125 28.45 5.375 24.825 5.75V1.625L42.1688 1.0625ZM46.3688 9.6875L66.4313 9.40625L66.3375 12.5C61.775 12.625 57.6813 12.7812 54.0563 12.9688C52.7438 13.0938 50.1813 13.375 46.3688 13.8125V9.6875ZM70.1625 6.21875L77.7562 8.65625L76.8187 12.3125L68.6625 10.5312L70.1625 6.21875ZM87.4125 7.25L89.5687 10.625L72.6937 21.875L70.2562 18.0312L87.4125 7.25ZM73.2562 0.5L80.0062 3.6875L78.1312 6.96875L71.1 4.0625L73.2562 0.5ZM85.1625 1.4375L85.2562 1.53125L86.5687 5.75L84.0375 6.3125L82.8187 1.8125L85.1625 1.4375ZM87.6937 0.875L89.5687 4.8125L87.0375 5.5625H86.9437L85.4437 1.34375L87.6937 0.875ZM93.5813 2C96.0188 1.375 97.9563 0.96875 99.3938 0.78125C101.706 0.46875 103.769 0.46875 105.581 0.78125C107.456 1.09375 108.55 2.0625 108.863 3.6875C109.05 4.5 108.925 5.46875 108.488 6.59375C108.113 7.59375 107.613 8.46875 106.988 9.21875L105.3 11.1875L100.613 17.0938C101.8 17.0312 102.831 16.9375 103.706 16.8125C104.581 16.6875 106.019 16.4062 108.019 15.9688L107.644 21.3125C101.706 22.0625 97.5188 22.375 95.0813 22.25C94.0188 22.1875 93.3 21.9062 92.925 21.4062C92.425 20.7812 92.3625 19.9688 92.7375 18.9688C92.9875 18.2812 93.425 17.5625 94.05 16.8125L97.05 13.25C98.2375 11.875 99.3938 10.5312 100.519 9.21875C100.956 8.71875 101.3 8.21875 101.55 7.71875C101.925 6.96875 101.988 6.4375 101.738 6.125C101.488 5.8125 101.05 5.6875 100.425 5.75C99.8 5.8125 98.8625 6.0625 97.6125 6.5C96.6125 6.875 95.2063 7.5 93.3938 8.375L93.5813 2Z" fill="#44AE7D"/>
</svg>
