<svg width="126" height="56" viewBox="0 0 126 56" fill="none" xmlns="http://www.w3.org/2000/svg">
<rect width="126" height="56" rx="28" fill="#F59494"/>
<path d="M32.184 22.016V29.024H35.768V25.344H56.472V29.024H60.248V22.016H32.184ZM36.824 27.808V31.328H53.688V27.808H36.824ZM56.472 12.64C50.584 13.792 40.952 14.56 32.472 14.848C32.824 15.68 33.272 17.152 33.336 18.112C41.848 17.856 51.832 17.152 59.064 15.744L56.472 12.64ZM35.288 18.72C35.96 19.936 36.696 21.536 36.952 22.592L40.472 21.536C40.184 20.48 39.384 18.944 38.648 17.792L35.288 18.72ZM43.736 18.048C44.344 19.392 44.888 21.184 45.016 22.304L48.6 21.44C48.44 20.288 47.8 18.56 47.128 17.28L43.736 18.048ZM53.912 17.216C53.368 18.88 52.344 21.152 51.48 22.688L54.616 23.616C55.576 22.24 56.856 20.16 57.976 18.176L53.912 17.216ZM52.28 27.808V28.416C49.4 35.232 41.304 38.144 31.448 39.136C32.216 39.936 33.304 41.632 33.688 42.592C43.768 41.152 52.536 37.6 56.344 29.216L53.752 27.68L53.08 27.808H52.28ZM40.6 30.4L37.24 31.776C41.72 37.92 48.856 41.28 58.488 42.528C58.968 41.44 60.024 39.776 60.824 38.912C51.512 38.048 44.184 35.264 40.6 30.4ZM68.952 12.96V42.784H72.376V12.96H68.952ZM64.888 23.488V27.072H75.448V23.488H64.888ZM68.92 25.408C68.12 28.576 66.232 33.024 64.376 35.392C64.952 36.48 65.816 38.208 66.136 39.392C68.216 36.32 70.072 30.72 71.064 26.464L68.92 25.408ZM72.44 27.328L70.68 28.8C71.672 30.432 73.528 34.016 74.232 35.904L76.664 32.96C76.056 32 73.272 28.192 72.44 27.328ZM64.856 15.456C65.624 17.728 66.232 20.768 66.328 22.72L68.984 22.08C68.824 20.096 68.216 17.12 67.352 14.816L64.856 15.456ZM73.752 14.656C73.432 16.896 72.728 20.032 72.12 22.016L74.392 22.656C75.128 20.8 76.024 17.792 76.792 15.296L73.752 14.656ZM77.176 15.168V17.92H93.848V15.168H77.176ZM77.944 19.168V21.76H93.176V19.168H77.944ZM76.28 23.136V25.92H94.68V23.136H76.28ZM83.384 12.864V24.704H87.032V12.864H83.384ZM77.944 27.232V42.912H81.528V29.952H90.104V27.232H77.944ZM89.24 27.232V39.392C89.24 39.744 89.112 39.872 88.696 39.872C88.312 39.872 86.968 39.872 85.784 39.808C86.2 40.672 86.616 41.952 86.776 42.88C88.824 42.88 90.328 42.848 91.416 42.368C92.536 41.856 92.824 41.024 92.824 39.424V27.232H89.24ZM79.96 31.488V33.984H90.488V31.488H79.96ZM79.96 35.52V38.016H90.488V35.52H79.96Z" fill="white"/>
</svg>
