<svg width="106" height="23" viewBox="0 0 106 23" fill="none" xmlns="http://www.w3.org/2000/svg">
<path d="M8.34375 10.7188C10.0938 8.84375 11.5625 7.03125 12.75 5.28125L1.78125 6.875L1.40625 2.1875L9.65625 1.4375C10.8438 1.3125 11.9375 1.21875 12.9375 1.15625C14.25 1.09375 15.3125 1.21875 16.125 1.53125C17.5625 2.09375 18.2812 3 18.2812 4.25C18.2812 5 18.0625 5.78125 17.625 6.59375C17.3125 7.21875 16.7188 8.0625 15.8438 9.125L13.0312 12.5938L20.5312 18.6875L16.875 21.875L9.9375 16.0625L4.21875 21.9688L0.5625 18.9688L4.59375 14.75C5.96875 13.25 7.21875 11.9062 8.34375 10.7188ZM23.0438 7.71875L43.95 7.4375V10.7188L34.95 10.9062L37.2938 11.75L32.9813 22.0625L28.3875 20.5625L33.075 11.0938L22.95 12.2188L23.0438 7.71875ZM42.1688 1.0625V4.53125C38.8563 4.65625 35.8563 4.8125 33.1688 5C31.2313 5.125 28.45 5.375 24.825 5.75V1.625L42.1688 1.0625ZM46.3688 9.6875L66.4313 9.40625L66.3375 12.5C61.775 12.625 57.6813 12.7812 54.0563 12.9688C52.7438 13.0938 50.1813 13.375 46.3688 13.8125V9.6875ZM70.1625 6.21875L77.7562 8.65625L76.8187 12.3125L68.6625 10.5312L70.1625 6.21875ZM87.4125 7.25L89.5687 10.625L72.6937 21.875L70.2562 18.0312L87.4125 7.25ZM73.2562 0.5L80.0062 3.6875L78.1312 6.96875L71.1 4.0625L73.2562 0.5ZM85.1625 1.4375L85.2562 1.53125L86.5687 5.75L84.0375 6.3125L82.8187 1.8125L85.1625 1.4375ZM87.6937 0.875L89.5687 4.8125L87.0375 5.5625H86.9437L85.4437 1.34375L87.6937 0.875ZM99.3 13.1562C98.9875 12.5312 98.0188 11.8125 96.3938 11C97.3313 10.3125 97.925 9.8125 98.175 9.5C98.8 8.75 99.0188 8 98.8313 7.25C98.7063 6.5625 98.3625 6.21875 97.8 6.21875C97.2375 6.21875 96.4875 6.375 95.55 6.6875C94.8 6.9375 94.1125 7.1875 93.4875 7.4375L93.9563 1.90625L98.3625 1.15625C101.3 0.65625 103.3 0.84375 104.363 1.71875C105.113 2.40625 105.456 3.46875 105.394 4.90625C105.331 5.96875 104.988 7 104.363 8C103.925 8.6875 103.269 9.5 102.394 10.4375C104.081 11.5625 105.081 12.9062 105.394 14.4688C105.581 16.0312 105.331 17.4375 104.644 18.6875C103.894 20.0625 102.738 21.0312 101.175 21.5938C99.6125 22.1562 98.0813 22.375 96.5813 22.25L93.675 21.9688L92.6438 16.25C94.3313 16.5625 95.675 16.7188 96.675 16.7188C97.2375 16.7188 97.8313 16.625 98.4563 16.4375C98.9563 16.3125 99.3 15.9688 99.4875 15.4062C99.7375 14.6562 99.675 13.9062 99.3 13.1562Z" fill="#44AE7D"/>
</svg>
