<svg width="666" height="146" viewBox="0 0 666 146" fill="none" xmlns="http://www.w3.org/2000/svg">
<rect width="666" height="146" rx="30" fill="white"/>
<path d="M112.879 40.488C114.047 41.464 114.623 42.648 114.623 43.72C114.623 45.368 113.087 46.392 110.687 46.392C108.879 46.392 108.015 45.432 108.015 43.928C108.015 43.544 108.047 42.984 108.111 42.36C108.303 42.36 108.495 42.36 108.687 42.36C109.759 42.36 110.735 42.328 111.791 42.216L111.823 41C110.719 41.144 109.599 41.192 108.527 41.192H108.223C108.335 40.28 108.447 39.288 108.575 38.36H108.687C109.951 38.36 110.895 38.296 111.903 38.2L111.935 37C111.007 37.128 109.935 37.192 108.735 37.192C108.815 36.536 108.895 35.976 108.943 35.576C108.991 35.224 109.039 34.904 109.151 34.472L107.711 34.392C107.743 34.776 107.727 35.128 107.695 35.496C107.663 35.928 107.599 36.504 107.519 37.144C106.335 37.08 105.055 36.888 104.063 36.568L103.999 37.752C104.991 38.008 106.239 38.2 107.375 38.296C107.263 39.224 107.135 40.216 107.023 41.144C105.903 41.064 104.719 40.872 103.679 40.504L103.615 41.72C104.575 42.024 105.727 42.2 106.911 42.296C106.831 43.048 106.783 43.688 106.783 44.12C106.783 46.712 108.527 47.656 110.687 47.656C113.807 47.656 115.935 46.216 115.935 43.864C115.935 42.504 115.391 41.4 114.303 40.2L112.879 40.488ZM121.903 34.568C121.999 35.032 122.047 35.592 122.047 36.168C122.047 37.848 121.887 41.848 121.887 44.2C121.887 46.776 123.455 47.736 125.727 47.736C129.215 47.736 131.263 45.752 132.335 44.248L131.455 43.144C130.319 44.792 128.671 46.424 125.759 46.424C124.287 46.424 123.167 45.816 123.167 44.072C123.167 41.704 123.295 37.96 123.359 36.168C123.391 35.656 123.439 35.096 123.519 34.584L121.903 34.568ZM139.503 46.968C138.511 45.8 137.071 44.344 135.919 43.416L134.879 44.328C136.015 45.256 137.391 46.616 138.415 47.896L139.503 46.968ZM154.271 35.08L154.335 36.392C154.671 36.36 155.151 36.328 155.551 36.296C156.239 36.232 158.991 36.088 159.695 36.04C158.687 36.936 156.191 39.128 154.463 40.312C153.663 40.408 152.591 40.552 151.743 40.632L151.855 41.848C153.743 41.544 155.855 41.288 157.551 41.144C156.735 41.624 155.711 42.776 155.711 44.12C155.711 46.552 157.823 47.768 161.695 47.608L161.951 46.312C161.391 46.36 160.607 46.376 159.679 46.248C158.239 46.056 156.959 45.512 156.959 43.928C156.959 42.456 158.463 41.144 159.999 40.936C160.943 40.792 162.463 40.776 164.015 40.856V39.656C161.743 39.656 158.895 39.88 156.495 40.136C157.759 39.128 160.047 37.224 161.231 36.248C161.455 36.056 161.855 35.784 162.079 35.656L161.263 34.728C161.071 34.792 160.767 34.856 160.399 34.888C159.487 35 156.223 35.128 155.535 35.128C155.055 35.144 154.655 35.128 154.271 35.08ZM170.383 44.76C169.695 44.76 168.767 43.88 168.767 41.88C168.767 39.752 170.623 37.144 173.663 36.76C173.487 38.216 173.183 39.72 172.783 41.032C171.967 43.704 171.087 44.76 170.383 44.76ZM174.559 47.416C178.335 46.92 180.527 44.696 180.527 41.368C180.527 38.168 178.159 35.544 174.447 35.544C170.575 35.544 167.503 38.552 167.503 41.992C167.503 44.6 168.927 46.232 170.335 46.232C171.807 46.232 173.071 44.552 174.047 41.304C174.479 39.816 174.783 38.216 174.991 36.744C177.679 36.968 179.199 38.936 179.199 41.336C179.199 44.072 177.215 45.576 175.183 46.024C174.799 46.104 174.319 46.184 173.823 46.216L174.559 47.416ZM189.231 34.104C189.119 36.216 189.119 43.848 182.639 47.16C183.007 47.416 183.391 47.784 183.599 48.072C187.647 45.88 189.295 42.024 189.999 38.824C190.767 42.024 192.527 46.12 196.655 48.072C196.831 47.752 197.199 47.352 197.535 47.096C191.519 44.344 190.655 36.952 190.511 34.84C190.527 34.568 190.527 34.312 190.543 34.104H189.231ZM202.383 44.76C201.695 44.76 200.767 43.88 200.767 41.88C200.767 39.752 202.623 37.144 205.663 36.76C205.487 38.216 205.183 39.72 204.783 41.032C203.967 43.704 203.087 44.76 202.383 44.76ZM206.559 47.416C210.335 46.92 212.527 44.696 212.527 41.368C212.527 38.168 210.159 35.544 206.447 35.544C202.575 35.544 199.503 38.552 199.503 41.992C199.503 44.6 200.927 46.232 202.335 46.232C203.807 46.232 205.071 44.552 206.047 41.304C206.479 39.816 206.783 38.216 206.991 36.744C209.679 36.968 211.199 38.936 211.199 41.336C211.199 44.072 209.215 45.576 207.183 46.024C206.799 46.104 206.319 46.184 205.823 46.216L206.559 47.416ZM217.087 43.768V42.168H220.623V43.768H217.087ZM220.623 39.672V41.24H217.087V39.672H220.623ZM221.775 38.648H215.951V48.152H217.087V44.712H220.623V46.84C220.623 47.048 220.559 47.112 220.319 47.128C220.111 47.144 219.391 47.144 218.591 47.112C218.751 47.416 218.911 47.848 218.975 48.152C220.063 48.152 220.751 48.152 221.199 47.96C221.631 47.768 221.775 47.464 221.775 46.856V38.648ZM226.927 46.728C226.927 46.968 226.847 47.032 226.575 47.048C226.335 47.064 225.471 47.064 224.495 47.032C224.671 47.352 224.863 47.848 224.927 48.168C226.143 48.184 226.943 48.152 227.455 47.96C227.935 47.768 228.095 47.448 228.095 46.728V38.328H226.927V46.728ZM224.815 38.808H223.711V45.304H224.815V38.808ZM225.423 36.136C225.887 35.48 226.415 34.696 226.847 33.96L225.599 33.544C225.247 34.312 224.639 35.368 224.095 36.136H219.327L220.111 35.832C219.807 35.208 219.135 34.264 218.511 33.592L217.423 34.008C217.967 34.648 218.591 35.512 218.879 36.136H214.959V37.224H229.167V36.136H225.423ZM232.911 34.888C232.911 35.224 232.847 35.64 232.799 36.008C232.607 37.304 232.095 40.024 232.095 42.36C232.095 44.504 232.351 46.328 232.671 47.448L233.823 47.368L233.775 46.808C233.775 46.632 233.807 46.328 233.855 46.104C233.999 45.352 234.575 43.672 234.975 42.552L234.287 42.04C234.031 42.664 233.679 43.592 233.407 44.312C233.311 43.544 233.279 42.904 233.279 42.136C233.279 40.36 233.743 37.528 234.047 36.072C234.111 35.784 234.255 35.272 234.351 35L232.911 34.888ZM236.815 42.568C236.671 43.24 236.559 43.864 236.559 44.44C236.559 45.928 237.743 46.808 240.399 46.808C242.047 46.808 243.375 46.68 244.351 46.488L244.335 45.144C243.055 45.432 241.839 45.56 240.415 45.56C238.239 45.56 237.759 44.856 237.759 44.136C237.759 43.704 237.823 43.256 237.967 42.68L236.815 42.568ZM237.359 37.528C239.087 37.704 242.159 37.704 243.855 37.528V36.216C242.271 36.44 239.071 36.504 237.343 36.216L237.359 37.528ZM257.759 38.696L256.943 39.048C257.423 39.704 257.887 40.536 258.255 41.304L259.071 40.92C258.735 40.216 258.127 39.224 257.759 38.696ZM259.503 38.024L258.703 38.392C259.215 39.064 259.679 39.848 260.063 40.616L260.895 40.232C260.511 39.528 259.887 38.552 259.503 38.024ZM247.375 36.472L247.519 37.88C249.231 37.528 253.551 37.112 254.943 36.952C253.487 37.816 251.999 39.832 251.999 42.296C251.999 45.832 255.343 47.4 258.271 47.528L258.735 46.184C256.159 46.088 253.279 45.112 253.279 42.024C253.279 40.152 254.639 37.736 256.895 37.016C257.711 36.776 259.087 36.76 259.999 36.76V35.48C258.943 35.528 257.455 35.608 255.727 35.752C252.815 36.008 249.823 36.296 248.783 36.392C248.479 36.424 247.983 36.456 247.375 36.472ZM270.031 46.472C268.847 46.472 267.935 46.024 267.935 45.24C267.935 44.696 268.479 44.264 269.199 44.264C270.399 44.264 271.151 45.128 271.295 46.376C270.911 46.44 270.479 46.472 270.031 46.472ZM273.295 34.968C273.119 35.016 272.895 35.048 272.431 35.096C271.599 35.176 267.839 35.288 267.023 35.288C266.703 35.288 266.255 35.288 265.903 35.24L265.935 36.568C266.271 36.504 266.639 36.488 267.007 36.472C267.823 36.424 270.943 36.28 271.775 36.248C270.991 36.952 269.023 38.616 268.143 39.352C267.215 40.12 265.183 41.816 263.871 42.904L264.799 43.848C266.815 41.8 268.255 40.696 270.863 40.696C272.863 40.696 274.431 41.832 274.431 43.384C274.431 44.68 273.711 45.592 272.463 46.072C272.255 44.6 271.183 43.272 269.199 43.272C267.727 43.272 266.751 44.264 266.751 45.352C266.751 46.664 268.079 47.624 270.239 47.624C273.583 47.624 275.711 45.96 275.711 43.4C275.711 41.256 273.807 39.656 271.167 39.656C270.463 39.656 269.743 39.752 269.023 39.992C270.239 38.968 272.367 37.096 273.151 36.504C273.391 36.328 273.743 36.088 274.031 35.896L273.295 34.968ZM290.015 36.312C289.679 36.6 289.343 36.808 288.879 37.064C288.015 37.56 286.303 38.392 284.815 39.288C284.127 38.04 283.327 36.328 282.687 34.6L281.423 35.112C282.159 36.84 282.991 38.696 283.727 39.992C282.031 41.176 280.991 42.472 280.991 44.104C280.991 46.472 283.151 47.368 286.127 47.368C288.111 47.368 289.935 47.192 291.135 46.984V45.544C289.903 45.864 287.791 46.088 286.063 46.088C283.567 46.088 282.319 45.272 282.319 43.96C282.319 42.76 283.199 41.72 284.671 40.76C286.223 39.736 288.431 38.696 289.487 38.152C289.951 37.912 290.351 37.704 290.703 37.48L290.015 36.312ZM298.862 46.968C297.87 45.8 296.43 44.344 295.278 43.416L294.238 44.328C295.374 45.256 296.75 46.616 297.774 47.896L298.862 46.968ZM320.718 36.728C320.398 37 320.062 37.208 319.598 37.48C318.734 37.96 317.294 38.648 315.902 39.496C315.214 38.248 314.414 36.552 313.79 34.808L312.526 35.336C313.262 37.032 314.094 38.888 314.814 40.184C313.118 41.368 312.078 42.68 312.078 44.312C312.078 46.68 314.254 47.576 317.214 47.576C319.198 47.576 321.038 47.4 322.222 47.192L322.238 45.752C321.006 46.072 318.894 46.296 317.166 46.296C314.67 46.296 313.422 45.48 313.422 44.168C313.422 42.968 314.302 41.944 315.774 40.968C317.326 39.944 319.086 39.128 320.158 38.568C320.622 38.328 321.006 38.12 321.358 37.896L320.718 36.728ZM320.814 34.968C321.262 35.576 321.806 36.536 322.126 37.192L322.99 36.808C322.654 36.152 322.078 35.176 321.678 34.6L320.814 34.968ZM322.59 34.328C323.054 34.92 323.582 35.832 323.918 36.536L324.782 36.136C324.478 35.544 323.87 34.552 323.438 33.96L322.59 34.328ZM328.298 42.712C328.122 43.288 327.93 44.024 327.93 44.696C327.93 46.68 329.594 47.656 332.426 47.656C333.722 47.656 335.258 47.528 336.25 47.352L336.282 46.056C335.162 46.312 333.658 46.424 332.378 46.424C330.122 46.424 329.162 45.656 329.162 44.44C329.162 44.024 329.338 43.32 329.53 42.824L328.298 42.712ZM338.394 38.376C337.674 38.648 336.714 38.936 335.466 39.16C335.194 38.568 334.97 38.072 334.842 37.736L334.554 37.08C335.642 36.904 336.682 36.664 337.498 36.408L337.274 35.272C336.346 35.608 335.226 35.848 334.122 36.024C333.882 35.416 333.674 34.808 333.53 34.264L332.09 34.568C332.298 34.904 332.442 35.192 332.682 35.688C332.746 35.832 332.81 35.992 332.89 36.168C331.37 36.28 329.594 36.248 327.706 36.04L327.786 37.208C329.754 37.384 331.754 37.384 333.354 37.24C333.466 37.496 333.578 37.784 333.706 38.056L334.266 39.352C332.378 39.592 330.026 39.608 327.61 39.384L327.658 40.552C330.106 40.712 332.698 40.68 334.746 40.408C335.114 41.24 335.482 42.072 335.786 42.696C335.29 42.648 334.538 42.568 333.77 42.472L333.658 43.448C334.666 43.576 335.946 43.752 336.746 43.896L337.37 43.112C336.922 42.28 336.41 41.208 335.946 40.2C337.018 39.992 337.93 39.768 338.634 39.528L338.394 38.376ZM352.234 36.728C351.914 37 351.578 37.208 351.114 37.48C350.25 37.96 348.81 38.648 347.418 39.496C346.73 38.248 345.93 36.552 345.306 34.808L344.042 35.336C344.778 37.032 345.61 38.888 346.33 40.184C344.634 41.368 343.594 42.68 343.594 44.312C343.594 46.68 345.77 47.576 348.73 47.576C350.714 47.576 352.554 47.4 353.738 47.192L353.754 45.752C352.522 46.072 350.41 46.296 348.682 46.296C346.186 46.296 344.938 45.48 344.938 44.168C344.938 42.968 345.818 41.944 347.29 40.968C348.842 39.944 350.602 39.128 351.674 38.568C352.138 38.328 352.522 38.12 352.874 37.896L352.234 36.728ZM352.33 34.968C352.778 35.576 353.322 36.536 353.642 37.192L354.506 36.808C354.17 36.152 353.594 35.176 353.194 34.6L352.33 34.968ZM354.106 34.328C354.57 34.92 355.098 35.832 355.434 36.536L356.298 36.136C355.994 35.544 355.386 34.552 354.954 33.96L354.106 34.328ZM359.814 42.712C359.638 43.288 359.446 44.024 359.446 44.696C359.446 46.68 361.11 47.656 363.942 47.656C365.238 47.656 366.774 47.528 367.766 47.352L367.798 46.056C366.678 46.312 365.174 46.424 363.894 46.424C361.638 46.424 360.678 45.656 360.678 44.44C360.678 44.024 360.854 43.32 361.046 42.824L359.814 42.712ZM369.91 38.376C369.19 38.648 368.23 38.936 366.982 39.16C366.71 38.568 366.486 38.072 366.358 37.736L366.07 37.08C367.158 36.904 368.198 36.664 369.014 36.408L368.79 35.272C367.862 35.608 366.742 35.848 365.638 36.024C365.398 35.416 365.19 34.808 365.046 34.264L363.606 34.568C363.814 34.904 363.958 35.192 364.198 35.688C364.262 35.832 364.326 35.992 364.406 36.168C362.886 36.28 361.11 36.248 359.222 36.04L359.302 37.208C361.27 37.384 363.27 37.384 364.87 37.24C364.982 37.496 365.094 37.784 365.222 38.056L365.782 39.352C363.894 39.592 361.542 39.608 359.126 39.384L359.174 40.552C361.622 40.712 364.214 40.68 366.262 40.408C366.63 41.24 366.998 42.072 367.302 42.696C366.806 42.648 366.054 42.568 365.286 42.472L365.174 43.448C366.182 43.576 367.462 43.752 368.262 43.896L368.886 43.112C368.438 42.28 367.926 41.208 367.462 40.2C368.534 39.992 369.446 39.768 370.15 39.528L369.91 38.376ZM376.294 34.568C376.39 35.032 376.438 35.592 376.438 36.168C376.438 37.848 376.278 41.848 376.278 44.2C376.278 46.776 377.846 47.736 380.118 47.736C383.606 47.736 385.654 45.752 386.726 44.248L385.846 43.144C384.71 44.792 383.062 46.424 380.15 46.424C378.678 46.424 377.558 45.816 377.558 44.072C377.558 41.704 377.686 37.96 377.75 36.168C377.782 35.656 377.83 35.096 377.91 34.584L376.294 34.568ZM389.377 36.376L389.521 37.784C391.233 37.432 395.553 37.016 396.945 36.856C395.489 37.72 394.001 39.72 394.001 42.2C394.001 45.736 397.345 47.304 400.273 47.416L400.737 46.088C398.161 45.992 395.281 45.016 395.281 41.912C395.281 40.04 396.641 37.64 398.897 36.92C399.713 36.68 401.105 36.664 402.001 36.664V35.384C400.945 35.432 399.457 35.512 397.729 35.656C394.817 35.896 391.825 36.2 390.785 36.296C390.481 36.328 389.985 36.36 389.377 36.376ZM415.425 41.64C415.425 44.488 412.705 45.992 408.865 46.472L409.617 47.688C413.729 47.08 416.785 45.128 416.785 41.688C416.785 39.432 415.105 38.168 412.849 38.168C411.041 38.168 409.233 38.68 408.113 38.936C407.649 39.032 407.105 39.128 406.673 39.176L407.073 40.648C407.457 40.504 407.921 40.312 408.401 40.184C409.345 39.912 410.897 39.368 412.721 39.368C414.353 39.368 415.425 40.312 415.425 41.64ZM408.785 34.504L408.577 35.72C410.369 36.04 413.569 36.36 415.329 36.472L415.521 35.24C413.969 35.224 410.529 34.904 408.785 34.504ZM427.969 45.144C427.969 46.232 427.201 46.504 426.289 46.504C424.721 46.504 424.097 45.96 424.097 45.224C424.097 44.504 424.913 43.928 426.417 43.928C426.945 43.928 427.457 43.976 427.953 44.072C427.953 44.504 427.969 44.872 427.969 45.144ZM433.745 45.688C432.849 44.968 431.233 43.8 429.137 43.224C429.105 42.472 429.057 41.64 429.025 40.824C430.529 40.76 431.937 40.648 433.425 40.456L433.409 39.256C431.985 39.464 430.529 39.608 429.009 39.672V39.496V37.4C430.497 37.32 431.857 37.192 433.105 37.064L433.089 35.896C431.697 36.104 430.401 36.232 429.025 36.28C429.025 35.896 429.025 35.592 429.041 35.4C429.057 34.936 429.073 34.632 429.121 34.344H427.761C427.793 34.568 427.809 35.032 427.809 35.288V36.328C427.537 36.328 427.265 36.328 426.993 36.328C425.937 36.328 424.241 36.2 423.281 36.024V37.208C424.225 37.32 425.905 37.448 427.009 37.448C427.281 37.448 427.537 37.448 427.793 37.448V39.496V39.72C427.521 39.72 427.233 39.72 426.945 39.72C425.905 39.72 424.033 39.608 422.961 39.416V40.632C424.097 40.76 425.857 40.856 426.945 40.856C427.249 40.856 427.537 40.856 427.825 40.856C427.841 41.512 427.873 42.264 427.905 42.968C427.473 42.904 427.041 42.872 426.577 42.872C424.289 42.872 422.897 43.848 422.897 45.288C422.897 46.824 424.161 47.64 426.433 47.64C428.497 47.64 429.233 46.504 429.233 45.416C429.233 45.176 429.217 44.824 429.201 44.424C430.785 45 432.097 45.96 433.025 46.808L433.745 45.688ZM446.001 34.184C445.825 34.472 445.409 34.92 445.089 35.24C444.017 36.328 441.617 38.216 440.433 39.224C438.993 40.424 438.833 41.144 440.321 42.392C441.809 43.608 444.449 45.864 445.313 46.792C445.649 47.16 446.081 47.56 446.401 47.944L447.553 46.904C446.001 45.368 443.073 42.936 441.633 41.784C440.609 40.936 440.609 40.696 441.569 39.864C442.737 38.904 445.009 37.08 446.113 36.136C446.369 35.912 446.849 35.496 447.201 35.24L446.001 34.184ZM455.809 34.568C455.905 35.032 455.953 35.592 455.953 36.168C455.953 37.848 455.793 41.848 455.793 44.2C455.793 46.776 457.361 47.736 459.633 47.736C463.121 47.736 465.169 45.752 466.241 44.248L465.361 43.144C464.225 44.792 462.577 46.424 459.665 46.424C458.193 46.424 457.073 45.816 457.073 44.072C457.073 41.704 457.201 37.96 457.265 36.168C457.297 35.656 457.345 35.096 457.425 34.584L455.809 34.568ZM477.153 38.36C476.705 37.88 475.857 37.176 475.425 36.872L474.545 37.544C475.121 37.96 475.793 38.552 476.257 39.048L477.153 38.36ZM471.185 38.536C471.425 38.792 471.681 39.192 471.825 39.448C472.017 39.736 472.257 40.216 472.529 40.776C471.937 41.048 471.393 41.288 470.961 41.464C470.721 41.544 470.305 41.688 469.841 41.8L470.449 43.048C470.977 42.808 471.921 42.328 473.009 41.8L473.521 42.952C474.225 44.568 474.865 46.648 475.281 48.152L476.545 47.816C476.097 46.424 475.313 44.056 474.625 42.472C474.465 42.12 474.289 41.72 474.097 41.304C475.601 40.616 477.217 40.024 478.257 40.024C479.665 40.024 480.145 40.808 480.145 41.464C480.145 42.312 479.633 43.096 478.113 43.096C477.473 43.096 476.753 42.888 476.257 42.648L476.209 43.832C476.673 44.008 477.457 44.216 478.177 44.216C480.353 44.216 481.345 43.112 481.345 41.464C481.345 40.136 480.385 38.904 478.305 38.904C477.057 38.904 475.233 39.608 473.617 40.312C473.329 39.704 473.057 39.16 472.849 38.792C472.721 38.584 472.561 38.296 472.449 38.04L471.185 38.536ZM495.025 36.2L494.097 36.6C494.641 37.336 495.201 38.344 495.601 39.176L496.545 38.76C496.161 37.992 495.425 36.792 495.025 36.2ZM497.089 35.384L496.193 35.8C496.737 36.52 497.313 37.496 497.745 38.344L498.657 37.896C498.289 37.144 497.505 35.944 497.089 35.384ZM484.769 42.856L485.937 44.072C486.193 43.752 486.545 43.24 486.881 42.824C487.665 41.848 488.993 40.104 489.729 39.176C490.257 38.504 490.561 38.408 491.233 39.128C491.985 39.928 493.185 41.464 494.209 42.632C495.297 43.864 496.753 45.496 497.953 46.632L498.961 45.496C497.537 44.216 495.985 42.552 495.025 41.496C494.001 40.408 492.753 38.824 491.825 37.864C490.785 36.808 489.921 36.952 489.009 38.04C488.097 39.144 486.753 40.952 485.905 41.8C485.489 42.248 485.153 42.568 484.769 42.856ZM515.249 44.344C514.513 45.144 513.665 45.656 512.865 45.656C512.305 45.656 512.049 45.24 512.049 44.696C512.049 43.096 512.641 40.36 512.641 38.776C512.641 37.48 511.889 36.648 510.401 36.648C508.817 36.648 506.785 38.168 505.553 39.304C505.585 39 505.601 38.696 505.633 38.408C505.873 38.024 506.145 37.592 506.337 37.304L505.873 36.744L505.793 36.776C505.905 35.672 506.033 34.776 506.113 34.392L504.593 34.344C504.673 34.744 504.657 35.16 504.657 35.528C504.657 35.704 504.625 36.264 504.577 37.016C503.761 37.144 502.833 37.24 502.321 37.272C501.937 37.304 501.633 37.304 501.281 37.288L501.409 38.616C502.401 38.488 503.777 38.296 504.497 38.216C504.465 38.712 504.433 39.224 504.401 39.736C503.601 40.984 501.777 43.448 500.897 44.552L501.697 45.656C502.465 44.6 503.505 43.08 504.273 41.912C504.273 42.152 504.257 42.36 504.257 42.52C504.225 44.28 504.225 45.064 504.209 46.584C504.209 46.84 504.177 47.304 504.161 47.528H505.553C505.521 47.24 505.489 46.84 505.473 46.568C505.409 45.144 505.409 44.184 505.409 42.744C505.409 42.184 505.425 41.56 505.457 40.888C506.913 39.32 508.833 37.832 510.113 37.832C510.913 37.832 511.377 38.216 511.377 39.128C511.377 40.664 510.785 43.272 510.785 45.032C510.785 46.344 511.505 47.048 512.545 47.048C513.633 47.048 514.625 46.568 515.457 45.72L515.249 44.344ZM530.801 38.616C530.049 38.04 528.241 37.016 527.089 36.504L526.465 37.496C527.521 37.976 529.233 38.952 530.081 39.672L530.801 38.616ZM525.041 36.216C524.241 36.472 523.409 36.664 522.577 36.792C522.833 35.88 523.041 34.92 523.201 34.344L521.777 34.216C521.745 35.064 521.521 36.072 521.281 36.952C520.673 37 520.081 37.032 519.521 37.032C518.833 37.032 518.161 37 517.569 36.92L517.665 38.12C518.257 38.152 518.913 38.168 519.505 38.168C519.969 38.168 520.433 38.152 520.897 38.12C520.177 39.976 518.833 42.504 517.505 44.04L518.753 44.68C520.017 42.968 521.425 40.216 522.209 37.976C523.249 37.848 524.241 37.64 525.073 37.4L525.041 36.216ZM525.873 45.064C525.873 45.848 525.441 46.568 524.145 46.568C522.913 46.568 522.321 46.072 522.321 45.336C522.321 44.616 523.089 44.088 524.257 44.088C524.817 44.088 525.361 44.168 525.857 44.312C525.873 44.6 525.873 44.856 525.873 45.064ZM525.649 39.24C525.681 40.344 525.761 41.896 525.809 43.192C525.345 43.096 524.833 43.048 524.305 43.048C522.513 43.048 521.137 43.992 521.137 45.448C521.137 47.016 522.561 47.736 524.305 47.736C526.257 47.736 527.089 46.696 527.089 45.432C527.089 45.256 527.089 45.032 527.073 44.792C528.097 45.288 528.945 45.992 529.617 46.6L530.305 45.512C529.489 44.808 528.385 44.024 527.025 43.528C526.993 42.568 526.929 41.528 526.913 40.952C526.897 40.36 526.881 39.896 526.929 39.24H525.649ZM535.569 35.864L534.033 35.832C534.113 36.216 534.129 36.872 534.129 37.24C534.129 38.168 534.145 40.088 534.305 41.464C534.737 45.576 536.177 47.064 537.665 47.064C538.753 47.064 539.729 46.152 540.673 43.464L539.665 42.312C539.249 43.912 538.513 45.544 537.697 45.544C536.577 45.544 535.809 43.8 535.553 41.144C535.441 39.848 535.425 38.392 535.441 37.4C535.457 36.984 535.505 36.248 535.569 35.864ZM543.825 36.296L542.577 36.728C544.081 38.584 545.041 41.72 545.313 44.568L546.609 44.056C546.385 41.384 545.249 38.136 543.825 36.296ZM551.057 43.096C549.729 43.096 548.625 44.184 548.625 45.528C548.625 46.872 549.729 47.976 551.057 47.976C552.417 47.976 553.505 46.872 553.505 45.528C553.505 44.184 552.417 43.096 551.057 43.096ZM551.057 47.16C550.177 47.16 549.441 46.44 549.441 45.528C549.441 44.648 550.177 43.912 551.057 43.912C551.969 43.912 552.673 44.648 552.673 45.528C552.673 46.44 551.969 47.16 551.057 47.16ZM33.8378 77.88V75.256H42.2058V77.88H33.8378ZM42.2058 71.496V74.12H33.8378V71.496H42.2058ZM42.2058 67.768V70.36H33.8378V67.768H42.2058ZM32.6698 66.616V80.136H33.8378V79.048H42.2058V80.136H43.4378V66.616H32.6698ZM61.6778 67.64C61.3738 67.048 60.7498 66.04 60.3338 65.464L59.4858 65.816C59.9338 66.424 60.4618 67.336 60.8138 68.024L61.6778 67.64ZM59.8858 68.296C59.5498 67.656 58.9578 66.664 58.5578 66.104L57.7098 66.456C58.1418 67.064 58.6858 68.04 59.0058 68.68L59.8858 68.296ZM51.4058 66.472C51.4218 67.544 51.2298 68.776 51.0058 69.912C50.0458 69.992 49.1338 70.072 48.6058 70.088C48.0938 70.104 47.6938 70.104 47.1978 70.088L47.3258 71.48C47.7258 71.4 48.3658 71.336 48.7498 71.288C49.1658 71.24 49.9178 71.16 50.7498 71.08C50.2057 73.192 49.0378 76.76 47.4218 78.92L48.7178 79.448C50.3818 76.792 51.4698 73.224 52.0458 70.952C52.7338 70.888 53.3578 70.84 53.7418 70.84C54.7658 70.84 55.4218 71.096 55.4218 72.536C55.4218 74.248 55.1818 76.312 54.6698 77.368C54.3338 78.056 53.8698 78.184 53.2938 78.184C52.8458 78.184 52.0138 78.056 51.3418 77.832L51.5498 79.192C52.0618 79.304 52.8138 79.416 53.4218 79.416C54.4458 79.416 55.2298 79.16 55.7418 78.104C56.3978 76.776 56.6538 74.28 56.6538 72.392C56.6538 70.248 55.5017 69.688 54.0778 69.688C53.6938 69.688 53.0378 69.736 52.3018 69.8C52.4778 68.952 52.6218 68.024 52.7178 67.56C52.7658 67.24 52.8458 66.92 52.9098 66.616L51.4058 66.472ZM57.1818 68.968C58.2858 70.264 59.5338 73.032 60.0138 74.664L61.2458 74.056C60.7178 72.584 59.3418 69.704 58.3498 68.424L57.1818 68.968ZM73.7738 74.936V78.504H66.4298V74.936H73.7738ZM65.2618 80.232H66.4298V79.576H73.7738V80.232H74.9898V73.864H65.2618V80.232ZM66.0938 70.808V71.864H74.1098V70.808H66.0938ZM69.3898 65.656C68.1418 67.704 65.4698 70.136 62.6858 71.544C62.9578 71.8 63.2778 72.216 63.4218 72.488C66.1578 71.032 68.7498 68.76 70.0618 66.808C71.5498 68.856 74.3498 71.096 76.8298 72.392C77.0378 72.056 77.3258 71.64 77.6138 71.368C75.1018 70.232 72.2858 68.008 70.5898 65.656H69.3898ZM89.5658 73.64C89.5658 76.488 86.8458 77.992 83.0058 78.472L83.7578 79.688C87.8698 79.08 90.9258 77.128 90.9258 73.688C90.9258 71.432 89.2458 70.168 86.9898 70.168C85.1818 70.168 83.3738 70.68 82.2538 70.936C81.7898 71.032 81.2458 71.128 80.8138 71.176L81.2138 72.648C81.5978 72.504 82.0618 72.312 82.5418 72.184C83.4858 71.912 85.0378 71.368 86.8618 71.368C88.4938 71.368 89.5658 72.312 89.5658 73.64ZM82.9258 66.504L82.7178 67.72C84.5098 68.04 87.7098 68.36 89.4698 68.472L89.6618 67.24C88.1098 67.224 84.6698 66.904 82.9258 66.504ZM106.062 68.312C105.726 68.6 105.39 68.808 104.926 69.064C104.062 69.56 102.35 70.392 100.862 71.288C100.174 70.04 99.3738 68.328 98.7338 66.6L97.4698 67.112C98.2057 68.84 99.0378 70.696 99.7738 71.992C98.0778 73.176 97.0378 74.472 97.0378 76.104C97.0378 78.472 99.1978 79.368 102.174 79.368C104.158 79.368 105.982 79.192 107.182 78.984V77.544C105.95 77.864 103.838 78.088 102.11 78.088C99.6138 78.088 98.3658 77.272 98.3658 75.96C98.3658 74.76 99.2458 73.72 100.718 72.76C102.27 71.736 104.478 70.696 105.534 70.152C105.998 69.912 106.398 69.704 106.75 69.48L106.062 68.312ZM113.214 73.256C112.766 74.536 111.758 76.072 110.654 77C110.942 77.16 111.374 77.48 111.598 77.688C112.75 76.664 113.79 75.016 114.414 73.576L113.214 73.256ZM125.166 72.072V70.936H118.67V68.664H123.918V67.528H118.67V65.64H117.47V67.528H112.654V68.664H117.47V70.936H111.07V72.072H115.886V73C115.886 74.952 115.63 77.528 112.686 79.448C112.974 79.656 113.39 80.04 113.582 80.312C116.75 78.184 117.07 75.288 117.07 73.016V72.072H119.454V78.744C119.454 78.952 119.39 79.016 119.15 79.016C118.894 79.032 118.062 79.048 117.166 79.016C117.342 79.352 117.534 79.864 117.598 80.2C118.782 80.2 119.566 80.184 120.046 79.992C120.542 79.784 120.702 79.448 120.702 78.76V72.072H125.166ZM121.806 73.656C122.814 74.936 123.934 76.664 124.398 77.736L125.534 77.192C125.022 76.104 123.886 74.424 122.862 73.176L121.806 73.656ZM136.142 66.184C135.966 66.472 135.55 66.92 135.23 67.24C134.158 68.328 131.758 70.216 130.574 71.224C129.134 72.424 128.974 73.144 130.462 74.392C131.95 75.608 134.59 77.864 135.454 78.792C135.79 79.16 136.222 79.56 136.542 79.944L137.694 78.904C136.142 77.368 133.214 74.936 131.774 73.784C130.75 72.936 130.75 72.696 131.71 71.864C132.878 70.904 135.15 69.08 136.254 68.136C136.51 67.912 136.99 67.496 137.342 67.24L136.142 66.184ZM156.942 70.616C156.19 70.04 154.382 69.016 153.23 68.504L152.606 69.496C153.662 69.976 155.374 70.952 156.222 71.672L156.942 70.616ZM151.182 68.216C150.382 68.472 149.55 68.664 148.718 68.792C148.974 67.88 149.182 66.92 149.342 66.344L147.918 66.216C147.886 67.064 147.662 68.072 147.422 68.952C146.814 69 146.222 69.032 145.662 69.032C144.974 69.032 144.302 69 143.71 68.92L143.806 70.12C144.398 70.152 145.054 70.168 145.646 70.168C146.11 70.168 146.574 70.152 147.038 70.12C146.318 71.976 144.974 74.504 143.646 76.04L144.894 76.68C146.158 74.968 147.566 72.216 148.35 69.976C149.39 69.848 150.382 69.64 151.214 69.4L151.182 68.216ZM152.014 77.064C152.014 77.848 151.582 78.568 150.286 78.568C149.054 78.568 148.462 78.072 148.462 77.336C148.462 76.616 149.23 76.088 150.398 76.088C150.958 76.088 151.502 76.168 151.998 76.312C152.014 76.6 152.014 76.856 152.014 77.064ZM151.79 71.24C151.822 72.344 151.902 73.896 151.95 75.192C151.486 75.096 150.974 75.048 150.446 75.048C148.654 75.048 147.278 75.992 147.278 77.448C147.278 79.016 148.702 79.736 150.446 79.736C152.398 79.736 153.23 78.696 153.23 77.432C153.23 77.256 153.23 77.032 153.214 76.792C154.238 77.288 155.086 77.992 155.758 78.6L156.446 77.512C155.63 76.808 154.526 76.024 153.166 75.528C153.134 74.568 153.07 73.528 153.054 72.952C153.038 72.36 153.022 71.896 153.07 71.24H151.79ZM160.718 72.584L161.246 73.912C162.27 73.512 165.726 72.072 167.694 72.072C169.31 72.072 170.366 73.048 170.366 74.392C170.366 76.984 167.358 77.944 163.934 78.056L164.446 79.288C168.718 79.032 171.662 77.464 171.662 74.408C171.662 72.248 170.03 70.904 167.79 70.904C165.918 70.904 163.326 71.848 162.19 72.2C161.71 72.36 161.182 72.504 160.718 72.584ZM182.686 72.472C183.662 72.36 184.622 72.296 185.614 72.296C186.542 72.296 187.486 72.392 188.286 72.488L188.318 71.272C187.47 71.176 186.494 71.144 185.582 71.144C184.558 71.144 183.518 71.192 182.686 71.272V72.472ZM183.71 68.312C182.75 68.568 181.71 68.76 180.686 68.888L180.926 67.72C180.99 67.4 181.102 66.808 181.214 66.456L179.662 66.328C179.694 66.664 179.662 67.192 179.614 67.64C179.566 67.96 179.486 68.456 179.374 69.032C178.766 69.064 178.206 69.096 177.678 69.096C177.102 69.096 176.526 69.08 175.774 68.984L175.822 70.232C176.382 70.264 176.958 70.296 177.662 70.296C178.11 70.296 178.59 70.28 179.102 70.248C178.974 70.824 178.846 71.4 178.702 71.928C178.11 74.168 176.99 77.384 176.046 79.016L177.454 79.48C178.286 77.752 179.358 74.488 179.934 72.216C180.11 71.544 180.286 70.808 180.43 70.12C181.534 69.992 182.67 69.816 183.71 69.576V68.312ZM181.886 75.016C181.742 75.688 181.646 76.28 181.646 76.888C181.646 78.456 182.958 79.224 185.454 79.224C186.606 79.224 187.662 79.128 188.51 79.016L188.558 77.72C187.598 77.896 186.494 78.024 185.47 78.024C183.214 78.024 182.862 77.304 182.862 76.552C182.862 76.152 182.942 75.656 183.086 75.128L181.886 75.016ZM194.142 66.376C194.126 66.76 194.078 67.24 194.014 67.736C193.822 69.016 193.534 71.352 193.534 72.856C193.534 73.88 193.614 74.776 193.694 75.368L194.942 75.272C194.83 74.488 194.83 73.944 194.91 73.336C195.102 71.256 196.926 68.392 198.894 68.392C200.574 68.392 201.406 70.184 201.406 72.68C201.406 76.664 198.718 78.04 195.278 78.568L196.03 79.72C199.966 79 202.734 77.064 202.734 72.664C202.734 69.336 201.214 67.224 199.102 67.224C197.102 67.224 195.438 69.192 194.814 70.824C194.91 69.72 195.214 67.592 195.55 66.424L194.142 66.376ZM208.298 79.0909C208.018 79.0909 207.777 78.9905 207.577 78.7898C207.376 78.589 207.276 78.3485 207.276 78.0682C207.276 77.7879 207.376 77.5473 207.577 77.3466C207.777 77.1458 208.018 77.0455 208.298 77.0455C208.579 77.0455 208.819 77.1458 209.02 77.3466C209.221 77.5473 209.321 77.7879 209.321 78.0682C209.321 78.2538 209.274 78.4242 209.179 78.5795C209.088 78.7348 208.965 78.8598 208.81 78.9545C208.658 79.0455 208.488 79.0909 208.298 79.0909ZM212.662 79.0909C212.382 79.0909 212.141 78.9905 211.94 78.7898C211.74 78.589 211.639 78.3485 211.639 78.0682C211.639 77.7879 211.74 77.5473 211.94 77.3466C212.141 77.1458 212.382 77.0455 212.662 77.0455C212.942 77.0455 213.183 77.1458 213.384 77.3466C213.584 77.5473 213.685 77.7879 213.685 78.0682C213.685 78.2538 213.637 78.4242 213.543 78.5795C213.452 78.7348 213.329 78.8598 213.173 78.9545C213.022 79.0455 212.851 79.0909 212.662 79.0909ZM217.026 79.0909C216.745 79.0909 216.505 78.9905 216.304 78.7898C216.103 78.589 216.003 78.3485 216.003 78.0682C216.003 77.7879 216.103 77.5473 216.304 77.3466C216.505 77.1458 216.745 77.0455 217.026 77.0455C217.306 77.0455 217.546 77.1458 217.747 77.3466C217.948 77.5473 218.048 77.7879 218.048 78.0682C218.048 78.2538 218.001 78.4242 217.906 78.5795C217.815 78.7348 217.692 78.8598 217.537 78.9545C217.385 79.0455 217.215 79.0909 217.026 79.0909ZM227.35 67.864L225.814 67.832C225.894 68.216 225.91 68.872 225.91 69.24C225.91 70.168 225.926 72.088 226.086 73.464C226.518 77.576 227.958 79.064 229.446 79.064C230.534 79.064 231.51 78.152 232.454 75.464L231.446 74.312C231.03 75.912 230.294 77.544 229.478 77.544C228.358 77.544 227.59 75.8 227.334 73.144C227.222 71.848 227.206 70.392 227.222 69.4C227.238 68.984 227.286 68.248 227.35 67.864ZM235.606 68.296L234.358 68.728C235.862 70.584 236.822 73.72 237.094 76.568L238.39 76.056C238.166 73.384 237.03 70.136 235.606 68.296ZM240.966 70.648L241.558 72.056C242.806 71.56 246.838 69.816 249.446 69.816C251.59 69.816 252.79 71.112 252.79 72.776C252.79 76.024 249.11 77.272 244.966 77.384L245.526 78.712C250.422 78.44 254.198 76.6 254.198 72.792C254.198 70.136 252.102 68.616 249.478 68.616C247.158 68.616 244.054 69.768 242.71 70.184C242.118 70.36 241.542 70.536 240.966 70.648ZM266.566 72.488C267.734 73.464 268.31 74.648 268.31 75.72C268.31 77.368 266.774 78.392 264.374 78.392C262.566 78.392 261.702 77.432 261.702 75.928C261.702 75.544 261.734 74.984 261.798 74.36C261.99 74.36 262.182 74.36 262.374 74.36C263.446 74.36 264.422 74.328 265.478 74.216L265.51 73C264.406 73.144 263.286 73.192 262.214 73.192H261.91C262.022 72.28 262.134 71.288 262.262 70.36H262.374C263.638 70.36 264.582 70.296 265.59 70.2L265.622 69C264.694 69.128 263.622 69.192 262.422 69.192C262.502 68.536 262.582 67.976 262.63 67.576C262.678 67.224 262.726 66.904 262.838 66.472L261.398 66.392C261.43 66.776 261.414 67.128 261.382 67.496C261.35 67.928 261.286 68.504 261.206 69.144C260.022 69.08 258.742 68.888 257.75 68.568L257.686 69.752C258.678 70.008 259.926 70.2 261.062 70.296C260.95 71.224 260.822 72.216 260.71 73.144C259.59 73.064 258.406 72.872 257.366 72.504L257.302 73.72C258.262 74.024 259.414 74.2 260.598 74.296C260.518 75.048 260.47 75.688 260.47 76.12C260.47 78.712 262.214 79.656 264.374 79.656C267.494 79.656 269.622 78.216 269.622 75.864C269.622 74.504 269.078 73.4 267.99 72.2L266.566 72.488ZM276.706 78.968C275.714 77.8 274.274 76.344 273.122 75.416L272.082 76.328C273.218 77.256 274.594 78.616 275.618 79.896L276.706 78.968ZM291.474 67.08L291.538 68.392C291.874 68.36 292.354 68.328 292.754 68.296C293.442 68.232 296.194 68.088 296.898 68.04C295.89 68.936 293.394 71.128 291.666 72.312C290.866 72.408 289.794 72.552 288.946 72.632L289.058 73.848C290.946 73.544 293.058 73.288 294.754 73.144C293.938 73.624 292.914 74.776 292.914 76.12C292.914 78.552 295.026 79.768 298.898 79.608L299.154 78.312C298.594 78.36 297.81 78.376 296.882 78.248C295.442 78.056 294.162 77.512 294.162 75.928C294.162 74.456 295.666 73.144 297.202 72.936C298.146 72.792 299.666 72.776 301.218 72.856V71.656C298.946 71.656 296.098 71.88 293.698 72.136C294.962 71.128 297.25 69.224 298.434 68.248C298.658 68.056 299.058 67.784 299.282 67.656L298.466 66.728C298.274 66.792 297.97 66.856 297.602 66.888C296.69 67 293.426 67.128 292.738 67.128C292.258 67.144 291.858 67.128 291.474 67.08ZM307.586 76.76C306.898 76.76 305.97 75.88 305.97 73.88C305.97 71.752 307.826 69.144 310.866 68.76C310.69 70.216 310.386 71.72 309.986 73.032C309.17 75.704 308.29 76.76 307.586 76.76ZM311.762 79.416C315.538 78.92 317.73 76.696 317.73 73.368C317.73 70.168 315.362 67.544 311.65 67.544C307.778 67.544 304.706 70.552 304.706 73.992C304.706 76.6 306.13 78.232 307.538 78.232C309.01 78.232 310.274 76.552 311.25 73.304C311.682 71.816 311.986 70.216 312.194 68.744C314.882 68.968 316.402 70.936 316.402 73.336C316.402 76.072 314.418 77.576 312.386 78.024C312.002 78.104 311.522 78.184 311.026 78.216L311.762 79.416ZM334.322 73.752C332.29 71.704 331.346 69.128 330.946 67.208L329.73 67.592C329.858 67.992 329.986 68.392 330.114 68.76C331.186 74.584 329.346 78.408 326.05 78.408C324.498 78.408 323.138 77.544 323.138 75.368C323.138 72.44 325.522 69.448 326.53 68.68C326.754 68.568 327.154 68.472 327.378 68.392L326.994 67.24C326.066 67.592 323.282 68.056 321.906 68.168C321.618 68.2 321.298 68.216 321.058 68.216L321.234 69.56C321.57 69.48 321.842 69.432 322.114 69.384C322.738 69.256 323.938 69.064 324.738 68.936C323.442 70.28 321.874 72.824 321.874 75.544C321.874 78.088 323.442 79.72 326.002 79.72C330.098 79.72 331.762 75.784 331.426 71.784C332.034 72.904 332.674 73.864 333.378 74.744L334.322 73.752ZM346.734 68.312C346.398 68.6 346.062 68.808 345.598 69.064C344.734 69.56 343.022 70.392 341.534 71.288C340.846 70.04 340.046 68.328 339.406 66.6L338.142 67.112C338.878 68.84 339.71 70.696 340.446 71.992C338.75 73.176 337.71 74.472 337.71 76.104C337.71 78.472 339.87 79.368 342.846 79.368C344.83 79.368 346.654 79.192 347.854 78.984V77.544C346.622 77.864 344.51 78.088 342.782 78.088C340.286 78.088 339.038 77.272 339.038 75.96C339.038 74.76 339.918 73.72 341.39 72.76C342.942 71.736 345.15 70.696 346.206 70.152C346.67 69.912 347.07 69.704 347.422 69.48L346.734 68.312ZM362.734 68.312C362.398 68.6 362.062 68.808 361.598 69.064C360.734 69.56 359.022 70.392 357.534 71.288C356.846 70.04 356.046 68.328 355.406 66.6L354.142 67.112C354.878 68.84 355.71 70.696 356.446 71.992C354.75 73.176 353.71 74.472 353.71 76.104C353.71 78.472 355.87 79.368 358.846 79.368C360.83 79.368 362.654 79.192 363.854 78.984V77.544C362.622 77.864 360.51 78.088 358.782 78.088C356.286 78.088 355.038 77.272 355.038 75.96C355.038 74.76 355.918 73.72 357.39 72.76C358.942 71.736 361.15 70.696 362.206 70.152C362.67 69.912 363.07 69.704 363.422 69.48L362.734 68.312ZM367.534 72.12V73.416H382.062V72.12H367.534ZM384.238 74.68C384.062 76.072 383.758 77.512 383.262 78.488C383.486 78.568 383.966 78.776 384.142 78.92C384.654 77.896 385.022 76.36 385.246 74.856L384.238 74.68ZM387.518 74.904C387.918 75.816 388.238 77.032 388.318 77.8L389.246 77.528C389.15 76.744 388.798 75.56 388.398 74.648L387.518 74.904ZM395.886 75.736H391.774V74.04H395.886V75.736ZM391.774 78.504V76.728H395.886V78.504H391.774ZM393.166 68.552H395.406C394.974 69.224 394.494 69.848 393.95 70.456H393.166V68.552ZM398.046 71.48V70.456H395.342C396.35 69.208 397.15 67.832 397.742 66.312L396.686 65.976C396.382 66.824 395.982 67.624 395.502 68.392V67.512H393.166V65.624H392.062V67.512H389.47V68.552H392.062V70.456H388.894V71.48H392.942C391.934 72.408 390.782 73.224 389.502 73.944C389.262 73.08 388.622 71.736 387.966 70.712L387.102 71.064C387.358 71.48 387.598 71.944 387.822 72.408L385.518 72.52C386.606 71.16 387.806 69.352 388.718 67.896L387.726 67.432C387.278 68.296 386.67 69.336 386.014 70.328C385.774 70.008 385.486 69.656 385.15 69.304C385.758 68.408 386.446 67.112 386.99 66.008L385.95 65.624C385.614 66.504 385.054 67.72 384.526 68.632C384.366 68.472 384.206 68.328 384.046 68.184L383.406 68.936C384.126 69.624 384.926 70.536 385.39 71.256C385.054 71.736 384.718 72.184 384.398 72.584L383.294 72.632L383.406 73.704L385.918 73.544V80.216H386.974V73.48L388.238 73.4C388.382 73.768 388.494 74.104 388.558 74.392L389.278 74.056C389.038 74.2 388.798 74.312 388.542 74.44C388.798 74.616 389.118 75.016 389.278 75.256C389.758 75 390.238 74.744 390.686 74.472V80.2H391.774V79.528H395.886V80.184H397.038V73.032H392.75C393.358 72.552 393.934 72.024 394.446 71.48H398.046ZM401.63 66.888C401.63 67.224 401.566 67.64 401.518 68.008C401.326 69.304 400.814 72.024 400.814 74.36C400.814 76.504 401.07 78.328 401.39 79.448L402.542 79.368L402.494 78.808C402.494 78.632 402.526 78.328 402.574 78.104C402.718 77.352 403.294 75.672 403.694 74.552L403.006 74.04C402.75 74.664 402.398 75.592 402.126 76.312C402.03 75.544 401.998 74.904 401.998 74.136C401.998 72.36 402.462 69.528 402.766 68.072C402.83 67.784 402.974 67.272 403.07 67L401.63 66.888ZM405.534 74.568C405.39 75.24 405.278 75.864 405.278 76.44C405.278 77.928 406.462 78.808 409.118 78.808C410.766 78.808 412.094 78.68 413.07 78.488L413.054 77.144C411.774 77.432 410.558 77.56 409.134 77.56C406.958 77.56 406.478 76.856 406.478 76.136C406.478 75.704 406.542 75.256 406.686 74.68L405.534 74.568ZM406.078 69.528C407.806 69.704 410.878 69.704 412.574 69.528V68.216C410.99 68.44 407.79 68.504 406.062 68.216L406.078 69.528ZM418.382 67.864L416.846 67.832C416.926 68.216 416.942 68.872 416.942 69.24C416.942 70.168 416.958 72.088 417.118 73.464C417.55 77.576 418.99 79.064 420.478 79.064C421.566 79.064 422.542 78.152 423.486 75.464L422.478 74.312C422.062 75.912 421.326 77.544 420.51 77.544C419.39 77.544 418.622 75.8 418.366 73.144C418.254 71.848 418.238 70.392 418.254 69.4C418.27 68.984 418.318 68.248 418.382 67.864ZM426.638 68.296L425.39 68.728C426.894 70.584 427.854 73.72 428.126 76.568L429.422 76.056C429.198 73.384 428.062 70.136 426.638 68.296ZM439.358 72.472C440.334 72.36 441.294 72.296 442.286 72.296C443.214 72.296 444.158 72.392 444.958 72.488L444.99 71.272C444.142 71.176 443.166 71.144 442.254 71.144C441.23 71.144 440.19 71.192 439.358 71.272V72.472ZM440.382 68.312C439.422 68.568 438.382 68.76 437.358 68.888L437.598 67.72C437.662 67.4 437.774 66.808 437.886 66.456L436.334 66.328C436.366 66.664 436.334 67.192 436.286 67.64C436.238 67.96 436.158 68.456 436.046 69.032C435.438 69.064 434.878 69.096 434.35 69.096C433.774 69.096 433.198 69.08 432.446 68.984L432.494 70.232C433.054 70.264 433.63 70.296 434.334 70.296C434.782 70.296 435.262 70.28 435.774 70.248C435.646 70.824 435.518 71.4 435.374 71.928C434.782 74.168 433.662 77.384 432.718 79.016L434.126 79.48C434.958 77.752 436.03 74.488 436.606 72.216C436.782 71.544 436.958 70.808 437.102 70.12C438.206 69.992 439.342 69.816 440.382 69.576V68.312ZM438.558 75.016C438.414 75.688 438.318 76.28 438.318 76.888C438.318 78.456 439.63 79.224 442.126 79.224C443.278 79.224 444.334 79.128 445.182 79.016L445.23 77.72C444.27 77.896 443.166 78.024 442.142 78.024C439.886 78.024 439.534 77.304 439.534 76.552C439.534 76.152 439.614 75.656 439.758 75.128L438.558 75.016ZM450.382 67.864L448.846 67.832C448.926 68.216 448.942 68.872 448.942 69.24C448.942 70.168 448.958 72.088 449.118 73.464C449.55 77.576 450.99 79.064 452.478 79.064C453.566 79.064 454.542 78.152 455.486 75.464L454.478 74.312C454.062 75.912 453.326 77.544 452.51 77.544C451.39 77.544 450.622 75.8 450.366 73.144C450.254 71.848 450.238 70.392 450.254 69.4C450.27 68.984 450.318 68.248 450.382 67.864ZM458.638 68.296L457.39 68.728C458.894 70.584 459.854 73.72 460.126 76.568L461.422 76.056C461.198 73.384 460.062 70.136 458.638 68.296ZM468.222 78.968C467.23 77.8 465.79 76.344 464.638 75.416L463.598 76.328C464.734 77.256 466.11 78.616 467.134 79.896L468.222 78.968ZM484.798 66.168H480.286V67.128H484.798V66.168ZM483.838 75.832V78.504H481.198V75.832H483.838ZM484.878 74.856H480.158V80.2H481.198V79.48H484.878V74.856ZM480.19 73.624H484.83V72.68H480.19V73.624ZM484.83 70.504H480.19V71.448H484.83V70.504ZM479.438 69.272H485.358V68.296H479.438V69.272ZM492.222 78.344H487.518V75.144H492.222V78.344ZM494.142 71.384V70.248H490.398V67.528C491.566 67.336 492.67 67.112 493.566 66.84L492.702 65.88C491.102 66.376 488.254 66.776 485.854 67.016C485.982 67.288 486.158 67.72 486.19 68.008C487.15 67.928 488.174 67.832 489.198 67.704V70.248H485.47V71.384H489.198V74.056H486.398V80.216H487.518V79.416H492.222V80.12H493.406V74.056H490.398V71.384H494.142ZM498.622 66.568C498.718 67.032 498.766 67.592 498.766 68.168C498.766 69.848 498.606 73.848 498.606 76.2C498.606 78.776 500.174 79.736 502.446 79.736C505.934 79.736 507.982 77.752 509.054 76.248L508.174 75.144C507.038 76.792 505.39 78.424 502.478 78.424C501.006 78.424 499.886 77.816 499.886 76.072C499.886 73.704 500.014 69.96 500.078 68.168C500.11 67.656 500.158 67.096 500.238 66.584L498.622 66.568ZM519.358 72.472C520.334 72.36 521.294 72.296 522.286 72.296C523.214 72.296 524.158 72.392 524.958 72.488L524.99 71.272C524.142 71.176 523.166 71.144 522.254 71.144C521.23 71.144 520.19 71.192 519.358 71.272V72.472ZM520.382 68.312C519.422 68.568 518.382 68.76 517.358 68.888L517.598 67.72C517.662 67.4 517.774 66.808 517.886 66.456L516.334 66.328C516.366 66.664 516.334 67.192 516.286 67.64C516.238 67.96 516.158 68.456 516.046 69.032C515.438 69.064 514.878 69.096 514.35 69.096C513.774 69.096 513.198 69.08 512.446 68.984L512.494 70.232C513.054 70.264 513.63 70.296 514.334 70.296C514.782 70.296 515.262 70.28 515.774 70.248C515.646 70.824 515.518 71.4 515.374 71.928C514.782 74.168 513.662 77.384 512.718 79.016L514.126 79.48C514.958 77.752 516.03 74.488 516.606 72.216C516.782 71.544 516.958 70.808 517.102 70.12C518.206 69.992 519.342 69.816 520.382 69.576V68.312ZM518.558 75.016C518.414 75.688 518.318 76.28 518.318 76.888C518.318 78.456 519.63 79.224 522.126 79.224C523.278 79.224 524.334 79.128 525.182 79.016L525.23 77.72C524.27 77.896 523.166 78.024 522.142 78.024C519.886 78.024 519.534 77.304 519.534 76.552C519.534 76.152 519.614 75.656 519.758 75.128L518.558 75.016ZM530.382 67.864L528.846 67.832C528.926 68.216 528.942 68.872 528.942 69.24C528.942 70.168 528.958 72.088 529.118 73.464C529.55 77.576 530.99 79.064 532.478 79.064C533.566 79.064 534.542 78.152 535.486 75.464L534.478 74.312C534.062 75.912 533.326 77.544 532.51 77.544C531.39 77.544 530.622 75.8 530.366 73.144C530.254 71.848 530.238 70.392 530.254 69.4C530.27 68.984 530.318 68.248 530.382 67.864ZM538.638 68.296L537.39 68.728C538.894 70.584 539.854 73.72 540.126 76.568L541.422 76.056C541.198 73.384 540.062 70.136 538.638 68.296ZM548.222 78.968C547.23 77.8 545.79 76.344 544.638 75.416L543.598 76.328C544.734 77.256 546.11 78.616 547.134 79.896L548.222 78.968ZM570.446 74.936V78.504H563.102V74.936H570.446ZM561.934 80.232H563.102V79.576H570.446V80.232H571.662V73.864H561.934V80.232ZM562.766 70.808V71.864H570.782V70.808H562.766ZM566.062 65.656C564.814 67.704 562.142 70.136 559.358 71.544C559.63 71.8 559.95 72.216 560.094 72.488C562.83 71.032 565.422 68.76 566.734 66.808C568.222 68.856 571.022 71.096 573.502 72.392C573.71 72.056 573.998 71.64 574.286 71.368C571.774 70.232 568.958 68.008 567.262 65.656H566.062ZM578.382 67.864L576.846 67.832C576.926 68.216 576.942 68.872 576.942 69.24C576.942 70.168 576.958 72.088 577.118 73.464C577.55 77.576 578.99 79.064 580.478 79.064C581.566 79.064 582.542 78.152 583.486 75.464L582.478 74.312C582.062 75.912 581.326 77.544 580.51 77.544C579.39 77.544 578.622 75.8 578.366 73.144C578.254 71.848 578.238 70.392 578.254 69.4C578.27 68.984 578.318 68.248 578.382 67.864ZM586.638 68.296L585.39 68.728C586.894 70.584 587.854 73.72 588.126 76.568L589.422 76.056C589.198 73.384 588.062 70.136 586.638 68.296ZM599.358 72.472C600.334 72.36 601.294 72.296 602.286 72.296C603.214 72.296 604.158 72.392 604.958 72.488L604.99 71.272C604.142 71.176 603.166 71.144 602.254 71.144C601.23 71.144 600.19 71.192 599.358 71.272V72.472ZM600.382 68.312C599.422 68.568 598.382 68.76 597.358 68.888L597.598 67.72C597.662 67.4 597.774 66.808 597.886 66.456L596.334 66.328C596.366 66.664 596.334 67.192 596.286 67.64C596.238 67.96 596.158 68.456 596.046 69.032C595.438 69.064 594.878 69.096 594.35 69.096C593.774 69.096 593.198 69.08 592.446 68.984L592.494 70.232C593.054 70.264 593.63 70.296 594.334 70.296C594.782 70.296 595.262 70.28 595.774 70.248C595.646 70.824 595.518 71.4 595.374 71.928C594.782 74.168 593.662 77.384 592.718 79.016L594.126 79.48C594.958 77.752 596.03 74.488 596.606 72.216C596.782 71.544 596.958 70.808 597.102 70.12C598.206 69.992 599.342 69.816 600.382 69.576V68.312ZM598.558 75.016C598.414 75.688 598.318 76.28 598.318 76.888C598.318 78.456 599.63 79.224 602.126 79.224C603.278 79.224 604.334 79.128 605.182 79.016L605.23 77.72C604.27 77.896 603.166 78.024 602.142 78.024C599.886 78.024 599.534 77.304 599.534 76.552C599.534 76.152 599.614 75.656 599.758 75.128L598.558 75.016ZM610.382 67.864L608.846 67.832C608.926 68.216 608.942 68.872 608.942 69.24C608.942 70.168 608.958 72.088 609.118 73.464C609.55 77.576 610.99 79.064 612.478 79.064C613.566 79.064 614.542 78.152 615.486 75.464L614.478 74.312C614.062 75.912 613.326 77.544 612.51 77.544C611.39 77.544 610.622 75.8 610.366 73.144C610.254 71.848 610.238 70.392 610.254 69.4C610.27 68.984 610.318 68.248 610.382 67.864ZM618.638 68.296L617.39 68.728C618.894 70.584 619.854 73.72 620.126 76.568L621.422 76.056C621.198 73.384 620.062 70.136 618.638 68.296ZM624.97 79.0909C624.69 79.0909 624.449 78.9905 624.249 78.7898C624.048 78.589 623.947 78.3485 623.947 78.0682C623.947 77.7879 624.048 77.5473 624.249 77.3466C624.449 77.1458 624.69 77.0455 624.97 77.0455C625.25 77.0455 625.491 77.1458 625.692 77.3466C625.893 77.5473 625.993 77.7879 625.993 78.0682C625.993 78.2538 625.946 78.4242 625.851 78.5795C625.76 78.7348 625.637 78.8598 625.482 78.9545C625.33 79.0455 625.16 79.0909 624.97 79.0909ZM629.334 79.0909C629.054 79.0909 628.813 78.9905 628.612 78.7898C628.411 78.589 628.311 78.3485 628.311 78.0682C628.311 77.7879 628.411 77.5473 628.612 77.3466C628.813 77.1458 629.054 77.0455 629.334 77.0455C629.614 77.0455 629.855 77.1458 630.055 77.3466C630.256 77.5473 630.357 77.7879 630.357 78.0682C630.357 78.2538 630.309 78.4242 630.214 78.5795C630.124 78.7348 630 78.8598 629.845 78.9545C629.694 79.0455 629.523 79.0909 629.334 79.0909ZM633.697 79.0909C633.417 79.0909 633.177 78.9905 632.976 78.7898C632.775 78.589 632.675 78.3485 632.675 78.0682C632.675 77.7879 632.775 77.5473 632.976 77.3466C633.177 77.1458 633.417 77.0455 633.697 77.0455C633.978 77.0455 634.218 77.1458 634.419 77.3466C634.62 77.5473 634.72 77.7879 634.72 78.0682C634.72 78.2538 634.673 78.4242 634.578 78.5795C634.487 78.7348 634.364 78.8598 634.209 78.9545C634.057 79.0455 633.887 79.0909 633.697 79.0909ZM81.4662 99.08L81.5302 100.392C81.8662 100.36 82.3462 100.328 82.7462 100.296C83.4342 100.232 86.1862 100.088 86.8902 100.04C85.8822 100.936 83.3862 103.128 81.6582 104.312C80.8582 104.408 79.7862 104.552 78.9382 104.632L79.0502 105.848C80.9382 105.544 83.0502 105.288 84.7462 105.144C83.9302 105.624 82.9062 106.776 82.9062 108.12C82.9062 110.552 85.0182 111.768 88.8902 111.608L89.1462 110.312C88.5862 110.36 87.8022 110.376 86.8742 110.248C85.4342 110.056 84.1542 109.512 84.1542 107.928C84.1542 106.456 85.6582 105.144 87.1942 104.936C88.1382 104.792 89.6582 104.776 91.2102 104.856V103.656C88.9382 103.656 86.0902 103.88 83.6902 104.136C84.9542 103.128 87.2422 101.224 88.4262 100.248C88.6502 100.056 89.0502 99.784 89.2742 99.656L88.4582 98.728C88.2662 98.792 87.9622 98.856 87.5942 98.888C86.6822 99 83.4182 99.128 82.7302 99.128C82.2502 99.144 81.8502 99.128 81.4662 99.08ZM108.538 108.344C107.802 109.144 106.954 109.656 106.154 109.656C105.594 109.656 105.338 109.24 105.338 108.696C105.338 107.096 105.93 104.36 105.93 102.776C105.93 101.48 105.178 100.648 103.69 100.648C102.106 100.648 100.074 102.168 98.8422 103.304C98.8742 103 98.8902 102.696 98.9222 102.408C99.1622 102.024 99.4342 101.592 99.6262 101.304L99.1622 100.744L99.0822 100.776C99.1942 99.672 99.3222 98.776 99.4022 98.392L97.8822 98.344C97.9622 98.744 97.9462 99.16 97.9462 99.528C97.9462 99.704 97.9142 100.264 97.8662 101.016C97.0502 101.144 96.1222 101.24 95.6102 101.272C95.2262 101.304 94.9222 101.304 94.5702 101.288L94.6982 102.616C95.6902 102.488 97.0662 102.296 97.7862 102.216C97.7542 102.712 97.7222 103.224 97.6902 103.736C96.8902 104.984 95.0662 107.448 94.1862 108.552L94.9862 109.656C95.7542 108.6 96.7942 107.08 97.5622 105.912C97.5622 106.152 97.5462 106.36 97.5462 106.52C97.5142 108.28 97.5142 109.064 97.4982 110.584C97.4982 110.84 97.4662 111.304 97.4502 111.528H98.8422C98.8102 111.24 98.7782 110.84 98.7622 110.568C98.6982 109.144 98.6982 108.184 98.6982 106.744C98.6982 106.184 98.7142 105.56 98.7462 104.888C100.202 103.32 102.122 101.832 103.402 101.832C104.202 101.832 104.666 102.216 104.666 103.128C104.666 104.664 104.074 107.272 104.074 109.032C104.074 110.344 104.794 111.048 105.834 111.048C106.922 111.048 107.914 110.568 108.746 109.72L108.538 108.344ZM111.962 98.712C111.962 99.048 111.914 99.464 111.85 99.832C111.658 101.144 111.13 104.168 111.13 106.488C111.13 108.632 111.418 110.376 111.738 111.512L112.874 111.416C112.858 111.256 112.826 111.032 112.826 110.872C112.81 110.68 112.858 110.376 112.906 110.168C113.066 109.384 113.626 107.768 114.026 106.664L113.354 106.136C113.082 106.776 112.714 107.72 112.458 108.44C112.346 107.672 112.314 107.048 112.314 106.28C112.314 104.504 112.778 101.368 113.098 99.896C113.146 99.608 113.274 99.08 113.37 98.824L111.962 98.712ZM120.042 108.536C120.042 109.592 119.658 110.248 118.314 110.248C117.178 110.248 116.41 109.8 116.41 109.016C116.41 108.28 117.226 107.752 118.41 107.752C118.97 107.752 119.514 107.832 120.026 108.008C120.042 108.2 120.042 108.392 120.042 108.536ZM124.362 109.32C123.53 108.584 122.522 107.768 121.242 107.256C121.178 105.928 121.066 104.344 121.05 102.76C121.994 102.696 122.922 102.6 123.786 102.456V101.208C122.938 101.384 122.01 101.512 121.05 101.576C121.066 100.84 121.082 100.104 121.098 99.672C121.114 99.352 121.146 99.032 121.194 98.728H119.738C119.786 99 119.818 99.416 119.818 99.688V101.656C119.322 101.672 118.826 101.688 118.33 101.688C117.402 101.688 116.538 101.64 115.642 101.544V102.76C116.57 102.808 117.402 102.856 118.298 102.856C118.81 102.856 119.306 102.84 119.818 102.824C119.834 104.136 119.93 105.656 119.978 106.872C119.53 106.776 119.034 106.728 118.506 106.728C116.426 106.728 115.242 107.816 115.242 109.144C115.242 110.552 116.41 111.432 118.538 111.432C120.682 111.432 121.29 110.152 121.29 108.84V108.552C122.106 109 122.89 109.624 123.674 110.36L124.362 109.32ZM440.726 100.312C440.39 100.6 440.054 100.808 439.59 101.064C438.726 101.56 437.014 102.392 435.526 103.288C434.838 102.04 434.038 100.328 433.398 98.6L432.134 99.112C432.87 100.84 433.702 102.696 434.438 103.992C432.742 105.176 431.702 106.472 431.702 108.104C431.702 110.472 433.862 111.368 436.838 111.368C438.822 111.368 440.646 111.192 441.846 110.984V109.544C440.614 109.864 438.502 110.088 436.774 110.088C434.278 110.088 433.03 109.272 433.03 107.96C433.03 106.76 433.91 105.72 435.382 104.76C436.934 103.736 439.142 102.696 440.198 102.152C440.662 101.912 441.062 101.704 441.414 101.48L440.726 100.312ZM448.374 99.864L446.838 99.832C446.918 100.216 446.934 100.872 446.934 101.24C446.934 102.168 446.95 104.088 447.11 105.464C447.542 109.576 448.982 111.064 450.47 111.064C451.558 111.064 452.534 110.152 453.478 107.464L452.47 106.312C452.054 107.912 451.318 109.544 450.502 109.544C449.382 109.544 448.614 107.8 448.358 105.144C448.246 103.848 448.23 102.392 448.246 101.4C448.262 100.984 448.31 100.248 448.374 99.864ZM456.63 100.296L455.382 100.728C456.886 102.584 457.846 105.72 458.118 108.568L459.414 108.056C459.19 105.384 458.054 102.136 456.63 100.296ZM472.23 105.64C472.23 108.488 469.51 109.992 465.67 110.472L466.422 111.688C470.534 111.08 473.59 109.128 473.59 105.688C473.59 103.432 471.91 102.168 469.654 102.168C467.846 102.168 466.038 102.68 464.918 102.936C464.454 103.032 463.91 103.128 463.478 103.176L463.878 104.648C464.262 104.504 464.726 104.312 465.206 104.184C466.15 103.912 467.702 103.368 469.526 103.368C471.158 103.368 472.23 104.312 472.23 105.64ZM465.59 98.504L465.382 99.72C467.174 100.04 470.374 100.36 472.134 100.472L472.326 99.24C470.774 99.224 467.334 98.904 465.59 98.504ZM491.526 100.312V99.304H481.558C481.75 98.84 481.926 98.36 482.086 97.864L480.854 97.576C480.198 99.816 478.966 101.864 477.414 103.144C477.734 103.336 478.262 103.704 478.502 103.912C479.478 103 480.374 101.752 481.094 100.312H491.526ZM490.006 102.568V101.576H480.822V102.568H490.006ZM485.126 105.144C484.63 106.04 484.006 106.888 483.286 107.656C482.262 106.968 481.206 106.328 480.23 105.784L479.382 106.568C480.374 107.128 481.43 107.8 482.422 108.504C481.094 109.72 479.526 110.712 477.846 111.432C478.102 111.64 478.55 112.104 478.726 112.344C480.39 111.544 481.974 110.472 483.35 109.176C484.502 110.04 485.494 110.904 486.134 111.64L487.078 110.744C486.39 110.008 485.366 109.144 484.214 108.312C484.982 107.464 485.67 106.536 486.246 105.528L485.126 105.144ZM478.998 103.848V104.872H488.15C488.246 109.24 488.582 112.216 490.694 112.232C491.67 112.216 491.926 111.496 492.038 109.496C491.782 109.336 491.43 109.048 491.206 108.808C491.174 110.152 491.094 111.064 490.774 111.064C489.574 111.064 489.35 107.976 489.334 103.848H478.998ZM498.214 104.568L496.63 105.064V101.928H498.326V100.824H496.63V97.624H495.526V100.824H493.478V101.928H495.526V105.384C494.662 105.656 493.878 105.896 493.254 106.072L493.558 107.208C494.15 107.032 494.822 106.824 495.526 106.584V110.792C495.526 111.016 495.446 111.08 495.238 111.08C495.062 111.096 494.438 111.096 493.75 111.064C493.91 111.4 494.054 111.88 494.102 112.184C495.11 112.2 495.718 112.152 496.086 111.96C496.486 111.768 496.63 111.448 496.63 110.792V106.216L498.374 105.656L498.214 104.568ZM499.926 107.736C500.614 108.568 501.366 109.768 501.67 110.536L502.662 109.944C502.326 109.176 501.542 108.024 500.838 107.192L499.926 107.736ZM508.07 103.896V102.792H503.894V100.76H507.302V99.672H503.894V97.688H502.758V99.672H499.366V100.76H502.758V102.792H498.55V103.896H504.87V105.656H498.742V106.744H504.87V110.776C504.87 111 504.79 111.064 504.566 111.08C504.326 111.096 503.478 111.096 502.582 111.064C502.742 111.4 502.902 111.864 502.95 112.216C504.134 112.216 504.902 112.2 505.382 112.008C505.846 111.832 505.99 111.512 505.99 110.776V106.744H507.958V105.656H505.99V103.896H508.07ZM521.254 99.992C519.318 100.424 516.982 100.68 515.078 100.76C515.158 100.408 515.206 100.088 515.254 99.848C515.334 99.432 515.43 98.936 515.542 98.52L514.118 98.44C514.134 98.872 514.118 99.24 514.038 99.752C514.006 100.024 513.958 100.376 513.878 100.792H513.622C512.662 100.792 511.446 100.664 510.614 100.52L510.63 101.784C511.542 101.864 512.566 101.928 513.638 101.928H513.654C513.254 103.72 512.614 105.992 511.814 107.56L512.998 107.992C513.142 107.704 513.286 107.496 513.494 107.256C514.534 105.992 516.278 105.368 518.166 105.368C520.022 105.368 520.982 106.264 520.982 107.448C520.982 110.04 517.43 110.68 513.782 110.168L514.134 111.432C518.934 111.96 522.294 110.712 522.294 107.416C522.294 105.56 520.822 104.264 518.294 104.264C516.534 104.264 515.238 104.664 513.862 105.64C514.198 104.728 514.566 103.224 514.854 101.896C516.886 101.816 519.414 101.56 521.27 101.224L521.254 99.992ZM527.622 98.888C527.622 99.224 527.558 99.64 527.51 100.008C527.318 101.304 526.806 104.024 526.806 106.36C526.806 108.504 527.062 110.328 527.382 111.448L528.534 111.368L528.486 110.808C528.486 110.632 528.518 110.328 528.566 110.104C528.71 109.352 529.286 107.672 529.686 106.552L528.998 106.04C528.742 106.664 528.39 107.592 528.118 108.312C528.022 107.544 527.99 106.904 527.99 106.136C527.99 104.36 528.454 101.528 528.758 100.072C528.822 99.784 528.966 99.272 529.062 99L527.622 98.888ZM531.526 106.568C531.382 107.24 531.27 107.864 531.27 108.44C531.27 109.928 532.454 110.808 535.11 110.808C536.758 110.808 538.086 110.68 539.062 110.488L539.046 109.144C537.766 109.432 536.55 109.56 535.126 109.56C532.95 109.56 532.47 108.856 532.47 108.136C532.47 107.704 532.534 107.256 532.678 106.68L531.526 106.568ZM532.07 101.528C533.798 101.704 536.87 101.704 538.566 101.528V100.216C536.982 100.44 533.782 100.504 532.054 100.216L532.07 101.528ZM555.606 102.616C554.854 102.04 553.046 101.016 551.894 100.504L551.27 101.496C552.326 101.976 554.038 102.952 554.886 103.672L555.606 102.616ZM549.846 100.216C549.046 100.472 548.214 100.664 547.382 100.792C547.638 99.88 547.846 98.92 548.006 98.344L546.582 98.216C546.55 99.064 546.326 100.072 546.086 100.952C545.478 101 544.886 101.032 544.326 101.032C543.638 101.032 542.966 101 542.374 100.92L542.47 102.12C543.062 102.152 543.718 102.168 544.31 102.168C544.774 102.168 545.238 102.152 545.702 102.12C544.982 103.976 543.638 106.504 542.31 108.04L543.558 108.68C544.822 106.968 546.23 104.216 547.014 101.976C548.054 101.848 549.046 101.64 549.878 101.4L549.846 100.216ZM550.678 109.064C550.678 109.848 550.246 110.568 548.95 110.568C547.718 110.568 547.126 110.072 547.126 109.336C547.126 108.616 547.894 108.088 549.062 108.088C549.622 108.088 550.166 108.168 550.662 108.312C550.678 108.6 550.678 108.856 550.678 109.064ZM550.454 103.24C550.486 104.344 550.566 105.896 550.614 107.192C550.15 107.096 549.638 107.048 549.11 107.048C547.318 107.048 545.942 107.992 545.942 109.448C545.942 111.016 547.366 111.736 549.11 111.736C551.062 111.736 551.894 110.696 551.894 109.432C551.894 109.256 551.894 109.032 551.878 108.792C552.902 109.288 553.75 109.992 554.422 110.6L555.11 109.512C554.294 108.808 553.19 108.024 551.83 107.528C551.798 106.568 551.734 105.528 551.718 104.952C551.702 104.36 551.686 103.896 551.734 103.24H550.454ZM564.742 110.472C563.558 110.472 562.646 110.024 562.646 109.24C562.646 108.696 563.19 108.264 563.91 108.264C565.11 108.264 565.862 109.128 566.006 110.376C565.622 110.44 565.19 110.472 564.742 110.472ZM568.006 98.968C567.83 99.016 567.606 99.048 567.142 99.096C566.31 99.176 562.55 99.288 561.734 99.288C561.414 99.288 560.966 99.288 560.614 99.24L560.646 100.568C560.982 100.504 561.35 100.488 561.718 100.472C562.534 100.424 565.654 100.28 566.486 100.248C565.702 100.952 563.734 102.616 562.854 103.352C561.926 104.12 559.894 105.816 558.582 106.904L559.51 107.848C561.526 105.8 562.966 104.696 565.574 104.696C567.574 104.696 569.142 105.832 569.142 107.384C569.142 108.68 568.422 109.592 567.174 110.072C566.966 108.6 565.894 107.272 563.91 107.272C562.438 107.272 561.462 108.264 561.462 109.352C561.462 110.664 562.79 111.624 564.95 111.624C568.294 111.624 570.422 109.96 570.422 107.4C570.422 105.256 568.518 103.656 565.878 103.656C565.174 103.656 564.454 103.752 563.734 103.992C564.95 102.968 567.078 101.096 567.862 100.504C568.102 100.328 568.454 100.088 568.742 99.896L568.006 98.968ZM575.862 107.096C574.534 107.096 573.43 108.184 573.43 109.528C573.43 110.872 574.534 111.976 575.862 111.976C577.222 111.976 578.31 110.872 578.31 109.528C578.31 108.184 577.222 107.096 575.862 107.096ZM575.862 111.16C574.982 111.16 574.246 110.44 574.246 109.528C574.246 108.648 574.982 107.912 575.862 107.912C576.774 107.912 577.478 108.648 577.478 109.528C577.478 110.44 576.774 111.16 575.862 111.16Z" fill="#5D504F"/>
<path d="M135.498 107.592H137.386V99.096H140.794V97.368H135.498V107.592ZM156.346 103.704V101.736H150.058C150.218 100.248 150.234 98.776 150.25 97.464H148.17C148.154 98.776 148.17 100.232 148.01 101.736H142.186V103.704H147.69C147.066 106.456 145.546 109.112 141.882 110.744C142.442 111.144 143.002 111.832 143.306 112.36C146.698 110.728 148.426 108.232 149.29 105.56C150.538 108.648 152.394 110.984 155.29 112.344C155.594 111.8 156.218 110.952 156.698 110.552C153.706 109.336 151.77 106.824 150.714 103.704H156.346ZM162.25 102.376C162.058 104.008 161.754 105.448 161.29 106.68C160.89 106.392 160.49 106.136 160.106 105.88C160.362 104.776 160.634 103.576 160.874 102.376H162.25ZM163.002 100.584L162.682 100.632H161.242C161.45 99.592 161.642 98.568 161.802 97.624L160.01 97.464C159.866 98.44 159.674 99.528 159.466 100.632H157.882V102.376H159.13C158.746 104.232 158.346 106.024 157.994 107.336L159.546 108.152L159.674 107.656C159.962 107.864 160.25 108.072 160.538 108.312C159.866 109.48 159.002 110.376 157.93 110.936C158.314 111.288 158.81 111.96 159.066 112.44C160.25 111.704 161.21 110.744 161.978 109.512C162.554 110.056 163.066 110.584 163.402 111.032L164.538 109.496C164.138 108.984 163.514 108.408 162.81 107.832C163.546 105.992 163.978 103.672 164.154 100.76L163.002 100.584ZM172.73 103.784H169.21V102.872C170.33 101.816 171.514 100.328 172.362 99.08L171.114 98.136L170.73 98.248H164.474V100.008H169.45C169.002 100.68 168.442 101.384 167.914 101.928H167.322V103.784H163.946V105.576H167.322V110.248C167.322 110.472 167.242 110.536 166.97 110.536C166.714 110.552 165.866 110.536 165.05 110.504C165.322 111.032 165.642 111.848 165.738 112.376C166.906 112.392 167.77 112.328 168.41 112.024C169.034 111.736 169.21 111.224 169.21 110.264V105.576H172.73V103.784ZM176.298 106.504C176.122 107.096 175.914 107.944 175.914 108.664C175.914 110.856 177.738 111.864 180.698 111.864C182.282 111.864 183.898 111.704 184.778 111.56L184.842 109.528C183.722 109.752 182.154 109.88 180.65 109.88C178.586 109.88 177.882 109.208 177.882 108.216C177.882 107.832 178.058 107.16 178.266 106.68L176.298 106.504ZM186.762 101.912C186.058 102.184 185.146 102.456 183.93 102.696L183.562 101.896L183.258 101.208C184.298 101.032 185.162 100.808 185.978 100.568L185.642 98.792C184.698 99.112 183.674 99.352 182.602 99.528C182.394 98.968 182.218 98.424 182.106 97.944L179.85 98.376C180.122 98.808 180.33 99.16 180.618 99.736V99.752C179.21 99.832 177.626 99.768 175.818 99.576L175.914 101.384C177.834 101.576 179.818 101.576 181.37 101.448L181.754 102.344L182.026 102.968C180.234 103.16 178.074 103.16 175.706 102.936L175.786 104.76C178.186 104.936 180.762 104.888 182.746 104.664L183.466 106.312C183.034 106.264 182.41 106.216 181.786 106.136L181.61 107.656C182.666 107.784 184.186 108.024 185.066 108.184L186.01 106.984C185.546 106.12 185.098 105.192 184.698 104.344C185.626 104.152 186.49 103.944 187.146 103.704L186.762 101.912ZM195.002 102.248H193.098V110.744H189.69V112.472H195.002V102.248ZM215.498 107.592H217.386V99.096H220.794V97.368H215.498V107.592ZM226.442 101.144L226.922 100.936C226.826 100.568 226.538 100.072 226.234 99.64C226.778 99.608 227.322 99.576 227.866 99.544C228.17 100.04 228.458 100.648 228.602 101.144H226.442ZM229.45 101.144L230.298 100.824C230.202 100.424 229.946 99.912 229.658 99.432C230.73 99.336 231.77 99.24 232.746 99.112C232.458 99.752 232.01 100.584 231.642 101.144H229.45ZM224.218 102.6H228.058L227.706 102.984C228.506 103.336 229.498 103.912 229.978 104.36L230.938 103.304C230.666 103.08 230.282 102.824 229.85 102.6H234.202V103.944C233.818 103.608 233.418 103.272 233.05 103L231.77 103.896C232.698 104.632 233.754 105.704 234.218 106.456L235.578 105.432C235.338 105.08 234.986 104.68 234.554 104.28H236.09V101.144H233.514C233.898 100.648 234.314 100.072 234.714 99.496L233.274 99.048C234.01 98.936 234.682 98.824 235.322 98.696L234.058 97.432C231.434 97.96 226.794 98.264 222.858 98.344C223.018 98.696 223.194 99.32 223.226 99.72C223.658 99.72 224.09 99.704 224.522 99.688L224.346 99.768C224.65 100.184 224.954 100.696 225.162 101.144H222.41V104.056H224.218V102.6ZM224.17 106.616C225.21 105.944 225.866 104.92 226.314 103.896L224.89 103.288C224.49 104.152 223.77 105.048 222.858 105.544L224.17 106.616ZM231.066 108.168C230.554 108.616 229.946 109 229.242 109.336C228.458 109 227.786 108.616 227.242 108.168H231.066ZM232.65 106.808L232.33 106.856H228.618C228.842 106.632 229.05 106.392 229.242 106.152L229.146 106.12H230.618C231.802 106.12 232.25 105.784 232.426 104.552C231.962 104.472 231.322 104.264 230.97 104.056C230.922 104.712 230.81 104.808 230.41 104.808H228.73C228.202 104.808 228.09 104.776 228.09 104.408V103.304H226.346V104.408C226.346 105.32 226.538 105.8 227.242 105.992C226.09 107.16 224.25 108.104 222.394 108.664C222.778 108.952 223.402 109.592 223.706 109.928C224.41 109.656 225.13 109.304 225.834 108.92C226.266 109.336 226.746 109.704 227.274 110.04C225.722 110.472 223.946 110.728 222.074 110.856C222.394 111.24 222.874 111.992 223.05 112.424C225.258 112.184 227.386 111.752 229.21 111.048C231.002 111.768 233.114 112.2 235.466 112.408C235.706 111.896 236.17 111.128 236.554 110.712C234.634 110.616 232.858 110.392 231.306 110.008C232.346 109.352 233.194 108.552 233.834 107.56L232.65 106.808ZM240.65 98.328C240.794 98.952 240.858 99.72 240.858 100.472C240.858 101.832 240.698 105.992 240.698 108.12C240.698 110.824 242.378 111.96 244.97 111.96C248.586 111.96 250.826 109.848 251.85 108.344L250.41 106.568C249.274 108.296 247.61 109.8 244.986 109.8C243.77 109.8 242.81 109.288 242.81 107.688C242.81 105.72 242.922 102.168 243.002 100.472C243.018 99.832 243.098 99.032 243.21 98.36L240.65 98.328ZM253.974 100.024L254.166 102.2C256.006 101.8 259.35 101.448 260.71 101.304C259.654 102.104 258.374 103.896 258.374 106.184C258.374 109.608 261.51 111.4 264.838 111.624L265.574 109.432C262.902 109.288 260.454 108.36 260.454 105.752C260.454 103.88 261.894 101.832 263.798 101.32C264.646 101.128 266.006 101.112 266.854 101.112L266.838 99.064C265.734 99.112 263.99 99.208 262.358 99.336C259.462 99.592 256.838 99.816 255.526 99.944C255.206 99.976 254.598 100.008 253.974 100.024ZM272.95 99.608L270.518 99.576C270.614 100.056 270.63 100.728 270.63 101.176C270.63 102.152 270.662 103.992 270.806 105.448C271.254 109.704 272.774 111.272 274.502 111.272C275.782 111.272 276.774 110.296 277.83 107.544L276.23 105.624C275.926 106.872 275.302 108.728 274.55 108.728C273.558 108.728 273.078 107.176 272.854 104.888C272.758 103.752 272.742 102.552 272.758 101.528C272.758 101.096 272.838 100.168 272.95 99.608ZM280.87 99.944L278.854 100.616C280.582 102.568 281.43 106.296 281.67 108.84L283.766 108.04C283.59 105.608 282.374 101.784 280.87 99.944ZM292.614 110.04C291.686 110.04 291.014 109.64 291.014 109.048C291.014 108.648 291.398 108.296 291.99 108.296C292.854 108.296 293.446 108.968 293.542 109.992C293.254 110.024 292.95 110.04 292.614 110.04ZM296.102 98.616C295.91 98.664 295.542 98.728 294.886 98.776C293.99 98.856 290.598 98.936 289.766 98.936C289.318 98.936 288.774 98.904 288.326 98.856L288.39 100.92C288.758 100.856 289.254 100.808 289.686 100.792C290.518 100.728 292.694 100.632 293.51 100.616C292.726 101.304 291.078 102.632 290.198 103.368C289.254 104.136 287.35 105.752 286.23 106.664L287.67 108.152C289.366 106.232 290.95 104.936 293.382 104.936C295.222 104.936 296.662 105.896 296.662 107.32C296.662 108.28 296.23 109.016 295.366 109.48C295.126 107.976 293.942 106.776 291.99 106.776C290.31 106.776 289.142 107.96 289.142 109.24C289.142 110.824 290.806 111.832 293.014 111.832C296.838 111.832 298.742 109.848 298.742 107.352C298.742 105.048 296.694 103.368 294.006 103.368C293.494 103.368 293.046 103.4 292.518 103.544C293.51 102.744 295.174 101.336 296.022 100.744C296.374 100.504 296.742 100.264 297.126 100.024L296.102 98.616ZM306.518 102.248H304.614V110.744H301.206V112.472H306.518V102.248ZM327.014 107.592H328.902V99.096H332.31V97.368H327.014V107.592ZM337.958 101.144L338.438 100.936C338.342 100.568 338.054 100.072 337.75 99.64C338.294 99.608 338.838 99.576 339.382 99.544C339.686 100.04 339.974 100.648 340.118 101.144H337.958ZM340.966 101.144L341.814 100.824C341.718 100.424 341.462 99.912 341.174 99.432C342.246 99.336 343.286 99.24 344.262 99.112C343.974 99.752 343.526 100.584 343.158 101.144H340.966ZM335.734 102.6H339.574L339.222 102.984C340.022 103.336 341.014 103.912 341.494 104.36L342.454 103.304C342.182 103.08 341.798 102.824 341.366 102.6H345.718V103.944C345.334 103.608 344.934 103.272 344.566 103L343.286 103.896C344.214 104.632 345.27 105.704 345.734 106.456L347.094 105.432C346.854 105.08 346.502 104.68 346.07 104.28H347.606V101.144H345.03C345.414 100.648 345.83 100.072 346.23 99.496L344.79 99.048C345.526 98.936 346.198 98.824 346.838 98.696L345.574 97.432C342.95 97.96 338.31 98.264 334.374 98.344C334.534 98.696 334.71 99.32 334.742 99.72C335.174 99.72 335.606 99.704 336.038 99.688L335.862 99.768C336.166 100.184 336.47 100.696 336.678 101.144H333.926V104.056H335.734V102.6ZM335.686 106.616C336.726 105.944 337.382 104.92 337.83 103.896L336.406 103.288C336.006 104.152 335.286 105.048 334.374 105.544L335.686 106.616ZM342.582 108.168C342.07 108.616 341.462 109 340.758 109.336C339.974 109 339.302 108.616 338.758 108.168H342.582ZM344.166 106.808L343.846 106.856H340.134C340.358 106.632 340.566 106.392 340.758 106.152L340.662 106.12H342.134C343.318 106.12 343.766 105.784 343.942 104.552C343.478 104.472 342.838 104.264 342.486 104.056C342.438 104.712 342.326 104.808 341.926 104.808H340.246C339.718 104.808 339.606 104.776 339.606 104.408V103.304H337.862V104.408C337.862 105.32 338.054 105.8 338.758 105.992C337.606 107.16 335.766 108.104 333.91 108.664C334.294 108.952 334.918 109.592 335.222 109.928C335.926 109.656 336.646 109.304 337.35 108.92C337.782 109.336 338.262 109.704 338.79 110.04C337.238 110.472 335.462 110.728 333.59 110.856C333.91 111.24 334.39 111.992 334.566 112.424C336.774 112.184 338.902 111.752 340.726 111.048C342.518 111.768 344.63 112.2 346.982 112.408C347.222 111.896 347.686 111.128 348.07 110.712C346.15 110.616 344.374 110.392 342.822 110.008C343.862 109.352 344.71 108.552 345.35 107.56L344.166 106.808ZM351.798 105.8C351.542 106.712 351.35 107.704 351.35 108.408C351.35 110.616 353.062 111.816 356.246 111.816C358.31 111.816 359.638 111.592 360.518 111.432L360.566 109.336C359.398 109.576 358.454 109.8 356.246 109.8C354.006 109.8 353.414 109.016 353.414 107.864C353.414 107.4 353.654 106.488 353.846 105.976L351.798 105.8ZM362.134 99.576C361.126 99.912 360.134 100.168 359.03 100.376C358.678 99.544 358.374 98.792 358.102 97.96L355.862 98.392C356.198 98.952 356.358 99.272 356.646 99.912C356.742 100.152 356.854 100.408 356.982 100.664C355.302 100.824 353.334 100.792 351.062 100.504L351.126 102.536C353.638 102.744 355.862 102.744 357.798 102.536C358.262 103.528 358.806 104.632 359.19 105.432C358.71 105.4 357.846 105.304 357.318 105.256L357.142 106.888C358.31 107.032 359.878 107.288 360.742 107.464L361.862 106.264C361.174 105 360.422 103.496 359.814 102.216C360.774 102.024 361.702 101.8 362.502 101.576L362.134 99.576ZM380.006 107.864C379.302 108.584 378.55 108.984 377.974 108.984C377.574 108.984 377.366 108.712 377.366 108.296C377.366 106.648 377.894 104.328 377.894 102.68C377.894 101.352 377.094 100.344 375.398 100.344C373.862 100.344 372.038 101.608 370.79 102.696C370.806 102.584 370.822 102.472 370.822 102.36C371.094 101.944 371.43 101.432 371.638 101.16L371.046 100.408C371.174 99.416 371.302 98.6 371.398 98.152L369.078 98.088C369.158 98.568 369.142 99.048 369.142 99.496C369.142 99.672 369.11 100.12 369.078 100.712C368.406 100.808 367.718 100.888 367.254 100.92C366.694 100.952 366.326 100.952 365.878 100.936L366.07 102.968C366.966 102.856 368.182 102.696 368.95 102.6L368.886 103.704C367.99 105.032 366.39 107.144 365.494 108.232L366.742 109.992C367.286 109.24 368.054 108.072 368.742 107.064C368.71 108.408 368.71 109.32 368.678 110.552C368.678 110.808 368.662 111.384 368.63 111.72H370.806C370.774 111.368 370.71 110.792 370.694 110.504C370.598 109.016 370.598 107.688 370.598 106.392C370.598 105.992 370.614 105.56 370.63 105.112C371.91 103.688 373.638 102.232 374.822 102.232C375.478 102.232 375.878 102.616 375.878 103.4C375.878 104.84 375.318 107.16 375.318 108.888C375.318 110.408 376.118 111.288 377.302 111.288C378.582 111.288 379.558 110.776 380.278 110.088L380.006 107.864ZM389.286 104.936C390.278 104.808 391.238 104.76 392.342 104.76C393.302 104.76 394.278 104.856 395.062 104.952L395.11 103.048C394.182 102.952 393.222 102.904 392.326 102.904C391.302 102.904 390.166 102.984 389.286 103.064V104.936ZM390.534 99.848C389.67 100.056 388.774 100.232 387.878 100.376L388.006 99.768C388.086 99.416 388.23 98.712 388.342 98.28L385.926 98.088C385.958 98.456 385.942 99.096 385.862 99.688C385.83 99.944 385.782 100.248 385.718 100.6C385.238 100.632 384.774 100.648 384.31 100.648C383.654 100.648 383.126 100.616 382.31 100.52L382.358 102.504C382.918 102.536 383.51 102.568 384.278 102.568C384.598 102.568 384.95 102.552 385.318 102.536C385.206 102.984 385.094 103.432 384.982 103.848C384.39 106.072 383.19 109.4 382.246 110.984L384.47 111.72C385.334 109.864 386.406 106.616 386.982 104.392C387.158 103.752 387.318 103.048 387.462 102.36C388.518 102.232 389.59 102.056 390.534 101.848V99.848ZM388.31 106.872C388.182 107.496 388.038 108.264 388.038 108.984C388.038 110.584 389.398 111.512 392.07 111.512C393.334 111.512 394.406 111.4 395.302 111.288L395.382 109.256C394.246 109.464 393.142 109.576 392.086 109.576C390.39 109.576 389.99 109.064 389.99 108.376C389.99 108.024 390.086 107.496 390.214 107.048L388.31 106.872ZM400.95 99.608L398.518 99.576C398.614 100.056 398.63 100.728 398.63 101.176C398.63 102.152 398.662 103.992 398.806 105.448C399.254 109.704 400.774 111.272 402.502 111.272C403.782 111.272 404.774 110.296 405.83 107.544L404.23 105.624C403.926 106.872 403.302 108.728 402.55 108.728C401.558 108.728 401.078 107.176 400.854 104.888C400.758 103.752 400.742 102.552 400.758 101.528C400.758 101.096 400.838 100.168 400.95 99.608ZM408.87 99.944L406.854 100.616C408.582 102.568 409.43 106.296 409.67 108.84L411.766 108.04C411.59 105.608 410.374 101.784 408.87 99.944ZM418.518 102.248H416.614V110.744H413.206V112.472H418.518V102.248Z" fill="#E06363"/>
</svg>
