<svg width="155" height="79" viewBox="0 0 155 79" fill="none" xmlns="http://www.w3.org/2000/svg">
<rect width="155" height="79" rx="39.5" fill="#FC7B92"/>
<path d="M28.9375 21.5625L47.6875 21.1875V17.0625L56.5 17.25L56.3125 21L74.875 21.375V27.1875L62.875 26.8125V29.625L65.125 27.5625L75.0625 37.125L69.4375 42.9375H69.25C68.625 42.0625 67.5 40.625 65.875 38.625C65 37.625 64 36.5625 62.875 35.4375C63 36.8125 63.0625 37.75 63.0625 38.25C63.0625 39.25 62.8125 40.125 62.3125 40.875C61.6875 41.875 60.25 42.4375 58 42.5625C56.625 42.6875 55 42.6875 53.125 42.5625L50.3125 35.8125L54.4375 36V26.8125L49.9375 27L48.8125 42.5625L40.375 42L41.3125 31.5L35.875 43.125L28.75 39.75L34.9375 28.875L41.5 31.3125L41.6875 27.375L38.5 27.5625L28.75 29.25L28.9375 21.5625ZM34 46.3125L41.125 48L36.625 62.625L28.9375 60L34 46.3125ZM51.0625 45.75L50.6875 54.9375L57.8125 55.125V52.125C55.6875 52.625 54.0625 52.3125 52.9375 51.1875C51.9375 50.1875 51.5 49.0625 51.625 47.8125C51.75 46.1875 52.375 45 53.5 44.25C54.625 43.5 55.6875 43.1875 56.6875 43.3125C58.0625 43.5625 59.125 44.25 59.875 45.375C60.625 46.5 60.875 47.625 60.625 48.75C60.375 49.875 59.6875 50.9375 58.5625 51.9375L64.5625 53.25C64.5625 50.875 65.3125 49.125 66.8125 48C68.9375 46.375 71.0625 46.375 73.1875 48C74.3125 48.875 74.9375 49.9375 75.0625 51.1875C75.3125 52.8125 74.9375 54.25 73.9375 55.5C72.5625 57.25 70.8125 57.875 68.6875 57.375C67.5625 57.125 66.4375 56.3125 65.3125 54.9375C65.0625 57.5625 64.5 59.4375 63.625 60.5625C62.5 61.9375 60.875 62.625 58.75 62.625H49C47 62.625 45.5 62.125 44.5 61.125C43.5 60.25 43.0625 58.75 43.1875 56.625L43.5625 45.5625L51.0625 45.75ZM79.3375 53.25L90.2125 44.625L84.2125 42.375L86.0875 39.75L79.7125 40.3125L80.4625 29.4375L90.2125 28.125L87.9625 25.5L89.275 24.375L85.9 24.75L82.525 18.5625C91.9 17.8125 98.4 17.375 102.025 17.25C107.775 17.125 114.088 17.125 120.963 17.25L121.338 21.75L116.463 21.9375L119.838 24.375L118.15 26.4375C119.775 26.5625 120.9 26.6875 121.525 26.8125C122.65 27.0625 123.463 27.5625 123.963 28.3125C124.713 29.3125 125.15 30.9375 125.275 33.1875C125.4 34.5625 125.4 36.5 125.275 39L119.838 38.8125C121.588 39.8125 122.275 41.25 121.9 43.125C121.65 44.125 121.088 44.9375 120.213 45.5625C119.213 46.1875 118.088 46.3125 116.838 45.9375C115.213 45.3125 114.4 44.125 114.4 42.375C114.4 40.625 115.525 39.375 117.775 38.625V31.3125L107.275 31.5C108.4 31.875 109.15 32.375 109.525 33C110.15 33.875 110.275 34.875 109.9 36C109.525 37.125 108.775 37.9375 107.65 38.4375L109.525 38.25C110.275 38.125 110.9 36.6875 111.4 33.9375L117.025 35.4375C116.025 38.8125 114.65 41 112.9 42C112.025 42.5 110.4 42.8125 108.025 42.9375C105.4 43.0625 103.4 43.0625 102.025 42.9375L98.4625 42.5625L100.713 43.875L98.65 45.5625C102.4 44.6875 106.4 44.25 110.65 44.25C114.275 44.25 116.088 45.4375 116.088 47.8125C116.088 48.9375 115.713 50 114.963 51C114.338 51.75 113.463 52.625 112.338 53.625L125.275 56.4375L122.838 62.8125L105.025 57.9375C101.65 59.5625 97.525 61.125 92.65 62.625L88.525 57.9375L96.9625 54.9375L90.4 52.3125L84.9625 57.1875L79.3375 53.25ZM89.8375 33.5625L94.9 36L91.15 43.875L95.4625 40.6875L97.7125 42C96.5875 41.25 96.025 39.8125 96.025 37.6875C96.025 36.8125 96.025 35.25 96.025 33L101.838 32.8125L102.025 37.5C102.025 38.125 103.4 38.4375 106.15 38.4375C104.65 38.1875 103.713 37.4375 103.338 36.1875C102.838 34.5625 103.4 33.0625 105.025 31.6875L87.4 33.375L86.8375 38.625L89.8375 33.5625ZM97.525 27.5625L100.525 27.1875L98.0875 24L98.65 23.0625L94.3375 23.4375L97.525 27.5625ZM104.65 51.1875C105.9 50.5625 107.088 49.8125 108.213 48.9375C105.463 49.1875 102.775 49.4375 100.15 49.6875C101.65 50.3125 103.15 50.8125 104.65 51.1875ZM108.588 26.8125H108.775L111.775 22.125L105.025 22.5L108.588 26.8125Z" fill="white"/>
</svg>
