<svg width="148" height="148" viewBox="0 0 148 148" fill="none" xmlns="http://www.w3.org/2000/svg">
<rect width="148" height="148" rx="74" fill="#FC7B92"/>
<path d="M56.165 23.25L61.665 26L55.29 35.625L67.665 45.875L70.29 48.125L70.04 48.875L67.665 52.875L67.165 53.5L56.04 43.875L52.165 40.875L47.415 50.25L45.79 53.75C44.04 53.25 42.0817 52.5 39.915 51.5C41.2483 48.6667 42.6233 45.7917 44.04 42.875C45.79 39.375 47.915 35.75 50.415 32L56.165 23.25ZM83.835 32.625L79.21 33.125L79.085 28.5L85.96 28.125L87.585 24.75L92.835 25.875L91.585 28L99.71 27.75V31.875L89.46 32L87.96 35C89.6267 34.25 90.7517 33.7917 91.335 33.625C92.6683 33.2083 93.835 33.0417 94.835 33.125C96.585 33.2083 97.9183 34.0833 98.835 35.75L104.585 33.75L106.96 38.25L99.96 40.125L100.335 45.25L95.46 45.375L95.335 42.875C94.0017 43.4583 93.0433 44 92.46 44.5C91.6267 45.1667 91.21 45.875 91.21 46.625C91.2933 47.4583 91.7517 47.9583 92.585 48.125C93.085 48.2083 93.71 48.2083 94.46 48.125C96.21 47.9583 98.5017 47.1667 101.335 45.75L103.46 50C101.21 51.0833 99.3767 51.7917 97.96 52.125C94.1267 53.125 91.085 53.1667 88.835 52.25C87.4183 51.6667 86.5017 50.6667 86.085 49.25C85.6683 47.75 85.7517 46.25 86.335 44.75C86.9183 43.3333 87.7517 42.125 88.835 41.125C89.7517 40.2917 90.5433 39.7083 91.21 39.375C91.7933 39.0417 92.71 38.6667 93.96 38.25C93.5433 38 93.0017 37.875 92.335 37.875C90.1683 37.875 87.7933 39.0417 85.21 41.375L83.71 45.375L79.085 43.375L83.835 32.625ZM23.33 64.375L24.205 59.125L29.08 59.625L28.205 64C29.455 63.8333 30.33 63.75 30.83 63.75C31.9967 63.8333 32.7883 64.25 33.205 65C33.8717 66.1667 34.08 67.625 33.83 69.375L31.83 81.625L34.205 82L33.705 87L30.955 86.5L30.205 89.625L24.955 88.375L25.705 85.375L23.83 84.75C22.6633 84.3333 21.8717 83.8333 21.455 83.25C21.205 82.8333 21.0383 82.375 20.955 81.875C20.8717 81.2083 20.9133 80.25 21.08 79L22.58 69.125L21.08 69.375L20.705 64.75L23.33 64.375ZM27.08 80.625L28.83 68.375L27.58 68.5L25.58 80.375L27.08 80.625ZM39.705 72.5L39.33 69.375L40.455 69.125L43.33 63.75L34.955 64.375L34.83 59.875L45.58 59.125C47.2467 59.0417 48.3717 59.4583 48.955 60.375C49.3717 60.9583 49.455 61.7917 49.205 62.875C49.0383 63.7917 48.6217 64.7917 47.955 65.875L45.33 70.625L45.205 72.125H51.33L51.58 76.25L45.705 76.375L46.08 82.875C46.2467 86.125 45.5383 88.1667 43.955 89C42.7883 89.5833 40.4967 89.7917 37.08 89.625L35.705 84.375L40.455 84.5L40.08 76.75L33.955 77.625V73.125L39.705 72.5ZM65.875 79.125C66.7083 81.125 67.75 82.4167 69 83C70.25 83.5833 72.25 83.7917 75 83.625C78.0833 83.4583 80.2917 83.0417 81.625 82.375C82.375 82.0417 83.375 81.1667 84.625 79.75L87.875 83.625C86.7917 84.875 85.875 85.7917 85.125 86.375C84.125 87.125 82.9583 87.6667 81.625 88C79.7917 88.4167 77.25 88.5833 74 88.5C71.4167 88.4167 69.2917 88.125 67.625 87.625C65.7917 87.0417 64.3333 86.1667 63.25 85C62.25 83.9167 61.2917 81.9583 60.375 79.125H65.875ZM73.375 70.75L72.625 68.5L62 70L61.25 65.125L71.25 64.375L70.25 61.5L75.5 61L76.375 64L83.875 63.75L84.125 67.625L77.625 68L78.375 70.5L86.5 70.25L87 74.25L79.625 74.75L80.625 78L75.625 78.875L74.625 75.25C71.9583 75.5 69.9583 75.7083 68.625 75.875C66.5417 76.2083 64.0833 76.625 61.25 77.125L60.625 72L73.375 70.75ZM105.67 61.75C104.837 67.25 104.337 71.2917 104.17 73.875C104.003 76.375 103.962 80.9583 104.045 87.625L98.42 88.25C98.5033 80.75 98.67 75.5 98.92 72.5C99.2533 69.25 99.7533 65.375 100.42 60.875L105.67 61.75ZM110.42 77.25C110.42 78.5833 110.545 79.5417 110.795 80.125C111.128 81.2083 111.92 81.9167 113.17 82.25C114.587 82.6667 116.128 82.7083 117.795 82.375C118.712 82.2083 119.545 81.9583 120.295 81.625C121.295 81.2083 122.503 80.5 123.92 79.5L126.17 84.5C123.67 86 121.462 86.9583 119.545 87.375C115.628 88.2917 112.378 88.0833 109.795 86.75C108.045 85.8333 106.753 84.4167 105.92 82.5C105.503 81.5 105.212 79.875 105.045 77.625L110.42 77.25ZM115.545 62.75C117.545 62.6667 120.628 62.625 124.795 62.625L124.67 67C120.087 67.0833 116.67 67.2917 114.42 67.625C113.17 67.7917 111.128 68.2083 108.295 68.875L107.795 63.5C110.878 63.1667 113.462 62.9167 115.545 62.75ZM45.915 101L47.665 96.625L52.665 97.625L51.415 100.75L55.79 100.625L55.54 104.25L49.915 104.75L45.915 118L41.165 116.375L44.29 105.5L41.165 106.125V101.5L45.915 101ZM58.165 104.875L63.415 105.25L63.665 109.75L69.04 111.625L67.665 116.625L63.79 115C63.7067 117.25 63.3733 118.917 62.79 120C61.9567 121.417 60.79 122.583 59.29 123.5C57.79 124.333 56.2483 124.75 54.665 124.75C51.7483 124.667 49.7067 123.458 48.54 121.125C47.3733 118.792 47.3317 116.583 48.415 114.5C49.3317 112.75 50.8317 111.458 52.915 110.625C54.2483 110.125 56.2067 109.708 58.79 109.375L58.165 104.875ZM57.915 118.625C58.5817 117.792 58.9567 116.458 59.04 114.625C57.54 114.542 56.415 114.583 55.665 114.75C54.4983 115 53.665 115.583 53.165 116.5C52.8317 117.083 52.79 117.708 53.04 118.375C53.3733 119.208 53.915 119.708 54.665 119.875C55.915 120.208 56.9983 119.792 57.915 118.625ZM60.54 96.625L69.04 101.75L66.415 105.25L57.54 99.75L60.54 96.625ZM93.085 101.25L83.96 102.625L84.085 97.625L96.46 96.625C97.6267 96.5417 98.5433 96.5417 99.21 96.625C99.96 96.7083 100.543 97.0833 100.96 97.75C101.377 98.5 101.46 99.3333 101.21 100.25C100.96 101.167 100.502 101.833 99.835 102.25L94.96 105.625C96.8767 105.375 98.5017 105.292 99.835 105.375C101.418 105.542 102.71 106.083 103.71 107C105.043 108.167 105.835 109.708 106.085 111.625C106.335 113.375 106.127 115.083 105.46 116.75C104.377 119.5 102.377 121.542 99.46 122.875C97.46 123.792 95.585 124.333 93.835 124.5C92.0017 124.667 90.2933 124.5 88.71 124C86.3767 123.25 85.085 121.833 84.835 119.75C84.585 117.583 85.335 115.792 87.085 114.375C88.1683 113.542 89.46 113 90.96 112.75C92.71 112.5 94.3767 112.583 95.96 113C97.71 113.5 98.835 114.667 99.335 116.5C100.502 115.25 101.002 114.042 100.835 112.875C100.585 111.292 99.71 110.25 98.21 109.75C96.96 109.333 95.3767 109.375 93.46 109.875C91.46 110.375 89.5433 111.083 87.71 112C86.5433 112.583 85.0433 113.417 83.21 114.5L79.96 109.75L93.085 101.25ZM91.46 119.875C92.6267 120.208 94.0017 120 95.585 119.25C95.1683 118.167 94.585 117.458 93.835 117.125C93.1683 116.792 92.46 116.708 91.71 116.875C90.96 117.042 90.4183 117.417 90.085 118C89.6683 118.833 90.1267 119.458 91.46 119.875Z" fill="white"/>
</svg>
