<svg width="174" height="65" viewBox="0 0 174 65" fill="none" xmlns="http://www.w3.org/2000/svg">
<rect width="174" height="65" rx="32.5" fill="#44AE7D"/>
<path d="M50.9844 23.3438L55.7656 23.625L55.2031 35.4375L50.5625 34.875L50.9844 23.3438ZM56.3281 15.1875L61.6719 15.3281L61.3906 22.0781L63.6406 23.625L65.0469 17.5781L69.6875 18.8438L69.125 22.2188L71.5156 22.3594L71.7969 15.0469L77.4219 15.1875L77.2812 22.2188L84.0312 22.3594V26.7188L77 26.8594L76.8594 32.9062L82.7656 32.7656L82.9062 32.9062V37.125L76.8594 37.2656V43.7344H85.0156L84.875 48.2344L77.1406 48.375L69.8281 48.7969L62.375 49.3594L62.5156 44.1562L71.0938 43.7344L71.2344 37.6875L65.0469 38.3906L65.1875 33.3281L71.2344 33.0469L71.375 27.1406L68 27.4219L66.875 32.625L62.375 31.2188L62.0938 31.0781L62.5156 29.1094L61.25 27.9844L61.1094 44.5781V49.3594H55.625L55.9062 26.5781L56.3281 15.1875ZM102.847 19.125L103.409 15.3281L109.175 15.1875L108.753 19.125L122.534 18.9844L122.956 23.625H114.659L122.956 31.7812L118.316 35.5781L115.503 32.0625L110.722 36L122.253 45.4219L117.331 49.5L111.566 44.8594L105.659 39.9375L94.2687 49.2188L89.4875 44.7188L95.675 40.0781L101.019 36.1406L96.5187 32.625L93.425 36L88.7844 31.9219L96.3781 24.3281L88.6437 25.1719L89.0656 19.6875L102.847 19.125ZM105.941 32.0625L111.284 27.8438L108.612 25.1719L110.862 23.4844L101.441 23.7656L103.55 25.5938L100.878 28.125L105.941 32.0625Z" fill="white"/>
</svg>
