<svg width="174" height="65" viewBox="0 0 174 65" fill="none" xmlns="http://www.w3.org/2000/svg">
<rect width="174" height="65" rx="32.5" fill="#44AE7D"/>
<path d="M50.7031 33.0469C50.7969 32.5781 51.2656 30.4219 52.1094 26.5781L54.5 16.1719L60.6875 17.2969L59.5625 22.6406L64.9062 22.5L65.1875 14.9062L71.5156 15.0469L71.0938 22.3594L82.3438 22.0781V27.1406L71.0938 27.4219V32.625L79.6719 32.4844V37.4062H73.2031L71.0938 37.5469V42.3281H85.1562V47.3906L69.6875 47.5312L58.0156 48.375L50.9844 49.0781L51.2656 43.0312L64.4844 42.6094L64.625 37.8281L56.3281 38.3906L56.6094 34.3125L50.7031 33.0469ZM64.625 32.7656L64.7656 27.8438L58.2969 28.4062L57.3125 33.0469L64.625 32.7656ZM90.4719 25.3125L97.6437 24.8906V21.7969L88.6437 22.6406L88.925 18L102.706 17.5781L103.269 15.0469H109.175L108.612 17.7188H122.534L122.253 21.6562L114.378 21.5156L113.675 24.4688L122.675 24.3281L122.956 28.4062C120.519 28.3125 118.269 28.2656 116.206 28.2656C113.394 28.2656 111.003 28.3125 109.034 28.4062C105.659 28.5938 102.331 28.875 99.05 29.25L103.128 30.5156L102.425 32.0625L106.081 31.9219L106.222 29.6719H111.987V31.6406H119.441V35.4375H111.847V37.6875L117.331 37.4062L117.472 41.625L111.706 41.4844V43.7344H121.972L121.691 47.8125C116.909 47.8125 113.019 47.8594 110.019 47.9531C106.644 48.0469 101.675 48.3281 95.1125 48.7969L95.2531 44.0156L105.519 43.7344L105.659 41.625L99.6125 42.1875L99.8937 38.1094L105.8 37.8281L105.941 35.8594L100.456 36.1406L98.2062 41.625L94.55 40.0781L93.9875 49.0781L88.5031 48.6562L90.4719 25.3125ZM98.3469 29.25L95.2531 29.6719L94.6906 37.2656L98.3469 29.25ZM107.909 24.6094L108.612 21.5156H103.269L103.128 24.75L107.909 24.6094Z" fill="white"/>
</svg>
