<svg width="212" height="65" viewBox="0 0 212 65" fill="none" xmlns="http://www.w3.org/2000/svg">
<rect width="212" height="65" rx="32.5" fill="#44AE7D"/>
<path d="M54.5 36.2812L59.4219 37.9688L56.3281 47.9531L50.5625 45.4219L54.5 36.2812ZM55.4844 15.1875L76.4375 15.0469C78.5 15.0469 79.9062 15.4219 80.6562 16.1719C81.6875 17.2031 82.25 18.75 82.3438 20.8125L82.625 32.0625C76.4375 31.9688 70.5312 31.9688 64.9062 32.0625C62.5625 32.0625 58.7656 32.2031 53.5156 32.4844L55.4844 15.1875ZM65.0469 27.9844L65.3281 25.3125L60.5469 25.5938L60.2656 28.2656L65.0469 27.9844ZM67.1562 35.7188L66.875 43.4531L70.9531 43.5938L71.2344 40.0781L77.4219 41.0625C77.4219 43.9688 77.2344 45.8906 76.8594 46.8281C76.4844 47.8594 75.5469 48.5625 74.0469 48.9375C72.8281 49.2188 71.375 49.3125 69.6875 49.2188L65.8906 49.0781C64.1094 48.9844 62.8906 48.7969 62.2344 48.5156C61.1094 47.9531 60.5938 46.5 60.6875 44.1562L61.1094 35.8594L67.1562 35.7188ZM65.4688 21.7969L65.6094 21.6562L65.75 19.2656L61.1094 19.4062L60.8281 21.7969H65.4688ZM68.9844 38.5312C68.2344 37.6875 67.9531 36.75 68.1406 35.7188C68.2344 34.5 68.75 33.6094 69.6875 33.0469C70.7188 32.3906 71.8438 32.3438 73.0625 32.9062C74.5625 33.5625 75.1719 34.7812 74.8906 36.5625C74.7969 37.4062 74.4219 38.1562 73.7656 38.8125C73.1094 39.4688 72.3594 39.7969 71.5156 39.7969C70.5781 39.7969 69.7344 39.375 68.9844 38.5312ZM75.5938 28.125V25.4531L70.6719 25.1719V28.2656L75.5938 28.125ZM75.5938 21.7969V19.125H71.0938L70.8125 21.7969H75.5938ZM79.1094 44.4375C78.0781 43.7812 77.5625 42.8906 77.5625 41.7656C77.5625 39.6094 78.4531 38.3906 80.2344 38.1094C81.2656 37.9219 82.2031 38.1094 83.0469 38.6719C83.8906 39.2344 84.4062 39.9375 84.5938 40.7812C84.7812 41.7188 84.6875 42.5625 84.3125 43.3125C83.8438 44.25 83.0469 44.8125 81.9219 45C80.7969 45.1875 79.8594 45 79.1094 44.4375ZM92.7219 33.0469L88.7844 33.8906L88.6437 28.8281L95.3937 28.4062L96.3781 26.7188L91.8781 27.1406L92.1594 22.2188L99.05 22.0781L99.8937 20.6719L88.7844 21.6562L88.6437 16.875L102.284 16.5938L103.409 14.7656L109.597 15.0469L108.894 16.4531H122.956V20.25L106.362 20.6719L105.519 22.0781L119.581 21.9375L119.862 25.875L103.128 26.2969L102.144 27.9844L122.816 27.7031L122.956 31.7812H116.628L123.097 37.5469L120.144 42.75L115.925 38.8125L116.909 47.9531L101.159 48.7969L94.8312 49.0781L95.5344 39.5156L93.425 43.5938L88.5031 40.7812L92.7219 33.0469ZM110.862 33.8906L108.612 31.7812L99.6125 32.2031L98.6281 34.1719L110.862 33.8906ZM111.144 44.1562V42.4688L100.878 42.75V44.4375L111.144 44.1562ZM110.862 38.9531L110.722 37.4062L101.159 37.6875L101.019 39.0938L110.862 38.9531ZM160.475 45.1406C160.475 46.1719 160.1 47.0156 159.35 47.6719C158.6 48.3281 157.569 48.75 156.256 48.9375C155.506 49.0312 154.194 49.0312 152.319 48.9375L151.756 44.1562L154.709 44.0156L154.85 36.9844L149.787 37.2656L149.506 49.0781H144.022L144.444 40.9219H139.944L144.022 45.2812L139.662 48.5156L135.725 43.3125L137.834 41.0625L133.053 41.4844L135.022 42.8906L134.881 43.4531L130.522 49.0781H130.1L126.303 46.125L129.397 42.0469L126.725 42.3281L126.584 37.5469L129.116 37.2656L129.537 23.625L126.444 23.9062V19.5469L129.819 19.2656L129.959 15.1875H134.459L134.319 18.8438L137.553 18.7031L137.694 15.1875H142.053V18.5625H144.444V22.5H142.053V36.4219H144.303L144.444 40.5L146.131 16.4531C149.506 15.7969 152.412 15.4219 154.85 15.3281C156.069 15.2344 157.006 15.3281 157.662 15.6094C158.131 15.7969 158.6 16.1719 159.069 16.7344C159.537 17.2969 159.819 17.8125 159.912 18.2812C160.1 18.8438 160.241 23.9531 160.334 33.6094L160.475 45.1406ZM137.412 36.5625V34.4531L133.756 34.5938V36.8438L137.412 36.5625ZM137.412 30.5156V28.2656L133.756 28.4062V30.7969L137.412 30.5156ZM137.412 24.75V22.7812L134.037 23.0625L133.897 25.0312L137.412 24.75ZM154.85 32.0625V28.6875L150.35 28.8281L150.209 32.4844L154.85 32.0625ZM154.85 24.3281L154.709 20.5312L150.912 20.8125L150.491 24.4688L154.85 24.3281Z" fill="white"/>
</svg>
