<svg width="90" height="90" viewBox="0 0 90 90" fill="none" xmlns="http://www.w3.org/2000/svg">
<circle cx="45" cy="45" r="45" fill="#2B79CA"/>
<path d="M37.3636 53.4545V52.3636C37.3636 49.8636 37.5606 47.8712 37.9545 46.3864C38.3485 44.9015 38.9318 43.7121 39.7045 42.8182C40.4773 41.9091 41.4242 41.0909 42.5455 40.3636C43.5152 39.7273 44.3788 39.1136 45.1364 38.5227C45.9091 37.9318 46.5152 37.303 46.9545 36.6364C47.4091 35.9697 47.6364 35.2121 47.6364 34.3636C47.6364 33.6061 47.4545 32.9394 47.0909 32.3636C46.7273 31.7879 46.2348 31.3409 45.6136 31.0227C44.9924 30.7045 44.303 30.5455 43.5455 30.5455C42.7273 30.5455 41.9697 30.7348 41.2727 31.1136C40.5909 31.4924 40.0379 32.0151 39.6136 32.6818C39.2045 33.3485 39 34.1212 39 35H27.3636C27.3939 31.6667 28.1515 28.9621 29.6364 26.8864C31.1212 24.7955 33.0909 23.2652 35.5455 22.2955C38 21.3106 40.697 20.8182 43.6364 20.8182C46.8788 20.8182 49.7727 21.2955 52.3182 22.25C54.8636 23.1894 56.8712 24.6136 58.3409 26.5227C59.8106 28.4167 60.5455 30.7879 60.5455 33.6364C60.5455 35.4697 60.2273 37.0833 59.5909 38.4773C58.9697 39.8561 58.0985 41.0758 56.9773 42.1364C55.8712 43.1818 54.5758 44.1364 53.0909 45C52 45.6364 51.0833 46.2955 50.3409 46.9773C49.5985 47.6439 49.0379 48.4091 48.6591 49.2727C48.2803 50.1212 48.0909 51.1515 48.0909 52.3636V53.4545H37.3636ZM42.9091 68.7273C41.1515 68.7273 39.6439 68.1136 38.3864 66.8864C37.1439 65.6439 36.5303 64.1364 36.5455 62.3636C36.5303 60.6364 37.1439 59.1591 38.3864 57.9318C39.6439 56.7045 41.1515 56.0909 42.9091 56.0909C44.5758 56.0909 46.0455 56.7045 47.3182 57.9318C48.6061 59.1591 49.2576 60.6364 49.2727 62.3636C49.2576 63.5455 48.947 64.6212 48.3409 65.5909C47.75 66.5455 46.9773 67.3106 46.0227 67.8864C45.0682 68.447 44.0303 68.7273 42.9091 68.7273Z" fill="white"/>
</svg>
