<svg width="222" height="44" viewBox="0 0 222 44" fill="none" xmlns="http://www.w3.org/2000/svg">
<rect width="222" height="44" rx="10" fill="#FCFF61"/>
<path d="M32.29 13.8602L23.82 28.0002C23.6454 28.3026 23.553 28.6455 23.552 28.9947C23.551 29.3439 23.6415 29.6873 23.8144 29.9907C23.9874 30.2941 24.2367 30.547 24.5377 30.7241C24.8387 30.9012 25.1808 30.9964 25.53 31.0002H42.47C42.8192 30.9964 43.1613 30.9012 43.4623 30.7241C43.7633 30.547 44.0127 30.2941 44.1856 29.9907C44.3585 29.6873 44.449 29.3439 44.448 28.9947C44.4471 28.6455 44.3547 28.3026 44.18 28.0002L35.71 13.8602C35.5318 13.5663 35.2807 13.3233 34.9812 13.1547C34.6817 12.9861 34.3438 12.8975 34 12.8975C33.6563 12.8975 33.3184 12.9861 33.0188 13.1547C32.7193 13.3233 32.4683 13.5663 32.29 13.8602V13.8602Z" stroke="black" stroke-width="2.5" stroke-linecap="round" stroke-linejoin="round"/>
<path d="M34 19V23" stroke="black" stroke-width="2" stroke-linecap="round" stroke-linejoin="round"/>
<path d="M34 27H34.01" stroke="black" stroke-width="2" stroke-linecap="round" stroke-linejoin="round"/>
<path d="M68.8672 23.7109C69.8516 23.4297 70.6484 23.5234 71.2578 23.9922C71.9609 24.5078 72.2422 25.2578 72.1016 26.2422C71.9609 27.0859 71.5156 27.6484 70.7656 27.9297C69.9688 28.1641 69.2891 28.1172 68.7266 27.7891C68.1641 27.4141 67.7891 26.7812 67.6016 25.8906L65.3516 29.6172L62.3281 28.1406C63.5 26.2188 64.6953 24.2266 65.9141 22.1641C66.8516 20.4297 67.7656 18.7188 68.6562 17.0312L56.9844 19.1406L56.4219 15.9766L66.6172 14.4297C68.3984 14.1484 69.6641 14.125 70.4141 14.3594C71.2578 14.6406 71.7734 15.2969 71.9609 16.3281C72.1016 17.2188 71.8438 18.2734 71.1875 19.4922L68.8672 23.7109ZM69.0078 26.9453C69.3359 27.2266 69.7578 27.3203 70.2734 27.2266C70.8828 27.0391 71.2344 26.5703 71.3281 25.8203C71.3281 25.3984 71.1875 25.0469 70.9062 24.7656C70.5781 24.5312 70.25 24.4141 69.9219 24.4141C69.4062 24.4141 69.0312 24.5781 68.7969 24.9062C68.5625 25.2344 68.4688 25.6094 68.5156 26.0312C68.5625 26.4062 68.7266 26.7109 69.0078 26.9453ZM87.1484 24.3438C86.4922 25.6562 85.4141 27.4141 83.9141 29.6172L80.8203 28.3516C81.9453 26.6641 82.7422 25.3516 83.2109 24.4141C83.8672 23.1484 84.4766 21.8828 85.0391 20.6172C82.6016 20.8047 80.6797 20.9922 79.2734 21.1797C78.0078 21.3672 75.8984 21.7188 72.9453 22.2344L73.0859 19.1406C79.7422 18.2031 83.7266 17.7344 85.0391 17.7344C87.3828 17.7344 88.5547 18.6016 88.5547 20.3359C88.5547 21.2266 88.0859 22.5625 87.1484 24.3438ZM79.625 14.0078C81.9219 13.9141 84.5 13.8672 87.3594 13.8672V16.4688C85.0156 16.4688 82.9297 16.5156 81.1016 16.6094C79.9297 16.6562 77.5391 16.9141 73.9297 17.3828L74.0703 14.3594C76.4609 14.1719 78.3125 14.0547 79.625 14.0078ZM95.5156 17.7344C97.6719 16.3281 99.8047 14.9688 101.914 13.6562L104.305 15.8359L99.2422 19.0703L98.75 29.4062L95.4453 29.3359L96.0078 21.3203L90.875 25.6094L89.1172 22.375C91.1797 20.8281 93.3125 19.2812 95.5156 17.7344ZM118.789 21.6719L121.602 24.9766L119.211 27.5781C117.992 26.0781 116.727 24.5781 115.414 23.0781C114.195 21.7188 113.023 20.4531 111.898 19.2812L107.609 25.9609L104.867 23.7812L107.398 19.9844C108.242 18.7188 108.992 17.7344 109.648 17.0312C110.492 16.0938 111.406 15.6953 112.391 15.8359C113.141 15.9297 113.844 16.3281 114.5 17.0312L115.625 18.2266L118.789 21.6719ZM117.734 14.9922L118.93 18.3672L117.031 18.9297L116.047 15.2734L117.734 14.9922ZM119.773 14.4297L121.109 17.8047L119.422 18.2266L118.227 14.8516L119.773 14.4297ZM122.375 20.2656L137.422 20.0547L137.352 22.375C133.93 22.4688 130.859 22.5859 128.141 22.7266C127.156 22.8203 125.234 23.0312 122.375 23.3594V20.2656ZM138.758 13.8672H142.062L141.781 20.4766L142.766 18.5781L150.992 21.9531L149.656 24.7656C148.344 24.1094 147.008 23.4531 145.648 22.7969C144.289 22.2344 143 21.7188 141.781 21.25L141.641 29.3359H138.336L138.758 13.8672ZM154.578 14.6406L157.109 20.1953L154.016 21.3203L151.484 15.8359L154.578 14.6406ZM160.695 20.9688C161.445 19.3281 162.406 16.9141 163.578 13.7266L166.672 14.7812C165.359 18.2969 164.188 21.1328 163.156 23.2891C162.312 25.0703 161.234 27.1328 159.922 29.4766L156.969 27.7891C158.844 24.6016 160.086 22.3281 160.695 20.9688ZM165.969 23.4297L167.164 26.1719L165.547 26.7344L164.352 23.8516L165.969 23.4297ZM164.211 24.4141L165.336 27.1562L163.789 27.7891L162.594 24.9062L164.211 24.4141ZM167.727 20.2656L182.773 20.0547L182.703 22.375C179.281 22.4688 176.211 22.5859 173.492 22.7266C172.508 22.8203 170.586 23.0312 167.727 23.3594V20.2656ZM185.445 13.5156L191.352 16.6094L189.383 19.6328L183.547 16.1172L185.445 13.5156ZM197.328 19L198.875 21.8125L186.5 29.7578L184.32 26.8047L197.328 19Z" fill="black"/>
</svg>
