<svg width="194" height="94" viewBox="0 0 194 94" fill="none" xmlns="http://www.w3.org/2000/svg">
<path d="M1.47498 12.9999L37.85 12.6249L38.225 2.1249L55.85 2.4999L55.1 12.6249L91.85 12.9999L91.1 26.4999L44.6 25.7499L41.975 33.6249H59.225C62.725 33.8749 65.6 34.1249 67.85 34.3749C70.1 34.8749 71.85 35.7499 73.1 36.9999C76.1 39.9999 77.6 45.1249 77.6 52.3749V80.1249C77.6 82.1249 76.725 84.7499 74.975 87.9999C73.725 90.2499 70.6 91.7499 65.6 92.4999C61.85 92.9999 56.725 93.1249 50.225 92.8749L44.225 76.7499L60.725 76.3749L59.6 47.4999L37.85 48.6249L25.475 92.4999L8.22498 87.9999L23.225 38.8749L26.6 27.2499C17.85 27.9999 9.09998 28.8749 0.349976 29.8749L1.47498 12.9999Z" fill="white"/>
<path d="M119.525 70.3749L121.4 54.2499L105.65 55.7499V41.1249L148.025 39.2499V51.9999L136.775 52.3749L135.65 66.6249L152.15 60.9999L152.9 74.4999C145.4 76.7499 137.9 79.1249 130.4 81.6249C122.15 84.6249 114.4 87.6249 107.15 90.6249L100.4 76.7499L119.525 70.3749ZM147.65 19.7499L146.9 2.1249L163.775 1.7499V20.1249L192.65 20.8749V32.8749L166.025 32.1249C166.775 36.8749 167.65 40.9999 168.65 44.4999C170.15 50.9999 173.025 59.1249 177.275 68.8749H177.65L182.525 58.3749L193.025 69.9999C191.775 73.9999 190.15 78.2499 188.15 82.7499C187.15 85.2499 185.9 87.3749 184.4 89.1249C182.65 91.3749 181.025 92.6249 179.525 92.8749C174.775 93.8749 170.025 90.2499 165.275 81.9999C162.275 76.4999 159.4 69.4999 156.65 60.9999C154.4 53.7499 152.025 44.1249 149.525 32.1249L100.775 35.8749L100.4 19.7499H147.65ZM170.525 5.1249C172.275 1.8749 175.4 0.499902 179.9 0.999902C184.4 1.4999 187.15 3.8749 188.15 8.1249C188.65 10.1249 188.525 12.1249 187.775 14.1249C186.775 16.6249 185.15 18.2499 182.9 18.9999C180.65 19.7499 178.275 19.7499 175.775 18.9999C172.525 17.9999 170.525 15.9999 169.775 12.9999C169.025 10.2499 169.275 7.6249 170.525 5.1249Z" fill="white"/>
</svg>
