<svg width="587" height="87" viewBox="0 0 587 87" fill="none" xmlns="http://www.w3.org/2000/svg">
<path d="M35.5 50.25L32.875 35.25L5.125 39.375L4.75 23.25L30.25 21.375L26.5 2.625L44.125 0.75L47.875 20.625L77.125 19.125L77.875 33L49.75 33.75L52.75 49.875L83.875 49.5L84.25 63.75H55L58 84L40 85.5L37.75 64.875L1.375 69L0.625 52.5L35.5 50.25Z" fill="#4C63DC"/>
<path d="M125.8 45.75L120.55 35.625L132.175 32.25L137.425 42.375L153.55 38.25C161.05 36.25 166.3 36.875 169.3 40.125C172.55 43.625 172.925 48.75 170.425 55.5L165.925 67.5L153.55 61.875L158.8 49.5L143.05 53.625L155.05 81.75L143.05 85.5L131.425 57.375L119.05 61.875L114.175 49.125L125.8 45.75Z" fill="#4C63DC"/>
<path d="M278.725 58.5C275.225 65.5 269.475 74.875 261.475 86.625L244.975 79.875C250.975 70.875 255.225 63.875 257.725 58.875C261.225 52.125 264.475 45.375 267.475 38.625C254.475 39.625 244.225 40.625 236.725 41.625C229.975 42.625 218.725 44.5 202.975 47.25L203.725 30.75C239.225 25.75 260.475 23.25 267.475 23.25C279.975 23.25 286.225 27.875 286.225 37.125C286.225 41.875 283.725 49 278.725 58.5ZM238.6 3.375C250.85 2.875 264.6 2.625 279.85 2.625V16.5C267.35 16.5 256.225 16.75 246.475 17.25C240.225 17.5 227.475 18.875 208.225 21.375L208.975 5.25C221.725 4.25 231.6 3.625 238.6 3.375Z" fill="#4C63DC"/>
<path d="M330.4 0.75L345.775 5.25L343.15 11.25L362.275 9C366.275 8.5 369.15 8.375 370.9 8.625C373.65 8.875 375.775 9.75 377.275 11.25C380.525 14.25 381.65 18.375 380.65 23.625C380.4 25.625 379.775 27.75 378.775 30C375.275 39 371.15 47.875 366.4 56.625L350.275 86.25L333.775 79.875C340.525 68.375 345.525 59.375 348.775 52.875C352.025 46.375 356.15 37 361.15 24.75L334.15 28.5L322.525 57.375L307.15 52.125L330.4 0.75Z" fill="#4C63DC"/>
<path d="M433.075 0.75L448.825 6.375L444.7 12.375L469.45 9.375C476.2 8.625 481.075 10 484.075 13.5C485.825 15.5 486.325 18.5 485.575 22.5C484.575 27.25 482.7 31.75 479.95 36L469.45 52.125L480.325 57.75L471.7 72L460.825 65.25L445.825 85.5L430.075 78.375L445.45 57L427.075 47.625L436.825 34.875L454.075 43.875L464.575 25.5L433.45 29.25L417.325 55.5L402.325 47.25L433.075 0.75Z" fill="#4C63DC"/>
<path d="M506.5 36.75L586.75 35.625L586.375 48C568.125 48.5 551.75 49.125 537.25 49.875C532 50.375 521.75 51.5 506.5 53.25V36.75Z" fill="#4C63DC"/>
</svg>
