<svg width="723" height="173" viewBox="0 0 723 173" fill="none" xmlns="http://www.w3.org/2000/svg">
<path d="M24.3781 137.117L47.4021 125.256L49.6558 117.609L25.8981 131.46L11.2125 86.1989L11.2388 85.3608L59.8275 60.8802C64.0359 58.6634 67.6417 57.8259 70.6448 58.3677C73.9797 59.0318 76.4938 60.9005 78.187 63.9739L94.1583 95.013L66.8911 108.418L65.9994 115.437C74.1892 111.109 81.1741 107.748 86.954 105.357C91.3719 103.595 95.0649 103.543 98.0329 105.202C100.006 106.494 102.101 109.245 104.317 113.453L110.627 126.236C112.32 129.309 112.163 132.548 110.154 135.952C108.844 138.484 105.919 140.797 101.379 142.892C97.5199 144.672 93.9489 146.182 90.6661 147.421L78.4631 135.292L92.424 128.852L87.3972 117.955L64.1897 130.314L61.0416 161.088L41.4245 160.639L44.8587 142.123L30.2948 151.732L30.3211 150.894L30.164 150.554L24.3781 137.117ZM47.1169 107.629L44.3156 100.662L34.2311 106.553L36.3777 112.997L47.1169 107.629ZM41.0958 90.9969L38.2945 84.0296L28.7338 89.2662L31.0375 96.0501L41.0958 90.9969ZM65.4555 79.3459L61.8424 71.5142L52.1247 76.4103L55.2401 84.0586L65.4555 79.3459ZM63.3044 99.7485L72.8387 95.35L69.0685 87.1777L59.3508 92.0738L63.3044 99.7485Z" fill="#4C63DC"/>
<path d="M120.1 48.2251L132.524 38.6758L145.336 52.87L173.911 35.7951L183.82 48.1119L155.391 64.3612L166.019 76.4649L153.848 85.5481L144.512 73.8438C140.331 78.2121 138.055 82.4071 137.682 86.4287C136.644 96.1234 140.134 101.738 148.151 103.273C153.966 104.418 160.242 103.6 166.98 100.821C171.392 98.9917 175.267 96.6697 178.605 93.8551C182.28 90.4191 186.137 86.2772 190.176 81.4295L202.322 90.7366C193.259 101.506 185.345 108.676 178.58 112.245C172.224 115.433 165.943 117.556 159.738 118.613C150.274 120.114 142.351 119.334 135.967 116.271C127.338 111.789 122.277 103.511 120.784 91.4375C120.011 86.1909 120.65 81.308 122.7 76.789C124.75 72.27 128.359 67.2892 133.525 61.8466L120.1 48.2251Z" fill="#4C63DC"/>
<path d="M209.665 39.7493L234.105 35.8246L242.319 8.86581L259.51 12.4345L253.349 32.6536L300.325 27.3538L301.306 39.3372L286.778 41.0659L272.159 73.5011L294.766 80.4521L287.798 95.1045L266.304 87.9919L262.137 98.4486L246.587 93.1261L250.808 83.0406L239.028 80.2026C233.262 78.7656 229.333 76.9357 227.243 74.7128C224.833 72.0311 224.645 67.2585 226.681 60.3951L228.998 52.8594L211.825 57.2456L209.665 39.7493ZM257.405 68.4421L268.648 44.0754L248.715 47.7251L243.291 65.1849L257.405 68.4421Z" fill="#4C63DC"/>
<path d="M354.014 36.5L353.639 30.5L357.389 30.875L369.764 14.375L328.514 18.5L328.889 2.375L376.889 0.5C379.639 0.5 381.514 0.5 382.514 0.5C385.014 0.75 386.764 1.5 387.764 2.75C389.014 4.25 389.514 6.625 389.264 9.875C389.014 11.875 388.389 13.625 387.389 15.125L374.639 33.5L373.139 36.5L405.764 36.5L406.139 48.5L372.764 49.25L373.514 76.25C373.764 82.25 372.389 86.125 369.389 87.875C367.639 89.125 365.389 89.875 362.639 90.125C359.639 90.625 353.264 90.875 343.514 90.875L339.764 74.75L355.514 74.375L354.764 49.25L315.389 53.75V37.625L354.014 36.5Z" fill="#4C63DC"/>
<path d="M468.748 83.6213C475.544 80.3127 480.201 76.9464 482.718 73.5224C486.086 69.4639 488.254 64.0946 489.223 57.4146C490.228 50.4871 489.534 44.8287 487.139 40.4394C484.745 36.0501 481.428 32.7902 477.19 30.6596C472.705 28.4931 467.898 27.6695 462.771 28.1886C454.778 29.3025 448.318 32.9124 443.39 39.0181C439.384 43.9945 437.215 49.3638 436.885 55.126C436.773 57.636 437.087 59.8287 437.825 61.7041C438.95 64.3936 440.557 65.5108 442.644 65.0557C444.447 64.8122 447.155 63.563 450.766 61.3081C453.527 59.6878 455.616 58.3488 457.033 57.2913C462.096 53.7314 467.692 49.1121 473.821 43.4332L483.184 54.6437C476.097 61.6993 470.146 67.025 465.33 70.6207C458.247 75.9085 451.256 79.694 444.357 81.977C440.111 83.382 436.186 83.4441 432.583 82.1635C428.485 80.811 425.591 78.1177 423.903 74.0835C421.792 69.4827 421.151 63.4532 421.98 55.995C422.666 49.5264 424.27 43.6963 426.792 38.5046C430.805 29.9927 436.653 23.6415 444.334 19.4509C453.113 14.6617 462.203 12.9492 471.604 14.3132C483.48 16.0362 492.519 21.6421 498.721 31.1309C502.245 36.4419 504.246 42.6688 504.726 49.8116C505.205 56.9545 504.36 63.6525 502.189 69.9057C500.482 74.7103 498.192 79.1777 495.319 83.308C492.446 87.4384 487.628 91.918 480.864 96.7469L468.748 83.6213Z" fill="#4C63DC"/>
<path d="M548.251 31.1212C558.309 31.4951 566.201 32.1396 571.927 33.0546C581.151 34.4849 589.061 36.8294 595.657 40.0882C602.493 43.4181 605.586 48.3767 604.937 54.9639C604.733 58.293 603.152 61.8662 600.195 65.6833C597.62 69.0921 594.708 71.8794 591.459 74.0452L582.749 79.6773L558.058 96.9996C562.683 98.1098 566.745 98.9226 570.243 99.4379C573.74 99.9531 579.573 100.509 587.741 101.104L580.228 121.172C556.605 117.298 540.19 113.737 530.984 110.487C526.98 109.039 524.544 107.143 523.674 104.8C522.467 101.834 523.151 98.6473 525.726 95.2385C527.466 92.8861 529.961 90.6269 533.21 88.4611L548.765 78.2089C554.882 74.2856 560.844 70.4466 566.651 66.6919C568.897 65.2717 570.784 63.7449 572.311 62.1115C574.601 59.6615 575.445 57.6952 574.841 56.2125C574.238 54.7299 572.702 53.7532 570.234 53.2824C567.766 52.8116 563.887 52.7047 558.595 52.9616C554.334 53.263 548.231 54.0613 540.285 55.3567L548.251 31.1212Z" fill="#4C63DC"/>
<path d="M684.104 71.5623L695.631 85.9655L666.169 104.173L686.998 147.647L691.321 157.075L689.698 158.804L678.201 166.716L676.054 167.79L657.844 127.59L651.058 114.547L626.337 134.116L617.512 141.609C613.373 138.047 608.981 133.543 604.336 128.096C611.528 122.054 618.887 115.95 626.412 109.785C635.577 102.45 645.922 95.2455 657.445 88.1719L684.104 71.5623Z" fill="#4C63DC"/>
</svg>
