<svg width="411" height="54" viewBox="0 0 411 54" fill="none" xmlns="http://www.w3.org/2000/svg">
<path d="M33.2496 0.234179L0.416662 1.89349L0 14.0065L10.9999 13.4257L8.49991 53.4151H26.9164L26.6664 12.5131L33.583 12.0982L33.2496 0.234179Z" fill="#4C63DC"/>
<path d="M80.7263 38.0665C80.8096 38.1494 77.5597 38.2324 70.9764 38.2324C69.9764 38.3154 68.4764 38.3154 66.4765 38.3154L61.3932 38.3983L61.6432 34.416L73.9764 34.0012L75.143 21.5563L62.2265 21.7223V17.1591L79.5597 17.0762C79.5597 15.9976 79.643 13.5916 79.8097 9.85819L80.2263 2.55721L45.2267 2.80611L43.3101 53.3321L80.9763 53.0003L80.7263 38.0665Z" fill="#4C63DC"/>
<path d="M127.239 38.0665C127.323 38.1494 124.073 38.2324 117.49 38.2324C116.49 38.3154 114.99 38.3154 112.99 38.3154L107.906 38.3983L108.156 34.416L120.49 34.0012L121.656 21.5563L108.74 21.7223V17.1591L126.073 17.0762C126.073 15.9976 126.156 13.5916 126.323 9.85819L126.739 2.55721L91.7399 2.80611L89.8232 53.3321L127.489 53.0003L127.239 38.0665Z" fill="#4C63DC"/>
<path d="M163.669 24.626L155.169 3.30391L140.17 1.97646L137.336 53.4151L154.086 53.664L153.42 29.8529L162.919 53.9129L180.919 53.4981L178.836 3.88467L163.003 2.47425L163.669 24.626Z" fill="#4C63DC"/>
<path d="M217.516 21.8882L209.6 21.8052L209.767 3.30391L194.767 1.97646L191.933 53.4151L208.683 53.664L209.6 33.7523H217.85L217.516 53.9129L235.516 53.4981L233.433 3.88467L217.6 2.47425L217.516 21.8882Z" fill="#4C63DC"/>
<path d="M288.003 49.9305C288.669 49.9305 289.753 49.2668 291.336 47.8564C293.669 45.7823 295.419 42.7955 296.503 39.0621C298.503 32.1759 298.919 25.7046 297.753 19.8141C297.253 17.2421 296.503 14.7532 295.586 12.3472C292.253 6.95439 287.919 3.30391 282.586 1.3957C275.503 -1.09327 267.17 -0.263614 257.586 3.96763C250.92 6.62253 246.67 11.6005 244.836 18.9014C244.086 22.0541 243.92 25.3727 244.336 28.8573C244.753 32.7567 245.67 36.2412 247.003 39.228C249.92 46.363 254.836 50.7602 261.753 52.5025C268.42 54.0788 273.919 54.4107 278.253 53.4981C278.503 53.4151 281.753 52.2536 288.003 49.9305ZM269.67 17.1591C272.919 16.2465 275.669 16.2465 277.836 16.9932C280.336 17.9058 281.836 19.98 282.253 23.0497C282.836 27.3639 282.586 30.5166 281.503 32.4248C280.503 34.1671 278.503 35.4945 275.419 36.4072C271.836 37.1538 269.17 37.1538 267.336 36.4072C264.836 35.3286 263.253 32.7567 262.67 28.6914C262.336 25.7876 262.92 23.2156 264.42 21.0585C265.67 19.1503 267.42 17.9058 269.67 17.1591Z" fill="#4C63DC"/>
<path d="M349.896 49.9305C350.563 49.9305 351.646 49.2668 353.23 47.8564C355.563 45.7823 357.313 42.7955 358.396 39.0621C360.396 32.1759 360.813 25.7046 359.646 19.8141C359.146 17.2421 358.396 14.7532 357.48 12.3472C354.146 6.95439 349.813 3.30391 344.48 1.3957C337.397 -1.09327 329.063 -0.263614 319.48 3.96763C312.814 6.62253 308.564 11.6005 306.73 18.9014C305.98 22.0541 305.814 25.3727 306.23 28.8573C306.647 32.7567 307.564 36.2412 308.897 39.228C311.814 46.363 316.73 50.7602 323.647 52.5025C330.313 54.0788 335.813 54.4107 340.147 53.4981C340.397 53.4151 343.647 52.2536 349.896 49.9305ZM331.563 17.1591C334.813 16.2465 337.563 16.2465 339.73 16.9932C342.23 17.9058 343.73 19.98 344.147 23.0497C344.73 27.3639 344.48 30.5166 343.397 32.4248C342.397 34.1671 340.397 35.4945 337.313 36.4072C333.73 37.1538 331.063 37.1538 329.23 36.4072C326.73 35.3286 325.147 32.7567 324.563 28.6914C324.23 25.7876 324.813 23.2156 326.313 21.0585C327.563 19.1503 329.313 17.9058 331.563 17.1591Z" fill="#4C63DC"/>
<path d="M368.541 52.5854L389.457 52.9173C396.457 53.0003 401.374 51.5899 404.29 48.6031C407.457 45.3674 409.707 39.0621 410.957 29.604C411.207 21.3904 410.374 15.168 408.29 10.8538C405.54 5.12915 400.707 1.89349 393.624 1.31273L369.874 0.731976L368.541 52.5854ZM384.791 36.1583C384.374 36.0753 383.541 36.0753 382.374 36.0753L383.291 14.6702L385.291 14.7532C386.041 14.7532 386.624 14.7532 387.041 14.8361L390.874 15.0021C393.791 16.3295 395.624 18.3207 396.291 20.8926C396.374 21.3074 396.54 23.7134 396.79 28.1936C396.124 31.5952 394.707 33.9182 392.624 35.0797C391.791 35.5775 389.957 35.9923 387.207 36.3242L384.791 36.1583Z" fill="#4C63DC"/>
</svg>
