<svg width="392" height="178" viewBox="0 0 392 178" fill="none" xmlns="http://www.w3.org/2000/svg">
<path d="M57 80.464L92.328 81.424C94.344 81.232 96.168 80.656 97.896 79.696C101.832 77.392 104.232 73.84 105.096 68.944C106.248 62.032 103.656 56.272 97.224 51.664C98.472 50.32 99.528 48.784 100.392 47.056C102.216 43.12 102.792 38.992 101.928 34.672C100.872 29.392 97.512 25.744 91.944 23.728C89.544 22.768 86.952 22.192 83.976 22L59.112 22.96L57 80.464ZM76.872 33.232L82.44 32.848C85.608 33.328 87.336 34.864 87.624 37.552C86.952 40.912 85.32 42.544 82.92 42.448L76.584 42.256L76.872 33.232ZM75.336 59.248L84.072 59.92C86.664 60.208 88.2 62.032 88.68 65.488C88.392 67.6 86.664 68.752 83.496 68.848L74.76 69.136L75.336 59.248Z" fill="white"/>
<path d="M220.561 57.775C221.329 57.775 222.577 57.007 224.401 55.375C227.089 52.975 229.105 49.519 230.353 45.199C232.657 37.231 233.137 29.743 231.793 22.927C231.217 19.951 230.353 17.071 229.297 14.287C225.457 8.04698 220.465 3.82297 214.321 1.61497C206.161 -1.26503 196.561 -0.30503 185.521 4.59097C177.841 7.66297 172.945 13.423 170.833 21.871C169.969 25.519 169.777 29.359 170.257 33.391C170.737 37.903 171.793 41.935 173.329 45.391C176.689 53.647 182.353 58.735 190.321 60.751C198.001 62.575 204.337 62.959 209.329 61.903C209.617 61.807 213.361 60.463 220.561 57.775ZM199.441 19.855C203.185 18.799 206.353 18.799 208.849 19.663C211.729 20.719 213.457 23.119 213.937 26.671C214.609 31.663 214.321 35.311 213.073 37.519C211.921 39.535 209.617 41.071 206.065 42.127C201.937 42.991 198.865 42.991 196.753 42.127C193.873 40.879 192.049 37.903 191.377 33.199C190.993 29.839 191.665 26.863 193.393 24.367C194.833 22.159 196.849 20.719 199.441 19.855Z" fill="white"/>
<path d="M340.384 22.864L322.144 22V57.424C322.144 60.784 320.896 62.512 318.4 62.8C316 63.088 314.464 61.456 313.792 57.904L311.872 22.192L292 23.248L294.688 61.84C294.976 65.008 295.936 68.08 297.664 70.864C301.408 76.912 307.936 80.464 317.248 81.328C324.64 82 330.304 79.792 334.432 74.608C337.6 70.672 339.136 66.544 339.136 62.128L340.384 22.864Z" fill="white"/>
<path d="M391.304 115L353.48 116.92L353 130.936L365.672 130.264L362.792 176.536H384.008L383.72 129.208L391.688 128.728L391.304 115Z" fill="white"/>
<path d="M18.624 177.096L20.832 165.576H34.272L36.576 177.096L54.912 175.368L40.896 117L14.784 117.384L0 175.272L18.624 177.096ZM24 150.696L27.168 132.456L30.912 150.408L24 150.696Z" fill="white"/>
</svg>
