<svg width="111" height="111" viewBox="0 0 111 111" fill="none" xmlns="http://www.w3.org/2000/svg">
<path d="M41.6865 27.7422L24.4237 86.9604C24.0781 88.2207 24.0685 89.5496 24.3959 90.8148C24.7234 92.08 25.3764 93.2374 26.29 94.1719C27.2036 95.1064 28.346 95.7854 29.6035 96.1413C30.861 96.4972 32.1897 96.5177 33.4576 96.2006L94.7853 80.146C96.0458 79.8011 97.1941 79.1322 98.1159 78.2058C99.0377 77.2794 99.7009 76.1277 100.039 74.8655C100.378 73.6032 100.38 72.2743 100.046 71.0109C99.7111 69.7476 99.0516 68.5938 98.1328 67.6645L54.0679 24.5009C53.144 23.6059 52.005 22.9641 50.7608 22.6374C49.5166 22.3108 48.2092 22.3104 46.9648 22.6361C45.7204 22.9619 44.5809 23.6029 43.6564 24.4973C42.7318 25.3917 42.0534 26.5092 41.6865 27.7422V27.7422Z" fill="#FFA1A1"/>
<path d="M52.7486 44.7305L56.5395 59.2116" stroke="#F9F9F9" stroke-width="8" stroke-linecap="round" stroke-linejoin="round"/>
<path d="M60.3305 73.6924L60.3667 73.6829" stroke="#F9F9F9" stroke-width="8" stroke-linecap="round" stroke-linejoin="round"/>
</svg>
