<svg width="619" height="84" viewBox="0 0 619 84" fill="none" xmlns="http://www.w3.org/2000/svg">
<path d="M51.656 0.56796L1.22398 3.12796L0.583984 21.816L17.48 20.92L13.64 82.616H41.928L41.544 19.512L52.168 18.872L51.656 0.56796Z" fill="white"/>
<path d="M122.661 58.936C122.789 59.064 117.797 59.192 107.685 59.192C106.149 59.32 103.845 59.32 100.773 59.32L92.965 59.448L93.349 53.304L112.293 52.664L114.085 33.464L94.245 33.72V26.68L120.869 26.552C120.869 24.888 120.997 21.176 121.253 15.416L121.893 4.15196L68.133 4.53596L65.189 82.488L123.045 81.976L122.661 58.936Z" fill="white"/>
<path d="M192.186 58.936C192.314 59.064 187.322 59.192 177.21 59.192C175.674 59.32 173.37 59.32 170.298 59.32L162.49 59.448L162.874 53.304L181.818 52.664L183.61 33.464L163.77 33.72V26.68L190.394 26.552C190.394 24.888 190.522 21.176 190.778 15.416L191.418 4.15196L137.658 4.53596L134.714 82.488L192.57 81.976L192.186 58.936Z" fill="white"/>
<path d="M246.223 38.2L233.167 5.30396L210.127 3.25596L205.775 82.616L231.503 83L230.479 46.264L245.071 83.384L272.719 82.744L269.519 6.19996L245.199 4.02396L246.223 38.2Z" fill="white"/>
<path d="M327.013 33.976L314.853 33.848L315.109 5.30396L292.069 3.25596L287.717 82.616L313.445 83L314.853 52.28H327.525L327.013 83.384L354.661 82.744L351.461 6.19996L327.141 4.02396L327.013 33.976Z" fill="white"/>
<path d="M433.361 77.24C434.385 77.24 436.049 76.216 438.481 74.04C442.065 70.84 444.753 66.232 446.417 60.472C449.489 49.848 450.129 39.864 448.337 30.776C447.569 26.808 446.417 22.968 445.009 19.256C439.889 10.936 433.233 5.30396 425.041 2.35996C414.161 -1.48004 401.361 -0.200038 386.641 6.32796C376.401 10.424 369.873 18.104 367.057 29.368C365.905 34.232 365.649 39.352 366.289 44.728C366.929 50.744 368.337 56.12 370.385 60.728C374.865 71.736 382.417 78.52 393.041 81.208C403.281 83.64 411.729 84.152 418.385 82.744C418.769 82.616 423.761 80.824 433.361 77.24ZM405.201 26.68C410.193 25.272 414.417 25.272 417.745 26.424C421.585 27.832 423.889 31.032 424.529 35.768C425.425 42.424 425.041 47.288 423.377 50.232C421.841 52.92 418.769 54.968 414.033 56.376C408.529 57.528 404.433 57.528 401.617 56.376C397.777 54.712 395.345 50.744 394.449 44.472C393.937 39.992 394.833 36.024 397.137 32.696C399.057 29.752 401.745 27.832 405.201 26.68Z" fill="white"/>
<path d="M526.511 77.24C527.535 77.24 529.199 76.216 531.631 74.04C535.215 70.84 537.903 66.232 539.567 60.472C542.639 49.848 543.279 39.864 541.487 30.776C540.719 26.808 539.567 22.968 538.159 19.256C533.039 10.936 526.383 5.30396 518.191 2.35996C507.311 -1.48004 494.511 -0.200038 479.791 6.32796C469.551 10.424 463.023 18.104 460.207 29.368C459.055 34.232 458.799 39.352 459.439 44.728C460.079 50.744 461.487 56.12 463.535 60.728C468.015 71.736 475.567 78.52 486.191 81.208C496.431 83.64 504.879 84.152 511.535 82.744C511.919 82.616 516.911 80.824 526.511 77.24ZM498.351 26.68C503.343 25.272 507.567 25.272 510.895 26.424C514.735 27.832 517.039 31.032 517.679 35.768C518.575 42.424 518.191 47.288 516.527 50.232C514.991 52.92 511.919 54.968 507.183 56.376C501.679 57.528 497.583 57.528 494.767 56.376C490.927 54.712 488.495 50.744 487.599 44.472C487.087 39.992 487.983 36.024 490.287 32.696C492.207 29.752 494.895 27.832 498.351 26.68Z" fill="white"/>
<path d="M553.229 81.336L585.357 81.848C596.109 81.976 603.661 79.8 608.141 75.192C613.005 70.2 616.461 60.472 618.381 45.88C618.765 33.208 617.485 23.608 614.285 16.952C610.061 8.11996 602.637 3.12796 591.757 2.23196L555.277 1.33597L553.229 81.336ZM578.189 55.992C577.549 55.864 576.269 55.864 574.477 55.864L575.885 22.84L578.957 22.968C580.109 22.968 581.005 22.968 581.645 23.096L587.533 23.352C592.013 25.4 594.829 28.472 595.853 32.44C595.981 33.08 596.237 36.792 596.621 43.704C595.597 48.952 593.421 52.536 590.221 54.328C588.941 55.096 586.125 55.736 581.901 56.248L578.189 55.992Z" fill="white"/>
</svg>
