<svg width="118" height="116" viewBox="0 0 118 116" fill="none" xmlns="http://www.w3.org/2000/svg">
<rect width="118" height="116" rx="58" fill="#FC7B92"/>
<path d="M27 43.25L31.375 44.75L28.625 53.625L23.5 51.375L27 43.25ZM27.875 24.5L46.5 24.375C48.3333 24.375 49.5833 24.7083 50.25 25.375C51.1667 26.2917 51.6667 27.6667 51.75 29.5L52 39.5C46.5 39.4167 41.25 39.4167 36.25 39.5C34.1667 39.5 30.7917 39.625 26.125 39.875L27.875 24.5ZM36.375 35.875L36.625 33.5L32.375 33.75L32.125 36.125L36.375 35.875ZM38.25 42.75L38 49.625L41.625 49.75L41.875 46.625L47.375 47.5C47.375 50.0833 47.2083 51.7917 46.875 52.625C46.5417 53.5417 45.7083 54.1667 44.375 54.5C43.2917 54.75 42 54.8333 40.5 54.75L37.125 54.625C35.5417 54.5417 34.4583 54.375 33.875 54.125C32.875 53.625 32.4167 52.3333 32.5 50.25L32.875 42.875L38.25 42.75ZM36.75 30.375L36.875 30.25L37 28.125L32.875 28.25L32.625 30.375H36.75ZM39.875 45.25C39.2083 44.5 38.9583 43.6667 39.125 42.75C39.2083 41.6667 39.6667 40.875 40.5 40.375C41.4167 39.7917 42.4167 39.75 43.5 40.25C44.8333 40.8333 45.375 41.9167 45.125 43.5C45.0417 44.25 44.7083 44.9167 44.125 45.5C43.5417 46.0833 42.875 46.375 42.125 46.375C41.2917 46.375 40.5417 46 39.875 45.25ZM45.75 36V33.625L41.375 33.375V36.125L45.75 36ZM45.75 30.375V28H41.75L41.5 30.375H45.75ZM48.875 50.5C47.9583 49.9167 47.5 49.125 47.5 48.125C47.5 46.2083 48.2917 45.125 49.875 44.875C50.7917 44.7083 51.625 44.875 52.375 45.375C53.125 45.875 53.5833 46.5 53.75 47.25C53.9167 48.0833 53.8333 48.8333 53.5 49.5C53.0833 50.3333 52.375 50.8333 51.375 51C50.375 51.1667 49.5417 51 48.875 50.5ZM72.895 27.375C71.5617 30.7917 70.6867 33.5 70.27 35.5C69.8533 37.3333 69.7283 40.3333 69.895 44.5L73.145 39L77.395 41.75L73.77 48.625C73.02 50.0417 72.4367 51 72.02 51.5C71.3533 52.3333 70.5617 52.8333 69.645 53C67.8117 53.25 66.4783 52.125 65.645 49.625C65.145 48.0417 64.8533 45.9583 64.77 43.375C64.6867 40.2917 64.895 37.3333 65.395 34.5C65.8117 32.3333 66.6867 29.3333 68.02 25.5L72.895 27.375ZM88.895 26.25C89.895 30 90.6033 33.2083 91.02 35.875C91.52 38.875 91.895 42.9583 92.145 48.125L86.645 48.25C86.4783 43.25 86.2283 39.5833 85.895 37.25C85.5617 35.1667 84.8117 31.875 83.645 27.375L88.895 26.25ZM28 70.625L25.375 65.75L30.5 63.625L33.125 69.25L40.125 67.875L40.625 63.375L46 63.625L45.5 67.375C47.4167 67.375 48.875 67.5417 49.875 67.875C51.4583 68.375 52.5 69.375 53 70.875C53.75 72.9583 53.625 75.5833 52.625 78.75C52.2083 80.1667 51.5417 81.5417 50.625 82.875C50.2083 83.4583 49.5417 84.3333 48.625 85.5L43.125 83C44.4583 81.1667 45.4167 79.75 46 78.75C47.0833 76.8333 47.4583 75.25 47.125 74C46.875 73 46.0417 72.5 44.625 72.5L43.75 77.25L38.625 76.5L39.5 73L35.25 73.875L38.5 81.125L42.25 89.5L37.375 91.625L30.25 75.375L26.5 77.125L24.25 71.875L28 70.625ZM74.645 65.125C73.9783 68.375 73.5617 70.5 73.395 71.5C73.145 73.1667 72.9783 75.5 72.895 78.5L76.52 75.875L78.77 80.875L73.645 84.375C71.645 85.7083 70.0617 85.9167 68.895 85C68.3117 84.5 67.895 83.5833 67.645 82.25C67.4783 81.25 67.395 79.875 67.395 78.125C67.4783 74.9583 68.1867 70.375 69.52 64.375L74.645 65.125ZM83.52 77.5C83.77 73.75 83.52 69.25 82.77 64L88.27 63.375C88.77 68.625 89.02 72.4583 89.02 74.875C89.02 78.7917 88.52 84.3333 87.52 91.5L81.895 91C82.7283 85.8333 83.27 81.3333 83.52 77.5Z" fill="white"/>
</svg>
