<svg width="627" height="102" viewBox="0 0 627 102" fill="none" xmlns="http://www.w3.org/2000/svg">
<rect y="29" width="559" height="45" rx="22.5" fill="#E05353"/>
<path d="M59.36 38.576V53.912H62.192V41.168H67.304V38.576H59.36ZM74.912 42.128V44.84H80.792V42.128H74.912ZM84.968 38.672V61.112H87.968V38.672H84.968ZM72.272 49.232C74.072 50.312 76.352 51.992 77.384 53.192L78.92 50.744C77.84 49.616 75.512 48.056 73.712 47.072L72.272 49.232ZM75.224 38.6C74.168 42.944 72.2 46.976 69.56 49.376C70.232 49.808 71.456 50.744 71.96 51.248C74.648 48.464 76.808 44.024 78.08 39.2L75.224 38.6ZM83.48 44.456L81.032 45.344C83.264 49.64 86.864 53.552 90.896 55.688C91.376 54.92 92.288 53.768 92.984 53.168C89.072 51.44 85.352 47.984 83.48 44.456ZM80 42.128V42.776C78.872 50.888 75.368 56.12 70.256 58.808C70.952 59.24 72.056 60.32 72.536 60.968C77.72 58.016 81.512 51.944 82.928 42.656L81.032 42.032L80.528 42.128H80ZM98.216 56.936V59.768H114.632V56.936H98.216ZM104.744 38.864V58.664H107.744V38.864H104.744ZM96.8 50.936V61.16H99.728V50.936H96.8ZM113.096 50.936V61.136H116.096V50.936H113.096ZM97.76 40.88V49.64H115.136V40.88H112.088V46.856H100.64V40.88H97.76ZM128.504 39.968L124.64 39.944C124.832 40.88 124.928 42.032 124.928 43.184C124.928 45.248 124.712 51.536 124.712 54.752C124.712 58.856 127.232 60.584 131.168 60.584C136.64 60.584 140.048 57.392 141.608 55.088L139.424 52.424C137.672 55.04 135.176 57.32 131.216 57.32C129.344 57.32 127.904 56.528 127.904 54.104C127.904 51.128 128.072 45.776 128.192 43.184C128.24 42.224 128.36 40.976 128.504 39.968ZM153.416 61.208V45.872H150.584V58.616H145.472V61.208H153.416ZM185.672 39.656H182.192C182.24 39.968 182.336 40.784 182.408 41.744C182.504 43.016 182.504 47.624 182.504 49.112L185.504 50.12C185.48 48.2 185.432 43.304 185.504 41.72C185.528 41.336 185.6 40.064 185.672 39.656ZM172.088 42.656L172.16 45.536C175.784 45.344 180.56 45.152 184.928 45.152C188.456 45.152 190.904 45.224 192.392 45.296L192.44 42.464C191.096 42.44 187.448 42.464 185 42.464C182 42.464 175.664 42.656 172.088 42.656ZM185.096 49.76L182.84 49.136C183.608 51.992 182.624 52.952 181.496 52.952C180.512 52.952 179.624 52.256 179.624 51.176C179.624 49.904 180.56 49.256 181.496 49.256C182.552 49.256 183.392 50 183.392 51.56C183.392 55.76 180.2 57.368 176.12 58.256L178.664 60.8C184.52 59.144 186.368 55.184 186.368 52.04C186.368 49.064 184.712 46.736 181.544 46.736C178.952 46.736 176.744 48.512 176.744 51.224C176.744 54.152 179.048 55.616 180.896 55.616C183.656 55.616 185.096 53.672 185.096 49.76ZM218.6 57.752L218.192 54.392C217.112 55.472 215.984 56.096 215.096 56.096C214.496 56.096 214.16 55.664 214.16 55.04C214.16 52.544 214.952 49.016 214.952 46.544C214.952 44.528 213.776 42.992 211.184 42.992C208.016 42.992 204.008 46.592 202.544 48.128L202.568 51.824C204.488 49.376 208.064 45.848 210.296 45.848C211.328 45.848 211.928 46.424 211.928 47.6C211.928 49.808 211.064 53.312 211.064 55.928C211.064 58.256 212.264 59.552 214.064 59.552C216.032 59.552 217.472 58.784 218.6 57.752ZM202.016 46.328L201.824 46.76L201.776 47.384C200.576 49.28 197.696 53.072 196.184 54.944L198.056 57.584C199.328 55.832 201.464 52.616 202.52 51.08L203.912 46.568C204.32 45.944 205.064 44.768 205.472 44.216L204.512 42.968C203.432 43.328 200.36 43.784 198.848 43.856C197.984 43.904 197.432 43.904 196.76 43.88L197.072 46.976C198.656 46.736 200.936 46.448 202.016 46.328ZM201.728 41.696C201.728 42.656 201.2 49.376 201.128 51.512C201.056 54.512 201.032 56.12 201.008 58.448C201.008 58.832 200.984 59.672 200.936 60.224H204.224C204.176 59.696 204.08 58.808 204.056 58.376C203.912 56.144 203.912 54.104 203.912 52.16C203.912 47.864 204.704 41.576 205.112 39.656L201.608 39.56C201.752 40.304 201.728 41.024 201.728 41.696ZM229.088 44.552L229.112 47.408C230.528 47.504 231.896 47.552 233.288 47.552C236.216 47.552 239.216 47.36 241.736 46.976V44C239.24 44.504 236.24 44.768 233.288 44.768C231.872 44.768 230.48 44.696 229.088 44.552ZM238.232 40.496H234.8C234.872 40.976 234.968 41.72 234.968 42.08C234.968 42.8 234.992 44.408 234.992 46.232C234.992 49.688 235.304 53.72 235.304 55.376C235.304 56.792 234.8 57.56 233.312 57.56C232.064 57.56 231.08 57.152 231.08 56.168C231.08 55.256 232.016 54.704 233.36 54.704C236.096 54.704 238.496 56.288 241.28 58.88L242.888 56.36C241.04 54.632 238.112 52.376 233.6 52.376C230.336 52.376 228.296 54.056 228.296 56.48C228.296 59 230.36 60.416 233.672 60.416C237.128 60.416 238.376 58.544 238.376 56.024C238.376 53.744 237.992 50.648 237.992 46.232C237.992 44.48 238.016 42.848 238.064 42.056C238.088 41.552 238.136 40.976 238.232 40.496ZM226.52 40.76L223.184 40.472C223.184 41.24 223.064 42.176 222.968 42.824C222.704 44.672 221.984 49.208 221.984 52.832C221.984 56.096 222.44 58.832 222.92 60.512L225.632 60.32C225.608 59.96 225.584 59.552 225.584 59.312C225.584 59.048 225.632 58.544 225.704 58.208C225.992 56.888 226.784 54.44 227.456 52.472L225.968 51.296C225.608 52.088 225.224 52.904 224.912 53.744C224.816 53.264 224.792 52.664 224.792 52.184C224.792 49.808 225.584 44.504 225.944 42.896C226.016 42.464 226.328 41.264 226.52 40.76ZM240.2 39.536L238.544 40.04C239.024 41.024 239.432 42.32 239.792 43.376L241.448 42.824C241.184 41.888 240.632 40.496 240.2 39.536ZM242.672 38.768L241.04 39.296C241.52 40.256 241.976 41.528 242.312 42.584L243.968 42.032C243.68 41.12 243.128 39.728 242.672 38.768ZM246.944 45.08V48.056H268.304V45.08H246.944ZM259.256 46.28L256.352 46.952C258.176 53.552 261.176 58.52 266.672 61.088C267.152 60.248 268.112 59 268.832 58.352C263.744 56.336 260.696 51.776 259.256 46.28ZM255.944 38.624C255.872 45.128 256.304 54.248 246.464 58.64C247.304 59.264 248.192 60.296 248.648 61.088C258.944 56.12 258.992 45.944 259.112 38.624H255.944ZM272.144 42.944V45.752H293.48V42.944H272.144ZM277.568 46.52L274.808 47.192C277.376 55.568 281.816 59.816 291.992 61.112C292.328 60.296 293.12 59 293.72 58.352C284.096 57.368 279.536 53.696 277.568 46.52ZM283.784 39.008C283.688 49.88 284.312 55.808 272.048 58.376C272.672 59 273.416 60.152 273.704 60.92C286.952 57.92 286.88 50.504 286.952 39.008H283.784ZM297.32 48.632V51.608H318.68V48.632H297.32ZM298.976 41.816V44.768H317.384V41.816H298.976ZM309.104 49.448L306.392 50.024C308.264 55.904 311.408 59.48 317.576 61.016C317.984 60.2 318.8 58.928 319.472 58.304C313.76 57.2 310.568 54.128 309.104 49.448ZM306.368 38.624V46.448C306.368 50.96 305.336 56.144 296.768 58.568C297.368 59.168 298.232 60.464 298.568 61.208C308.192 58.328 309.464 52.112 309.464 46.448V38.624H306.368ZM324.608 48.848L325.856 51.968C327.92 51.104 332.696 49.112 335.48 49.112C337.592 49.112 338.936 50.384 338.936 52.16C338.936 55.424 334.88 56.888 329.408 57.032L330.68 59.984C338.288 59.528 342.128 56.552 342.128 52.232C342.128 48.584 339.584 46.328 335.768 46.328C332.864 46.328 328.808 47.72 327.152 48.2C326.432 48.44 325.328 48.728 324.608 48.848ZM346.909 42.512L347.221 45.8C350.005 45.176 354.901 44.672 357.157 44.432C355.525 45.656 353.581 48.368 353.581 51.824C353.581 57.032 358.333 59.744 363.373 60.056L364.477 56.768C360.421 56.552 356.725 55.136 356.725 51.176C356.725 48.344 358.909 45.224 361.789 44.456C363.085 44.168 365.149 44.144 366.445 44.144L366.421 41.048C364.717 41.12 362.101 41.264 359.629 41.48C355.213 41.864 351.277 42.2 349.261 42.392C348.805 42.44 347.845 42.488 346.909 42.512ZM371.821 45.368V47.792H392.821V45.368H371.821ZM373.669 41.12V43.472H387.157V41.12H373.669ZM379.237 38.624V46.568H382.093V38.624H379.237ZM388.549 48.8C386.029 49.496 381.757 50.072 378.061 50.336C378.301 50.84 378.613 51.704 378.685 52.28C382.549 52.04 387.109 51.56 390.301 50.696L388.549 48.8ZM389.533 39.584C385.237 45.2 378.157 49.76 370.765 52.328C371.293 52.832 372.157 53.96 372.541 54.536C379.837 51.656 387.109 46.928 391.861 40.856L389.533 39.584ZM377.341 48.968C376.861 51.392 376.069 54.536 375.421 56.504L378.301 56.888C378.877 54.92 379.645 51.824 380.197 49.28L377.341 48.968ZM387.445 53.48L387.421 53.816C387.037 56.6 386.509 58.016 385.957 58.424C385.693 58.616 385.381 58.664 384.925 58.664C384.301 58.664 382.765 58.616 381.397 58.496C381.877 59.24 382.237 60.344 382.285 61.16C383.749 61.208 385.117 61.208 385.909 61.136C386.941 61.088 387.589 60.92 388.237 60.32C389.053 59.576 389.653 57.944 390.205 54.656C390.301 54.248 390.349 53.48 390.349 53.48H387.445ZM377.773 53.48L377.101 55.808H388.117V53.48H377.773ZM403.093 39.56L402.613 42.344C405.493 42.8 409.957 43.328 412.477 43.544L412.861 40.712C410.389 40.568 405.781 40.064 403.093 39.56ZM413.725 47.168L411.949 45.176C411.709 45.272 411.037 45.416 410.605 45.464C408.589 45.704 403.165 45.944 402.013 45.968C401.149 45.968 400.285 45.944 399.733 45.896L399.997 49.208C400.501 49.112 401.245 48.992 402.085 48.92C403.453 48.8 406.309 48.56 407.989 48.512C405.805 50.816 400.909 55.688 399.661 56.936C399.013 57.56 398.437 58.064 398.005 58.448L400.837 60.416C402.493 58.328 404.293 56.36 405.133 55.52C405.709 54.92 406.213 54.536 406.693 54.536C407.197 54.536 407.701 54.848 407.965 55.712C408.157 56.312 408.421 57.44 408.685 58.16C409.261 59.696 410.509 60.2 412.765 60.2C414.013 60.2 416.485 60.032 417.469 59.864L417.685 56.72C416.461 56.96 414.805 57.128 412.981 57.128C412.045 57.128 411.517 56.768 411.277 56.024C411.085 55.376 410.821 54.464 410.605 53.84C410.269 52.928 409.837 52.4 409.165 52.208C408.877 52.088 408.445 52.016 408.229 52.016C408.805 51.416 411.061 49.328 412.141 48.392C412.573 48.032 413.077 47.6 413.725 47.168ZM430.165 44.264L430.189 47.144C431.605 47.24 432.973 47.288 434.389 47.288C437.269 47.264 440.293 47.072 442.813 46.688V43.712C440.317 44.24 437.317 44.48 434.389 44.48C432.925 44.48 431.557 44.408 430.165 44.264ZM439.309 40.232H435.877C435.949 40.688 436.021 41.432 436.021 41.816C436.045 42.536 436.069 44.144 436.069 45.968C436.069 49.424 436.381 53.456 436.381 55.112C436.381 56.528 435.877 57.296 434.413 57.296C433.117 57.296 432.157 56.864 432.157 55.88C432.157 54.968 433.093 54.416 434.461 54.416C437.173 54.416 439.597 56.024 442.357 58.592L443.989 56.072C442.117 54.344 439.213 52.088 434.701 52.088C431.413 52.088 429.349 53.768 429.349 56.216C429.349 58.736 431.413 60.104 434.749 60.104C438.205 60.104 439.453 58.28 439.453 55.76C439.453 53.48 439.069 50.36 439.069 45.944C439.069 44.216 439.117 42.56 439.165 41.768C439.189 41.264 439.237 40.688 439.309 40.232ZM427.597 40.472L424.261 40.208C424.237 40.952 424.141 41.888 424.045 42.56C423.757 44.408 423.037 48.944 423.037 52.568C423.037 55.808 423.517 58.568 423.997 60.224L426.709 60.032C426.685 59.696 426.685 59.288 426.685 59.024C426.661 58.784 426.733 58.256 426.805 57.92C427.069 56.6 427.861 54.176 428.533 52.184L427.045 51.008C426.709 51.824 426.301 52.64 425.965 53.48C425.893 53 425.869 52.376 425.869 51.92C425.869 49.52 426.661 44.24 427.021 42.632C427.117 42.2 427.405 40.952 427.597 40.472ZM453.085 40.088V42.488H460.933V40.088H453.085ZM452.965 38.528C451.861 41.144 449.749 44.12 446.485 46.328C447.157 46.76 448.141 47.792 448.597 48.488C452.173 45.8 454.525 42.488 456.157 39.08L452.965 38.528ZM451.237 44.264V46.856H468.733V44.264H451.237ZM455.773 48.512V50.984H463.861V48.512H455.773ZM454.381 48.512V57.176C454.381 60.224 455.485 61.016 459.061 61.016C459.853 61.016 463.981 61.016 464.821 61.016C468.037 61.016 468.901 59.936 469.309 56.024C468.517 55.856 467.317 55.4 466.645 54.968C466.477 57.92 466.213 58.424 464.629 58.424C463.645 58.424 460.093 58.424 459.253 58.424C457.501 58.424 457.189 58.232 457.189 57.128V48.512H454.381ZM463.045 48.512V48.872C462.901 51.968 462.733 53.192 462.421 53.528C462.229 53.744 462.013 53.768 461.653 53.768C461.269 53.768 460.381 53.744 459.445 53.648C459.853 54.344 460.141 55.376 460.189 56.144C461.341 56.192 462.469 56.168 463.093 56.096C463.789 56 464.341 55.808 464.821 55.28C465.373 54.632 465.613 53.024 465.805 49.52C465.829 49.184 465.853 48.512 465.853 48.512H463.045ZM449.773 44.264V48.776C449.773 51.92 449.485 56.264 446.557 59.288C447.157 59.624 448.333 60.656 448.789 61.208C452.005 57.872 452.629 52.472 452.629 48.824V44.264H449.773ZM459.949 40.088V40.664C459.517 41.816 458.509 43.832 457.573 45.08C458.221 45.44 459.205 46.064 459.805 46.52C460.957 45.128 462.373 42.944 463.237 41.312L461.125 39.944L460.645 40.088H459.949ZM472.909 39.656V61.184H475.429V42.224H478.621V39.656H472.909ZM477.757 39.656V40.496C477.397 42.032 476.605 45.416 475.909 47.576C477.301 49.16 477.661 50.624 477.661 51.704C477.661 52.4 477.565 52.856 477.253 53.072C477.061 53.216 476.821 53.264 476.557 53.264C476.269 53.264 475.885 53.264 475.477 53.24C475.861 53.936 476.077 55.04 476.077 55.736C476.677 55.76 477.277 55.736 477.733 55.688C478.261 55.616 478.741 55.448 479.125 55.16C479.917 54.632 480.229 53.624 480.229 52.088C480.229 50.696 479.917 49.088 478.381 47.264C479.101 45.368 479.941 42.704 480.565 40.64L478.645 39.56L478.237 39.656H477.757ZM482.677 44.192V46.544H491.557V44.192H482.677ZM487.021 41.12C488.437 43.088 491.101 45.248 493.453 46.4C493.837 45.584 494.389 44.528 494.917 43.856C492.421 42.944 489.925 40.928 488.221 38.648H485.629C484.405 40.688 481.837 43.064 479.197 44.216C479.677 44.84 480.253 45.896 480.541 46.592C483.181 45.296 485.701 43.04 487.021 41.12ZM483.373 50.192H490.861V52.328H483.373V50.192ZM480.877 47.984V54.56H493.453V47.984H480.877ZM485.749 45.656V51.704C485.749 54.536 485.101 57.344 479.173 59.144C479.653 59.6 480.445 60.704 480.709 61.304C487.189 59.264 488.341 55.328 488.341 51.776V45.656H485.749ZM488.533 53.288L486.085 53.792C487.741 58.376 489.997 60.08 493.117 61.256C493.405 60.416 494.125 59.48 494.773 58.88C492.037 58.04 490.021 56.912 488.533 53.288Z" fill="white"/>
<circle cx="576" cy="51" r="48.5" fill="#FCFF61" stroke="white" stroke-width="5"/>
<path d="M572.722 33.3985L556.488 60.5001C556.154 61.0798 555.976 61.737 555.975 62.4063C555.973 63.0756 556.146 63.7338 556.478 64.3153C556.809 64.8968 557.287 65.3814 557.864 65.7209C558.441 66.0603 559.097 66.2428 559.766 66.2501H592.234C592.903 66.2428 593.559 66.0603 594.136 65.7209C594.713 65.3814 595.191 64.8968 595.522 64.3153C595.854 63.7338 596.027 63.0756 596.025 62.4063C596.023 61.737 595.846 61.0798 595.512 60.5001L579.277 33.3985C578.936 32.8352 578.455 32.3695 577.881 32.0462C577.307 31.723 576.659 31.5532 576 31.5532C575.341 31.5532 574.693 31.723 574.119 32.0462C573.545 32.3695 573.064 32.8352 572.722 33.3985V33.3985Z" stroke="#5D504F" stroke-width="3" stroke-linecap="round" stroke-linejoin="round"/>
<path d="M576 43.25V50.9167" stroke="#5D504F" stroke-width="4" stroke-linecap="round" stroke-linejoin="round"/>
<path d="M576 58.5835H576.019" stroke="#5D504F" stroke-width="5" stroke-linecap="round" stroke-linejoin="round"/>
</svg>
