<svg width="365" height="102" viewBox="0 0 365 102" fill="none" xmlns="http://www.w3.org/2000/svg">
<rect x="66" y="29" width="299" height="45" rx="22.5" fill="#E05353"/>
<path d="M139.392 38.6V42.968H142.464V38.6H139.392ZM130.776 40.76V46.448H133.704V43.424H148.224V46.448H151.296V40.76H130.776ZM138.528 44C136.872 47.696 134.328 52.544 132.528 55.472L135.552 56.288C137.28 53.288 139.728 48.512 141.552 44.648L138.528 44ZM144.576 49.496C143.28 55.64 138.696 57.776 130.824 58.544C131.352 59.192 132.192 60.488 132.456 61.184C140.688 59.984 145.728 57.296 147.84 49.928L144.576 49.496ZM130.296 47.576V50.288H151.728V47.576H130.296ZM134.328 54.968C139.176 56.408 145.416 59.096 148.44 61.112L150.768 58.76C147.408 56.696 141.048 54.248 136.416 52.976L134.328 54.968ZM166.104 41.36C168.144 44.216 172.176 47.552 175.872 49.592C176.4 48.704 177.048 47.744 177.768 47C173.952 45.368 170.04 42.224 167.472 38.528H164.472C162.696 41.504 158.808 45.2 154.68 47.288C155.304 47.888 156.12 48.944 156.504 49.616C160.44 47.432 164.112 44.192 166.104 41.36ZM157.944 52.616V55.112H174.36V52.616H157.944ZM159.168 47.312V49.832H173.256V47.312H159.168ZM156.024 58.016V60.584H176.52V58.016H156.024ZM164.592 48.44V59.456H167.64V48.44H164.592ZM183.072 40.064V60.872H186.048V42.968H196.728V60.848H199.824V40.064H183.072ZM185.112 48.128V50.984H198.024V48.128H185.112ZM185.088 56.408V59.312H198.024V56.408H185.088ZM206.568 43.28L206.784 46.088C207.816 46.136 208.824 46.16 209.784 46.16C212.856 46.184 216.312 45.56 218.376 44.984L218.304 42.2C215.976 42.944 212.736 43.448 209.76 43.448C208.896 43.448 207.6 43.4 206.568 43.28ZM215.904 39.68L212.592 39.368C212.52 41.216 211.992 43.448 211.416 45.176C210.48 47.768 208.32 51.968 206.16 54.608L209.064 56.096C211.104 53.264 213.264 48.8 214.368 45.344C215.016 43.304 215.592 40.952 215.904 39.68ZM221.544 47.168H218.52C218.64 49.688 218.904 54.104 218.904 55.544C218.904 56.888 218.376 57.8 216.744 57.8C215.424 57.8 214.656 57.176 214.656 56.288C214.656 55.448 215.568 54.848 216.96 54.848C220.584 54.848 223.32 57.32 225.048 58.928L226.632 56.336C224.64 54.536 221.328 52.424 217.128 52.424C213.792 52.424 211.824 54.248 211.824 56.576C211.824 59.216 214.176 60.56 217.152 60.56C220.584 60.56 221.784 58.808 221.784 56.576C221.784 55.232 221.568 51.656 221.52 50.24C221.496 49.184 221.472 48.176 221.544 47.168ZM225.672 48.44L227.376 45.896C226.128 45.008 223.176 43.4 221.448 42.656L219.888 45.008C221.544 45.752 224.28 47.312 225.672 48.44ZM243.648 41.192L240.24 39.824C239.808 40.832 239.352 41.624 239.064 42.248C237.768 44.552 232.848 54.344 231.096 59.144L234.48 60.296C234.84 59.024 235.656 56.336 236.304 54.944C237.144 53 238.512 51.32 240.144 51.32C241.008 51.32 241.464 51.824 241.536 52.664C241.608 53.648 241.608 55.592 241.68 56.888C241.8 58.616 243.024 60.224 245.688 60.224C249.384 60.224 251.592 57.488 252.864 53.36L250.248 51.248C249.576 54.224 248.28 56.936 246.192 56.936C245.4 56.936 244.752 56.552 244.656 55.616C244.536 54.608 244.584 52.688 244.536 51.632C244.44 49.616 243.36 48.488 241.56 48.488C240.648 48.488 239.712 48.704 238.824 49.232C240 47.096 241.68 44.024 242.88 42.32C243.144 41.912 243.384 41.504 243.648 41.192ZM255.509 42.512L255.821 45.8C258.605 45.176 263.501 44.672 265.757 44.432C264.125 45.656 262.181 48.368 262.181 51.824C262.181 57.032 266.933 59.744 271.973 60.056L273.077 56.768C269.021 56.552 265.325 55.136 265.325 51.176C265.325 48.344 267.509 45.224 270.389 44.456C271.685 44.168 273.749 44.144 275.045 44.144L275.021 41.048C273.317 41.12 270.701 41.264 268.229 41.48C263.813 41.864 259.877 42.2 257.861 42.392C257.405 42.44 256.445 42.488 255.509 42.512ZM280.973 43.28L281.189 46.088C282.221 46.136 283.229 46.16 284.189 46.16C287.261 46.184 290.717 45.56 292.781 44.984L292.709 42.2C290.381 42.944 287.141 43.448 284.165 43.448C283.301 43.448 282.005 43.4 280.973 43.28ZM290.309 39.68L286.997 39.368C286.925 41.216 286.397 43.448 285.821 45.176C284.885 47.768 282.725 51.968 280.565 54.608L283.469 56.096C285.509 53.264 287.669 48.8 288.773 45.344C289.421 43.304 289.997 40.952 290.309 39.68ZM295.949 47.168H292.925C293.045 49.688 293.309 54.104 293.309 55.544C293.309 56.888 292.781 57.8 291.149 57.8C289.829 57.8 289.061 57.176 289.061 56.288C289.061 55.448 289.973 54.848 291.365 54.848C294.989 54.848 297.725 57.32 299.453 58.928L301.037 56.336C299.045 54.536 295.733 52.424 291.533 52.424C288.197 52.424 286.229 54.248 286.229 56.576C286.229 59.216 288.581 60.56 291.557 60.56C294.989 60.56 296.189 58.808 296.189 56.576C296.189 55.232 295.973 51.656 295.925 50.24C295.901 49.184 295.877 48.176 295.949 47.168ZM300.077 48.44L301.781 45.896C300.533 45.008 297.581 43.4 295.853 42.656L294.293 45.008C295.949 45.752 298.685 47.312 300.077 48.44ZM310.421 41.864L306.725 41.816C306.893 42.56 306.917 43.592 306.917 44.24C306.917 45.704 306.941 48.536 307.181 50.744C307.853 57.176 310.133 59.528 312.797 59.528C314.717 59.528 316.205 58.088 317.813 53.888L315.389 50.984C314.933 52.88 313.997 55.712 312.845 55.712C311.333 55.712 310.613 53.336 310.277 49.88C310.133 48.128 310.133 46.352 310.133 44.792C310.133 44.12 310.253 42.704 310.421 41.864ZM322.421 42.392L319.373 43.4C321.989 46.376 323.285 52.184 323.645 56.072L326.813 54.824C326.549 51.152 324.701 45.152 322.421 42.392Z" fill="white"/>
<circle cx="51" cy="51" r="48.5" fill="#FCFF61" stroke="white" stroke-width="5"/>
<path d="M47.7225 33.3985L31.4883 60.5001C31.1536 61.0798 30.9765 61.737 30.9746 62.4063C30.9728 63.0756 31.1462 63.7338 31.4776 64.3153C31.8091 64.8968 32.287 65.3814 32.8639 65.7209C33.4408 66.0603 34.0965 66.2428 34.7658 66.2501H67.2341C67.9034 66.2428 68.5592 66.0603 69.136 65.7209C69.7129 65.3814 70.1909 64.8968 70.5223 64.3153C70.8538 63.7338 71.0272 63.0756 71.0253 62.4063C71.0235 61.737 70.8464 61.0798 70.5117 60.5001L54.2775 33.3985C53.9358 32.8352 53.4547 32.3695 52.8806 32.0462C52.3065 31.723 51.6588 31.5532 51 31.5532C50.3412 31.5532 49.6934 31.723 49.1194 32.0462C48.5453 32.3695 48.0642 32.8352 47.7225 33.3985V33.3985Z" stroke="#5D504F" stroke-width="3" stroke-linecap="round" stroke-linejoin="round"/>
<path d="M51 43.25V50.9167" stroke="#5D504F" stroke-width="4" stroke-linecap="round" stroke-linejoin="round"/>
<path d="M51 58.5835H51.0192" stroke="#5D504F" stroke-width="5" stroke-linecap="round" stroke-linejoin="round"/>
</svg>
