<svg width="140" height="140" viewBox="0 0 140 140" fill="none" xmlns="http://www.w3.org/2000/svg">
<g clip-path="url(#clip0_1967_1919)">
<path d="M71.6998 30.2154L15.6405 84.8703C14.4715 86.0471 13.631 87.5096 13.2026 89.1121C12.7743 90.7147 12.773 92.4014 13.1989 94.0046C13.6248 95.6078 14.4631 97.0715 15.6304 98.2502C16.7976 99.4288 18.2531 100.281 19.8521 100.723L97.6459 121.284C99.2541 121.69 100.941 121.668 102.538 121.22C104.135 120.772 105.587 119.913 106.75 118.73C107.912 117.547 108.744 116.08 109.164 114.475C109.583 112.87 109.575 111.183 109.14 109.582L87.4055 34.3665C86.9435 32.8004 86.0857 31.3799 84.9149 30.2419C83.7441 29.104 82.2997 28.2869 80.7211 27.8697C79.1426 27.4525 77.4832 27.4492 75.903 27.8601C74.3228 28.271 72.8752 29.0822 71.6998 30.2154V30.2154Z" fill="#FFC148"/>
<path d="M73.314 55.8955L68.459 74.2648" stroke="#F9F9F9" stroke-width="10" stroke-linecap="round" stroke-linejoin="round"/>
<path d="M63.6039 92.6338L63.6499 92.6459" stroke="#F9F9F9" stroke-width="10" stroke-linecap="round" stroke-linejoin="round"/>
</g>
<defs>
<clipPath id="clip0_1967_1919">
<rect width="114" height="114" fill="white" transform="translate(29.1299) rotate(14.8047)"/>
</clipPath>
</defs>
</svg>
