<svg width="98" height="98" viewBox="0 0 98 98" fill="none" xmlns="http://www.w3.org/2000/svg">
<g clip-path="url(#clip0_1967_1943)">
<path d="M55.8089 24.8222L13.3356 50.143C12.4444 50.6938 11.713 51.4684 11.2141 52.3896C10.7152 53.3109 10.4662 54.3467 10.492 55.3941C10.5177 56.4414 10.8172 57.4638 11.3607 58.3595C11.9042 59.2551 12.6728 59.9929 13.5899 60.4993L58.3457 84.5739C59.2738 85.0601 60.3129 85.2947 61.3598 85.2545C62.4067 85.2144 63.4249 84.9008 64.3129 84.345C65.201 83.7892 65.9281 83.0105 66.4218 82.0865C66.9155 81.1625 67.1587 80.1253 67.1271 79.0781L64.8446 29.6826C64.7912 28.6528 64.4734 27.6541 63.9217 26.7828C63.37 25.9116 62.6031 25.1973 61.6949 24.7088C60.7868 24.2203 59.768 23.9741 58.737 23.9939C57.706 24.0138 56.6975 24.2991 55.8089 24.8222V24.8222Z" fill="#6BE6AD"/>
<path d="M53.0219 40.832L47.3372 51.4001" stroke="#F9F9F9" stroke-width="6" stroke-linecap="round" stroke-linejoin="round"/>
<path d="M41.6525 61.9688L41.6789 61.983" stroke="#F9F9F9" stroke-width="6" stroke-linecap="round" stroke-linejoin="round"/>
</g>
<defs>
<clipPath id="clip0_1967_1943">
<rect width="72" height="72" fill="white" transform="translate(34.1082) rotate(28.2763)"/>
</clipPath>
</defs>
</svg>
