<svg width="146" height="146" viewBox="0 0 146 146" fill="none" xmlns="http://www.w3.org/2000/svg">
<path d="M52.3699 39.164L36.8189 115.897C36.5155 117.528 36.6444 119.21 37.1928 120.775C37.7412 122.341 38.6899 123.735 39.9447 124.82C41.1994 125.905 42.7164 126.643 44.3446 126.96C45.9729 127.277 47.6558 127.161 49.2257 126.626L125.092 99.8119C126.649 99.242 128.031 98.2741 129.098 97.0045C130.166 95.735 130.883 94.208 131.177 92.5755C131.471 90.943 131.333 89.2619 130.776 87.6994C130.219 86.137 129.262 84.7477 128.001 83.6697L67.6864 33.7506C66.4228 32.7166 64.9141 32.0257 63.3057 31.7446C61.6974 31.4634 60.0437 31.6016 58.5043 32.1457C56.9649 32.6898 55.5916 33.6214 54.5171 34.8508C53.4426 36.0801 52.7031 37.5657 52.3699 39.164V39.164Z" fill="#E06363"/>
<path d="M68.1642 59.4775L74.4957 77.3916" stroke="#F9F9F9" stroke-width="10" stroke-linecap="round" stroke-linejoin="round"/>
<path d="M80.8272 95.3047L80.872 95.2889" stroke="#F9F9F9" stroke-width="10" stroke-linecap="round" stroke-linejoin="round"/>
</svg>
