<svg width="375" height="85" viewBox="0 0 375 85" fill="none" xmlns="http://www.w3.org/2000/svg">
<path d="M38.2033 53.043C39.8786 51.5878 41.5916 51.0287 43.3424 51.3655C45.3344 51.7054 46.7349 52.8882 47.5437 54.9137C48.1964 56.6686 47.9217 58.1648 46.7196 59.4023C45.3708 60.5932 43.9464 61.1338 42.4464 61.0242C40.8944 60.8244 39.4348 59.9543 38.0675 58.4138L37.6614 67.6762L29.9176 67.64C30.1503 62.8525 30.3522 57.9079 30.5234 52.8061C30.491 48.5971 30.4373 44.455 30.3623 40.3798L9.13725 55.2741L4.4891 49.7052L23.3572 37.2642C26.6415 35.0694 29.1709 33.8495 30.9454 33.6046C32.9613 33.3629 34.7308 34.1476 36.2542 35.9588C37.5268 37.5428 38.1771 39.8125 38.205 42.7678L38.2033 53.043ZM42.0777 59.1389C43.0524 59.3758 44.0083 59.1647 44.9453 58.5056C45.9675 57.579 46.157 56.3503 45.5137 54.8195C45.0454 54.0073 44.3712 53.4611 43.4911 53.1807C42.5684 53.0341 41.7758 53.113 41.1133 53.4176C40.0722 53.8962 39.4972 54.5601 39.3882 55.4093C39.2792 56.2585 39.5062 57.0674 40.0692 57.8361C40.5801 58.5145 41.2496 58.9488 42.0777 59.1389Z" fill="#20548A"/>
<path d="M81.1869 39.7577C80.9122 42.9095 80.1236 47.2688 78.8212 52.8356L71.2182 52.3798C72.1652 48.1325 72.7369 44.8832 72.9331 42.6319C73.2475 39.5764 73.463 36.5534 73.5795 33.5629C68.5918 35.638 64.6928 37.3556 61.8825 38.7158C59.369 39.9785 55.213 42.1632 49.4144 45.27L47.093 38.8156C60.353 32.2747 68.3686 28.5493 71.1397 27.6394C76.0881 26.0146 79.2962 26.984 80.7641 30.5477C81.5178 32.3777 81.6588 35.4477 81.1869 39.7577ZM56.555 23.7356C61.3251 21.9507 66.7287 20.067 72.7657 18.0847L74.9675 23.4303C70.0191 25.0551 65.6547 26.5976 61.8743 28.0576C59.4397 28.9663 54.6106 31.1534 47.3867 34.6188L45.1248 28.3089C50.0135 26.2663 53.8236 24.7419 56.555 23.7356Z" fill="#20548A"/>
<path d="M99.9258 20.6175C103.814 16.607 107.679 12.708 111.518 8.9204L117.956 12.5056L108.788 21.7771L113.597 44.2067L106.372 45.5723L103.036 28.095L94.3147 39.6644L88.6531 33.5231C92.2578 29.2535 96.0153 24.9516 99.9258 20.6175Z" fill="#20548A"/>
<path d="M159.181 21.1693L166.295 27.8502L161.712 34.1054C158.61 31.0604 155.406 28.0256 152.097 25.0009C149.034 22.2661 146.099 19.7279 143.294 17.3864L135.615 33.0473L128.961 28.8326L133.532 19.9105C135.056 16.9364 136.448 14.603 137.709 12.9102C139.322 10.6599 141.236 9.58339 143.451 9.68069C145.135 9.72528 146.798 10.4521 148.439 11.861L151.251 14.2542L159.181 21.1693ZM155.041 6.66401L158.598 13.8497L154.551 15.501L151.385 7.6493L155.041 6.66401ZM159.399 4.98235L163.266 12.1377L159.648 13.4331L156.092 6.2474L159.399 4.98235Z" fill="#20548A"/>
<path d="M172.688 17.5096L206.13 17.4585L205.893 22.6121C198.287 22.7255 191.46 22.9007 185.414 23.1377C183.223 23.3187 178.946 23.7341 172.58 24.3838L172.688 17.5096Z" fill="#20548A"/>
<path d="M216.406 4.71217L223.703 5.53656L221.021 20.0086L223.787 16.0772L240.9 25.5552L237.073 31.4101C234.38 29.6388 231.634 27.8616 228.837 26.0786C226.011 24.5018 223.325 23.0458 220.78 21.7104L217.948 39.4663L210.651 38.6419L216.406 4.71217Z" fill="#20548A"/>
<path d="M259.875 12.5686L262.1 25.6747L254.722 26.6146L252.455 13.6592L259.875 12.5686ZM269.429 29.0368C272.022 25.8778 275.529 21.1617 279.95 14.8885L286.045 18.6193C281.126 25.5288 276.913 31.0486 273.405 35.1788C270.525 38.5946 266.97 42.5017 262.741 46.9L257.324 41.88C263.271 35.9411 267.306 31.6601 269.429 29.0368ZM279.427 36.8172L280.408 43.2615L276.566 43.6981L275.668 36.9524L279.427 36.8172ZM275.032 38.0909L275.86 44.5018L272.13 45.1224L271.232 38.3768L275.032 38.0909Z" fill="#20548A"/>
<path d="M291.577 32.8717L323.447 43.1151L321.292 47.8148C314.004 45.579 307.437 43.6406 301.59 41.9996C299.436 41.4932 295.206 40.5614 288.901 39.2045L291.577 32.8717Z" fill="#20548A"/>
<path d="M340.74 34.8648L349.199 46.3235L341.855 50.2961L334.008 38.0923L340.74 34.8648ZM358.584 56.4965L358.565 63.3454L324.743 67.0632L323.643 59.3533L358.584 56.4965Z" fill="#20548A"/>
<path d="M154.938 68.8125C154.625 68.9062 154.047 69.0156 153.203 69.1406L153.109 72.0469H151.281L151.703 63L153.719 62.5781C154.531 62.4219 155.141 62.3438 155.547 62.3438C156.266 62.375 156.828 62.625 157.234 63.0938C157.609 63.5312 157.844 64.1094 157.938 64.8281C158.031 65.6094 157.938 66.2969 157.656 66.8906C157.375 67.4844 156.984 67.9219 156.484 68.2031C156.078 68.4219 155.562 68.625 154.938 68.8125ZM153.484 64.3594L153.297 67.3594C153.828 67.2969 154.203 67.2344 154.422 67.1719C154.953 67.0156 155.359 66.8125 155.641 66.5625C155.891 66.3438 156.047 66.0781 156.109 65.7656C156.172 65.4219 156.125 65.0625 155.969 64.6875C155.75 64.1875 155.391 63.9844 154.891 64.0781L153.484 64.3594ZM160.656 68.9062L160.469 71.9531L158.594 72.0469L159.203 65.1094H161.031L160.844 66.7031C161.188 66.2969 161.5 65.9688 161.781 65.7188C162.219 65.3125 162.625 65.0938 163 65.0625C163.312 65.0312 163.578 65.125 163.797 65.3438C164.047 65.5938 164.188 65.9688 164.219 66.4688C164.25 66.9062 164.172 67.5156 163.984 68.2969L162.156 68.25C162.281 67.8438 162.297 67.5781 162.203 67.4531C162.078 67.2969 161.875 67.375 161.594 67.6875L160.656 68.9062ZM167.125 65.25L166.938 72.0469H164.781L165.203 65.1562L167.125 65.25ZM166.188 64.6875C165.812 64.6875 165.531 64.5938 165.344 64.4062C165.125 64.1875 165.016 63.9062 165.016 63.5625C165.016 63.125 165.125 62.7969 165.344 62.5781C165.562 62.3594 165.859 62.25 166.234 62.25C166.609 62.25 166.891 62.3438 167.078 62.5312C167.297 62.75 167.406 63.0625 167.406 63.4688C167.406 63.8438 167.297 64.1406 167.078 64.3594C166.859 64.5781 166.562 64.6875 166.188 64.6875ZM169.328 72L167.922 65.2031L169.797 65.0625L170.594 68.7656L172.141 65.0625L174.203 65.1562C173.516 66.7188 173 67.9688 172.656 68.9062C172.406 69.5312 172.062 70.5469 171.625 71.9531L169.328 72ZM177.953 66.4688C177.734 66.5312 177.422 66.7344 177.016 67.0781L175.844 66.0469C176.406 65.5781 176.812 65.2969 177.062 65.2031C177.531 65.0156 177.984 64.9531 178.422 65.0156C179.047 65.1094 179.516 65.3906 179.828 65.8594C179.984 66.1094 180.094 66.4375 180.156 66.8438C180.219 67.2812 180.234 67.8281 180.203 68.4844L180.016 71.9062L177.906 72L178.188 71.1562C177.531 71.6562 177.031 71.9531 176.688 72.0469C176.094 72.2031 175.562 72.0312 175.094 71.5312C174.812 71.2188 174.672 70.7188 174.672 70.0312C174.672 69.4688 174.828 68.9531 175.141 68.4844C175.578 67.8281 176.141 67.4531 176.828 67.3594C177.109 67.3281 177.422 67.3594 177.766 67.4531C177.984 67.5156 178.25 67.6875 178.562 67.9688C178.656 67.3125 178.672 66.8906 178.609 66.7031C178.516 66.4531 178.297 66.375 177.953 66.4688ZM176.688 70.3594C176.812 70.4531 176.969 70.4844 177.156 70.4531C177.406 70.4219 177.656 70.3281 177.906 70.1719C178.406 69.8906 178.562 69.5469 178.375 69.1406C178.219 68.8906 178 68.7656 177.719 68.7656C177.594 68.7656 177.406 68.8281 177.156 68.9531C176.781 69.1406 176.562 69.4219 176.5 69.7969C176.469 70.0469 176.531 70.2344 176.688 70.3594ZM182.359 66.2812L182.922 62.2969L184.75 62.4375L184.281 66.2344H185.875V67.5938L184.188 67.6875L184 71.9531H181.938L182.172 67.9219L180.766 68.1562L180.859 66.3281L182.359 66.2812ZM188.172 69.2344C188.109 69.5469 188.125 69.8438 188.219 70.125C188.312 70.4062 188.484 70.5938 188.734 70.6875C189.109 70.8438 189.5 70.8125 189.906 70.5938C190.125 70.5 190.438 70.2031 190.844 69.7031L191.594 70.5C191.062 71.2812 190.484 71.7812 189.859 72C189.422 72.1562 188.938 72.1875 188.406 72.0938C187.844 72 187.406 71.7812 187.094 71.4375C186.781 71.0938 186.594 70.6562 186.531 70.125C186.438 69.4688 186.438 68.9062 186.531 68.4375C186.781 67.1875 187.219 66.2969 187.844 65.7656C188.281 65.3906 188.75 65.1562 189.25 65.0625C189.969 64.9375 190.578 65.0469 191.078 65.3906C191.703 65.8281 192.016 66.4688 192.016 67.3125C192.016 67.9062 191.922 68.4844 191.734 69.0469L188.172 69.2344ZM190.234 67.9688C190.297 67.5312 190.312 67.2031 190.281 66.9844C190.25 66.6094 190.125 66.375 189.906 66.2812C189.469 66.0938 189.094 66.2812 188.781 66.8438C188.656 67.0625 188.531 67.4531 188.406 68.0156L190.234 67.9688ZM200.453 64.3594L196.984 65.1094L197.031 62.9531L200.547 62.4375C201.672 62.2812 202.406 62.375 202.75 62.7188C202.969 62.9375 203.062 63.2344 203.031 63.6094C203 63.9219 202.891 64.2188 202.703 64.5L198.953 70.125C199.797 70.0625 200.359 70 200.641 69.9375C201.109 69.8438 201.75 69.6562 202.562 69.375L202.516 71.5312C200.734 72 199.328 72.2031 198.297 72.1406C197.891 72.1094 197.547 72.0156 197.266 71.8594C196.828 71.6094 196.609 71.2812 196.609 70.875C196.609 70.5312 196.734 70.0938 196.984 69.5625C197.109 69.3125 197.609 68.5469 198.484 67.2656L200.453 64.3594ZM204.766 66C205.297 65.4062 206.031 65.0938 206.969 65.0625C208.344 65 209.203 65.5938 209.547 66.8438C209.703 67.5 209.734 68.2031 209.641 68.9531C209.547 69.6719 209.328 70.2969 208.984 70.8281C208.578 71.4219 208.062 71.8125 207.438 72C206.875 72.1562 206.359 72.2031 205.891 72.1406C205.109 72.0469 204.531 71.7344 204.156 71.2031C203.75 70.6406 203.594 69.7812 203.688 68.625C203.781 67.5625 204.141 66.6875 204.766 66ZM205.562 69.4219C205.625 70.2656 205.875 70.75 206.312 70.875C206.75 71 207.109 70.7969 207.391 70.2656C207.547 69.9844 207.656 69.4531 207.719 68.6719C207.75 68.1719 207.75 67.7031 207.719 67.2656C207.688 66.8594 207.547 66.5938 207.297 66.4688C206.828 66.25 206.438 66.3594 206.125 66.7969C205.656 67.4531 205.469 68.3281 205.562 69.4219ZM212.219 72H210.297L211 65.0625L212.781 65.2031L212.734 65.9531C213.453 65.3906 214.125 65.1094 214.75 65.1094C215.406 65.1094 215.875 65.25 216.156 65.5312C216.469 65.8438 216.656 66.1719 216.719 66.5156C216.781 66.8594 216.812 67.3125 216.812 67.875L216.719 72H214.562L214.75 69.6094C214.812 68.8281 214.844 68.1719 214.844 67.6406C214.844 67.0781 214.734 66.7656 214.516 66.7031C214.297 66.6406 214.062 66.6875 213.812 66.8438C213.531 67.0312 213.328 67.1719 213.203 67.2656C212.891 67.5156 212.656 67.7656 212.5 68.0156C212.406 68.5156 212.344 69.0781 212.312 69.7031L212.219 72ZM219.156 69.2344C219.094 69.5469 219.109 69.8438 219.203 70.125C219.297 70.4062 219.469 70.5938 219.719 70.6875C220.094 70.8438 220.484 70.8125 220.891 70.5938C221.109 70.5 221.422 70.2031 221.828 69.7031L222.578 70.5C222.047 71.2812 221.469 71.7812 220.844 72C220.406 72.1562 219.922 72.1875 219.391 72.0938C218.828 72 218.391 71.7812 218.078 71.4375C217.766 71.0938 217.578 70.6562 217.516 70.125C217.422 69.4688 217.422 68.9062 217.516 68.4375C217.766 67.1875 218.203 66.2969 218.828 65.7656C219.266 65.3906 219.734 65.1562 220.234 65.0625C220.953 64.9375 221.562 65.0469 222.062 65.3906C222.688 65.8281 223 66.4688 223 67.3125C223 67.9062 222.906 68.4844 222.719 69.0469L219.156 69.2344ZM221.219 67.9688C221.281 67.5312 221.297 67.2031 221.266 66.9844C221.234 66.6094 221.109 66.375 220.891 66.2812C220.453 66.0938 220.078 66.2812 219.766 66.8438C219.641 67.0625 219.516 67.4531 219.391 68.0156L221.219 67.9688Z" fill="#FFA800"/>
</svg>
