<svg width="389" height="101" viewBox="0 0 389 101" fill="none" xmlns="http://www.w3.org/2000/svg">
<g filter="url(#filter0_d_601_869)">
<path d="M1.625 24.25L14.375 25L12.875 56.5L0.5 55L1.625 24.25ZM15.875 2.5L30.125 2.875L29.375 20.875L35.375 25L39.125 8.875L51.5 12.25L50 21.25L56.375 21.625L57.125 2.125L72.125 2.5L71.75 21.25L89.75 21.625V33.25L71 33.625L70.625 49.75L86.375 49.375L86.75 49.75V61L70.625 61.375V78.625H92.375L92 90.625L71.375 91L51.875 92.125L32 93.625L32.375 79.75L55.25 78.625L55.625 62.5L39.125 64.375L39.5 50.875L55.625 50.125L56 34.375L47 35.125L44 49L32 45.25L31.25 44.875L32.375 39.625L29 36.625L28.625 80.875V93.625H14L14.75 32.875L15.875 2.5ZM143.75 12.625L141.875 2.5H156.5L158.375 12.625L168.125 12.25C165.625 9.25 165 6.75 166.25 4.75C167.25 3.25 168.625 2.25 170.375 1.75C172.625 1.25 174.75 1.75 176.75 3.25C178.75 4.75 179.625 6.5 179.375 8.5C179.375 9 179.125 9.625 178.625 10.375C178.125 11.125 177.625 11.75 177.125 12.25L188.75 12.625L188.375 23.875L161 22.75C161.75 26 162.5 28.75 163.25 31L167.75 23.875L179.75 29.875L170.375 45.25C171.375 46.75 172.375 47.875 173.375 48.625L177.5 42.25L188.375 49.75C186.875 53.5 185.25 56.875 183.5 59.875C181.5 63.125 179 65 176 65.5C172 66 167.625 63.75 162.875 58.75L159.5 65.125L148.625 56.875L155 46C152.75 41.75 150.5 36.125 148.25 29.125L149.375 35.5L116.375 37.75L117.125 27.625L131.75 26.5L147.125 25.375L146.375 23.125L115.25 25.375L111.875 64.375L97.625 65.5L102.125 13.75L143.75 12.625ZM109.25 66.25L121.625 71.5L112.625 92.5L97.625 86.5L109.25 66.25ZM145.625 40.75C146.625 42.5 147.125 45.25 147.125 49L146.75 61C151.75 61 155.125 62.375 156.875 65.125C158.375 67.375 158.75 69.75 158 72.25C157.5 74.25 156.5 75.75 155 76.75C153.5 77.75 151.625 78.25 149.375 78.25C147.125 78.25 145.25 77.625 143.75 76.375C141.25 74.625 140.25 72 140.75 68.5C141 66.75 141.75 64.875 143 62.875L114.875 63.625L116 39.25C127 37.75 135 37.25 140 37.75C142.75 38 144.625 39 145.625 40.75ZM138.5 65.125L138.875 79.75H157.625V74.125L170.375 77.125C170.375 72.375 172.25 69.5 176 68.5C181 67.25 184.75 68.625 187.25 72.625C188.5 74.625 188.75 76.875 188 79.375C187.25 81.875 185.75 83.625 183.5 84.625C180.25 86.125 176.5 85 172.25 81.25C171.5 87 169.625 90.375 166.625 91.375L161.375 93.25L132.125 92.875C130.375 92.875 128.5 91.75 126.5 89.5C125.5 88.5 124.75 86.5 124.25 83.5C124 82 124 80.125 124.25 77.875L125 65.5L138.5 65.125ZM134.75 53.875V47.5H127.625L127.25 54.25L134.75 53.875ZM193.625 58.375L230.75 57.625L231.125 50.875L247.25 51.25L246.875 57.25H285.125L284.75 69.625L265.25 69.25L285.875 80.125L274.25 93.625L247.625 76L248 92.875L230 93.25V76.375L209.375 93.625L193.625 83.875L210.125 71.875L193.625 73.75V58.375ZM197.375 33.25C194.375 31.5 193 28.625 193.25 24.625C193.5 22.375 194.375 20.625 195.875 19.375C197.625 17.875 199.875 17.125 202.625 17.125C207.875 17.125 210.625 19.625 210.875 24.625C211.125 28.875 209.625 31.75 206.375 33.25C203.125 34.75 200.125 34.75 197.375 33.25ZM219.875 24.25C222.875 26.75 226 29.875 229.25 33.625L206.375 55L195.5 45.625L219.875 24.25ZM208.25 17.875C205.25 16.375 203.5 14 203 10.75C202.5 7.5 203.75 5 206.75 3.25C210.25 1.25 213.375 1 216.125 2.5C218.375 3.75 219.625 5.75 219.875 8.5C220.375 12.25 219.25 15.125 216.5 17.125C214 19.125 211.25 19.375 208.25 17.875ZM227.375 28C227.625 22.25 228.125 17 228.875 12.25L242 11.875L245.375 0.625L260 3.625L257.375 11.5C263.875 10.75 268.625 11.75 271.625 14.5C273.125 16 274.125 18 274.625 20.5C274.875 22 275 24.375 275 27.625V36.625L285.125 37L284.375 50.875L275.75 51.25C269.75 51.5 265.625 50.75 263.375 49C260.375 46.75 258.875 43.625 258.875 39.625V23.5L254 23.875L245.75 49.75L230.75 46.375L237.5 26.125L227.375 28ZM295.625 50.125L296.75 42.25L289.25 37.75L293.375 22.375L298.25 25L300.125 12.625L333.125 11.5L333.5 1.375L350 2.125L349.25 11.5L380.375 11.875L380.75 23.5L353.375 23.125L312.5 25.75L309.125 76.375V93.25L292.25 91.75L293.75 66.25L289.625 68.5L288.875 53.125L295.625 50.125ZM312.125 77.875H318.5L319.625 47.5H334.625L333.5 77.875H338.75L339.875 40L316.625 42.25V29.125L361.25 28.375H376.25L375.875 39.25L356.375 38.875L355.625 50.875L375.5 50.5L375.125 62.125L355.25 63.625V77.5L381.125 77.125L380.75 88.75L342.875 89.5L312.125 91.375V77.875Z" fill="white"/>
<path d="M1.625 24.25L1.97733 18.2604C0.365742 18.1656 -1.21606 18.7242 -2.41068 19.81C-3.60531 20.8959 -4.31197 22.4173 -4.37099 24.0306L1.625 24.25ZM14.375 25L20.3682 25.2854C20.5246 22.0016 18.0092 19.2034 14.7273 19.0104L14.375 25ZM12.875 56.5L12.153 62.4564C13.8083 62.657 15.4724 62.1598 16.7462 61.084C18.0201 60.0082 18.7889 58.4509 18.8682 56.7854L12.875 56.5ZM0.5 55L-5.49599 54.7806C-5.61 57.897 -3.31776 60.5812 -0.221988 60.9564L0.5 55ZM15.875 2.5L16.0328 -3.49792C12.7453 -3.58444 10.0008 -1.00846 9.87911 2.27793L15.875 2.5ZM30.125 2.875L36.1198 3.12478C36.1867 1.51893 35.6065 -0.0466274 34.5093 -1.22107C33.4121 -2.39552 31.8895 -3.08064 30.2828 -3.12292L30.125 2.875ZM29.375 20.875L23.3802 20.6252C23.2943 22.6878 24.2747 24.6497 25.9758 25.8193L29.375 20.875ZM35.375 25L31.9758 29.9443C33.6106 31.0681 35.6952 31.3113 37.5447 30.594C39.3943 29.8766 40.7697 28.2913 41.219 26.3591L35.375 25ZM39.125 8.875L40.7037 3.08642C39.1306 2.65738 37.4506 2.88708 36.0504 3.72266C34.6501 4.55824 33.6503 5.92772 33.281 7.51592L39.125 8.875ZM51.5 12.25L57.4184 13.2364C57.9246 10.1991 56.0494 7.27161 53.0787 6.46142L51.5 12.25ZM50 21.25L44.0816 20.2636C43.8018 21.9426 44.2483 23.6615 45.3099 24.9921C46.3716 26.3227 47.9484 27.1397 49.6477 27.2396L50 21.25ZM56.375 21.625L56.0227 27.6146C57.6323 27.7093 59.2123 27.1522 60.4065 26.0687C61.6007 24.9853 62.3086 23.4668 62.3706 21.8556L56.375 21.625ZM57.125 2.125L57.275 -3.87313C53.9937 -3.95516 51.2556 -1.38542 51.1294 1.8944L57.125 2.125ZM72.125 2.5L78.1238 2.61998C78.1898 -0.681369 75.5759 -3.4156 72.275 -3.49813L72.125 2.5ZM71.75 21.25L65.7512 21.13C65.685 24.4411 68.314 27.1797 71.625 27.2487L71.75 21.25ZM89.75 21.625H95.75C95.75 18.36 93.1393 15.6943 89.875 15.6263L89.75 21.625ZM89.75 33.25L89.87 39.2488C93.1363 39.1835 95.75 36.5169 95.75 33.25H89.75ZM71 33.625L70.88 27.6262C67.6678 27.6904 65.0763 30.2736 65.0016 33.4855L71 33.625ZM70.625 49.75L64.6266 49.6105C64.5885 51.2503 65.2234 52.8343 66.3835 53.9938C67.5437 55.1533 69.128 55.7873 70.7678 55.7483L70.625 49.75ZM86.375 49.375L90.6176 45.1324C89.4574 43.9721 87.8726 43.3376 86.2322 43.3767L86.375 49.375ZM86.75 49.75H92.75C92.75 48.1587 92.1179 46.6326 90.9926 45.5074L86.75 49.75ZM86.75 61L86.8895 66.9984C90.148 66.9226 92.75 64.2594 92.75 61H86.75ZM70.625 61.375L70.4855 55.3766C67.227 55.4524 64.625 58.1156 64.625 61.375H70.625ZM70.625 78.625H64.625C64.625 81.9387 67.3113 84.625 70.625 84.625V78.625ZM92.375 78.625L98.3721 78.8124C98.4228 77.1894 97.8135 75.6151 96.6834 74.4491C95.5533 73.2831 93.9988 72.625 92.375 72.625V78.625ZM92 90.625L92.1091 96.624C95.307 96.5659 97.8972 94.0093 97.9971 90.8124L92 90.625ZM71.375 91L71.2659 85.001C71.187 85.0024 71.1082 85.0054 71.0294 85.01L71.375 91ZM51.875 92.125L51.5294 86.135C51.4941 86.137 51.4588 86.1394 51.4235 86.142L51.875 92.125ZM32 93.625L26.0022 93.4629C25.9563 95.1603 26.6318 96.7976 27.8611 97.9689C29.0904 99.1402 30.7584 99.7358 32.4515 99.608L32 93.625ZM32.375 79.75L32.0803 73.7572C28.9474 73.9113 26.4619 76.4524 26.3772 79.5879L32.375 79.75ZM55.25 78.625L55.5447 84.6178C58.6863 84.4633 61.1753 81.909 61.2484 78.7645L55.25 78.625ZM55.625 62.5L61.6234 62.6395C61.6637 60.9064 60.9524 59.2405 59.6727 58.071C58.393 56.9015 56.6701 56.3426 54.9475 56.5384L55.625 62.5ZM39.125 64.375L33.1273 64.2084C33.079 65.9461 33.7868 67.6192 35.0673 68.7948C36.3478 69.9704 38.0752 70.5329 39.8025 70.3366L39.125 64.375ZM39.5 50.875L39.2212 44.8815C36.0836 45.0274 33.5895 47.5686 33.5023 50.7084L39.5 50.875ZM55.625 50.125L55.9038 56.1185C59.0506 55.9722 61.5483 53.4171 61.6233 50.2678L55.625 50.125ZM56 34.375L61.9983 34.5178C62.0388 32.8155 61.3542 31.1762 60.1149 30.0084C58.8757 28.8406 57.1986 28.2543 55.5017 28.3957L56 34.375ZM47 35.125L46.5017 29.1457C43.8715 29.3649 41.6933 31.2772 41.1355 33.857L47 35.125ZM44 49L42.2104 54.7269C43.8187 55.2295 45.5642 55.0326 47.0202 54.1844C48.4762 53.3363 49.5084 51.915 49.8645 50.268L44 49ZM32 45.25L29.3167 50.6166C29.6045 50.7604 29.9033 50.8809 30.2104 50.9769L32 45.25ZM31.25 44.875L25.3832 43.6178C24.8099 46.2934 26.1193 49.0179 28.5667 50.2416L31.25 44.875ZM32.375 39.625L38.2418 40.8822C38.6946 38.7693 37.9762 36.5761 36.3612 35.1405L32.375 39.625ZM29 36.625L32.9862 32.1405C31.2271 30.5769 28.7163 30.1862 26.5653 31.1412C24.4142 32.0962 23.0202 34.2207 23.0002 36.5742L29 36.625ZM28.625 80.875L22.6252 80.8242C22.6251 80.8411 22.625 80.858 22.625 80.875H28.625ZM28.625 93.625V99.625C31.9387 99.625 34.625 96.9387 34.625 93.625H28.625ZM14 93.625L8.00046 93.5509C7.98065 95.1549 8.60398 96.7001 9.73125 97.8414C10.8585 98.9827 12.3959 99.625 14 99.625V93.625ZM14.75 32.875L8.75411 32.6529C8.75228 32.7022 8.75107 32.7516 8.75046 32.8009L14.75 32.875ZM1.27267 30.2396L14.0227 30.9896L14.7273 19.0104L1.97733 18.2604L1.27267 30.2396ZM8.38179 24.7146L6.88179 56.2146L18.8682 56.7854L20.3682 25.2854L8.38179 24.7146ZM13.597 50.5436L1.22199 49.0436L-0.221988 60.9564L12.153 62.4564L13.597 50.5436ZM6.49599 55.2194L7.62099 24.4694L-4.37099 24.0306L-5.49599 54.7806L6.49599 55.2194ZM15.7172 8.49792L29.9672 8.87292L30.2828 -3.12292L16.0328 -3.49792L15.7172 8.49792ZM24.1302 2.62522L23.3802 20.6252L35.3698 21.1248L36.1198 3.12478L24.1302 2.62522ZM25.9758 25.8193L31.9758 29.9443L38.7742 20.0557L32.7742 15.9307L25.9758 25.8193ZM41.219 26.3591L44.969 10.2341L33.281 7.51592L29.531 23.6409L41.219 26.3591ZM37.5463 14.6636L49.9213 18.0386L53.0787 6.46142L40.7037 3.08642L37.5463 14.6636ZM45.5816 11.2636L44.0816 20.2636L55.9184 22.2364L57.4184 13.2364L45.5816 11.2636ZM49.6477 27.2396L56.0227 27.6146L56.7273 15.6354L50.3523 15.2604L49.6477 27.2396ZM62.3706 21.8556L63.1206 2.3556L51.1294 1.8944L50.3794 21.3944L62.3706 21.8556ZM56.975 8.12313L71.975 8.49813L72.275 -3.49813L57.275 -3.87313L56.975 8.12313ZM66.1262 2.38002L65.7512 21.13L77.7488 21.37L78.1238 2.61998L66.1262 2.38002ZM71.625 27.2487L89.625 27.6237L89.875 15.6263L71.875 15.2513L71.625 27.2487ZM83.75 21.625V33.25H95.75V21.625H83.75ZM89.63 27.2512L70.88 27.6262L71.12 39.6238L89.87 39.2488L89.63 27.2512ZM65.0016 33.4855L64.6266 49.6105L76.6234 49.8895L76.9984 33.7645L65.0016 33.4855ZM70.7678 55.7483L86.5178 55.3733L86.2322 43.3767L70.4822 43.7517L70.7678 55.7483ZM82.1324 53.6176L82.5074 53.9926L90.9926 45.5074L90.6176 45.1324L82.1324 53.6176ZM80.75 49.75V61H92.75V49.75H80.75ZM86.6105 55.0016L70.4855 55.3766L70.7645 67.3734L86.8895 66.9984L86.6105 55.0016ZM64.625 61.375V78.625H76.625V61.375H64.625ZM70.625 84.625H92.375V72.625H70.625V84.625ZM86.3779 78.4376L86.0029 90.4376L97.9971 90.8124L98.3721 78.8124L86.3779 78.4376ZM91.8909 84.626L71.2659 85.001L71.4841 96.999L92.1091 96.624L91.8909 84.626ZM71.0294 85.01L51.5294 86.135L52.2206 98.115L71.7206 96.99L71.0294 85.01ZM51.4235 86.142L31.5485 87.642L32.4515 99.608L52.3265 98.108L51.4235 86.142ZM37.9978 93.7871L38.3728 79.9121L26.3772 79.5879L26.0022 93.4629L37.9978 93.7871ZM32.6697 85.7428L55.5447 84.6178L54.9553 72.6322L32.0803 73.7572L32.6697 85.7428ZM61.2484 78.7645L61.6234 62.6395L49.6266 62.3605L49.2516 78.4855L61.2484 78.7645ZM54.9475 56.5384L38.4475 58.4134L39.8025 70.3366L56.3025 68.4616L54.9475 56.5384ZM45.1227 64.5416L45.4977 51.0416L33.5023 50.7084L33.1273 64.2084L45.1227 64.5416ZM39.7788 56.8685L55.9038 56.1185L55.3462 44.1315L39.2212 44.8815L39.7788 56.8685ZM61.6233 50.2678L61.9983 34.5178L50.0017 34.2322L49.6267 49.9822L61.6233 50.2678ZM55.5017 28.3957L46.5017 29.1457L47.4983 41.1043L56.4983 40.3543L55.5017 28.3957ZM41.1355 33.857L38.1355 47.732L49.8645 50.268L52.8645 36.393L41.1355 33.857ZM45.7896 43.2731L33.7896 39.5231L30.2104 50.9769L42.2104 54.7269L45.7896 43.2731ZM34.6833 39.8834L33.9333 39.5084L28.5667 50.2416L29.3167 50.6166L34.6833 39.8834ZM37.1168 46.1322L38.2418 40.8822L26.5082 38.3678L25.3832 43.6178L37.1168 46.1322ZM36.3612 35.1405L32.9862 32.1405L25.0138 41.1095L28.3888 44.1095L36.3612 35.1405ZM23.0002 36.5742L22.6252 80.8242L34.6248 80.9258L34.9998 36.6758L23.0002 36.5742ZM22.625 80.875V93.625H34.625V80.875H22.625ZM28.625 87.625H14V99.625H28.625V87.625ZM19.9995 93.6991L20.7495 32.9491L8.75046 32.8009L8.00046 93.5509L19.9995 93.6991ZM20.7459 33.0971L21.8709 2.72207L9.87911 2.27793L8.75411 32.6529L20.7459 33.0971ZM143.75 12.625L143.912 18.6228C145.666 18.5754 147.311 17.763 148.414 16.3993C149.518 15.0356 149.969 13.2574 149.65 11.5325L143.75 12.625ZM141.875 2.5V-3.5C140.092 -3.5 138.402 -2.7074 137.262 -1.33698C136.122 0.0334439 135.651 1.83978 135.975 3.59254L141.875 2.5ZM156.5 2.5L162.4 1.40746C161.873 -1.43653 159.392 -3.5 156.5 -3.5V2.5ZM158.375 12.625L152.475 13.7175C153.018 16.6473 155.628 18.7351 158.606 18.6206L158.375 12.625ZM168.125 12.25L168.356 18.2456C170.64 18.1577 172.677 16.7789 173.606 14.69C174.536 12.6012 174.198 10.1654 172.734 8.40889L168.125 12.25ZM166.25 4.75L161.258 1.4218C161.225 1.47073 161.193 1.52014 161.162 1.57001L166.25 4.75ZM170.375 1.75L169.073 -4.10712C168.957 -4.08125 168.841 -4.05191 168.727 -4.01914L170.375 1.75ZM179.375 8.5L173.421 7.75579C173.39 8.00266 173.375 8.25121 173.375 8.5H179.375ZM177.125 12.25L172.882 8.00736C171.191 9.69848 170.666 12.2324 171.545 14.4564C172.425 16.6805 174.541 18.1698 176.932 18.2469L177.125 12.25ZM188.75 12.625L194.747 12.8249C194.8 11.2334 194.218 9.68602 193.129 8.5237C192.041 7.36139 190.535 6.67946 188.943 6.62812L188.75 12.625ZM188.375 23.875L188.129 29.8699C189.727 29.9356 191.285 29.3606 192.457 28.2725C193.629 27.1844 194.318 25.6734 194.372 24.0749L188.375 23.875ZM161 22.75L161.246 16.7551C159.376 16.6782 157.577 17.4785 156.382 18.9191C155.187 20.3596 154.733 22.2753 155.154 24.0992L161 22.75ZM163.25 31L157.558 32.8974C158.291 35.0967 160.226 36.677 162.527 36.9563C164.829 37.2356 167.085 36.1641 168.323 34.204L163.25 31ZM167.75 23.875L170.433 18.5084C167.676 17.1299 164.323 18.0648 162.677 20.671L167.75 23.875ZM179.75 29.875L184.873 32.9986C185.747 31.5654 185.98 29.8315 185.517 28.2181C185.053 26.6046 183.935 25.2592 182.433 24.5084L179.75 29.875ZM170.375 45.25L165.252 42.1264C164.037 44.1193 164.088 46.636 165.383 48.5782L170.375 45.25ZM173.375 48.625L169.775 53.425C171.106 54.423 172.791 54.8238 174.428 54.5318C176.066 54.2397 177.509 53.281 178.412 51.8845L173.375 48.625ZM177.5 42.25L180.906 37.3107C179.571 36.3899 177.92 36.0489 176.329 36.3653C174.739 36.6818 173.344 37.6288 172.463 38.9905L177.5 42.25ZM188.375 49.75L193.946 51.9783C194.986 49.3768 194.088 46.4015 191.781 44.8107L188.375 49.75ZM183.5 59.875L188.61 63.0196C188.635 62.9794 188.659 62.939 188.683 62.8982L183.5 59.875ZM176 65.5L176.744 71.4537C176.825 71.4436 176.906 71.4318 176.986 71.4184L176 65.5ZM162.875 58.75L167.225 54.6175C165.895 53.2174 163.972 52.5431 162.059 52.8058C160.146 53.0684 158.476 54.2359 157.572 55.9427L162.875 58.75ZM159.5 65.125L155.874 69.9052C157.276 70.9692 159.075 71.3635 160.794 70.9837C162.514 70.6039 163.979 69.4883 164.803 67.9323L159.5 65.125ZM148.625 56.875L143.449 53.8407C141.912 56.4622 142.578 59.8186 144.999 61.6551L148.625 56.875ZM155 46L160.176 49.0343C161.228 47.2406 161.276 45.0303 160.303 43.1927L155 46ZM148.25 29.125L153.962 27.2889C152.997 24.2852 149.87 22.5424 146.807 23.301C143.745 24.0597 141.793 27.0606 142.341 30.1677L148.25 29.125ZM149.375 35.5L149.783 41.4861C151.482 41.3703 153.051 40.5384 154.1 39.1977C155.149 37.8571 155.58 36.1338 155.284 34.4573L149.375 35.5ZM116.375 37.75L110.391 37.3068C110.263 39.0415 110.894 40.7466 112.12 41.9802C113.346 43.2138 115.048 43.8544 116.783 43.7361L116.375 37.75ZM117.125 27.625L116.665 21.6427C113.708 21.8701 111.36 24.224 111.141 27.1818L117.125 27.625ZM131.75 26.5L131.312 20.516C131.305 20.5165 131.297 20.5171 131.29 20.5177L131.75 26.5ZM147.125 25.375L147.563 31.359C149.409 31.2239 151.09 30.2438 152.117 28.7032C153.144 27.1626 153.403 25.2342 152.817 23.4776L147.125 25.375ZM146.375 23.125L152.067 21.2276C151.2 18.6255 148.678 16.9429 145.942 17.1406L146.375 23.125ZM115.25 25.375L114.817 19.3906C111.877 19.6032 109.527 21.9205 109.272 24.8577L115.25 25.375ZM111.875 64.375L112.347 70.3564C115.271 70.1255 117.6 67.8145 117.853 64.8923L111.875 64.375ZM97.625 65.5L91.6476 64.9802C91.4947 66.7377 92.1231 68.4734 93.3655 69.7257C94.608 70.9781 96.3386 71.6202 98.0972 71.4814L97.625 65.5ZM102.125 13.75L101.963 7.75219C98.9138 7.8346 96.4118 10.1915 96.1476 13.2302L102.125 13.75ZM109.25 66.25L111.593 60.7265C108.798 59.5408 105.558 60.6297 104.046 63.2628L109.25 66.25ZM121.625 71.5L127.14 73.8635C127.768 72.3974 127.787 70.7414 127.192 69.2615C126.597 67.7815 125.437 66.5995 123.968 65.9765L121.625 71.5ZM112.625 92.5L110.397 98.0709C113.42 99.2804 116.857 97.8569 118.14 94.8635L112.625 92.5ZM97.625 86.5L92.4215 83.5128C91.5562 85.0201 91.387 86.8286 91.9577 88.4702C92.5284 90.1119 93.7829 91.4254 95.3967 92.0709L97.625 86.5ZM147.125 49L153.122 49.1874C153.124 49.125 153.125 49.0625 153.125 49H147.125ZM146.75 61L140.753 60.8126C140.702 62.4356 141.311 64.0099 142.442 65.1759C143.572 66.3419 145.126 67 146.75 67V61ZM156.875 65.125L151.813 68.3463C151.836 68.3821 151.859 68.4178 151.883 68.4532L156.875 65.125ZM158 72.25L152.253 70.5259C152.226 70.615 152.202 70.7046 152.179 70.7948L158 72.25ZM143.75 76.375L147.591 71.7657C147.462 71.6581 147.328 71.556 147.191 71.4596L143.75 76.375ZM143 62.875L148.088 66.055C149.259 64.1811 149.306 61.815 148.209 59.8967C147.112 57.9783 145.049 56.8182 142.84 56.8771L143 62.875ZM114.875 63.625L108.881 63.3484C108.805 65.0137 109.424 66.6359 110.591 67.8262C111.759 69.0164 113.368 69.6673 115.035 69.6229L114.875 63.625ZM116 39.25L115.189 33.305C112.32 33.6963 110.14 36.0808 110.006 38.9734L116 39.25ZM140 37.75L139.403 43.7202C139.421 43.722 139.439 43.7237 139.457 43.7254L140 37.75ZM138.5 65.125L144.498 64.9712C144.457 63.3782 143.784 61.8669 142.628 60.7706C141.471 59.6743 139.926 59.0831 138.333 59.1273L138.5 65.125ZM138.875 79.75L132.877 79.9038C132.96 83.1565 135.621 85.75 138.875 85.75V79.75ZM157.625 79.75V85.75C160.939 85.75 163.625 83.0637 163.625 79.75H157.625ZM157.625 74.125L158.999 68.2845C157.215 67.8647 155.337 68.2835 153.9 69.4215C152.463 70.5596 151.625 72.292 151.625 74.125H157.625ZM170.375 77.125L169.001 82.9655C170.785 83.3853 172.663 82.9665 174.1 81.8285C175.537 80.6904 176.375 78.958 176.375 77.125H170.375ZM176 68.5L174.545 62.6791C174.514 62.6867 174.484 62.6945 174.454 62.7026L176 68.5ZM183.5 84.625L181.063 79.1421C181.037 79.1536 181.011 79.1654 180.986 79.1772L183.5 84.625ZM172.25 81.25L176.22 76.751C174.556 75.2832 172.219 74.8531 170.142 75.6326C168.065 76.4122 166.587 78.2741 166.3 80.474L172.25 81.25ZM166.625 91.375L164.728 85.6829C164.687 85.6964 164.647 85.7102 164.607 85.7245L166.625 91.375ZM161.375 93.25L161.298 99.2495C162.012 99.2587 162.721 99.1404 163.393 98.9005L161.375 93.25ZM132.125 92.875L132.202 86.8755C132.176 86.8752 132.151 86.875 132.125 86.875V92.875ZM126.5 89.5L130.984 85.5138C130.906 85.426 130.826 85.3405 130.743 85.2574L126.5 89.5ZM124.25 77.875L130.213 78.5376C130.224 78.438 130.233 78.338 130.239 78.238L124.25 77.875ZM125 65.5L124.833 59.5023C121.726 59.5886 119.199 62.0341 119.011 65.137L125 65.5ZM134.75 53.875L135.05 59.8675C138.243 59.7079 140.75 57.0722 140.75 53.875H134.75ZM134.75 47.5H140.75C140.75 44.1863 138.064 41.5 134.75 41.5V47.5ZM127.625 47.5V41.5C124.441 41.5 121.811 43.9877 121.634 47.1672L127.625 47.5ZM127.25 54.25L121.259 53.9172C121.165 55.6158 121.796 57.2746 122.996 58.4809C124.195 59.6871 125.851 60.3275 127.55 60.2425L127.25 54.25ZM149.65 11.5325L147.775 1.40746L135.975 3.59254L137.85 13.7175L149.65 11.5325ZM141.875 8.5H156.5V-3.5H141.875V8.5ZM150.6 3.59254L152.475 13.7175L164.275 11.5325L162.4 1.40746L150.6 3.59254ZM158.606 18.6206L168.356 18.2456L167.894 6.25443L158.144 6.62943L158.606 18.6206ZM172.734 8.40889C172.287 7.87176 171.998 7.44537 171.818 7.12969C171.638 6.81245 171.6 6.66304 171.602 6.66979C171.607 6.69061 171.648 6.87521 171.607 7.16916C171.565 7.47509 171.455 7.74208 171.338 7.92999L161.162 1.57001C157.73 7.0615 160.605 12.5987 163.516 16.0911L172.734 8.40889ZM171.242 8.0782C171.444 7.77521 171.628 7.63212 172.023 7.51914L168.727 -4.01914C165.622 -3.13212 163.056 -1.27521 161.258 1.4218L171.242 8.0782ZM171.677 7.60712C172.059 7.52203 172.417 7.50027 173.15 8.05L180.35 -1.55C177.083 -4.00027 173.191 -5.02203 169.073 -4.10712L171.677 7.60712ZM173.15 8.05C173.606 8.39168 173.618 8.52757 173.54 8.37078C173.499 8.28914 173.456 8.17169 173.433 8.03327C173.41 7.89634 173.416 7.79658 173.421 7.75579L185.329 9.24421C185.913 4.56795 183.588 0.87856 180.35 -1.55L173.15 8.05ZM173.375 8.5C173.375 7.77229 173.55 7.28085 173.617 7.11541C173.688 6.93771 173.725 6.90908 173.633 7.0468L183.617 13.7032C184.317 12.6544 185.375 10.8035 185.375 8.5H173.375ZM173.633 7.0468C173.295 7.55287 173.039 7.85062 172.882 8.00736L181.368 16.4926C182.211 15.6494 182.955 14.6971 183.617 13.7032L173.633 7.0468ZM176.932 18.2469L188.557 18.6219L188.943 6.62812L177.318 6.25312L176.932 18.2469ZM182.753 12.4251L182.378 23.6751L194.372 24.0749L194.747 12.8249L182.753 12.4251ZM188.621 17.8801L161.246 16.7551L160.754 28.7449L188.129 29.8699L188.621 17.8801ZM155.154 24.0992C155.931 27.4663 156.729 30.4114 157.558 32.8974L168.942 29.1026C168.271 27.0886 167.569 24.5337 166.846 21.4008L155.154 24.0992ZM168.323 34.204L172.823 27.079L162.677 20.671L158.177 27.796L168.323 34.204ZM165.067 29.2416L177.067 35.2416L182.433 24.5084L170.433 18.5084L165.067 29.2416ZM174.627 26.7514L165.252 42.1264L175.498 48.3736L184.873 32.9986L174.627 26.7514ZM165.383 48.5782C166.608 50.4159 168.048 52.1296 169.775 53.425L176.975 43.825C176.702 43.6204 176.142 43.0841 175.367 41.9218L165.383 48.5782ZM178.412 51.8845L182.537 45.5095L172.463 38.9905L168.338 45.3655L178.412 51.8845ZM174.094 47.1893L184.969 54.6893L191.781 44.8107L180.906 37.3107L174.094 47.1893ZM182.804 47.5217C181.397 51.0405 179.897 54.1439 178.317 56.8518L188.683 62.8982C190.603 59.6061 192.353 55.9595 193.946 51.9783L182.804 47.5217ZM178.39 56.7304C177.049 58.9092 175.883 59.4368 175.014 59.5816L176.986 71.4184C182.117 70.5632 185.951 67.3408 188.61 63.0196L178.39 56.7304ZM175.256 59.5463C174.162 59.6831 171.579 59.2004 167.225 54.6175L158.525 62.8825C163.671 68.2996 169.838 72.3169 176.744 71.4537L175.256 59.5463ZM157.572 55.9427L154.197 62.3177L164.803 67.9323L168.178 61.5573L157.572 55.9427ZM163.126 60.3449L152.251 52.0949L144.999 61.6551L155.874 69.9052L163.126 60.3449ZM153.801 59.9093L160.176 49.0343L149.824 42.9657L143.449 53.8407L153.801 59.9093ZM160.303 43.1927C158.279 39.371 156.155 34.1095 153.962 27.2889L142.538 30.9611C144.845 38.1405 147.221 44.129 149.697 48.8073L160.303 43.1927ZM142.341 30.1677L143.466 36.5427L155.284 34.4573L154.159 28.0823L142.341 30.1677ZM148.967 29.5139L115.967 31.7639L116.783 43.7361L149.783 41.4861L148.967 29.5139ZM122.359 38.1932L123.109 28.0682L111.141 27.1818L110.391 37.3068L122.359 38.1932ZM117.585 33.6073L132.21 32.4823L131.29 20.5177L116.665 21.6427L117.585 33.6073ZM132.188 32.484L147.563 31.359L146.687 19.391L131.312 20.516L132.188 32.484ZM152.817 23.4776L152.067 21.2276L140.683 25.0224L141.433 27.2724L152.817 23.4776ZM145.942 17.1406L114.817 19.3906L115.683 31.3594L146.808 29.1094L145.942 17.1406ZM109.272 24.8577L105.897 63.8577L117.853 64.8923L121.228 25.8923L109.272 24.8577ZM111.403 58.3936L97.1528 59.5186L98.0972 71.4814L112.347 70.3564L111.403 58.3936ZM103.602 66.0198L108.102 14.2698L96.1476 13.2302L91.6476 64.9802L103.602 66.0198ZM102.287 19.7478L143.912 18.6228L143.588 6.62719L101.963 7.75219L102.287 19.7478ZM106.907 71.7735L119.282 77.0235L123.968 65.9765L111.593 60.7265L106.907 71.7735ZM116.11 69.1365L107.11 90.1365L118.14 94.8635L127.14 73.8635L116.11 69.1365ZM114.853 86.9291L99.8533 80.9291L95.3967 92.0709L110.397 98.0709L114.853 86.9291ZM102.829 89.4872L114.454 69.2372L104.046 63.2628L92.4215 83.5128L102.829 89.4872ZM140.416 43.7268C140.62 44.0839 141.125 45.536 141.125 49H153.125C153.125 44.964 152.63 40.9161 150.834 37.7732L140.416 43.7268ZM141.128 48.8126L140.753 60.8126L152.747 61.1874L153.122 49.1874L141.128 48.8126ZM146.75 67C150.857 67 151.668 68.1187 151.813 68.3463L161.937 61.9037C158.582 56.6313 152.643 55 146.75 55V67ZM151.883 68.4532C152.432 69.2775 152.468 69.8082 152.253 70.5259L163.747 73.9741C165.032 69.6918 164.318 65.4725 161.867 61.7968L151.883 68.4532ZM152.179 70.7948C151.986 71.5693 151.751 71.7047 151.672 71.7577L158.328 81.7423C161.249 79.7953 163.014 76.9307 163.821 73.7052L152.179 70.7948ZM151.672 71.7577C151.377 71.9543 150.735 72.25 149.375 72.25V84.25C152.515 84.25 155.623 83.5457 158.328 81.7423L151.672 71.7577ZM149.375 72.25C148.303 72.25 147.851 71.9825 147.591 71.7657L139.909 80.9843C142.649 83.2675 145.947 84.25 149.375 84.25V72.25ZM147.191 71.4596C146.836 71.2111 146.767 71.0505 146.732 70.9578C146.676 70.8112 146.547 70.3474 146.69 69.3485L134.81 67.6515C134.453 70.1526 134.574 72.7513 135.518 75.2297C136.483 77.762 138.164 79.7889 140.309 81.2904L147.191 71.4596ZM146.69 69.3485C146.789 68.6539 147.141 67.5705 148.088 66.055L137.912 59.695C136.359 62.1795 135.211 64.8461 134.81 67.6515L146.69 69.3485ZM142.84 56.8771L114.715 57.6271L115.035 69.6229L143.16 68.8729L142.84 56.8771ZM120.869 63.9016L121.994 39.5266L110.006 38.9734L108.881 63.3484L120.869 63.9016ZM116.811 45.195C127.766 43.7011 135.161 43.296 139.403 43.7202L140.597 31.7798C134.839 31.204 126.234 31.7989 115.189 33.305L116.811 45.195ZM139.457 43.7254C140.262 43.7985 140.592 43.9533 140.645 43.9816C140.664 43.9916 140.626 43.9734 140.564 43.914C140.5 43.8529 140.448 43.7844 140.416 43.7268L150.834 37.7732C148.527 33.7358 144.459 32.1307 140.543 31.7746L139.457 43.7254ZM132.502 65.2788L132.877 79.9038L144.873 79.5962L144.498 64.9712L132.502 65.2788ZM138.875 85.75H157.625V73.75H138.875V85.75ZM163.625 79.75V74.125H151.625V79.75H163.625ZM156.251 79.9655L169.001 82.9655L171.749 71.2845L158.999 68.2845L156.251 79.9655ZM176.375 77.125C176.375 75.4827 176.706 74.8391 176.807 74.6839C176.851 74.6166 176.887 74.5812 176.943 74.5426C177.009 74.4972 177.183 74.3942 177.546 74.2974L174.454 62.7026C171.349 63.5307 168.609 65.2869 166.756 68.1286C164.982 70.8484 164.375 74.0173 164.375 77.125H176.375ZM177.455 74.3209C179.126 73.9033 180.037 74.0583 180.497 74.227C180.903 74.376 181.486 74.7235 182.162 75.805L192.338 69.445C190.514 66.5265 187.972 64.1865 184.628 62.9605C181.338 61.7542 177.874 61.8467 174.545 62.6791L177.455 74.3209ZM182.162 75.805C182.393 76.1749 182.566 76.6067 182.253 77.6509L193.747 81.0991C194.934 77.1433 194.607 73.0751 192.338 69.445L182.162 75.805ZM182.253 77.6509C181.971 78.5899 181.608 78.8998 181.063 79.1421L185.937 90.1079C189.892 88.3502 192.529 85.1601 193.747 81.0991L182.253 77.6509ZM180.986 79.1772C180.818 79.2544 180.589 79.3438 179.974 79.1593C179.214 78.9314 177.964 78.2896 176.22 76.751L168.28 85.749C173.153 90.0482 179.485 93.0864 186.014 90.0728L180.986 79.1772ZM166.3 80.474C165.979 82.9385 165.47 84.3994 165.036 85.1799C164.659 85.8597 164.504 85.7573 164.728 85.6829L168.522 97.0671C175.09 94.8779 177.406 88.1114 178.2 82.026L166.3 80.474ZM164.607 85.7245L159.357 87.5995L163.393 98.9005L168.643 97.0255L164.607 85.7245ZM161.452 87.2505L132.202 86.8755L132.048 98.8745L161.298 99.2495L161.452 87.2505ZM132.125 86.875C132.578 86.875 132.729 87.0277 132.493 86.8863C132.233 86.7299 131.721 86.3422 130.984 85.5138L122.016 93.4862C124.376 96.1412 127.762 98.875 132.125 98.875V86.875ZM130.743 85.2574C131.077 85.5918 131.019 85.7127 130.805 85.1433C130.61 84.6227 130.379 83.7777 130.168 82.5136L118.332 84.4864C118.847 87.5814 119.808 91.2935 122.257 93.7426L130.743 85.2574ZM130.168 82.5136C130.042 81.7543 129.998 80.4786 130.213 78.5376L118.287 77.2124C118.002 79.7714 117.958 82.2457 118.332 84.4864L130.168 82.5136ZM130.239 78.238L130.989 65.863L119.011 65.137L118.261 77.512L130.239 78.238ZM125.167 71.4977L138.667 71.1227L138.333 59.1273L124.833 59.5023L125.167 71.4977ZM140.75 53.875V47.5H128.75V53.875H140.75ZM134.75 41.5H127.625V53.5H134.75V41.5ZM121.634 47.1672L121.259 53.9172L133.241 54.5828L133.616 47.8328L121.634 47.1672ZM127.55 60.2425L135.05 59.8675L134.45 47.8825L126.95 48.2575L127.55 60.2425ZM193.625 58.375L193.504 52.3762C190.238 52.4422 187.625 55.1085 187.625 58.375H193.625ZM230.75 57.625L230.871 63.6238C234.008 63.5604 236.567 61.0907 236.741 57.9578L230.75 57.625ZM231.125 50.875L231.264 44.8766C228.027 44.8013 225.314 47.3088 225.134 50.5422L231.125 50.875ZM247.25 51.25L253.238 51.6243C253.34 49.9954 252.774 48.3953 251.67 47.1929C250.567 45.9905 249.021 45.2896 247.389 45.2516L247.25 51.25ZM246.875 57.25L240.887 56.8757C240.783 58.5288 241.368 60.151 242.502 61.3582C243.636 62.5653 245.219 63.25 246.875 63.25V57.25ZM285.125 57.25L291.122 57.4317C291.171 55.8097 290.561 54.2369 289.431 53.0721C288.301 51.9074 286.748 51.25 285.125 51.25V57.25ZM284.75 69.625L284.635 75.6239C287.922 75.6871 290.648 73.093 290.747 69.8067L284.75 69.625ZM265.25 69.25L265.365 63.2511C262.586 63.1977 260.134 65.0606 259.44 67.7526C258.746 70.4447 259.992 73.2608 262.452 74.5574L265.25 69.25ZM285.875 80.125L290.422 84.0401C291.614 82.6555 292.11 80.8029 291.77 79.0076C291.43 77.2122 290.29 75.6699 288.673 74.8176L285.875 80.125ZM274.25 93.625L270.938 98.6281C273.458 100.296 276.825 99.83 278.797 97.5401L274.25 93.625ZM247.625 76L250.937 70.9969C249.075 69.7642 246.682 69.6677 244.727 70.7464C242.771 71.8252 241.577 73.9007 241.626 76.1333L247.625 76ZM248 92.875L248.125 98.8737C249.717 98.8405 251.231 98.1756 252.333 97.0253C253.435 95.8751 254.034 94.334 253.999 92.7417L248 92.875ZM230 93.25H224C224 94.863 224.649 96.408 225.802 97.5366C226.954 98.6652 228.512 99.2823 230.125 99.2487L230 93.25ZM230 76.375H236C236 74.045 234.651 71.9256 232.54 70.9392C230.429 69.9528 227.938 70.2777 226.151 71.7725L230 76.375ZM209.375 93.625L206.217 98.7266C208.416 100.088 211.24 99.8869 213.224 98.2275L209.375 93.625ZM193.625 83.875L190.096 79.0226C188.48 80.1981 187.555 82.1012 187.629 84.0984C187.704 86.0956 188.768 87.9246 190.467 88.9766L193.625 83.875ZM210.125 71.875L213.654 76.7274C215.857 75.1249 216.705 72.239 215.717 69.6999C214.729 67.1607 212.155 65.6057 209.448 65.9134L210.125 71.875ZM193.625 73.75H187.625C187.625 75.4593 188.354 77.0874 189.629 78.2258C190.904 79.3641 192.604 79.9046 194.302 79.7116L193.625 73.75ZM197.375 33.25L194.352 38.4327C194.401 38.4616 194.451 38.4899 194.502 38.5174L197.375 33.25ZM193.25 24.625L187.287 23.9624C187.276 24.0583 187.268 24.1544 187.262 24.2507L193.25 24.625ZM195.875 19.375L199.716 23.9843C199.737 23.9665 199.759 23.9486 199.78 23.9305L195.875 19.375ZM210.875 24.625L204.882 24.9246C204.883 24.9422 204.884 24.9598 204.885 24.9773L210.875 24.625ZM219.875 24.25L223.716 19.6407C221.447 17.7499 218.14 17.7915 215.919 19.7388L219.875 24.25ZM229.25 33.625L233.346 38.0089C235.704 35.8062 235.897 32.1335 233.784 29.6954L229.25 33.625ZM206.375 55L202.457 59.5445C204.778 61.5449 208.233 61.4757 210.471 59.3839L206.375 55ZM195.5 45.625L191.544 41.1138C190.238 42.2589 189.493 43.9136 189.5 45.6504C189.507 47.3871 190.267 49.0355 191.582 50.1695L195.5 45.625ZM206.75 3.25L203.773 -1.95946C203.758 -1.9506 203.742 -1.94167 203.727 -1.93267L206.75 3.25ZM216.125 2.5L219.039 -2.74494C219.025 -2.75247 219.012 -2.75995 218.998 -2.76737L216.125 2.5ZM219.875 8.5L213.9 9.04321C213.907 9.12666 213.917 9.20993 213.928 9.29298L219.875 8.5ZM216.5 17.125L212.971 12.2726C212.897 12.3266 212.824 12.3824 212.752 12.4398L216.5 17.125ZM227.375 28L221.381 27.7394C221.301 29.5659 222.059 31.3289 223.439 32.5283C224.819 33.7277 226.67 34.2326 228.468 33.8997L227.375 28ZM228.875 12.25L228.704 6.25245C225.817 6.33492 223.399 8.46186 222.948 11.3142L228.875 12.25ZM242 11.875L242.171 17.8726C244.757 17.7987 247.004 16.0764 247.747 13.5991L242 11.875ZM245.375 0.625L246.581 -5.25262C243.537 -5.87689 240.521 -4.07479 239.628 -1.09909L245.375 0.625ZM260 3.625L265.692 5.52237C266.235 3.89459 266.054 2.11239 265.197 0.62623C264.339 -0.859927 262.887 -1.90783 261.206 -2.25262L260 3.625ZM257.375 11.5L251.683 9.60263C251.034 11.548 251.424 13.6899 252.717 15.2819C254.01 16.8739 256.026 17.6955 258.063 17.4605L257.375 11.5ZM271.625 14.5L275.868 10.2574C275.806 10.1959 275.743 10.1358 275.679 10.0771L271.625 14.5ZM274.625 20.5L280.543 19.5136C280.533 19.45 280.521 19.3865 280.508 19.3233L274.625 20.5ZM275 36.625H269C269 39.8523 271.553 42.5014 274.778 42.6209L275 36.625ZM285.125 37L291.116 37.3239C291.203 35.7172 290.641 34.1431 289.556 32.9548C288.471 31.7665 286.955 31.0637 285.347 31.0041L285.125 37ZM284.375 50.875L284.636 56.8693C287.72 56.7352 290.2 54.282 290.366 51.1989L284.375 50.875ZM275.75 51.25L276 57.2448L276.011 57.2443L275.75 51.25ZM263.375 49L267.059 44.2639C267.031 44.2423 267.003 44.2211 266.975 44.2L263.375 49ZM258.875 23.5H264.875C264.875 21.8287 264.178 20.2332 262.952 19.0977C261.725 17.9621 260.081 17.3895 258.415 17.5177L258.875 23.5ZM254 23.875L253.54 17.8927C251.104 18.08 249.026 19.7251 248.284 22.0524L254 23.875ZM245.75 49.75L244.433 55.6037C247.468 56.2865 250.521 54.5365 251.466 51.5726L245.75 49.75ZM230.75 46.375L225.058 44.4776C224.522 46.0866 224.691 47.8473 225.525 49.3243C226.359 50.8012 227.778 51.8564 229.433 52.2287L230.75 46.375ZM237.5 26.125L243.192 28.0224C243.864 26.0078 243.42 23.7884 242.026 22.1864C240.632 20.5845 238.495 19.8386 236.407 20.2253L237.5 26.125ZM193.746 64.3738L230.871 63.6238L230.629 51.6262L193.504 52.3762L193.746 64.3738ZM236.741 57.9578L237.116 51.2078L225.134 50.5422L224.759 57.2922L236.741 57.9578ZM230.986 56.8734L247.111 57.2484L247.389 45.2516L231.264 44.8766L230.986 56.8734ZM241.262 50.8757L240.887 56.8757L252.863 57.6243L253.238 51.6243L241.262 50.8757ZM246.875 63.25H285.125V51.25H246.875V63.25ZM279.128 57.0683L278.753 69.4433L290.747 69.8067L291.122 57.4317L279.128 57.0683ZM284.865 63.6261L265.365 63.2511L265.135 75.2489L284.635 75.6239L284.865 63.6261ZM262.452 74.5574L283.077 85.4324L288.673 74.8176L268.048 63.9426L262.452 74.5574ZM281.328 76.2099L269.703 89.7099L278.797 97.5401L290.422 84.0401L281.328 76.2099ZM277.562 88.6219L250.937 70.9969L244.313 81.0031L270.938 98.6281L277.562 88.6219ZM241.626 76.1333L242.001 93.0083L253.999 92.7417L253.624 75.8667L241.626 76.1333ZM247.875 86.8763L229.875 87.2513L230.125 99.2487L248.125 98.8737L247.875 86.8763ZM236 93.25V76.375H224V93.25H236ZM226.151 71.7725L205.526 89.0225L213.224 98.2275L233.849 80.9775L226.151 71.7725ZM212.533 88.5234L196.783 78.7734L190.467 88.9766L206.217 98.7266L212.533 88.5234ZM197.154 88.7274L213.654 76.7274L206.596 67.0226L190.096 79.0226L197.154 88.7274ZM209.448 65.9134L192.948 67.7884L194.302 79.7116L210.802 77.8366L209.448 65.9134ZM199.625 73.75V58.375H187.625V73.75H199.625ZM200.398 28.0673C199.839 27.7411 199.629 27.4479 199.507 27.1925C199.36 26.8859 199.161 26.2372 199.238 24.9993L187.262 24.2507C187.089 27.0128 187.453 29.8016 188.681 32.37C189.934 34.9896 191.911 37.0089 194.352 38.4327L200.398 28.0673ZM199.213 25.2876C199.321 24.3139 199.596 24.0842 199.716 23.9843L192.034 14.7657C189.154 17.1658 187.679 20.4361 187.287 23.9624L199.213 25.2876ZM199.78 23.9305C200.241 23.5354 201.017 23.125 202.625 23.125V11.125C198.733 11.125 195.009 12.2146 191.97 14.8195L199.78 23.9305ZM202.625 23.125C204.372 23.125 204.701 23.5418 204.589 23.4396C204.429 23.294 204.808 23.4435 204.882 24.9246L216.868 24.3254C216.692 20.8065 215.571 17.206 212.661 14.5604C209.799 11.9582 206.128 11.125 202.625 11.125V23.125ZM204.885 24.9773C204.966 26.349 204.732 26.9751 204.618 27.1934C204.546 27.3313 204.413 27.5472 203.861 27.8022L208.889 38.6978C211.587 37.4528 213.829 35.4812 215.257 32.7441C216.643 30.0874 217.034 27.151 216.865 24.2727L204.885 24.9773ZM203.861 27.8022C202.053 28.6366 201.078 28.4351 200.248 27.9826L194.502 38.5174C199.172 41.0649 204.197 40.8634 208.889 38.6978L203.861 27.8022ZM216.034 28.8593C218.729 31.1051 221.624 33.9873 224.716 37.5546L233.784 29.6954C230.376 25.7627 227.021 22.3949 223.716 19.6407L216.034 28.8593ZM225.154 29.2411L202.279 50.6161L210.471 59.3839L233.346 38.0089L225.154 29.2411ZM210.293 50.4555L199.418 41.0805L191.582 50.1695L202.457 59.5445L210.293 50.4555ZM199.456 50.1362L223.831 28.7612L215.919 19.7388L191.544 41.1138L199.456 50.1362ZM210.933 12.5084C209.632 11.858 209.127 11.1188 208.93 9.83766L197.07 11.6623C197.873 16.8812 200.868 20.892 205.567 23.2416L210.933 12.5084ZM208.93 9.83766C208.88 9.51065 208.891 9.3177 208.903 9.22916C208.913 9.14918 208.927 9.12482 208.929 9.12078C208.932 9.11443 208.961 9.05531 209.071 8.94577C209.186 8.8303 209.401 8.64985 209.773 8.43267L203.727 -1.93267C201.464 -0.612797 199.456 1.23357 198.196 3.75422C196.922 6.30133 196.665 9.03206 197.07 11.6623L208.93 9.83766ZM209.727 8.45946C212.01 7.15497 212.857 7.5518 213.252 7.76737L218.998 -2.76737C213.893 -5.5518 208.49 -4.65497 203.773 -1.95946L209.727 8.45946ZM213.211 7.74494C213.532 7.92293 213.624 8.05595 213.662 8.11749C213.71 8.19461 213.845 8.44492 213.9 9.04321L225.85 7.95679C225.436 3.39993 223.169 -0.450531 219.039 -2.74494L213.211 7.74494ZM213.928 9.29298C214.073 10.3855 213.936 10.9825 213.819 11.2824C213.716 11.546 213.517 11.8756 212.971 12.2726L220.029 21.9774C222.233 20.3744 223.972 18.2665 224.994 15.6551C226.001 13.08 226.177 10.3645 225.822 7.70702L213.928 9.29298ZM212.752 12.4398C212.27 12.8249 212.045 12.8348 212.019 12.8371C211.973 12.8414 211.65 12.8669 210.933 12.5084L205.567 23.2416C207.85 24.3831 210.402 25.0336 213.106 24.7879C215.83 24.5402 218.23 23.4251 220.248 21.8102L212.752 12.4398ZM233.369 28.2606C233.611 22.6943 234.093 17.6738 234.802 13.1858L222.948 11.3142C222.157 16.3262 221.639 21.8057 221.381 27.7394L233.369 28.2606ZM229.046 18.2476L242.171 17.8726L241.829 5.87745L228.704 6.25245L229.046 18.2476ZM247.747 13.5991L251.122 2.34909L239.628 -1.09909L236.253 10.1509L247.747 13.5991ZM244.169 6.50262L258.794 9.50262L261.206 -2.25262L246.581 -5.25262L244.169 6.50262ZM254.308 1.72763L251.683 9.60263L263.067 13.3974L265.692 5.52237L254.308 1.72763ZM258.063 17.4605C263.866 16.7908 266.46 17.9048 267.571 18.9229L275.679 10.0771C270.79 5.59517 263.884 4.70916 256.687 5.53955L258.063 17.4605ZM267.382 18.7426C267.888 19.2486 268.426 20.1004 268.742 21.6767L280.508 19.3233C279.824 15.8996 278.362 12.7514 275.868 10.2574L267.382 18.7426ZM268.707 21.4864C268.87 22.466 269 24.4212 269 27.625H281C281 24.3288 280.88 21.534 280.543 19.5136L268.707 21.4864ZM269 27.625V36.625H281V27.625H269ZM274.778 42.6209L284.903 42.9959L285.347 31.0041L275.222 30.6291L274.778 42.6209ZM279.134 36.6761L278.384 50.5511L290.366 51.1989L291.116 37.3239L279.134 36.6761ZM284.114 44.8807L275.489 45.2557L276.011 57.2443L284.636 56.8693L284.114 44.8807ZM275.5 45.2552C272.77 45.3689 270.713 45.2415 269.23 44.9718C267.704 44.6944 267.146 44.3315 267.059 44.2639L259.691 53.7361C261.854 55.4185 264.484 56.3056 267.083 56.7782C269.724 57.2585 272.73 57.3811 276 57.2448L275.5 45.2552ZM266.975 44.2C265.599 43.1683 264.875 41.883 264.875 39.625H252.875C252.875 45.367 255.151 50.3317 259.775 53.8L266.975 44.2ZM264.875 39.625V23.5H252.875V39.625H264.875ZM258.415 17.5177L253.54 17.8927L254.46 29.8573L259.335 29.4823L258.415 17.5177ZM248.284 22.0524L240.034 47.9274L251.466 51.5726L259.716 25.6976L248.284 22.0524ZM247.067 43.8963L232.067 40.5213L229.433 52.2287L244.433 55.6037L247.067 43.8963ZM236.442 48.2724L243.192 28.0224L231.808 24.2276L225.058 44.4776L236.442 48.2724ZM236.407 20.2253L226.282 22.1003L228.468 33.8997L238.593 32.0247L236.407 20.2253ZM295.625 50.125L298.062 55.6079C299.949 54.769 301.273 53.0183 301.565 50.9735L295.625 50.125ZM296.75 42.25L302.69 43.0985C303.031 40.7087 301.907 38.3471 299.837 37.105L296.75 42.25ZM289.25 37.75L283.455 36.1952C282.761 38.7826 283.866 41.5167 286.163 42.895L289.25 37.75ZM293.375 22.375L296.22 17.0922C294.605 16.2228 292.682 16.1395 290.998 16.866C289.314 17.5925 288.055 19.0491 287.58 20.8202L293.375 22.375ZM298.25 25L295.405 30.2828C297.124 31.2082 299.185 31.2398 300.931 30.3677C302.677 29.4955 303.89 27.8286 304.182 25.8988L298.25 25ZM300.125 12.625L299.921 6.62848C297.033 6.72693 294.626 8.86945 294.193 11.7262L300.125 12.625ZM333.125 11.5L333.329 17.4965C336.476 17.3892 339.004 14.8682 339.121 11.7221L333.125 11.5ZM333.5 1.375L333.772 -4.61881C332.174 -4.69147 330.613 -4.12269 329.436 -3.03888C328.259 -1.95507 327.563 -0.44601 327.504 1.15293L333.5 1.375ZM350 2.125L355.981 2.60347C356.111 0.981555 355.576 -0.623511 354.5 -1.84379C353.424 -3.06408 351.898 -3.79493 350.272 -3.86881L350 2.125ZM349.25 11.5L343.269 11.0215C343.137 12.6781 343.697 14.3155 344.817 15.5433C345.937 16.7712 347.516 17.4795 349.178 17.4996L349.25 11.5ZM380.375 11.875L386.372 11.6816C386.268 8.47283 383.657 5.91411 380.447 5.87544L380.375 11.875ZM380.75 23.5L380.668 29.4994C382.307 29.5219 383.884 28.8728 385.032 27.7031C386.18 26.5334 386.8 24.9448 386.747 23.3066L380.75 23.5ZM353.375 23.125L353.457 17.1256C353.302 17.1234 353.146 17.1274 352.99 17.1373L353.375 23.125ZM312.5 25.75L312.115 19.7623C309.11 19.9553 306.714 22.3461 306.513 25.3509L312.5 25.75ZM309.125 76.375L303.138 75.9759C303.129 76.1087 303.125 76.2419 303.125 76.375H309.125ZM309.125 93.25L308.594 99.2264C310.271 99.3755 311.933 98.8131 313.175 97.6765C314.418 96.5399 315.125 94.9337 315.125 93.25H309.125ZM292.25 91.75L286.26 91.3977C286.07 94.6359 288.488 97.4392 291.719 97.7264L292.25 91.75ZM293.75 66.25L299.74 66.6023C299.868 64.4255 298.805 62.3505 296.963 61.1828C295.121 60.0151 292.791 59.9384 290.877 60.9826L293.75 66.25ZM289.625 68.5L283.632 68.7923C283.733 70.8554 284.888 72.7217 286.689 73.7325C288.49 74.7433 290.685 74.7565 292.498 73.7674L289.625 68.5ZM288.875 53.125L286.438 47.6421C284.174 48.6484 282.761 50.9427 282.882 53.4173L288.875 53.125ZM312.125 77.875V71.875C308.811 71.875 306.125 74.5613 306.125 77.875H312.125ZM318.5 77.875V83.875C321.727 83.875 324.376 81.3222 324.496 78.0971L318.5 77.875ZM319.625 47.5V41.5C316.398 41.5 313.749 44.0528 313.629 47.2779L319.625 47.5ZM334.625 47.5L340.621 47.7221C340.681 46.0934 340.076 44.5102 338.945 43.3366C337.815 42.163 336.255 41.5 334.625 41.5V47.5ZM333.5 77.875L327.504 77.6529C327.444 79.2816 328.049 80.8648 329.18 82.0384C330.31 83.212 331.87 83.875 333.5 83.875V77.875ZM338.75 77.875V83.875C341.994 83.875 344.651 81.2961 344.747 78.0531L338.75 77.875ZM339.875 40L345.872 40.1781C345.923 38.456 345.232 36.795 343.974 35.6181C342.715 34.4412 341.012 33.8619 339.297 34.0279L339.875 40ZM316.625 42.25H310.625C310.625 43.9418 311.339 45.555 312.592 46.6923C313.844 47.8295 315.519 48.3851 317.203 48.2221L316.625 42.25ZM316.625 29.125L316.524 23.1258C313.25 23.1809 310.625 25.8506 310.625 29.125H316.625ZM361.25 28.375V22.375C361.216 22.375 361.183 22.3753 361.149 22.3758L361.25 28.375ZM376.25 28.375L382.246 28.5818C382.303 26.9556 381.696 25.3763 380.565 24.2061C379.435 23.0359 377.877 22.375 376.25 22.375V28.375ZM375.875 39.25L375.76 45.2489C379.037 45.3119 381.758 42.7329 381.871 39.4568L375.875 39.25ZM356.375 38.875L356.49 32.8761C353.278 32.8143 350.587 35.294 350.387 38.5007L356.375 38.875ZM355.625 50.875L349.637 50.5007C349.532 52.1734 350.132 53.8136 351.291 55.0243C352.45 56.2349 354.062 56.9055 355.738 56.8739L355.625 50.875ZM375.5 50.5L381.497 50.6934C381.55 49.0498 380.926 47.4564 379.771 46.2858C378.616 45.1152 377.031 44.47 375.387 44.5011L375.5 50.5ZM375.125 62.125L375.577 68.108C378.632 67.8774 381.023 65.3812 381.122 62.3184L375.125 62.125ZM355.25 63.625L354.798 57.642C351.669 57.8782 349.25 60.4865 349.25 63.625H355.25ZM355.25 77.5H349.25C349.25 79.1064 349.894 80.6457 351.038 81.7733C352.182 82.9009 353.731 83.5227 355.337 83.4994L355.25 77.5ZM381.125 77.125L387.122 77.3185C387.175 75.6794 386.554 74.0901 385.405 72.9202C384.256 71.7503 382.678 71.1019 381.038 71.1256L381.125 77.125ZM380.75 88.75L380.869 94.7488C384.061 94.6856 386.644 92.1342 386.747 88.9435L380.75 88.75ZM342.875 89.5L342.756 83.5012C342.674 83.5028 342.592 83.5061 342.51 83.5111L342.875 89.5ZM312.125 91.375H306.125C306.125 93.0297 306.808 94.611 308.013 95.7448C309.219 96.8787 310.839 97.4646 312.49 97.3639L312.125 91.375ZM301.565 50.9735L302.69 43.0985L290.81 41.4015L289.685 49.2765L301.565 50.9735ZM299.837 37.105L292.337 32.605L286.163 42.895L293.663 47.395L299.837 37.105ZM295.045 39.3048L299.17 23.9298L287.58 20.8202L283.455 36.1952L295.045 39.3048ZM290.53 27.6578L295.405 30.2828L301.095 19.7172L296.22 17.0922L290.53 27.6578ZM304.182 25.8988L306.057 13.5238L294.193 11.7262L292.318 24.1012L304.182 25.8988ZM300.329 18.6215L333.329 17.4965L332.921 5.50348L299.921 6.62848L300.329 18.6215ZM339.121 11.7221L339.496 1.59707L327.504 1.15293L327.129 11.2779L339.121 11.7221ZM333.228 7.36881L349.728 8.11881L350.272 -3.86881L333.772 -4.61881L333.228 7.36881ZM344.019 1.64653L343.269 11.0215L355.231 11.9785L355.981 2.60347L344.019 1.64653ZM349.178 17.4996L380.303 17.8746L380.447 5.87544L349.322 5.50044L349.178 17.4996ZM374.378 12.0684L374.753 23.6934L386.747 23.3066L386.372 11.6816L374.378 12.0684ZM380.832 17.5006L353.457 17.1256L353.293 29.1244L380.668 29.4994L380.832 17.5006ZM352.99 17.1373L312.115 19.7623L312.885 31.7377L353.76 29.1127L352.99 17.1373ZM306.513 25.3509L303.138 75.9759L315.112 76.7741L318.487 26.1491L306.513 25.3509ZM303.125 76.375V93.25H315.125V76.375H303.125ZM309.656 87.2736L292.781 85.7736L291.719 97.7264L308.594 99.2264L309.656 87.2736ZM298.24 92.1023L299.74 66.6023L287.76 65.8977L286.26 91.3977L298.24 92.1023ZM290.877 60.9826L286.752 63.2326L292.498 73.7674L296.623 71.5174L290.877 60.9826ZM295.618 68.2077L294.868 52.8327L282.882 53.4173L283.632 68.7923L295.618 68.2077ZM291.312 58.6079L298.062 55.6079L293.188 44.6421L286.438 47.6421L291.312 58.6079ZM312.125 83.875H318.5V71.875H312.125V83.875ZM324.496 78.0971L325.621 47.7221L313.629 47.2779L312.504 77.6529L324.496 78.0971ZM319.625 53.5H334.625V41.5H319.625V53.5ZM328.629 47.2779L327.504 77.6529L339.496 78.0971L340.621 47.7221L328.629 47.2779ZM333.5 83.875H338.75V71.875H333.5V83.875ZM344.747 78.0531L345.872 40.1781L333.878 39.8219L332.753 77.6969L344.747 78.0531ZM339.297 34.0279L316.047 36.2779L317.203 48.2221L340.453 45.9721L339.297 34.0279ZM322.625 42.25V29.125H310.625V42.25H322.625ZM316.726 35.1242L361.351 34.3742L361.149 22.3758L316.524 23.1258L316.726 35.1242ZM361.25 34.375H376.25V22.375H361.25V34.375ZM370.254 28.1682L369.879 39.0432L381.871 39.4568L382.246 28.5818L370.254 28.1682ZM375.99 33.2511L356.49 32.8761L356.26 44.8739L375.76 45.2489L375.99 33.2511ZM350.387 38.5007L349.637 50.5007L361.613 51.2493L362.363 39.2493L350.387 38.5007ZM355.738 56.8739L375.613 56.4989L375.387 44.5011L355.512 44.8761L355.738 56.8739ZM369.503 50.3066L369.128 61.9316L381.122 62.3184L381.497 50.6934L369.503 50.3066ZM374.673 56.142L354.798 57.642L355.702 69.608L375.577 68.108L374.673 56.142ZM349.25 63.625V77.5H361.25V63.625H349.25ZM355.337 83.4994L381.212 83.1244L381.038 71.1256L355.163 71.5006L355.337 83.4994ZM375.128 76.9315L374.753 88.5565L386.747 88.9435L387.122 77.3185L375.128 76.9315ZM380.631 82.7512L342.756 83.5012L342.994 95.4988L380.869 94.7488L380.631 82.7512ZM342.51 83.5111L311.76 85.3861L312.49 97.3639L343.24 95.4889L342.51 83.5111ZM318.125 91.375V77.875H306.125V91.375H318.125Z" fill="#FFBB37"/>
</g>
<defs>
<filter id="filter0_d_601_869" x="0.5" y="0.25" width="387.625" height="100.375" filterUnits="userSpaceOnUse" color-interpolation-filters="sRGB">
<feFlood flood-opacity="0" result="BackgroundImageFix"/>
<feColorMatrix in="SourceAlpha" type="matrix" values="0 0 0 0 0 0 0 0 0 0 0 0 0 0 0 0 0 0 127 0" result="hardAlpha"/>
<feOffset dx="7" dy="7"/>
<feComposite in2="hardAlpha" operator="out"/>
<feColorMatrix type="matrix" values="0 0 0 0 0.94902 0 0 0 0 0.631373 0 0 0 0 0.0196078 0 0 0 1 0"/>
<feBlend mode="normal" in2="BackgroundImageFix" result="effect1_dropShadow_601_869"/>
<feBlend mode="normal" in="SourceGraphic" in2="effect1_dropShadow_601_869" result="shape"/>
</filter>
</defs>
</svg>
