<svg width="491" height="114" viewBox="0 0 491 114" fill="none" xmlns="http://www.w3.org/2000/svg">
<g filter="url(#filter0_d_536_564)">
<mask id="path-1-outside-1_536_564" maskUnits="userSpaceOnUse" x="0.625" y="0.75" width="483" height="106" fill="black">
<rect fill="white" x="0.625" y="0.75" width="483" height="106"/>
<path d="M14 26.5L15.875 11.875L66.125 8.5C69.625 8.25 73.125 9.375 76.625 11.875C78.875 13.625 80.5 15.5 81.5 17.5C83.25 21 84.125 26 84.125 32.5L84.5 77.125C84.5 83.125 84.125 87.5 83.375 90.25C82.375 93.5 80.875 95.75 78.875 97C76.625 98.5 73 99.25 68 99.25C65 99.25 61.125 99 56.375 98.5L51.125 82.75L66.125 82.375V70.75L34.625 73L27.875 73.75L26.75 98.5L7.625 97L14 26.5ZM66.125 57.25V49.375L29.375 51.25L28.625 59.125L66.125 57.25ZM65.75 35.875L65.375 24.25L31.625 26.875L30.875 36.625L65.75 35.875Z"/>
<path d="M101 65.125H110.75L108.125 91L96.875 90.625L101 65.125ZM108.875 17.125C112.125 14.125 115.375 11.25 118.625 8.5L126.875 16L127.625 17.125L116.375 28L119 30.625L129.5 20.875L137.375 28.75L144.875 22L156.125 28.75L165.125 20.125L136.25 21.625L137 9.625L167.75 8.875C172.25 8.625 175.5 8.875 177.5 9.625C180.25 10.625 181.875 12.25 182.375 14.5C183.125 17.75 181.875 21.5 178.625 25.75C176.875 28 173.375 31.625 168.125 36.625L189.125 50.875L182 62.125L158 46C153.5 50.75 148.875 55.375 144.125 59.875L135.875 52.375L137.375 62.125L126.5 63.625L126.125 59.875H124.625L124.25 71.875C128.5 68.375 132.5 68.75 136.25 73V65.875L152.75 64.75V53.875H166.625L167 54.25V64.75L183.5 65.5L182.75 76L166.625 75.625L167 86.125H187.625L188 96.25L155.75 97.375L131 98.875L129.875 87.625L152.75 86.5V76L137 77.125C135.5 80.125 133.875 82.125 132.125 83.125C129.875 84.375 127.25 83.875 124.25 81.625L123.875 99.25L110.75 99.625L112.25 61.75C109 62 106.625 62.125 105.125 62.125C102.875 62.125 100.875 61.125 99.125 59.125C97.625 57.125 97.375 55 98.375 52.75C99.375 50.5 100.875 48.375 102.875 46.375C104.625 44.625 106.5 42.875 108.5 41.125C105.25 36.875 103.25 34.25 102.5 33.25C101.5 31.5 101.125 29.75 101.375 28C101.875 25 104.375 21.375 108.875 17.125ZM124.25 50.875L123.125 44.125L133.625 43L134.75 49.375H135.125L146 38.5L135.125 32.125L114.875 52L124.25 50.875Z"/>
<path d="M239 64.75C236.25 64.75 233.75 63.625 231.5 61.375C229.5 59.375 228.5 56.75 228.5 53.5C228.5 50.5 229.5 48 231.5 46C233.75 43.75 236.25 42.625 239 42.625C242.25 42.625 244.875 43.625 246.875 45.625C249.125 47.875 250.25 50.5 250.25 53.5C250.25 57 249.125 59.875 246.875 62.125C245.125 63.875 242.5 64.75 239 64.75Z"/>
<path d="M288.875 56.125C289.125 54.875 290.375 49.125 292.625 38.875L299 11.125L315.5 14.125L312.5 28.375L326.75 28L327.5 7.75L344.375 8.125L343.25 27.625L373.25 26.875V40.375L343.25 41.125V55L366.125 54.625V67.75H348.875L343.25 68.125V80.875H380.75V94.375L339.5 94.75L308.375 97L289.625 98.875L290.375 82.75L325.625 81.625L326 68.875L303.875 70.375L304.625 59.5L288.875 56.125ZM326 55.375L326.375 42.25L309.125 43.75L306.5 56.125L326 55.375Z"/>
<path d="M419.375 15.25V26.5L408.5 27.625L407.75 38.125H417.125V50.125L407.375 50.875L407 65.5L417.125 62.5V74.875L387.875 87.25L384.875 73L394.25 69.625L395.375 52.375L387.5 53.5L387.125 38.875L395.75 38.125L396.5 28.375L384.875 29.875L385.25 15.625L419.375 15.25ZM438.5 83.5L438.875 78.25L423.5 79.75L423.875 65.5L439.25 65.125L439.625 59.125L418.25 60.625L421.625 24.25L422.375 9.625L422.75 9.25L461 8.875C466.75 8.875 470.75 10.625 473 14.125C474.5 16.375 475.375 19.875 475.625 24.625C475.625 26.125 475.75 29.875 476 35.875C476.25 43.375 476.375 50.625 476.375 57.625L454.25 58.375V65.125L469.625 65.5L470 77.125H454.25V83.125H476V95.125C463 95.125 450.875 95.25 439.625 95.5C434.375 95.75 425.375 96.5 412.625 97.75L412.25 84.25L438.5 83.5ZM439.625 46.75V38.5L435.125 38.875L434.75 47.125L439.625 46.75ZM440.75 28.75L441.125 20.5L436.25 20.875L435.5 28.75H440.75ZM460.25 45.625V37.75H454.25V45.625H460.25ZM460.25 28.75V20.5L454.25 20.875V28.75H460.25Z"/>
</mask>
<path d="M14 26.5L15.875 11.875L66.125 8.5C69.625 8.25 73.125 9.375 76.625 11.875C78.875 13.625 80.5 15.5 81.5 17.5C83.25 21 84.125 26 84.125 32.5L84.5 77.125C84.5 83.125 84.125 87.5 83.375 90.25C82.375 93.5 80.875 95.75 78.875 97C76.625 98.5 73 99.25 68 99.25C65 99.25 61.125 99 56.375 98.5L51.125 82.75L66.125 82.375V70.75L34.625 73L27.875 73.75L26.75 98.5L7.625 97L14 26.5ZM66.125 57.25V49.375L29.375 51.25L28.625 59.125L66.125 57.25ZM65.75 35.875L65.375 24.25L31.625 26.875L30.875 36.625L65.75 35.875Z" fill="white"/>
<path d="M101 65.125H110.75L108.125 91L96.875 90.625L101 65.125ZM108.875 17.125C112.125 14.125 115.375 11.25 118.625 8.5L126.875 16L127.625 17.125L116.375 28L119 30.625L129.5 20.875L137.375 28.75L144.875 22L156.125 28.75L165.125 20.125L136.25 21.625L137 9.625L167.75 8.875C172.25 8.625 175.5 8.875 177.5 9.625C180.25 10.625 181.875 12.25 182.375 14.5C183.125 17.75 181.875 21.5 178.625 25.75C176.875 28 173.375 31.625 168.125 36.625L189.125 50.875L182 62.125L158 46C153.5 50.75 148.875 55.375 144.125 59.875L135.875 52.375L137.375 62.125L126.5 63.625L126.125 59.875H124.625L124.25 71.875C128.5 68.375 132.5 68.75 136.25 73V65.875L152.75 64.75V53.875H166.625L167 54.25V64.75L183.5 65.5L182.75 76L166.625 75.625L167 86.125H187.625L188 96.25L155.75 97.375L131 98.875L129.875 87.625L152.75 86.5V76L137 77.125C135.5 80.125 133.875 82.125 132.125 83.125C129.875 84.375 127.25 83.875 124.25 81.625L123.875 99.25L110.75 99.625L112.25 61.75C109 62 106.625 62.125 105.125 62.125C102.875 62.125 100.875 61.125 99.125 59.125C97.625 57.125 97.375 55 98.375 52.75C99.375 50.5 100.875 48.375 102.875 46.375C104.625 44.625 106.5 42.875 108.5 41.125C105.25 36.875 103.25 34.25 102.5 33.25C101.5 31.5 101.125 29.75 101.375 28C101.875 25 104.375 21.375 108.875 17.125ZM124.25 50.875L123.125 44.125L133.625 43L134.75 49.375H135.125L146 38.5L135.125 32.125L114.875 52L124.25 50.875Z" fill="white"/>
<path d="M239 64.75C236.25 64.75 233.75 63.625 231.5 61.375C229.5 59.375 228.5 56.75 228.5 53.5C228.5 50.5 229.5 48 231.5 46C233.75 43.75 236.25 42.625 239 42.625C242.25 42.625 244.875 43.625 246.875 45.625C249.125 47.875 250.25 50.5 250.25 53.5C250.25 57 249.125 59.875 246.875 62.125C245.125 63.875 242.5 64.75 239 64.75Z" fill="white"/>
<path d="M288.875 56.125C289.125 54.875 290.375 49.125 292.625 38.875L299 11.125L315.5 14.125L312.5 28.375L326.75 28L327.5 7.75L344.375 8.125L343.25 27.625L373.25 26.875V40.375L343.25 41.125V55L366.125 54.625V67.75H348.875L343.25 68.125V80.875H380.75V94.375L339.5 94.75L308.375 97L289.625 98.875L290.375 82.75L325.625 81.625L326 68.875L303.875 70.375L304.625 59.5L288.875 56.125ZM326 55.375L326.375 42.25L309.125 43.75L306.5 56.125L326 55.375Z" fill="white"/>
<path d="M419.375 15.25V26.5L408.5 27.625L407.75 38.125H417.125V50.125L407.375 50.875L407 65.5L417.125 62.5V74.875L387.875 87.25L384.875 73L394.25 69.625L395.375 52.375L387.5 53.5L387.125 38.875L395.75 38.125L396.5 28.375L384.875 29.875L385.25 15.625L419.375 15.25ZM438.5 83.5L438.875 78.25L423.5 79.75L423.875 65.5L439.25 65.125L439.625 59.125L418.25 60.625L421.625 24.25L422.375 9.625L422.75 9.25L461 8.875C466.75 8.875 470.75 10.625 473 14.125C474.5 16.375 475.375 19.875 475.625 24.625C475.625 26.125 475.75 29.875 476 35.875C476.25 43.375 476.375 50.625 476.375 57.625L454.25 58.375V65.125L469.625 65.5L470 77.125H454.25V83.125H476V95.125C463 95.125 450.875 95.25 439.625 95.5C434.375 95.75 425.375 96.5 412.625 97.75L412.25 84.25L438.5 83.5ZM439.625 46.75V38.5L435.125 38.875L434.75 47.125L439.625 46.75ZM440.75 28.75L441.125 20.5L436.25 20.875L435.5 28.75H440.75ZM460.25 45.625V37.75H454.25V45.625H460.25ZM460.25 28.75V20.5L454.25 20.875V28.75H460.25Z" fill="white"/>
<path d="M14 26.5L15.875 11.875L66.125 8.5C69.625 8.25 73.125 9.375 76.625 11.875C78.875 13.625 80.5 15.5 81.5 17.5C83.25 21 84.125 26 84.125 32.5L84.5 77.125C84.5 83.125 84.125 87.5 83.375 90.25C82.375 93.5 80.875 95.75 78.875 97C76.625 98.5 73 99.25 68 99.25C65 99.25 61.125 99 56.375 98.5L51.125 82.75L66.125 82.375V70.75L34.625 73L27.875 73.75L26.75 98.5L7.625 97L14 26.5ZM66.125 57.25V49.375L29.375 51.25L28.625 59.125L66.125 57.25ZM65.75 35.875L65.375 24.25L31.625 26.875L30.875 36.625L65.75 35.875Z" stroke="#E06363" stroke-width="14" stroke-linejoin="round" mask="url(#path-1-outside-1_536_564)"/>
<path d="M101 65.125H110.75L108.125 91L96.875 90.625L101 65.125ZM108.875 17.125C112.125 14.125 115.375 11.25 118.625 8.5L126.875 16L127.625 17.125L116.375 28L119 30.625L129.5 20.875L137.375 28.75L144.875 22L156.125 28.75L165.125 20.125L136.25 21.625L137 9.625L167.75 8.875C172.25 8.625 175.5 8.875 177.5 9.625C180.25 10.625 181.875 12.25 182.375 14.5C183.125 17.75 181.875 21.5 178.625 25.75C176.875 28 173.375 31.625 168.125 36.625L189.125 50.875L182 62.125L158 46C153.5 50.75 148.875 55.375 144.125 59.875L135.875 52.375L137.375 62.125L126.5 63.625L126.125 59.875H124.625L124.25 71.875C128.5 68.375 132.5 68.75 136.25 73V65.875L152.75 64.75V53.875H166.625L167 54.25V64.75L183.5 65.5L182.75 76L166.625 75.625L167 86.125H187.625L188 96.25L155.75 97.375L131 98.875L129.875 87.625L152.75 86.5V76L137 77.125C135.5 80.125 133.875 82.125 132.125 83.125C129.875 84.375 127.25 83.875 124.25 81.625L123.875 99.25L110.75 99.625L112.25 61.75C109 62 106.625 62.125 105.125 62.125C102.875 62.125 100.875 61.125 99.125 59.125C97.625 57.125 97.375 55 98.375 52.75C99.375 50.5 100.875 48.375 102.875 46.375C104.625 44.625 106.5 42.875 108.5 41.125C105.25 36.875 103.25 34.25 102.5 33.25C101.5 31.5 101.125 29.75 101.375 28C101.875 25 104.375 21.375 108.875 17.125ZM124.25 50.875L123.125 44.125L133.625 43L134.75 49.375H135.125L146 38.5L135.125 32.125L114.875 52L124.25 50.875Z" stroke="#E06363" stroke-width="14" stroke-linejoin="round" mask="url(#path-1-outside-1_536_564)"/>
<path d="M239 64.75C236.25 64.75 233.75 63.625 231.5 61.375C229.5 59.375 228.5 56.75 228.5 53.5C228.5 50.5 229.5 48 231.5 46C233.75 43.75 236.25 42.625 239 42.625C242.25 42.625 244.875 43.625 246.875 45.625C249.125 47.875 250.25 50.5 250.25 53.5C250.25 57 249.125 59.875 246.875 62.125C245.125 63.875 242.5 64.75 239 64.75Z" stroke="#E06363" stroke-width="14" stroke-linejoin="round" mask="url(#path-1-outside-1_536_564)"/>
<path d="M288.875 56.125C289.125 54.875 290.375 49.125 292.625 38.875L299 11.125L315.5 14.125L312.5 28.375L326.75 28L327.5 7.75L344.375 8.125L343.25 27.625L373.25 26.875V40.375L343.25 41.125V55L366.125 54.625V67.75H348.875L343.25 68.125V80.875H380.75V94.375L339.5 94.75L308.375 97L289.625 98.875L290.375 82.75L325.625 81.625L326 68.875L303.875 70.375L304.625 59.5L288.875 56.125ZM326 55.375L326.375 42.25L309.125 43.75L306.5 56.125L326 55.375Z" stroke="#E06363" stroke-width="14" stroke-linejoin="round" mask="url(#path-1-outside-1_536_564)"/>
<path d="M419.375 15.25V26.5L408.5 27.625L407.75 38.125H417.125V50.125L407.375 50.875L407 65.5L417.125 62.5V74.875L387.875 87.25L384.875 73L394.25 69.625L395.375 52.375L387.5 53.5L387.125 38.875L395.75 38.125L396.5 28.375L384.875 29.875L385.25 15.625L419.375 15.25ZM438.5 83.5L438.875 78.25L423.5 79.75L423.875 65.5L439.25 65.125L439.625 59.125L418.25 60.625L421.625 24.25L422.375 9.625L422.75 9.25L461 8.875C466.75 8.875 470.75 10.625 473 14.125C474.5 16.375 475.375 19.875 475.625 24.625C475.625 26.125 475.75 29.875 476 35.875C476.25 43.375 476.375 50.625 476.375 57.625L454.25 58.375V65.125L469.625 65.5L470 77.125H454.25V83.125H476V95.125C463 95.125 450.875 95.25 439.625 95.5C434.375 95.75 425.375 96.5 412.625 97.75L412.25 84.25L438.5 83.5ZM439.625 46.75V38.5L435.125 38.875L434.75 47.125L439.625 46.75ZM440.75 28.75L441.125 20.5L436.25 20.875L435.5 28.75H440.75ZM460.25 45.625V37.75H454.25V45.625H460.25ZM460.25 28.75V20.5L454.25 20.875V28.75H460.25Z" stroke="#E06363" stroke-width="14" stroke-linejoin="round" mask="url(#path-1-outside-1_536_564)"/>
</g>
<defs>
<filter id="filter0_d_536_564" x="0.625" y="0.75" width="489.75" height="112.875" filterUnits="userSpaceOnUse" color-interpolation-filters="sRGB">
<feFlood flood-opacity="0" result="BackgroundImageFix"/>
<feColorMatrix in="SourceAlpha" type="matrix" values="0 0 0 0 0 0 0 0 0 0 0 0 0 0 0 0 0 0 127 0" result="hardAlpha"/>
<feOffset dx="7" dy="7"/>
<feComposite in2="hardAlpha" operator="out"/>
<feColorMatrix type="matrix" values="0 0 0 0 0.8 0 0 0 0 0.318 0 0 0 0 0.318 0 0 0 1 0"/>
<feBlend mode="normal" in2="BackgroundImageFix" result="effect1_dropShadow_536_564"/>
<feBlend mode="normal" in="SourceGraphic" in2="effect1_dropShadow_536_564" result="shape"/>
</filter>
</defs>
</svg>
