<svg width="470" height="93" viewBox="0 0 470 93" fill="none" xmlns="http://www.w3.org/2000/svg">
<path d="M7 19.5L8.875 4.875L59.125 1.5C62.625 1.25 66.125 2.375 69.625 4.875C71.875 6.625 73.5 8.5 74.5 10.5C76.25 14 77.125 19 77.125 25.5L77.5 70.125C77.5 76.125 77.125 80.5 76.375 83.25C75.375 86.5 73.875 88.75 71.875 90C69.625 91.5 66 92.25 61 92.25C58 92.25 54.125 92 49.375 91.5L44.125 75.75L59.125 75.375V63.75L27.625 66L20.875 66.75L19.75 91.5L0.625 90L7 19.5ZM59.125 50.25V42.375L22.375 44.25L21.625 52.125L59.125 50.25ZM58.75 28.875L58.375 17.25L24.625 19.875L23.875 29.625L58.75 28.875ZM94 58.125H103.75L101.125 84L89.875 83.625L94 58.125ZM101.875 10.125C105.125 7.125 108.375 4.25 111.625 1.5L119.875 9L120.625 10.125L109.375 21L112 23.625L122.5 13.875L130.375 21.75L137.875 15L149.125 21.75L158.125 13.125L129.25 14.625L130 2.625L160.75 1.875C165.25 1.625 168.5 1.875 170.5 2.625C173.25 3.625 174.875 5.25 175.375 7.5C176.125 10.75 174.875 14.5 171.625 18.75C169.875 21 166.375 24.625 161.125 29.625L182.125 43.875L175 55.125L151 39C146.5 43.75 141.875 48.375 137.125 52.875L128.875 45.375L130.375 55.125L119.5 56.625L119.125 52.875H117.625L117.25 64.875C121.5 61.375 125.5 61.75 129.25 66V58.875L145.75 57.75V46.875H159.625L160 47.25V57.75L176.5 58.5L175.75 69L159.625 68.625L160 79.125H180.625L181 89.25L148.75 90.375L124 91.875L122.875 80.625L145.75 79.5V69L130 70.125C128.5 73.125 126.875 75.125 125.125 76.125C122.875 77.375 120.25 76.875 117.25 74.625L116.875 92.25L103.75 92.625L105.25 54.75C102 55 99.625 55.125 98.125 55.125C95.875 55.125 93.875 54.125 92.125 52.125C90.625 50.125 90.375 48 91.375 45.75C92.375 43.5 93.875 41.375 95.875 39.375C97.625 37.625 99.5 35.875 101.5 34.125C98.25 29.875 96.25 27.25 95.5 26.25C94.5 24.5 94.125 22.75 94.375 21C94.875 18 97.375 14.375 101.875 10.125ZM117.25 43.875L116.125 37.125L126.625 36L127.75 42.375H128.125L139 31.5L128.125 25.125L107.875 45L117.25 43.875ZM232 57.75C229.25 57.75 226.75 56.625 224.5 54.375C222.5 52.375 221.5 49.75 221.5 46.5C221.5 43.5 222.5 41 224.5 39C226.75 36.75 229.25 35.625 232 35.625C235.25 35.625 237.875 36.625 239.875 38.625C242.125 40.875 243.25 43.5 243.25 46.5C243.25 50 242.125 52.875 239.875 55.125C238.125 56.875 235.5 57.75 232 57.75ZM281.875 49.125C282.125 47.875 283.375 42.125 285.625 31.875L292 4.125L308.5 7.125L305.5 21.375L319.75 21L320.5 0.75L337.375 1.125L336.25 20.625L366.25 19.875V33.375L336.25 34.125V48L359.125 47.625V60.75H341.875L336.25 61.125V73.875H373.75V87.375L332.5 87.75L301.375 90L282.625 91.875L283.375 75.75L318.625 74.625L319 61.875L296.875 63.375L297.625 52.5L281.875 49.125ZM319 48.375L319.375 35.25L302.125 36.75L299.5 49.125L319 48.375ZM412.375 8.25V19.5L401.5 20.625L400.75 31.125H410.125V43.125L400.375 43.875L400 58.5L410.125 55.5V67.875L380.875 80.25L377.875 66L387.25 62.625L388.375 45.375L380.5 46.5L380.125 31.875L388.75 31.125L389.5 21.375L377.875 22.875L378.25 8.625L412.375 8.25ZM431.5 76.5L431.875 71.25L416.5 72.75L416.875 58.5L432.25 58.125L432.625 52.125L411.25 53.625L414.625 17.25L415.375 2.625L415.75 2.25L454 1.875C459.75 1.875 463.75 3.625 466 7.125C467.5 9.375 468.375 12.875 468.625 17.625C468.625 19.125 468.75 22.875 469 28.875C469.25 36.375 469.375 43.625 469.375 50.625L447.25 51.375V58.125L462.625 58.5L463 70.125H447.25V76.125H469V88.125C456 88.125 443.875 88.25 432.625 88.5C427.375 88.75 418.375 89.5 405.625 90.75L405.25 77.25L431.5 76.5ZM432.625 39.75V31.5L428.125 31.875L427.75 40.125L432.625 39.75ZM433.75 21.75L434.125 13.5L429.25 13.875L428.5 21.75H433.75ZM453.25 38.625V30.75H447.25V38.625H453.25ZM453.25 21.75V13.5L447.25 13.875V21.75H453.25Z" fill="#E06363"/>
</svg>
