<svg width="340" height="48" viewBox="0 0 340 48" fill="none" xmlns="http://www.w3.org/2000/svg">
<path d="M294.75 16.875L297.75 16.7812L298.406 13.7812L302.625 14.1562L301.969 16.6875C304.031 16.625 306.188 16.5938 308.438 16.5938C310.188 16.5938 312.531 16.6875 315.469 16.875V19.7812C313.219 19.5938 311.625 19.5 310.688 19.5C308.875 19.5 307.125 19.5625 305.438 19.6875L301.219 19.9688L300.938 22.125C302.938 21.5 304.406 21.1562 305.344 21.0938C309.469 20.7188 312.219 21.625 313.594 23.8125C314.156 24.6875 314.438 25.7188 314.438 26.9062C314.438 28.0938 314.156 29.1562 313.594 30.0938C312.719 31.7188 311.25 32.9688 309.188 33.8438C307.875 34.4062 306.094 34.7812 303.844 34.9688L302.531 31.3125C305.094 31.0625 306.969 30.5 308.156 29.625C309.531 28.6875 310.125 27.6875 309.938 26.625C309.75 25.5 308.844 24.875 307.219 24.75C305.844 24.625 304.375 24.875 302.812 25.5L298.875 27C298.188 27.25 297.562 27.125 297 26.625C296.375 26.0625 296.156 25.2812 296.344 24.2812L297 20.3438L294.656 20.7188L294.75 16.875ZM334.669 30.375C333.106 31.5 330.856 32.8125 327.919 34.3125L325.669 30.375C327.919 29.4375 329.45 28.7188 330.263 28.2188C332.263 27.0938 333.481 25.875 333.919 24.5625C334.231 23.6875 334.263 22.8438 334.013 22.0312C333.763 21.1562 333.231 20.5312 332.419 20.1562C331.606 19.7812 330.513 19.6875 329.138 19.875C327.638 20.0625 326.044 20.5312 324.356 21.2812C323.419 21.7188 322.013 22.4375 320.138 23.4375L317.7 19.6875C320.263 18.375 322.294 17.4688 323.794 16.9688C326.044 16.2188 327.981 15.8125 329.606 15.75C331.794 15.6875 333.606 16.1562 335.044 17.1562C336.356 18.0938 337.294 19.3125 337.856 20.8125C338.481 22.5 338.606 24.0938 338.231 25.5938C337.794 27.3438 336.606 28.9375 334.669 30.375Z" fill="#5D504F"/>
<line x1="1.5" y1="22.5" x2="276.5" y2="22.5" stroke="#5D504F" stroke-width="3" stroke-linecap="round" stroke-dasharray="1 7"/>
</svg>
