<svg width="257" height="48" viewBox="0 0 257 48" fill="none" xmlns="http://www.w3.org/2000/svg">
<path d="M8.15625 12.9375L12.6562 14.625L11.625 15.1875L10.5938 36L6.375 35.3438L6.9375 30.75L6.28125 31.125L3.46875 32.1562C2.40625 32.5312 1.625 32.4375 1.125 31.875C0.75 31.4375 0.59375 30.7188 0.65625 29.7188L0.84375 27.0938L1.40625 17.3438L0.375 16.3125L8.15625 12.9375ZM7.21875 27L7.40625 24.6562C6.40625 25.2188 5.46875 25.1875 4.59375 24.5625L4.40625 28.125L7.21875 27ZM6.28125 20.0625C6.71875 20.0625 7.21875 20.25 7.78125 20.625L8.0625 16.5938L4.875 17.9062L4.6875 20.625C5.3125 20.25 5.84375 20.0625 6.28125 20.0625ZM22.5938 14.625C23.0938 15.375 23.3125 16.4062 23.25 17.7188V30.375C23.25 31.0625 22.9375 31.6875 22.3125 32.25C21.9375 32.625 21.2812 32.8125 20.3438 32.8125C19.5312 32.8125 18.6875 32.7812 17.8125 32.7188L16.5938 28.875L19.5938 28.7812L19.6875 23.8125C19.125 24.3125 18.625 24.5938 18.1875 24.6562C17.75 24.7188 17.1562 24.625 16.4062 24.375L16.3125 35.8125H12.6562L13.125 13.4062C15.6875 13.2188 17.9375 13.1875 19.875 13.3125C21.1875 13.375 22.0938 13.8125 22.5938 14.625ZM18.0938 19.875C18.4688 19.875 18.9688 20.0938 19.5938 20.5312L19.5 16.5L16.5 16.6875L16.4062 20.3438C17.0312 20.0312 17.5938 19.875 18.0938 19.875ZM35.6063 22.125L35.5125 20.625L36.45 20.7188L39.5438 16.5938L29.2313 17.625L29.325 13.5938L41.325 13.125C42.0125 13.125 42.4813 13.125 42.7313 13.125C43.3563 13.1875 43.7938 13.375 44.0438 13.6875C44.3563 14.0625 44.4813 14.6562 44.4188 15.4688C44.3563 15.9688 44.2 16.4062 43.95 16.7812L40.7625 21.375L40.3875 22.125H48.5438L48.6375 25.125L40.2938 25.3125L40.4813 32.0625C40.5438 33.5625 40.2 34.5312 39.45 34.9688C39.0125 35.2812 38.45 35.4688 37.7625 35.5312C37.0125 35.6562 35.4188 35.7188 32.9813 35.7188L32.0438 31.6875L35.9813 31.5938L35.7938 25.3125L25.95 26.4375V22.4062L35.6063 22.125Z" fill="#5D504F"/>
<line x1="63.5" y1="25.5" x2="255.5" y2="25.5" stroke="#5D504F" stroke-width="3" stroke-linecap="round" stroke-dasharray="1 7"/>
</svg>
