<svg width="325" height="48" viewBox="0 0 325 48" fill="none" xmlns="http://www.w3.org/2000/svg">
<path d="M0.96875 35.1562L1.71875 20.625L2.1875 13.5938L2.28125 13.5L6.78125 13.4062L19.3438 13.3125C20.6562 13.3125 21.5938 13.75 22.1562 14.625C22.5938 15.25 22.875 16.125 23 17.25C23.125 18.125 23.1875 19.0625 23.1875 20.0625L23.0938 20.1562L15.6875 20.25L9.78125 20.625L5.5625 21L5.28125 30.75L8.65625 26.4375L5.9375 27.0938V23.625L6.03125 23.3438L10.4375 23.1562C11.1875 23.1562 11.8438 23.625 12.4062 24.5625L12.5 20.625L16.4375 20.4375L16.3438 23.5312L17.2812 24.6562L20.2812 21.4688L23.4688 23.8125L19.625 26.9062L21.5938 28.875L23.8438 31.3125L21.2188 33.9375L16.25 28.5938V31.9688C16.3125 33.5938 15.875 34.75 14.9375 35.4375C14.5 35.625 13.8125 35.7188 12.875 35.7188C12.1875 35.7188 11.4688 35.7188 10.7188 35.7188L9.59375 32.4375H12.3125L12.5 25.9688L8.65625 32.9062L5.28125 30.8438L5.1875 35.625L0.96875 35.1562ZM18.5938 17.7188L18.5 15.8438L10.7188 16.125L5.9375 16.5L5.75 17.9062L18.5938 17.7188ZM28.0438 27.75C28.2938 26.625 28.5125 25.5938 28.7 24.6562L26.1688 25.3125V21.6562C27.0438 21.5312 27.8875 21.4375 28.7 21.375C29.7 21.3125 30.5438 21.4375 31.2313 21.75C32.2313 22.1875 32.575 23.25 32.2625 24.9375C32.0125 26.125 31.6375 27.8438 31.1375 30.0938L33.575 30.9375L34.2313 20.3438V20.25L34.325 20.1562L39.2 19.875L39.575 19.2188C38.2625 19.2812 37.325 19.3438 36.7625 19.4062C36.0125 19.5312 34.7938 19.75 33.1063 20.0625L33.4813 16.4062L35.7313 16.125C35.1063 15.0625 35.0438 14.2188 35.5438 13.5938C35.8563 13.2188 36.2313 13 36.6688 12.9375C37.2313 12.8125 37.7625 12.9062 38.2625 13.2188C38.7 13.4688 38.9813 13.8125 39.1063 14.25C39.2938 14.75 39.2 15.375 38.825 16.125L41.3563 16.0312L43.4188 13.0312L46.9813 13.9688L45.4813 16.125H49.2313V18.75L43.4188 18.9375L42.8563 19.7812C43.7313 19.7188 44.3875 19.6875 44.825 19.6875C45.6375 19.6875 46.2313 19.8125 46.6063 20.0625C47.2313 20.4375 47.6375 21.0938 47.825 22.0312C47.95 22.4688 48.0125 23.3438 48.0125 24.6562L48.1063 28.5938L48.0125 30.8438H39.95L33.8563 31.125C35.4188 31.4375 36.9813 31.75 38.5438 32.0625C40.6063 32.4375 44.1063 32.5 49.0438 32.25C48.8563 33.5625 48.6063 34.6562 48.2938 35.5312L48.2 35.8125C45.1375 36 42.5438 36.0312 40.4188 35.9062C37.6688 35.7812 34.2313 34.9688 30.1063 33.4688L29.45 35.5312L26.075 33.4688C26.7 32.2812 27.1063 31.3438 27.2938 30.6562C27.5438 29.8438 27.7938 28.875 28.0438 27.75ZM27.95 13.5938H28.0438L32.6375 16.5V16.6875L30.7625 19.2188L26.1688 15.6562L27.95 13.5938ZM37.5125 28.5L39.7625 28.3125L44.1688 28.2188V27.2812L37.5125 27.6562V28.5ZM44.1688 25.4062V24.6562L37.5125 24.9375V25.5L44.1688 25.4062ZM44.1688 22.6875V21.9375L37.8875 22.125L37.7938 22.7812L44.1688 22.6875Z" fill="#5D504F"/>
<path d="M64 26H323" stroke="#5D504F" stroke-width="3" stroke-linecap="round" stroke-dasharray="1 7"/>
</svg>
