<svg width="327" height="62" viewBox="0 0 327 62" fill="none" xmlns="http://www.w3.org/2000/svg">
<path d="M8.15625 12.9375L12.6562 14.625L11.625 15.1875L10.5938 36L6.375 35.3438L6.9375 30.75L6.28125 31.125L3.46875 32.1562C2.40625 32.5312 1.625 32.4375 1.125 31.875C0.75 31.4375 0.59375 30.7188 0.65625 29.7188L0.84375 27.0938L1.40625 17.3438L0.375 16.3125L8.15625 12.9375ZM7.21875 27L7.40625 24.6562C6.40625 25.2188 5.46875 25.1875 4.59375 24.5625L4.40625 28.125L7.21875 27ZM6.28125 20.0625C6.71875 20.0625 7.21875 20.25 7.78125 20.625L8.0625 16.5938L4.875 17.9062L4.6875 20.625C5.3125 20.25 5.84375 20.0625 6.28125 20.0625ZM22.5938 14.625C23.0938 15.375 23.3125 16.4062 23.25 17.7188V30.375C23.25 31.0625 22.9375 31.6875 22.3125 32.25C21.9375 32.625 21.2812 32.8125 20.3438 32.8125C19.5312 32.8125 18.6875 32.7812 17.8125 32.7188L16.5938 28.875L19.5938 28.7812L19.6875 23.8125C19.125 24.3125 18.625 24.5938 18.1875 24.6562C17.75 24.7188 17.1562 24.625 16.4062 24.375L16.3125 35.8125H12.6562L13.125 13.4062C15.6875 13.2188 17.9375 13.1875 19.875 13.3125C21.1875 13.375 22.0938 13.8125 22.5938 14.625ZM18.0938 19.875C18.4688 19.875 18.9688 20.0938 19.5938 20.5312L19.5 16.5L16.5 16.6875L16.4062 20.3438C17.0312 20.0312 17.5938 19.875 18.0938 19.875ZM35.2313 19.3125L35.325 18.1875H38.1375L36.2625 17.25L36.5438 16.6875H34.575L34.1063 18.8438H30.3563L30.825 16.9688L29.8875 17.0625L28.95 18.9375L25.8563 17.25L28.8563 12.9375L31.95 13.5L31.3875 14.4375L36.825 14.25L36.7313 16.4062L39.2625 12.8438L42.3563 13.5938L41.9813 14.1562L48.5438 14.25V16.5938L45.1688 16.5V18.4688L41.7 18.5625V16.5L40.4813 16.5938L39.45 18.4688L39.1688 18.5625L39.075 19.4062L43.2 19.2188C44.075 19.1562 44.7625 19.1562 45.2625 19.2188C46.075 19.2812 46.7625 19.4688 47.325 19.7812C48.0125 20.2188 48.4188 20.9062 48.5438 21.8438C48.6063 22.4688 48.6063 23.3125 48.5438 24.375H44.6063V22.2188L38.7938 22.125L33.075 22.4062C32.7625 22.4062 32.2 22.4688 31.3875 22.5938C30.8875 22.6562 30.3563 22.7812 29.7938 22.9688L29.5125 24.8438L25.8563 25.125L26.325 19.875L35.2313 19.3125ZM44.1375 25.4062C44.2 26.0938 44.2 26.9688 44.1375 28.0312L33.5438 28.4062V28.9688L42.45 28.7812C44.075 28.7188 45.0438 29.5312 45.3563 31.2188C45.5438 32.2188 45.575 33.5938 45.45 35.3438C43.1375 35.2812 40.8563 35.25 38.6063 35.25C37.2313 35.25 34.0438 35.4062 29.0438 35.7188L29.9813 23.25C32.7938 23.0625 35.5125 22.875 38.1375 22.6875C39.575 22.5625 40.575 22.5312 41.1375 22.5938C42.0125 22.6562 42.7 22.8438 43.2 23.1562C43.7625 23.5312 44.075 24.2812 44.1375 25.4062ZM40.95 32.625V31.125L33.3563 31.3125L33.2625 32.625H40.95ZM39.5438 26.1562V24.75L33.9188 24.8438L33.7313 26.3438L39.5438 26.1562Z" fill="#E05353"/>
<path d="M325 60L280 24H63.5" stroke="#E05353" stroke-width="3" stroke-linecap="round" stroke-dasharray="1 7"/>
</svg>
