<svg width="51" height="242" viewBox="0 0 51 242" fill="none" xmlns="http://www.w3.org/2000/svg">
<path d="M10.9062 22.125L10.8125 20.625L11.75 20.7188L14.8438 16.5938L4.53125 17.625L4.625 13.5938L16.625 13.125C17.3125 13.125 17.7812 13.125 18.0312 13.125C18.6562 13.1875 19.0938 13.375 19.3438 13.6875C19.6562 14.0625 19.7812 14.6562 19.7188 15.4688C19.6562 15.9688 19.5 16.4062 19.25 16.7812L16.0625 21.375L15.6875 22.125H23.8438L23.9375 25.125L15.5938 25.3125L15.7812 32.0625C15.8438 33.5625 15.5 34.5312 14.75 34.9688C14.3125 35.2812 13.75 35.4688 13.0625 35.5312C12.3125 35.6562 10.7188 35.7188 8.28125 35.7188L7.34375 31.6875L11.2812 31.5938L11.0938 25.3125L1.25 26.4375V22.4062L10.9062 22.125ZM27.1063 16.4062L35.3563 15.375L35.7313 13.4062L39.7625 13.3125L39.575 15.0938C41.2 15.0312 43.2 14.9688 45.575 14.9062C46.2625 14.9062 46.7938 14.9375 47.1688 15C47.7938 15.125 48.2625 15.4375 48.575 15.9375C49.0125 16.5625 49.2 17.7812 49.1375 19.5938L48.8563 19.6875L45.2938 19.875L45.2 17.7188C42.3875 17.7812 40.2313 17.875 38.7313 18C37.6688 18.125 35.0125 18.4688 30.7625 19.0312L30.575 21.1875L26.45 21.5625L26.3563 21.4688L27.1063 16.4062ZM29.075 27.4688C30.2 27.1562 31.0438 26.9688 31.6063 26.9062C32.9188 26.8438 34.2313 26.7812 35.5438 26.7188L36.1063 25.5938L30.575 26.1562C30.6375 25.0938 30.7313 24.1562 30.8563 23.3438C30.9813 22.1562 31.1375 21.0312 31.325 19.9688L31.5125 19.5938L40.9813 18.6562C42.4813 18.5312 43.5125 18.75 44.075 19.3125C44.5125 19.8125 44.7938 20.5 44.9188 21.375C45.0438 22.125 45.1063 23.3438 45.1063 25.0312L40.1375 25.4062L39.575 26.3438C41.075 26.2812 42.5438 26.25 43.9813 26.25C45.2313 26.25 46.075 26.5312 46.5125 27.0938C46.7625 27.4688 46.9813 28.0312 47.1688 28.7812C47.3563 29.7188 47.5438 31.6562 47.7313 34.5938L37.6063 34.9688L28.5125 35.9062L29.075 27.4688ZM43.1375 31.875L43.0438 29.1562L33.2 29.7188L32.9188 32.4375L43.1375 31.875ZM41.1688 22.5938V21L34.9813 21.5625L34.7 23.0625L41.1688 22.5938Z" fill="#5D504F"/>
<line x1="24" y1="54.5" x2="24" y2="240.5" stroke="#5D504F" stroke-width="3" stroke-linecap="round" stroke-dasharray="1 7"/>
</svg>
