<svg width="247" height="48" viewBox="0 0 247 48" fill="none" xmlns="http://www.w3.org/2000/svg">
<path d="M201.844 35.8125L201.094 31.5938H202.875L202.969 27L201 27.1875L200.625 35.625L197.062 35.25L198.375 13.4062L203.719 13.3125C204.719 13.3125 205.438 13.5 205.875 13.875C206.438 14.375 206.719 15.1562 206.719 16.2188L206.25 33.2812C206.188 34.9688 205.312 35.8125 203.625 35.8125H201.844ZM203.062 24.375L203.156 21.9375L201.281 22.125L201.188 24.375H203.062ZM203.156 19.125L203.344 16.2188L201.656 16.3125L201.469 19.2188L203.156 19.125ZM207 30.8438H211.219L211.781 18.5625L207.656 18.9375L207.75 14.9062L219.469 14.7188L219.562 18.375H215.719V30.75L219.844 30.8438V34.3125L206.719 34.7812L207 30.8438ZM222.544 26.625L223.2 13.5L223.95 13.4062L230.794 13.2188C231.356 13.2188 232.013 13.6875 232.763 14.625C233.075 15.0625 233.263 15.5 233.325 15.9375C233.388 16.4375 233.419 17.1875 233.419 18.1875L233.325 24.1875L226.763 24.9375V35.8125L222.356 35.625L222.544 26.625ZM229.481 21.4688L229.575 19.6875L226.95 19.9688L226.856 21.4688H229.481ZM229.669 17.4375V15.9375L227.138 16.125L227.044 17.4375H229.669ZM234.169 13.2188H241.106C242.169 13.1562 243.138 13.5312 244.013 14.3438C244.638 15.0938 244.95 15.875 244.95 16.6875L245.044 27.1875V31.6875C245.044 32.75 244.856 33.625 244.481 34.3125C243.919 35.25 242.856 35.7188 241.294 35.7188H238.294C237.356 33.0312 236.856 31.6562 236.794 31.5938L236.888 31.4062L241.106 31.3125L241.013 24C239.263 23.9375 238.075 23.9062 237.45 23.9062C236.95 23.9062 235.731 23.9688 233.794 24.0938V23.7188L234.169 13.2188ZM240.825 21.2812V19.875L237.919 19.9688L237.825 21.375L240.825 21.2812ZM240.731 17.4375L240.638 15.9375H238.013L237.919 17.4375H240.731Z" fill="#E05353"/>
<line x1="1.5" y1="22.5" x2="179.5" y2="22.5" stroke="#E05353" stroke-width="3" stroke-linecap="round" stroke-dasharray="1 7"/>
</svg>
