<svg width="243" height="47" viewBox="0 0 243 47" fill="none" xmlns="http://www.w3.org/2000/svg">
<path d="M0.5 13.8125L12.875 13.625L18.875 0.875L27.125 3.875L22.625 13.4375L46.25 14.1875L45.875 20.1875L38.5625 20L29 35L39.6875 40.0625L35.1875 46.8125L25.0625 41.75L22.25 46.625L14.9375 42.875L17.75 38.1875L12.125 35.9375C9.375 34.8125 7.5625 33.625 6.6875 32.375C5.6875 30.875 5.9375 28.5 7.4375 25.25L9.125 21.6875L0.3125 22.625L0.5 13.8125ZM22.0625 31.4375L29.375 20.1875L19.25 20.5625L15.3125 28.8125L22.0625 31.4375ZM75.65 38.5625C78.775 36.4375 80.8375 34.4375 81.8375 32.5625C83.2125 30.3125 83.9 27.5 83.9 24.125C83.9 20.625 83.15 17.875 81.65 15.875C80.15 13.875 78.275 12.5 76.025 11.75C73.65 11 71.2125 10.9375 68.7125 11.5625C64.8375 12.6875 61.9 14.9375 59.9 18.3125C58.275 21.0625 57.5875 23.875 57.8375 26.75C57.9625 28 58.275 29.0625 58.775 29.9375C59.525 31.1875 60.4 31.625 61.4 31.25C62.275 31 63.525 30.1875 65.15 28.8125C66.4 27.8125 67.3375 27 67.9625 26.375C70.2125 24.25 72.65 21.5625 75.275 18.3125L80.7125 23.1875C77.7125 27.1875 75.15 30.25 73.025 32.375C69.9 35.5 66.7125 37.875 63.4625 39.5C61.4625 40.5 59.525 40.8125 57.65 40.4375C55.525 40.0625 53.9 38.9375 52.775 37.0625C51.4 34.9375 50.65 32 50.525 28.25C50.4 25 50.775 22 51.65 19.25C53.025 14.75 55.4625 11.1875 58.9625 8.5625C62.9625 5.5625 67.3375 4.0625 72.0875 4.0625C78.0875 4.0625 82.9625 6.1875 86.7125 10.4375C88.8375 12.8125 90.275 15.75 91.025 19.25C91.775 22.75 91.8375 26.125 91.2125 29.375C90.7125 31.875 89.9 34.25 88.775 36.5C87.65 38.75 85.5875 41.3125 82.5875 44.1875L75.65 38.5625ZM100.55 7.25L116.113 6.5L117.8 1.25L125.113 2.75L123.8 6.6875L132.238 6.875C134.488 6.875 136.113 7.25 137.113 8C137.363 8.25 137.613 8.4375 137.863 8.5625C138.113 8.8125 138.363 9.125 138.613 9.5C139.238 10.875 139.613 13.5625 139.738 17.5625L140.3 37.625C140.3 38.875 140.113 40.1875 139.738 41.5625C139.113 43.4375 138.3 44.6875 137.3 45.3125C136.05 46.0625 134.3 46.5 132.05 46.625C131.05 46.625 129.675 46.625 127.925 46.625L125.675 38.5625H132.238L132.05 31.25L131.488 14.375L131.113 14L121.363 14.1875L118.925 20.9375L131.3 29.5625L131.488 29.75L127.175 35.9375L126.988 36.125L116.675 28.4375L114.05 37.4375C112.8 37.0625 111.613 36.625 110.488 36.125C109.613 35.75 108.425 35.1875 106.925 34.4375L113.3 14.5625L107.863 14.9375L107.488 19.25L106.363 35.5625L105.8 46.8125L97.925 45.875L100.55 7.25ZM147.2 12.125L153.575 12.5L152.825 28.25L146.637 27.5L147.2 12.125ZM154.325 1.25L161.45 1.4375L161.075 10.4375L164.075 12.5L165.95 4.4375L172.137 6.125L171.387 10.625L174.575 10.8125L174.95 1.0625L182.45 1.25L182.262 10.625L191.262 10.8125V16.625L181.887 16.8125L181.7 24.875L189.575 24.6875L189.762 24.875V30.5L181.7 30.6875V39.3125H192.575L192.387 45.3125L182.075 45.5L172.325 46.0625L162.387 46.8125L162.575 39.875L174.012 39.3125L174.2 31.25L165.95 32.1875L166.137 25.4375L174.2 25.0625L174.387 17.1875L169.887 17.5625L168.387 24.5L162.387 22.625L162.012 22.4375L162.575 19.8125L160.887 18.3125L160.7 40.4375V46.8125H153.387L153.762 16.4375L154.325 1.25ZM204.913 25.4375L197.6 26.5625V20L213.35 18.6875L216.163 16.4375L199.288 18.3125L199.85 2.5625L200.788 2.375L210.913 0.875C212.913 0.625 214.6 1 215.975 2C217.725 3.375 218.538 5.875 218.413 9.5L218.225 15.6875L225.163 17L224.225 18.125L242.788 18.5V23.75H235.475L242.975 28.4375L239.788 32.1875C240.538 33.9375 240.975 35.375 241.1 36.5C241.225 37.75 241.038 40.5625 240.538 44.9375L221.788 44.75L222.35 28.4375H228.163L221.975 24.125L216.913 24.5L210.913 29.375C213.913 28.75 216.038 29 217.288 30.125C218.663 31.25 219.288 32.75 219.163 34.625L218.788 44.75L199.85 46.8125L200.038 34.625L197.225 31.625L204.913 25.4375ZM211.1 11.1875L211.288 6.875L206.413 7.0625L206.225 11.75L211.1 11.1875ZM211.85 40.25L212.225 35.375L206.788 35.75L206.413 41L211.85 40.25ZM222.538 1.25L231.35 1.0625C237.85 0.9375 240.975 4.1875 240.725 10.8125L240.538 15.6875L221.975 16.0625L222.538 1.25ZM233.038 39.3125L233.225 34.8125L228.35 34.625L228.163 39.5L233.038 39.3125ZM233.225 10.625V6.5H228.725L228.538 10.625H233.225Z" fill="#E06363"/>
</svg>
