<svg width="244" height="62" viewBox="0 0 244 62" fill="none" xmlns="http://www.w3.org/2000/svg">
<path d="M8.65625 12.9375L13.1562 14.625L12.125 15.1875L11.0938 36L6.875 35.3438L7.4375 30.75L6.78125 31.125L3.96875 32.1562C2.90625 32.5312 2.125 32.4375 1.625 31.875C1.25 31.4375 1.09375 30.7188 1.15625 29.7188L1.34375 27.0938L1.90625 17.3438L0.875 16.3125L8.65625 12.9375ZM7.71875 27L7.90625 24.6562C6.90625 25.2188 5.96875 25.1875 5.09375 24.5625L4.90625 28.125L7.71875 27ZM6.78125 20.0625C7.21875 20.0625 7.71875 20.25 8.28125 20.625L8.5625 16.5938L5.375 17.9062L5.1875 20.625C5.8125 20.25 6.34375 20.0625 6.78125 20.0625ZM23.0938 14.625C23.5938 15.375 23.8125 16.4062 23.75 17.7188V30.375C23.75 31.0625 23.4375 31.6875 22.8125 32.25C22.4375 32.625 21.7812 32.8125 20.8438 32.8125C20.0312 32.8125 19.1875 32.7812 18.3125 32.7188L17.0938 28.875L20.0938 28.7812L20.1875 23.8125C19.625 24.3125 19.125 24.5938 18.6875 24.6562C18.25 24.7188 17.6562 24.625 16.9062 24.375L16.8125 35.8125H13.1562L13.625 13.4062C16.1875 13.2188 18.4375 13.1875 20.375 13.3125C21.6875 13.375 22.5938 13.8125 23.0938 14.625ZM18.5938 19.875C18.9688 19.875 19.4688 20.0938 20.0938 20.5312L20 16.5L17 16.6875L16.9062 20.3438C17.5312 20.0312 18.0938 19.875 18.5938 19.875ZM35.7313 19.3125L35.825 18.1875H38.6375L36.7625 17.25L37.0438 16.6875H35.075L34.6063 18.8438H30.8563L31.325 16.9688L30.3875 17.0625L29.45 18.9375L26.3563 17.25L29.3563 12.9375L32.45 13.5L31.8875 14.4375L37.325 14.25L37.2313 16.4062L39.7625 12.8438L42.8563 13.5938L42.4813 14.1562L49.0438 14.25V16.5938L45.6688 16.5V18.4688L42.2 18.5625V16.5L40.9813 16.5938L39.95 18.4688L39.6688 18.5625L39.575 19.4062L43.7 19.2188C44.575 19.1562 45.2625 19.1562 45.7625 19.2188C46.575 19.2812 47.2625 19.4688 47.825 19.7812C48.5125 20.2188 48.9188 20.9062 49.0438 21.8438C49.1063 22.4688 49.1063 23.3125 49.0438 24.375H45.1063V22.2188L39.2938 22.125L33.575 22.4062C33.2625 22.4062 32.7 22.4688 31.8875 22.5938C31.3875 22.6562 30.8563 22.7812 30.2938 22.9688L30.0125 24.8438L26.3563 25.125L26.825 19.875L35.7313 19.3125ZM44.6375 25.4062C44.7 26.0938 44.7 26.9688 44.6375 28.0312L34.0438 28.4062V28.9688L42.95 28.7812C44.575 28.7188 45.5438 29.5312 45.8563 31.2188C46.0438 32.2188 46.075 33.5938 45.95 35.3438C43.6375 35.2812 41.3563 35.25 39.1063 35.25C37.7313 35.25 34.5438 35.4062 29.5438 35.7188L30.4813 23.25C33.2938 23.0625 36.0125 22.875 38.6375 22.6875C40.075 22.5625 41.075 22.5312 41.6375 22.5938C42.5125 22.6562 43.2 22.8438 43.7 23.1562C44.2625 23.5312 44.575 24.2812 44.6375 25.4062ZM41.45 32.625V31.125L33.8563 31.3125L33.7625 32.625H41.45ZM40.0438 26.1562V24.75L34.4188 24.8438L34.2313 26.3438L40.0438 26.1562Z" fill="#E05353"/>
<path d="M242.5 60L197.5 24H66" stroke="#E05353" stroke-width="3" stroke-linecap="round" stroke-dasharray="1 7"/>
</svg>
