<svg width="273" height="47" viewBox="0 0 273 47" fill="none" xmlns="http://www.w3.org/2000/svg">
<path d="M7.5 4.8125L14.8125 2.375L18.9375 10.8125C23.5625 9.3125 27.6875 8.125 31.3125 7.25L34.125 14.1875L21.9375 17.5625L24.9375 25.4375L18 27.875L15 20.5625C13.25 21.9375 11.9375 23.125 11.0625 24.125C10.0625 25.375 9.5 26.75 9.375 28.25C9.25 31 10 33.1875 11.625 34.8125C13.125 36.3125 15.125 37.1875 17.625 37.4375C20.5 37.8125 23.6875 37.4375 27.1875 36.3125C28.9375 35.8125 30.5625 35.125 32.0625 34.25C33.5625 33.375 35.0625 32.4375 36.5625 31.4375L41.25 37.4375C38.625 39.3125 36.1875 40.75 33.9375 41.75C29.8125 43.5 25.75 44.5625 21.75 44.9375C17 45.4375 12.9375 44.8125 9.5625 43.0625C7.0625 41.8125 5.0625 40 3.5625 37.625C2.0625 35.25 1.25 32.625 1.125 29.75C1 26.875 1.5625 24.25 2.8125 21.875C4.1875 19.125 7.1875 16.3125 11.8125 13.4375L7.5 4.8125ZM35.4375 3.875L38.8125 12.3125L34.6875 13.25L31.5 5.1875L35.4375 3.875ZM40.5 2.9375L43.5 10.8125L39.375 12.125L36.375 3.6875L40.5 2.9375ZM56.4 17.375C58.775 12.25 61.0875 7.375 63.3375 2.75L70.4625 5.5625C68.5875 9.1875 67.3375 11.625 66.7125 12.875C65.7125 15.25 64.775 17.5625 63.9 19.8125C65.775 18.5625 67.3375 17.8125 68.5875 17.5625C70.3375 17.0625 72.025 17.25 73.65 18.125C75.025 18.875 75.9625 19.875 76.4625 21.125C76.9625 22.375 76.9625 24.0625 76.4625 26.1875C75.9625 28.3125 75.65 29.9375 75.525 31.0625C75.275 33.3125 75.8375 34.625 77.2125 35C78.3375 35.375 79.65 35 81.15 33.875C82.025 33.25 83.025 32.375 84.15 31.25L88.8375 37.8125C85.5875 41.0625 82.7125 43.0625 80.2125 43.8125C76.7125 44.8125 73.5875 44.6875 70.8375 43.4375C69.0875 42.6875 67.9 41.3125 67.275 39.3125C66.65 37.3125 66.525 35.25 66.9 33.125L67.65 29.375C68.025 27.375 67.7125 26.1875 66.7125 25.8125C65.5875 25.4375 64.0875 26 62.2125 27.5C61.4625 28.125 60.525 29.125 59.4 30.5L54.7125 44.1875L47.4 41.1875C51.4 29.6875 54.4 21.75 56.4 17.375ZM100.425 9.5L103.05 2.9375L110.55 4.4375L108.675 9.125L115.238 8.9375L114.863 14.375L106.425 15.125L100.425 35L93.3 32.5625L97.9875 16.25L93.3 17.1875V10.25L100.425 9.5ZM118.8 15.3125L126.675 15.875L127.05 22.625L135.113 25.4375L133.05 32.9375L127.238 30.5C127.113 33.875 126.613 36.375 125.738 38C124.488 40.125 122.738 41.875 120.488 43.25C118.238 44.5 115.925 45.125 113.55 45.125C109.175 45 106.113 43.1875 104.363 39.6875C102.613 36.1875 102.55 32.875 104.175 29.75C105.55 27.125 107.8 25.1875 110.925 23.9375C112.925 23.1875 115.863 22.5625 119.738 22.0625L118.8 15.3125ZM118.425 35.9375C119.425 34.6875 119.988 32.6875 120.113 29.9375C117.863 29.8125 116.175 29.875 115.05 30.125C113.3 30.5 112.05 31.375 111.3 32.75C110.8 33.625 110.738 34.5625 111.113 35.5625C111.613 36.8125 112.425 37.5625 113.55 37.8125C115.425 38.3125 117.05 37.6875 118.425 35.9375ZM122.363 2.9375L135.113 10.625L131.175 15.875L117.863 7.625L122.363 2.9375ZM163.2 6.3125L162.262 1.25H169.575L170.512 6.3125L175.387 6.125C174.137 4.625 173.825 3.375 174.45 2.375C174.95 1.625 175.637 1.125 176.512 0.875C177.637 0.625 178.7 0.875 179.7 1.625C180.7 2.375 181.137 3.25 181.012 4.25C181.012 4.5 180.887 4.8125 180.637 5.1875C180.387 5.5625 180.137 5.875 179.887 6.125L185.7 6.3125L185.512 11.9375L171.825 11.375C172.2 13 172.575 14.375 172.95 15.5L175.2 11.9375L181.2 14.9375L176.512 22.625C177.012 23.375 177.512 23.9375 178.012 24.3125L180.075 21.125L185.512 24.875C184.762 26.75 183.95 28.4375 183.075 29.9375C182.075 31.5625 180.825 32.5 179.325 32.75C177.325 33 175.137 31.875 172.762 29.375L171.075 32.5625L165.637 28.4375L168.825 23C167.7 20.875 166.575 18.0625 165.45 14.5625L166.012 17.75L149.512 18.875L149.887 13.8125L157.2 13.25L164.887 12.6875L164.512 11.5625L148.95 12.6875L147.262 32.1875L140.137 32.75L142.387 6.875L163.2 6.3125ZM145.95 33.125L152.137 35.75L147.637 46.25L140.137 43.25L145.95 33.125ZM164.137 20.375C164.637 21.25 164.887 22.625 164.887 24.5L164.7 30.5C167.2 30.5 168.887 31.1875 169.762 32.5625C170.512 33.6875 170.7 34.875 170.325 36.125C170.075 37.125 169.575 37.875 168.825 38.375C168.075 38.875 167.137 39.125 166.012 39.125C164.887 39.125 163.95 38.8125 163.2 38.1875C161.95 37.3125 161.45 36 161.7 34.25C161.825 33.375 162.2 32.4375 162.825 31.4375L148.762 31.8125L149.325 19.625C154.825 18.875 158.825 18.625 161.325 18.875C162.7 19 163.637 19.5 164.137 20.375ZM160.575 32.5625L160.762 39.875H170.137V37.0625L176.512 38.5625C176.512 36.1875 177.45 34.75 179.325 34.25C181.825 33.625 183.7 34.3125 184.95 36.3125C185.575 37.3125 185.7 38.4375 185.325 39.6875C184.95 40.9375 184.2 41.8125 183.075 42.3125C181.45 43.0625 179.575 42.5 177.45 40.625C177.075 43.5 176.137 45.1875 174.637 45.6875L172.012 46.625L157.387 46.4375C156.512 46.4375 155.575 45.875 154.575 44.75C154.075 44.25 153.7 43.25 153.45 41.75C153.325 41 153.325 40.0625 153.45 38.9375L153.825 32.75L160.575 32.5625ZM158.7 26.9375V23.75H155.137L154.95 27.125L158.7 26.9375ZM204.038 5.375C201.788 12.75 200.35 18.25 199.725 21.875C199.225 25.25 199.1 27.75 199.35 29.375C199.725 31.875 200.975 33.6875 203.1 34.8125C205.85 36.1875 208.663 36.125 211.538 34.625C214.413 33.125 217.1 30.6875 219.6 27.3125C220.475 26.0625 221.538 24.25 222.788 21.875L229.538 27.5C225.288 33.875 221.413 38.25 217.913 40.625C214.663 42.875 210.975 44.125 206.85 44.375C202.475 44.625 198.725 43.625 195.6 41.375C192.225 38.75 190.475 34.9375 190.35 29.9375C190.35 28.5625 190.538 26.5 190.913 23.75C191.288 21.5 191.913 18.5 192.788 14.75C193.788 10.625 194.788 6.75 195.788 3.125L204.038 5.375ZM221.663 6.6875L225.225 15.125L220.538 16.25L217.538 7.625L221.663 6.6875ZM227.288 5.5625L230.475 13.4375L225.975 14.9375L222.975 6.5L227.288 5.5625ZM265.125 21.125C262.875 22.875 261.25 25.875 260.25 30.125L252.75 29C253.375 26.5 253.938 24.8125 254.438 23.9375C255.438 21.9375 256.688 20.3125 258.188 19.0625L262.875 14.9375C263.75 14.0625 264.125 12.9375 264 11.5625C263.875 10.3125 263.312 9.4375 262.312 8.9375C260.938 8.1875 259.062 8.125 256.688 8.75C254.312 9.375 251.375 11.25 247.875 14.375L243.375 8.9375C246.375 6.4375 249 4.6875 251.25 3.6875C253.875 2.5625 256.562 1.9375 259.312 1.8125C263.438 1.6875 266.5 2.5625 268.5 4.4375C270.875 6.6875 271.875 9.5 271.5 12.875C271.25 15.25 270.375 17 268.875 18.125L265.125 21.125ZM252.562 39.5C251.688 38.625 251.25 37.5 251.25 36.125C251.25 34.625 251.688 33.4375 252.562 32.5625C253.438 31.6875 254.5 31.25 255.75 31.25C257.125 31.25 258.312 31.75 259.312 32.75C260.188 33.625 260.625 34.75 260.625 36.125C260.625 37.5 260.188 38.625 259.312 39.5C258.438 40.375 257.375 40.8125 256.125 40.8125C254.625 40.8125 253.438 40.375 252.562 39.5Z" fill="#E06363"/>
</svg>
