<svg width="450" height="87" viewBox="0 0 450 87" fill="none" xmlns="http://www.w3.org/2000/svg">
<rect width="450" height="87" rx="43.5" fill="white"/>
<path d="M35.5 30.25L36.4375 22.9375L61.5625 21.25C63.3125 21.125 65.0625 21.6875 66.8125 22.9375C67.9375 23.8125 68.75 24.75 69.25 25.75C70.125 27.5 70.5625 30 70.5625 33.25L70.75 55.5625C70.75 58.5625 70.5625 60.75 70.1875 62.125C69.6875 63.75 68.9375 64.875 67.9375 65.5C66.8125 66.25 65 66.625 62.5 66.625C61 66.625 59.0625 66.5 56.6875 66.25L54.0625 58.375L61.5625 58.1875V52.375L45.8125 53.5L42.4375 53.875L41.875 66.25L32.3125 65.5L35.5 30.25ZM61.5625 45.625V41.6875L43.1875 42.625L42.8125 46.5625L61.5625 45.625ZM61.375 34.9375L61.1875 29.125L44.3125 30.4375L43.9375 35.3125L61.375 34.9375ZM81.4 49.5625H86.275L84.9625 62.5L79.3375 62.3125L81.4 49.5625ZM85.3375 25.5625C86.9625 24.0625 88.5875 22.625 90.2125 21.25L94.3375 25L94.7125 25.5625L89.0875 31L90.4 32.3125L95.65 27.4375L99.5875 31.375L103.338 28L108.963 31.375L113.463 27.0625L99.025 27.8125L99.4 21.8125L114.775 21.4375C117.025 21.3125 118.65 21.4375 119.65 21.8125C121.025 22.3125 121.838 23.125 122.088 24.25C122.463 25.875 121.838 27.75 120.213 29.875C119.338 31 117.588 32.8125 114.963 35.3125L125.463 42.4375L121.9 48.0625L109.9 40C107.65 42.375 105.338 44.6875 102.963 46.9375L98.8375 43.1875L99.5875 48.0625L94.15 48.8125L93.9625 46.9375H93.2125L93.025 52.9375C95.15 51.1875 97.15 51.375 99.025 53.5V49.9375L107.275 49.375V43.9375H114.213L114.4 44.125V49.375L122.65 49.75L122.275 55L114.213 54.8125L114.4 60.0625H124.713L124.9 65.125L108.775 65.6875L96.4 66.4375L95.8375 60.8125L107.275 60.25V55L99.4 55.5625C98.65 57.0625 97.8375 58.0625 96.9625 58.5625C95.8375 59.1875 94.525 58.9375 93.025 57.8125L92.8375 66.625L86.275 66.8125L87.025 47.875C85.4 48 84.2125 48.0625 83.4625 48.0625C82.3375 48.0625 81.3375 47.5625 80.4625 46.5625C79.7125 45.5625 79.5875 44.5 80.0875 43.375C80.5875 42.25 81.3375 41.1875 82.3375 40.1875C83.2125 39.3125 84.15 38.4375 85.15 37.5625C83.525 35.4375 82.525 34.125 82.15 33.625C81.65 32.75 81.4625 31.875 81.5875 31C81.8375 29.5 83.0875 27.6875 85.3375 25.5625ZM93.025 42.4375L92.4625 39.0625L97.7125 38.5L98.275 41.6875H98.4625L103.9 36.25L98.4625 33.0625L88.3375 43L93.025 42.4375ZM132.925 42.625L133.113 39.8125L129.738 37.375L132.738 30.625L134.425 31.5625C134.55 29.6875 134.8 27.8125 135.175 25.9375L140.425 25.5625L152.238 24.8125L152.425 21.0625H159.925L159.738 24.4375L175.3 24.8125L175.488 29.5H167.8L152.238 30.4375L141.55 31.5625L139.488 53.3125L138.738 66.625L131.425 66.0625L132.55 51.4375L130.113 54.0625L129.925 46.375L132.925 42.625ZM152.8 40.5625L149.988 39.0625L152.8 35.875L143.988 36.8125L144.55 31.75C152.175 31.125 159.175 30.8125 165.55 30.8125C167.05 30.8125 168.175 30.9375 168.925 31.1875C170.175 31.5625 170.675 32.25 170.425 33.25C170.3 34.125 169.238 35.625 167.238 37.75L165.175 40C167.925 39.875 169.738 40 170.613 40.375C171.613 40.875 172.425 41.75 173.05 43C173.55 44 173.8 44.9375 173.8 45.8125L174.363 59.5C174.488 62.375 173.8 64.375 172.3 65.5C171.425 66.125 170.175 66.5 168.55 66.625C167.175 66.75 165.675 66.75 164.05 66.625L162.363 60.4375L166.675 60.25V56.6875L161.425 56.875V63.8125H154.113L154.3 57.4375L148.675 58.1875L148.488 66.8125H141.175L141.363 62.875L142.488 47.3125L143.238 41.125L152.8 40.5625ZM154.488 52.9375V51.4375L149.05 51.8125L148.863 53.3125L154.488 52.9375ZM154.488 46.9375V45.25L149.613 45.625L149.425 47.125L154.488 46.9375ZM158.425 37L160.3 35.125L155.425 35.5L158.425 37ZM166.675 52.5625L166.488 50.875L161.425 51.0625V52.5625H166.675ZM166.3 46.5625L166.113 44.5L161.613 44.6875L161.425 46.75L166.3 46.5625ZM195.325 30.625L182.012 33.625L181.45 24.625L194.387 23.125C197.137 22.875 199.387 23.375 201.137 24.625C203.012 26 203.887 28 203.762 30.625L203.2 39.25L209.95 40L211.262 26.875L218.762 28.1875L217.262 42.0625L222.887 43.75L221.2 51.0625L216.137 49L213.137 64.5625L205.075 63.0625L208.825 46.9375L202.45 46C201.575 50.5 200.637 53.8125 199.637 55.9375C197.887 59.8125 195.387 62.25 192.137 63.25C188.762 64.25 185.825 63.5625 183.325 61.1875C181.45 59.3125 180.45 56.75 180.325 53.5C180.325 50.375 181.075 47.5625 182.575 45.0625C184.2 42.6875 186.137 41 188.387 40C190.137 39.25 192.325 38.875 194.95 38.875L195.325 30.625ZM193.075 51.4375C193.45 50.3125 193.825 48.5 194.2 46C191.7 46 189.887 46.75 188.762 48.25C187.387 50 186.887 51.8125 187.262 53.6875C187.637 55.5625 188.637 56.1875 190.262 55.5625C191.512 55.0625 192.45 53.6875 193.075 51.4375ZM252.85 58.5625C255.975 56.4375 258.038 54.4375 259.038 52.5625C260.413 50.3125 261.1 47.5 261.1 44.125C261.1 40.625 260.35 37.875 258.85 35.875C257.35 33.875 255.475 32.5 253.225 31.75C250.85 31 248.413 30.9375 245.913 31.5625C242.038 32.6875 239.1 34.9375 237.1 38.3125C235.475 41.0625 234.788 43.875 235.038 46.75C235.163 48 235.475 49.0625 235.975 49.9375C236.725 51.1875 237.6 51.625 238.6 51.25C239.475 51 240.725 50.1875 242.35 48.8125C243.6 47.8125 244.538 47 245.163 46.375C247.413 44.25 249.85 41.5625 252.475 38.3125L257.913 43.1875C254.913 47.1875 252.35 50.25 250.225 52.375C247.1 55.5 243.913 57.875 240.663 59.5C238.663 60.5 236.725 60.8125 234.85 60.4375C232.725 60.0625 231.1 58.9375 229.975 57.0625C228.6 54.9375 227.85 52 227.725 48.25C227.6 45 227.975 42 228.85 39.25C230.225 34.75 232.663 31.1875 236.163 28.5625C240.163 25.5625 244.538 24.0625 249.288 24.0625C255.288 24.0625 260.163 26.1875 263.913 30.4375C266.038 32.8125 267.475 35.75 268.225 39.25C268.975 42.75 269.038 46.125 268.413 49.375C267.913 51.875 267.1 54.25 265.975 56.5C264.85 58.75 262.788 61.3125 259.788 64.1875L252.85 58.5625ZM280.375 48.8125L274.188 43.375L278.688 37.5625C280.438 39.0625 282.125 40.625 283.75 42.25L288.062 34.1875L273.625 35.875L273.812 28.75L281.125 28.5625L281.5 21.4375L289 21.25L288.438 28.375L295.562 28.1875L295.938 30.25L307 29.875L306.625 21.25H314.312L314.5 21.625L314.688 29.875L319.562 29.6875V35.5L314.875 35.6875L315.062 44.125L315.25 58C315.25 59.875 315.188 61.25 315.062 62.125C314.938 63.5 314.438 64.5625 313.562 65.3125C312.812 65.9375 311.562 66.375 309.812 66.625C308.812 66.75 306.25 66.8125 302.125 66.8125L301.938 66.625L299.125 58.75H307.188V36.4375L295.188 37.75L295.75 34H291.438L294.625 35.6875V35.875L290.688 43.9375L289 47.125L295.75 53.5L291.25 59.125L286 54.0625L280.562 66.625L273.625 62.6875L280.375 48.8125ZM297.25 49.1875C296 48.3125 295.312 47.1875 295.188 45.8125C294.938 44.0625 295.375 42.5625 296.5 41.3125C297.625 40.0625 299.062 39.5625 300.812 39.8125C303.688 40.1875 305.312 41.6875 305.688 44.3125C305.938 45.5625 305.688 46.75 304.938 47.875C304.188 49 303.188 49.75 301.938 50.125C300.312 50.5 298.75 50.1875 297.25 49.1875ZM326.462 49.5625L331.712 52L337.712 33.4375H334.9L329.462 49L324.025 44.875L332.462 20.5L338.65 21.625L336.962 27.0625C338.337 26.8125 339.587 26.6875 340.712 26.6875C342.087 26.6875 343.275 26.9375 344.275 27.4375C345.775 28.3125 346.275 29.6875 345.775 31.5625L338.837 54.625C342.962 56 346.15 56.9375 348.4 57.4375C352.9 58.5625 360.087 59.4375 369.962 60.0625L368.837 67C362.462 66.75 356.9 66.3125 352.15 65.6875C348.4 65.1875 343.15 63.8125 336.4 61.5625L334.525 66.4375L327.025 65.125L329.462 58.75L323.837 56.125L326.462 49.5625ZM348.775 23.6875C352.775 23.4375 356.462 23.25 359.837 23.125C361.587 23.125 362.837 23.5 363.587 24.25C364.337 25.125 364.65 26.75 364.525 29.125L363.775 49.1875H364.712L364.9 49L365.275 45.4375L369.775 46.75L369.962 46.9375C370.212 48.8125 370.275 50.4375 370.15 51.8125C370.025 53.4375 369.65 54.5625 369.025 55.1875C368.275 55.9375 366.9 56.3125 364.9 56.3125C363.525 56.3125 362.087 56.125 360.587 55.75C358.962 55.375 357.962 54.75 357.587 53.875C357.212 53 357.087 50.6875 357.212 46.9375L357.962 29.5L354.962 29.6875L352.9 55.375V55.5625L345.775 54.625L348.775 23.6875ZM378.737 45.0625L385.862 47.125L381.737 65.875L374.237 63.25L378.737 45.0625ZM377.05 41.875C375.55 40.875 374.675 39.5 374.425 37.75C374.3 36.5 374.55 35.4375 375.175 34.5625C376.05 33.4375 377.175 32.8125 378.55 32.6875C379.8 32.5625 381.05 32.9375 382.3 33.8125C383.3 34.4375 383.987 35.375 384.362 36.625C384.737 37.75 384.737 38.8125 384.362 39.8125C383.862 41.1875 382.987 42.0625 381.737 42.4375C380.112 43.0625 378.55 42.875 377.05 41.875ZM380.612 30.4375C378.612 29.6875 377.487 28.3125 377.237 26.3125C376.862 24.1875 377.425 22.625 378.925 21.625C380.3 20.625 381.925 20.375 383.8 20.875C386.05 21.5 387.362 22.75 387.737 24.625C388.112 26.5 387.612 28.0625 386.237 29.3125C384.487 30.8125 382.612 31.1875 380.612 30.4375ZM399.175 40.5625L399.362 35.6875L389.237 36.4375L389.8 29.6875L399.737 29.125L400.487 21.0625L409.3 21.25L408.737 29.125H418.3L418.487 34.9375L408.55 35.125L408.362 40.375H420.55L420.362 46L403.862 46.5625L398.612 57.0625L407.8 55.75L405.175 48.625L412.487 46.375L419.8 64.375L411.362 66.0625L410.05 62.5L395.05 65.6875C393.425 66.0625 392.05 66.1875 390.925 66.0625C389.3 65.9375 388.175 65.3125 387.55 64.1875C387.175 63.3125 387.112 62.3125 387.362 61.1875C387.737 59.9375 388.612 58 389.987 55.375L394.3 47.5L386.237 48.0625L386.987 40.9375L399.175 40.5625Z" fill="#F59494"/>
</svg>
