<svg width="288" height="70" viewBox="0 0 288 70" fill="none" xmlns="http://www.w3.org/2000/svg">
<rect width="288" height="70" rx="35" fill="#E06363"/>
<path d="M46.25 23.375L47.0312 17.2812L67.9688 15.875C69.4271 15.7708 70.8854 16.2396 72.3438 17.2812C73.2812 18.0104 73.9583 18.7917 74.375 19.625C75.1042 21.0833 75.4688 23.1667 75.4688 25.875L75.625 44.4688C75.625 46.9688 75.4688 48.7917 75.1562 49.9375C74.7396 51.2917 74.1146 52.2292 73.2812 52.75C72.3438 53.375 70.8333 53.6875 68.75 53.6875C67.5 53.6875 65.8854 53.5833 63.9062 53.375L61.7188 46.8125L67.9688 46.6562V41.8125L54.8438 42.75L52.0312 43.0625L51.5625 53.375L43.5938 52.75L46.25 23.375ZM67.9688 36.1875V32.9062L52.6562 33.6875L52.3438 36.9688L67.9688 36.1875ZM67.8125 27.2812L67.6562 22.4375L53.5938 23.5312L53.2812 27.5938L67.8125 27.2812ZM84.5 39.4688H88.5625L87.4688 50.25L82.7812 50.0938L84.5 39.4688ZM87.7812 19.4688C89.1354 18.2188 90.4896 17.0208 91.8438 15.875L95.2812 19L95.5938 19.4688L90.9062 24L92 25.0938L96.375 21.0312L99.6562 24.3125L102.781 21.5L107.469 24.3125L111.219 20.7188L99.1875 21.3438L99.5 16.3438L112.312 16.0312C114.188 15.9271 115.542 16.0312 116.375 16.3438C117.521 16.7604 118.198 17.4375 118.406 18.375C118.719 19.7292 118.198 21.2917 116.844 23.0625C116.115 24 114.656 25.5104 112.469 27.5938L121.219 33.5312L118.25 38.2188L108.25 31.5C106.375 33.4792 104.448 35.4062 102.469 37.2812L99.0312 34.1562L99.6562 38.2188L95.125 38.8438L94.9688 37.2812H94.3438L94.1875 42.2812C95.9583 40.8229 97.625 40.9792 99.1875 42.75V39.7812L106.062 39.3125V34.7812H111.844L112 34.9375V39.3125L118.875 39.625L118.562 44L111.844 43.8438L112 48.2188H120.594L120.75 52.4375L107.312 52.9062L97 53.5312L96.5312 48.8438L106.062 48.375V44L99.5 44.4688C98.875 45.7188 98.1979 46.5521 97.4688 46.9688C96.5312 47.4896 95.4375 47.2812 94.1875 46.3438L94.0312 53.6875L88.5625 53.8438L89.1875 38.0625C87.8333 38.1667 86.8438 38.2188 86.2188 38.2188C85.2812 38.2188 84.4479 37.8021 83.7188 36.9688C83.0938 36.1354 82.9896 35.25 83.4062 34.3125C83.8229 33.375 84.4479 32.4896 85.2812 31.6562C86.0104 30.9271 86.7917 30.1979 87.625 29.4688C86.2708 27.6979 85.4375 26.6042 85.125 26.1875C84.7083 25.4583 84.5521 24.7292 84.6562 24C84.8646 22.75 85.9062 21.2396 87.7812 19.4688ZM94.1875 33.5312L93.7188 30.7188L98.0938 30.25L98.5625 32.9062H98.7188L103.25 28.375L98.7188 25.7188L90.2812 34L94.1875 33.5312ZM127.594 17.4375L149 16.0312C150.979 15.9271 152.698 15.9271 154.156 16.0312C156.448 16.2396 158.115 17.0208 159.156 18.375C160.615 20.1458 161.344 23.1667 161.344 27.4375L161.5 51.1875C154.104 51.0833 148.479 51.1354 144.625 51.3438C140.042 51.5521 133.896 52.125 126.188 53.0625L127.594 17.4375ZM155.25 46.1875L154.625 24.9375L154.469 21.1875L133.531 22.4375L132.594 46.5L155.25 46.1875ZM137.75 33.5312L134 33.8438L134.156 28.0625L140.719 27.5938L141.031 22.4375L147.125 22.2812L146.812 27.4375L154.312 27.125V32.125L148.688 32.2812L154.312 38.5312L150.719 43.6875L146.5 38.5312V45.25L140.25 45.5625L140.406 38.8438L136.969 43.6875L133.375 39L137.75 33.5312ZM171.156 43.0625L171.312 42.4375L168.188 42.75V37.5938H172.719L172.875 36.6562L167.094 37.125C167.406 33.375 167.875 29.7292 168.5 26.1875H172.25L180.062 25.875C180.688 25.875 181.26 25.9792 181.781 26.1875C182.198 26.3958 182.615 26.6042 183.031 26.8125L188.812 15.7188L193.969 17.75L191.938 22.125H194.906L196 15.5625L201.781 16.5L200.219 22.125H205.062V25.875L199.75 26.0312L199.594 30.4062L203.656 30.25V34.3125L199.594 34.625L199.438 38.375L203.5 38.2188L203.656 42.2812L199.438 42.4375V47.2812L205.219 46.9688L205.375 51.6562L191.156 52.9062L183.812 53.5312L184.906 29L183.969 28.5312L184.125 36.3438H178.656L178.5 37.5938H183.031V41.5L177.562 41.8125L177.25 42.75L183.5 42.4375V46.1875L178.812 46.0312L183.5 49.3125L179.75 53.8438L177.094 51.0312L174.75 49.1562L172.719 53.5312L167.094 51.8125V51.5L169.75 46.9688L166.781 47.5938L166.938 43.2188L171.156 43.0625ZM167.094 18.8438L170.062 18.6875L170.219 15.7188H175.688L175.375 18.5312L178.188 18.375L178.344 15.7188L183.344 15.5625L183.188 18.0625H185.531L185.062 22.125H183.031V24.9375H177.562L177.875 22.125H175.531V25.0938L169.75 25.4062V22.9062L166.625 23.2188L167.094 18.8438ZM173.344 33.2188L173.812 30.0938L172.406 30.25L172.094 33.2188H173.344ZM179.438 32.9062L179.594 29.7812H178.812L178.5 33.0625L179.438 32.9062ZM193.812 47.5938L193.969 43.2188L190.375 43.6875L190.219 47.75L193.812 47.5938ZM194.125 38.5312L194.281 35.0938L190.688 35.5625L190.531 38.6875L194.125 38.5312ZM194.281 30.5625L194.594 26.5L191.156 26.8125L190.844 30.7188L194.281 30.5625ZM211.594 35.7188L212.062 32.4375L208.938 30.5625L210.656 24.1562L212.688 25.25L213.469 20.0938L227.219 19.625L227.375 15.4062L234.25 15.7188L233.938 19.625L246.906 19.7812L247.062 24.625L235.656 24.4688L218.625 25.5625L217.219 46.6562V53.6875L210.188 53.0625L210.812 42.4375L209.094 43.375L208.781 36.9688L211.594 35.7188ZM218.469 47.2812H221.125L221.594 34.625H227.844L227.375 47.2812H229.562L230.031 31.5L220.344 32.4375V26.9688L238.938 26.6562H245.188L245.031 31.1875L236.906 31.0312L236.594 36.0312L244.875 35.875L244.719 40.7188L236.438 41.3438V47.125L247.219 46.9688L247.062 51.8125L231.281 52.125L218.469 52.9062V47.2812Z" fill="white"/>
</svg>
