<svg width="315" height="137" viewBox="0 0 315 137" fill="none" xmlns="http://www.w3.org/2000/svg">
<path d="M6.01562 6.28125L7.32812 1.6875L11.375 2.125L10.2812 6.0625L14.3281 5.84375C15.4948 5.77083 16.4792 6.09896 17.2812 6.82812C18.1562 7.63021 18.5938 8.94271 18.5938 10.7656L18.7031 19.625C18.776 24 17.2083 26.1875 14 26.1875H9.29688L8.64062 21.9219L14.1094 21.8125L13.7812 9.78125L9.29688 10.1094L5.35938 26.1875L0.765625 24.7656L4.70312 10.7656L0.65625 11.3125V6.9375L6.01562 6.28125ZM23.7344 6.0625C24.2448 8.32292 24.6094 10.1094 24.8281 11.4219C25.0469 12.8802 25.3021 15.2865 25.5938 18.6406L21.1094 19.1875C20.8906 16.6354 20.6719 14.4479 20.4531 12.625C20.3073 11.3125 19.9792 9.34375 19.4688 6.71875L23.7344 6.0625ZM35.105 7.70312L34.0112 11.75C36.4904 11.0208 38.5321 10.5833 40.1362 10.4375C44.3654 10 47.3915 10.474 49.2144 11.8594C51.329 13.4635 52.1675 15.6146 51.73 18.3125C51.5112 19.6979 50.855 21.0469 49.7612 22.3594C48.9592 23.3802 47.355 24.6562 44.9487 26.1875L42.2144 22.4688C43.5998 21.6667 44.5477 21.0469 45.0581 20.6094C45.9331 19.8802 46.48 19.1146 46.6987 18.3125C46.9175 17.5833 46.8081 16.8542 46.3706 16.125C46.006 15.5417 45.4592 15.0677 44.73 14.7031C43.3446 14.1198 41.3394 14.2292 38.7144 15.0312C36.9644 15.5417 35.5425 16.0885 34.4487 16.6719L30.8394 18.5312C29.8185 19.0417 29.0165 19.0052 28.4331 18.4219C28.0685 18.0573 27.9227 17.401 27.9956 16.4531C28.0685 14.9948 28.2873 13.6094 28.6519 12.2969C29.2352 10.3281 29.7821 8.54167 30.2925 6.9375L35.105 7.70312ZM32.48 1.35938C38.3862 2.23438 43.4175 3.29167 47.5737 4.53125L46.2612 8.35938C42.98 7.48438 40.5008 6.90104 38.8237 6.60938C36.7821 6.24479 34.3029 5.88021 31.3862 5.51562L32.48 1.35938ZM54.3506 5.51562L58.3975 5.29688L59.1631 1.79688L63.5381 2.23438L62.8819 5.1875H73.71L74.0381 8.6875L61.8975 9.23438C61.3142 12.0781 60.8402 14.7031 60.4756 17.1094C60.111 19.5885 59.71 22.5417 59.2725 25.9688L54.46 24.9844L57.4131 9.67188L54.2412 10L54.3506 5.51562ZM64.96 17.4375C65.1787 18.4583 65.434 19.2604 65.7256 19.8438C66.236 20.7188 66.9287 21.2656 67.8037 21.4844C69.1892 21.849 70.611 21.7396 72.0694 21.1562C73.3819 20.6458 74.7308 19.625 76.1162 18.0938L78.6319 21.9219C76.2985 23.8906 74.4027 25.0938 72.9444 25.5312C70.1006 26.4062 67.5121 26.4427 65.1787 25.6406C63.5017 25.0573 62.335 23.9271 61.6787 22.25C61.3871 21.4479 61.1319 20.1354 60.9131 18.3125L64.96 17.4375ZM70.21 10.5469C71.5954 10.474 73.8923 10.474 77.1006 10.5469V14.1562C74.986 14.1562 73.3454 14.1927 72.1787 14.2656C70.4287 14.3385 67.6215 14.7031 63.7569 15.3594L63.4287 10.9844C66.1267 10.7656 68.3871 10.6198 70.21 10.5469ZM75.3506 1.35938L76.6631 6.17188L74.3662 6.71875L73.0537 1.79688L75.3506 1.35938ZM78.085 0.8125L79.6162 5.51562L77.21 5.95312L75.8975 1.25L78.085 0.8125ZM96.1275 22.5781C97.9504 21.3385 99.1535 20.1719 99.7369 19.0781C100.539 17.7656 100.94 16.125 100.94 14.1562C100.94 12.1146 100.503 10.5104 99.6275 9.34375C98.7525 8.17708 97.6588 7.375 96.3463 6.9375C94.9608 6.5 93.539 6.46354 92.0806 6.82812C89.8202 7.48438 88.1067 8.79688 86.94 10.7656C85.9921 12.3698 85.591 14.0104 85.7369 15.6875C85.8098 16.4167 85.9921 17.0365 86.2838 17.5469C86.7213 18.276 87.2317 18.5312 87.815 18.3125C88.3254 18.1667 89.0546 17.6927 90.0025 16.8906C90.7317 16.3073 91.2785 15.8333 91.6431 15.4688C92.9556 14.2292 94.3775 12.6615 95.9088 10.7656L99.0806 13.6094C97.3306 15.9427 95.8358 17.7292 94.5963 18.9688C92.7733 20.7917 90.914 22.1771 89.0181 23.125C87.8515 23.7083 86.7213 23.8906 85.6275 23.6719C84.3879 23.4531 83.44 22.7969 82.7838 21.7031C81.9817 20.4635 81.5442 18.75 81.4713 16.5625C81.3983 14.6667 81.6171 12.9167 82.1275 11.3125C82.9296 8.6875 84.3515 6.60938 86.3931 5.07812C88.7265 3.32812 91.2785 2.45312 94.0494 2.45312C97.5494 2.45312 100.393 3.69271 102.581 6.17188C103.82 7.55729 104.659 9.27083 105.096 11.3125C105.534 13.3542 105.57 15.3229 105.206 17.2188C104.914 18.6771 104.44 20.0625 103.784 21.375C103.128 22.6875 101.924 24.1823 100.174 25.8594L96.1275 22.5781ZM107.498 20.9375L115.373 13.9375L119.092 15.3594L126.967 15.0312C127.988 14.9583 128.863 15.1771 129.592 15.6875C129.884 15.9062 130.066 16.2344 130.139 16.6719C130.212 17.1823 130.066 17.5833 129.701 17.875L125.654 21.375L133.201 23.7812L131.232 27.3906L122.154 24.3281L118.326 27.5L113.295 25.8594L117.123 22.7969L114.607 22.1406L117.779 19.0781L120.732 19.9531L123.029 17.9844L116.576 18.5312L110.998 23.4531H110.889L107.498 20.9375ZM110.998 3.10938L118.436 3L118.545 0.8125H123.576L123.467 3L134.404 2.89062L134.514 5.73438L126.967 5.84375L127.186 12.0781C127.259 13.2448 126.785 13.974 125.764 14.2656C125.035 14.4844 123.904 14.5208 122.373 14.375L120.623 10.3281H122.701L122.373 6.0625H119.967L119.42 13.8281L119.311 14.0469C118.436 14.0469 117.706 14.0469 117.123 14.0469C116.686 14.0469 115.884 13.9375 114.717 13.7188L115.154 7.15625V6.60938L110.014 7.04688L107.826 7.375L107.607 3.32812L110.998 3.10938ZM110.342 13.8281C109.175 13.3906 108.482 12.6615 108.264 11.6406C108.045 10.7656 108.227 9.92708 108.811 9.125C109.175 8.61458 109.686 8.25 110.342 8.03125C110.998 7.8125 111.691 7.77604 112.42 7.92188C113.222 8.06771 113.805 8.43229 114.17 9.01562C114.68 9.74479 114.79 10.6198 114.498 11.6406C114.279 12.5156 113.769 13.1719 112.967 13.6094C112.092 14.0469 111.217 14.1198 110.342 13.8281ZM127.514 9.89062C127.587 9.01562 128.097 8.17708 129.045 7.375C130.576 6.9375 131.743 6.97396 132.545 7.48438C133.274 7.99479 133.675 8.65104 133.748 9.45312C133.821 10.401 133.602 11.276 133.092 12.0781C132.581 12.7344 131.925 13.1354 131.123 13.2812C130.321 13.4271 129.628 13.2812 129.045 12.8438C127.878 12.1146 127.368 11.1302 127.514 9.89062ZM143.697 0.375L147.853 2.01562L145.775 5.51562L145.228 26.9531L145.009 27.1719L140.744 27.2812L141.181 14.0469L139.869 16.8906L136.916 13.2812L143.697 0.375ZM153.65 0.703125L153.322 8.46875L160.978 5.1875L163.384 8.79688L153.322 13.8281L153.431 22.0312L159.119 22.1406L159.228 18.0938L163.494 18.9688C163.567 20.7917 163.603 21.9948 163.603 22.5781C163.53 23.599 163.311 24.5104 162.947 25.3125C162.364 26.4792 161.27 27.0625 159.666 27.0625H151.462C150.806 27.0625 150.15 26.7708 149.494 26.1875C149.056 25.8229 148.801 25.4948 148.728 25.2031C148.582 24.7656 148.509 23.8906 148.509 22.5781L148.728 0.703125H153.65ZM180.552 22.5781C182.375 21.3385 183.578 20.1719 184.161 19.0781C184.963 17.7656 185.364 16.125 185.364 14.1562C185.364 12.1146 184.927 10.5104 184.052 9.34375C183.177 8.17708 182.083 7.375 180.771 6.9375C179.385 6.5 177.963 6.46354 176.505 6.82812C174.245 7.48438 172.531 8.79688 171.364 10.7656C170.416 12.3698 170.015 14.0104 170.161 15.6875C170.234 16.4167 170.416 17.0365 170.708 17.5469C171.146 18.276 171.656 18.5312 172.239 18.3125C172.75 18.1667 173.479 17.6927 174.427 16.8906C175.156 16.3073 175.703 15.8333 176.068 15.4688C177.38 14.2292 178.802 12.6615 180.333 10.7656L183.505 13.6094C181.755 15.9427 180.26 17.7292 179.021 18.9688C177.198 20.7917 175.338 22.1771 173.443 23.125C172.276 23.7083 171.146 23.8906 170.052 23.6719C168.812 23.4531 167.864 22.7969 167.208 21.7031C166.406 20.4635 165.969 18.75 165.896 16.5625C165.823 14.6667 166.041 12.9167 166.552 11.3125C167.354 8.6875 168.776 6.60938 170.818 5.07812C173.151 3.32812 175.703 2.45312 178.474 2.45312C181.974 2.45312 184.818 3.69271 187.005 6.17188C188.245 7.55729 189.083 9.27083 189.521 11.3125C189.958 13.3542 189.995 15.3229 189.63 17.2188C189.338 18.6771 188.864 20.0625 188.208 21.375C187.552 22.6875 186.349 24.1823 184.599 25.8594L180.552 22.5781ZM192.36 3.32812L198.704 2.45312C199.579 2.30729 200.235 2.23438 200.673 2.23438C201.402 2.23438 201.985 2.38021 202.423 2.67188C202.933 3.03646 203.152 3.69271 203.079 4.64062C203.006 5.22396 202.824 5.77083 202.532 6.28125L200.563 9.5625C199.834 10.8021 199.287 12.224 198.923 13.8281C198.485 15.7969 198.449 17.3646 198.813 18.5312C199.396 20.6458 200.855 21.5938 203.188 21.375C205.376 21.1562 206.834 19.8073 207.563 17.3281C208.001 15.8698 208.146 14.1562 208.001 12.1875C207.928 11.3125 207.745 10.3281 207.454 9.23438C207.162 8.14062 206.761 7.01042 206.251 5.84375L210.188 4.53125L216.641 13.2812L213.251 16.0156L212.048 13.9375C211.975 16.9271 211.574 19.224 210.844 20.8281C210.042 22.5052 208.803 23.7812 207.126 24.6562C205.084 25.75 203.042 26.1875 201.001 25.9688C199.032 25.75 197.464 25.0573 196.298 23.8906C195.058 22.651 194.292 21.0469 194.001 19.0781C193.709 16.8177 193.891 14.6667 194.548 12.625C195.058 11.0938 196.006 9.30729 197.391 7.26562L192.36 8.57812V3.32812ZM227.574 6.28125L219.809 8.03125L219.481 2.78125L227.027 1.90625C228.632 1.76042 229.944 2.05208 230.965 2.78125C232.059 3.58333 232.569 4.75 232.496 6.28125L232.168 11.3125L236.106 11.75L236.871 4.09375L241.246 4.85938L240.371 12.9531L243.652 13.9375L242.668 18.2031L239.715 17L237.965 26.0781L233.262 25.2031L235.449 15.7969L231.731 15.25C231.22 17.875 230.673 19.8073 230.09 21.0469C229.069 23.3073 227.611 24.7292 225.715 25.3125C223.746 25.8958 222.033 25.4948 220.574 24.1094C219.481 23.0156 218.897 21.5208 218.824 19.625C218.824 17.8021 219.262 16.1615 220.137 14.7031C221.085 13.3177 222.215 12.3333 223.527 11.75C224.548 11.3125 225.824 11.0938 227.356 11.0938L227.574 6.28125ZM226.262 18.4219C226.481 17.7656 226.699 16.7083 226.918 15.25C225.46 15.25 224.402 15.6875 223.746 16.5625C222.944 17.5833 222.652 18.6406 222.871 19.7344C223.09 20.8281 223.673 21.1927 224.621 20.8281C225.35 20.5365 225.897 19.7344 226.262 18.4219ZM265.633 20.9375C263.81 22.25 261.185 23.7812 257.758 25.5312L255.133 20.9375C257.758 19.8438 259.544 19.0052 260.492 18.4219C262.825 17.1094 264.247 15.6875 264.758 14.1562C265.122 13.1354 265.159 12.151 264.867 11.2031C264.575 10.1823 263.955 9.45312 263.008 9.01562C262.06 8.57812 260.784 8.46875 259.179 8.6875C257.429 8.90625 255.57 9.45312 253.601 10.3281C252.508 10.8385 250.867 11.6771 248.679 12.8438L245.836 8.46875C248.825 6.9375 251.195 5.88021 252.945 5.29688C255.57 4.42188 257.83 3.94792 259.726 3.875C262.278 3.80208 264.393 4.34896 266.07 5.51562C267.601 6.60938 268.695 8.03125 269.351 9.78125C270.08 11.75 270.226 13.6094 269.789 15.3594C269.278 17.401 267.893 19.2604 265.633 20.9375ZM278.316 2.01562C277.586 8.57812 277.185 13.5 277.112 16.7812C277.04 19.2604 277.04 22.3594 277.112 26.0781L272.519 25.5312C272.592 20.6458 272.701 16.8177 272.847 14.0469C272.993 11.4948 273.43 7.375 274.159 1.6875L278.316 2.01562ZM278.644 7.15625L287.503 6.71875L286.628 2.01562L291.222 1.6875L292.097 6.71875L296.8 6.82812V10.4375H292.425L292.644 13.9375L296.691 14.375L296.8 18.8594L292.862 18.3125C292.79 21.1562 292.206 23.1615 291.112 24.3281C289.8 25.7865 287.795 26.3698 285.097 26.0781C281.889 25.7865 279.993 24.3646 279.409 21.8125C278.899 19.4792 279.409 17.4375 280.941 15.6875C281.961 14.5938 283.128 13.901 284.441 13.6094C285.534 13.3906 286.847 13.3542 288.378 13.5L288.159 10.7656L278.534 11.6406L278.644 7.15625ZM287.941 20.8281C288.378 20.2448 288.56 19.224 288.487 17.7656C287.248 17.6198 286.336 17.6198 285.753 17.7656C284.586 17.9844 283.857 18.5677 283.566 19.5156C283.274 20.3177 283.383 20.974 283.894 21.4844C284.331 21.9219 284.951 22.1042 285.753 22.0312C286.701 21.8854 287.43 21.4844 287.941 20.8281Z" fill="#407EA6"/>
<path d="M15.1875 94.043L28.1602 99.1055C24.3633 107.121 22.043 112.395 21.1992 114.926C19.0898 120.41 17.2969 125.473 15.8203 130.113L1.89844 124.418L15.1875 94.043ZM31.957 77.9062L33.2227 61.1367L46.8281 61.7695L45.8789 77.9062H74.0391V89.9297L45.2461 89.6133V132.645L30.375 132.328L31.6406 89.9297L3.48047 92.4609V78.5391L31.957 77.9062ZM60.75 94.3594L74.0391 124.734L60.1172 129.48L47.7773 98.1562L60.75 94.3594ZM88.8848 97.5234C90.7833 87.8203 92.6817 78.4336 94.5802 69.3633L110.084 71.8945C107.131 83.918 104.916 93.7266 103.44 101.32C102.174 108.281 100.803 118.406 99.3262 131.695L83.8223 128.531C85.9317 114.609 87.6192 104.273 88.8848 97.5234ZM133.182 62.7188C131.283 80.4375 130.65 98.1562 131.283 115.875L149.318 104.484L155.33 117.773L142.357 126C133.287 131.695 126.221 133.383 121.158 131.062C117.15 129.164 115.147 125.051 115.147 118.723C115.147 113.871 116.307 95.0977 118.627 62.4023L133.182 62.7188ZM181.25 87.7148L182.199 78.5391L168.277 80.4375V64.3008C181.356 63.668 191.164 63.3516 197.703 63.3516C209.094 63.5625 220.063 63.8789 230.61 64.3008L230.293 76.0078L197.387 76.6406L195.805 87.082L235.039 88.3477L234.723 99.7383L194.856 100.371L194.223 117.141C201.395 117.562 213.524 116.824 230.61 114.926L232.824 128.531L219.535 129.797C210.254 130.641 201.817 130.957 194.223 130.746C188.738 130.535 185.047 129.691 183.149 128.215C180.617 126.105 179.457 123.047 179.668 119.039L180.301 101.953L164.481 103.852V88.9805L181.25 87.7148ZM252.733 60.8203L279.311 74.7422L270.451 88.3477L244.19 72.5273L252.733 60.8203ZM306.205 85.5L313.166 98.1562L257.479 133.91L247.67 120.621L306.205 85.5Z" fill="#E06363"/>
</svg>
