<svg width="279" height="47" viewBox="0 0 279 47" fill="none" xmlns="http://www.w3.org/2000/svg">
<path d="M9.3125 10.625L11.5625 2.75L18.5 3.5L16.625 10.25L23.5625 9.875C25.5625 9.75 27.25 10.3125 28.625 11.5625C30.125 12.9375 30.875 15.1875 30.875 18.3125L31.0625 33.5C31.1875 41 28.5 44.75 23 44.75H14.9375L13.8125 37.4375L23.1875 37.25L22.625 16.625L14.9375 17.1875L8.1875 44.75L0.3125 42.3125L7.0625 18.3125L0.125 19.25V11.75L9.3125 10.625ZM39.6875 10.25C40.5625 14.125 41.1875 17.1875 41.5625 19.4375C41.9375 21.9375 42.375 26.0625 42.875 31.8125L35.1875 32.75C34.8125 28.375 34.4375 24.625 34.0625 21.5C33.8125 19.25 33.25 15.875 32.375 11.375L39.6875 10.25ZM58.94 13.0625L57.065 20C61.315 18.75 64.815 18 67.565 17.75C74.815 17 80.0025 17.8125 83.1275 20.1875C86.7525 22.9375 88.19 26.625 87.44 31.25C87.065 33.625 85.94 35.9375 84.065 38.1875C82.69 39.9375 79.94 42.125 75.815 44.75L71.1275 38.375C73.5025 37 75.1275 35.9375 76.0025 35.1875C77.5025 33.9375 78.44 32.625 78.815 31.25C79.19 30 79.0025 28.75 78.2525 27.5C77.6275 26.5 76.69 25.6875 75.44 25.0625C73.065 24.0625 69.6275 24.25 65.1275 25.625C62.1275 26.5 59.69 27.4375 57.815 28.4375L51.6275 31.625C49.8775 32.5 48.5025 32.4375 47.5025 31.4375C46.8775 30.8125 46.6275 29.6875 46.7525 28.0625C46.8775 25.5625 47.2525 23.1875 47.8775 20.9375C48.8775 17.5625 49.815 14.5 50.69 11.75L58.94 13.0625ZM54.44 2.1875C64.565 3.6875 73.19 5.5 80.315 7.625L78.065 14.1875C72.44 12.6875 68.19 11.6875 65.315 11.1875C61.815 10.5625 57.565 9.9375 52.565 9.3125L54.44 2.1875ZM91.6925 9.3125L98.63 8.9375L99.9425 2.9375L107.442 3.6875L106.317 8.75H124.88L125.442 14.75L104.63 15.6875C103.63 20.5625 102.817 25.0625 102.192 29.1875C101.567 33.4375 100.88 38.5 100.13 44.375L91.88 42.6875L96.9425 16.4375L91.505 17L91.6925 9.3125ZM109.88 29.75C110.255 31.5 110.692 32.875 111.192 33.875C112.067 35.375 113.255 36.3125 114.755 36.6875C117.13 37.3125 119.567 37.125 122.067 36.125C124.317 35.25 126.63 33.5 129.005 30.875L133.317 37.4375C129.317 40.8125 126.067 42.875 123.567 43.625C118.692 45.125 114.255 45.1875 110.255 43.8125C107.38 42.8125 105.38 40.875 104.255 38C103.755 36.625 103.317 34.375 102.942 31.25L109.88 29.75ZM118.88 17.9375C121.255 17.8125 125.192 17.8125 130.692 17.9375V24.125C127.067 24.125 124.255 24.1875 122.255 24.3125C119.255 24.4375 114.442 25.0625 107.817 26.1875L107.255 18.6875C111.88 18.3125 115.755 18.0625 118.88 17.9375ZM127.692 2.1875L129.942 10.4375L126.005 11.375L123.755 2.9375L127.692 2.1875ZM132.38 1.25L135.005 9.3125L130.88 10.0625L128.63 2L132.38 1.25ZM163.07 38.5625C166.195 36.4375 168.258 34.4375 169.258 32.5625C170.633 30.3125 171.32 27.5 171.32 24.125C171.32 20.625 170.57 17.875 169.07 15.875C167.57 13.875 165.695 12.5 163.445 11.75C161.07 11 158.633 10.9375 156.133 11.5625C152.258 12.6875 149.32 14.9375 147.32 18.3125C145.695 21.0625 145.008 23.875 145.258 26.75C145.383 28 145.695 29.0625 146.195 29.9375C146.945 31.1875 147.82 31.625 148.82 31.25C149.695 31 150.945 30.1875 152.57 28.8125C153.82 27.8125 154.758 27 155.383 26.375C157.633 24.25 160.07 21.5625 162.695 18.3125L168.133 23.1875C165.133 27.1875 162.57 30.25 160.445 32.375C157.32 35.5 154.133 37.875 150.883 39.5C148.883 40.5 146.945 40.8125 145.07 40.4375C142.945 40.0625 141.32 38.9375 140.195 37.0625C138.82 34.9375 138.07 32 137.945 28.25C137.82 25 138.195 22 139.07 19.25C140.445 14.75 142.883 11.1875 146.383 8.5625C150.383 5.5625 154.758 4.0625 159.508 4.0625C165.508 4.0625 170.383 6.1875 174.133 10.4375C176.258 12.8125 177.695 15.75 178.445 19.25C179.195 22.75 179.258 26.125 178.633 29.375C178.133 31.875 177.32 34.25 176.195 36.5C175.07 38.75 173.008 41.3125 170.008 44.1875L163.07 38.5625ZM182.322 35.75L195.822 23.75L202.197 26.1875L215.697 25.625C217.447 25.5 218.947 25.875 220.197 26.75C220.697 27.125 221.01 27.6875 221.135 28.4375C221.26 29.3125 221.01 30 220.385 30.5L213.447 36.5L226.385 40.625L223.01 46.8125L207.447 41.5625L200.885 47L192.26 44.1875L198.822 38.9375L194.51 37.8125L199.947 32.5625L205.01 34.0625L208.947 30.6875L197.885 31.625L188.322 40.0625H188.135L182.322 35.75ZM188.322 5.1875L201.072 5L201.26 1.25H209.885L209.697 5L228.447 4.8125L228.635 9.6875L215.697 9.875L216.072 20.5625C216.197 22.5625 215.385 23.8125 213.635 24.3125C212.385 24.6875 210.447 24.75 207.822 24.5L204.822 17.5625H208.385L207.822 10.25H203.697L202.76 23.5625L202.572 23.9375C201.072 23.9375 199.822 23.9375 198.822 23.9375C198.072 23.9375 196.697 23.75 194.697 23.375L195.447 12.125V11.1875L186.635 11.9375L182.885 12.5L182.51 5.5625L188.322 5.1875ZM187.197 23.5625C185.197 22.8125 184.01 21.5625 183.635 19.8125C183.26 18.3125 183.572 16.875 184.572 15.5C185.197 14.625 186.072 14 187.197 13.625C188.322 13.25 189.51 13.1875 190.76 13.4375C192.135 13.6875 193.135 14.3125 193.76 15.3125C194.635 16.5625 194.822 18.0625 194.322 19.8125C193.947 21.3125 193.072 22.4375 191.697 23.1875C190.197 23.9375 188.697 24.0625 187.197 23.5625ZM216.635 16.8125C216.76 15.3125 217.635 13.875 219.26 12.5C221.885 11.75 223.885 11.8125 225.26 12.6875C226.51 13.5625 227.197 14.6875 227.322 16.0625C227.447 17.6875 227.072 19.1875 226.197 20.5625C225.322 21.6875 224.197 22.375 222.822 22.625C221.447 22.875 220.26 22.625 219.26 21.875C217.26 20.625 216.385 18.9375 216.635 16.8125ZM244.137 0.5L251.262 3.3125L247.7 9.3125L246.762 46.0625L246.387 46.4375L239.075 46.625L239.825 23.9375L237.575 28.8125L232.512 22.625L244.137 0.5ZM261.2 1.0625L260.637 14.375L273.762 8.75L277.887 14.9375L260.637 23.5625L260.825 37.625L270.575 37.8125L270.762 30.875L278.075 32.375C278.2 35.5 278.262 37.5625 278.262 38.5625C278.137 40.3125 277.762 41.875 277.137 43.25C276.137 45.25 274.262 46.25 271.512 46.25H257.45C256.325 46.25 255.2 45.75 254.075 44.75C253.325 44.125 252.887 43.5625 252.762 43.0625C252.512 42.3125 252.387 40.8125 252.387 38.5625L252.762 1.0625H261.2Z" fill="#E06363"/>
</svg>
