<svg width="877" height="47" viewBox="0 0 877 47" fill="none" xmlns="http://www.w3.org/2000/svg">
<path d="M15.375 13.8125L4.125 15.5L4.6875 8.75L16.3125 7.4375L17.0625 2.75H23.8125L23.25 6.875L39.75 6.6875V12.5L22.6875 12.875L22.5 15.6875C27 15.4375 30.625 15.875 33.375 17C35.875 18 37.9375 19.375 39.5625 21.125C41.5625 23.25 42.8125 25.875 43.3125 29C43.6875 31.5 43.6875 33.875 43.3125 36.125C42.8125 39.25 42.125 41.9375 41.25 44.1875L33.1875 42.5C33.6875 41.75 34.1875 40.8125 34.6875 39.6875C35.1875 38.5625 35.5625 36.875 35.8125 34.625C36.0625 32.625 36.0625 30.5625 35.8125 28.4375C31.9375 33.0625 28.625 36.4375 25.875 38.5625C21.25 42.1875 16.5625 44.0625 11.8125 44.1875C6.5625 44.3125 3.3125 42.5625 2.0625 38.9375C0.6875 34.9375 1.25 30.75 3.75 26.375C5.375 23.625 7.25 21.5 9.375 20C10.75 19.125 12.6875 18.1875 15.1875 17.1875L15.375 13.8125ZM15.1875 37.25C14.8125 32.375 14.625 28.0625 14.625 24.3125C11.875 26.0625 10.0625 28 9.1875 30.125C7.8125 33.25 7.8125 35.5 9.1875 36.875C9.8125 37.5 10.75 37.8125 12 37.8125C12.75 37.8125 13.8125 37.625 15.1875 37.25ZM27 29C28.125 27.75 29.5 25.75 31.125 23C29.25 22.25 27.625 21.8125 26.25 21.6875C25 21.5625 23.6875 21.625 22.3125 21.875C22.3125 24.5 22.375 28.3125 22.5 33.3125C24.625 31.4375 26.125 30 27 29ZM54.69 9.5L57.315 2.9375L64.815 4.4375L62.94 9.125L69.5025 8.9375L69.1275 14.375L60.69 15.125L54.69 35L47.565 32.5625L52.2525 16.25L47.565 17.1875V10.25L54.69 9.5ZM73.065 15.3125L80.94 15.875L81.315 22.625L89.3775 25.4375L87.315 32.9375L81.5025 30.5C81.3775 33.875 80.8775 36.375 80.0025 38C78.7525 40.125 77.0025 41.875 74.7525 43.25C72.5025 44.5 70.19 45.125 67.815 45.125C63.44 45 60.3775 43.1875 58.6275 39.6875C56.8775 36.1875 56.815 32.875 58.44 29.75C59.815 27.125 62.065 25.1875 65.19 23.9375C67.19 23.1875 70.1275 22.5625 74.0025 22.0625L73.065 15.3125ZM72.69 35.9375C73.69 34.6875 74.2525 32.6875 74.3775 29.9375C72.1275 29.8125 70.44 29.875 69.315 30.125C67.565 30.5 66.315 31.375 65.565 32.75C65.065 33.625 65.0025 34.5625 65.3775 35.5625C65.8775 36.8125 66.69 37.5625 67.815 37.8125C69.69 38.3125 71.315 37.6875 72.69 35.9375ZM76.6275 2.9375L89.3775 10.625L85.44 15.875L72.1275 7.625L76.6275 2.9375ZM96.4425 28.0625L99.0675 15.875L93.8175 16.4375L93.4425 8.75H100.567L102.067 2.75L110.692 3.3125L109.38 8.5625L133.942 8.375L134.505 14.375L118.567 15.125L107.317 15.5C106.442 19.5 105.567 23.5625 104.692 27.6875C103.942 31.8125 103.005 37.3125 101.88 44.1875L93.255 42.875L96.4425 28.0625ZM123.442 36.5C125.692 36 128.255 34.1875 131.13 31.0625L135.442 38C132.067 40.875 129.317 42.6875 127.192 43.4375C123.317 44.9375 119.13 45.1875 114.63 44.1875C111.255 43.4375 108.63 41.5 106.755 38.375C105.755 36.625 105.13 34.0625 104.88 30.6875L112.005 29.375C112.63 32.5 113.692 34.5 115.192 35.375C117.567 36.875 120.317 37.25 123.442 36.5ZM120.63 17.5625C124.38 17.4375 128.567 17.5 133.192 17.75L133.38 24.125C127.88 23.75 124.192 23.625 122.317 23.75C119.567 23.875 115.442 24.375 109.942 25.25L109.755 18.3125C115.63 17.8125 119.255 17.5625 120.63 17.5625ZM164.445 38.5625C167.57 36.4375 169.633 34.4375 170.633 32.5625C172.008 30.3125 172.695 27.5 172.695 24.125C172.695 20.625 171.945 17.875 170.445 15.875C168.945 13.875 167.07 12.5 164.82 11.75C162.445 11 160.008 10.9375 157.508 11.5625C153.633 12.6875 150.695 14.9375 148.695 18.3125C147.07 21.0625 146.383 23.875 146.633 26.75C146.758 28 147.07 29.0625 147.57 29.9375C148.32 31.1875 149.195 31.625 150.195 31.25C151.07 31 152.32 30.1875 153.945 28.8125C155.195 27.8125 156.133 27 156.758 26.375C159.008 24.25 161.445 21.5625 164.07 18.3125L169.508 23.1875C166.508 27.1875 163.945 30.25 161.82 32.375C158.695 35.5 155.508 37.875 152.258 39.5C150.258 40.5 148.32 40.8125 146.445 40.4375C144.32 40.0625 142.695 38.9375 141.57 37.0625C140.195 34.9375 139.445 32 139.32 28.25C139.195 25 139.57 22 140.445 19.25C141.82 14.75 144.258 11.1875 147.758 8.5625C151.758 5.5625 156.133 4.0625 160.883 4.0625C166.883 4.0625 171.758 6.1875 175.508 10.4375C177.633 12.8125 179.07 15.75 179.82 19.25C180.57 22.75 180.633 26.125 180.008 29.375C179.508 31.875 178.695 34.25 177.57 36.5C176.445 38.75 174.383 41.3125 171.383 44.1875L164.445 38.5625ZM184.635 12.125L191.01 12.5L190.26 28.25L184.072 27.5L184.635 12.125ZM191.76 1.25L198.885 1.4375L198.51 10.4375L201.51 12.5L203.385 4.4375L209.572 6.125L208.822 10.625L212.01 10.8125L212.385 1.0625L219.885 1.25L219.697 10.625L228.697 10.8125V16.625L219.322 16.8125L219.135 24.875L227.01 24.6875L227.197 24.875V30.5L219.135 30.6875V39.3125H230.01L229.822 45.3125L219.51 45.5L209.76 46.0625L199.822 46.8125L200.01 39.875L211.447 39.3125L211.635 31.25L203.385 32.1875L203.572 25.4375L211.635 25.0625L211.822 17.1875L207.322 17.5625L205.822 24.5L199.822 22.625L199.447 22.4375L200.01 19.8125L198.322 18.3125L198.135 40.4375V46.8125H190.822L191.197 16.4375L191.76 1.25ZM241.387 25.4375L234.075 26.5625V20L249.825 18.6875L252.637 16.4375L235.762 18.3125L236.325 2.5625L237.262 2.375L247.387 0.875C249.387 0.625 251.075 1 252.45 2C254.2 3.375 255.012 5.875 254.887 9.5L254.7 15.6875L261.637 17L260.7 18.125L279.262 18.5V23.75H271.95L279.45 28.4375L276.262 32.1875C277.012 33.9375 277.45 35.375 277.575 36.5C277.7 37.75 277.512 40.5625 277.012 44.9375L258.262 44.75L258.825 28.4375H264.637L258.45 24.125L253.387 24.5L247.387 29.375C250.387 28.75 252.512 29 253.762 30.125C255.137 31.25 255.762 32.75 255.637 34.625L255.262 44.75L236.325 46.8125L236.512 34.625L233.7 31.625L241.387 25.4375ZM247.575 11.1875L247.762 6.875L242.887 7.0625L242.7 11.75L247.575 11.1875ZM248.325 40.25L248.7 35.375L243.262 35.75L242.887 41L248.325 40.25ZM259.012 1.25L267.825 1.0625C274.325 0.9375 277.45 4.1875 277.2 10.8125L277.012 15.6875L258.45 16.0625L259.012 1.25ZM269.512 39.3125L269.7 34.8125L264.825 34.625L264.637 39.5L269.512 39.3125ZM269.7 10.625V6.5H265.2L265.012 10.625H269.7ZM293.265 3.3125C292.015 14.5625 291.328 23 291.203 28.625C291.078 32.875 291.078 38.1875 291.203 44.5625L283.328 43.625C283.453 35.25 283.64 28.6875 283.89 23.9375C284.14 19.5625 284.89 12.5 286.14 2.75L293.265 3.3125ZM293.828 12.125L309.015 11.375L307.515 3.3125L315.39 2.75L316.89 11.375L324.953 11.5625V17.75H317.453L317.828 23.75L324.765 24.5L324.953 32.1875L318.203 31.25C318.078 36.125 317.078 39.5625 315.203 41.5625C312.953 44.0625 309.515 45.0625 304.89 44.5625C299.39 44.0625 296.14 41.625 295.14 37.25C294.265 33.25 295.14 29.75 297.765 26.75C299.515 24.875 301.515 23.6875 303.765 23.1875C305.64 22.8125 307.89 22.75 310.515 23L310.14 18.3125L293.64 19.8125L293.828 12.125ZM309.765 35.5625C310.515 34.5625 310.828 32.8125 310.703 30.3125C308.578 30.0625 307.015 30.0625 306.015 30.3125C304.015 30.6875 302.765 31.6875 302.265 33.3125C301.765 34.6875 301.953 35.8125 302.828 36.6875C303.578 37.4375 304.64 37.75 306.015 37.625C307.64 37.375 308.89 36.6875 309.765 35.5625ZM333.33 32.75L335.58 35.375L341.58 42.875L334.642 46.8125L328.83 35.75L333.33 32.75ZM383.52 17.5625L382.957 14.1875L364.582 16.0625V8.5625L381.645 7.4375L380.52 3.125L388.77 2.75L389.707 7.25L401.52 7.4375V13.625L390.645 13.8125L391.207 17.1875L403.582 17.375L404.332 23.375H391.957L392.332 27.125L402.457 29L401.145 36.3125L392.707 34.625C392.207 37.375 391.207 39.5 389.707 41C386.707 44 382.395 45.5 376.77 45.5C373.52 45.5 370.895 44.5 368.895 42.5C366.895 40.5 365.957 37.9375 366.082 34.8125C366.082 32.8125 366.895 31 368.52 29.375C370.52 27.25 374.02 26.1875 379.02 26.1875C380.645 26.1875 382.52 26.25 384.645 26.375L384.27 24.125C378.02 24.5 373.082 24.9375 369.457 25.4375C367.707 25.6875 365.27 26.125 362.145 26.75V19.0625L383.52 17.5625ZM379.582 38C382.207 37.75 383.957 36.1875 384.832 33.3125C382.332 32.8125 380.582 32.5625 379.582 32.5625C377.707 32.4375 376.332 32.75 375.457 33.5C374.832 34 374.457 34.625 374.332 35.375C374.207 36.125 374.457 36.75 375.082 37.25C376.082 38 377.582 38.25 379.582 38ZM430.335 40.8125C428.335 42.1875 425.335 43.5 421.335 44.75L418.335 39.875C420.46 39 422.46 38.0625 424.335 37.0625C426.96 35.6875 428.585 34.0625 429.21 32.1875C429.71 30.9375 429.585 29.8125 428.835 28.8125C428.21 27.8125 427.21 27.1875 425.835 26.9375C424.085 26.6875 422.147 26.8125 420.022 27.3125C417.772 27.9375 414.585 29.4375 410.46 31.8125L408.21 25.625C413.21 23.5 417.022 22.1875 419.647 21.6875C424.397 20.8125 428.335 21.25 431.46 23C433.335 24.125 434.71 25.5 435.585 27.125C436.585 29 436.772 31.125 436.147 33.5C435.397 36.375 433.46 38.8125 430.335 40.8125ZM443.587 28.0625L446.212 15.875L440.962 16.4375L440.587 8.75H447.712L449.212 2.75L457.837 3.3125L456.525 8.5625L481.087 8.375L481.65 14.375L465.712 15.125L454.462 15.5C453.587 19.5 452.712 23.5625 451.837 27.6875C451.087 31.8125 450.15 37.3125 449.025 44.1875L440.4 42.875L443.587 28.0625ZM470.587 36.5C472.837 36 475.4 34.1875 478.275 31.0625L482.587 38C479.212 40.875 476.462 42.6875 474.337 43.4375C470.462 44.9375 466.275 45.1875 461.775 44.1875C458.4 43.4375 455.775 41.5 453.9 38.375C452.9 36.625 452.275 34.0625 452.025 30.6875L459.15 29.375C459.775 32.5 460.837 34.5 462.337 35.375C464.712 36.875 467.462 37.25 470.587 36.5ZM467.775 17.5625C471.525 17.4375 475.712 17.5 480.337 17.75L480.525 24.125C475.025 23.75 471.337 23.625 469.462 23.75C466.712 23.875 462.587 24.375 457.087 25.25L456.9 18.3125C462.775 17.8125 466.4 17.5625 467.775 17.5625ZM522.652 7.4375L495.84 23.375L523.215 40.0625L516.84 45.125L495.09 31.8125C493.59 30.9375 492.027 29.9375 490.402 28.8125C488.527 27.5625 487.34 26.25 486.84 24.875C486.09 23 486.652 21.0625 488.527 19.0625C489.527 17.9375 491.277 16.6875 493.777 15.3125L516.652 2L522.652 7.4375ZM526.53 38.5625L531.218 38.1875L531.968 18.3125L540.405 18.125L539.655 37.8125H544.343L545.468 9.6875L526.905 11V2.9375H572.655L572.468 9.6875L554.093 9.3125L553.905 19.8125H568.155V27.3125L553.905 27.875L554.093 37.8125H572.093L572.468 44.9375L554.28 44.5625L537.593 45.5L526.905 46.625L526.718 44.75L526.53 38.5625ZM585.532 8.75C584.032 7.875 583.282 6.8125 583.282 5.5625C583.157 3.4375 583.97 2 585.72 1.25C586.72 0.875 587.782 0.875 588.907 1.25C590.157 1.625 591.095 2.3125 591.72 3.3125C592.345 4.3125 592.47 5.375 592.095 6.5C591.845 7.125 591.22 7.8125 590.22 8.5625L595.282 8.375L595.657 1.4375H603.345L603.157 8.1875L608.22 0.875L615.532 2.9375L612.345 8C614.22 8 615.47 8 616.095 8C617.595 8.125 618.782 8.5 619.657 9.125C620.657 9.875 621.282 11 621.532 12.5C621.782 13.875 621.845 15.4375 621.72 17.1875L613.657 17.5625V13.0625L592.095 13.25L584.595 13.8125L584.407 14.375L584.032 18.875L576.157 19.25L576.532 9.125L585.532 8.75ZM580.845 28.0625L594.907 27.5L595.095 25.8125L585.345 26.375C585.22 23.375 585.157 21.5 585.157 20.75C585.282 19.125 585.47 17.1875 585.72 14.9375L604.845 13.8125C607.47 13.6875 609.47 14.4375 610.845 16.0625C612.47 18.0625 612.97 21.125 612.345 25.25H612.157L602.782 25.0625L602.595 27.125L610.282 26.75C613.282 26.625 615.345 27.1875 616.47 28.4375C617.095 29.1875 617.532 30.4375 617.782 32.1875C618.032 33.9375 618.157 35.5 618.157 36.875C618.157 38.75 618.095 40.0625 617.97 40.8125C617.845 41.5625 617.47 42.1875 616.845 42.6875C615.97 43.4375 614.72 43.875 613.095 44C611.595 44.125 609.532 44.125 606.907 44L604.282 37.4375H609.532L609.345 31.8125L602.782 32.1875L602.595 46.4375H594.345L594.907 33.125L588.72 33.5L588.345 44.1875L579.72 44.5625L580.845 28.0625ZM604.095 20.9375V18.3125L593.595 18.875L593.407 21.3125L604.095 20.9375ZM631.785 5.75L639.097 2.9375L643.222 11.5625L659.347 7.4375L662.347 14.75L646.41 18.5L649.785 25.8125L642.66 28.4375L639.847 21.5C637.222 23 635.535 24.6875 634.785 26.5625C632.91 31.0625 633.785 34.25 637.41 36.125C640.035 37.5 643.16 38 646.785 37.625C649.16 37.375 651.347 36.8125 653.347 35.9375C655.597 34.8125 658.035 33.375 660.66 31.625L665.16 37.8125C659.285 41.6875 654.472 44 650.722 44.75C647.222 45.375 643.91 45.5 640.785 45.125C636.035 44.5 632.347 43 629.722 40.625C626.222 37.25 624.972 32.5625 625.972 26.5625C626.347 23.9375 627.347 21.6875 628.972 19.8125C630.597 17.9375 633.035 16.0625 636.285 14.1875L631.785 5.75ZM680.85 5.5625C678.85 10.6875 677.537 14.75 676.912 17.75C676.287 20.5 676.1 25 676.35 31.25L681.225 23L687.6 27.125L682.162 37.4375C681.037 39.5625 680.162 41 679.537 41.75C678.537 43 677.35 43.75 675.975 44C673.225 44.375 671.225 42.6875 669.975 38.9375C669.225 36.5625 668.787 33.4375 668.662 29.5625C668.537 24.9375 668.85 20.5 669.6 16.25C670.225 13 671.537 8.5 673.537 2.75L680.85 5.5625ZM704.85 3.875C706.35 9.5 707.412 14.3125 708.037 18.3125C708.787 22.8125 709.35 28.9375 709.725 36.6875L701.475 36.875C701.225 29.375 700.85 23.875 700.35 20.375C699.85 17.25 698.725 12.3125 696.975 5.5625L704.85 3.875ZM735.727 40.8125C733.727 42.1875 730.727 43.5 726.727 44.75L723.727 39.875C725.852 39 727.852 38.0625 729.727 37.0625C732.352 35.6875 733.977 34.0625 734.602 32.1875C735.102 30.9375 734.977 29.8125 734.227 28.8125C733.602 27.8125 732.602 27.1875 731.227 26.9375C729.477 26.6875 727.54 26.8125 725.415 27.3125C723.165 27.9375 719.977 29.4375 715.852 31.8125L713.602 25.625C718.602 23.5 722.415 22.1875 725.04 21.6875C729.79 20.8125 733.727 21.25 736.852 23C738.727 24.125 740.102 25.5 740.977 27.125C741.977 29 742.165 31.125 741.54 33.5C740.79 36.375 738.852 38.8125 735.727 40.8125ZM766.23 4.25C770.355 4.125 777.042 4.1875 786.292 4.4375L786.855 11.1875H778.417C774.542 12.8125 771.792 14.125 770.167 15.125C766.917 17.125 764.48 19.4375 762.855 22.0625C760.48 26.0625 759.98 29.625 761.355 32.75C761.98 34.25 763.23 35.25 765.105 35.75C766.855 36.25 768.605 36.375 770.355 36.125C773.73 35.75 777.792 34.6875 782.542 32.9375L785.167 39.875C780.417 41.5 776.605 42.625 773.73 43.25C769.355 44.125 765.417 44.1875 761.917 43.4375C758.167 42.6875 755.48 40.625 753.855 37.25C751.855 33.25 751.48 29 752.73 24.5C753.48 21.75 754.667 19.4375 756.292 17.5625C757.667 15.9375 760.167 14.0625 763.792 11.9375L745.792 14.1875V5.375C753.792 4.875 760.605 4.5 766.23 4.25ZM802.92 5.5625C800.92 10.6875 799.607 14.75 798.982 17.75C798.357 20.5 798.17 25 798.42 31.25L803.295 23L809.67 27.125L804.232 37.4375C803.107 39.5625 802.232 41 801.607 41.75C800.607 43 799.42 43.75 798.045 44C795.295 44.375 793.295 42.6875 792.045 38.9375C791.295 36.5625 790.857 33.4375 790.732 29.5625C790.607 24.9375 790.92 20.5 791.67 16.25C792.295 13 793.607 8.5 795.607 2.75L802.92 5.5625ZM826.92 3.875C828.42 9.5 829.482 14.3125 830.107 18.3125C830.857 22.8125 831.42 28.9375 831.795 36.6875L823.545 36.875C823.295 29.375 822.92 23.875 822.42 20.375C821.92 17.25 820.795 12.3125 819.045 5.5625L826.92 3.875ZM847.86 5.5625C845.86 10.6875 844.547 14.75 843.922 17.75C843.297 20.5 843.11 25 843.36 31.25L848.235 23L854.61 27.125L849.172 37.4375C848.047 39.5625 847.172 41 846.547 41.75C845.547 43 844.36 43.75 842.985 44C840.235 44.375 838.235 42.6875 836.985 38.9375C836.235 36.5625 835.797 33.4375 835.672 29.5625C835.547 24.9375 835.86 20.5 836.61 16.25C837.235 13 838.547 8.5 840.547 2.75L847.86 5.5625ZM871.86 3.875C873.36 9.5 874.422 14.3125 875.047 18.3125C875.797 22.8125 876.36 28.9375 876.735 36.6875L868.485 36.875C868.235 29.375 867.86 23.875 867.36 20.375C866.86 17.25 865.735 12.3125 863.985 5.5625L871.86 3.875Z" fill="#E06363"/>
</svg>
