<svg width="684" height="212" viewBox="0 0 684 212" fill="none" xmlns="http://www.w3.org/2000/svg">
<rect x="123" y="2" width="561" height="210" rx="30" fill="white"/>
<path d="M179.448 43.736C179.448 42.904 180.056 42.488 180.664 42.488C181.112 42.488 181.48 42.664 181.704 43.048C181.912 44.424 181.32 44.92 180.664 44.92C180.04 44.92 179.448 44.472 179.448 43.736ZM187.896 37.992C187.064 37.976 184.904 37.992 183.304 37.992C183.304 37.8 183.32 37.64 183.32 37.512C183.336 37.256 183.384 36.408 183.432 36.152H181.128C181.192 36.408 181.24 37.016 181.272 37.528C181.288 37.64 181.288 37.816 181.288 38.008C179.16 38.04 176.28 38.12 174.472 38.12L174.52 40.04C176.472 39.928 178.92 39.832 181.32 39.8L181.336 40.856C181.144 40.824 180.936 40.808 180.712 40.808C178.984 40.808 177.544 41.976 177.544 43.768C177.544 45.704 179.048 46.68 180.28 46.68C180.536 46.68 180.776 46.648 181 46.6C180.12 47.544 178.728 48.072 177.128 48.408L178.808 50.104C182.68 49.016 183.896 46.392 183.896 44.328C183.896 43.496 183.704 42.728 183.304 42.136C183.304 41.448 183.304 40.584 183.288 39.784C185.432 39.784 186.92 39.816 187.88 39.864L187.896 37.992ZM192.856 44.504C192.68 45.096 192.472 45.944 192.472 46.664C192.472 48.856 194.296 49.864 197.256 49.864C198.84 49.864 200.456 49.704 201.336 49.56L201.4 47.528C200.28 47.752 198.712 47.88 197.208 47.88C195.144 47.88 194.44 47.208 194.44 46.216C194.44 45.832 194.616 45.16 194.824 44.68L192.856 44.504ZM203.32 39.912C202.616 40.184 201.704 40.456 200.488 40.696L200.12 39.896L199.816 39.208C200.856 39.032 201.72 38.808 202.536 38.568L202.2 36.792C201.256 37.112 200.232 37.352 199.16 37.528C198.952 36.968 198.776 36.424 198.664 35.944L196.408 36.376C196.68 36.808 196.888 37.16 197.176 37.736V37.752C195.768 37.832 194.184 37.768 192.376 37.576L192.472 39.384C194.392 39.576 196.376 39.576 197.928 39.448L198.312 40.344L198.584 40.968C196.792 41.16 194.632 41.16 192.264 40.936L192.344 42.76C194.744 42.936 197.32 42.888 199.304 42.664L200.024 44.312C199.592 44.264 198.968 44.216 198.344 44.136L198.168 45.656C199.224 45.784 200.744 46.024 201.624 46.184L202.568 44.984C202.104 44.12 201.656 43.192 201.256 42.344C202.184 42.152 203.048 41.944 203.704 41.704L203.32 39.912ZM208.311 42.2L209.127 44.28C210.487 43.704 213.639 42.392 215.479 42.392C216.855 42.392 217.751 43.224 217.751 44.408C217.751 46.568 215.063 47.512 211.463 47.608L212.295 49.576C217.335 49.272 219.847 47.304 219.847 44.44C219.847 42.04 218.167 40.552 215.671 40.552C213.751 40.552 211.063 41.464 209.991 41.784C209.511 41.944 208.775 42.12 208.311 42.2ZM223.179 38.024L223.371 40.2C225.211 39.8 228.555 39.448 229.915 39.304C228.859 40.104 227.579 41.896 227.579 44.184C227.579 47.608 230.715 49.4 234.043 49.624L234.779 47.432C232.107 47.288 229.659 46.36 229.659 43.752C229.659 41.88 231.099 39.832 233.003 39.32C233.851 39.128 235.211 39.112 236.059 39.112L236.043 37.064C234.939 37.112 233.195 37.208 231.563 37.336C228.667 37.592 226.043 37.816 224.731 37.944C224.411 37.976 223.803 38.008 223.179 38.024ZM242.954 37.608L240.522 37.576C240.618 38.056 240.634 38.728 240.634 39.176C240.634 40.152 240.666 41.992 240.81 43.448C241.258 47.704 242.778 49.272 244.506 49.272C245.786 49.272 246.778 48.296 247.834 45.544L246.234 43.624C245.93 44.872 245.306 46.728 244.554 46.728C243.562 46.728 243.082 45.176 242.858 42.888C242.762 41.752 242.746 40.552 242.762 39.528C242.762 39.096 242.842 38.168 242.954 37.608ZM250.874 37.944L248.858 38.616C250.586 40.568 251.434 44.296 251.674 46.84L253.77 46.04C253.594 43.608 252.378 39.784 250.874 37.944ZM266.475 43.736C266.475 46.216 263.963 47.496 260.027 47.944L261.179 49.928C265.579 49.32 268.715 47.208 268.715 43.816C268.715 41.336 266.955 39.912 264.443 39.912C262.603 39.912 260.827 40.376 259.659 40.632C259.147 40.744 258.459 40.856 257.931 40.904L258.523 43.16C258.987 43 259.595 42.76 260.059 42.616C260.875 42.376 262.443 41.848 264.187 41.848C265.675 41.832 266.475 42.696 266.475 43.736ZM260.266 36.12L259.947 38.04C261.771 38.36 265.211 38.664 267.067 38.792L267.387 36.84C265.707 36.84 262.107 36.52 260.266 36.12ZM280.123 43.336C279.739 44.072 279.275 44.76 278.715 45.4C277.803 44.824 276.875 44.28 276.043 43.848L274.683 45.096C275.531 45.576 276.459 46.136 277.371 46.744C276.187 47.752 274.811 48.584 273.323 49.16C273.739 49.512 274.443 50.248 274.747 50.648C276.219 49.928 277.643 48.984 278.907 47.832C279.867 48.568 280.715 49.272 281.275 49.896L282.795 48.456C282.171 47.832 281.275 47.112 280.267 46.424C280.923 45.656 281.483 44.824 281.963 43.944L280.123 43.336ZM274.923 41.656C275.499 41.048 276.043 40.328 276.539 39.512V40.856H285.771V39.32H276.651C276.795 39.08 276.939 38.824 277.067 38.568H287.227V36.984H277.771C277.915 36.6 278.043 36.2 278.171 35.8L276.187 35.384C275.563 37.592 274.363 39.656 272.779 40.856C273.243 41.128 274.139 41.736 274.507 42.056L274.651 41.928V43.256H283.227C283.323 47.352 283.787 50.408 286.123 50.408C287.355 50.408 287.691 49.56 287.835 47.56C287.451 47.288 286.971 46.808 286.603 46.376C286.571 47.672 286.507 48.504 286.267 48.52C285.339 48.52 285.131 45.496 285.163 41.656H274.923ZM294.602 42.232L293.338 42.584V40.232H294.698V38.472H293.338V35.464H291.594V38.472H289.786V40.232H291.594V43.032C290.81 43.224 290.106 43.4 289.53 43.544L289.946 45.368L291.594 44.888V48.264C291.594 48.472 291.514 48.536 291.322 48.536C291.13 48.552 290.586 48.552 289.994 48.52C290.234 49.032 290.442 49.816 290.49 50.28C291.514 50.296 292.218 50.232 292.682 49.928C293.178 49.624 293.338 49.16 293.338 48.28V44.376C293.85 44.248 294.346 44.088 294.842 43.944L294.602 42.232ZM295.962 46.024C296.602 46.872 297.354 48.04 297.642 48.824L299.258 47.896C298.922 47.112 298.122 45.976 297.466 45.176L295.962 46.024ZM304.65 42.12V40.392H300.714V39H303.93V37.272H300.714V35.528H298.906V37.272H295.626V39H298.906V40.392H294.938V42.12H300.97V43.384H295.082V45.112H300.97V48.344C300.97 48.568 300.89 48.616 300.666 48.616C300.41 48.632 299.578 48.632 298.858 48.6C299.082 49.112 299.322 49.864 299.402 50.392C300.554 50.392 301.386 50.36 301.978 50.088C302.602 49.8 302.778 49.336 302.778 48.376V45.112H304.538V43.384H302.778V42.12H304.65ZM318.602 37.64C316.698 38.056 314.554 38.296 312.746 38.392L312.842 37.912C312.954 37.384 313.034 36.856 313.21 36.296L310.97 36.2C310.986 36.728 310.97 37.112 310.89 37.8C310.874 37.992 310.826 38.2 310.794 38.44C309.834 38.424 308.634 38.296 307.69 38.136V40.104C308.49 40.184 309.418 40.248 310.426 40.264C310.01 42.008 309.37 44.12 308.618 45.576L310.49 46.248C310.65 45.976 310.762 45.768 310.938 45.56C311.882 44.344 313.498 43.688 315.322 43.688C316.858 43.688 317.69 44.488 317.69 45.432C317.69 47.768 314.186 48.184 310.714 47.624L311.274 49.672C316.394 50.216 319.818 48.936 319.818 45.368C319.818 43.352 318.122 41.976 315.562 41.976C314.106 41.976 312.906 42.264 311.626 42.968C311.882 42.2 312.138 41.192 312.346 40.232C314.474 40.12 316.986 39.816 318.634 39.56L318.602 37.64ZM329.93 37.832L329.946 39.88C331.93 40.056 334.794 40.056 336.746 39.88V37.832C335.034 38.04 331.882 38.104 329.93 37.832ZM329.386 44.44C329.226 45.176 329.114 45.848 329.114 46.504C329.114 48.12 330.41 49.112 333.146 49.112C334.938 49.112 336.218 48.984 337.242 48.792L337.194 46.648C335.818 46.936 334.65 47.064 333.226 47.064C331.626 47.064 331.018 46.648 331.018 45.944C331.018 45.512 331.082 45.128 331.21 44.616L329.386 44.44ZM325.274 36.6C325.274 37.096 325.178 37.704 325.114 38.152C324.938 39.368 324.458 42.04 324.458 44.424C324.458 46.568 324.762 48.504 325.082 49.608L326.906 49.48C326.89 49.256 326.89 49 326.874 48.824C326.874 48.664 326.922 48.312 326.97 48.088C327.13 47.24 327.658 45.528 328.106 44.2L327.114 43.432C326.89 43.944 326.634 44.472 326.41 45.032C326.362 44.696 326.346 44.312 326.346 44.008C326.346 42.424 326.89 39.256 327.114 38.2C327.178 37.912 327.37 37.112 327.498 36.792L325.274 36.6ZM341.931 36.504C341.931 37 341.851 37.608 341.787 38.056C341.595 39.272 341.131 42.264 341.131 44.664C341.131 46.808 341.435 48.616 341.755 49.72L343.547 49.592C343.531 49.368 343.531 49.096 343.531 48.936C343.515 48.76 343.562 48.424 343.611 48.2C343.786 47.336 344.299 45.72 344.747 44.424L343.771 43.64C343.531 44.168 343.275 44.696 343.067 45.256C343.019 44.936 343.003 44.552 343.003 44.232C343.003 42.648 343.515 39.16 343.755 38.104C343.819 37.816 344.011 37.016 344.139 36.696L341.931 36.504ZM349.931 46.344C349.931 47.272 349.595 47.784 348.619 47.784C347.786 47.784 347.147 47.496 347.147 46.856C347.147 46.264 347.755 45.896 348.651 45.896C349.083 45.896 349.515 45.96 349.931 46.072V46.344ZM354.939 46.984C354.203 46.296 353.211 45.48 351.883 44.936C351.819 43.864 351.739 42.6 351.707 41.064C352.571 41 353.403 40.904 354.171 40.792V38.824C353.419 38.984 352.587 39.096 351.723 39.192C351.723 38.488 351.755 37.896 351.771 37.544C351.787 37.208 351.819 36.824 351.867 36.52H349.595C349.643 36.84 349.691 37.32 349.691 37.56C349.707 37.896 349.707 38.536 349.723 39.32C349.355 39.336 348.97 39.336 348.602 39.336C347.659 39.336 346.747 39.288 345.835 39.192V41.08C346.779 41.144 347.675 41.176 348.602 41.176C348.97 41.176 349.355 41.176 349.739 41.16C349.755 42.28 349.803 43.432 349.851 44.408C349.531 44.36 349.179 44.344 348.811 44.344C346.651 44.344 345.291 45.448 345.291 47.064C345.291 48.728 346.667 49.656 348.843 49.656C350.987 49.656 351.851 48.568 351.947 47.064C352.571 47.496 353.211 48.024 353.867 48.648L354.939 46.984ZM362.155 48.632C361.339 47.64 359.803 46.056 358.667 45.128L357.003 46.568C358.123 47.528 359.467 48.904 360.443 50.104L362.155 48.632ZM376.203 43.8C375.947 44.712 375.755 45.704 375.755 46.408C375.755 48.616 377.467 49.816 380.651 49.816C382.715 49.816 384.043 49.592 384.923 49.432L384.971 47.336C383.803 47.576 382.859 47.8 380.651 47.8C378.411 47.8 377.819 47.016 377.819 45.864C377.819 45.4 378.059 44.488 378.251 43.976L376.203 43.8ZM386.539 37.576C385.531 37.912 384.539 38.168 383.435 38.376C383.083 37.544 382.779 36.792 382.507 35.96L380.267 36.392C380.603 36.952 380.763 37.272 381.051 37.912C381.147 38.152 381.259 38.408 381.387 38.664C379.707 38.824 377.739 38.792 375.467 38.504L375.531 40.536C378.043 40.744 380.267 40.744 382.203 40.536C382.667 41.528 383.211 42.632 383.595 43.432C383.115 43.4 382.251 43.304 381.723 43.256L381.547 44.888C382.715 45.032 384.283 45.288 385.147 45.464L386.267 44.264C385.579 43 384.827 41.496 384.219 40.216C385.179 40.024 386.107 39.8 386.907 39.576L386.539 37.576ZM397.594 46.904C397.594 47.816 397.05 48.072 396.202 48.072C395.114 48.072 394.554 47.688 394.554 47.096C394.554 46.552 395.162 46.12 396.282 46.12C396.73 46.12 397.162 46.168 397.578 46.232C397.594 46.504 397.594 46.728 397.594 46.904ZM403.93 47.304C403.018 46.536 401.498 45.48 399.498 44.904C399.45 44.296 399.418 43.656 399.386 43.064C400.922 43.016 402.154 42.904 403.578 42.744V40.872C402.282 41.032 400.954 41.176 399.354 41.24L399.37 39.592C400.89 39.512 402.17 39.384 403.21 39.288L403.162 37.464C401.786 37.672 400.618 37.8 399.386 37.848L399.402 37.224C399.418 36.824 399.466 36.424 399.514 36.104H397.354C397.418 36.408 397.434 36.904 397.434 37.192V37.912H396.65C395.674 37.912 394.202 37.8 393.21 37.608L393.226 39.416C394.138 39.56 395.658 39.656 396.666 39.656H397.418V41.304H396.666C395.818 41.304 393.754 41.192 392.842 41.016L392.826 42.888C393.882 43.016 395.706 43.096 396.634 43.096H397.45C397.466 43.56 397.482 44.056 397.514 44.536C397.194 44.504 396.874 44.488 396.538 44.488C394.09 44.488 392.618 45.608 392.618 47.208C392.618 48.888 393.962 49.848 396.49 49.848C398.586 49.848 399.61 48.808 399.61 47.448C399.61 47.288 399.61 47.096 399.594 46.888C400.858 47.464 401.946 48.28 402.794 49.08L403.93 47.304ZM409.546 43.928C409.29 44.84 409.098 45.832 409.098 46.536C409.098 48.744 410.81 49.944 413.994 49.944C416.074 49.944 417.386 49.72 418.266 49.56L418.314 47.464C417.162 47.688 416.202 47.912 413.994 47.912C411.754 47.912 411.162 47.144 411.162 45.992C411.162 45.528 411.402 44.616 411.61 44.088L409.546 43.928ZM417.994 36.264C418.33 36.728 418.698 37.4 418.986 37.976C418.282 38.184 417.546 38.36 416.778 38.504C416.426 37.672 416.122 36.92 415.866 36.088L413.61 36.52C413.962 37.08 414.106 37.4 414.394 38.04L414.73 38.792C413.05 38.952 411.082 38.92 408.81 38.632L408.874 40.664C411.386 40.872 413.61 40.872 415.562 40.664C416.01 41.656 416.57 42.744 416.938 43.544C416.458 43.512 415.61 43.432 415.066 43.384L414.89 45.016C416.074 45.16 417.642 45.4 418.49 45.576L419.61 44.392C418.922 43.128 418.17 41.624 417.578 40.344C418.522 40.152 419.45 39.928 420.266 39.704L419.978 38.168L420.522 37.928C420.234 37.336 419.658 36.328 419.258 35.736L417.994 36.264ZM419.898 35.576C420.346 36.184 420.858 37.112 421.194 37.784L422.458 37.224C422.17 36.664 421.578 35.656 421.162 35.048L419.898 35.576ZM431.195 46.904C431.195 47.816 430.651 48.072 429.803 48.072C428.715 48.072 428.155 47.688 428.155 47.096C428.155 46.552 428.763 46.12 429.883 46.12C430.331 46.12 430.763 46.168 431.179 46.232C431.195 46.504 431.195 46.728 431.195 46.904ZM437.531 47.304C436.619 46.536 435.099 45.48 433.099 44.904C433.051 44.296 433.019 43.656 432.987 43.064C434.523 43.016 435.755 42.904 437.179 42.744V40.872C435.883 41.032 434.555 41.176 432.955 41.24L432.97 39.592C434.491 39.512 435.771 39.384 436.811 39.288L436.763 37.464C435.387 37.672 434.219 37.8 432.987 37.848L433.003 37.224C433.019 36.824 433.067 36.424 433.115 36.104H430.955C431.019 36.408 431.035 36.904 431.035 37.192V37.912H430.251C429.275 37.912 427.803 37.8 426.811 37.608L426.827 39.416C427.739 39.56 429.259 39.656 430.267 39.656H431.019V41.304H430.267C429.419 41.304 427.355 41.192 426.443 41.016L426.427 42.888C427.483 43.016 429.307 43.096 430.235 43.096H431.051C431.067 43.56 431.083 44.056 431.115 44.536C430.795 44.504 430.475 44.488 430.139 44.488C427.691 44.488 426.219 45.608 426.219 47.208C426.219 48.888 427.562 49.848 430.091 49.848C432.187 49.848 433.211 48.808 433.211 47.448C433.211 47.288 433.211 47.096 433.195 46.888C434.459 47.464 435.547 48.28 436.395 49.08L437.531 47.304ZM444.73 46.12C444.138 46.12 443.498 45.336 443.498 43.736C443.498 41.992 444.89 39.688 447.514 39.144C447.322 40.456 447.034 41.816 446.666 42.984C446.026 45.128 445.386 46.12 444.73 46.12ZM449.082 49.656C453.082 49.048 455.13 46.68 455.13 43.352C455.13 39.896 452.65 37.16 448.73 37.16C444.618 37.16 441.434 40.296 441.434 43.944C441.434 46.616 442.922 48.552 444.666 48.552C446.394 48.552 447.77 46.6 448.714 43.4C449.162 41.912 449.434 40.44 449.658 39.096C451.786 39.464 452.97 41.096 452.97 43.288C452.97 45.592 451.402 47.048 449.37 47.528C448.954 47.624 448.506 47.704 447.898 47.784L449.082 49.656ZM470.299 35.672C469.387 36.968 467.643 38.264 466.171 39C466.667 39.352 467.227 39.928 467.515 40.344C469.163 39.384 470.891 37.992 472.107 36.408L470.299 35.672ZM470.619 40.072C469.691 41.432 467.883 42.808 466.395 43.608C466.875 43.976 467.419 44.536 467.723 44.936C469.371 43.928 471.147 42.424 472.363 40.776L470.619 40.072ZM461.323 41.592V38.152H463.179V41.592H461.323ZM466.571 43.352V41.592H465.035V38.152H466.363V36.376H457.995V38.152H459.563V41.592H457.707V43.352H459.547C459.451 45.496 459.051 47.576 457.515 49.208C457.947 49.496 458.619 50.136 458.907 50.52C460.795 48.552 461.227 45.96 461.307 43.352H463.179V50.392H465.035V43.352H466.571ZM470.891 44.296C469.803 46.264 467.707 47.88 465.579 48.824C466.059 49.224 466.603 49.88 466.907 50.376C469.243 49.16 471.355 47.32 472.699 45L470.891 44.296ZM489.642 37.32C489.37 36.76 488.778 35.752 488.346 35.144L487.082 35.672C487.53 36.264 488.042 37.208 488.378 37.88L489.642 37.32ZM478.89 36.28C478.906 37.272 478.778 38.424 478.554 39.64C477.754 39.704 477.002 39.752 476.506 39.768C475.93 39.784 475.402 39.816 474.826 39.768L475.002 41.912C475.498 41.832 476.314 41.72 476.762 41.672C477.066 41.624 477.562 41.56 478.122 41.496C477.562 43.656 476.474 46.824 474.938 48.904L477.002 49.736C478.458 47.4 479.61 43.672 480.234 41.272C480.682 41.24 481.066 41.208 481.322 41.208C482.314 41.208 482.858 41.384 482.858 42.648C482.858 44.216 482.65 46.104 482.218 46.984C481.962 47.512 481.562 47.672 481.034 47.672C480.618 47.672 479.69 47.512 479.082 47.336L479.434 49.432C479.962 49.56 480.73 49.656 481.322 49.656C482.538 49.656 483.402 49.304 483.93 48.2C484.602 46.824 484.826 44.296 484.826 42.424C484.826 40.152 483.642 39.4 481.962 39.4C481.642 39.4 481.162 39.432 480.634 39.464C480.746 38.888 480.874 38.312 480.97 37.832C481.05 37.432 481.146 36.936 481.242 36.52L478.89 36.28ZM487.738 38.056C487.418 37.464 486.858 36.456 486.458 35.864L485.194 36.392C485.562 36.904 485.962 37.672 486.282 38.28L484.81 38.904C485.946 40.312 487.066 43.112 487.482 44.872L489.498 43.928C489.034 42.536 487.85 39.864 486.922 38.408L487.738 38.056ZM497.915 42.696C498.523 42.504 499.259 42.36 500.091 42.344C499.563 43.624 498.859 44.584 498.091 45.352C497.979 44.568 497.915 43.704 497.915 42.728V42.696ZM494.891 47.208C494.379 47.208 494.155 46.936 494.155 46.44C494.155 45.544 494.955 44.328 496.139 43.528C496.171 44.616 496.299 45.704 496.475 46.696C495.883 47.032 495.339 47.208 494.891 47.208ZM500.763 39.784C500.747 40.008 500.683 40.408 500.619 40.728H500.347C499.563 40.728 498.731 40.84 497.979 41.016C497.995 40.536 498.043 40.056 498.091 39.592C500.043 39.496 502.171 39.304 503.723 39.016L503.707 37.192C501.963 37.608 500.251 37.8 498.331 37.864C498.379 37.56 498.427 37.272 498.491 37.016C498.539 36.776 498.603 36.488 498.715 36.168L496.635 36.12C496.651 36.392 496.619 36.776 496.587 37.064L496.491 37.912H495.883C494.907 37.912 493.515 37.784 492.955 37.704L493.019 39.544C493.755 39.576 494.987 39.64 495.819 39.64H496.331C496.267 40.28 496.219 40.952 496.171 41.624C493.963 42.664 492.283 44.808 492.283 46.824C492.283 48.44 493.259 49.144 494.427 49.144C495.259 49.144 496.107 48.888 496.875 48.504C496.939 48.728 497.019 48.952 497.083 49.144L498.907 48.6C498.779 48.216 498.651 47.832 498.539 47.416C499.739 46.424 501.003 44.776 501.883 42.616C502.955 43.032 503.515 43.88 503.515 44.84C503.515 46.392 502.267 47.928 499.211 48.264L500.267 49.928C504.155 49.352 505.483 47.16 505.483 44.936C505.483 43.08 504.267 41.656 502.427 41.048C502.523 40.744 502.635 40.408 502.715 40.232L500.763 39.784ZM515.419 48.04C514.491 48.04 513.819 47.64 513.819 47.048C513.819 46.648 514.203 46.296 514.795 46.296C515.659 46.296 516.251 46.968 516.347 47.992C516.059 48.024 515.755 48.04 515.419 48.04ZM518.907 36.616C518.715 36.664 518.347 36.728 517.691 36.776C516.795 36.856 513.403 36.936 512.571 36.936C512.123 36.936 511.579 36.904 511.131 36.856L511.195 38.92C511.562 38.856 512.059 38.808 512.491 38.792C513.323 38.728 515.499 38.632 516.315 38.616C515.531 39.304 513.883 40.632 513.003 41.368C512.059 42.136 510.155 43.752 509.035 44.664L510.475 46.152C512.171 44.232 513.755 42.936 516.187 42.936C518.027 42.936 519.467 43.896 519.467 45.32C519.467 46.28 519.035 47.016 518.171 47.48C517.931 45.976 516.747 44.776 514.795 44.776C513.115 44.776 511.947 45.96 511.947 47.24C511.947 48.824 513.611 49.832 515.819 49.832C519.643 49.832 521.547 47.848 521.547 45.352C521.547 43.048 519.499 41.368 516.811 41.368C516.299 41.368 515.851 41.4 515.323 41.544C516.315 40.744 517.979 39.336 518.827 38.744C519.179 38.504 519.547 38.264 519.931 38.024L518.907 36.616ZM527.45 45.032C526.042 45.032 524.874 46.2 524.874 47.624C524.874 49.048 526.042 50.216 527.45 50.216C528.89 50.216 530.042 49.048 530.042 47.624C530.042 46.2 528.89 45.032 527.45 45.032ZM527.45 49.048C526.682 49.048 526.026 48.424 526.026 47.624C526.026 46.824 526.682 46.184 527.45 46.184C528.25 46.184 528.89 46.824 528.89 47.624C528.89 48.424 528.25 49.048 527.45 49.048Z" fill="#E06363"/>
<path d="M177.608 72.152H179.88V71.032H177.608V67.608H176.472V71.032H173.88V72.152H176.328C175.768 74.36 174.632 76.84 173.528 78.168C173.72 78.456 174.024 78.92 174.152 79.256C175.016 78.168 175.848 76.392 176.472 74.552V82.2H177.608V74.936C178.216 75.72 178.936 76.712 179.224 77.24L179.96 76.264C179.64 75.832 178.184 74.168 177.608 73.576V72.152ZM181.72 80.04V77.272H186.568V80.04H181.72ZM186.568 69.672V72.344H181.72V69.672H186.568ZM181.72 73.432H186.568V76.184H181.72V73.432ZM180.584 68.552V82.104H181.72V81.144H186.568V82.056H187.736V68.552H180.584ZM204.984 75.848H198.424V73.256H204.088V72.12H198.424V69.528C200.312 69.304 202.056 69 203.416 68.584L202.52 67.64C200.12 68.392 195.48 68.808 191.704 68.984C191.816 69.256 191.96 69.72 192.008 70.04C193.656 69.96 195.464 69.848 197.224 69.656V72.12H191.72V73.256H197.224V75.848H190.648V77.016H197.224V80.552C197.224 80.888 197.08 81 196.728 81C196.36 81.016 195.112 81.032 193.768 80.984C193.96 81.304 194.184 81.832 194.28 82.168C195.96 82.184 196.984 82.152 197.576 81.96C198.168 81.768 198.424 81.416 198.424 80.568V77.016H204.984V75.848ZM210.936 78.76C210.248 78.76 209.32 77.88 209.32 75.88C209.32 73.752 211.176 71.144 214.216 70.76C214.04 72.216 213.736 73.72 213.336 75.032C212.52 77.704 211.64 78.76 210.936 78.76ZM215.112 81.416C218.888 80.92 221.08 78.696 221.08 75.368C221.08 72.168 218.712 69.544 215 69.544C211.128 69.544 208.056 72.552 208.056 75.992C208.056 78.6 209.48 80.232 210.888 80.232C212.36 80.232 213.624 78.552 214.6 75.304C215.032 73.816 215.336 72.216 215.544 70.744C218.232 70.968 219.752 72.936 219.752 75.336C219.752 78.072 217.768 79.576 215.736 80.024C215.352 80.104 214.872 80.184 214.376 80.216L215.112 81.416ZM227.016 69.864L225.48 69.832C225.56 70.216 225.576 70.872 225.576 71.24C225.576 72.168 225.592 74.088 225.752 75.464C226.184 79.576 227.624 81.064 229.112 81.064C230.2 81.064 231.176 80.152 232.12 77.464L231.112 76.312C230.696 77.912 229.96 79.544 229.144 79.544C228.024 79.544 227.256 77.8 227 75.144C226.888 73.848 226.872 72.392 226.888 71.4C226.904 70.984 226.952 70.248 227.016 69.864ZM235.272 70.296L234.024 70.728C235.528 72.584 236.488 75.72 236.76 78.568L238.056 78.056C237.832 75.384 236.696 72.136 235.272 70.296ZM243.816 69.864L242.28 69.832C242.36 70.216 242.376 70.872 242.376 71.24C242.376 72.168 242.392 74.088 242.552 75.464C242.984 79.576 244.424 81.064 245.912 81.064C247 81.064 247.976 80.152 248.92 77.464L247.912 76.312C247.496 77.912 246.76 79.544 245.944 79.544C244.824 79.544 244.056 77.8 243.8 75.144C243.688 73.848 243.672 72.392 243.688 71.4C243.704 70.984 243.752 70.248 243.816 69.864ZM252.072 70.296L250.824 70.728C252.328 72.584 253.288 75.72 253.56 78.568L254.856 78.056C254.632 75.384 253.496 72.136 252.072 70.296ZM268.968 70.312C268.632 70.6 268.296 70.808 267.832 71.064C266.968 71.56 265.256 72.392 263.768 73.288C263.08 72.04 262.28 70.328 261.64 68.6L260.376 69.112C261.112 70.84 261.944 72.696 262.68 73.992C260.984 75.176 259.944 76.472 259.944 78.104C259.944 80.472 262.104 81.368 265.08 81.368C267.064 81.368 268.888 81.192 270.088 80.984V79.544C268.856 79.864 266.744 80.088 265.016 80.088C262.52 80.088 261.272 79.272 261.272 77.96C261.272 76.76 262.152 75.72 263.624 74.76C265.176 73.736 267.384 72.696 268.44 72.152C268.904 71.912 269.304 71.704 269.656 71.48L268.968 70.312ZM277.592 71.096C278.856 71.208 280.2 71.272 281.784 71.272C283.24 71.272 284.984 71.16 286.056 71.08V69.768C284.92 69.88 283.304 69.992 281.784 69.992C280.2 69.992 278.744 69.928 277.592 69.784V71.096ZM276.936 76.056C276.792 76.712 276.616 77.448 276.616 78.28C276.616 80.264 278.488 81.32 281.704 81.32C283.96 81.32 285.976 81.08 287.112 80.776L287.096 79.4C285.896 79.768 283.864 80.008 281.672 80.008C279.144 80.008 277.928 79.176 277.928 77.992C277.928 77.4 278.056 76.824 278.248 76.184L276.936 76.056ZM294.456 69.336L294.504 70.664C294.824 70.616 295.24 70.584 295.592 70.552C296.376 70.504 299 70.392 299.976 70.344C298.616 71.56 294.616 74.904 292.408 76.968L293.336 77.96C295.016 76.184 296.632 74.584 299.512 74.584C301.544 74.584 302.856 75.64 302.856 77.144C302.856 79.56 299.944 80.76 295.864 80.264L296.248 81.56C301.112 81.944 304.184 80.248 304.184 77.16C304.184 74.984 302.312 73.496 299.752 73.496C299.016 73.496 298.248 73.592 297.368 73.944C298.536 72.92 300.44 71.4 301.624 70.488C301.784 70.376 302.104 70.136 302.312 70.04L301.56 69.096C301.32 69.176 300.952 69.224 300.68 69.24C299.672 69.304 296.36 69.384 295.528 69.384C295.096 69.384 294.744 69.368 294.456 69.336ZM316.92 69.928C316.328 69.304 315.384 68.536 314.856 68.136L313.928 68.808C314.616 69.304 315.384 70.04 315.992 70.648L316.92 69.928ZM309.928 70.024C310.184 70.344 310.504 70.808 310.696 71.144C310.968 71.592 311.272 72.184 311.592 72.888C310.904 73.192 310.264 73.48 309.736 73.688C309.448 73.8 308.888 73.992 308.424 74.12L309.048 75.432C309.768 75.112 310.872 74.536 312.088 73.944C312.28 74.36 312.488 74.808 312.68 75.256C313.592 77.32 314.344 79.88 314.84 81.752L316.216 81.384C315.672 79.64 314.68 76.68 313.816 74.728C313.624 74.296 313.416 73.848 313.208 73.416C315.032 72.568 316.984 71.816 318.36 71.816C319.928 71.816 320.664 72.664 320.664 73.624C320.664 74.744 319.96 75.688 318.216 75.688C317.368 75.688 316.568 75.448 315.976 75.16L315.928 76.44C316.52 76.664 317.416 76.888 318.296 76.888C320.776 76.888 321.944 75.496 321.944 73.672C321.944 71.944 320.6 70.68 318.408 70.68C316.76 70.68 314.616 71.528 312.712 72.376C312.392 71.72 312.072 71.08 311.8 70.552C311.64 70.28 311.368 69.768 311.24 69.512L309.928 70.024ZM329.172 80.968C328.18 79.8 326.74 78.344 325.588 77.416L324.548 78.328C325.684 79.256 327.06 80.616 328.084 81.896L329.172 80.968ZM344.356 80.232V77.864H352.884V80.232H344.356ZM352.884 74.424V76.744H344.356V74.424H352.884ZM352.884 70.92V73.304H344.356V70.92H352.884ZM348.372 69.784C348.644 69.176 348.932 68.456 349.172 67.768L347.812 67.592C347.684 68.216 347.428 69.08 347.188 69.784H343.172V82.248H344.356V81.352H352.884V82.168H354.116V69.784H348.372ZM362.532 67.944C361.54 70.392 359.764 72.6 357.748 73.944C358.036 74.168 358.548 74.616 358.756 74.872C360.772 73.368 362.628 70.984 363.78 68.296L362.532 67.944ZM360.34 73.624V74.776H363.604C363.236 77.464 362.356 80.008 358.596 81.256C358.868 81.512 359.204 81.992 359.364 82.296C363.428 80.824 364.452 77.928 364.868 74.776H368.996C368.804 78.808 368.58 80.408 368.164 80.808C368.02 80.984 367.828 81.016 367.492 81.016C367.124 81.016 366.132 81 365.092 80.904C365.316 81.256 365.46 81.736 365.492 82.088C366.484 82.136 367.476 82.168 368.004 82.12C368.564 82.056 368.9 81.96 369.236 81.56C369.78 80.952 370.02 79.112 370.244 74.2C370.26 74.04 370.276 73.624 370.276 73.624H360.34ZM366.932 68.36C368.116 70.728 370.132 73.304 371.892 74.728C372.116 74.392 372.564 73.928 372.868 73.672C371.14 72.456 369.092 70.056 368.052 67.912L366.932 68.36ZM386.084 70.312C385.748 70.6 385.412 70.808 384.948 71.064C384.084 71.56 382.372 72.392 380.884 73.288C380.196 72.04 379.396 70.328 378.756 68.6L377.492 69.112C378.228 70.84 379.06 72.696 379.796 73.992C378.1 75.176 377.06 76.472 377.06 78.104C377.06 80.472 379.22 81.368 382.196 81.368C384.18 81.368 386.004 81.192 387.204 80.984V79.544C385.972 79.864 383.86 80.088 382.132 80.088C379.636 80.088 378.388 79.272 378.388 77.96C378.388 76.76 379.268 75.72 380.74 74.76C382.292 73.736 384.5 72.696 385.556 72.152C386.02 71.912 386.42 71.704 386.772 71.48L386.084 70.312ZM403.412 69.992C401.476 70.424 399.14 70.68 397.236 70.76C397.316 70.408 397.364 70.088 397.412 69.848C397.492 69.432 397.588 68.936 397.7 68.52L396.276 68.44C396.292 68.872 396.276 69.24 396.196 69.752C396.164 70.024 396.116 70.376 396.036 70.792H395.78C394.82 70.792 393.604 70.664 392.772 70.52L392.788 71.784C393.7 71.864 394.724 71.928 395.796 71.928H395.812C395.412 73.72 394.772 75.992 393.972 77.56L395.156 77.992C395.3 77.704 395.444 77.496 395.652 77.256C396.692 75.992 398.436 75.368 400.324 75.368C402.18 75.368 403.14 76.264 403.14 77.448C403.14 80.04 399.588 80.68 395.94 80.168L396.292 81.432C401.092 81.96 404.452 80.712 404.452 77.416C404.452 75.56 402.98 74.264 400.452 74.264C398.692 74.264 397.396 74.664 396.02 75.64C396.356 74.728 396.724 73.224 397.012 71.896C399.044 71.816 401.572 71.56 403.428 71.224L403.412 69.992ZM423.3 69.64C422.996 69.048 422.372 68.04 421.956 67.464L421.108 67.816C421.556 68.424 422.084 69.336 422.436 70.024L423.3 69.64ZM421.508 70.296C421.172 69.656 420.58 68.664 420.18 68.104L419.332 68.456C419.764 69.064 420.308 70.04 420.628 70.68L421.508 70.296ZM413.028 68.472C413.044 69.544 412.852 70.776 412.628 71.912C411.668 71.992 410.756 72.072 410.228 72.088C409.716 72.104 409.316 72.104 408.82 72.088L408.948 73.48C409.348 73.4 409.988 73.336 410.372 73.288C410.788 73.24 411.54 73.16 412.372 73.08C411.828 75.192 410.66 78.76 409.044 80.92L410.34 81.448C412.004 78.792 413.092 75.224 413.668 72.952C414.356 72.888 414.98 72.84 415.364 72.84C416.388 72.84 417.044 73.096 417.044 74.536C417.044 76.248 416.804 78.312 416.292 79.368C415.956 80.056 415.492 80.184 414.916 80.184C414.468 80.184 413.636 80.056 412.964 79.832L413.172 81.192C413.684 81.304 414.436 81.416 415.044 81.416C416.068 81.416 416.852 81.16 417.364 80.104C418.02 78.776 418.276 76.28 418.276 74.392C418.276 72.248 417.124 71.688 415.7 71.688C415.316 71.688 414.66 71.736 413.924 71.8C414.1 70.952 414.244 70.024 414.34 69.56C414.388 69.24 414.468 68.92 414.532 68.616L413.028 68.472ZM418.804 70.968C419.908 72.264 421.156 75.032 421.636 76.664L422.868 76.056C422.34 74.584 420.964 71.704 419.972 70.424L418.804 70.968ZM435.988 75.64C435.988 78.488 433.268 79.992 429.428 80.472L430.18 81.688C434.292 81.08 437.348 79.128 437.348 75.688C437.348 73.432 435.668 72.168 433.412 72.168C431.604 72.168 429.796 72.68 428.676 72.936C428.212 73.032 427.668 73.128 427.236 73.176L427.636 74.648C428.02 74.504 428.484 74.312 428.964 74.184C429.908 73.912 431.46 73.368 433.284 73.368C434.916 73.368 435.988 74.312 435.988 75.64ZM429.348 68.504L429.14 69.72C430.932 70.04 434.132 70.36 435.892 70.472L436.084 69.24C434.532 69.224 431.092 68.904 429.348 68.504ZM453.284 70.312C452.948 70.6 452.612 70.808 452.148 71.064C451.284 71.56 449.572 72.392 448.084 73.288C447.396 72.04 446.596 70.328 445.956 68.6L444.692 69.112C445.428 70.84 446.26 72.696 446.996 73.992C445.3 75.176 444.26 76.472 444.26 78.104C444.26 80.472 446.42 81.368 449.396 81.368C451.38 81.368 453.204 81.192 454.404 80.984V79.544C453.172 79.864 451.06 80.088 449.332 80.088C446.836 80.088 445.588 79.272 445.588 77.96C445.588 76.76 446.468 75.72 447.94 74.76C449.492 73.736 451.7 72.696 452.756 72.152C453.22 71.912 453.62 71.704 453.972 71.48L453.284 70.312ZM461.908 71.096C463.172 71.208 464.516 71.272 466.1 71.272C467.556 71.272 469.3 71.16 470.372 71.08V69.768C469.236 69.88 467.62 69.992 466.1 69.992C464.516 69.992 463.06 69.928 461.908 69.784V71.096ZM461.252 76.056C461.108 76.712 460.932 77.448 460.932 78.28C460.932 80.264 462.804 81.32 466.02 81.32C468.276 81.32 470.292 81.08 471.428 80.776L471.412 79.4C470.212 79.768 468.18 80.008 465.988 80.008C463.46 80.008 462.244 79.176 462.244 77.992C462.244 77.4 462.372 76.824 462.564 76.184L461.252 76.056ZM478.772 69.336L478.82 70.664C479.14 70.616 479.556 70.584 479.908 70.552C480.692 70.504 483.316 70.392 484.292 70.344C482.932 71.56 478.932 74.904 476.724 76.968L477.652 77.96C479.332 76.184 480.948 74.584 483.828 74.584C485.86 74.584 487.172 75.64 487.172 77.144C487.172 79.56 484.26 80.76 480.18 80.264L480.564 81.56C485.428 81.944 488.5 80.248 488.5 77.16C488.5 74.984 486.628 73.496 484.068 73.496C483.332 73.496 482.564 73.592 481.684 73.944C482.852 72.92 484.756 71.4 485.94 70.488C486.1 70.376 486.42 70.136 486.628 70.04L485.876 69.096C485.636 69.176 485.268 69.224 484.996 69.24C483.988 69.304 480.676 69.384 479.844 69.384C479.412 69.384 479.06 69.368 478.772 69.336ZM494.58 68.888C494.58 69.224 494.516 69.64 494.468 70.008C494.276 71.304 493.764 74.024 493.764 76.36C493.764 78.504 494.02 80.328 494.34 81.448L495.492 81.368L495.444 80.808C495.444 80.632 495.476 80.328 495.524 80.104C495.668 79.352 496.244 77.672 496.644 76.552L495.956 76.04C495.7 76.664 495.348 77.592 495.076 78.312C494.98 77.544 494.948 76.904 494.948 76.136C494.948 74.36 495.412 71.528 495.716 70.072C495.78 69.784 495.924 69.272 496.02 69L494.58 68.888ZM498.484 76.568C498.34 77.24 498.228 77.864 498.228 78.44C498.228 79.928 499.412 80.808 502.068 80.808C503.716 80.808 505.044 80.68 506.02 80.488L506.004 79.144C504.724 79.432 503.508 79.56 502.084 79.56C499.908 79.56 499.428 78.856 499.428 78.136C499.428 77.704 499.492 77.256 499.636 76.68L498.484 76.568ZM499.028 71.528C500.756 71.704 503.828 71.704 505.524 71.528V70.216C503.94 70.44 500.74 70.504 499.012 70.216L499.028 71.528ZM523.284 70.312V69.304H513.316C513.508 68.84 513.684 68.36 513.844 67.864L512.612 67.576C511.956 69.816 510.724 71.864 509.172 73.144C509.492 73.336 510.02 73.704 510.26 73.912C511.236 73 512.132 71.752 512.852 70.312H523.284ZM521.764 72.568V71.576H512.58V72.568H521.764ZM516.884 75.144C516.388 76.04 515.764 76.888 515.044 77.656C514.02 76.968 512.964 76.328 511.988 75.784L511.14 76.568C512.132 77.128 513.188 77.8 514.18 78.504C512.852 79.72 511.284 80.712 509.604 81.432C509.86 81.64 510.308 82.104 510.484 82.344C512.148 81.544 513.732 80.472 515.108 79.176C516.26 80.04 517.252 80.904 517.892 81.64L518.836 80.744C518.148 80.008 517.124 79.144 515.972 78.312C516.74 77.464 517.428 76.536 518.004 75.528L516.884 75.144ZM510.756 73.848V74.872H519.908C520.004 79.24 520.34 82.216 522.452 82.232C523.428 82.216 523.684 81.496 523.796 79.496C523.54 79.336 523.188 79.048 522.964 78.808C522.932 80.152 522.852 81.064 522.532 81.064C521.332 81.064 521.108 77.976 521.092 73.848H510.756ZM537.412 68.456L536.564 68.808C536.996 69.432 537.556 70.392 537.86 71.048L538.724 70.664C538.404 70.008 537.828 69.032 537.412 68.456ZM539.172 67.8L538.34 68.168C538.788 68.776 539.316 69.688 539.668 70.376L540.532 69.992C540.228 69.4 539.62 68.392 539.172 67.8ZM526.324 72.92L526.916 74.344C528.164 73.832 532.212 72.088 534.804 72.088C536.948 72.088 538.164 73.4 538.164 75.064C538.164 78.296 534.468 79.544 530.324 79.656L530.884 80.984C535.78 80.712 539.556 78.872 539.556 75.08C539.556 72.424 537.46 70.888 534.836 70.888C532.516 70.888 529.412 72.04 528.068 72.456C527.476 72.648 526.9 72.808 526.324 72.92ZM545.732 69.864L544.196 69.832C544.276 70.216 544.292 70.872 544.292 71.24C544.292 72.168 544.308 74.088 544.468 75.464C544.9 79.576 546.34 81.064 547.828 81.064C548.916 81.064 549.892 80.152 550.836 77.464L549.828 76.312C549.412 77.912 548.676 79.544 547.86 79.544C546.74 79.544 545.972 77.8 545.716 75.144C545.604 73.848 545.588 72.392 545.604 71.4C545.62 70.984 545.668 70.248 545.732 69.864ZM553.988 70.296L552.74 70.728C554.244 72.584 555.204 75.72 555.476 78.568L556.772 78.056C556.548 75.384 555.412 72.136 553.988 70.296ZM567.508 74.472C568.484 74.36 569.444 74.296 570.436 74.296C571.364 74.296 572.308 74.392 573.108 74.488L573.14 73.272C572.292 73.176 571.316 73.144 570.404 73.144C569.38 73.144 568.34 73.192 567.508 73.272V74.472ZM568.532 70.312C567.572 70.568 566.532 70.76 565.508 70.888L565.748 69.72C565.812 69.4 565.924 68.808 566.036 68.456L564.484 68.328C564.516 68.664 564.484 69.192 564.436 69.64C564.388 69.96 564.308 70.456 564.196 71.032C563.588 71.064 563.028 71.096 562.5 71.096C561.924 71.096 561.348 71.08 560.596 70.984L560.644 72.232C561.204 72.264 561.78 72.296 562.484 72.296C562.932 72.296 563.412 72.28 563.924 72.248C563.796 72.824 563.668 73.4 563.524 73.928C562.932 76.168 561.812 79.384 560.868 81.016L562.276 81.48C563.108 79.752 564.18 76.488 564.756 74.216C564.932 73.544 565.108 72.808 565.252 72.12C566.356 71.992 567.492 71.816 568.532 71.576V70.312ZM566.708 77.016C566.564 77.688 566.468 78.28 566.468 78.888C566.468 80.456 567.78 81.224 570.276 81.224C571.428 81.224 572.484 81.128 573.332 81.016L573.38 79.72C572.42 79.896 571.316 80.024 570.292 80.024C568.036 80.024 567.684 79.304 567.684 78.552C567.684 78.152 567.764 77.656 567.908 77.128L566.708 77.016ZM579.764 68.376C579.748 68.76 579.7 69.24 579.636 69.736C579.444 71.016 579.156 73.352 579.156 74.856C579.156 75.88 579.236 76.776 579.316 77.368L580.564 77.272C580.452 76.488 580.452 75.944 580.532 75.336C580.724 73.256 582.548 70.392 584.516 70.392C586.196 70.392 587.028 72.184 587.028 74.68C587.028 78.664 584.34 80.04 580.9 80.568L581.652 81.72C585.588 81 588.356 79.064 588.356 74.664C588.356 71.336 586.836 69.224 584.724 69.224C582.724 69.224 581.06 71.192 580.436 72.824C580.532 71.72 580.836 69.592 581.172 68.424L579.764 68.376ZM597.331 80.968C596.339 79.8 594.899 78.344 593.747 77.416L592.707 78.328C593.843 79.256 595.219 80.616 596.243 81.896L597.331 80.968ZM622.067 71.336C621.747 70.68 621.171 69.704 620.755 69.128L619.907 69.496C620.339 70.104 620.883 71.064 621.203 71.72L622.067 71.336ZM616.787 74.696C617.763 74.584 618.723 74.536 619.715 74.536C620.643 74.536 621.587 74.616 622.387 74.712L622.419 73.496C621.571 73.4 620.595 73.368 619.683 73.368C618.659 73.368 617.619 73.432 616.787 73.496V74.696ZM617.811 70.536C616.851 70.792 615.811 70.984 614.787 71.112L615.027 69.944C615.091 69.64 615.203 69.032 615.315 68.696L613.763 68.568C613.795 68.888 613.763 69.416 613.715 69.864C613.667 70.184 613.587 70.68 613.475 71.256C612.867 71.288 612.307 71.32 611.779 71.32C611.203 71.32 610.627 71.304 609.875 71.208L609.923 72.456C610.483 72.504 611.059 72.52 611.763 72.52C612.211 72.52 612.691 72.504 613.203 72.472C613.075 73.048 612.947 73.624 612.803 74.152C612.211 76.392 611.091 79.608 610.147 81.24L611.555 81.704C612.387 79.992 613.459 76.712 614.035 74.456C614.211 73.768 614.387 73.048 614.531 72.344C615.635 72.232 616.771 72.04 617.811 71.816V70.536ZM615.987 77.24C615.843 77.912 615.747 78.52 615.747 79.112C615.747 80.68 617.059 81.464 619.555 81.464C620.707 81.464 621.763 81.352 622.611 81.24L622.659 79.944C621.699 80.136 620.595 80.248 619.571 80.248C617.315 80.248 616.963 79.528 616.963 78.792C616.963 78.376 617.043 77.88 617.187 77.352L615.987 77.24ZM621.683 68.84C622.131 69.448 622.659 70.36 623.011 71.064L623.875 70.68C623.571 70.072 622.947 69.08 622.515 68.472L621.683 68.84ZM640.771 78.344C640.035 79.144 639.187 79.656 638.387 79.656C637.827 79.656 637.571 79.24 637.571 78.696C637.571 77.096 638.163 74.36 638.163 72.776C638.163 71.48 637.411 70.648 635.923 70.648C634.339 70.648 632.307 72.168 631.075 73.304C631.107 73 631.123 72.696 631.155 72.408C631.395 72.024 631.667 71.592 631.859 71.304L631.395 70.744L631.315 70.776C631.427 69.672 631.555 68.776 631.635 68.392L630.115 68.344C630.195 68.744 630.179 69.16 630.179 69.528C630.179 69.704 630.147 70.264 630.099 71.016C629.283 71.144 628.355 71.24 627.843 71.272C627.459 71.304 627.155 71.304 626.803 71.288L626.931 72.616C627.923 72.488 629.299 72.296 630.019 72.216C629.987 72.712 629.955 73.224 629.923 73.736C629.123 74.984 627.299 77.448 626.419 78.552L627.219 79.656C627.987 78.6 629.027 77.08 629.795 75.912C629.795 76.152 629.779 76.36 629.779 76.52C629.747 78.28 629.747 79.064 629.731 80.584C629.731 80.84 629.699 81.304 629.683 81.528H631.075C631.043 81.24 631.011 80.84 630.995 80.568C630.931 79.144 630.931 78.184 630.931 76.744C630.931 76.184 630.947 75.56 630.979 74.888C632.435 73.32 634.355 71.832 635.635 71.832C636.435 71.832 636.899 72.216 636.899 73.128C636.899 74.664 636.307 77.272 636.307 79.032C636.307 80.344 637.027 81.048 638.067 81.048C639.155 81.048 640.147 80.568 640.979 79.72L640.771 78.344ZM178.536 100.408C178.536 101.48 178.36 102.712 178.136 103.848C177.176 103.928 176.248 104.008 175.72 104.024C175.224 104.04 174.808 104.056 174.312 104.024L174.44 105.416C174.856 105.352 175.496 105.272 175.864 105.224C176.28 105.176 177.048 105.096 177.864 105.016C177.336 107.128 176.152 110.712 174.536 112.872L175.848 113.4C177.528 110.712 178.6 107.16 179.176 104.888C179.864 104.824 180.488 104.776 180.872 104.776C181.88 104.776 182.536 105.032 182.536 106.472C182.536 108.2 182.296 110.248 181.8 111.32C181.464 112.008 181 112.136 180.408 112.136C179.976 112.136 179.128 111.992 178.472 111.784L178.68 113.128C179.176 113.24 179.944 113.368 180.536 113.368C181.576 113.368 182.36 113.096 182.856 112.04C183.512 110.712 183.784 108.216 183.784 106.328C183.784 104.184 182.616 103.64 181.208 103.64C180.824 103.64 180.168 103.688 179.432 103.736C179.608 102.888 179.752 101.96 179.832 101.496C179.896 101.192 179.96 100.856 180.024 100.568L178.536 100.408ZM184.296 102.76C185.416 104.088 186.664 106.872 187.128 108.504L188.376 107.912C187.832 106.44 186.472 103.528 185.48 102.248L184.296 102.76ZM192.664 100.888C192.664 101.224 192.6 101.64 192.552 102.008C192.36 103.304 191.848 106.024 191.848 108.36C191.848 110.504 192.104 112.328 192.424 113.448L193.576 113.368L193.528 112.808C193.528 112.632 193.56 112.328 193.608 112.104C193.752 111.352 194.328 109.672 194.728 108.552L194.04 108.04C193.784 108.664 193.432 109.592 193.16 110.312C193.064 109.544 193.032 108.904 193.032 108.136C193.032 106.36 193.496 103.528 193.8 102.072C193.864 101.784 194.008 101.272 194.104 101L192.664 100.888ZM196.568 108.568C196.424 109.24 196.312 109.864 196.312 110.44C196.312 111.928 197.496 112.808 200.152 112.808C201.8 112.808 203.128 112.68 204.104 112.488L204.088 111.144C202.808 111.432 201.592 111.56 200.168 111.56C197.992 111.56 197.512 110.856 197.512 110.136C197.512 109.704 197.576 109.256 197.72 108.68L196.568 108.568ZM197.112 103.528C198.84 103.704 201.912 103.704 203.608 103.528V102.216C202.024 102.44 198.824 102.504 197.096 102.216L197.112 103.528ZM216.376 105.96C215.688 107.704 214.744 108.984 213.704 109.96C213.544 109.048 213.432 108.088 213.432 107.08C213.432 106.872 213.432 106.664 213.432 106.456C214.184 106.184 215.096 105.96 216.12 105.96H216.376ZM212.312 107.224C212.312 108.408 212.456 109.672 212.68 110.808C211.88 111.368 211.112 111.64 210.504 111.64C209.912 111.64 209.608 111.32 209.608 110.68C209.608 109.4 210.776 107.832 212.312 106.952V107.224ZM217.88 105.08C217.976 104.84 218.104 104.408 218.2 104.2L216.92 103.88C216.904 104.136 216.824 104.552 216.76 104.792L216.712 104.936C216.52 104.92 216.328 104.92 216.136 104.92C215.336 104.92 214.36 105.064 213.48 105.336C213.528 104.664 213.576 103.992 213.64 103.384C215.576 103.288 217.688 103.08 219.352 102.808L219.336 101.608C217.704 101.976 215.784 102.184 213.784 102.28C213.848 101.816 213.912 101.416 213.976 101.08C214.024 100.872 214.088 100.584 214.168 100.376L212.824 100.344C212.824 100.536 212.808 100.84 212.776 101.096C212.744 101.432 212.696 101.848 212.648 102.312C212.296 102.328 211.944 102.328 211.592 102.328C210.92 102.328 209.528 102.216 208.984 102.136L209.016 103.336C209.656 103.368 210.888 103.432 211.576 103.432C211.88 103.432 212.2 103.432 212.536 103.416C212.472 104.152 212.392 104.952 212.36 105.752C210.184 106.744 208.408 108.84 208.408 110.872C208.408 112.232 209.224 112.872 210.296 112.872C211.144 112.872 212.088 112.536 212.952 112.008C213.032 112.328 213.128 112.616 213.208 112.888L214.376 112.536C214.248 112.136 214.12 111.704 213.992 111.256C215.336 110.12 216.616 108.376 217.496 106.136C218.984 106.536 219.768 107.624 219.768 108.824C219.768 110.872 218.008 112.344 215.16 112.648L215.848 113.72C219.528 113.144 221.032 111.16 221.032 108.888C221.032 107.144 219.848 105.672 217.864 105.144L217.88 105.08ZM227.192 103.096C228.456 103.208 229.8 103.272 231.384 103.272C232.84 103.272 234.584 103.16 235.656 103.08V101.768C234.52 101.88 232.904 101.992 231.384 101.992C229.8 101.992 228.344 101.928 227.192 101.784V103.096ZM226.536 108.056C226.392 108.712 226.216 109.448 226.216 110.28C226.216 112.264 228.088 113.32 231.304 113.32C233.56 113.32 235.576 113.08 236.712 112.776L236.696 111.4C235.496 111.768 233.464 112.008 231.272 112.008C228.744 112.008 227.528 111.176 227.528 109.992C227.528 109.4 227.656 108.824 227.848 108.184L226.536 108.056ZM255.784 101.64C255.48 101.048 254.856 100.04 254.44 99.464L253.592 99.816C254.04 100.424 254.568 101.336 254.92 102.024L255.784 101.64ZM253.992 102.296C253.656 101.656 253.064 100.664 252.664 100.104L251.816 100.456C252.248 101.064 252.792 102.04 253.112 102.68L253.992 102.296ZM245.512 100.472C245.528 101.544 245.336 102.776 245.112 103.912C244.152 103.992 243.24 104.072 242.712 104.088C242.2 104.104 241.8 104.104 241.304 104.088L241.432 105.48C241.832 105.4 242.472 105.336 242.856 105.288C243.272 105.24 244.024 105.16 244.856 105.08C244.312 107.192 243.144 110.76 241.528 112.92L242.824 113.448C244.488 110.792 245.576 107.224 246.152 104.952C246.84 104.888 247.464 104.84 247.848 104.84C248.872 104.84 249.528 105.096 249.528 106.536C249.528 108.248 249.288 110.312 248.776 111.368C248.44 112.056 247.976 112.184 247.4 112.184C246.952 112.184 246.12 112.056 245.448 111.832L245.656 113.192C246.168 113.304 246.92 113.416 247.528 113.416C248.552 113.416 249.336 113.16 249.848 112.104C250.504 110.776 250.76 108.28 250.76 106.392C250.76 104.248 249.608 103.688 248.184 103.688C247.8 103.688 247.144 103.736 246.408 103.8C246.584 102.952 246.728 102.024 246.824 101.56C246.872 101.24 246.952 100.92 247.016 100.616L245.512 100.472ZM251.288 102.968C252.392 104.264 253.64 107.032 254.12 108.664L255.352 108.056C254.824 106.584 253.448 103.704 252.456 102.424L251.288 102.968ZM272.296 110.344C271.56 111.144 270.712 111.656 269.912 111.656C269.352 111.656 269.096 111.24 269.096 110.696C269.096 109.096 269.688 106.36 269.688 104.776C269.688 103.48 268.936 102.648 267.448 102.648C265.864 102.648 263.832 104.168 262.6 105.304C262.632 105 262.648 104.696 262.68 104.408C262.92 104.024 263.192 103.592 263.384 103.304L262.92 102.744L262.84 102.776C262.952 101.672 263.08 100.776 263.16 100.392L261.64 100.344C261.72 100.744 261.704 101.16 261.704 101.528C261.704 101.704 261.672 102.264 261.624 103.016C260.808 103.144 259.88 103.24 259.368 103.272C258.984 103.304 258.68 103.304 258.328 103.288L258.456 104.616C259.448 104.488 260.824 104.296 261.544 104.216C261.512 104.712 261.48 105.224 261.448 105.736C260.648 106.984 258.824 109.448 257.944 110.552L258.744 111.656C259.512 110.6 260.552 109.08 261.32 107.912C261.32 108.152 261.304 108.36 261.304 108.52C261.272 110.28 261.272 111.064 261.256 112.584C261.256 112.84 261.224 113.304 261.208 113.528H262.6C262.568 113.24 262.536 112.84 262.52 112.568C262.456 111.144 262.456 110.184 262.456 108.744C262.456 108.184 262.472 107.56 262.504 106.888C263.96 105.32 265.88 103.832 267.16 103.832C267.96 103.832 268.424 104.216 268.424 105.128C268.424 106.664 267.832 109.272 267.832 111.032C267.832 112.344 268.552 113.048 269.592 113.048C270.68 113.048 271.672 112.568 272.504 111.72L272.296 110.344ZM282.392 106.472C283.368 106.36 284.328 106.296 285.32 106.296C286.248 106.296 287.192 106.392 287.992 106.488L288.024 105.272C287.176 105.176 286.2 105.144 285.288 105.144C284.264 105.144 283.224 105.192 282.392 105.272V106.472ZM283.416 102.312C282.456 102.568 281.416 102.76 280.392 102.888L280.632 101.72C280.696 101.4 280.808 100.808 280.92 100.456L279.368 100.328C279.4 100.664 279.368 101.192 279.32 101.64C279.272 101.96 279.192 102.456 279.08 103.032C278.472 103.064 277.912 103.096 277.384 103.096C276.808 103.096 276.232 103.08 275.48 102.984L275.528 104.232C276.088 104.264 276.664 104.296 277.368 104.296C277.816 104.296 278.296 104.28 278.808 104.248C278.68 104.824 278.552 105.4 278.408 105.928C277.816 108.168 276.696 111.384 275.752 113.016L277.16 113.48C277.992 111.752 279.064 108.488 279.64 106.216C279.816 105.544 279.992 104.808 280.136 104.12C281.24 103.992 282.376 103.816 283.416 103.576V102.312ZM281.592 109.016C281.448 109.688 281.352 110.28 281.352 110.888C281.352 112.456 282.664 113.224 285.16 113.224C286.312 113.224 287.368 113.128 288.216 113.016L288.264 111.72C287.304 111.896 286.2 112.024 285.176 112.024C282.92 112.024 282.568 111.304 282.568 110.552C282.568 110.152 282.648 109.656 282.792 109.128L281.592 109.016ZM294.648 100.376C294.632 100.76 294.584 101.24 294.52 101.736C294.328 103.016 294.04 105.352 294.04 106.856C294.04 107.88 294.12 108.776 294.2 109.368L295.448 109.272C295.336 108.488 295.336 107.944 295.416 107.336C295.608 105.256 297.432 102.392 299.4 102.392C301.08 102.392 301.912 104.184 301.912 106.68C301.912 110.664 299.224 112.04 295.784 112.568L296.536 113.72C300.472 113 303.24 111.064 303.24 106.664C303.24 103.336 301.72 101.224 299.608 101.224C297.608 101.224 295.944 103.192 295.32 104.824C295.416 103.72 295.72 101.592 296.056 100.424L294.648 100.376ZM315.08 109.256C314.2 109.256 313.464 108.68 313.464 107.688C313.464 106.664 314.248 106.024 315.064 106.024C315.688 106.024 316.216 106.312 316.472 107C316.616 108.504 316.008 109.256 315.08 109.256ZM317.528 103.528C319.848 103.528 321.288 103.56 322.184 103.608L322.2 102.408C321.432 102.408 319.48 102.392 317.56 102.392H317.32C317.32 101.976 317.336 101.608 317.336 101.368L317.416 100.376H315.96C315.992 100.568 316.04 101.032 316.056 101.368C316.072 101.592 316.088 101.96 316.088 102.408C313.736 102.44 310.76 102.536 309 102.568L309.032 103.816C311.016 103.672 313.704 103.56 316.104 103.544C316.12 104.088 316.12 104.648 316.12 105.112C315.8 105 315.448 104.936 315.064 104.936C313.56 104.936 312.264 106.136 312.264 107.704C312.264 109.416 313.544 110.36 314.888 110.36C315.416 110.36 315.864 110.232 316.248 109.96C315.592 111.368 314.12 112.232 312.04 112.712L313.144 113.784C316.824 112.68 317.864 110.296 317.864 108.152C317.864 107.368 317.688 106.664 317.352 106.12C317.336 105.4 317.32 104.424 317.32 103.528H317.528ZM332.184 112.472C331 112.472 330.088 112.024 330.088 111.24C330.088 110.696 330.632 110.264 331.352 110.264C332.552 110.264 333.304 111.128 333.448 112.376C333.064 112.44 332.632 112.472 332.184 112.472ZM335.448 100.968C335.272 101.016 335.048 101.048 334.584 101.096C333.752 101.176 329.992 101.288 329.176 101.288C328.856 101.288 328.408 101.288 328.056 101.24L328.088 102.568C328.424 102.504 328.792 102.488 329.16 102.472C329.976 102.424 333.096 102.28 333.928 102.248C333.144 102.952 331.176 104.616 330.296 105.352C329.368 106.12 327.336 107.816 326.024 108.904L326.952 109.848C328.968 107.8 330.408 106.696 333.016 106.696C335.016 106.696 336.584 107.832 336.584 109.384C336.584 110.68 335.864 111.592 334.616 112.072C334.408 110.6 333.336 109.272 331.352 109.272C329.88 109.272 328.904 110.264 328.904 111.352C328.904 112.664 330.232 113.624 332.392 113.624C335.736 113.624 337.864 111.96 337.864 109.4C337.864 107.256 335.96 105.656 333.32 105.656C332.616 105.656 331.896 105.752 331.176 105.992C332.392 104.968 334.52 103.096 335.304 102.504C335.544 102.328 335.896 102.088 336.184 101.896L335.448 100.968ZM344.792 103.096C346.056 103.208 347.4 103.272 348.984 103.272C350.44 103.272 352.184 103.16 353.256 103.08V101.768C352.12 101.88 350.504 101.992 348.984 101.992C347.4 101.992 345.944 101.928 344.792 101.784V103.096ZM344.136 108.056C343.992 108.712 343.816 109.448 343.816 110.28C343.816 112.264 345.688 113.32 348.904 113.32C351.16 113.32 353.176 113.08 354.312 112.776L354.296 111.4C353.096 111.768 351.064 112.008 348.872 112.008C346.344 112.008 345.128 111.176 345.128 109.992C345.128 109.4 345.256 108.824 345.448 108.184L344.136 108.056ZM369.768 102.312C369.432 102.6 369.096 102.808 368.632 103.064C367.768 103.56 366.056 104.392 364.568 105.288C363.88 104.04 363.08 102.328 362.44 100.6L361.176 101.112C361.912 102.84 362.744 104.696 363.48 105.992C361.784 107.176 360.744 108.472 360.744 110.104C360.744 112.472 362.904 113.368 365.88 113.368C367.864 113.368 369.688 113.192 370.888 112.984V111.544C369.656 111.864 367.544 112.088 365.816 112.088C363.32 112.088 362.072 111.272 362.072 109.96C362.072 108.76 362.952 107.72 364.424 106.76C365.976 105.736 368.184 104.696 369.24 104.152C369.704 103.912 370.104 103.704 370.456 103.48L369.768 102.312ZM377.704 109.096C376.376 109.096 375.272 110.184 375.272 111.528C375.272 112.872 376.376 113.976 377.704 113.976C379.064 113.976 380.152 112.872 380.152 111.528C380.152 110.184 379.064 109.096 377.704 109.096ZM377.704 113.16C376.824 113.16 376.088 112.44 376.088 111.528C376.088 110.648 376.824 109.912 377.704 109.912C378.616 109.912 379.32 110.648 379.32 111.528C379.32 112.44 378.616 113.16 377.704 113.16ZM176.84 144.232V141.864H185.368V144.232H176.84ZM185.368 138.424V140.744H176.84V138.424H185.368ZM185.368 134.92V137.304H176.84V134.92H185.368ZM180.856 133.784C181.128 133.176 181.416 132.456 181.656 131.768L180.296 131.592C180.168 132.216 179.912 133.08 179.672 133.784H175.656V146.248H176.84V145.352H185.368V146.168H186.6V133.784H180.856ZM195.016 131.944C194.024 134.392 192.248 136.6 190.232 137.944C190.52 138.168 191.032 138.616 191.24 138.872C193.256 137.368 195.112 134.984 196.264 132.296L195.016 131.944ZM192.824 137.624V138.776H196.088C195.72 141.464 194.84 144.008 191.08 145.256C191.352 145.512 191.688 145.992 191.848 146.296C195.912 144.824 196.936 141.928 197.352 138.776H201.48C201.288 142.808 201.064 144.408 200.648 144.808C200.504 144.984 200.312 145.016 199.976 145.016C199.608 145.016 198.616 145 197.576 144.904C197.8 145.256 197.944 145.736 197.976 146.088C198.968 146.136 199.96 146.168 200.488 146.12C201.048 146.056 201.384 145.96 201.72 145.56C202.264 144.952 202.504 143.112 202.728 138.2C202.744 138.04 202.76 137.624 202.76 137.624H192.824ZM199.416 132.36C200.6 134.728 202.616 137.304 204.376 138.728C204.6 138.392 205.048 137.928 205.352 137.672C203.624 136.456 201.576 134.056 200.536 131.912L199.416 132.36ZM218.568 134.312C218.232 134.6 217.896 134.808 217.432 135.064C216.568 135.56 214.856 136.392 213.368 137.288C212.68 136.04 211.88 134.328 211.24 132.6L209.976 133.112C210.712 134.84 211.544 136.696 212.28 137.992C210.584 139.176 209.544 140.472 209.544 142.104C209.544 144.472 211.704 145.368 214.68 145.368C216.664 145.368 218.488 145.192 219.688 144.984V143.544C218.456 143.864 216.344 144.088 214.616 144.088C212.12 144.088 210.872 143.272 210.872 141.96C210.872 140.76 211.752 139.72 213.224 138.76C214.776 137.736 216.984 136.696 218.04 136.152C218.504 135.912 218.904 135.704 219.256 135.48L218.568 134.312ZM235.464 133.672V134.792H232.248C232.36 134.456 232.504 134.072 232.632 133.672H235.464ZM238.472 134.792H236.552V132.808H232.904C233.016 132.44 233.128 132.088 233.224 131.752L232.072 131.608C231.976 131.976 231.848 132.392 231.736 132.808H229.08V133.672H231.448C231.32 134.072 231.192 134.456 231.064 134.792H228.04V135.656H238.472V134.792ZM231.096 142.136V140.952H233.656V142.136H231.096ZM230.408 137.208H235.736V138.424H230.408V137.208ZM233.656 144.328H234.776V142.984H238.456V142.136H234.776V140.952H238.04V140.072H234.776V139.208H236.888V136.44H229.32V139.208H233.656V140.072H228.52V140.952H230.008V142.136H228.04V142.984H233.656V144.328ZM227.64 134.536C227.176 133.784 226.152 132.744 225.256 132.04L224.344 132.68C225.224 133.432 226.232 134.488 226.664 135.24L227.64 134.536ZM227.352 137.88H224.2V139H226.232V143.096C225.512 143.768 224.696 144.44 224.024 144.936L224.648 146.072C225.432 145.384 226.168 144.712 226.872 144.024C227.864 145.272 229.304 145.832 231.4 145.912C233.192 145.992 236.568 145.96 238.36 145.88C238.408 145.528 238.6 144.984 238.744 144.712C236.824 144.84 233.144 144.888 231.384 144.808C229.512 144.744 228.104 144.2 227.352 143.016V137.88ZM251.672 139.64C251.672 142.488 248.952 143.992 245.112 144.472L245.864 145.688C249.976 145.08 253.032 143.128 253.032 139.688C253.032 137.432 251.352 136.168 249.096 136.168C247.288 136.168 245.48 136.68 244.36 136.936C243.896 137.032 243.352 137.128 242.92 137.176L243.32 138.648C243.704 138.504 244.168 138.312 244.648 138.184C245.592 137.912 247.144 137.368 248.968 137.368C250.6 137.368 251.672 138.312 251.672 139.64ZM245.032 132.504L244.824 133.72C246.616 134.04 249.816 134.36 251.576 134.472L251.768 133.24C250.216 133.224 246.776 132.904 245.032 132.504ZM258.424 139.048C258.84 137.88 259.144 136.072 259.224 134.76L258.328 134.632C258.216 135.928 257.928 137.672 257.496 138.728L258.424 139.048ZM259.8 146.216H260.984V131.608H259.8V146.216ZM261.096 134.552C261.544 135.432 262.024 136.584 262.2 137.272L263.096 136.84C262.904 136.168 262.408 135.032 261.928 134.168L261.096 134.552ZM268.12 144.536V140.536H271.384V139.432H268.12V136.12H271.736V134.984H268.12V131.672H266.936V134.984H264.936C265.16 134.2 265.352 133.368 265.512 132.536L264.36 132.344C263.992 134.52 263.352 136.664 262.424 138.056C262.712 138.184 263.24 138.44 263.48 138.6C263.912 137.912 264.28 137.08 264.6 136.12H266.936V139.432H263.544V140.536H266.936V144.536H262.36V145.672H272.12V144.536H268.12ZM276.472 133.416H280.536V136.488H276.472V133.416ZM278.12 139.256C278.184 138.68 278.232 138.104 278.264 137.544H281.656V132.344H275.368V137.544H277.112C276.952 140.44 276.568 143.704 274.392 145.432C274.68 145.608 275.048 145.992 275.208 146.248C276.888 144.856 277.64 142.648 277.992 140.328H280.616C280.472 143.48 280.312 144.696 280.024 145.016C279.88 145.16 279.752 145.192 279.48 145.192C279.192 145.192 278.44 145.192 277.656 145.112C277.848 145.384 277.96 145.832 277.992 146.152C278.76 146.184 279.544 146.2 279.944 146.152C280.424 146.12 280.696 146.024 280.968 145.704C281.4 145.208 281.56 143.752 281.752 139.768C281.752 139.624 281.768 139.256 281.768 139.256H278.12ZM284.44 133.528H283.288V142.328H284.44V133.528ZM287.176 131.928V144.648C287.176 144.952 287.048 145.048 286.76 145.048C286.456 145.064 285.448 145.08 284.328 145.032C284.52 145.368 284.696 145.912 284.76 146.232C286.216 146.232 287.112 146.216 287.64 146.024C288.136 145.816 288.36 145.448 288.36 144.648V131.928H287.176ZM294.936 142.76C294.248 142.76 293.32 141.88 293.32 139.88C293.32 137.752 295.176 135.144 298.216 134.76C298.04 136.216 297.736 137.72 297.336 139.032C296.52 141.704 295.64 142.76 294.936 142.76ZM299.112 145.416C302.888 144.92 305.08 142.696 305.08 139.368C305.08 136.168 302.712 133.544 299 133.544C295.128 133.544 292.056 136.552 292.056 139.992C292.056 142.6 293.48 144.232 294.888 144.232C296.36 144.232 297.624 142.552 298.6 139.304C299.032 137.816 299.336 136.216 299.544 134.744C302.232 134.968 303.752 136.936 303.752 139.336C303.752 142.072 301.768 143.576 299.736 144.024C299.352 144.104 298.872 144.184 298.376 144.216L299.112 145.416ZM314.584 132.104C314.472 134.216 314.472 141.848 307.992 145.16C308.36 145.416 308.744 145.784 308.952 146.072C313 143.88 314.648 140.024 315.352 136.824C316.12 140.024 317.88 144.12 322.008 146.072C322.184 145.752 322.552 145.352 322.888 145.096C316.872 142.344 316.008 134.952 315.864 132.84C315.88 132.568 315.88 132.312 315.896 132.104H314.584ZM333.672 142.84C333.656 142.072 333.64 140.728 333.624 139.816C334.824 139.256 335.96 138.792 336.856 138.44C337.272 138.28 337.848 138.056 338.248 137.944L337.736 136.744C337.288 136.968 336.904 137.16 336.424 137.368C335.592 137.752 334.632 138.136 333.544 138.648C333.304 137.704 332.472 137.208 331.448 137.208C330.744 137.208 329.832 137.432 329.256 137.8C329.832 137.064 330.328 136.184 330.68 135.368C332.408 135.304 334.36 135.16 335.928 134.92L335.944 133.736C334.44 133.992 332.712 134.136 331.096 134.216C331.32 133.496 331.464 132.84 331.576 132.392L330.264 132.28C330.232 132.824 330.088 133.544 329.864 134.248C329.496 134.264 329.16 134.264 328.824 134.264C328.104 134.264 327 134.2 326.152 134.104V135.304C327.016 135.368 328.088 135.4 328.76 135.4H329.416C328.824 136.648 327.784 138.28 325.768 140.232L326.856 141.048C327.4 140.408 327.848 139.816 328.296 139.384C329.032 138.728 329.992 138.216 331.032 138.216C331.72 138.216 332.296 138.536 332.456 139.192C330.616 140.152 328.728 141.336 328.728 143.208C328.728 145.144 330.552 145.624 332.824 145.624C334.2 145.624 335.96 145.512 337.16 145.368L337.192 144.072C335.8 144.312 334.104 144.456 332.872 144.456C331.24 144.456 330.008 144.28 330.008 143.032C330.008 141.992 331.032 141.176 332.504 140.376C332.504 141.208 332.488 142.232 332.44 142.84H333.672ZM346.504 135.992C346.296 138.088 345.88 139.848 345.272 141.288C344.664 140.856 344.024 140.456 343.416 140.104C343.736 138.84 344.072 137.416 344.392 135.992H346.504ZM347 134.856L346.792 134.904H344.632C344.872 133.8 345.096 132.728 345.288 131.752L344.152 131.624C343.976 132.616 343.752 133.752 343.496 134.904H341.752V135.992H343.272C342.824 137.992 342.344 139.96 341.96 141.336L342.952 141.848L343.128 141.176C343.688 141.528 344.248 141.912 344.776 142.312C344.024 143.688 343.048 144.68 341.88 145.288C342.136 145.528 342.456 145.96 342.616 146.248C343.864 145.496 344.888 144.456 345.688 143.032C346.36 143.592 346.936 144.152 347.32 144.632L348.04 143.688C347.608 143.16 346.968 142.568 346.216 141.992C347 140.2 347.496 137.912 347.704 135.016L347 134.856ZM356.36 138.024H352.552V136.6C353.768 135.656 355.128 134.216 356.024 132.936L355.24 132.36L355 132.44H348.152V133.528H354.136C353.496 134.344 352.648 135.256 351.848 135.896H351.368V138.024H347.624V139.128H351.368V144.712C351.368 144.952 351.288 145.032 351.016 145.048C350.744 145.064 349.848 145.064 348.84 145.032C349.016 145.336 349.224 145.864 349.288 146.184C350.552 146.184 351.384 146.152 351.88 145.976C352.392 145.784 352.552 145.432 352.552 144.712V139.128H356.36V138.024ZM361.176 140.712C361 141.288 360.808 142.024 360.808 142.696C360.808 144.68 362.472 145.656 365.304 145.656C366.6 145.656 368.136 145.528 369.128 145.352L369.16 144.056C368.04 144.312 366.536 144.424 365.256 144.424C363 144.424 362.04 143.656 362.04 142.44C362.04 142.024 362.216 141.32 362.408 140.824L361.176 140.712ZM371.272 136.376C370.552 136.648 369.592 136.936 368.344 137.16C368.072 136.568 367.848 136.072 367.72 135.736L367.432 135.08C368.52 134.904 369.56 134.664 370.376 134.408L370.152 133.272C369.224 133.608 368.104 133.848 367 134.024C366.76 133.416 366.552 132.808 366.408 132.264L364.968 132.568C365.176 132.904 365.32 133.192 365.56 133.688C365.624 133.832 365.688 133.992 365.768 134.168C364.248 134.28 362.472 134.248 360.584 134.04L360.664 135.208C362.632 135.384 364.632 135.384 366.232 135.24C366.344 135.496 366.456 135.784 366.584 136.056L367.144 137.352C365.256 137.592 362.904 137.608 360.488 137.384L360.536 138.552C362.984 138.712 365.576 138.68 367.624 138.408C367.992 139.24 368.36 140.072 368.664 140.696C368.168 140.648 367.416 140.568 366.648 140.472L366.536 141.448C367.544 141.576 368.824 141.752 369.624 141.896L370.248 141.112C369.8 140.28 369.288 139.208 368.824 138.2C369.896 137.992 370.808 137.768 371.512 137.528L371.272 136.376ZM377.464 132.888C377.464 133.224 377.4 133.64 377.352 134.008C377.16 135.304 376.648 138.024 376.648 140.36C376.648 142.504 376.904 144.328 377.224 145.448L378.376 145.368L378.328 144.808C378.328 144.632 378.36 144.328 378.408 144.104C378.552 143.352 379.128 141.672 379.528 140.552L378.84 140.04C378.584 140.664 378.232 141.592 377.96 142.312C377.864 141.544 377.832 140.904 377.832 140.136C377.832 138.36 378.296 135.528 378.6 134.072C378.664 133.784 378.808 133.272 378.904 133L377.464 132.888ZM381.368 140.568C381.224 141.24 381.112 141.864 381.112 142.44C381.112 143.928 382.296 144.808 384.952 144.808C386.6 144.808 387.928 144.68 388.904 144.488L388.888 143.144C387.608 143.432 386.392 143.56 384.968 143.56C382.792 143.56 382.312 142.856 382.312 142.136C382.312 141.704 382.376 141.256 382.52 140.68L381.368 140.568ZM381.912 135.528C383.64 135.704 386.712 135.704 388.408 135.528V134.216C386.824 134.44 383.624 134.504 381.896 134.216L381.912 135.528ZM406.248 136.616C405.496 136.04 403.688 135.016 402.536 134.504L401.912 135.496C402.968 135.976 404.68 136.952 405.528 137.672L406.248 136.616ZM400.488 134.216C399.688 134.472 398.856 134.664 398.024 134.792C398.28 133.88 398.488 132.92 398.648 132.344L397.224 132.216C397.192 133.064 396.968 134.072 396.728 134.952C396.12 135 395.528 135.032 394.968 135.032C394.28 135.032 393.608 135 393.016 134.92L393.112 136.12C393.704 136.152 394.36 136.168 394.952 136.168C395.416 136.168 395.88 136.152 396.344 136.12C395.624 137.976 394.28 140.504 392.952 142.04L394.2 142.68C395.464 140.968 396.872 138.216 397.656 135.976C398.696 135.848 399.688 135.64 400.52 135.4L400.488 134.216ZM401.32 143.064C401.32 143.848 400.888 144.568 399.592 144.568C398.36 144.568 397.768 144.072 397.768 143.336C397.768 142.616 398.536 142.088 399.704 142.088C400.264 142.088 400.808 142.168 401.304 142.312C401.32 142.6 401.32 142.856 401.32 143.064ZM401.096 137.24C401.128 138.344 401.208 139.896 401.256 141.192C400.792 141.096 400.28 141.048 399.752 141.048C397.96 141.048 396.584 141.992 396.584 143.448C396.584 145.016 398.008 145.736 399.752 145.736C401.704 145.736 402.536 144.696 402.536 143.432C402.536 143.256 402.536 143.032 402.52 142.792C403.544 143.288 404.392 143.992 405.064 144.6L405.752 143.512C404.936 142.808 403.832 142.024 402.472 141.528C402.44 140.568 402.376 139.528 402.36 138.952C402.344 138.36 402.328 137.896 402.376 137.24H401.096ZM416.184 144.472C415 144.472 414.088 144.024 414.088 143.24C414.088 142.696 414.632 142.264 415.352 142.264C416.552 142.264 417.304 143.128 417.448 144.376C417.064 144.44 416.632 144.472 416.184 144.472ZM419.448 132.968C419.272 133.016 419.048 133.048 418.584 133.096C417.752 133.176 413.992 133.288 413.176 133.288C412.856 133.288 412.408 133.288 412.056 133.24L412.088 134.568C412.424 134.504 412.792 134.488 413.16 134.472C413.976 134.424 417.096 134.28 417.928 134.248C417.144 134.952 415.176 136.616 414.296 137.352C413.368 138.12 411.336 139.816 410.024 140.904L410.952 141.848C412.968 139.8 414.408 138.696 417.016 138.696C419.016 138.696 420.584 139.832 420.584 141.384C420.584 142.68 419.864 143.592 418.616 144.072C418.408 142.6 417.336 141.272 415.352 141.272C413.88 141.272 412.904 142.264 412.904 143.352C412.904 144.664 414.232 145.624 416.392 145.624C419.736 145.624 421.864 143.96 421.864 141.4C421.864 139.256 419.96 137.656 417.32 137.656C416.616 137.656 415.896 137.752 415.176 137.992C416.392 136.968 418.52 135.096 419.304 134.504C419.544 134.328 419.896 134.088 420.184 133.896L419.448 132.968ZM428.792 135.096C430.056 135.208 431.4 135.272 432.984 135.272C434.44 135.272 436.184 135.16 437.256 135.08V133.768C436.12 133.88 434.504 133.992 432.984 133.992C431.4 133.992 429.944 133.928 428.792 133.784V135.096ZM428.136 140.056C427.992 140.712 427.816 141.448 427.816 142.28C427.816 144.264 429.688 145.32 432.904 145.32C435.16 145.32 437.176 145.08 438.312 144.776L438.296 143.4C437.096 143.768 435.064 144.008 432.872 144.008C430.344 144.008 429.128 143.176 429.128 141.992C429.128 141.4 429.256 140.824 429.448 140.184L428.136 140.056ZM453.768 134.312C453.432 134.6 453.096 134.808 452.632 135.064C451.768 135.56 450.056 136.392 448.568 137.288C447.88 136.04 447.08 134.328 446.44 132.6L445.176 133.112C445.912 134.84 446.744 136.696 447.48 137.992C445.784 139.176 444.744 140.472 444.744 142.104C444.744 144.472 446.904 145.368 449.88 145.368C451.864 145.368 453.688 145.192 454.888 144.984V143.544C453.656 143.864 451.544 144.088 449.816 144.088C447.32 144.088 446.072 143.272 446.072 141.96C446.072 140.76 446.952 139.72 448.424 138.76C449.976 137.736 452.184 136.696 453.24 136.152C453.704 135.912 454.104 135.704 454.456 135.48L453.768 134.312ZM469.432 138.488C470.6 139.464 471.176 140.648 471.176 141.72C471.176 143.368 469.64 144.392 467.24 144.392C465.432 144.392 464.568 143.432 464.568 141.928C464.568 141.544 464.6 140.984 464.664 140.36C464.856 140.36 465.048 140.36 465.24 140.36C466.312 140.36 467.288 140.328 468.344 140.216L468.376 139C467.272 139.144 466.152 139.192 465.08 139.192H464.776C464.888 138.28 465 137.288 465.128 136.36H465.24C466.504 136.36 467.448 136.296 468.456 136.2L468.488 135C467.56 135.128 466.488 135.192 465.288 135.192C465.368 134.536 465.448 133.976 465.496 133.576C465.544 133.224 465.592 132.904 465.704 132.472L464.264 132.392C464.296 132.776 464.28 133.128 464.248 133.496C464.216 133.928 464.152 134.504 464.072 135.144C462.888 135.08 461.608 134.888 460.616 134.568L460.552 135.752C461.544 136.008 462.792 136.2 463.928 136.296C463.816 137.224 463.688 138.216 463.576 139.144C462.456 139.064 461.272 138.872 460.232 138.504L460.168 139.72C461.128 140.024 462.28 140.2 463.464 140.296C463.384 141.048 463.336 141.688 463.336 142.12C463.336 144.712 465.08 145.656 467.24 145.656C470.36 145.656 472.488 144.216 472.488 141.864C472.488 140.504 471.944 139.4 470.856 138.2L469.432 138.488ZM485.176 137.96C484.488 139.704 483.544 140.984 482.504 141.96C482.344 141.048 482.232 140.088 482.232 139.08C482.232 138.872 482.232 138.664 482.232 138.456C482.984 138.184 483.896 137.96 484.92 137.96H485.176ZM481.112 139.224C481.112 140.408 481.256 141.672 481.48 142.808C480.68 143.368 479.912 143.64 479.304 143.64C478.712 143.64 478.408 143.32 478.408 142.68C478.408 141.4 479.576 139.832 481.112 138.952V139.224ZM486.68 137.08C486.776 136.84 486.904 136.408 487 136.2L485.72 135.88C485.704 136.136 485.624 136.552 485.56 136.792L485.512 136.936C485.32 136.92 485.128 136.92 484.936 136.92C484.136 136.92 483.16 137.064 482.28 137.336C482.328 136.664 482.376 135.992 482.44 135.384C484.376 135.288 486.488 135.08 488.152 134.808L488.136 133.608C486.504 133.976 484.584 134.184 482.584 134.28C482.648 133.816 482.712 133.416 482.776 133.08C482.824 132.872 482.888 132.584 482.968 132.376L481.624 132.344C481.624 132.536 481.608 132.84 481.576 133.096C481.544 133.432 481.496 133.848 481.448 134.312C481.096 134.328 480.744 134.328 480.392 134.328C479.72 134.328 478.328 134.216 477.784 134.136L477.816 135.336C478.456 135.368 479.688 135.432 480.376 135.432C480.68 135.432 481 135.432 481.336 135.416C481.272 136.152 481.192 136.952 481.16 137.752C478.984 138.744 477.208 140.84 477.208 142.872C477.208 144.232 478.024 144.872 479.096 144.872C479.944 144.872 480.888 144.536 481.752 144.008C481.832 144.328 481.928 144.616 482.008 144.888L483.176 144.536C483.048 144.136 482.92 143.704 482.792 143.256C484.136 142.12 485.416 140.376 486.296 138.136C487.784 138.536 488.568 139.624 488.568 140.824C488.568 142.872 486.808 144.344 483.96 144.648L484.648 145.72C488.328 145.144 489.832 143.16 489.832 140.888C489.832 139.144 488.648 137.672 486.664 137.144L486.68 137.08ZM507.496 142.344C506.76 143.144 505.912 143.656 505.112 143.656C504.552 143.656 504.296 143.24 504.296 142.696C504.296 141.096 504.888 138.36 504.888 136.776C504.888 135.48 504.136 134.648 502.648 134.648C501.064 134.648 499.032 136.168 497.8 137.304C497.832 137 497.848 136.696 497.88 136.408C498.12 136.024 498.392 135.592 498.584 135.304L498.12 134.744L498.04 134.776C498.152 133.672 498.28 132.776 498.36 132.392L496.84 132.344C496.92 132.744 496.904 133.16 496.904 133.528C496.904 133.704 496.872 134.264 496.824 135.016C496.008 135.144 495.08 135.24 494.568 135.272C494.184 135.304 493.88 135.304 493.528 135.288L493.656 136.616C494.648 136.488 496.024 136.296 496.744 136.216C496.712 136.712 496.68 137.224 496.648 137.736C495.848 138.984 494.024 141.448 493.144 142.552L493.944 143.656C494.712 142.6 495.752 141.08 496.52 139.912C496.52 140.152 496.504 140.36 496.504 140.52C496.472 142.28 496.472 143.064 496.456 144.584C496.456 144.84 496.424 145.304 496.408 145.528H497.8C497.768 145.24 497.736 144.84 497.72 144.568C497.656 143.144 497.656 142.184 497.656 140.744C497.656 140.184 497.672 139.56 497.704 138.888C499.16 137.32 501.08 135.832 502.36 135.832C503.16 135.832 503.624 136.216 503.624 137.128C503.624 138.664 503.032 141.272 503.032 143.032C503.032 144.344 503.752 145.048 504.792 145.048C505.88 145.048 506.872 144.568 507.704 143.72L507.496 142.344ZM522.92 134.552C522.696 133.912 522.264 132.904 521.976 132.328L521.192 132.568C521.496 133.192 521.864 134.152 522.104 134.84L522.92 134.552ZM511.336 132.872C511.336 133.208 511.288 133.624 511.24 134.008C511.032 135.304 510.504 138.328 510.504 140.664C510.504 142.808 510.792 144.552 511.112 145.688L512.248 145.592C512.232 145.432 512.216 145.192 512.2 145.048C512.184 144.856 512.232 144.552 512.28 144.344C512.44 143.56 513 141.944 513.4 140.84L512.728 140.312C512.456 140.952 512.088 141.896 511.832 142.616C511.72 141.848 511.688 141.224 511.688 140.44C511.688 138.664 512.152 135.528 512.472 134.056C512.536 133.768 512.648 133.256 512.744 133L511.336 132.872ZM519.416 142.712C519.416 143.768 519.032 144.424 517.688 144.424C516.552 144.424 515.784 143.976 515.784 143.192C515.784 142.456 516.6 141.928 517.784 141.928C518.344 141.928 518.888 142.008 519.4 142.168C519.416 142.376 519.416 142.568 519.416 142.712ZM523.16 135.384C522.328 135.544 521.4 135.672 520.424 135.752C520.44 135.016 520.456 134.28 520.472 133.848C520.488 133.528 520.52 133.208 520.568 132.888H519.128C519.16 133.176 519.192 133.592 519.192 133.864V135.832C518.696 135.848 518.2 135.864 517.704 135.864C516.776 135.864 515.912 135.816 515.016 135.72V136.92C515.944 136.984 516.776 137.032 517.672 137.032C518.184 137.032 518.68 137.016 519.192 137C519.208 138.312 519.304 139.832 519.352 141.048C518.904 140.952 518.408 140.904 517.88 140.904C515.8 140.904 514.616 141.976 514.616 143.304C514.616 144.728 515.784 145.608 517.912 145.608C520.056 145.608 520.664 144.328 520.664 143.016V142.712C521.48 143.16 522.264 143.784 523.048 144.536L523.736 143.496C522.904 142.76 521.896 141.944 520.616 141.432C520.552 140.104 520.44 138.52 520.424 136.936C521.368 136.872 522.296 136.776 523.16 136.632V135.384ZM522.792 132.088C523.128 132.696 523.48 133.624 523.736 134.328L524.552 134.04C524.312 133.4 523.88 132.424 523.576 131.832L522.792 132.088ZM531.256 144.968C530.264 143.8 528.824 142.344 527.672 141.416L526.632 142.328C527.768 143.256 529.144 144.616 530.168 145.896L531.256 144.968ZM546.44 144.232V141.864H554.968V144.232H546.44ZM554.968 138.424V140.744H546.44V138.424H554.968ZM554.968 134.92V137.304H546.44V134.92H554.968ZM550.456 133.784C550.728 133.176 551.016 132.456 551.256 131.768L549.896 131.592C549.768 132.216 549.512 133.08 549.272 133.784H545.256V146.248H546.44V145.352H554.968V146.168H556.2V133.784H550.456ZM564.616 131.944C563.624 134.392 561.848 136.6 559.832 137.944C560.12 138.168 560.632 138.616 560.84 138.872C562.856 137.368 564.712 134.984 565.864 132.296L564.616 131.944ZM562.424 137.624V138.776H565.688C565.32 141.464 564.44 144.008 560.68 145.256C560.952 145.512 561.288 145.992 561.448 146.296C565.512 144.824 566.536 141.928 566.952 138.776H571.08C570.888 142.808 570.664 144.408 570.248 144.808C570.104 144.984 569.912 145.016 569.576 145.016C569.208 145.016 568.216 145 567.176 144.904C567.4 145.256 567.544 145.736 567.576 146.088C568.568 146.136 569.56 146.168 570.088 146.12C570.648 146.056 570.984 145.96 571.32 145.56C571.864 144.952 572.104 143.112 572.328 138.2C572.344 138.04 572.36 137.624 572.36 137.624H562.424ZM569.016 132.36C570.2 134.728 572.216 137.304 573.976 138.728C574.2 138.392 574.648 137.928 574.952 137.672C573.224 136.456 571.176 134.056 570.136 131.912L569.016 132.36ZM588.168 134.312C587.832 134.6 587.496 134.808 587.032 135.064C586.168 135.56 584.456 136.392 582.968 137.288C582.28 136.04 581.48 134.328 580.84 132.6L579.576 133.112C580.312 134.84 581.144 136.696 581.88 137.992C580.184 139.176 579.144 140.472 579.144 142.104C579.144 144.472 581.304 145.368 584.28 145.368C586.264 145.368 588.088 145.192 589.288 144.984V143.544C588.056 143.864 585.944 144.088 584.216 144.088C581.72 144.088 580.472 143.272 580.472 141.96C580.472 140.76 581.352 139.72 582.824 138.76C584.376 137.736 586.584 136.696 587.64 136.152C588.104 135.912 588.504 135.704 588.856 135.48L588.168 134.312ZM603.096 138.952V141.976H598.904V138.952H603.096ZM604.216 143V137.944H597.8V144.152H598.904V143H604.216ZM605.064 135.24H597V136.28H605.064V135.24ZM607.576 132.44H594.456V146.264H595.608V133.576H606.408V144.728C606.408 144.984 606.312 145.08 606.024 145.096C605.752 145.112 604.824 145.112 603.816 145.08C604.008 145.4 604.2 145.912 604.248 146.248C605.624 146.248 606.424 146.216 606.92 146.024C607.4 145.816 607.576 145.464 607.576 144.728V132.44ZM619.464 133.96L618.552 134.344C619.08 135.08 619.64 136.088 620.056 136.936L621 136.504C620.616 135.736 619.864 134.536 619.464 133.96ZM621.528 133.144L620.632 133.56C621.176 134.264 621.752 135.256 622.184 136.088L623.112 135.64C622.728 134.904 621.944 133.704 621.528 133.144ZM613.432 132.664C613.528 133.128 613.576 133.688 613.576 134.264C613.576 135.944 613.416 139.944 613.416 142.296C613.416 144.872 614.984 145.832 617.256 145.832C620.744 145.832 622.792 143.848 623.864 142.344L622.984 141.24C621.848 142.888 620.2 144.52 617.304 144.52C615.832 144.52 614.696 143.912 614.696 142.184C614.696 139.816 614.824 136.056 614.888 134.264C614.92 133.752 614.968 133.208 615.048 132.68L613.432 132.664ZM628.024 139.048C628.44 137.88 628.744 136.072 628.824 134.76L627.928 134.632C627.816 135.928 627.528 137.672 627.096 138.728L628.024 139.048ZM629.4 146.216H630.584V131.608H629.4V146.216ZM630.696 134.552C631.144 135.432 631.624 136.584 631.8 137.272L632.696 136.84C632.504 136.168 632.008 135.032 631.528 134.168L630.696 134.552ZM637.72 144.536V140.536H640.984V139.432H637.72V136.12H641.336V134.984H637.72V131.672H636.536V134.984H634.536C634.76 134.2 634.952 133.368 635.112 132.536L633.96 132.344C633.592 134.52 632.952 136.664 632.024 138.056C632.312 138.184 632.84 138.44 633.08 138.6C633.512 137.912 633.88 137.08 634.2 136.12H636.536V139.432H633.144V140.536H636.536V144.536H631.96V145.672H641.72V144.536H637.72ZM175.672 165.416H179.736V168.488H175.672V165.416ZM177.32 171.256C177.384 170.68 177.432 170.104 177.464 169.544H180.856V164.344H174.568V169.544H176.312C176.152 172.44 175.768 175.704 173.592 177.432C173.88 177.608 174.248 177.992 174.408 178.248C176.088 176.856 176.84 174.648 177.192 172.328H179.816C179.672 175.48 179.512 176.696 179.224 177.016C179.08 177.16 178.952 177.192 178.68 177.192C178.392 177.192 177.64 177.192 176.856 177.112C177.048 177.384 177.16 177.832 177.192 178.152C177.96 178.184 178.744 178.2 179.144 178.152C179.624 178.12 179.896 178.024 180.168 177.704C180.6 177.208 180.76 175.752 180.952 171.768C180.952 171.624 180.968 171.256 180.968 171.256H177.32ZM183.64 165.528H182.488V174.328H183.64V165.528ZM186.376 163.928V176.648C186.376 176.952 186.248 177.048 185.96 177.048C185.656 177.064 184.648 177.08 183.528 177.032C183.72 177.368 183.896 177.912 183.96 178.232C185.416 178.232 186.312 178.216 186.84 178.024C187.336 177.816 187.56 177.448 187.56 176.648V163.928H186.376ZM194.136 174.76C193.448 174.76 192.52 173.88 192.52 171.88C192.52 169.752 194.376 167.144 197.416 166.76C197.24 168.216 196.936 169.72 196.536 171.032C195.72 173.704 194.84 174.76 194.136 174.76ZM198.312 177.416C202.088 176.92 204.28 174.696 204.28 171.368C204.28 168.168 201.912 165.544 198.2 165.544C194.328 165.544 191.256 168.552 191.256 171.992C191.256 174.6 192.68 176.232 194.088 176.232C195.56 176.232 196.824 174.552 197.8 171.304C198.232 169.816 198.536 168.216 198.744 166.744C201.432 166.968 202.952 168.936 202.952 171.336C202.952 174.072 200.968 175.576 198.936 176.024C198.552 176.104 198.072 176.184 197.576 176.216L198.312 177.416ZM213.784 164.104C213.672 166.216 213.672 173.848 207.192 177.16C207.56 177.416 207.944 177.784 208.152 178.072C212.2 175.88 213.848 172.024 214.552 168.824C215.32 172.024 217.08 176.12 221.208 178.072C221.384 177.752 221.752 177.352 222.088 177.096C216.072 174.344 215.208 166.952 215.064 164.84C215.08 164.568 215.08 164.312 215.096 164.104H213.784ZM232.872 174.84C232.856 174.072 232.84 172.728 232.824 171.816C234.024 171.256 235.16 170.792 236.056 170.44C236.472 170.28 237.048 170.056 237.448 169.944L236.936 168.744C236.488 168.968 236.104 169.16 235.624 169.368C234.792 169.752 233.832 170.136 232.744 170.648C232.504 169.704 231.672 169.208 230.648 169.208C229.944 169.208 229.032 169.432 228.456 169.8C229.032 169.064 229.528 168.184 229.88 167.368C231.608 167.304 233.56 167.16 235.128 166.92L235.144 165.736C233.64 165.992 231.912 166.136 230.296 166.216C230.52 165.496 230.664 164.84 230.776 164.392L229.464 164.28C229.432 164.824 229.288 165.544 229.064 166.248C228.696 166.264 228.36 166.264 228.024 166.264C227.304 166.264 226.2 166.2 225.352 166.104V167.304C226.216 167.368 227.288 167.4 227.96 167.4H228.616C228.024 168.648 226.984 170.28 224.968 172.232L226.056 173.048C226.6 172.408 227.048 171.816 227.496 171.384C228.232 170.728 229.192 170.216 230.232 170.216C230.92 170.216 231.496 170.536 231.656 171.192C229.816 172.152 227.928 173.336 227.928 175.208C227.928 177.144 229.752 177.624 232.024 177.624C233.4 177.624 235.16 177.512 236.36 177.368L236.392 176.072C235 176.312 233.304 176.456 232.072 176.456C230.44 176.456 229.208 176.28 229.208 175.032C229.208 173.992 230.232 173.176 231.704 172.376C231.704 173.208 231.688 174.232 231.64 174.84H232.872ZM245.704 167.992C245.496 170.088 245.08 171.848 244.472 173.288C243.864 172.856 243.224 172.456 242.616 172.104C242.936 170.84 243.272 169.416 243.592 167.992H245.704ZM246.2 166.856L245.992 166.904H243.832C244.072 165.8 244.296 164.728 244.488 163.752L243.352 163.624C243.176 164.616 242.952 165.752 242.696 166.904H240.952V167.992H242.472C242.024 169.992 241.544 171.96 241.16 173.336L242.152 173.848L242.328 173.176C242.888 173.528 243.448 173.912 243.976 174.312C243.224 175.688 242.248 176.68 241.08 177.288C241.336 177.528 241.656 177.96 241.816 178.248C243.064 177.496 244.088 176.456 244.888 175.032C245.56 175.592 246.136 176.152 246.52 176.632L247.24 175.688C246.808 175.16 246.168 174.568 245.416 173.992C246.2 172.2 246.696 169.912 246.904 167.016L246.2 166.856ZM255.56 170.024H251.752V168.6C252.968 167.656 254.328 166.216 255.224 164.936L254.44 164.36L254.2 164.44H247.352V165.528H253.336C252.696 166.344 251.848 167.256 251.048 167.896H250.568V170.024H246.824V171.128H250.568V176.712C250.568 176.952 250.488 177.032 250.216 177.048C249.944 177.064 249.048 177.064 248.04 177.032C248.216 177.336 248.424 177.864 248.488 178.184C249.752 178.184 250.584 178.152 251.08 177.976C251.592 177.784 251.752 177.432 251.752 176.712V171.128H255.56V170.024ZM260.376 172.712C260.2 173.288 260.008 174.024 260.008 174.696C260.008 176.68 261.672 177.656 264.504 177.656C265.8 177.656 267.336 177.528 268.328 177.352L268.36 176.056C267.24 176.312 265.736 176.424 264.456 176.424C262.2 176.424 261.24 175.656 261.24 174.44C261.24 174.024 261.416 173.32 261.608 172.824L260.376 172.712ZM270.472 168.376C269.752 168.648 268.792 168.936 267.544 169.16C267.272 168.568 267.048 168.072 266.92 167.736L266.632 167.08C267.72 166.904 268.76 166.664 269.576 166.408L269.352 165.272C268.424 165.608 267.304 165.848 266.2 166.024C265.96 165.416 265.752 164.808 265.608 164.264L264.168 164.568C264.376 164.904 264.52 165.192 264.76 165.688C264.824 165.832 264.888 165.992 264.968 166.168C263.448 166.28 261.672 166.248 259.784 166.04L259.864 167.208C261.832 167.384 263.832 167.384 265.432 167.24C265.544 167.496 265.656 167.784 265.784 168.056L266.344 169.352C264.456 169.592 262.104 169.608 259.688 169.384L259.736 170.552C262.184 170.712 264.776 170.68 266.824 170.408C267.192 171.24 267.56 172.072 267.864 172.696C267.368 172.648 266.616 172.568 265.848 172.472L265.736 173.448C266.744 173.576 268.024 173.752 268.824 173.896L269.448 173.112C269 172.28 268.488 171.208 268.024 170.2C269.096 169.992 270.008 169.768 270.712 169.528L270.472 168.376ZM276.664 164.888C276.664 165.224 276.6 165.64 276.552 166.008C276.36 167.304 275.848 170.024 275.848 172.36C275.848 174.504 276.104 176.328 276.424 177.448L277.576 177.368L277.528 176.808C277.528 176.632 277.56 176.328 277.608 176.104C277.752 175.352 278.328 173.672 278.728 172.552L278.04 172.04C277.784 172.664 277.432 173.592 277.16 174.312C277.064 173.544 277.032 172.904 277.032 172.136C277.032 170.36 277.496 167.528 277.8 166.072C277.864 165.784 278.008 165.272 278.104 165L276.664 164.888ZM280.568 172.568C280.424 173.24 280.312 173.864 280.312 174.44C280.312 175.928 281.496 176.808 284.152 176.808C285.8 176.808 287.128 176.68 288.104 176.488L288.088 175.144C286.808 175.432 285.592 175.56 284.168 175.56C281.992 175.56 281.512 174.856 281.512 174.136C281.512 173.704 281.576 173.256 281.72 172.68L280.568 172.568ZM281.112 167.528C282.84 167.704 285.912 167.704 287.608 167.528V166.216C286.024 166.44 282.824 166.504 281.096 166.216L281.112 167.528ZM305.448 168.616C304.696 168.04 302.888 167.016 301.736 166.504L301.112 167.496C302.168 167.976 303.88 168.952 304.728 169.672L305.448 168.616ZM299.688 166.216C298.888 166.472 298.056 166.664 297.224 166.792C297.48 165.88 297.688 164.92 297.848 164.344L296.424 164.216C296.392 165.064 296.168 166.072 295.928 166.952C295.32 167 294.728 167.032 294.168 167.032C293.48 167.032 292.808 167 292.216 166.92L292.312 168.12C292.904 168.152 293.56 168.168 294.152 168.168C294.616 168.168 295.08 168.152 295.544 168.12C294.824 169.976 293.48 172.504 292.152 174.04L293.4 174.68C294.664 172.968 296.072 170.216 296.856 167.976C297.896 167.848 298.888 167.64 299.72 167.4L299.688 166.216ZM300.52 175.064C300.52 175.848 300.088 176.568 298.792 176.568C297.56 176.568 296.968 176.072 296.968 175.336C296.968 174.616 297.736 174.088 298.904 174.088C299.464 174.088 300.008 174.168 300.504 174.312C300.52 174.6 300.52 174.856 300.52 175.064ZM300.296 169.24C300.328 170.344 300.408 171.896 300.456 173.192C299.992 173.096 299.48 173.048 298.952 173.048C297.16 173.048 295.784 173.992 295.784 175.448C295.784 177.016 297.208 177.736 298.952 177.736C300.904 177.736 301.736 176.696 301.736 175.432C301.736 175.256 301.736 175.032 301.72 174.792C302.744 175.288 303.592 175.992 304.264 176.6L304.952 175.512C304.136 174.808 303.032 174.024 301.672 173.528C301.64 172.568 301.576 171.528 301.56 170.952C301.544 170.36 301.528 169.896 301.576 169.24H300.296ZM315.384 176.472C314.2 176.472 313.288 176.024 313.288 175.24C313.288 174.696 313.832 174.264 314.552 174.264C315.752 174.264 316.504 175.128 316.648 176.376C316.264 176.44 315.832 176.472 315.384 176.472ZM318.648 164.968C318.472 165.016 318.248 165.048 317.784 165.096C316.952 165.176 313.192 165.288 312.376 165.288C312.056 165.288 311.608 165.288 311.256 165.24L311.288 166.568C311.624 166.504 311.992 166.488 312.36 166.472C313.176 166.424 316.296 166.28 317.128 166.248C316.344 166.952 314.376 168.616 313.496 169.352C312.568 170.12 310.536 171.816 309.224 172.904L310.152 173.848C312.168 171.8 313.608 170.696 316.216 170.696C318.216 170.696 319.784 171.832 319.784 173.384C319.784 174.68 319.064 175.592 317.816 176.072C317.608 174.6 316.536 173.272 314.552 173.272C313.08 173.272 312.104 174.264 312.104 175.352C312.104 176.664 313.432 177.624 315.592 177.624C318.936 177.624 321.064 175.96 321.064 173.4C321.064 171.256 319.16 169.656 316.52 169.656C315.816 169.656 315.096 169.752 314.376 169.992C315.592 168.968 317.72 167.096 318.504 166.504C318.744 166.328 319.096 166.088 319.384 165.896L318.648 164.968ZM327.992 167.096C329.256 167.208 330.6 167.272 332.184 167.272C333.64 167.272 335.384 167.16 336.456 167.08V165.768C335.32 165.88 333.704 165.992 332.184 165.992C330.6 165.992 329.144 165.928 327.992 165.784V167.096ZM327.336 172.056C327.192 172.712 327.016 173.448 327.016 174.28C327.016 176.264 328.888 177.32 332.104 177.32C334.36 177.32 336.376 177.08 337.512 176.776L337.496 175.4C336.296 175.768 334.264 176.008 332.072 176.008C329.544 176.008 328.328 175.176 328.328 173.992C328.328 173.4 328.456 172.824 328.648 172.184L327.336 172.056ZM352.968 166.312C352.632 166.6 352.296 166.808 351.832 167.064C350.968 167.56 349.256 168.392 347.768 169.288C347.08 168.04 346.28 166.328 345.64 164.6L344.376 165.112C345.112 166.84 345.944 168.696 346.68 169.992C344.984 171.176 343.944 172.472 343.944 174.104C343.944 176.472 346.104 177.368 349.08 177.368C351.064 177.368 352.888 177.192 354.088 176.984V175.544C352.856 175.864 350.744 176.088 349.016 176.088C346.52 176.088 345.272 175.272 345.272 173.96C345.272 172.76 346.152 171.72 347.624 170.76C349.176 169.736 351.384 168.696 352.44 168.152C352.904 167.912 353.304 167.704 353.656 167.48L352.968 166.312ZM368.632 170.488C369.8 171.464 370.376 172.648 370.376 173.72C370.376 175.368 368.84 176.392 366.44 176.392C364.632 176.392 363.768 175.432 363.768 173.928C363.768 173.544 363.8 172.984 363.864 172.36C364.056 172.36 364.248 172.36 364.44 172.36C365.512 172.36 366.488 172.328 367.544 172.216L367.576 171C366.472 171.144 365.352 171.192 364.28 171.192H363.976C364.088 170.28 364.2 169.288 364.328 168.36H364.44C365.704 168.36 366.648 168.296 367.656 168.2L367.688 167C366.76 167.128 365.688 167.192 364.488 167.192C364.568 166.536 364.648 165.976 364.696 165.576C364.744 165.224 364.792 164.904 364.904 164.472L363.464 164.392C363.496 164.776 363.48 165.128 363.448 165.496C363.416 165.928 363.352 166.504 363.272 167.144C362.088 167.08 360.808 166.888 359.816 166.568L359.752 167.752C360.744 168.008 361.992 168.2 363.128 168.296C363.016 169.224 362.888 170.216 362.776 171.144C361.656 171.064 360.472 170.872 359.432 170.504L359.368 171.72C360.328 172.024 361.48 172.2 362.664 172.296C362.584 173.048 362.536 173.688 362.536 174.12C362.536 176.712 364.28 177.656 366.44 177.656C369.56 177.656 371.688 176.216 371.688 173.864C371.688 172.504 371.144 171.4 370.056 170.2L368.632 170.488ZM384.376 169.96C383.688 171.704 382.744 172.984 381.704 173.96C381.544 173.048 381.432 172.088 381.432 171.08C381.432 170.872 381.432 170.664 381.432 170.456C382.184 170.184 383.096 169.96 384.12 169.96H384.376ZM380.312 171.224C380.312 172.408 380.456 173.672 380.68 174.808C379.88 175.368 379.112 175.64 378.504 175.64C377.912 175.64 377.608 175.32 377.608 174.68C377.608 173.4 378.776 171.832 380.312 170.952V171.224ZM385.88 169.08C385.976 168.84 386.104 168.408 386.2 168.2L384.92 167.88C384.904 168.136 384.824 168.552 384.76 168.792L384.712 168.936C384.52 168.92 384.328 168.92 384.136 168.92C383.336 168.92 382.36 169.064 381.48 169.336C381.528 168.664 381.576 167.992 381.64 167.384C383.576 167.288 385.688 167.08 387.352 166.808L387.336 165.608C385.704 165.976 383.784 166.184 381.784 166.28C381.848 165.816 381.912 165.416 381.976 165.08C382.024 164.872 382.088 164.584 382.168 164.376L380.824 164.344C380.824 164.536 380.808 164.84 380.776 165.096C380.744 165.432 380.696 165.848 380.648 166.312C380.296 166.328 379.944 166.328 379.592 166.328C378.92 166.328 377.528 166.216 376.984 166.136L377.016 167.336C377.656 167.368 378.888 167.432 379.576 167.432C379.88 167.432 380.2 167.432 380.536 167.416C380.472 168.152 380.392 168.952 380.36 169.752C378.184 170.744 376.408 172.84 376.408 174.872C376.408 176.232 377.224 176.872 378.296 176.872C379.144 176.872 380.088 176.536 380.952 176.008C381.032 176.328 381.128 176.616 381.208 176.888L382.376 176.536C382.248 176.136 382.12 175.704 381.992 175.256C383.336 174.12 384.616 172.376 385.496 170.136C386.984 170.536 387.768 171.624 387.768 172.824C387.768 174.872 386.008 176.344 383.16 176.648L383.848 177.72C387.528 177.144 389.032 175.16 389.032 172.888C389.032 171.144 387.848 169.672 385.864 169.144L385.88 169.08ZM399.384 176.472C398.2 176.472 397.288 176.024 397.288 175.24C397.288 174.696 397.832 174.264 398.552 174.264C399.752 174.264 400.504 175.128 400.648 176.376C400.264 176.44 399.832 176.472 399.384 176.472ZM402.648 164.968C402.472 165.016 402.248 165.048 401.784 165.096C400.952 165.176 397.192 165.288 396.376 165.288C396.056 165.288 395.608 165.288 395.256 165.24L395.288 166.568C395.624 166.504 395.992 166.488 396.36 166.472C397.176 166.424 400.296 166.28 401.128 166.248C400.344 166.952 398.376 168.616 397.496 169.352C396.568 170.12 394.536 171.816 393.224 172.904L394.152 173.848C396.168 171.8 397.608 170.696 400.216 170.696C402.216 170.696 403.784 171.832 403.784 173.384C403.784 174.68 403.064 175.592 401.816 176.072C401.608 174.6 400.536 173.272 398.552 173.272C397.08 173.272 396.104 174.264 396.104 175.352C396.104 176.664 397.432 177.624 399.592 177.624C402.936 177.624 405.064 175.96 405.064 173.4C405.064 171.256 403.16 169.656 400.52 169.656C399.816 169.656 399.096 169.752 398.376 169.992C399.592 168.968 401.72 167.096 402.504 166.504C402.744 166.328 403.096 166.088 403.384 165.896L402.648 164.968ZM411.304 173.096C409.976 173.096 408.872 174.184 408.872 175.528C408.872 176.872 409.976 177.976 411.304 177.976C412.664 177.976 413.752 176.872 413.752 175.528C413.752 174.184 412.664 173.096 411.304 173.096ZM411.304 177.16C410.424 177.16 409.688 176.44 409.688 175.528C409.688 174.648 410.424 173.912 411.304 173.912C412.216 173.912 412.92 174.648 412.92 175.528C412.92 176.44 412.216 177.16 411.304 177.16Z" fill="#6D574B"/>
<rect width="148" height="148" rx="74" fill="#FC7B92"/>
<path d="M56.165 23.25L61.665 26L55.29 35.625L67.665 45.875L70.29 48.125L70.04 48.875L67.665 52.875L67.165 53.5L56.04 43.875L52.165 40.875L47.415 50.25L45.79 53.75C44.04 53.25 42.0817 52.5 39.915 51.5C41.2483 48.6667 42.6233 45.7917 44.04 42.875C45.79 39.375 47.915 35.75 50.415 32L56.165 23.25ZM83.835 32.625L79.21 33.125L79.085 28.5L85.96 28.125L87.585 24.75L92.835 25.875L91.585 28L99.71 27.75V31.875L89.46 32L87.96 35C89.6267 34.25 90.7517 33.7917 91.335 33.625C92.6683 33.2083 93.835 33.0417 94.835 33.125C96.585 33.2083 97.9183 34.0833 98.835 35.75L104.585 33.75L106.96 38.25L99.96 40.125L100.335 45.25L95.46 45.375L95.335 42.875C94.0017 43.4583 93.0433 44 92.46 44.5C91.6267 45.1667 91.21 45.875 91.21 46.625C91.2933 47.4583 91.7517 47.9583 92.585 48.125C93.085 48.2083 93.71 48.2083 94.46 48.125C96.21 47.9583 98.5017 47.1667 101.335 45.75L103.46 50C101.21 51.0833 99.3767 51.7917 97.96 52.125C94.1267 53.125 91.085 53.1667 88.835 52.25C87.4183 51.6667 86.5017 50.6667 86.085 49.25C85.6683 47.75 85.7517 46.25 86.335 44.75C86.9183 43.3333 87.7517 42.125 88.835 41.125C89.7517 40.2917 90.5433 39.7083 91.21 39.375C91.7933 39.0417 92.71 38.6667 93.96 38.25C93.5433 38 93.0017 37.875 92.335 37.875C90.1683 37.875 87.7933 39.0417 85.21 41.375L83.71 45.375L79.085 43.375L83.835 32.625ZM23.33 64.375L24.205 59.125L29.08 59.625L28.205 64C29.455 63.8333 30.33 63.75 30.83 63.75C31.9967 63.8333 32.7883 64.25 33.205 65C33.8717 66.1667 34.08 67.625 33.83 69.375L31.83 81.625L34.205 82L33.705 87L30.955 86.5L30.205 89.625L24.955 88.375L25.705 85.375L23.83 84.75C22.6633 84.3333 21.8717 83.8333 21.455 83.25C21.205 82.8333 21.0383 82.375 20.955 81.875C20.8717 81.2083 20.9133 80.25 21.08 79L22.58 69.125L21.08 69.375L20.705 64.75L23.33 64.375ZM27.08 80.625L28.83 68.375L27.58 68.5L25.58 80.375L27.08 80.625ZM39.705 72.5L39.33 69.375L40.455 69.125L43.33 63.75L34.955 64.375L34.83 59.875L45.58 59.125C47.2467 59.0417 48.3717 59.4583 48.955 60.375C49.3717 60.9583 49.455 61.7917 49.205 62.875C49.0383 63.7917 48.6217 64.7917 47.955 65.875L45.33 70.625L45.205 72.125H51.33L51.58 76.25L45.705 76.375L46.08 82.875C46.2467 86.125 45.5383 88.1667 43.955 89C42.7883 89.5833 40.4967 89.7917 37.08 89.625L35.705 84.375L40.455 84.5L40.08 76.75L33.955 77.625V73.125L39.705 72.5ZM65.875 79.125C66.7083 81.125 67.75 82.4167 69 83C70.25 83.5833 72.25 83.7917 75 83.625C78.0833 83.4583 80.2917 83.0417 81.625 82.375C82.375 82.0417 83.375 81.1667 84.625 79.75L87.875 83.625C86.7917 84.875 85.875 85.7917 85.125 86.375C84.125 87.125 82.9583 87.6667 81.625 88C79.7917 88.4167 77.25 88.5833 74 88.5C71.4167 88.4167 69.2917 88.125 67.625 87.625C65.7917 87.0417 64.3333 86.1667 63.25 85C62.25 83.9167 61.2917 81.9583 60.375 79.125H65.875ZM73.375 70.75L72.625 68.5L62 70L61.25 65.125L71.25 64.375L70.25 61.5L75.5 61L76.375 64L83.875 63.75L84.125 67.625L77.625 68L78.375 70.5L86.5 70.25L87 74.25L79.625 74.75L80.625 78L75.625 78.875L74.625 75.25C71.9583 75.5 69.9583 75.7083 68.625 75.875C66.5417 76.2083 64.0833 76.625 61.25 77.125L60.625 72L73.375 70.75ZM105.67 61.75C104.837 67.25 104.337 71.2917 104.17 73.875C104.003 76.375 103.962 80.9583 104.045 87.625L98.42 88.25C98.5033 80.75 98.67 75.5 98.92 72.5C99.2533 69.25 99.7533 65.375 100.42 60.875L105.67 61.75ZM110.42 77.25C110.42 78.5833 110.545 79.5417 110.795 80.125C111.128 81.2083 111.92 81.9167 113.17 82.25C114.587 82.6667 116.128 82.7083 117.795 82.375C118.712 82.2083 119.545 81.9583 120.295 81.625C121.295 81.2083 122.503 80.5 123.92 79.5L126.17 84.5C123.67 86 121.462 86.9583 119.545 87.375C115.628 88.2917 112.378 88.0833 109.795 86.75C108.045 85.8333 106.753 84.4167 105.92 82.5C105.503 81.5 105.212 79.875 105.045 77.625L110.42 77.25ZM115.545 62.75C117.545 62.6667 120.628 62.625 124.795 62.625L124.67 67C120.087 67.0833 116.67 67.2917 114.42 67.625C113.17 67.7917 111.128 68.2083 108.295 68.875L107.795 63.5C110.878 63.1667 113.462 62.9167 115.545 62.75ZM45.915 101L47.665 96.625L52.665 97.625L51.415 100.75L55.79 100.625L55.54 104.25L49.915 104.75L45.915 118L41.165 116.375L44.29 105.5L41.165 106.125V101.5L45.915 101ZM58.165 104.875L63.415 105.25L63.665 109.75L69.04 111.625L67.665 116.625L63.79 115C63.7067 117.25 63.3733 118.917 62.79 120C61.9567 121.417 60.79 122.583 59.29 123.5C57.79 124.333 56.2483 124.75 54.665 124.75C51.7483 124.667 49.7067 123.458 48.54 121.125C47.3733 118.792 47.3317 116.583 48.415 114.5C49.3317 112.75 50.8317 111.458 52.915 110.625C54.2483 110.125 56.2067 109.708 58.79 109.375L58.165 104.875ZM57.915 118.625C58.5817 117.792 58.9567 116.458 59.04 114.625C57.54 114.542 56.415 114.583 55.665 114.75C54.4983 115 53.665 115.583 53.165 116.5C52.8317 117.083 52.79 117.708 53.04 118.375C53.3733 119.208 53.915 119.708 54.665 119.875C55.915 120.208 56.9983 119.792 57.915 118.625ZM60.54 96.625L69.04 101.75L66.415 105.25L57.54 99.75L60.54 96.625ZM93.085 101.25L83.96 102.625L84.085 97.625L96.46 96.625C97.6267 96.5417 98.5433 96.5417 99.21 96.625C99.96 96.7083 100.543 97.0833 100.96 97.75C101.377 98.5 101.46 99.3333 101.21 100.25C100.96 101.167 100.502 101.833 99.835 102.25L94.96 105.625C96.8767 105.375 98.5017 105.292 99.835 105.375C101.418 105.542 102.71 106.083 103.71 107C105.043 108.167 105.835 109.708 106.085 111.625C106.335 113.375 106.127 115.083 105.46 116.75C104.377 119.5 102.377 121.542 99.46 122.875C97.46 123.792 95.585 124.333 93.835 124.5C92.0017 124.667 90.2933 124.5 88.71 124C86.3767 123.25 85.085 121.833 84.835 119.75C84.585 117.583 85.335 115.792 87.085 114.375C88.1683 113.542 89.46 113 90.96 112.75C92.71 112.5 94.3767 112.583 95.96 113C97.71 113.5 98.835 114.667 99.335 116.5C100.502 115.25 101.002 114.042 100.835 112.875C100.585 111.292 99.71 110.25 98.21 109.75C96.96 109.333 95.3767 109.375 93.46 109.875C91.46 110.375 89.5433 111.083 87.71 112C86.5433 112.583 85.0433 113.417 83.21 114.5L79.96 109.75L93.085 101.25ZM91.46 119.875C92.6267 120.208 94.0017 120 95.585 119.25C95.1683 118.167 94.585 117.458 93.835 117.125C93.1683 116.792 92.46 116.708 91.71 116.875C90.96 117.042 90.4183 117.417 90.085 118C89.6683 118.833 90.1267 119.458 91.46 119.875Z" fill="white"/>
</svg>
