<svg width="444" height="200" viewBox="0 0 444 200" fill="none" xmlns="http://www.w3.org/2000/svg">
<rect width="444" height="200" rx="30" fill="white"/>
<path d="M37.872 37.76C37.488 37.36 35.936 35.792 35.376 35.28V34.896H37.792V33.088H35.376V30.72C36.256 30.496 37.104 30.24 37.84 29.952L36.496 28.496C35.088 29.152 32.736 29.712 30.64 30.048C30.864 30.432 31.104 31.088 31.184 31.504C31.936 31.408 32.72 31.28 33.504 31.136V33.088H30.752V34.896H33.104C32.432 36.464 31.376 38.24 30.368 39.312C30.672 39.792 31.104 40.608 31.296 41.136C32.08 40.224 32.848 38.864 33.504 37.44V43.36H35.376V37.328C35.904 37.984 36.432 38.704 36.736 39.184L37.872 37.76ZM45.584 42.752C45.328 41.008 44.4 38.304 43.44 36.224L41.616 36.736C42.064 37.792 42.496 39.008 42.848 40.16C41.76 40.288 40.672 40.4 39.648 40.512C40.528 37.296 41.392 32.928 41.92 29.152L39.744 28.8C39.376 32.624 38.528 37.376 37.664 40.704C37.12 40.752 36.608 40.8 36.176 40.832L36.624 42.832C38.48 42.608 40.928 42.272 43.312 41.904C43.424 42.448 43.52 42.96 43.568 43.392L45.584 42.752ZM54.528 35.936C55.52 35.808 56.48 35.76 57.584 35.76C58.544 35.76 59.52 35.856 60.304 35.952L60.352 34.048C59.424 33.952 58.464 33.904 57.568 33.904C56.544 33.904 55.408 33.984 54.528 34.064V35.936ZM55.776 30.848C54.912 31.056 54.016 31.232 53.12 31.376L53.248 30.768C53.328 30.416 53.472 29.712 53.584 29.28L51.168 29.088C51.2 29.456 51.184 30.096 51.104 30.688C51.072 30.944 51.024 31.248 50.96 31.6C50.48 31.632 50.016 31.648 49.552 31.648C48.896 31.648 48.368 31.616 47.552 31.52L47.6 33.504C48.16 33.536 48.752 33.568 49.52 33.568C49.84 33.568 50.192 33.552 50.56 33.536C50.448 33.984 50.336 34.432 50.224 34.848C49.632 37.072 48.432 40.4 47.488 41.984L49.712 42.72C50.576 40.864 51.648 37.616 52.224 35.392C52.4 34.752 52.56 34.048 52.704 33.36C53.76 33.232 54.832 33.056 55.776 32.848V30.848ZM53.552 37.872C53.424 38.496 53.28 39.264 53.28 39.984C53.28 41.584 54.64 42.512 57.312 42.512C58.576 42.512 59.648 42.4 60.544 42.288L60.624 40.256C59.488 40.464 58.384 40.576 57.328 40.576C55.632 40.576 55.232 40.064 55.232 39.376C55.232 39.024 55.328 38.496 55.456 38.048L53.552 37.872ZM74.64 30.64C72.736 31.056 70.592 31.296 68.784 31.392L68.88 30.912C68.992 30.384 69.072 29.856 69.248 29.296L67.008 29.2C67.024 29.728 67.008 30.112 66.928 30.8C66.912 30.992 66.864 31.2 66.832 31.44C65.872 31.424 64.672 31.296 63.728 31.136V33.104C64.528 33.184 65.456 33.248 66.464 33.264C66.048 35.008 65.408 37.12 64.656 38.576L66.528 39.248C66.688 38.976 66.8 38.768 66.976 38.56C67.92 37.344 69.536 36.688 71.36 36.688C72.896 36.688 73.728 37.488 73.728 38.432C73.728 40.768 70.224 41.184 66.752 40.624L67.312 42.672C72.432 43.216 75.856 41.936 75.856 38.368C75.856 36.352 74.16 34.976 71.6 34.976C70.144 34.976 68.944 35.264 67.664 35.968C67.92 35.2 68.176 34.192 68.384 33.232C70.512 33.12 73.024 32.816 74.672 32.56L74.64 30.64ZM82.368 39.12C81.776 39.12 81.136 38.336 81.136 36.736C81.136 34.992 82.528 32.688 85.152 32.144C84.96 33.456 84.672 34.816 84.304 35.984C83.664 38.128 83.024 39.12 82.368 39.12ZM86.72 42.656C90.72 42.048 92.768 39.68 92.768 36.352C92.768 32.896 90.288 30.16 86.368 30.16C82.256 30.16 79.072 33.296 79.072 36.944C79.072 39.616 80.56 41.552 82.304 41.552C84.032 41.552 85.408 39.6 86.352 36.4C86.8 34.912 87.072 33.44 87.296 32.096C89.424 32.464 90.608 34.096 90.608 36.288C90.608 38.592 89.04 40.048 87.008 40.528C86.592 40.624 86.144 40.704 85.536 40.784L86.72 42.656ZM102.944 38.848V37.856H101.008V38.848H98.704C99.12 38.432 99.52 37.984 99.84 37.52H104.352C104.688 37.984 105.072 38.432 105.504 38.848H102.944ZM99.52 35.248H104.528V35.968H99.52V35.248ZM104.528 31.2V31.904H99.52V31.2H104.528ZM99.52 33.216H104.528V33.92H99.52V33.216ZM109.44 37.52V35.968H106.48V31.2H108.672V29.664H106.48V28.464H104.528V29.664H99.52V28.464H97.616V29.664H95.408V31.2H97.616V35.968H94.56V37.52H97.648C96.768 38.368 95.584 39.104 94.416 39.536C94.816 39.872 95.36 40.544 95.632 40.992C96.528 40.592 97.392 40.016 98.176 39.36V40.352H101.008V41.392H95.984V42.96H108.16V41.392H102.944V40.352H105.856V39.168C106.64 39.856 107.504 40.448 108.368 40.848C108.64 40.384 109.216 39.712 109.632 39.376C108.48 38.976 107.36 38.288 106.512 37.52H109.44ZM118.992 38.752V35.232C119.712 36.528 120.576 37.728 121.536 38.752H118.992ZM114.48 38.752C115.424 37.728 116.272 36.544 116.992 35.264V38.752H114.48ZM125.056 33.472V31.552H118.992V28.464H116.992V31.552H110.976V33.472H115.856C114.624 35.936 112.608 38.24 110.352 39.472C110.8 39.84 111.408 40.576 111.744 41.056C112.624 40.496 113.472 39.792 114.24 39.008V40.688H116.992V43.392H118.992V40.688H121.648V38.864C122.448 39.712 123.328 40.432 124.256 41.008C124.592 40.464 125.248 39.664 125.728 39.28C123.44 38.08 121.392 35.872 120.144 33.472H125.056ZM128.368 29.504C128.368 30 128.288 30.608 128.224 31.056C128.032 32.272 127.568 35.264 127.568 37.664C127.568 39.808 127.872 41.616 128.192 42.72L129.984 42.592C129.968 42.368 129.968 42.096 129.968 41.936C129.952 41.76 130 41.424 130.048 41.2C130.224 40.336 130.736 38.72 131.184 37.424L130.208 36.64C129.968 37.168 129.712 37.696 129.504 38.256C129.456 37.936 129.44 37.552 129.44 37.232C129.44 35.648 129.952 32.16 130.192 31.104C130.256 30.816 130.448 30.016 130.576 29.696L128.368 29.504ZM136.368 39.344C136.368 40.272 136.032 40.784 135.056 40.784C134.224 40.784 133.584 40.496 133.584 39.856C133.584 39.264 134.192 38.896 135.088 38.896C135.52 38.896 135.952 38.96 136.368 39.072V39.344ZM141.376 39.984C140.64 39.296 139.648 38.48 138.32 37.936C138.256 36.864 138.176 35.6 138.144 34.064C139.008 34 139.84 33.904 140.608 33.792V31.824C139.856 31.984 139.024 32.096 138.16 32.192C138.16 31.488 138.192 30.896 138.208 30.544C138.224 30.208 138.256 29.824 138.304 29.52H136.032C136.08 29.84 136.128 30.32 136.128 30.56C136.144 30.896 136.144 31.536 136.16 32.32C135.792 32.336 135.408 32.336 135.04 32.336C134.096 32.336 133.184 32.288 132.272 32.192V34.08C133.216 34.144 134.112 34.176 135.04 34.176C135.408 34.176 135.792 34.176 136.176 34.16C136.192 35.28 136.24 36.432 136.288 37.408C135.968 37.36 135.616 37.344 135.248 37.344C133.088 37.344 131.728 38.448 131.728 40.064C131.728 41.728 133.104 42.656 135.28 42.656C137.424 42.656 138.288 41.568 138.384 40.064C139.008 40.496 139.648 41.024 140.304 41.648L141.376 39.984ZM154.576 31.92C154.176 31.984 153.76 32.032 153.36 32.032H150.352C150.384 31.568 150.4 31.088 150.416 30.592C150.432 30.208 150.464 29.536 150.512 29.168H148.16C148.224 29.552 148.272 30.288 148.272 30.64C148.272 31.12 148.256 31.584 148.24 32.032H145.952C145.344 32.032 144.512 31.984 143.84 31.92V34.016C144.528 33.952 145.408 33.952 145.952 33.952H148.064C147.712 36.384 146.912 38.176 145.424 39.648C144.784 40.304 144 40.848 143.328 41.216L145.184 42.72C148.048 40.688 149.568 38.176 150.16 33.952H153.76C153.76 35.68 153.552 38.88 153.088 39.888C152.912 40.272 152.688 40.448 152.176 40.448C151.552 40.448 150.72 40.368 149.936 40.224L150.176 42.368C150.96 42.432 151.92 42.496 152.832 42.496C153.936 42.496 154.544 42.08 154.896 41.264C155.584 39.632 155.776 35.168 155.84 33.44C155.84 33.264 155.904 32.864 155.952 32.592L154.576 31.92ZM166.08 32.48L164.176 33.104C164.576 33.936 165.28 35.872 165.472 36.656L167.392 35.984C167.168 35.248 166.384 33.168 166.08 32.48ZM169.728 32.928C169.552 34.928 168.784 37.056 167.696 38.416C166.368 40.08 164.144 41.296 162.384 41.76L164.064 43.472C165.936 42.768 167.936 41.424 169.424 39.504C170.512 38.096 171.184 36.432 171.6 34.816C171.696 34.496 171.792 34.16 171.984 33.648L169.728 32.928ZM162.368 33.328L160.448 34.016C160.832 34.72 161.632 36.848 161.904 37.712L163.856 36.976C163.536 36.08 162.768 34.144 162.368 33.328ZM187.776 31.184C187.264 31.184 186.848 30.768 186.848 30.272C186.848 29.76 187.264 29.344 187.776 29.344C188.272 29.344 188.688 29.76 188.688 30.272C188.688 30.768 188.272 31.184 187.776 31.184ZM177.568 30.64C177.04 30.64 176.128 30.576 175.664 30.512V32.768C176.08 32.736 176.832 32.704 177.568 32.704H185.024C184.8 34.08 184.192 35.888 183.136 37.216C181.84 38.848 180.048 40.224 176.864 40.976L178.608 42.88C181.472 41.968 183.6 40.384 185.04 38.464C186.384 36.688 187.072 34.208 187.44 32.64L187.568 32.16C187.632 32.176 187.712 32.176 187.776 32.176C188.816 32.176 189.68 31.312 189.68 30.272C189.68 29.216 188.816 28.352 187.776 28.352C186.72 28.352 185.856 29.216 185.856 30.272C185.856 30.384 185.872 30.48 185.888 30.576C185.536 30.624 185.2 30.64 184.976 30.64H177.568ZM192.592 42.704C193.968 41.488 194.96 39.92 195.44 38.112C195.872 36.496 195.92 33.12 195.92 31.232C195.92 30.576 196.016 29.856 196.032 29.792H193.68C193.776 30.176 193.824 30.608 193.824 31.248C193.824 33.184 193.808 36.208 193.36 37.584C192.912 38.944 192.048 40.416 190.64 41.408L192.592 42.704ZM199.376 42.752C199.584 42.592 199.744 42.448 200.08 42.272C201.872 41.36 204.176 39.632 205.504 37.904L204.272 36.144C203.2 37.696 201.616 38.96 200.32 39.52V31.152C200.32 30.432 200.416 29.808 200.432 29.76H198.048C198.064 29.808 198.176 30.416 198.176 31.136V40.464C198.176 40.896 198.112 41.344 198.048 41.648L199.376 42.752ZM217.84 33.68L216.656 34.176C217.168 34.896 217.504 35.52 217.904 36.4L219.12 35.856C218.816 35.216 218.224 34.256 217.84 33.68ZM219.632 32.944L218.464 33.488C218.976 34.192 219.344 34.784 219.776 35.648L220.976 35.072C220.64 34.448 220.032 33.504 219.632 32.944ZM207.168 31.056L207.376 33.232C209.216 32.832 212.544 32.48 213.92 32.336C212.848 33.136 211.584 34.928 211.584 37.216C211.584 40.656 214.72 42.448 218.048 42.656L218.784 40.464C216.096 40.336 213.664 39.392 213.664 36.784C213.664 34.912 215.088 32.864 217.008 32.352C217.856 32.16 219.216 32.144 220.064 32.144L220.048 30.096C218.928 30.144 217.2 30.24 215.568 30.368C212.672 30.624 210.048 30.864 208.72 30.976C208.416 31.008 207.808 31.04 207.168 31.056ZM224.368 29.504C224.368 30 224.288 30.608 224.224 31.056C224.032 32.272 223.568 35.264 223.568 37.664C223.568 39.808 223.872 41.616 224.192 42.72L225.984 42.592C225.968 42.368 225.968 42.096 225.968 41.936C225.952 41.76 226 41.424 226.048 41.2C226.224 40.336 226.736 38.72 227.184 37.424L226.208 36.64C225.968 37.168 225.712 37.696 225.504 38.256C225.456 37.936 225.44 37.552 225.44 37.232C225.44 35.648 225.952 32.16 226.192 31.104C226.256 30.816 226.448 30.016 226.576 29.696L224.368 29.504ZM232.368 39.344C232.368 40.272 232.032 40.784 231.056 40.784C230.224 40.784 229.584 40.496 229.584 39.856C229.584 39.264 230.192 38.896 231.088 38.896C231.52 38.896 231.952 38.96 232.368 39.072V39.344ZM237.376 39.984C236.64 39.296 235.648 38.48 234.32 37.936C234.256 36.864 234.176 35.6 234.144 34.064C235.008 34 235.84 33.904 236.608 33.792V31.824C235.856 31.984 235.024 32.096 234.16 32.192C234.16 31.488 234.192 30.896 234.208 30.544C234.224 30.208 234.256 29.824 234.304 29.52H232.032C232.08 29.84 232.128 30.32 232.128 30.56C232.144 30.896 232.144 31.536 232.16 32.32C231.792 32.336 231.408 32.336 231.04 32.336C230.096 32.336 229.184 32.288 228.272 32.192V34.08C229.216 34.144 230.112 34.176 231.04 34.176C231.408 34.176 231.792 34.176 232.176 34.16C232.192 35.28 232.24 36.432 232.288 37.408C231.968 37.36 231.616 37.344 231.248 37.344C229.088 37.344 227.728 38.448 227.728 40.064C227.728 41.728 229.104 42.656 231.28 42.656C233.424 42.656 234.288 41.568 234.384 40.064C235.008 40.496 235.648 41.024 236.304 41.648L237.376 39.984ZM253.104 33.264C252.304 32.688 250.336 31.616 249.2 31.12L248.176 32.688C249.264 33.168 251.072 34.208 251.984 34.944L253.104 33.264ZM247.136 30.832C246.512 31.024 245.776 31.2 245.008 31.328C245.232 30.48 245.424 29.68 245.552 29.168L243.36 28.944C243.328 29.76 243.152 30.72 242.928 31.6C242.448 31.632 241.968 31.648 241.504 31.648C240.928 31.648 240.08 31.616 239.392 31.536L239.536 33.392C240.224 33.424 240.864 33.44 241.52 33.44C241.792 33.44 242.064 33.44 242.336 33.424C241.632 35.136 240.384 37.472 239.104 39.024L241.04 40C242.32 38.192 243.68 35.44 244.432 33.216C245.488 33.072 246.464 32.864 247.184 32.672L247.136 30.832ZM247.52 39.648C247.52 40.496 247.168 41.12 246.096 41.12C245.232 41.12 244.736 40.72 244.736 40.128C244.736 39.568 245.328 39.184 246.24 39.184C246.688 39.184 247.104 39.248 247.52 39.344V39.648ZM247.264 34.096C247.312 35.056 247.392 36.448 247.44 37.632C247.104 37.6 246.736 37.568 246.368 37.568C244.16 37.568 242.864 38.768 242.864 40.32C242.864 42.064 244.416 42.944 246.384 42.944C248.64 42.944 249.44 41.792 249.44 40.32V40.176C250.304 40.704 251.024 41.344 251.584 41.856L252.64 40.16C251.84 39.44 250.72 38.64 249.36 38.128C249.312 37.344 249.28 36.576 249.264 36.128C249.248 35.424 249.216 34.768 249.264 34.096H247.264ZM263.856 28.864C263.6 29.232 263.088 29.76 262.64 30.192C261.568 31.248 259.392 33.008 258.16 34.016C256.576 35.328 256.448 36.208 258.016 37.536C259.472 38.768 261.888 40.832 262.752 41.744C263.2 42.224 263.696 42.72 264.144 43.216L265.984 41.52C264.416 40 261.36 37.584 260.176 36.576C259.312 35.84 259.296 35.664 260.144 34.944C261.2 34.032 263.296 32.416 264.32 31.584C264.688 31.296 265.216 30.88 265.712 30.512L263.856 28.864ZM275.792 41.632C274.976 40.64 273.44 39.056 272.304 38.128L270.64 39.568C271.76 40.528 273.104 41.904 274.08 43.104L275.792 41.632ZM289.472 28.48C288.752 30.784 287.536 33.072 286.208 34.528C286.496 35.008 286.96 36.128 287.104 36.592C287.472 36.176 287.824 35.712 288.176 35.216V43.408H289.984V32.064C290.464 31.056 290.88 30.032 291.232 29.024L289.472 28.48ZM297.008 38.624H295.376V36.944H297.008V38.624ZM298.832 34.256V32.88H296.896V31.248H295.424V32.88H293.584V34.256H295.424V35.632H294V39.92H298.432V35.632H296.896V34.256H298.832ZM293.184 40.8V30.912H299.2V40.8H293.184ZM291.456 29.264V43.376H293.184V42.448H299.2V43.232H301.008V29.264H291.456ZM308.672 28.816C308.56 30.928 308.784 38.192 302.4 41.728C303.04 42.176 303.664 42.752 304 43.248C307.376 41.184 309.056 38.096 309.92 35.216C310.816 38.16 312.608 41.456 316.224 43.248C316.528 42.736 317.104 42.08 317.696 41.632C311.728 38.832 310.928 31.936 310.8 29.728C310.816 29.392 310.832 29.072 310.848 28.816H308.672ZM329.84 33.68L328.656 34.176C329.168 34.896 329.504 35.52 329.904 36.4L331.12 35.856C330.816 35.216 330.224 34.256 329.84 33.68ZM331.632 32.944L330.464 33.488C330.976 34.192 331.344 34.784 331.776 35.648L332.976 35.072C332.64 34.448 332.032 33.504 331.632 32.944ZM319.168 31.056L319.376 33.232C321.216 32.832 324.544 32.48 325.92 32.336C324.848 33.136 323.584 34.928 323.584 37.216C323.584 40.656 326.72 42.448 330.048 42.656L330.784 40.464C328.096 40.336 325.664 39.392 325.664 36.784C325.664 34.912 327.088 32.864 329.008 32.352C329.856 32.16 331.216 32.144 332.064 32.144L332.048 30.096C330.928 30.144 329.2 30.24 327.568 30.368C324.672 30.624 322.048 30.864 320.72 30.976C320.416 31.008 319.808 31.04 319.168 31.056ZM340.448 36.736C340.448 35.904 341.056 35.488 341.664 35.488C342.112 35.488 342.48 35.664 342.704 36.048C342.912 37.424 342.32 37.92 341.664 37.92C341.04 37.92 340.448 37.472 340.448 36.736ZM348.896 30.992C348.064 30.976 345.904 30.992 344.304 30.992C344.304 30.8 344.32 30.64 344.32 30.512C344.336 30.256 344.384 29.408 344.432 29.152H342.128C342.192 29.408 342.24 30.016 342.272 30.528C342.288 30.64 342.288 30.816 342.288 31.008C340.16 31.04 337.28 31.12 335.472 31.12L335.52 33.04C337.472 32.928 339.92 32.832 342.32 32.8L342.336 33.856C342.144 33.824 341.936 33.808 341.712 33.808C339.984 33.808 338.544 34.976 338.544 36.768C338.544 38.704 340.048 39.68 341.28 39.68C341.536 39.68 341.776 39.648 342 39.6C341.12 40.544 339.728 41.072 338.128 41.408L339.808 43.104C343.68 42.016 344.896 39.392 344.896 37.328C344.896 36.496 344.704 35.728 344.304 35.136C344.304 34.448 344.304 33.584 344.288 32.784C346.432 32.784 347.92 32.816 348.88 32.864L348.896 30.992ZM351.494 38.032C350.086 38.032 348.918 39.2 348.918 40.624C348.918 42.048 350.086 43.216 351.494 43.216C352.934 43.216 354.086 42.048 354.086 40.624C354.086 39.2 352.934 38.032 351.494 38.032ZM351.494 42.048C350.726 42.048 350.07 41.424 350.07 40.624C350.07 39.824 350.726 39.184 351.494 39.184C352.294 39.184 352.934 39.824 352.934 40.624C352.934 41.424 352.294 42.048 351.494 42.048Z" fill="#E06363"/>
<path d="M31.584 74.736C32.784 73.856 33.472 72.368 33.904 71.008L32.896 70.64C32.512 71.92 31.776 73.296 30.64 74.096L31.584 74.736ZM33.216 64.48C32.72 65.648 31.76 66.784 30.784 67.44C31.04 67.632 31.376 67.968 31.552 68.16C32.608 67.424 33.664 66.208 34.272 64.896L33.216 64.48ZM36.992 63.424H39.248V68.352C39.248 68.528 39.184 68.576 39.008 68.592C38.784 68.592 38.144 68.592 37.408 68.576C37.568 68.864 37.728 69.296 37.776 69.584C38.8 69.584 39.424 69.568 39.856 69.424C40.272 69.232 40.384 68.944 40.384 68.368V63.424H44.96V62.368H38.56V60.608H37.376V62.368H31.088V63.424H35.888V64.208C35.888 65.728 35.664 67.712 33.36 69.216C33.648 69.376 34.064 69.728 34.272 69.984C36.752 68.304 36.992 66.048 36.992 64.224V63.424ZM41.472 64.96C42.464 66 43.552 67.44 43.968 68.4L45.008 67.84C44.56 66.864 43.456 65.488 42.432 64.48L41.472 64.96ZM36.304 70.208C37.248 70.832 38.32 71.792 38.784 72.48L39.632 71.824C39.152 71.136 38.064 70.208 37.12 69.6L36.304 70.208ZM37.008 74.096C36.16 74.096 36.032 74.016 36.032 73.568V70.624H34.864V73.584C34.864 74.8 35.28 75.12 36.912 75.12H39.968C41.344 75.12 41.696 74.64 41.824 72.64C41.52 72.576 41.04 72.4 40.784 72.208C40.72 73.84 40.608 74.096 39.888 74.096H37.008ZM41.408 70.96C42.576 72.08 43.84 73.68 44.336 74.768L45.392 74.144C44.832 73.04 43.552 71.488 42.352 70.384L41.408 70.96ZM52.736 62.32C53.152 62.944 53.552 63.776 53.664 64.32H50.832L51.36 64.096C51.2 63.6 50.8 62.928 50.352 62.4C51.2 62.352 52.064 62.304 52.928 62.256L52.736 62.32ZM48.432 65.28H52.976L52.512 65.776C53.36 66.144 54.384 66.752 54.88 67.184L55.504 66.464C55.056 66.08 54.208 65.632 53.456 65.28H59.52V67.2H60.672V64.32H57.792C58.256 63.744 58.752 63.056 59.184 62.4L58.064 61.968C57.712 62.656 57.072 63.664 56.592 64.32H53.712L54.704 63.968C54.576 63.472 54.24 62.768 53.84 62.176C56.096 62.016 58.24 61.76 59.872 61.44L59.088 60.608C56.512 61.12 51.728 61.456 47.824 61.568C47.936 61.792 48.048 62.208 48.08 62.48C48.608 62.464 49.152 62.448 49.712 62.416L49.248 62.608C49.648 63.12 50.08 63.808 50.272 64.32H47.328V67.088H48.432V65.28ZM56.976 66.592C57.904 67.328 58.96 68.416 59.44 69.136L60.288 68.48C59.808 67.76 58.72 66.736 57.792 66.032L56.976 66.592ZM48.544 69.328C49.616 68.704 50.208 67.648 50.576 66.608L49.68 66.224C49.328 67.184 48.688 68.128 47.728 68.64L48.544 69.328ZM56.56 70.928C55.904 71.6 55.04 72.16 54.032 72.608C52.976 72.144 52.096 71.584 51.424 70.928H56.56ZM57.568 70L57.376 70.048H52.4C52.736 69.744 53.024 69.424 53.296 69.088L53.008 68.992H55.6C56.64 68.992 56.944 68.688 57.056 67.392C56.752 67.328 56.336 67.216 56.112 67.056C56.048 68 55.952 68.112 55.456 68.112H53.12C52.448 68.112 52.336 68.048 52.336 67.728V66.208H51.232V67.744C51.232 68.48 51.424 68.816 52.096 68.928C50.928 70.272 49.008 71.408 47.136 72.128C47.36 72.32 47.792 72.704 47.968 72.912C48.832 72.528 49.744 72.032 50.592 71.472C51.2 72.096 51.936 72.64 52.768 73.104C51.024 73.696 48.992 74.064 46.912 74.256C47.136 74.496 47.424 74.976 47.536 75.248C49.824 74.96 52.096 74.496 54.016 73.712C55.888 74.496 58.128 74.992 60.48 75.232C60.64 74.928 60.912 74.432 61.168 74.192C59.04 74.032 57.024 73.664 55.312 73.104C56.56 72.432 57.584 71.568 58.32 70.496L57.568 70ZM64.864 61.888C64.864 62.224 64.8 62.64 64.752 63.008C64.56 64.304 64.048 67.024 64.048 69.36C64.048 71.504 64.304 73.328 64.624 74.448L65.776 74.368L65.728 73.808C65.728 73.632 65.76 73.328 65.808 73.104C65.952 72.352 66.528 70.672 66.928 69.552L66.24 69.04C65.984 69.664 65.632 70.592 65.36 71.312C65.264 70.544 65.232 69.904 65.232 69.136C65.232 67.36 65.696 64.528 66 63.072C66.064 62.784 66.208 62.272 66.304 62L64.864 61.888ZM68.768 69.568C68.624 70.24 68.512 70.864 68.512 71.44C68.512 72.928 69.696 73.808 72.352 73.808C74 73.808 75.328 73.68 76.304 73.488L76.288 72.144C75.008 72.432 73.792 72.56 72.368 72.56C70.192 72.56 69.712 71.856 69.712 71.136C69.712 70.704 69.776 70.256 69.92 69.68L68.768 69.568ZM69.312 64.528C71.04 64.704 74.112 64.704 75.808 64.528V63.216C74.224 63.44 71.024 63.504 69.296 63.216L69.312 64.528ZM83.376 71.776C82.4 72.656 80.448 73.744 78.896 74.384C79.184 74.608 79.584 75.008 79.808 75.232C81.328 74.576 83.248 73.488 84.512 72.496L83.376 71.776ZM87.456 72.592C89.184 73.424 90.992 74.48 92.064 75.248L93.168 74.416C91.984 73.648 90.064 72.608 88.304 71.792L87.456 72.592ZM85.424 66.048H86.592V68.176H85.424V66.048ZM84.816 68.944H87.216V65.28H84.816V68.944ZM87.376 63.408H84.656V64.224H87.376V63.408ZM81.184 68.4H82.784V67.408H81.152L81.104 65.44H82.8V64.448H81.072L81.008 62.656C81.76 62.384 82.56 62.048 83.28 61.712V70.416H81.248L81.184 68.4ZM87.872 62.368V70.416H84.176V62.368H87.872ZM91.84 70.416C91.984 68.016 92.096 64.24 92.128 61.424H89.136V62.416H91.088C91.072 63.072 91.072 63.744 91.056 64.448H89.248V65.44H91.024C91.008 66.096 90.992 66.768 90.96 67.408H89.216V68.4H90.928C90.896 69.136 90.848 69.808 90.816 70.416H88.768V61.424H83.328L82.656 60.704C82.224 60.992 81.552 61.36 80.896 61.68L79.952 61.456L80.224 70.416H78.784V71.52H93.232V70.416H91.84ZM98.304 63.216V70.176H96.304V63.216H98.304ZM99.408 71.328V62.064H95.216V72.56H96.304V71.328H99.408ZM109.168 68.208V67.072H105.008V64.384H108.512V63.248H105.008V60.704H103.84V63.248H100.592V64.384H103.84V67.072H99.984V68.208H103.376C102.4 70.336 100.72 72.384 98.944 73.376C99.232 73.6 99.584 74.016 99.776 74.304C101.328 73.296 102.8 71.536 103.84 69.52V75.216H105.008V69.504C105.92 71.424 107.184 73.232 108.48 74.272C108.672 73.968 109.072 73.52 109.344 73.296C107.856 72.272 106.368 70.24 105.472 68.208H109.168ZM125.584 62.64C125.28 62.048 124.656 61.04 124.24 60.464L123.392 60.816C123.84 61.424 124.368 62.336 124.72 63.024L125.584 62.64ZM123.792 63.296C123.456 62.656 122.864 61.664 122.464 61.104L121.616 61.456C122.048 62.064 122.592 63.04 122.912 63.68L123.792 63.296ZM115.312 61.472C115.328 62.544 115.136 63.776 114.912 64.912C113.952 64.992 113.04 65.072 112.512 65.088C112 65.104 111.6 65.104 111.104 65.088L111.232 66.48C111.632 66.4 112.272 66.336 112.656 66.288C113.072 66.24 113.824 66.16 114.656 66.08C114.112 68.192 112.944 71.76 111.328 73.92L112.624 74.448C114.288 71.792 115.376 68.224 115.952 65.952C116.64 65.888 117.264 65.84 117.648 65.84C118.672 65.84 119.328 66.096 119.328 67.536C119.328 69.248 119.088 71.312 118.576 72.368C118.24 73.056 117.776 73.184 117.2 73.184C116.752 73.184 115.92 73.056 115.248 72.832L115.456 74.192C115.968 74.304 116.72 74.416 117.328 74.416C118.352 74.416 119.136 74.16 119.648 73.104C120.304 71.776 120.56 69.28 120.56 67.392C120.56 65.248 119.408 64.688 117.984 64.688C117.6 64.688 116.944 64.736 116.208 64.8C116.384 63.952 116.528 63.024 116.624 62.56C116.672 62.24 116.752 61.92 116.816 61.616L115.312 61.472ZM121.088 63.968C122.192 65.264 123.44 68.032 123.92 69.664L125.152 69.056C124.624 67.584 123.248 64.704 122.256 63.424L121.088 63.968ZM135.776 66.96C135.088 68.704 134.144 69.984 133.104 70.96C132.944 70.048 132.832 69.088 132.832 68.08C132.832 67.872 132.832 67.664 132.832 67.456C133.584 67.184 134.496 66.96 135.52 66.96H135.776ZM131.712 68.224C131.712 69.408 131.856 70.672 132.08 71.808C131.28 72.368 130.512 72.64 129.904 72.64C129.312 72.64 129.008 72.32 129.008 71.68C129.008 70.4 130.176 68.832 131.712 67.952V68.224ZM137.28 66.08C137.376 65.84 137.504 65.408 137.6 65.2L136.32 64.88C136.304 65.136 136.224 65.552 136.16 65.792L136.112 65.936C135.92 65.92 135.728 65.92 135.536 65.92C134.736 65.92 133.76 66.064 132.88 66.336C132.928 65.664 132.976 64.992 133.04 64.384C134.976 64.288 137.088 64.08 138.752 63.808L138.736 62.608C137.104 62.976 135.184 63.184 133.184 63.28C133.248 62.816 133.312 62.416 133.376 62.08C133.424 61.872 133.488 61.584 133.568 61.376L132.224 61.344C132.224 61.536 132.208 61.84 132.176 62.096C132.144 62.432 132.096 62.848 132.048 63.312C131.696 63.328 131.344 63.328 130.992 63.328C130.32 63.328 128.928 63.216 128.384 63.136L128.416 64.336C129.056 64.368 130.288 64.432 130.976 64.432C131.28 64.432 131.6 64.432 131.936 64.416C131.872 65.152 131.792 65.952 131.76 66.752C129.584 67.744 127.808 69.84 127.808 71.872C127.808 73.232 128.624 73.872 129.696 73.872C130.544 73.872 131.488 73.536 132.352 73.008C132.432 73.328 132.528 73.616 132.608 73.888L133.776 73.536C133.648 73.136 133.52 72.704 133.392 72.256C134.736 71.12 136.016 69.376 136.896 67.136C138.384 67.536 139.168 68.624 139.168 69.824C139.168 71.872 137.408 73.344 134.56 73.648L135.248 74.72C138.928 74.144 140.432 72.16 140.432 69.888C140.432 68.144 139.248 66.672 137.264 66.144L137.28 66.08ZM144.624 67.584L145.152 68.912C146.176 68.512 149.632 67.072 151.6 67.072C153.216 67.072 154.272 68.048 154.272 69.392C154.272 71.984 151.264 72.944 147.84 73.056L148.352 74.288C152.624 74.032 155.568 72.464 155.568 69.408C155.568 67.248 153.936 65.904 151.696 65.904C149.824 65.904 147.232 66.848 146.096 67.2C145.616 67.36 145.088 67.504 144.624 67.584ZM158.627 63.376L158.771 64.784C160.483 64.432 164.803 64.016 166.195 63.856C164.739 64.72 163.251 66.72 163.251 69.2C163.251 72.736 166.595 74.304 169.523 74.416L169.987 73.088C167.411 72.992 164.531 72.016 164.531 68.912C164.531 67.04 165.891 64.64 168.147 63.92C168.963 63.68 170.355 63.664 171.251 63.664V62.384C170.195 62.432 168.707 62.512 166.979 62.656C164.067 62.896 161.075 63.2 160.035 63.296C159.731 63.328 159.235 63.36 158.627 63.376ZM183.238 67.488C184.406 68.464 184.982 69.648 184.982 70.72C184.982 72.368 183.446 73.392 181.046 73.392C179.238 73.392 178.374 72.432 178.374 70.928C178.374 70.544 178.406 69.984 178.47 69.36C178.662 69.36 178.854 69.36 179.046 69.36C180.118 69.36 181.094 69.328 182.15 69.216L182.182 68C181.078 68.144 179.958 68.192 178.886 68.192H178.582C178.694 67.28 178.806 66.288 178.934 65.36H179.046C180.31 65.36 181.254 65.296 182.262 65.2L182.294 64C181.366 64.128 180.294 64.192 179.094 64.192C179.174 63.536 179.254 62.976 179.302 62.576C179.35 62.224 179.398 61.904 179.51 61.472L178.07 61.392C178.102 61.776 178.086 62.128 178.054 62.496C178.022 62.928 177.958 63.504 177.878 64.144C176.694 64.08 175.414 63.888 174.422 63.568L174.358 64.752C175.35 65.008 176.598 65.2 177.734 65.296C177.622 66.224 177.494 67.216 177.382 68.144C176.262 68.064 175.078 67.872 174.038 67.504L173.974 68.72C174.934 69.024 176.086 69.2 177.27 69.296C177.19 70.048 177.142 70.688 177.142 71.12C177.142 73.712 178.886 74.656 181.046 74.656C184.166 74.656 186.294 73.216 186.294 70.864C186.294 69.504 185.75 68.4 184.662 67.2L183.238 67.488ZM191.71 62.864L190.174 62.832C190.254 63.216 190.27 63.872 190.27 64.24C190.27 65.168 190.286 67.088 190.446 68.464C190.878 72.576 192.318 74.064 193.806 74.064C194.894 74.064 195.87 73.152 196.814 70.464L195.806 69.312C195.39 70.912 194.654 72.544 193.838 72.544C192.718 72.544 191.95 70.8 191.694 68.144C191.582 66.848 191.566 65.392 191.582 64.4C191.598 63.984 191.646 63.248 191.71 62.864ZM199.966 63.296L198.718 63.728C200.222 65.584 201.182 68.72 201.454 71.568L202.75 71.056C202.526 68.384 201.39 65.136 199.966 63.296ZM207.71 62.864L206.174 62.832C206.254 63.216 206.27 63.872 206.27 64.24C206.27 65.168 206.286 67.088 206.446 68.464C206.878 72.576 208.318 74.064 209.806 74.064C210.894 74.064 211.87 73.152 212.814 70.464L211.806 69.312C211.39 70.912 210.654 72.544 209.838 72.544C208.718 72.544 207.95 70.8 207.694 68.144C207.582 66.848 207.566 65.392 207.582 64.4C207.598 63.984 207.646 63.248 207.71 62.864ZM215.966 63.296L214.718 63.728C216.222 65.584 217.182 68.72 217.454 71.568L218.75 71.056C218.526 68.384 217.39 65.136 215.966 63.296ZM223.95 61.568C224.046 62.032 224.094 62.592 224.094 63.168C224.094 64.848 223.934 68.848 223.934 71.2C223.934 73.776 225.502 74.736 227.774 74.736C231.262 74.736 233.31 72.752 234.382 71.248L233.502 70.144C232.366 71.792 230.718 73.424 227.806 73.424C226.334 73.424 225.214 72.816 225.214 71.072C225.214 68.704 225.342 64.96 225.406 63.168C225.438 62.656 225.486 62.096 225.566 61.584L223.95 61.568ZM241.55 73.968C240.558 72.8 239.118 71.344 237.966 70.416L236.926 71.328C238.062 72.256 239.438 73.616 240.462 74.896L241.55 73.968ZM266.942 65.616C266.19 65.04 264.382 64.016 263.23 63.504L262.606 64.496C263.662 64.976 265.374 65.952 266.222 66.672L266.942 65.616ZM261.182 63.216C260.382 63.472 259.55 63.664 258.718 63.792C258.974 62.88 259.182 61.92 259.342 61.344L257.918 61.216C257.886 62.064 257.662 63.072 257.422 63.952C256.814 64 256.222 64.032 255.662 64.032C254.974 64.032 254.302 64 253.71 63.92L253.806 65.12C254.398 65.152 255.054 65.168 255.646 65.168C256.11 65.168 256.574 65.152 257.038 65.12C256.318 66.976 254.974 69.504 253.646 71.04L254.894 71.68C256.158 69.968 257.566 67.216 258.35 64.976C259.39 64.848 260.382 64.64 261.214 64.4L261.182 63.216ZM262.014 72.064C262.014 72.848 261.582 73.568 260.286 73.568C259.054 73.568 258.462 73.072 258.462 72.336C258.462 71.616 259.23 71.088 260.398 71.088C260.958 71.088 261.502 71.168 261.998 71.312C262.014 71.6 262.014 71.856 262.014 72.064ZM261.79 66.24C261.822 67.344 261.902 68.896 261.95 70.192C261.486 70.096 260.974 70.048 260.446 70.048C258.654 70.048 257.278 70.992 257.278 72.448C257.278 74.016 258.702 74.736 260.446 74.736C262.398 74.736 263.23 73.696 263.23 72.432C263.23 72.256 263.23 72.032 263.214 71.792C264.238 72.288 265.086 72.992 265.758 73.6L266.446 72.512C265.63 71.808 264.526 71.024 263.166 70.528C263.134 69.568 263.07 68.528 263.054 67.952C263.038 67.36 263.022 66.896 263.07 66.24H261.79ZM278.142 61.184C277.966 61.472 277.55 61.92 277.23 62.24C276.158 63.328 273.758 65.216 272.574 66.224C271.134 67.424 270.974 68.144 272.462 69.392C273.95 70.608 276.59 72.864 277.454 73.792C277.79 74.16 278.222 74.56 278.542 74.944L279.694 73.904C278.142 72.368 275.214 69.936 273.774 68.784C272.75 67.936 272.75 67.696 273.71 66.864C274.878 65.904 277.15 64.08 278.254 63.136C278.51 62.912 278.99 62.496 279.342 62.24L278.142 61.184ZM285.033 63.376L285.177 64.784C286.889 64.432 291.209 64.016 292.601 63.856C291.145 64.72 289.657 66.72 289.657 69.2C289.657 72.736 293.001 74.304 295.929 74.416L296.393 73.088C293.817 72.992 290.937 72.016 290.937 68.912C290.937 67.04 292.297 64.64 294.553 63.92C295.369 63.68 296.761 63.664 297.657 63.664V62.384C296.601 62.432 295.113 62.512 293.385 62.656C290.473 62.896 287.481 63.2 286.441 63.296C286.137 63.328 285.641 63.36 285.033 63.376ZM309.645 67.488C310.813 68.464 311.389 69.648 311.389 70.72C311.389 72.368 309.853 73.392 307.453 73.392C305.645 73.392 304.781 72.432 304.781 70.928C304.781 70.544 304.813 69.984 304.877 69.36C305.069 69.36 305.261 69.36 305.453 69.36C306.525 69.36 307.501 69.328 308.557 69.216L308.589 68C307.485 68.144 306.365 68.192 305.293 68.192H304.989C305.101 67.28 305.213 66.288 305.341 65.36H305.453C306.717 65.36 307.661 65.296 308.669 65.2L308.701 64C307.773 64.128 306.701 64.192 305.501 64.192C305.581 63.536 305.661 62.976 305.709 62.576C305.757 62.224 305.805 61.904 305.917 61.472L304.477 61.392C304.509 61.776 304.493 62.128 304.461 62.496C304.429 62.928 304.365 63.504 304.285 64.144C303.101 64.08 301.821 63.888 300.829 63.568L300.765 64.752C301.757 65.008 303.005 65.2 304.141 65.296C304.029 66.224 303.901 67.216 303.789 68.144C302.669 68.064 301.485 67.872 300.445 67.504L300.381 68.72C301.341 69.024 302.493 69.2 303.677 69.296C303.597 70.048 303.549 70.688 303.549 71.12C303.549 73.712 305.293 74.656 307.453 74.656C310.573 74.656 312.701 73.216 312.701 70.864C312.701 69.504 312.157 68.4 311.069 67.2L309.645 67.488ZM318.116 62.864L316.58 62.832C316.66 63.216 316.676 63.872 316.676 64.24C316.676 65.168 316.692 67.088 316.852 68.464C317.284 72.576 318.724 74.064 320.212 74.064C321.3 74.064 322.276 73.152 323.22 70.464L322.212 69.312C321.796 70.912 321.06 72.544 320.244 72.544C319.124 72.544 318.356 70.8 318.1 68.144C317.988 66.848 317.972 65.392 317.988 64.4C318.004 63.984 318.052 63.248 318.116 62.864ZM326.372 63.296L325.124 63.728C326.628 65.584 327.588 68.72 327.86 71.568L329.156 71.056C328.932 68.384 327.796 65.136 326.372 63.296ZM334.116 62.864L332.58 62.832C332.66 63.216 332.676 63.872 332.676 64.24C332.676 65.168 332.692 67.088 332.852 68.464C333.284 72.576 334.724 74.064 336.212 74.064C337.3 74.064 338.276 73.152 339.22 70.464L338.212 69.312C337.796 70.912 337.06 72.544 336.244 72.544C335.124 72.544 334.356 70.8 334.1 68.144C333.988 66.848 333.972 65.392 333.988 64.4C334.004 63.984 334.052 63.248 334.116 62.864ZM342.372 63.296L341.124 63.728C342.628 65.584 343.588 68.72 343.86 71.568L345.156 71.056C344.932 68.384 343.796 65.136 342.372 63.296ZM349.604 70.096C348.276 70.096 347.172 71.184 347.172 72.528C347.172 73.872 348.276 74.976 349.604 74.976C350.964 74.976 352.052 73.872 352.052 72.528C352.052 71.184 350.964 70.096 349.604 70.096ZM349.604 74.16C348.724 74.16 347.988 73.44 347.988 72.528C347.988 71.648 348.724 70.912 349.604 70.912C350.516 70.912 351.22 71.648 351.22 72.528C351.22 73.44 350.516 74.16 349.604 74.16ZM35.504 96.992C35.296 99.088 34.88 100.848 34.272 102.288C33.664 101.856 33.024 101.456 32.416 101.104C32.736 99.84 33.072 98.416 33.392 96.992H35.504ZM36 95.856L35.792 95.904H33.632C33.872 94.8 34.096 93.728 34.288 92.752L33.152 92.624C32.976 93.616 32.752 94.752 32.496 95.904H30.752V96.992H32.272C31.824 98.992 31.344 100.96 30.96 102.336L31.952 102.848L32.128 102.176C32.688 102.528 33.248 102.912 33.776 103.312C33.024 104.688 32.048 105.68 30.88 106.288C31.136 106.528 31.456 106.96 31.616 107.248C32.864 106.496 33.888 105.456 34.688 104.032C35.36 104.592 35.936 105.152 36.32 105.632L37.04 104.688C36.608 104.16 35.968 103.568 35.216 102.992C36 101.2 36.496 98.912 36.704 96.016L36 95.856ZM45.36 99.024H41.552V97.6C42.768 96.656 44.128 95.216 45.024 93.936L44.24 93.36L44 93.44H37.152V94.528H43.136C42.496 95.344 41.648 96.256 40.848 96.896H40.368V99.024H36.624V100.128H40.368V105.712C40.368 105.952 40.288 106.032 40.016 106.048C39.744 106.064 38.848 106.064 37.84 106.032C38.016 106.336 38.224 106.864 38.288 107.184C39.552 107.184 40.384 107.152 40.88 106.976C41.392 106.784 41.552 106.432 41.552 105.712V100.128H45.36V99.024ZM49.376 101.712C49.2 102.288 49.008 103.024 49.008 103.696C49.008 105.68 50.672 106.656 53.504 106.656C54.8 106.656 56.336 106.528 57.328 106.352L57.36 105.056C56.24 105.312 54.736 105.424 53.456 105.424C51.2 105.424 50.24 104.656 50.24 103.44C50.24 103.024 50.416 102.32 50.608 101.824L49.376 101.712ZM59.472 97.376C58.752 97.648 57.792 97.936 56.544 98.16C56.272 97.568 56.048 97.072 55.92 96.736L55.632 96.08C56.72 95.904 57.76 95.664 58.576 95.408L58.352 94.272C57.424 94.608 56.304 94.848 55.2 95.024C54.96 94.416 54.752 93.808 54.608 93.264L53.168 93.568C53.376 93.904 53.52 94.192 53.76 94.688C53.824 94.832 53.888 94.992 53.968 95.168C52.448 95.28 50.672 95.248 48.784 95.04L48.864 96.208C50.832 96.384 52.832 96.384 54.432 96.24C54.544 96.496 54.656 96.784 54.784 97.056L55.344 98.352C53.456 98.592 51.104 98.608 48.688 98.384L48.736 99.552C51.184 99.712 53.776 99.68 55.824 99.408C56.192 100.24 56.56 101.072 56.864 101.696C56.368 101.648 55.616 101.568 54.848 101.472L54.736 102.448C55.744 102.576 57.024 102.752 57.824 102.896L58.448 102.112C58 101.28 57.488 100.208 57.024 99.2C58.096 98.992 59.008 98.768 59.712 98.528L59.472 97.376ZM76.848 97.616C76.096 97.04 74.288 96.016 73.136 95.504L72.512 96.496C73.568 96.976 75.28 97.952 76.128 98.672L76.848 97.616ZM71.088 95.216C70.288 95.472 69.456 95.664 68.624 95.792C68.88 94.88 69.088 93.92 69.248 93.344L67.824 93.216C67.792 94.064 67.568 95.072 67.328 95.952C66.72 96 66.128 96.032 65.568 96.032C64.88 96.032 64.208 96 63.616 95.92L63.712 97.12C64.304 97.152 64.96 97.168 65.552 97.168C66.016 97.168 66.48 97.152 66.944 97.12C66.224 98.976 64.88 101.504 63.552 103.04L64.8 103.68C66.064 101.968 67.472 99.216 68.256 96.976C69.296 96.848 70.288 96.64 71.12 96.4L71.088 95.216ZM71.92 104.064C71.92 104.848 71.488 105.568 70.192 105.568C68.96 105.568 68.368 105.072 68.368 104.336C68.368 103.616 69.136 103.088 70.304 103.088C70.864 103.088 71.408 103.168 71.904 103.312C71.92 103.6 71.92 103.856 71.92 104.064ZM71.696 98.24C71.728 99.344 71.808 100.896 71.856 102.192C71.392 102.096 70.88 102.048 70.352 102.048C68.56 102.048 67.184 102.992 67.184 104.448C67.184 106.016 68.608 106.736 70.352 106.736C72.304 106.736 73.136 105.696 73.136 104.432C73.136 104.256 73.136 104.032 73.12 103.792C74.144 104.288 74.992 104.992 75.664 105.6L76.352 104.512C75.536 103.808 74.432 103.024 73.072 102.528C73.04 101.568 72.976 100.528 72.96 99.952C72.944 99.36 72.928 98.896 72.976 98.24H71.696ZM85.184 93.104C85.072 95.216 85.072 102.848 78.592 106.16C78.96 106.416 79.344 106.784 79.552 107.072C83.6 104.88 85.248 101.024 85.952 97.824C86.72 101.024 88.48 105.12 92.608 107.072C92.784 106.752 93.152 106.352 93.488 106.096C87.472 103.344 86.608 95.952 86.464 93.84C86.48 93.568 86.48 93.312 86.496 93.104H85.184ZM109.584 94.64C109.28 94.048 108.656 93.04 108.24 92.464L107.392 92.816C107.84 93.424 108.368 94.336 108.72 95.024L109.584 94.64ZM107.792 95.296C107.456 94.656 106.864 93.664 106.464 93.104L105.616 93.456C106.048 94.064 106.592 95.04 106.912 95.68L107.792 95.296ZM99.312 93.472C99.328 94.544 99.136 95.776 98.912 96.912C97.952 96.992 97.04 97.072 96.512 97.088C96 97.104 95.6 97.104 95.104 97.088L95.232 98.48C95.632 98.4 96.272 98.336 96.656 98.288C97.072 98.24 97.824 98.16 98.656 98.08C98.112 100.192 96.944 103.76 95.328 105.92L96.624 106.448C98.288 103.792 99.376 100.224 99.952 97.952C100.64 97.888 101.264 97.84 101.648 97.84C102.672 97.84 103.328 98.096 103.328 99.536C103.328 101.248 103.088 103.312 102.576 104.368C102.24 105.056 101.776 105.184 101.2 105.184C100.752 105.184 99.92 105.056 99.248 104.832L99.456 106.192C99.968 106.304 100.72 106.416 101.328 106.416C102.352 106.416 103.136 106.16 103.648 105.104C104.304 103.776 104.56 101.28 104.56 99.392C104.56 97.248 103.408 96.688 101.984 96.688C101.6 96.688 100.944 96.736 100.208 96.8C100.384 95.952 100.528 95.024 100.624 94.56C100.672 94.24 100.752 93.92 100.816 93.616L99.312 93.472ZM105.088 95.968C106.192 97.264 107.44 100.032 107.92 101.664L109.152 101.056C108.624 99.584 107.248 96.704 106.256 95.424L105.088 95.968ZM113.616 94.864L112.08 94.832C112.16 95.216 112.176 95.872 112.176 96.24C112.176 97.168 112.192 99.088 112.352 100.464C112.784 104.576 114.224 106.064 115.712 106.064C116.8 106.064 117.776 105.152 118.72 102.464L117.712 101.312C117.296 102.912 116.56 104.544 115.744 104.544C114.624 104.544 113.856 102.8 113.6 100.144C113.488 98.848 113.472 97.392 113.488 96.4C113.504 95.984 113.552 95.248 113.616 94.864ZM121.872 95.296L120.624 95.728C122.128 97.584 123.088 100.72 123.36 103.568L124.656 103.056C124.432 100.384 123.296 97.136 121.872 95.296ZM126.94 95.376L127.084 96.784C128.796 96.432 133.116 96.016 134.508 95.856C133.052 96.72 131.564 98.72 131.564 101.2C131.564 104.736 134.908 106.304 137.836 106.416L138.3 105.088C135.724 104.992 132.844 104.016 132.844 100.912C132.844 99.04 134.204 96.64 136.46 95.92C137.276 95.68 138.668 95.664 139.564 95.664V94.384C138.508 94.432 137.02 94.512 135.292 94.656C132.38 94.896 129.388 95.2 128.348 95.296C128.044 95.328 127.548 95.36 126.94 95.376ZM151.551 99.488C152.719 100.464 153.295 101.648 153.295 102.72C153.295 104.368 151.759 105.392 149.359 105.392C147.551 105.392 146.687 104.432 146.687 102.928C146.687 102.544 146.719 101.984 146.783 101.36C146.975 101.36 147.167 101.36 147.359 101.36C148.431 101.36 149.407 101.328 150.463 101.216L150.495 100C149.391 100.144 148.271 100.192 147.199 100.192H146.895C147.007 99.28 147.119 98.288 147.247 97.36H147.359C148.623 97.36 149.567 97.296 150.575 97.2L150.607 96C149.679 96.128 148.607 96.192 147.407 96.192C147.487 95.536 147.567 94.976 147.615 94.576C147.663 94.224 147.711 93.904 147.823 93.472L146.383 93.392C146.415 93.776 146.399 94.128 146.367 94.496C146.335 94.928 146.271 95.504 146.191 96.144C145.007 96.08 143.727 95.888 142.735 95.568L142.671 96.752C143.663 97.008 144.911 97.2 146.047 97.296C145.935 98.224 145.807 99.216 145.695 100.144C144.575 100.064 143.391 99.872 142.351 99.504L142.287 100.72C143.247 101.024 144.399 101.2 145.583 101.296C145.503 102.048 145.455 102.688 145.455 103.12C145.455 105.712 147.199 106.656 149.359 106.656C152.479 106.656 154.607 105.216 154.607 102.864C154.607 101.504 154.063 100.4 152.975 99.2L151.551 99.488ZM160.022 94.864L158.486 94.832C158.566 95.216 158.582 95.872 158.582 96.24C158.582 97.168 158.598 99.088 158.758 100.464C159.19 104.576 160.63 106.064 162.118 106.064C163.206 106.064 164.182 105.152 165.126 102.464L164.118 101.312C163.702 102.912 162.966 104.544 162.15 104.544C161.03 104.544 160.262 102.8 160.006 100.144C159.894 98.848 159.878 97.392 159.894 96.4C159.91 95.984 159.958 95.248 160.022 94.864ZM168.278 95.296L167.03 95.728C168.534 97.584 169.494 100.72 169.766 103.568L171.062 103.056C170.838 100.384 169.702 97.136 168.278 95.296ZM176.022 94.864L174.486 94.832C174.566 95.216 174.582 95.872 174.582 96.24C174.582 97.168 174.598 99.088 174.758 100.464C175.19 104.576 176.63 106.064 178.118 106.064C179.206 106.064 180.182 105.152 181.126 102.464L180.118 101.312C179.702 102.912 178.966 104.544 178.15 104.544C177.03 104.544 176.262 102.8 176.006 100.144C175.894 98.848 175.878 97.392 175.894 96.4C175.91 95.984 175.958 95.248 176.022 94.864ZM184.278 95.296L183.03 95.728C184.534 97.584 185.494 100.72 185.766 103.568L187.062 103.056C186.838 100.384 185.702 97.136 184.278 95.296ZM192.262 93.568C192.358 94.032 192.406 94.592 192.406 95.168C192.406 96.848 192.246 100.848 192.246 103.2C192.246 105.776 193.814 106.736 196.086 106.736C199.574 106.736 201.622 104.752 202.694 103.248L201.814 102.144C200.678 103.792 199.03 105.424 196.118 105.424C194.646 105.424 193.526 104.816 193.526 103.072C193.526 100.704 193.654 96.96 193.718 95.168C193.75 94.656 193.798 94.096 193.878 93.584L192.262 93.568ZM209.862 105.968C208.87 104.8 207.43 103.344 206.278 102.416L205.238 103.328C206.374 104.256 207.75 105.616 208.774 106.896L209.862 105.968ZM224.022 94.864L222.486 94.832C222.566 95.216 222.582 95.872 222.582 96.24C222.582 97.168 222.598 99.088 222.758 100.464C223.19 104.576 224.63 106.064 226.118 106.064C227.206 106.064 228.182 105.152 229.126 102.464L228.118 101.312C227.702 102.912 226.966 104.544 226.15 104.544C225.03 104.544 224.262 102.8 224.006 100.144C223.894 98.848 223.878 97.392 223.894 96.4C223.91 95.984 223.958 95.248 224.022 94.864ZM232.278 95.296L231.03 95.728C232.534 97.584 233.494 100.72 233.766 103.568L235.062 103.056C234.838 100.384 233.702 97.136 232.278 95.296ZM251.254 97.616C250.502 97.04 248.694 96.016 247.542 95.504L246.918 96.496C247.974 96.976 249.686 97.952 250.534 98.672L251.254 97.616ZM245.494 95.216C244.694 95.472 243.862 95.664 243.03 95.792C243.286 94.88 243.494 93.92 243.654 93.344L242.23 93.216C242.198 94.064 241.974 95.072 241.734 95.952C241.126 96 240.534 96.032 239.974 96.032C239.286 96.032 238.614 96 238.022 95.92L238.118 97.12C238.71 97.152 239.366 97.168 239.958 97.168C240.422 97.168 240.886 97.152 241.35 97.12C240.63 98.976 239.286 101.504 237.958 103.04L239.206 103.68C240.47 101.968 241.878 99.216 242.662 96.976C243.702 96.848 244.694 96.64 245.526 96.4L245.494 95.216ZM246.326 104.064C246.326 104.848 245.894 105.568 244.598 105.568C243.366 105.568 242.774 105.072 242.774 104.336C242.774 103.616 243.542 103.088 244.71 103.088C245.27 103.088 245.814 103.168 246.31 103.312C246.326 103.6 246.326 103.856 246.326 104.064ZM246.102 98.24C246.134 99.344 246.214 100.896 246.262 102.192C245.798 102.096 245.286 102.048 244.758 102.048C242.966 102.048 241.59 102.992 241.59 104.448C241.59 106.016 243.014 106.736 244.758 106.736C246.71 106.736 247.542 105.696 247.542 104.432C247.542 104.256 247.542 104.032 247.526 103.792C248.55 104.288 249.398 104.992 250.07 105.6L250.758 104.512C249.942 103.808 248.838 103.024 247.478 102.528C247.446 101.568 247.382 100.528 247.366 99.952C247.35 99.36 247.334 98.896 247.382 98.24H246.102ZM262.454 93.184C262.278 93.472 261.862 93.92 261.542 94.24C260.47 95.328 258.07 97.216 256.886 98.224C255.446 99.424 255.286 100.144 256.774 101.392C258.262 102.608 260.902 104.864 261.766 105.792C262.102 106.16 262.534 106.56 262.854 106.944L264.006 105.904C262.454 104.368 259.526 101.936 258.086 100.784C257.062 99.936 257.062 99.696 258.022 98.864C259.19 97.904 261.462 96.08 262.566 95.136C262.822 94.912 263.302 94.496 263.654 94.24L262.454 93.184ZM269.346 95.376L269.49 96.784C271.202 96.432 275.522 96.016 276.914 95.856C275.458 96.72 273.97 98.72 273.97 101.2C273.97 104.736 277.314 106.304 280.242 106.416L280.706 105.088C278.13 104.992 275.25 104.016 275.25 100.912C275.25 99.04 276.61 96.64 278.866 95.92C279.682 95.68 281.074 95.664 281.97 95.664V94.384C280.914 94.432 279.426 94.512 277.698 94.656C274.786 94.896 271.794 95.2 270.754 95.296C270.45 95.328 269.954 95.36 269.346 95.376ZM293.957 99.488C295.125 100.464 295.701 101.648 295.701 102.72C295.701 104.368 294.165 105.392 291.765 105.392C289.957 105.392 289.093 104.432 289.093 102.928C289.093 102.544 289.125 101.984 289.189 101.36C289.381 101.36 289.573 101.36 289.765 101.36C290.837 101.36 291.813 101.328 292.869 101.216L292.901 100C291.797 100.144 290.677 100.192 289.605 100.192H289.301C289.413 99.28 289.525 98.288 289.653 97.36H289.765C291.029 97.36 291.973 97.296 292.981 97.2L293.013 96C292.085 96.128 291.013 96.192 289.813 96.192C289.893 95.536 289.973 94.976 290.021 94.576C290.069 94.224 290.117 93.904 290.229 93.472L288.789 93.392C288.821 93.776 288.805 94.128 288.773 94.496C288.741 94.928 288.677 95.504 288.597 96.144C287.413 96.08 286.133 95.888 285.141 95.568L285.077 96.752C286.069 97.008 287.317 97.2 288.453 97.296C288.341 98.224 288.213 99.216 288.101 100.144C286.981 100.064 285.797 99.872 284.757 99.504L284.693 100.72C285.653 101.024 286.805 101.2 287.989 101.296C287.909 102.048 287.861 102.688 287.861 103.12C287.861 105.712 289.605 106.656 291.765 106.656C294.885 106.656 297.013 105.216 297.013 102.864C297.013 101.504 296.469 100.4 295.381 99.2L293.957 99.488ZM302.429 94.864L300.893 94.832C300.973 95.216 300.989 95.872 300.989 96.24C300.989 97.168 301.005 99.088 301.164 100.464C301.597 104.576 303.036 106.064 304.525 106.064C305.613 106.064 306.589 105.152 307.533 102.464L306.525 101.312C306.109 102.912 305.373 104.544 304.557 104.544C303.437 104.544 302.669 102.8 302.413 100.144C302.301 98.848 302.285 97.392 302.301 96.4C302.317 95.984 302.365 95.248 302.429 94.864ZM310.685 95.296L309.437 95.728C310.941 97.584 311.901 100.72 312.173 103.568L313.469 103.056C313.245 100.384 312.109 97.136 310.685 95.296ZM318.429 94.864L316.893 94.832C316.973 95.216 316.989 95.872 316.989 96.24C316.989 97.168 317.005 99.088 317.164 100.464C317.597 104.576 319.036 106.064 320.525 106.064C321.613 106.064 322.589 105.152 323.533 102.464L322.525 101.312C322.109 102.912 321.373 104.544 320.557 104.544C319.437 104.544 318.669 102.8 318.413 100.144C318.301 98.848 318.285 97.392 318.301 96.4C318.317 95.984 318.365 95.248 318.429 94.864ZM326.685 95.296L325.437 95.728C326.941 97.584 327.901 100.72 328.173 103.568L329.469 103.056C329.245 100.384 328.109 97.136 326.685 95.296ZM333.917 102.096C332.589 102.096 331.485 103.184 331.485 104.528C331.485 105.872 332.589 106.976 333.917 106.976C335.277 106.976 336.365 105.872 336.365 104.528C336.365 103.184 335.277 102.096 333.917 102.096ZM333.917 106.16C333.037 106.16 332.301 105.44 332.301 104.528C332.301 103.648 333.037 102.912 333.917 102.912C334.829 102.912 335.533 103.648 335.533 104.528C335.533 105.44 334.829 106.16 333.917 106.16ZM34.144 129.936H44.4V128.736H39.92V124.64H38.672V128.736H34.144V125.04H32.928V130.336C32.928 133.12 32.704 136.064 30.688 138.32C30.96 138.528 31.408 138.96 31.6 139.248C33.072 137.632 33.696 135.696 33.952 133.696H40.672V139.216H41.936V132.48H34.08C34.128 131.76 34.144 131.04 34.144 130.32V129.936ZM58.336 128.384H54.544V126.368H58.336V128.384ZM58.336 131.424H54.544V129.392H58.336V131.424ZM49.488 129.392H53.376V131.424H49.488V129.392ZM49.488 126.368H53.376V128.384H49.488V126.368ZM59.504 125.312H48.368V132.48H59.504V125.312ZM56.24 135.056C55.52 134.336 54.08 133.376 52.896 132.8L52.112 133.52C53.296 134.16 54.736 135.136 55.424 135.856L56.24 135.056ZM47.904 138.4C48.688 137.376 49.248 135.712 49.632 134.4L48.576 134.032C48.224 135.28 47.616 136.848 46.832 137.84L47.904 138.4ZM52.88 137.792C51.984 137.792 51.824 137.712 51.824 137.264V134.112H50.64V137.28C50.64 138.544 51.088 138.896 52.8 138.896H56.016C57.472 138.896 57.856 138.352 58.016 136.192C57.68 136.112 57.184 135.936 56.912 135.744C56.832 137.536 56.704 137.792 55.92 137.792H52.88ZM57.84 134.288C58.752 135.536 59.68 137.2 60 138.272L61.152 137.76C60.784 136.672 59.824 135.056 58.896 133.856L57.84 134.288ZM65.616 126.864L64.08 126.832C64.16 127.216 64.176 127.872 64.176 128.24C64.176 129.168 64.192 131.088 64.352 132.464C64.784 136.576 66.224 138.064 67.712 138.064C68.8 138.064 69.776 137.152 70.72 134.464L69.712 133.312C69.296 134.912 68.56 136.544 67.744 136.544C66.624 136.544 65.856 134.8 65.6 132.144C65.488 130.848 65.472 129.392 65.488 128.4C65.504 127.984 65.552 127.248 65.616 126.864ZM73.872 127.296L72.624 127.728C74.128 129.584 75.088 132.72 75.36 135.568L76.656 135.056C76.432 132.384 75.296 129.136 73.872 127.296ZM89.2276 129.696L88.4116 130.048C88.8916 130.704 89.3556 131.536 89.7236 132.304L90.5396 131.92C90.2036 131.216 89.5956 130.224 89.2276 129.696ZM90.9716 129.024L90.1716 129.392C90.6836 130.064 91.1476 130.848 91.5316 131.616L92.3636 131.232C91.9796 130.528 91.3556 129.552 90.9716 129.024ZM78.8436 127.472L78.9876 128.88C80.6996 128.528 85.0196 128.112 86.4116 127.952C84.9556 128.816 83.4676 130.832 83.4676 133.296C83.4676 136.832 86.8116 138.4 89.7396 138.528L90.2036 137.184C87.6276 137.088 84.7476 136.112 84.7476 133.024C84.7476 131.152 86.1076 128.736 88.3636 128.016C89.1796 127.776 90.5556 127.76 91.4676 127.76V126.48C90.4116 126.528 88.9236 126.608 87.1956 126.752C84.2836 127.008 81.2916 127.296 80.2516 127.392C79.9476 127.424 79.4516 127.456 78.8436 127.472ZM104.348 131.488C105.516 132.464 106.092 133.648 106.092 134.72C106.092 136.368 104.556 137.392 102.156 137.392C100.348 137.392 99.4836 136.432 99.4836 134.928C99.4836 134.544 99.5156 133.984 99.5796 133.36C99.7716 133.36 99.9636 133.36 100.156 133.36C101.228 133.36 102.204 133.328 103.26 133.216L103.292 132C102.188 132.144 101.068 132.192 99.9956 132.192H99.6916C99.8036 131.28 99.9156 130.288 100.044 129.36H100.156C101.42 129.36 102.364 129.296 103.372 129.2L103.404 128C102.476 128.128 101.404 128.192 100.204 128.192C100.284 127.536 100.364 126.976 100.412 126.576C100.46 126.224 100.508 125.904 100.62 125.472L99.1796 125.392C99.2116 125.776 99.1956 126.128 99.1636 126.496C99.1316 126.928 99.0676 127.504 98.9876 128.144C97.8036 128.08 96.5236 127.888 95.5316 127.568L95.4676 128.752C96.4596 129.008 97.7076 129.2 98.8436 129.296C98.7316 130.224 98.6036 131.216 98.4916 132.144C97.3716 132.064 96.1876 131.872 95.1476 131.504L95.0836 132.72C96.0436 133.024 97.1956 133.2 98.3796 133.296C98.2996 134.048 98.2516 134.688 98.2516 135.12C98.2516 137.712 99.9956 138.656 102.156 138.656C105.276 138.656 107.404 137.216 107.404 134.864C107.404 133.504 106.86 132.4 105.772 131.2L104.348 131.488ZM124.556 126.896V125.744H110.492V126.896H116.828V129.008H111.276V139.248H112.412V130.128H116.828V135.072H114.94V131.424H113.932V137.264H114.94V136.112H119.964V137.04H121.02V131.424H119.964V135.072H117.98V130.128H122.636V137.856C122.636 138.096 122.572 138.176 122.3 138.192C122.012 138.208 121.1 138.208 120.14 138.176C120.3 138.464 120.476 138.944 120.54 139.232C121.788 139.248 122.636 139.248 123.148 139.056C123.644 138.88 123.804 138.544 123.804 137.856V129.008H117.98V126.896H124.556ZM138.78 127.92H134.812V126.432H138.78V127.92ZM138.78 130.352H134.812V128.848H138.78V130.352ZM138.78 132.784H134.812V131.264H138.78V132.784ZM139.916 125.456H133.708V133.76H139.916V125.456ZM132.156 134.24C132.892 134.96 133.868 135.984 134.332 136.592L135.196 135.888C134.7 135.296 133.724 134.304 132.988 133.632L132.156 134.24ZM127.356 138.384C127.996 137.504 128.508 136.08 128.86 135.008L127.82 134.608C127.5 135.648 126.956 137.008 126.316 137.856L127.356 138.384ZM130.492 133.92V130.032C131.196 130.624 132.092 131.408 132.508 131.808L133.148 130.848C132.732 130.528 131.1 129.312 130.492 128.928V128.032H133.02V126.992H130.492V124.656H129.356V126.992H126.444V128.032H129.148C128.444 129.664 127.26 131.312 126.092 132.144C126.332 132.336 126.668 132.704 126.86 132.976C127.756 132.24 128.652 131.024 129.356 129.712V133.92H130.492ZM132.332 137.808C131.404 137.808 131.244 137.728 131.244 137.312V134.784H130.076V137.328C130.076 138.56 130.524 138.88 132.252 138.88H135.564C137.004 138.88 137.372 138.4 137.532 136.4C137.196 136.336 136.716 136.16 136.444 135.952C136.38 137.584 136.252 137.808 135.484 137.808H132.332ZM137.756 134.752C138.396 135.808 139.228 137.2 139.596 138.032L140.7 137.488C140.3 136.672 139.436 135.296 138.78 134.288L137.756 134.752ZM145.132 126.864L143.596 126.832C143.676 127.216 143.692 127.872 143.692 128.24C143.692 129.168 143.708 131.088 143.868 132.464C144.3 136.576 145.74 138.064 147.228 138.064C148.316 138.064 149.292 137.152 150.236 134.464L149.228 133.312C148.812 134.912 148.076 136.544 147.26 136.544C146.14 136.544 145.372 134.8 145.116 132.144C145.004 130.848 144.988 129.392 145.004 128.4C145.02 127.984 145.068 127.248 145.132 126.864ZM153.388 127.296L152.14 127.728C153.644 129.584 154.604 132.72 154.876 135.568L156.172 135.056C155.948 132.384 154.812 129.136 153.388 127.296ZM168.743 129.696L167.927 130.048C168.407 130.704 168.871 131.536 169.239 132.304L170.055 131.92C169.719 131.216 169.111 130.224 168.743 129.696ZM170.487 129.024L169.687 129.392C170.199 130.064 170.663 130.848 171.047 131.616L171.879 131.232C171.495 130.528 170.871 129.552 170.487 129.024ZM158.359 127.472L158.503 128.88C160.215 128.528 164.535 128.112 165.927 127.952C164.471 128.816 162.983 130.832 162.983 133.296C162.983 136.832 166.327 138.4 169.255 138.528L169.719 137.184C167.143 137.088 164.263 136.112 164.263 133.024C164.263 131.152 165.623 128.736 167.879 128.016C168.695 127.776 170.071 127.76 170.983 127.76V126.48C169.927 126.528 168.439 126.608 166.711 126.752C163.799 127.008 160.807 127.296 159.767 127.392C159.463 127.424 158.967 127.456 158.359 127.472ZM183.863 131.488C185.031 132.464 185.607 133.648 185.607 134.72C185.607 136.368 184.071 137.392 181.671 137.392C179.863 137.392 178.999 136.432 178.999 134.928C178.999 134.544 179.031 133.984 179.095 133.36C179.287 133.36 179.479 133.36 179.671 133.36C180.743 133.36 181.719 133.328 182.775 133.216L182.807 132C181.703 132.144 180.583 132.192 179.511 132.192H179.207C179.319 131.28 179.431 130.288 179.559 129.36H179.671C180.935 129.36 181.879 129.296 182.887 129.2L182.919 128C181.991 128.128 180.919 128.192 179.719 128.192C179.799 127.536 179.879 126.976 179.927 126.576C179.975 126.224 180.023 125.904 180.135 125.472L178.695 125.392C178.727 125.776 178.711 126.128 178.679 126.496C178.647 126.928 178.583 127.504 178.503 128.144C177.319 128.08 176.039 127.888 175.047 127.568L174.983 128.752C175.975 129.008 177.223 129.2 178.359 129.296C178.247 130.224 178.119 131.216 178.007 132.144C176.887 132.064 175.703 131.872 174.663 131.504L174.599 132.72C175.559 133.024 176.711 133.2 177.895 133.296C177.815 134.048 177.767 134.688 177.767 135.12C177.767 137.712 179.511 138.656 181.671 138.656C184.791 138.656 186.919 137.216 186.919 134.864C186.919 133.504 186.375 132.4 185.287 131.2L183.863 131.488ZM192.335 126.864L190.799 126.832C190.879 127.216 190.895 127.872 190.895 128.24C190.895 129.168 190.911 131.088 191.071 132.464C191.503 136.576 192.943 138.064 194.431 138.064C195.519 138.064 196.495 137.152 197.439 134.464L196.431 133.312C196.015 134.912 195.279 136.544 194.463 136.544C193.343 136.544 192.575 134.8 192.319 132.144C192.207 130.848 192.191 129.392 192.207 128.4C192.223 127.984 192.271 127.248 192.335 126.864ZM200.591 127.296L199.343 127.728C200.847 129.584 201.807 132.72 202.079 135.568L203.375 135.056C203.151 132.384 202.015 129.136 200.591 127.296ZM208.335 126.864L206.799 126.832C206.879 127.216 206.895 127.872 206.895 128.24C206.895 129.168 206.911 131.088 207.071 132.464C207.503 136.576 208.943 138.064 210.431 138.064C211.519 138.064 212.495 137.152 213.439 134.464L212.431 133.312C212.015 134.912 211.279 136.544 210.463 136.544C209.343 136.544 208.575 134.8 208.319 132.144C208.207 130.848 208.191 129.392 208.207 128.4C208.223 127.984 208.271 127.248 208.335 126.864ZM216.591 127.296L215.343 127.728C216.847 129.584 217.807 132.72 218.079 135.568L219.375 135.056C219.151 132.384 218.015 129.136 216.591 127.296ZM223.823 134.096C222.495 134.096 221.391 135.184 221.391 136.528C221.391 137.872 222.495 138.976 223.823 138.976C225.183 138.976 226.271 137.872 226.271 136.528C226.271 135.184 225.183 134.096 223.823 134.096ZM223.823 138.16C222.943 138.16 222.207 137.44 222.207 136.528C222.207 135.648 222.943 134.912 223.823 134.912C224.735 134.912 225.439 135.648 225.439 136.528C225.439 137.44 224.735 138.16 223.823 138.16ZM31.584 170.736C32.784 169.856 33.472 168.368 33.904 167.008L32.896 166.64C32.512 167.92 31.776 169.296 30.64 170.096L31.584 170.736ZM33.216 160.48C32.72 161.648 31.76 162.784 30.784 163.44C31.04 163.632 31.376 163.968 31.552 164.16C32.608 163.424 33.664 162.208 34.272 160.896L33.216 160.48ZM36.992 159.424H39.248V164.352C39.248 164.528 39.184 164.576 39.008 164.592C38.784 164.592 38.144 164.592 37.408 164.576C37.568 164.864 37.728 165.296 37.776 165.584C38.8 165.584 39.424 165.568 39.856 165.424C40.272 165.232 40.384 164.944 40.384 164.368V159.424H44.96V158.368H38.56V156.608H37.376V158.368H31.088V159.424H35.888V160.208C35.888 161.728 35.664 163.712 33.36 165.216C33.648 165.376 34.064 165.728 34.272 165.984C36.752 164.304 36.992 162.048 36.992 160.224V159.424ZM41.472 160.96C42.464 162 43.552 163.44 43.968 164.4L45.008 163.84C44.56 162.864 43.456 161.488 42.432 160.48L41.472 160.96ZM36.304 166.208C37.248 166.832 38.32 167.792 38.784 168.48L39.632 167.824C39.152 167.136 38.064 166.208 37.12 165.6L36.304 166.208ZM37.008 170.096C36.16 170.096 36.032 170.016 36.032 169.568V166.624H34.864V169.584C34.864 170.8 35.28 171.12 36.912 171.12H39.968C41.344 171.12 41.696 170.64 41.824 168.64C41.52 168.576 41.04 168.4 40.784 168.208C40.72 169.84 40.608 170.096 39.888 170.096H37.008ZM41.408 166.96C42.576 168.08 43.84 169.68 44.336 170.768L45.392 170.144C44.832 169.04 43.552 167.488 42.352 166.384L41.408 166.96ZM55.472 167.84C55.456 167.072 55.44 165.728 55.424 164.816C56.624 164.256 57.76 163.792 58.656 163.44C59.072 163.28 59.648 163.056 60.048 162.944L59.536 161.744C59.088 161.968 58.704 162.16 58.224 162.368C57.392 162.752 56.432 163.136 55.344 163.648C55.104 162.704 54.272 162.208 53.248 162.208C52.544 162.208 51.632 162.432 51.056 162.8C51.632 162.064 52.128 161.184 52.48 160.368C54.208 160.304 56.16 160.16 57.728 159.92L57.744 158.736C56.24 158.992 54.512 159.136 52.896 159.216C53.12 158.496 53.264 157.84 53.376 157.392L52.064 157.28C52.032 157.824 51.888 158.544 51.664 159.248C51.296 159.264 50.96 159.264 50.624 159.264C49.904 159.264 48.8 159.2 47.952 159.104V160.304C48.816 160.368 49.888 160.4 50.56 160.4H51.216C50.624 161.648 49.584 163.28 47.568 165.232L48.656 166.048C49.2 165.408 49.648 164.816 50.096 164.384C50.832 163.728 51.792 163.216 52.832 163.216C53.52 163.216 54.096 163.536 54.256 164.192C52.416 165.152 50.528 166.336 50.528 168.208C50.528 170.144 52.352 170.624 54.624 170.624C56 170.624 57.76 170.512 58.96 170.368L58.992 169.072C57.6 169.312 55.904 169.456 54.672 169.456C53.04 169.456 51.808 169.28 51.808 168.032C51.808 166.992 52.832 166.176 54.304 165.376C54.304 166.208 54.288 167.232 54.24 167.84H55.472ZM65.856 157.568C65.952 158.032 66 158.592 66 159.168C66 160.848 65.84 164.848 65.84 167.2C65.84 169.776 67.408 170.736 69.68 170.736C73.168 170.736 75.216 168.752 76.288 167.248L75.408 166.144C74.272 167.792 72.624 169.424 69.712 169.424C68.24 169.424 67.12 168.816 67.12 167.072C67.12 164.704 67.248 160.96 67.312 159.168C67.344 158.656 67.392 158.096 67.472 157.584L65.856 157.568ZM78.9396 159.376L79.0836 160.784C80.7956 160.432 85.1156 160.016 86.5076 159.856C85.0516 160.72 83.5636 162.72 83.5636 165.2C83.5636 168.736 86.9076 170.304 89.8356 170.416L90.2996 169.088C87.7236 168.992 84.8436 168.016 84.8436 164.912C84.8436 163.04 86.2036 160.64 88.4596 159.92C89.2756 159.68 90.6676 159.664 91.5636 159.664V158.384C90.5076 158.432 89.0196 158.512 87.2916 158.656C84.3796 158.896 81.3876 159.2 80.3476 159.296C80.0436 159.328 79.5476 159.36 78.9396 159.376ZM97.1316 158.864L95.5956 158.832C95.6756 159.216 95.6916 159.872 95.6916 160.24C95.6916 161.168 95.7076 163.088 95.8676 164.464C96.2996 168.576 97.7396 170.064 99.2276 170.064C100.316 170.064 101.292 169.152 102.236 166.464L101.228 165.312C100.812 166.912 100.076 168.544 99.2596 168.544C98.1396 168.544 97.3716 166.8 97.1156 164.144C97.0036 162.848 96.9876 161.392 97.0036 160.4C97.0196 159.984 97.0676 159.248 97.1316 158.864ZM105.388 159.296L104.14 159.728C105.644 161.584 106.604 164.72 106.876 167.568L108.172 167.056C107.948 164.384 106.812 161.136 105.388 159.296ZM124.364 161.616C123.612 161.04 121.804 160.016 120.652 159.504L120.028 160.496C121.084 160.976 122.796 161.952 123.644 162.672L124.364 161.616ZM118.604 159.216C117.804 159.472 116.972 159.664 116.14 159.792C116.396 158.88 116.604 157.92 116.764 157.344L115.34 157.216C115.308 158.064 115.084 159.072 114.844 159.952C114.236 160 113.644 160.032 113.084 160.032C112.396 160.032 111.724 160 111.132 159.92L111.228 161.12C111.82 161.152 112.476 161.168 113.068 161.168C113.532 161.168 113.996 161.152 114.46 161.12C113.74 162.976 112.396 165.504 111.068 167.04L112.316 167.68C113.58 165.968 114.988 163.216 115.772 160.976C116.812 160.848 117.804 160.64 118.636 160.4L118.604 159.216ZM119.436 168.064C119.436 168.848 119.004 169.568 117.708 169.568C116.476 169.568 115.884 169.072 115.884 168.336C115.884 167.616 116.652 167.088 117.82 167.088C118.38 167.088 118.924 167.168 119.42 167.312C119.436 167.6 119.436 167.856 119.436 168.064ZM119.212 162.24C119.244 163.344 119.324 164.896 119.372 166.192C118.908 166.096 118.396 166.048 117.868 166.048C116.076 166.048 114.7 166.992 114.7 168.448C114.7 170.016 116.124 170.736 117.868 170.736C119.82 170.736 120.652 169.696 120.652 168.432C120.652 168.256 120.652 168.032 120.636 167.792C121.66 168.288 122.508 168.992 123.18 169.6L123.868 168.512C123.052 167.808 121.948 167.024 120.588 166.528C120.556 165.568 120.492 164.528 120.476 163.952C120.46 163.36 120.444 162.896 120.492 162.24H119.212ZM128.156 157.664C128.156 157.936 128.14 158.352 128.076 158.72C127.884 160.032 127.484 162.48 127.484 165.04C127.484 167.04 127.996 169.104 128.316 170.064L129.404 169.936L129.356 169.392C129.356 169.216 129.388 168.928 129.436 168.688C129.596 167.904 130.076 166.304 130.46 165.2L129.756 164.768C129.468 165.552 129.148 166.496 128.924 167.168C128.348 164.576 128.876 161.136 129.372 158.832C129.452 158.528 129.564 158.096 129.66 157.808L128.156 157.664ZM140.204 160.512C139.452 160.688 138.556 160.8 137.628 160.88C137.612 159.888 137.596 158.848 137.612 158.496C137.628 158.144 137.628 157.84 137.66 157.568H136.172C136.22 157.808 136.284 158.16 136.316 158.512C136.348 158.912 136.38 159.968 136.412 160.96C135.74 160.992 135.068 161.008 134.412 161.008C133.564 161.008 132.556 160.944 131.868 160.832V162.112C132.556 162.176 133.676 162.224 134.428 162.224C135.084 162.224 135.772 162.208 136.444 162.176V162.64C136.444 165.696 136.364 167.472 134.668 168.944C134.268 169.344 133.612 169.728 133.116 169.936L134.284 170.864C137.644 168.88 137.644 166.304 137.644 162.656V162.112C138.588 162.048 139.484 161.952 140.204 161.824V160.512ZM156.812 167.344C156.076 168.144 155.228 168.656 154.428 168.656C153.868 168.656 153.612 168.24 153.612 167.696C153.612 166.096 154.204 163.36 154.204 161.776C154.204 160.48 153.452 159.648 151.964 159.648C150.38 159.648 148.348 161.168 147.116 162.304C147.148 162 147.164 161.696 147.196 161.408C147.436 161.024 147.708 160.592 147.9 160.304L147.436 159.744L147.356 159.776C147.468 158.672 147.596 157.776 147.676 157.392L146.156 157.344C146.236 157.744 146.22 158.16 146.22 158.528C146.22 158.704 146.188 159.264 146.14 160.016C145.324 160.144 144.396 160.24 143.884 160.272C143.5 160.304 143.196 160.304 142.844 160.288L142.972 161.616C143.964 161.488 145.34 161.296 146.06 161.216C146.028 161.712 145.996 162.224 145.964 162.736C145.164 163.984 143.34 166.448 142.46 167.552L143.26 168.656C144.028 167.6 145.068 166.08 145.836 164.912C145.836 165.152 145.82 165.36 145.82 165.52C145.788 167.28 145.788 168.064 145.772 169.584C145.772 169.84 145.74 170.304 145.724 170.528H147.116C147.084 170.24 147.052 169.84 147.036 169.568C146.972 168.144 146.972 167.184 146.972 165.744C146.972 165.184 146.988 164.56 147.02 163.888C148.476 162.32 150.396 160.832 151.676 160.832C152.476 160.832 152.94 161.216 152.94 162.128C152.94 163.664 152.348 166.272 152.348 168.032C152.348 169.344 153.068 170.048 154.108 170.048C155.196 170.048 156.188 169.568 157.02 168.72L156.812 167.344ZM171.436 159.552C171.212 158.912 170.78 157.904 170.492 157.328L169.708 157.568C170.012 158.192 170.38 159.152 170.62 159.84L171.436 159.552ZM159.852 157.872C159.852 158.208 159.804 158.624 159.756 159.008C159.548 160.304 159.02 163.328 159.02 165.664C159.02 167.808 159.308 169.552 159.628 170.688L160.764 170.592C160.748 170.432 160.732 170.192 160.716 170.048C160.7 169.856 160.748 169.552 160.796 169.344C160.956 168.56 161.516 166.944 161.916 165.84L161.244 165.312C160.972 165.952 160.604 166.896 160.348 167.616C160.236 166.848 160.204 166.224 160.204 165.44C160.204 163.664 160.668 160.528 160.988 159.056C161.052 158.768 161.164 158.256 161.26 158L159.852 157.872ZM167.932 167.712C167.932 168.768 167.548 169.424 166.204 169.424C165.068 169.424 164.3 168.976 164.3 168.192C164.3 167.456 165.116 166.928 166.3 166.928C166.86 166.928 167.404 167.008 167.916 167.168C167.932 167.376 167.932 167.568 167.932 167.712ZM171.676 160.384C170.844 160.544 169.916 160.672 168.94 160.752C168.956 160.016 168.972 159.28 168.988 158.848C169.004 158.528 169.036 158.208 169.084 157.888H167.644C167.676 158.176 167.708 158.592 167.708 158.864V160.832C167.212 160.848 166.716 160.864 166.22 160.864C165.292 160.864 164.428 160.816 163.532 160.72V161.92C164.46 161.984 165.292 162.032 166.188 162.032C166.7 162.032 167.196 162.016 167.708 162C167.724 163.312 167.82 164.832 167.868 166.048C167.42 165.952 166.924 165.904 166.396 165.904C164.316 165.904 163.132 166.976 163.132 168.304C163.132 169.728 164.3 170.608 166.428 170.608C168.572 170.608 169.18 169.328 169.18 168.016V167.712C169.996 168.16 170.78 168.784 171.564 169.536L172.252 168.496C171.42 167.76 170.412 166.944 169.132 166.432C169.068 165.104 168.956 163.52 168.94 161.936C169.884 161.872 170.812 161.776 171.676 161.632V160.384ZM171.308 157.088C171.644 157.696 171.996 158.624 172.252 159.328L173.068 159.04C172.828 158.4 172.396 157.424 172.092 156.832L171.308 157.088ZM178.22 169.088C177.596 169.088 176.508 168.464 176.508 167.744C176.508 167.024 177.452 166.128 178.732 165.52C178.748 166.672 178.78 167.744 178.78 168.32C178.78 168.816 178.588 169.088 178.22 169.088ZM179.884 163.376C179.884 162.736 179.9 161.984 179.916 161.232C181.068 161.104 182.284 160.896 183.212 160.688L183.196 159.424C182.3 159.696 181.1 159.92 179.948 160.064C179.964 159.36 179.98 158.736 179.996 158.352C180.012 157.984 180.044 157.552 180.076 157.264H178.684C178.748 157.536 178.78 158.064 178.78 158.384C178.78 158.672 178.764 159.36 178.748 160.192C178.316 160.224 177.9 160.24 177.532 160.24C176.956 160.24 176.38 160.224 175.516 160.112L175.548 161.328C176.156 161.392 176.844 161.408 177.564 161.408C177.9 161.408 178.3 161.392 178.732 161.36C178.716 162.064 178.716 162.8 178.716 163.44V164.336C176.892 165.12 175.244 166.496 175.244 167.792C175.244 169.216 177.308 170.416 178.556 170.416C179.404 170.416 179.964 169.952 179.964 168.48C179.964 167.792 179.932 166.4 179.9 165.056C181.036 164.656 182.156 164.432 183.34 164.432C184.844 164.432 186.06 165.152 186.06 166.496C186.06 167.968 184.796 168.72 183.404 168.976C182.796 169.104 182.14 169.088 181.548 169.088L181.996 170.352C182.54 170.336 183.244 170.304 183.948 170.144C186.124 169.616 187.324 168.4 187.324 166.48C187.324 164.592 185.66 163.328 183.356 163.328C182.316 163.328 181.084 163.52 179.884 163.904V163.376ZM184.444 159.984C185.452 160.528 187.212 161.6 187.996 162.352L188.636 161.328C187.868 160.688 186.14 159.6 185.02 159.008L184.444 159.984ZM195.052 157.408C195.052 158.48 194.876 159.712 194.652 160.848C193.692 160.928 192.764 161.008 192.236 161.024C191.74 161.04 191.324 161.056 190.828 161.024L190.956 162.416C191.372 162.352 192.012 162.272 192.38 162.224C192.796 162.176 193.564 162.096 194.38 162.016C193.852 164.128 192.668 167.712 191.052 169.872L192.364 170.4C194.044 167.712 195.116 164.16 195.692 161.888C196.38 161.824 197.004 161.776 197.388 161.776C198.396 161.776 199.052 162.032 199.052 163.472C199.052 165.2 198.812 167.248 198.316 168.32C197.98 169.008 197.516 169.136 196.924 169.136C196.492 169.136 195.644 168.992 194.988 168.784L195.196 170.128C195.692 170.24 196.46 170.368 197.052 170.368C198.092 170.368 198.876 170.096 199.372 169.04C200.028 167.712 200.3 165.216 200.3 163.328C200.3 161.184 199.132 160.64 197.724 160.64C197.34 160.64 196.684 160.688 195.948 160.736C196.124 159.888 196.268 158.96 196.348 158.496C196.412 158.192 196.476 157.856 196.54 157.568L195.052 157.408ZM200.812 159.76C201.932 161.088 203.18 163.872 203.644 165.504L204.892 164.912C204.348 163.44 202.988 160.528 201.996 159.248L200.812 159.76ZM209.372 157.568C209.468 158.032 209.516 158.592 209.516 159.168C209.516 160.848 209.356 164.848 209.356 167.2C209.356 169.776 210.924 170.736 213.196 170.736C216.684 170.736 218.732 168.752 219.804 167.248L218.924 166.144C217.788 167.792 216.14 169.424 213.228 169.424C211.756 169.424 210.636 168.816 210.636 167.072C210.636 164.704 210.764 160.96 210.828 159.168C210.86 158.656 210.908 158.096 210.988 157.584L209.372 157.568ZM225.132 158.864L223.596 158.832C223.676 159.216 223.692 159.872 223.692 160.24C223.692 161.168 223.708 163.088 223.868 164.464C224.3 168.576 225.74 170.064 227.228 170.064C228.316 170.064 229.292 169.152 230.236 166.464L229.228 165.312C228.812 166.912 228.076 168.544 227.26 168.544C226.14 168.544 225.372 166.8 225.116 164.144C225.004 162.848 224.988 161.392 225.004 160.4C225.02 159.984 225.068 159.248 225.132 158.864ZM233.388 159.296L232.14 159.728C233.644 161.584 234.604 164.72 234.876 167.568L236.172 167.056C235.948 164.384 234.812 161.136 233.388 159.296ZM242.14 166.416V163.248H245.724V166.416H242.14ZM252.716 166.416H246.924V163.248H251.612V162.128H246.924V159.696H251.98V158.544H242.444C242.7 158 242.956 157.424 243.18 156.864L241.98 156.576C241.228 158.72 239.884 160.784 238.38 162.096C238.684 162.256 239.18 162.656 239.404 162.848C240.268 162.016 241.116 160.928 241.836 159.696H245.724V162.128H240.956V166.416H238.332V167.568H245.724V171.232H246.924V167.568H252.716V166.416ZM260.668 169.184H255.724V162.272H254.812V171.2H255.724V170.144H260.668V171.04H261.644V162.272H260.668V169.184ZM257.836 168.864H258.62V166.432C259.084 166.896 259.676 167.488 259.916 167.808L260.396 167.2C260.124 166.944 259.02 165.984 258.62 165.648V165.536H260.332V164.768H258.62V162.384H257.836V164.768H256.076V165.536H257.516C257.116 166.352 256.492 167.2 255.932 167.632C256.076 167.84 256.268 168.176 256.348 168.4C256.876 167.936 257.42 167.152 257.836 166.336V168.864ZM256.156 162.928C256.428 163.424 256.684 164.112 256.764 164.576L257.42 164.336C257.324 163.904 257.084 163.216 256.748 162.72L256.156 162.928ZM259.628 162.736C259.484 163.2 259.164 163.904 258.908 164.352L259.5 164.56C259.74 164.112 260.028 163.536 260.3 162.944L259.628 162.736ZM268.188 164H262.284V165.04H263.9V171.2H265.02V165.04H267.1V168.112C267.1 168.256 267.068 168.32 266.876 168.32C266.7 168.336 266.188 168.336 265.516 168.304C265.66 168.624 265.82 169.056 265.852 169.392C266.732 169.392 267.324 169.376 267.724 169.184C268.108 168.992 268.188 168.672 268.188 168.112V164ZM267.292 161.424H263.148V162.464H267.292V161.424ZM264.588 156.64C264.076 158.096 263.052 159.808 261.9 160.96V160.64H258.988V159.04H261.564V158.064H258.988V156.624H257.9V160.64H256.38V157.52H255.356V160.64H254.22V161.648H261.484C261.66 161.904 261.852 162.24 261.932 162.48C263.34 161.312 264.54 159.392 265.164 157.872C265.868 159.392 267.148 161.216 268.428 162.336C268.588 161.984 268.844 161.536 269.068 161.232C267.788 160.272 266.492 158.416 265.692 156.64H264.588ZM284.364 161.616C283.612 161.04 281.804 160.016 280.652 159.504L280.028 160.496C281.084 160.976 282.796 161.952 283.644 162.672L284.364 161.616ZM278.604 159.216C277.804 159.472 276.972 159.664 276.14 159.792C276.396 158.88 276.604 157.92 276.764 157.344L275.34 157.216C275.308 158.064 275.084 159.072 274.844 159.952C274.236 160 273.644 160.032 273.084 160.032C272.396 160.032 271.724 160 271.132 159.92L271.228 161.12C271.82 161.152 272.476 161.168 273.068 161.168C273.532 161.168 273.996 161.152 274.46 161.12C273.74 162.976 272.396 165.504 271.068 167.04L272.316 167.68C273.58 165.968 274.988 163.216 275.772 160.976C276.812 160.848 277.804 160.64 278.636 160.4L278.604 159.216ZM279.436 168.064C279.436 168.848 279.004 169.568 277.708 169.568C276.476 169.568 275.884 169.072 275.884 168.336C275.884 167.616 276.652 167.088 277.82 167.088C278.38 167.088 278.924 167.168 279.42 167.312C279.436 167.6 279.436 167.856 279.436 168.064ZM279.212 162.24C279.244 163.344 279.324 164.896 279.372 166.192C278.908 166.096 278.396 166.048 277.868 166.048C276.076 166.048 274.7 166.992 274.7 168.448C274.7 170.016 276.124 170.736 277.868 170.736C279.82 170.736 280.652 169.696 280.652 168.432C280.652 168.256 280.652 168.032 280.636 167.792C281.66 168.288 282.508 168.992 283.18 169.6L283.868 168.512C283.052 167.808 281.948 167.024 280.588 166.528C280.556 165.568 280.492 164.528 280.476 163.952C280.46 163.36 280.444 162.896 280.492 162.24H279.212ZM296.828 159.728C296.508 160 296.172 160.208 295.708 160.48C294.844 160.96 293.404 161.648 292.012 162.496C291.324 161.248 290.524 159.552 289.9 157.808L288.636 158.336C289.372 160.032 290.204 161.888 290.924 163.184C289.228 164.368 288.188 165.68 288.188 167.312C288.188 169.68 290.364 170.576 293.324 170.576C295.308 170.576 297.148 170.4 298.332 170.192L298.348 168.752C297.116 169.072 295.004 169.296 293.276 169.296C290.78 169.296 289.532 168.48 289.532 167.168C289.532 165.968 290.412 164.944 291.884 163.968C293.436 162.944 295.196 162.128 296.268 161.568C296.732 161.328 297.116 161.12 297.468 160.896L296.828 159.728ZM296.924 157.968C297.372 158.576 297.916 159.536 298.236 160.192L299.1 159.808C298.764 159.152 298.188 158.176 297.788 157.6L296.924 157.968ZM298.7 157.328C299.164 157.92 299.692 158.832 300.028 159.536L300.892 159.136C300.588 158.544 299.98 157.552 299.548 156.96L298.7 157.328ZM312.348 163.488C313.516 164.464 314.092 165.648 314.092 166.72C314.092 168.368 312.556 169.392 310.156 169.392C308.348 169.392 307.484 168.432 307.484 166.928C307.484 166.544 307.516 165.984 307.58 165.36C307.772 165.36 307.964 165.36 308.156 165.36C309.228 165.36 310.204 165.328 311.26 165.216L311.292 164C310.188 164.144 309.068 164.192 307.996 164.192H307.692C307.804 163.28 307.916 162.288 308.044 161.36H308.156C309.42 161.36 310.364 161.296 311.372 161.2L311.404 160C310.476 160.128 309.404 160.192 308.204 160.192C308.284 159.536 308.364 158.976 308.412 158.576C308.46 158.224 308.508 157.904 308.62 157.472L307.18 157.392C307.212 157.776 307.196 158.128 307.164 158.496C307.132 158.928 307.068 159.504 306.988 160.144C305.804 160.08 304.524 159.888 303.532 159.568L303.468 160.752C304.46 161.008 305.708 161.2 306.844 161.296C306.732 162.224 306.604 163.216 306.492 164.144C305.372 164.064 304.188 163.872 303.148 163.504L303.084 164.72C304.044 165.024 305.196 165.2 306.38 165.296C306.3 166.048 306.252 166.688 306.252 167.12C306.252 169.712 307.996 170.656 310.156 170.656C313.276 170.656 315.404 169.216 315.404 166.864C315.404 165.504 314.86 164.4 313.772 163.2L312.348 163.488ZM327.292 162.96C326.604 164.704 325.66 165.984 324.62 166.96C324.46 166.048 324.348 165.088 324.348 164.08C324.348 163.872 324.348 163.664 324.348 163.456C325.1 163.184 326.012 162.96 327.036 162.96H327.292ZM323.228 164.224C323.228 165.408 323.372 166.672 323.596 167.808C322.796 168.368 322.028 168.64 321.42 168.64C320.828 168.64 320.524 168.32 320.524 167.68C320.524 166.4 321.692 164.832 323.228 163.952V164.224ZM328.796 162.08C328.892 161.84 329.02 161.408 329.116 161.2L327.836 160.88C327.82 161.136 327.74 161.552 327.676 161.792L327.628 161.936C327.436 161.92 327.244 161.92 327.052 161.92C326.252 161.92 325.276 162.064 324.396 162.336C324.444 161.664 324.492 160.992 324.556 160.384C326.492 160.288 328.604 160.08 330.268 159.808L330.252 158.608C328.62 158.976 326.7 159.184 324.7 159.28C324.764 158.816 324.828 158.416 324.892 158.08C324.94 157.872 325.004 157.584 325.084 157.376L323.74 157.344C323.74 157.536 323.724 157.84 323.692 158.096C323.66 158.432 323.612 158.848 323.564 159.312C323.212 159.328 322.86 159.328 322.508 159.328C321.836 159.328 320.444 159.216 319.9 159.136L319.932 160.336C320.572 160.368 321.804 160.432 322.492 160.432C322.796 160.432 323.116 160.432 323.452 160.416C323.388 161.152 323.308 161.952 323.276 162.752C321.1 163.744 319.324 165.84 319.324 167.872C319.324 169.232 320.14 169.872 321.212 169.872C322.06 169.872 323.004 169.536 323.868 169.008C323.948 169.328 324.044 169.616 324.124 169.888L325.292 169.536C325.164 169.136 325.036 168.704 324.908 168.256C326.252 167.12 327.532 165.376 328.412 163.136C329.9 163.536 330.684 164.624 330.684 165.824C330.684 167.872 328.924 169.344 326.076 169.648L326.764 170.72C330.444 170.144 331.948 168.16 331.948 165.888C331.948 164.144 330.764 162.672 328.78 162.144L328.796 162.08ZM337.564 157.376C337.548 157.76 337.5 158.24 337.436 158.736C337.244 160.016 336.956 162.352 336.956 163.856C336.956 164.88 337.036 165.776 337.116 166.368L338.364 166.272C338.252 165.488 338.252 164.944 338.332 164.336C338.524 162.256 340.348 159.392 342.316 159.392C343.996 159.392 344.828 161.184 344.828 163.68C344.828 167.664 342.14 169.04 338.7 169.568L339.452 170.72C343.388 170 346.156 168.064 346.156 163.664C346.156 160.336 344.636 158.224 342.524 158.224C340.524 158.224 338.86 160.192 338.236 161.824C338.332 160.72 338.636 158.592 338.972 157.424L337.564 157.376ZM357.532 168.144C357.532 169.232 356.764 169.504 355.852 169.504C354.284 169.504 353.66 168.96 353.66 168.224C353.66 167.504 354.476 166.928 355.98 166.928C356.508 166.928 357.02 166.976 357.516 167.072C357.516 167.504 357.532 167.872 357.532 168.144ZM363.308 168.688C362.412 167.968 360.796 166.8 358.7 166.224C358.668 165.472 358.62 164.64 358.588 163.824C360.092 163.76 361.5 163.648 362.988 163.456L362.972 162.256C361.548 162.464 360.092 162.608 358.572 162.672V162.496V160.4C360.06 160.32 361.42 160.192 362.668 160.064L362.652 158.896C361.26 159.104 359.964 159.232 358.588 159.28C358.588 158.896 358.588 158.592 358.604 158.4C358.62 157.936 358.636 157.632 358.684 157.344H357.324C357.356 157.568 357.372 158.032 357.372 158.288V159.328C357.1 159.328 356.828 159.328 356.556 159.328C355.5 159.328 353.804 159.2 352.844 159.024V160.208C353.788 160.32 355.468 160.448 356.572 160.448C356.844 160.448 357.1 160.448 357.356 160.448V162.496V162.72C357.084 162.72 356.796 162.72 356.508 162.72C355.468 162.72 353.596 162.608 352.524 162.416V163.632C353.66 163.76 355.42 163.856 356.508 163.856C356.812 163.856 357.1 163.856 357.388 163.856C357.404 164.512 357.436 165.264 357.468 165.968C357.036 165.904 356.604 165.872 356.14 165.872C353.852 165.872 352.46 166.848 352.46 168.288C352.46 169.824 353.724 170.64 355.996 170.64C358.06 170.64 358.796 169.504 358.796 168.416C358.796 168.176 358.78 167.824 358.764 167.424C360.348 168 361.66 168.96 362.588 169.808L363.308 168.688ZM375.479 157.712C375.527 157.984 375.559 158.544 375.559 158.896V161.152C373.879 161.296 372.039 161.472 370.503 161.616L370.519 159.488C370.519 158.992 370.535 158.56 370.567 158.208H369.175C369.239 158.688 369.271 159.056 369.271 159.536L369.255 161.744C368.503 161.808 367.879 161.872 367.479 161.904C366.903 161.952 366.311 161.984 365.831 161.984L365.959 163.296C366.391 163.232 367.079 163.136 367.575 163.072L369.255 162.896C369.255 164.48 369.255 166.144 369.271 166.832C369.351 169.36 369.703 170.208 373.367 170.208C374.967 170.208 376.903 170.048 377.959 169.936L378.007 168.592C376.983 168.768 375.015 168.944 373.303 168.944C370.551 168.944 370.535 168.368 370.487 166.656C370.455 166.048 370.471 164.4 370.487 162.768C372.055 162.608 373.911 162.432 375.543 162.304C375.511 163.296 375.447 164.352 375.367 164.88C375.319 165.232 375.159 165.296 374.775 165.296C374.407 165.296 373.735 165.2 373.191 165.088L373.159 166.224C373.591 166.288 374.679 166.448 375.255 166.448C375.975 166.448 376.327 166.24 376.471 165.536C376.615 164.8 376.679 163.376 376.711 162.208C377.399 162.16 378.007 162.144 378.471 162.128C378.871 162.128 379.463 162.112 379.719 162.128V160.848C379.335 160.88 378.887 160.912 378.471 160.928C377.959 160.96 377.367 161.008 376.743 161.056C376.743 160.352 376.759 159.568 376.759 158.848C376.775 158.512 376.807 157.968 376.839 157.712H375.479ZM389.895 157.968L388.471 157.392C388.279 157.856 388.071 158.24 387.895 158.624C387.031 160.144 383.463 166.848 382.295 170.048L383.687 170.512C383.895 169.728 384.567 167.856 385.047 166.912C385.671 165.664 386.839 164.384 388.119 164.384C388.839 164.384 389.239 164.784 389.271 165.488C389.319 166.336 389.287 167.568 389.351 168.496C389.399 169.424 389.959 170.512 391.639 170.512C393.943 170.512 395.287 168.736 396.119 166.176L395.063 165.328C394.647 167.008 393.607 169.184 391.847 169.184C391.159 169.184 390.631 168.848 390.583 168.064C390.519 167.296 390.551 166.08 390.519 165.136C390.471 163.888 389.703 163.2 388.647 163.2C387.895 163.2 387.095 163.472 386.327 164.16C387.143 162.624 388.679 159.824 389.383 158.736C389.559 158.432 389.751 158.144 389.895 157.968ZM400.135 166.096C398.807 166.096 397.703 167.184 397.703 168.528C397.703 169.872 398.807 170.976 400.135 170.976C401.495 170.976 402.583 169.872 402.583 168.528C402.583 167.184 401.495 166.096 400.135 166.096ZM400.135 170.16C399.255 170.16 398.519 169.44 398.519 168.528C398.519 167.648 399.255 166.912 400.135 166.912C401.047 166.912 401.751 167.648 401.751 168.528C401.751 169.44 401.047 170.16 400.135 170.16Z" fill="#5D504F"/>
</svg>
