<svg width="861" height="40" viewBox="0 0 861 40" fill="none" xmlns="http://www.w3.org/2000/svg">
<path d="M18.75 14.4688L18.2812 11.6562L2.96875 13.2188V6.96875L17.1875 6.03125L16.25 2.4375L23.125 2.125L23.9062 5.875L33.75 6.03125V11.1875L24.6875 11.3438L25.1562 14.1562L35.4688 14.3125L36.0938 19.3125H25.7812L26.0938 22.4375L34.5312 24L33.4375 30.0938L26.4062 28.6875C25.9896 30.9792 25.1562 32.75 23.9062 34C21.4062 36.5 17.8125 37.75 13.125 37.75C10.4167 37.75 8.22917 36.9167 6.5625 35.25C4.89583 33.5833 4.11458 31.4479 4.21875 28.8438C4.21875 27.1771 4.89583 25.6667 6.25 24.3125C7.91667 22.5417 10.8333 21.6562 15 21.6562C16.3542 21.6562 17.9167 21.7083 19.6875 21.8125L19.375 19.9375C14.1667 20.25 10.0521 20.6146 7.03125 21.0312C5.57292 21.2396 3.54167 21.6042 0.9375 22.125V15.7188L18.75 14.4688ZM15.4688 31.5C17.6562 31.2917 19.1146 29.9896 19.8438 27.5938C17.7604 27.1771 16.3021 26.9688 15.4688 26.9688C13.9062 26.8646 12.7604 27.125 12.0312 27.75C11.5104 28.1667 11.1979 28.6875 11.0938 29.3125C10.9896 29.9375 11.1979 30.4583 11.7188 30.875C12.5521 31.5 13.8021 31.7083 15.4688 31.5ZM58.875 7.4375L58.5625 1.96875H65.9062L66.0625 7.59375H68.4062L66.375 2.125L69.8125 1.03125L72.1562 7.28125L70.9062 7.59375H74.5V12.2812H66.0625L65.75 18.8438C67.2083 20.5104 68.0417 22.1771 68.25 23.8438C68.6667 26.3438 67.9375 28.8958 66.0625 31.5C64.9167 33.0625 62.9375 35.0417 60.125 37.4375L53.4062 34.4688C55.0729 33.3229 56.2708 32.4375 57 31.8125C57.9375 30.9792 58.9792 29.7292 60.125 28.0625C58.3542 29.2083 56.9479 29.9896 55.9062 30.4062C54.3438 31.0312 52.625 31.2917 50.75 31.1875C46.2708 30.875 43.4062 29.2604 42.1562 26.3438C41.4271 24.6771 41.3229 22.9062 41.8438 21.0312C42.3646 19.2604 43.3021 17.8021 44.6562 16.6562C46.1146 15.5104 47.8333 14.7292 49.8125 14.3125C51.5833 14 53.0938 13.8958 54.3438 14C55.2812 14.1042 56.8438 14.4688 59.0312 15.0938V12.4375C55.1771 12.6458 52.0521 12.8542 49.6562 13.0625C47.4688 13.2708 44.2917 13.7917 40.125 14.625V8.53125L58.875 7.4375ZM54.5 24.4688C55.4375 23.9479 56.4271 22.8542 57.4688 21.1875C55.1771 19.625 53.1458 19 51.375 19.3125C49.2917 19.7292 48.25 20.8229 48.25 22.5938C48.25 24.0521 49.0833 24.8854 50.75 25.0938C52.1042 25.3021 53.3542 25.0938 54.5 24.4688ZM74.0312 0.40625L76.5312 6.1875L73.0938 7.4375L70.75 1.5L74.0312 0.40625ZM88.0625 2.59375C87.0208 11.9688 86.4479 19 86.3438 23.6875C86.2396 27.2292 86.2396 31.6562 86.3438 36.9688L79.7812 36.1875C79.8854 29.2083 80.0417 23.7396 80.25 19.7812C80.4583 16.1354 81.0833 10.25 82.125 2.125L88.0625 2.59375ZM88.5312 9.9375L101.188 9.3125L99.9375 2.59375L106.5 2.125L107.75 9.3125L114.469 9.46875V14.625H108.219L108.531 19.625L114.312 20.25L114.469 26.6562L108.844 25.875C108.74 29.9375 107.906 32.8021 106.344 34.4688C104.469 36.5521 101.604 37.3854 97.75 36.9688C93.1667 36.5521 90.4583 34.5208 89.625 30.875C88.8958 27.5417 89.625 24.625 91.8125 22.125C93.2708 20.5625 94.9375 19.5729 96.8125 19.1562C98.375 18.8438 100.25 18.7917 102.438 19L102.125 15.0938L88.375 16.3438L88.5312 9.9375ZM101.812 29.4688C102.438 28.6354 102.698 27.1771 102.594 25.0938C100.823 24.8854 99.5208 24.8854 98.6875 25.0938C97.0208 25.4062 95.9792 26.2396 95.5625 27.5938C95.1458 28.7396 95.3021 29.6771 96.0312 30.4062C96.6562 31.0312 97.5417 31.2917 98.6875 31.1875C100.042 30.9792 101.083 30.4062 101.812 29.4688ZM122.25 27.125L124.125 29.3125L129.125 35.5625L123.344 38.8438L118.5 29.625L122.25 27.125ZM151.906 7.59375L162.062 6.5L163.938 0.71875L171.125 1.1875L169.562 6.1875C172.271 6.08333 174.562 6.08333 176.438 6.1875C178.417 6.39583 179.823 7.125 180.656 8.375C181.49 9.83333 181.958 11.7083 182.062 14L182.688 36.1875C175.917 36.5 170.031 36.8125 165.031 37.125C161.802 37.3333 156.75 37.8542 149.875 38.6875L151.906 7.59375ZM175.188 31.8125L175.031 27.5938L157.219 29L157.062 32.9062L175.188 31.8125ZM174.875 23.0625L174.719 19.4688L157.375 20.7188V24L174.875 23.0625ZM174.406 14.9375L174.25 11.3438L157.844 12.5938L157.688 15.5625L174.406 14.9375ZM188.906 24.3125L193.281 23.8438L194.062 5.25L204.375 4.625L204.688 0.71875L204.844 0.5625L212.031 0.40625L211.406 4.3125C212.865 4.20833 214.271 4.10417 215.625 4C217.292 4 218.594 4.41667 219.531 5.25C220.469 5.97917 220.99 7.07292 221.094 8.53125C221.198 9.98958 221.302 12.4375 221.406 15.875L223.281 14.7812L226.719 19L226.875 19.4688L221.562 22.5938L221.719 33.2188C221.719 35.5104 221.042 37.0729 219.688 37.9062C219.167 38.2188 218.49 38.4271 217.656 38.5312C216.198 38.6354 214.115 38.6875 211.406 38.6875L208.75 31.9688L214.844 31.8125V26.9688L202.344 35.0938L197.188 38.5312L195 37.2812L190.938 34.4688V34.1562L199.688 29.1562L189.531 30.5625L188.906 24.3125ZM200.469 23.0625L211.25 21.9688L214.844 19.7812L211.094 19.9375L200.625 21.1875L200.469 23.0625ZM214.844 16.1875V14.3125H213.75L208.75 14.4688L200.781 15.4062L200.625 16.6562L214.844 16.1875ZM214.531 10.5625L214.375 8.375C209.688 8.27083 206.042 8.47917 203.438 9L201.094 9.46875L200.938 11.3438L214.531 10.5625ZM234.812 27.125L236.688 29.3125L241.688 35.5625L235.906 38.8438L231.062 29.625L234.812 27.125ZM264.469 7.59375L274.625 6.5L276.5 0.71875L283.688 1.1875L282.125 6.1875C284.833 6.08333 287.125 6.08333 289 6.1875C290.979 6.39583 292.385 7.125 293.219 8.375C294.052 9.83333 294.521 11.7083 294.625 14L295.25 36.1875C288.479 36.5 282.594 36.8125 277.594 37.125C274.365 37.3333 269.312 37.8542 262.438 38.6875L264.469 7.59375ZM287.75 31.8125L287.594 27.5938L269.781 29L269.625 32.9062L287.75 31.8125ZM287.438 23.0625L287.281 19.4688L269.938 20.7188V24L287.438 23.0625ZM286.969 14.9375L286.812 11.3438L270.406 12.5938L270.25 15.5625L286.969 14.9375ZM320.531 4.78125L326 0.875L336.156 13.375L339.75 18.2188L334.75 21.9688L331.781 17.9062C332.094 18.7396 332.302 19.9375 332.406 21.5C332.615 24.625 332.719 27.8542 332.719 31.1875C332.615 32.9583 332.458 34.2604 332.25 35.0938C331.833 36.6562 330.792 37.6979 329.125 38.2188C327.354 38.8438 324.49 39.0521 320.531 38.8438L318.656 32.9062L325.531 32.75L325.219 24L324.594 20.5625L318.656 20.875L313.969 34L312.562 38.6875L305.844 36.9688L312.25 21.5L308.344 21.9688L308.656 17.4375L305.844 21.0312L301.312 16.0312L313.031 2.59375H313.344L318.031 6.03125L317.875 6.34375L314.594 10.25L310.375 15.25L326.312 14.7812C327.667 14.7812 328.865 14.9896 329.906 15.4062L325.688 10.0938L320.531 4.78125ZM364.562 31.9688C367.167 30.1979 368.885 28.5312 369.719 26.9688C370.865 25.0938 371.438 22.75 371.438 19.9375C371.438 17.0208 370.812 14.7292 369.562 13.0625C368.312 11.3958 366.75 10.25 364.875 9.625C362.896 9 360.865 8.94792 358.781 9.46875C355.552 10.4062 353.104 12.2812 351.438 15.0938C350.083 17.3854 349.51 19.7292 349.719 22.125C349.823 23.1667 350.083 24.0521 350.5 24.7812C351.125 25.8229 351.854 26.1875 352.688 25.875C353.417 25.6667 354.458 24.9896 355.812 23.8438C356.854 23.0104 357.635 22.3333 358.156 21.8125C360.031 20.0417 362.062 17.8021 364.25 15.0938L368.781 19.1562C366.281 22.4896 364.146 25.0417 362.375 26.8125C359.771 29.4167 357.115 31.3958 354.406 32.75C352.74 33.5833 351.125 33.8438 349.562 33.5312C347.792 33.2188 346.438 32.2812 345.5 30.7188C344.354 28.9479 343.729 26.5 343.625 23.375C343.521 20.6667 343.833 18.1667 344.562 15.875C345.708 12.125 347.74 9.15625 350.656 6.96875C353.99 4.46875 357.635 3.21875 361.594 3.21875C366.594 3.21875 370.656 4.98958 373.781 8.53125C375.552 10.5104 376.75 12.9583 377.375 15.875C378 18.7917 378.052 21.6042 377.531 24.3125C377.115 26.3958 376.438 28.375 375.5 30.25C374.562 32.125 372.844 34.2604 370.344 36.6562L364.562 31.9688ZM389.688 8.6875L391.562 2.125L397.344 2.75L395.781 8.375L401.562 8.0625C403.229 7.95833 404.635 8.42708 405.781 9.46875C407.031 10.6146 407.656 12.4896 407.656 15.0938L407.812 27.75C407.917 34 405.677 37.125 401.094 37.125H394.375L393.438 31.0312L401.25 30.875L400.781 13.6875L394.375 14.1562L388.75 37.125L382.188 35.0938L387.812 15.0938L382.031 15.875V9.625L389.688 8.6875ZM415 8.375C415.729 11.6042 416.25 14.1562 416.562 16.0312C416.875 18.1146 417.24 21.5521 417.656 26.3438L411.25 27.125C410.938 23.4792 410.625 20.3542 410.312 17.75C410.104 15.875 409.635 13.0625 408.906 9.3125L415 8.375ZM431.844 10.7188L430.281 16.5C433.823 15.4583 436.74 14.8333 439.031 14.625C445.073 14 449.396 14.6771 452 16.6562C455.021 18.9479 456.219 22.0208 455.594 25.875C455.281 27.8542 454.344 29.7812 452.781 31.6562C451.635 33.1146 449.344 34.9375 445.906 37.125L442 31.8125C443.979 30.6667 445.333 29.7812 446.062 29.1562C447.312 28.1146 448.094 27.0208 448.406 25.875C448.719 24.8333 448.562 23.7917 447.938 22.75C447.417 21.9167 446.635 21.2396 445.594 20.7188C443.615 19.8854 440.75 20.0417 437 21.1875C434.5 21.9167 432.469 22.6979 430.906 23.5312L425.75 26.1875C424.292 26.9167 423.146 26.8646 422.312 26.0312C421.792 25.5104 421.583 24.5729 421.688 23.2188C421.792 21.1354 422.104 19.1562 422.625 17.2812C423.458 14.4688 424.24 11.9167 424.969 9.625L431.844 10.7188ZM428.094 1.65625C436.531 2.90625 443.719 4.41667 449.656 6.1875L447.781 11.6562C443.094 10.4062 439.552 9.57292 437.156 9.15625C434.24 8.63542 430.698 8.11458 426.531 7.59375L428.094 1.65625ZM459.938 7.59375L465.719 7.28125L466.812 2.28125L473.062 2.90625L472.125 7.125H487.594L488.062 12.125L470.719 12.9062C469.885 16.9688 469.208 20.7188 468.688 24.1562C468.167 27.6979 467.594 31.9167 466.969 36.8125L460.094 35.4062L464.312 13.5312L459.781 14L459.938 7.59375ZM475.094 24.625C475.406 26.0833 475.771 27.2292 476.188 28.0625C476.917 29.3125 477.906 30.0938 479.156 30.4062C481.135 30.9271 483.167 30.7708 485.25 29.9375C487.125 29.2083 489.052 27.75 491.031 25.5625L494.625 31.0312C491.292 33.8438 488.583 35.5625 486.5 36.1875C482.438 37.4375 478.74 37.4896 475.406 36.3438C473.01 35.5104 471.344 33.8958 470.406 31.5C469.99 30.3542 469.625 28.4792 469.312 25.875L475.094 24.625ZM482.594 14.7812C484.573 14.6771 487.854 14.6771 492.438 14.7812V19.9375C489.417 19.9375 487.073 19.9896 485.406 20.0938C482.906 20.1979 478.896 20.7188 473.375 21.6562L472.906 15.4062C476.76 15.0938 479.99 14.8854 482.594 14.7812ZM489.938 1.65625L491.812 8.53125L488.531 9.3125L486.656 2.28125L489.938 1.65625ZM493.844 0.875L496.031 7.59375L492.594 8.21875L490.719 1.5L493.844 0.875ZM503.656 11.0312L500.375 4.9375L506.781 2.28125L510.062 9.3125L518.812 7.59375L519.438 1.96875L526.156 2.28125L525.531 6.96875C527.927 6.96875 529.75 7.17708 531 7.59375C532.979 8.21875 534.281 9.46875 534.906 11.3438C535.844 13.9479 535.688 17.2292 534.438 21.1875C533.917 22.9583 533.083 24.6771 531.938 26.3438C531.417 27.0729 530.583 28.1667 529.438 29.625L522.562 26.5C524.229 24.2083 525.427 22.4375 526.156 21.1875C527.51 18.7917 527.979 16.8125 527.562 15.25C527.25 14 526.208 13.375 524.438 13.375L523.344 19.3125L516.938 18.375L518.031 14L512.719 15.0938L516.781 24.1562L521.469 34.625L515.375 37.2812L506.469 16.9688L501.781 19.1562L498.969 12.5938L503.656 11.0312ZM540.188 9.625L547.531 0.09375L553.156 1.96875L552.062 3.53125L556.438 3.21875L575.812 2.90625V7.28125L561.594 7.59375L557.062 7.90625L548 8.6875L544.25 14L539.406 11.1875H539.25L540.188 9.625ZM540.656 17.4375L548.625 16.3438L560.5 15.5625C562.167 15.4583 563.573 15.4062 564.719 15.4062C566.281 15.5104 567.427 15.7188 568.156 16.0312C569.406 16.6562 570.083 17.75 570.188 19.3125L571.125 29.3125L571.594 30.875L574.094 26.6562L577.844 31.3438C576.49 34.4688 575.396 36.4479 574.562 37.2812C573.833 38.1146 572.896 38.5833 571.75 38.6875C570.812 38.7917 569.823 38.6354 568.781 38.2188C566.802 37.3854 565.708 36.0833 565.5 34.3125L563.938 20.5625L556.906 20.875L560.969 23.375L556.594 27.75L563.156 31.9688L559.25 36.6562L552.688 31.9688H552.375L546.438 38.375L540.656 34.625V34.4688L547.375 28.5312L542.375 25.5625V25.4062L546.125 21.9688L540.656 22.75V17.4375ZM551.75 24.625L556.125 20.875L546.906 21.8125L547.062 21.9688L551.75 24.625ZM547.375 10.0938H547.531L562.062 9.3125L571.594 9.15625L571.438 14H565.031L547.375 15.25L547.062 14.9375L547.375 10.0938ZM590.312 15.5625L591.25 12.2812L581.719 13.5312V6.65625L593.438 5.875L595.156 1.65625L601.719 3.21875L600.312 6.03125L610.312 6.34375V11.3438L598.438 11.6562L597.344 15.25H610.156L610.469 20.5625L596.406 20.7188C595.781 22.4896 595.469 24.2083 595.469 25.875C595.469 29.4167 597.031 31.1875 600.156 31.1875C602.552 31.1875 604.531 30.4062 606.094 28.8438C607.552 27.3854 608.594 25.25 609.219 22.4375L616.094 24.9375C614.74 28.4792 613.385 31.0312 612.031 32.5938C609.219 35.8229 605.26 37.4896 600.156 37.5938C595.365 37.6979 591.979 36.5521 590 34.1562C588.854 32.6979 588.177 30.9271 587.969 28.8438C587.865 27.1771 588.177 24.7812 588.906 21.6562L581.562 22.9062L581.875 16.3438L590.312 15.5625ZM620.438 7.125L625.438 6.96875L626.531 1.96875L633.562 2.59375L632.469 6.8125C635.906 6.70833 639.5 6.65625 643.25 6.65625C646.167 6.65625 650.073 6.8125 654.969 7.125V11.9688C651.219 11.6562 648.562 11.5 647 11.5C643.979 11.5 641.062 11.6042 638.25 11.8125L631.219 12.2812L630.75 15.875C634.083 14.8333 636.531 14.2604 638.094 14.1562C644.969 13.5312 649.552 15.0417 651.844 18.6875C652.781 20.1458 653.25 21.8646 653.25 23.8438C653.25 25.8229 652.781 27.5938 651.844 29.1562C650.385 31.8646 647.938 33.9479 644.5 35.4062C642.312 36.3438 639.344 36.9688 635.594 37.2812L633.406 31.1875C637.677 30.7708 640.802 29.8333 642.781 28.375C645.073 26.8125 646.062 25.1458 645.75 23.375C645.438 21.5 643.927 20.4583 641.219 20.25C638.927 20.0417 636.479 20.4583 633.875 21.5L627.312 24C626.167 24.4167 625.125 24.2083 624.188 23.375C623.146 22.4375 622.781 21.1354 623.094 19.4688L624.188 12.9062L620.281 13.5312L620.438 7.125ZM664.938 12.2812L659.156 12.9062L659 7.125L667.594 6.65625L669.625 2.4375L676.188 3.84375L674.625 6.5L684.781 6.1875V11.3438L671.969 11.5L670.094 15.25C672.177 14.3125 673.583 13.7396 674.312 13.5312C675.979 13.0104 677.438 12.8021 678.688 12.9062C680.875 13.0104 682.542 14.1042 683.688 16.1875L690.875 13.6875L693.844 19.3125L685.094 21.6562L685.562 28.0625L679.469 28.2188L679.312 25.0938C677.646 25.8229 676.448 26.5 675.719 27.125C674.677 27.9583 674.156 28.8438 674.156 29.7812C674.26 30.8229 674.833 31.4479 675.875 31.6562C676.5 31.7604 677.281 31.7604 678.219 31.6562C680.406 31.4479 683.271 30.4583 686.812 28.6875L689.469 34C686.656 35.3542 684.365 36.2396 682.594 36.6562C677.802 37.9062 674 37.9583 671.188 36.8125C669.417 36.0833 668.271 34.8333 667.75 33.0625C667.229 31.1875 667.333 29.3125 668.062 27.4375C668.792 25.6667 669.833 24.1562 671.188 22.9062C672.333 21.8646 673.323 21.1354 674.156 20.7188C674.885 20.3021 676.031 19.8333 677.594 19.3125C677.073 19 676.396 18.8438 675.562 18.8438C672.854 18.8438 669.885 20.3021 666.656 23.2188L664.781 28.2188L659 25.7188L664.938 12.2812ZM697.406 30.875L706.469 23.6875L701.469 21.8125L703.031 19.625L697.719 20.0938L698.344 11.0312L706.469 9.9375L704.594 7.75L705.688 6.8125L702.875 7.125L700.062 1.96875C707.875 1.34375 713.292 0.979167 716.312 0.875C721.104 0.770833 726.365 0.770833 732.094 0.875L732.406 4.625L728.344 4.78125L731.156 6.8125L729.75 8.53125C731.104 8.63542 732.042 8.73958 732.562 8.84375C733.5 9.05208 734.177 9.46875 734.594 10.0938C735.219 10.9271 735.583 12.2812 735.688 14.1562C735.792 15.3021 735.792 16.9167 735.688 19L731.156 18.8438C732.615 19.6771 733.188 20.875 732.875 22.4375C732.667 23.2708 732.198 23.9479 731.469 24.4688C730.635 24.9896 729.698 25.0938 728.656 24.7812C727.302 24.2604 726.625 23.2708 726.625 21.8125C726.625 20.3542 727.562 19.3125 729.438 18.6875V12.5938L720.688 12.75C721.625 13.0625 722.25 13.4792 722.562 14C723.083 14.7292 723.188 15.5625 722.875 16.5C722.562 17.4375 721.938 18.1146 721 18.5312L722.562 18.375C723.188 18.2708 723.708 17.0729 724.125 14.7812L728.812 16.0312C727.979 18.8438 726.833 20.6667 725.375 21.5C724.646 21.9167 723.292 22.1771 721.312 22.2812C719.125 22.3854 717.458 22.3854 716.312 22.2812L713.344 21.9688L715.219 23.0625L713.5 24.4688C716.625 23.7396 719.958 23.375 723.5 23.375C726.521 23.375 728.031 24.3646 728.031 26.3438C728.031 27.2812 727.719 28.1667 727.094 29C726.573 29.625 725.844 30.3542 724.906 31.1875L735.688 33.5312L733.656 38.8438L718.812 34.7812C716 36.1354 712.562 37.4375 708.5 38.6875L705.062 34.7812L712.094 32.2812L706.625 30.0938L702.094 34.1562L697.406 30.875ZM706.156 14.4688L710.375 16.5L707.25 23.0625L710.844 20.4062L712.719 21.5C711.781 20.875 711.312 19.6771 711.312 17.9062C711.312 17.1771 711.312 15.875 711.312 14L716.156 13.8438L716.312 17.75C716.312 18.2708 717.458 18.5312 719.75 18.5312C718.5 18.3229 717.719 17.6979 717.406 16.6562C716.99 15.3021 717.458 14.0521 718.812 12.9062L704.125 14.3125L703.656 18.6875L706.156 14.4688ZM712.562 9.46875L715.062 9.15625L713.031 6.5L713.5 5.71875L709.906 6.03125L712.562 9.46875ZM718.5 29.1562C719.542 28.6354 720.531 28.0104 721.469 27.2812C719.177 27.4896 716.938 27.6979 714.75 27.9062C716 28.4271 717.25 28.8438 718.5 29.1562ZM721.781 8.84375H721.938L724.438 4.9375L718.812 5.25L721.781 8.84375ZM750.812 3.6875C750.083 6.39583 749.354 9 748.625 11.5C748 14 747.479 16.7083 747.062 19.625C746.542 24.1042 747.479 27.0208 749.875 28.375C752.167 29.7292 754.719 29.7812 757.531 28.5312C759.094 27.8021 760.656 26.5 762.219 24.625C763.052 23.6875 764.406 21.5521 766.281 18.2188L771.906 22.5938C770.448 25.3021 769.094 27.3333 767.844 28.6875C765.656 31.1875 762.948 33.1667 759.719 34.625C756.281 36.1875 752.844 36.8125 749.406 36.5C745.76 36.1875 743.156 34.7812 741.594 32.2812C740.135 29.8854 739.51 26.5 739.719 22.125C739.823 19 740.292 15.6667 741.125 12.125C741.75 9.52083 742.635 6.29167 743.781 2.4375L750.812 3.6875ZM786.094 3.21875L793.281 2.59375L794.688 8.21875L806.719 8.0625L806.875 13.6875L795.625 14.625L796.094 18.5312C800.677 19.4688 805 20.9792 809.062 23.0625L805.469 29.9375L796.719 25.7188C796.927 28.8438 796.562 31.1354 795.625 32.5938C794.583 34.2604 792.917 35.5104 790.625 36.3438C788.021 37.2812 785.521 37.4896 783.125 36.9688C779.688 36.2396 777.396 34.3646 776.25 31.3438C775.729 29.9896 775.573 28.5833 775.781 27.125C775.99 25.6667 776.667 24.2083 777.812 22.75C778.958 21.2917 780.521 20.1458 782.5 19.3125C783.958 18.6875 786.25 18.2188 789.375 17.9062L786.094 3.21875ZM789.062 29.3125C790.312 28.0625 790.781 26.3958 790.469 24.3125C790.052 24.2083 789.323 24.1562 788.281 24.1562C785.99 24.1562 784.427 24.5729 783.594 25.4062C782.76 26.2396 782.344 27.1771 782.344 28.2188C782.344 29.9896 783.229 30.875 785 30.875C786.667 30.875 788.021 30.3542 789.062 29.3125ZM839.656 33.0625C838.406 34.3125 836.323 36.0312 833.406 38.2188L827.938 33.5312C829.812 32.1771 831.688 30.7708 833.562 29.3125C835.958 27.4375 837.469 25.5104 838.094 23.5312C838.51 22.1771 838.51 20.9792 838.094 19.9375C837.573 18.7917 836.688 18.0104 835.438 17.5938C833.562 16.9688 831.115 17.1771 828.094 18.2188C824.865 19.2604 821.01 21.1875 816.531 24L812.781 18.6875C817.365 15.6667 820.958 13.7396 823.562 12.9062C827.312 11.6562 830.75 11.1875 833.875 11.5C838.458 11.9167 841.74 13.6875 843.719 16.8125C845.385 19.5208 845.802 22.2812 844.969 25.0938C844.24 27.6979 842.469 30.3542 839.656 33.0625ZM829.188 3.0625C830.75 3.27083 834.031 3.94792 839.031 5.09375L837.625 9.9375C834.083 9.10417 831.219 8.53125 829.031 8.21875C827.469 8.01042 824.188 7.69792 819.188 7.28125L820.594 2.4375C824.969 2.64583 827.833 2.85417 829.188 3.0625ZM851.812 29.3125C852.75 28.375 853.896 27.9062 855.25 27.9062C856.812 27.9062 858.062 28.375 859 29.3125C860.042 30.3542 860.562 31.5521 860.562 32.9062C860.562 34.4688 860.094 35.7188 859.156 36.6562C858.115 37.6979 856.917 38.2188 855.562 38.2188C854 38.2188 852.75 37.75 851.812 36.8125C850.771 35.7708 850.25 34.5208 850.25 33.0625C850.25 31.6042 850.771 30.3542 851.812 29.3125ZM853.688 34.7812C854.104 35.1979 854.677 35.4062 855.406 35.4062C856.031 35.4062 856.552 35.1979 856.969 34.7812C857.49 34.2604 857.75 33.6875 857.75 33.0625C857.75 32.4375 857.49 31.8646 856.969 31.3438C856.552 30.9271 856.083 30.7188 855.562 30.7188C854.729 30.7188 854.104 30.9271 853.688 31.3438C853.271 31.7604 853.062 32.2812 853.062 32.9062C853.062 33.7396 853.271 34.3646 853.688 34.7812Z" fill="#FC7B92"/>
</svg>
