<svg width="488" height="46" viewBox="0 0 488 46" fill="none" xmlns="http://www.w3.org/2000/svg">
<path d="M3.5 9.25L4.4375 1.9375L29.5625 0.25C31.3125 0.125 33.0625 0.6875 34.8125 1.9375C35.9375 2.8125 36.75 3.75 37.25 4.75C38.125 6.5 38.5625 9 38.5625 12.25L38.75 34.5625C38.75 37.5625 38.5625 39.75 38.1875 41.125C37.6875 42.75 36.9375 43.875 35.9375 44.5C34.8125 45.25 33 45.625 30.5 45.625C29 45.625 27.0625 45.5 24.6875 45.25L22.0625 37.375L29.5625 37.1875V31.375L13.8125 32.5L10.4375 32.875L9.875 45.25L0.3125 44.5L3.5 9.25ZM29.5625 24.625V20.6875L11.1875 21.625L10.8125 25.5625L29.5625 24.625ZM29.375 13.9375L29.1875 8.125L12.3125 9.4375L11.9375 14.3125L29.375 13.9375ZM49.4 28.5625H54.275L52.9625 41.5L47.3375 41.3125L49.4 28.5625ZM53.3375 4.5625C54.9625 3.0625 56.5875 1.625 58.2125 0.25L62.3375 4L62.7125 4.5625L57.0875 10L58.4 11.3125L63.65 6.4375L67.5875 10.375L71.3375 7L76.9625 10.375L81.4625 6.0625L67.025 6.8125L67.4 0.8125L82.775 0.4375C85.025 0.3125 86.65 0.4375 87.65 0.8125C89.025 1.3125 89.8375 2.125 90.0875 3.25C90.4625 4.875 89.8375 6.75 88.2125 8.875C87.3375 10 85.5875 11.8125 82.9625 14.3125L93.4625 21.4375L89.9 27.0625L77.9 19C75.65 21.375 73.3375 23.6875 70.9625 25.9375L66.8375 22.1875L67.5875 27.0625L62.15 27.8125L61.9625 25.9375H61.2125L61.025 31.9375C63.15 30.1875 65.15 30.375 67.025 32.5V28.9375L75.275 28.375V22.9375H82.2125L82.4 23.125V28.375L90.65 28.75L90.275 34L82.2125 33.8125L82.4 39.0625H92.7125L92.9 44.125L76.775 44.6875L64.4 45.4375L63.8375 39.8125L75.275 39.25V34L67.4 34.5625C66.65 36.0625 65.8375 37.0625 64.9625 37.5625C63.8375 38.1875 62.525 37.9375 61.025 36.8125L60.8375 45.625L54.275 45.8125L55.025 26.875C53.4 27 52.2125 27.0625 51.4625 27.0625C50.3375 27.0625 49.3375 26.5625 48.4625 25.5625C47.7125 24.5625 47.5875 23.5 48.0875 22.375C48.5875 21.25 49.3375 20.1875 50.3375 19.1875C51.2125 18.3125 52.15 17.4375 53.15 16.5625C51.525 14.4375 50.525 13.125 50.15 12.625C49.65 11.75 49.4625 10.875 49.5875 10C49.8375 8.5 51.0875 6.6875 53.3375 4.5625ZM61.025 21.4375L60.4625 18.0625L65.7125 17.5L66.275 20.6875H66.4625L71.9 15.25L66.4625 12.0625L56.3375 22L61.025 21.4375ZM123.05 37.5625C126.175 35.4375 128.238 33.4375 129.238 31.5625C130.613 29.3125 131.3 26.5 131.3 23.125C131.3 19.625 130.55 16.875 129.05 14.875C127.55 12.875 125.675 11.5 123.425 10.75C121.05 10 118.613 9.9375 116.113 10.5625C112.238 11.6875 109.3 13.9375 107.3 17.3125C105.675 20.0625 104.988 22.875 105.238 25.75C105.363 27 105.675 28.0625 106.175 28.9375C106.925 30.1875 107.8 30.625 108.8 30.25C109.675 30 110.925 29.1875 112.55 27.8125C113.8 26.8125 114.738 26 115.363 25.375C117.613 23.25 120.05 20.5625 122.675 17.3125L128.113 22.1875C125.113 26.1875 122.55 29.25 120.425 31.375C117.3 34.5 114.113 36.875 110.863 38.5C108.863 39.5 106.925 39.8125 105.05 39.4375C102.925 39.0625 101.3 37.9375 100.175 36.0625C98.8 33.9375 98.05 31 97.925 27.25C97.8 24 98.175 21 99.05 18.25C100.425 13.75 102.863 10.1875 106.363 7.5625C110.363 4.5625 114.738 3.0625 119.488 3.0625C125.488 3.0625 130.363 5.1875 134.113 9.4375C136.238 11.8125 137.675 14.75 138.425 18.25C139.175 21.75 139.238 25.125 138.613 28.375C138.113 30.875 137.3 33.25 136.175 35.5C135.05 37.75 132.988 40.3125 129.988 43.1875L123.05 37.5625ZM150.2 4.75L157.512 1.9375L161.637 10.5625L177.762 6.4375L180.762 13.75L164.825 17.5L168.2 24.8125L161.075 27.4375L158.262 20.5C155.637 22 153.95 23.6875 153.2 25.5625C151.325 30.0625 152.2 33.25 155.825 35.125C158.45 36.5 161.575 37 165.2 36.625C167.575 36.375 169.762 35.8125 171.762 34.9375C174.012 33.8125 176.45 32.375 179.075 30.625L183.575 36.8125C177.7 40.6875 172.887 43 169.137 43.75C165.637 44.375 162.325 44.5 159.2 44.125C154.45 43.5 150.762 42 148.137 39.625C144.637 36.25 143.387 31.5625 144.387 25.5625C144.762 22.9375 145.762 20.6875 147.387 18.8125C149.012 16.9375 151.45 15.0625 154.7 13.1875L150.2 4.75ZM196.288 29.6875C197.538 32.6875 199.1 34.625 200.975 35.5C202.85 36.375 205.85 36.6875 209.975 36.4375C214.6 36.1875 217.913 35.5625 219.913 34.5625C221.038 34.0625 222.538 32.75 224.413 30.625L229.288 36.4375C227.663 38.3125 226.288 39.6875 225.163 40.5625C223.663 41.6875 221.913 42.5 219.913 43C217.163 43.625 213.35 43.875 208.475 43.75C204.6 43.625 201.413 43.1875 198.913 42.4375C196.163 41.5625 193.975 40.25 192.35 38.5C190.85 36.875 189.413 33.9375 188.038 29.6875H196.288ZM207.538 17.125L206.413 13.75L190.475 16L189.35 8.6875L204.35 7.5625L202.85 3.25L210.725 2.5L212.038 7L223.288 6.625L223.663 12.4375L213.913 13L215.038 16.75L227.225 16.375L227.975 22.375L216.913 23.125L218.413 28L210.913 29.3125L209.413 23.875C205.413 24.25 202.413 24.5625 200.413 24.8125C197.288 25.3125 193.6 25.9375 189.35 26.6875L188.413 19L207.538 17.125ZM259.25 37.5625C262.375 35.4375 264.438 33.4375 265.438 31.5625C266.812 29.3125 267.5 26.5 267.5 23.125C267.5 19.625 266.75 16.875 265.25 14.875C263.75 12.875 261.875 11.5 259.625 10.75C257.25 10 254.812 9.9375 252.312 10.5625C248.438 11.6875 245.5 13.9375 243.5 17.3125C241.875 20.0625 241.188 22.875 241.438 25.75C241.562 27 241.875 28.0625 242.375 28.9375C243.125 30.1875 244 30.625 245 30.25C245.875 30 247.125 29.1875 248.75 27.8125C250 26.8125 250.938 26 251.562 25.375C253.812 23.25 256.25 20.5625 258.875 17.3125L264.312 22.1875C261.312 26.1875 258.75 29.25 256.625 31.375C253.5 34.5 250.312 36.875 247.062 38.5C245.062 39.5 243.125 39.8125 241.25 39.4375C239.125 39.0625 237.5 37.9375 236.375 36.0625C235 33.9375 234.25 31 234.125 27.25C234 24 234.375 21 235.25 18.25C236.625 13.75 239.062 10.1875 242.562 7.5625C246.562 4.5625 250.938 3.0625 255.688 3.0625C261.688 3.0625 266.562 5.1875 270.312 9.4375C272.438 11.8125 273.875 14.75 274.625 18.25C275.375 21.75 275.438 25.125 274.812 28.375C274.312 30.875 273.5 33.25 272.375 35.5C271.25 37.75 269.188 40.3125 266.188 43.1875L259.25 37.5625ZM295.775 32.6875L297.275 13.1875L282.65 14.6875V6.25C289.15 5.875 295.087 5.5625 300.462 5.3125C306.212 5.0625 312.962 4.9375 320.712 4.9375L320.525 12.625L306.275 13.1875L305.337 32.875L321.837 33.25V40.75C313.462 40.75 307.212 40.8125 303.087 40.9375C297.337 41.1875 289.712 41.75 280.212 42.625V34L295.775 32.6875ZM344.862 17.875L346.925 10.5625L333.05 13.75L329.3 6.25C335.3 5.125 340.737 4.1875 345.612 3.4375C350.237 2.6875 356.112 1.9375 363.237 1.1875L367.362 7.375L351.425 9.625L354.425 10L353.112 17.5L368.862 17.875V24.0625L351.987 24.4375L349.362 44.3125L339.8 42.8125L343.175 25L326.675 27.0625L327.05 19.1875L344.862 17.875ZM382.7 1.1875L390.388 3.625L387.388 11.5L415.138 11.125V18.25L399.575 18.625L403.138 20.6875L394.513 44.125L385.7 40.75L395.075 19L384.575 19.75L381.575 29.5L373.325 26.6875L382.7 1.1875ZM425.975 19.9375L429.35 30.0625L423.538 32.125L419.6 21.8125L425.975 19.9375ZM434.6 18.8125L437.225 28.75L431.225 30.0625L428.413 19.5625L434.6 18.8125ZM442.475 19.1875L448.85 21.8125L439.288 44.125L432.163 40.75L442.475 19.1875ZM454.812 2.3125H463.625L462.875 19.9375L465.5 14.875L487.438 23.875L483.875 31.375C480.375 29.625 476.812 27.875 473.188 26.125C469.562 24.625 466.125 23.25 462.875 22L462.5 43.5625H453.688L454.812 2.3125Z" fill="#E06363"/>
</svg>
