<svg width="320" height="47" viewBox="0 0 320 47" fill="none" xmlns="http://www.w3.org/2000/svg">
<path d="M14.5625 3.6875L12.3125 8.1875V46.25H4.4375L4.8125 23.1875L3.3125 26.9375H2.9375L0.125 19.25L8.5625 0.875L14.5625 3.6875ZM33.125 33.125L14.9375 35.375L15.6875 13.8125L22.8125 12.6875C26.3125 12.1875 28.8125 12.1875 30.3125 12.6875C32.0625 13.3125 32.9375 14.6875 32.9375 16.8125L33.125 33.125ZM15.125 3.3125L15.3125 2.9375L45.6875 2.1875V8.1875H43.0625L43.8125 27.125L44 36.125C44 38 43.9375 39.5 43.8125 40.625C43.5625 42.375 42.9375 43.75 41.9375 44.75C40.8125 45.75 39.375 46.3125 37.625 46.4375C36.125 46.5625 34.375 46.5 32.375 46.25L29.9375 38.5625L35.75 38.375C35.875 32.875 35.9375 28.4375 35.9375 25.0625C35.8125 21.5625 35.5 16.125 35 8.75L15.125 11V3.3125ZM26 27.6875V19.0625L21.875 19.25L21.5 28.0625L26 27.6875ZM57.275 17.9375L50.7125 18.875L51.0875 11L59.525 10.4375L62.15 2.5625L69.275 3.5L66.8375 10.25H74.7125C76.5875 10.25 78.0875 10.75 79.2125 11.75C80.2125 12.625 80.8375 14.75 81.0875 18.125C81.2125 20.125 81.275 22.5 81.275 25.25V32.1875C81.275 35.8125 80.8375 38.5625 79.9625 40.4375C78.7125 43.1875 76.4625 44.5625 73.2125 44.5625H65.525L64.2125 37.4375L73.5875 37.0625C73.8375 33.4375 73.9625 30.3125 73.9625 27.6875C73.9625 24.6875 73.775 21 73.4 16.625L64.9625 17.1875L58.2125 44.375L50.525 41.75L57.275 17.9375ZM84.65 3.125L87.275 10.625L82.5875 11.9375L79.775 4.0625L84.65 3.125ZM90.4625 11.375C91.0875 14.625 91.5875 17.625 91.9625 20.375C92.3375 22.5 92.7125 26.375 93.0875 32L85.775 33.125L82.5875 12.5L90.4625 11.375ZM89.9 2L92.9 9.6875L88.2125 10.4375L85.5875 3.125L89.9 2ZM115.363 14.75C110.988 15 105.8 16 99.8 17.75V10.0625L115.55 8.5625L115.738 2.9375L124.175 3.125L123.988 8.375H131.113L130.738 13.625L123.8 14L123.425 18.3125C126.925 18.6875 129.675 19.3125 131.675 20.1875C133.55 21.0625 135.238 22.5 136.738 24.5C138.613 27 139.613 30 139.738 33.5C139.863 36.75 139.425 40.4375 138.425 44.5625L130.175 42.3125C131.675 38.3125 132.3 35.125 132.05 32.75C131.675 29.75 130.55 27.5625 128.675 26.1875C127.55 25.4375 125.55 24.9375 122.675 24.6875C122.175 29.3125 121.613 32.8125 120.988 35.1875C119.238 41.4375 115.3 44.6875 109.175 44.9375C106.8 45.0625 104.675 44.625 102.8 43.625C100.8 42.5 99.425 41 98.675 39.125C97.3 35.5 97.925 31.5 100.55 27.125C101.925 24.75 103.738 22.9375 105.988 21.6875C108.113 20.4375 111.113 19.4375 114.988 18.6875L115.363 14.75ZM111.425 35.75C113.05 34.125 114.113 30.625 114.613 25.25C112.488 25.625 110.425 26.8125 108.425 28.8125C106.8 30.4375 105.988 32.3125 105.988 34.4375C105.988 36.1875 106.613 37.0625 107.863 37.0625C109.363 37.0625 110.55 36.625 111.425 35.75ZM132.238 19.8125C130.988 18.4375 130.488 16.8125 130.738 14.9375C131.238 12.3125 132.8 11 135.425 11C136.925 11 138.175 11.4375 139.175 12.3125C140.05 13.0625 140.613 13.9375 140.863 14.9375C141.238 16.5625 141.05 18 140.3 19.25C139.55 20.625 138.363 21.375 136.738 21.5C134.988 21.625 133.488 21.0625 132.238 19.8125ZM154.137 26.375C155.012 30.25 156.262 32.8125 157.887 34.0625C159.887 35.6875 163.262 36.375 168.012 36.125C171.012 36 173.637 35.5625 175.887 34.8125C177.262 34.3125 179.325 33.375 182.075 32L186.387 40.25C181.637 42.25 177.825 43.5 174.95 44C171.7 44.5 167.95 44.625 163.7 44.375C160.7 44.125 158.2 43.625 156.2 42.875C153.575 41.875 151.387 40.25 149.637 38C148.012 36 146.637 32.75 145.512 28.25L154.137 26.375ZM182.262 11.75C182.262 14.625 181.325 18.5 179.45 23.375L171.012 21.3125C171.637 19.6875 172.137 18.1875 172.512 16.8125C172.887 15.4375 173.262 13.5625 173.637 11.1875C169.137 11.4375 165.7 11.75 163.325 12.125C160.325 12.625 156.262 13.5625 151.137 14.9375L149.637 7.4375C158.637 5.3125 165.45 4.125 170.075 3.875C172.825 3.75 175.075 3.875 176.825 4.25C178.7 4.625 180.012 5.375 180.762 6.5C181.762 7.875 182.262 9.625 182.262 11.75ZM210.913 9.875L197.225 11.9375L197.413 4.4375L215.975 2.9375C217.725 2.8125 219.1 2.8125 220.1 2.9375C221.225 3.0625 222.1 3.625 222.725 4.625C223.35 5.75 223.475 7 223.1 8.375C222.725 9.75 222.038 10.75 221.038 11.375L213.725 16.4375C216.6 16.0625 219.038 15.9375 221.038 16.0625C223.413 16.3125 225.35 17.125 226.85 18.5C228.85 20.25 230.038 22.5625 230.413 25.4375C230.788 28.0625 230.475 30.625 229.475 33.125C227.85 37.25 224.85 40.3125 220.475 42.3125C217.475 43.6875 214.663 44.5 212.038 44.75C209.288 45 206.725 44.75 204.35 44C200.85 42.875 198.913 40.75 198.538 37.625C198.163 34.375 199.288 31.6875 201.913 29.5625C203.538 28.3125 205.475 27.5 207.725 27.125C210.35 26.75 212.85 26.875 215.225 27.5C217.85 28.25 219.538 30 220.288 32.75C222.038 30.875 222.788 29.0625 222.538 27.3125C222.163 24.9375 220.85 23.375 218.6 22.625C216.725 22 214.35 22.0625 211.475 22.8125C208.475 23.5625 205.6 24.625 202.85 26C201.1 26.875 198.85 28.125 196.1 29.75L191.225 22.625L210.913 9.875ZM208.475 37.8125C210.225 38.3125 212.288 38 214.663 36.875C214.038 35.25 213.163 34.1875 212.038 33.6875C211.038 33.1875 209.975 33.0625 208.85 33.3125C207.725 33.5625 206.913 34.125 206.413 35C205.788 36.25 206.475 37.1875 208.475 37.8125ZM260.562 38.5625C263.688 36.4375 265.75 34.4375 266.75 32.5625C268.125 30.3125 268.812 27.5 268.812 24.125C268.812 20.625 268.062 17.875 266.562 15.875C265.062 13.875 263.188 12.5 260.938 11.75C258.562 11 256.125 10.9375 253.625 11.5625C249.75 12.6875 246.812 14.9375 244.812 18.3125C243.188 21.0625 242.5 23.875 242.75 26.75C242.875 28 243.188 29.0625 243.688 29.9375C244.438 31.1875 245.312 31.625 246.312 31.25C247.188 31 248.438 30.1875 250.062 28.8125C251.312 27.8125 252.25 27 252.875 26.375C255.125 24.25 257.562 21.5625 260.188 18.3125L265.625 23.1875C262.625 27.1875 260.062 30.25 257.938 32.375C254.812 35.5 251.625 37.875 248.375 39.5C246.375 40.5 244.438 40.8125 242.562 40.4375C240.438 40.0625 238.812 38.9375 237.688 37.0625C236.312 34.9375 235.562 32 235.438 28.25C235.312 25 235.688 22 236.562 19.25C237.938 14.75 240.375 11.1875 243.875 8.5625C247.875 5.5625 252.25 4.0625 257 4.0625C263 4.0625 267.875 6.1875 271.625 10.4375C273.75 12.8125 275.188 15.75 275.938 19.25C276.688 22.75 276.75 26.125 276.125 29.375C275.625 31.875 274.812 34.25 273.688 36.5C272.562 38.75 270.5 41.3125 267.5 44.1875L260.562 38.5625ZM312.275 21.125C310.025 22.875 308.4 25.875 307.4 30.125L299.9 29C300.525 26.5 301.087 24.8125 301.587 23.9375C302.587 21.9375 303.837 20.3125 305.337 19.0625L310.025 14.9375C310.9 14.0625 311.275 12.9375 311.15 11.5625C311.025 10.3125 310.462 9.4375 309.462 8.9375C308.087 8.1875 306.212 8.125 303.837 8.75C301.462 9.375 298.525 11.25 295.025 14.375L290.525 8.9375C293.525 6.4375 296.15 4.6875 298.4 3.6875C301.025 2.5625 303.712 1.9375 306.462 1.8125C310.587 1.6875 313.65 2.5625 315.65 4.4375C318.025 6.6875 319.025 9.5 318.65 12.875C318.4 15.25 317.525 17 316.025 18.125L312.275 21.125ZM299.712 39.5C298.837 38.625 298.4 37.5 298.4 36.125C298.4 34.625 298.837 33.4375 299.712 32.5625C300.587 31.6875 301.65 31.25 302.9 31.25C304.275 31.25 305.462 31.75 306.462 32.75C307.337 33.625 307.775 34.75 307.775 36.125C307.775 37.5 307.337 38.625 306.462 39.5C305.587 40.375 304.525 40.8125 303.275 40.8125C301.775 40.8125 300.587 40.375 299.712 39.5Z" fill="#E06363"/>
</svg>
