<svg width="579" height="46" viewBox="0 0 579 46" fill="none" xmlns="http://www.w3.org/2000/svg">
<path d="M3.5 9.25L4.4375 1.9375L29.5625 0.25C31.3125 0.125 33.0625 0.6875 34.8125 1.9375C35.9375 2.8125 36.75 3.75 37.25 4.75C38.125 6.5 38.5625 9 38.5625 12.25L38.75 34.5625C38.75 37.5625 38.5625 39.75 38.1875 41.125C37.6875 42.75 36.9375 43.875 35.9375 44.5C34.8125 45.25 33 45.625 30.5 45.625C29 45.625 27.0625 45.5 24.6875 45.25L22.0625 37.375L29.5625 37.1875V31.375L13.8125 32.5L10.4375 32.875L9.875 45.25L0.3125 44.5L3.5 9.25ZM29.5625 24.625V20.6875L11.1875 21.625L10.8125 25.5625L29.5625 24.625ZM29.375 13.9375L29.1875 8.125L12.3125 9.4375L11.9375 14.3125L29.375 13.9375ZM49.4 28.5625H54.275L52.9625 41.5L47.3375 41.3125L49.4 28.5625ZM53.3375 4.5625C54.9625 3.0625 56.5875 1.625 58.2125 0.25L62.3375 4L62.7125 4.5625L57.0875 10L58.4 11.3125L63.65 6.4375L67.5875 10.375L71.3375 7L76.9625 10.375L81.4625 6.0625L67.025 6.8125L67.4 0.8125L82.775 0.4375C85.025 0.3125 86.65 0.4375 87.65 0.8125C89.025 1.3125 89.8375 2.125 90.0875 3.25C90.4625 4.875 89.8375 6.75 88.2125 8.875C87.3375 10 85.5875 11.8125 82.9625 14.3125L93.4625 21.4375L89.9 27.0625L77.9 19C75.65 21.375 73.3375 23.6875 70.9625 25.9375L66.8375 22.1875L67.5875 27.0625L62.15 27.8125L61.9625 25.9375H61.2125L61.025 31.9375C63.15 30.1875 65.15 30.375 67.025 32.5V28.9375L75.275 28.375V22.9375H82.2125L82.4 23.125V28.375L90.65 28.75L90.275 34L82.2125 33.8125L82.4 39.0625H92.7125L92.9 44.125L76.775 44.6875L64.4 45.4375L63.8375 39.8125L75.275 39.25V34L67.4 34.5625C66.65 36.0625 65.8375 37.0625 64.9625 37.5625C63.8375 38.1875 62.525 37.9375 61.025 36.8125L60.8375 45.625L54.275 45.8125L55.025 26.875C53.4 27 52.2125 27.0625 51.4625 27.0625C50.3375 27.0625 49.3375 26.5625 48.4625 25.5625C47.7125 24.5625 47.5875 23.5 48.0875 22.375C48.5875 21.25 49.3375 20.1875 50.3375 19.1875C51.2125 18.3125 52.15 17.4375 53.15 16.5625C51.525 14.4375 50.525 13.125 50.15 12.625C49.65 11.75 49.4625 10.875 49.5875 10C49.8375 8.5 51.0875 6.6875 53.3375 4.5625ZM61.025 21.4375L60.4625 18.0625L65.7125 17.5L66.275 20.6875H66.4625L71.9 15.25L66.4625 12.0625L56.3375 22L61.025 21.4375ZM123.05 37.5625C126.175 35.4375 128.238 33.4375 129.238 31.5625C130.613 29.3125 131.3 26.5 131.3 23.125C131.3 19.625 130.55 16.875 129.05 14.875C127.55 12.875 125.675 11.5 123.425 10.75C121.05 10 118.613 9.9375 116.113 10.5625C112.238 11.6875 109.3 13.9375 107.3 17.3125C105.675 20.0625 104.988 22.875 105.238 25.75C105.363 27 105.675 28.0625 106.175 28.9375C106.925 30.1875 107.8 30.625 108.8 30.25C109.675 30 110.925 29.1875 112.55 27.8125C113.8 26.8125 114.738 26 115.363 25.375C117.613 23.25 120.05 20.5625 122.675 17.3125L128.113 22.1875C125.113 26.1875 122.55 29.25 120.425 31.375C117.3 34.5 114.113 36.875 110.863 38.5C108.863 39.5 106.925 39.8125 105.05 39.4375C102.925 39.0625 101.3 37.9375 100.175 36.0625C98.8 33.9375 98.05 31 97.925 27.25C97.8 24 98.175 21 99.05 18.25C100.425 13.75 102.863 10.1875 106.363 7.5625C110.363 4.5625 114.738 3.0625 119.488 3.0625C125.488 3.0625 130.363 5.1875 134.113 9.4375C136.238 11.8125 137.675 14.75 138.425 18.25C139.175 21.75 139.238 25.125 138.613 28.375C138.113 30.875 137.3 33.25 136.175 35.5C135.05 37.75 132.988 40.3125 129.988 43.1875L123.05 37.5625ZM150.2 4.75L157.512 1.9375L161.637 10.5625L177.762 6.4375L180.762 13.75L164.825 17.5L168.2 24.8125L161.075 27.4375L158.262 20.5C155.637 22 153.95 23.6875 153.2 25.5625C151.325 30.0625 152.2 33.25 155.825 35.125C158.45 36.5 161.575 37 165.2 36.625C167.575 36.375 169.762 35.8125 171.762 34.9375C174.012 33.8125 176.45 32.375 179.075 30.625L183.575 36.8125C177.7 40.6875 172.887 43 169.137 43.75C165.637 44.375 162.325 44.5 159.2 44.125C154.45 43.5 150.762 42 148.137 39.625C144.637 36.25 143.387 31.5625 144.387 25.5625C144.762 22.9375 145.762 20.6875 147.387 18.8125C149.012 16.9375 151.45 15.0625 154.7 13.1875L150.2 4.75ZM196.288 29.6875C197.538 32.6875 199.1 34.625 200.975 35.5C202.85 36.375 205.85 36.6875 209.975 36.4375C214.6 36.1875 217.913 35.5625 219.913 34.5625C221.038 34.0625 222.538 32.75 224.413 30.625L229.288 36.4375C227.663 38.3125 226.288 39.6875 225.163 40.5625C223.663 41.6875 221.913 42.5 219.913 43C217.163 43.625 213.35 43.875 208.475 43.75C204.6 43.625 201.413 43.1875 198.913 42.4375C196.163 41.5625 193.975 40.25 192.35 38.5C190.85 36.875 189.413 33.9375 188.038 29.6875H196.288ZM207.538 17.125L206.413 13.75L190.475 16L189.35 8.6875L204.35 7.5625L202.85 3.25L210.725 2.5L212.038 7L223.288 6.625L223.663 12.4375L213.913 13L215.038 16.75L227.225 16.375L227.975 22.375L216.913 23.125L218.413 28L210.913 29.3125L209.413 23.875C205.413 24.25 202.413 24.5625 200.413 24.8125C197.288 25.3125 193.6 25.9375 189.35 26.6875L188.413 19L207.538 17.125ZM244.062 2.3125C242.812 13.5625 242.125 22 242 27.625C241.875 31.875 241.875 37.1875 242 43.5625L234.125 42.625C234.25 34.25 234.438 27.6875 234.688 22.9375C234.938 18.5625 235.688 11.5 236.938 1.75L244.062 2.3125ZM244.625 11.125L259.812 10.375L258.312 2.3125L266.188 1.75L267.688 10.375L275.75 10.5625V16.75H268.25L268.625 22.75L275.562 23.5L275.75 31.1875L269 30.25C268.875 35.125 267.875 38.5625 266 40.5625C263.75 43.0625 260.312 44.0625 255.688 43.5625C250.188 43.0625 246.938 40.625 245.938 36.25C245.062 32.25 245.938 28.75 248.562 25.75C250.312 23.875 252.312 22.6875 254.562 22.1875C256.438 21.8125 258.688 21.75 261.312 22L260.938 17.3125L244.438 18.8125L244.625 11.125ZM260.562 34.5625C261.312 33.5625 261.625 31.8125 261.5 29.3125C259.375 29.0625 257.812 29.0625 256.812 29.3125C254.812 29.6875 253.562 30.6875 253.062 32.3125C252.562 33.6875 252.75 34.8125 253.625 35.6875C254.375 36.4375 255.438 36.75 256.812 36.625C258.438 36.375 259.688 35.6875 260.562 34.5625ZM285.087 31.75L287.337 34.375L293.337 41.875L286.4 45.8125L280.587 34.75L285.087 31.75ZM321.237 3.8125L328.55 1.375L332.675 9.8125C337.3 8.3125 341.425 7.125 345.05 6.25L347.862 13.1875L335.675 16.5625L338.675 24.4375L331.737 26.875L328.737 19.5625C326.987 20.9375 325.675 22.125 324.8 23.125C323.8 24.375 323.237 25.75 323.112 27.25C322.987 30 323.737 32.1875 325.362 33.8125C326.862 35.3125 328.862 36.1875 331.362 36.4375C334.237 36.8125 337.425 36.4375 340.925 35.3125C342.675 34.8125 344.3 34.125 345.8 33.25C347.3 32.375 348.8 31.4375 350.3 30.4375L354.987 36.4375C352.362 38.3125 349.925 39.75 347.675 40.75C343.55 42.5 339.487 43.5625 335.487 43.9375C330.737 44.4375 326.675 43.8125 323.3 42.0625C320.8 40.8125 318.8 39 317.3 36.625C315.8 34.25 314.987 31.625 314.862 28.75C314.737 25.875 315.3 23.25 316.55 20.875C317.925 18.125 320.925 15.3125 325.55 12.4375L321.237 3.8125ZM349.175 2.875L352.55 11.3125L348.425 12.25L345.237 4.1875L349.175 2.875ZM354.237 1.9375L357.237 9.8125L353.112 11.125L350.112 2.6875L354.237 1.9375ZM393.013 38.875C391.513 40.375 389.013 42.4375 385.513 45.0625L378.95 39.4375C381.2 37.8125 383.45 36.125 385.7 34.375C388.575 32.125 390.388 29.8125 391.138 27.4375C391.638 25.8125 391.638 24.375 391.138 23.125C390.513 21.75 389.45 20.8125 387.95 20.3125C385.7 19.5625 382.763 19.8125 379.138 21.0625C375.263 22.3125 370.638 24.625 365.263 28L360.763 21.625C366.263 18 370.575 15.6875 373.7 14.6875C378.2 13.1875 382.325 12.625 386.075 13C391.575 13.5 395.513 15.625 397.888 19.375C399.888 22.625 400.388 25.9375 399.388 29.3125C398.513 32.4375 396.388 35.625 393.013 38.875ZM380.45 2.875C382.325 3.125 386.263 3.9375 392.263 5.3125L390.575 11.125C386.325 10.125 382.888 9.4375 380.263 9.0625C378.388 8.8125 374.45 8.4375 368.45 7.9375L370.138 2.125C375.388 2.375 378.825 2.625 380.45 2.875ZM427.288 8.3125L426.913 1.75L435.35 1.9375L435.538 8.5L445.85 9.0625L445.663 14.5L435.538 14.3125V22.1875C437.788 25.5625 438.6 28.875 437.975 32.125C437.475 34.25 436.413 36.375 434.788 38.5C433.288 40.375 431.225 42.375 428.6 44.5L420.538 40.5625C424.163 38.0625 426.413 36.25 427.288 35.125C428.038 34.25 428.538 33.0625 428.788 31.5625C427.038 33.5625 425.475 34.9375 424.1 35.6875C421.225 37.1875 418.288 37.75 415.288 37.375C412.413 37.125 409.975 35.75 407.975 33.25C406.35 31.125 405.725 28.6875 406.1 25.9375C406.475 23.3125 407.725 21.0625 409.85 19.1875C411.725 17.5625 414.038 16.5625 416.788 16.1875C419.038 15.9375 421.1 15.9375 422.975 16.1875C423.85 16.3125 425.35 16.6875 427.475 17.3125V14.3125C420.225 14.5625 414.85 14.9375 411.35 15.4375C409.6 15.6875 407.413 16.0625 404.788 16.5625V9.25L427.288 8.3125ZM422.225 28C423.1 27.25 423.913 25.9375 424.663 24.0625C421.788 22.6875 419.475 22.125 417.725 22.375C416.475 22.5 415.475 23 414.725 23.875C413.975 24.75 413.725 25.75 413.975 26.875C414.1 28 414.663 28.8125 415.663 29.3125C416.663 29.8125 417.725 29.9375 418.85 29.6875C420.225 29.3125 421.35 28.75 422.225 28ZM470.375 8.875L456.688 10.9375L456.875 3.4375L475.438 1.9375C477.188 1.8125 478.562 1.8125 479.562 1.9375C480.688 2.0625 481.562 2.625 482.188 3.625C482.812 4.75 482.938 6 482.562 7.375C482.188 8.75 481.5 9.75 480.5 10.375L473.188 15.4375C476.062 15.0625 478.5 14.9375 480.5 15.0625C482.875 15.3125 484.812 16.125 486.312 17.5C488.312 19.25 489.5 21.5625 489.875 24.4375C490.25 27.0625 489.938 29.625 488.938 32.125C487.312 36.25 484.312 39.3125 479.938 41.3125C476.938 42.6875 474.125 43.5 471.5 43.75C468.75 44 466.188 43.75 463.812 43C460.312 41.875 458.375 39.75 458 36.625C457.625 33.375 458.75 30.6875 461.375 28.5625C463 27.3125 464.938 26.5 467.188 26.125C469.812 25.75 472.312 25.875 474.688 26.5C477.312 27.25 479 29 479.75 31.75C481.5 29.875 482.25 28.0625 482 26.3125C481.625 23.9375 480.312 22.375 478.062 21.625C476.188 21 473.812 21.0625 470.938 21.8125C467.938 22.5625 465.062 23.625 462.312 25C460.562 25.875 458.312 27.125 455.562 28.75L450.688 21.625L470.375 8.875ZM467.938 36.8125C469.688 37.3125 471.75 37 474.125 35.875C473.5 34.25 472.625 33.1875 471.5 32.6875C470.5 32.1875 469.438 32.0625 468.312 32.3125C467.188 32.5625 466.375 33.125 465.875 34C465.25 35.25 465.938 36.1875 467.938 36.8125ZM520.025 37.5625C523.15 35.4375 525.212 33.4375 526.212 31.5625C527.587 29.3125 528.275 26.5 528.275 23.125C528.275 19.625 527.525 16.875 526.025 14.875C524.525 12.875 522.65 11.5 520.4 10.75C518.025 10 515.587 9.9375 513.087 10.5625C509.212 11.6875 506.275 13.9375 504.275 17.3125C502.65 20.0625 501.962 22.875 502.212 25.75C502.337 27 502.65 28.0625 503.15 28.9375C503.9 30.1875 504.775 30.625 505.775 30.25C506.65 30 507.9 29.1875 509.525 27.8125C510.775 26.8125 511.712 26 512.337 25.375C514.587 23.25 517.025 20.5625 519.65 17.3125L525.087 22.1875C522.087 26.1875 519.525 29.25 517.4 31.375C514.275 34.5 511.087 36.875 507.837 38.5C505.837 39.5 503.9 39.8125 502.025 39.4375C499.9 39.0625 498.275 37.9375 497.15 36.0625C495.775 33.9375 495.025 31 494.9 27.25C494.775 24 495.15 21 496.025 18.25C497.4 13.75 499.837 10.1875 503.337 7.5625C507.337 4.5625 511.712 3.0625 516.462 3.0625C522.462 3.0625 527.337 5.1875 531.087 9.4375C533.212 11.8125 534.65 14.75 535.4 18.25C536.15 21.75 536.212 25.125 535.587 28.375C535.087 30.875 534.275 33.25 533.15 35.5C532.025 37.75 529.962 40.3125 526.962 43.1875L520.025 37.5625ZM571.737 20.125C569.487 21.875 567.862 24.875 566.862 29.125L559.362 28C559.987 25.5 560.55 23.8125 561.05 22.9375C562.05 20.9375 563.3 19.3125 564.8 18.0625L569.487 13.9375C570.362 13.0625 570.737 11.9375 570.612 10.5625C570.487 9.3125 569.925 8.4375 568.925 7.9375C567.55 7.1875 565.675 7.125 563.3 7.75C560.925 8.375 557.987 10.25 554.487 13.375L549.987 7.9375C552.987 5.4375 555.612 3.6875 557.862 2.6875C560.487 1.5625 563.175 0.9375 565.925 0.8125C570.05 0.6875 573.112 1.5625 575.112 3.4375C577.487 5.6875 578.487 8.5 578.112 11.875C577.862 14.25 576.987 16 575.487 17.125L571.737 20.125ZM559.175 38.5C558.3 37.625 557.862 36.5 557.862 35.125C557.862 33.625 558.3 32.4375 559.175 31.5625C560.05 30.6875 561.112 30.25 562.362 30.25C563.737 30.25 564.925 30.75 565.925 31.75C566.8 32.625 567.237 33.75 567.237 35.125C567.237 36.5 566.8 37.625 565.925 38.5C565.05 39.375 563.987 39.8125 562.737 39.8125C561.237 39.8125 560.05 39.375 559.175 38.5Z" fill="#E06363"/>
</svg>
