<svg width="97" height="81" viewBox="0 0 97 81" fill="none" xmlns="http://www.w3.org/2000/svg">
<path d="M95.8163 65.8516C94.2163 63.8516 88.8163 58.6849 86.3163 56.3516C98.7162 45.9516 92.1496 33.3516 87.3163 28.3516C89.4829 23.8515 90.7163 12.8514 78.3163 4.85158C65.9163 -3.14823 54.1496 0.518327 49.8163 3.35158C44.6496 1.35158 30.0806 -2.4717 18.3163 6.35156C4.31625 16.8516 4.14959 26.3516 4.81625 32.8516C1.81625 35.6849 -3.18375 44.1516 2.81625 59.3516C8.81625 74.5516 23.6496 76.3516 30.3163 75.3516C35.1163 82.9516 43.3163 80.5182 46.8163 78.3516C64.8163 82.3516 76.3163 71.6849 79.8163 65.8516C83.6496 66.8516 91.8163 68.9516 93.8163 69.3516C96.3163 69.8516 97.8163 68.3516 95.8163 65.8516Z" fill="#66CF90"/>
<path d="M64.5267 58.9602C65.1212 57.3867 65.0339 55.7482 64.2647 54.0447C63.5655 52.4961 62.3167 51.3821 60.5184 50.7026C58.9449 50.108 57.3839 50.1604 55.8353 50.8596C54.2867 51.5589 53.1726 52.8076 52.4931 54.6059C51.8986 56.1794 51.9859 57.8179 52.7551 59.5214C53.4543 61.07 54.7031 62.184 56.5014 62.8635C58.0749 63.4581 59.6359 63.4057 61.1845 62.7065C62.7331 62.0072 63.8472 60.7584 64.5267 58.9602ZM58.1659 46.7311L38.0791 15.2515L26.944 22.7963C29.846 26.3332 33.5048 30.9266 37.9204 36.5767C40.9623 40.4233 44.8583 45.7486 49.6085 52.5526L58.1659 46.7311Z" fill="white"/>
</svg>
