<svg width="364" height="47" viewBox="0 0 364 47" fill="none" xmlns="http://www.w3.org/2000/svg">
<path d="M1.3125 12.125L7.6875 12.5L6.9375 28.25L0.75 27.5L1.3125 12.125ZM8.4375 1.25L15.5625 1.4375L15.1875 10.4375L18.1875 12.5L20.0625 4.4375L26.25 6.125L25.5 10.625L28.6875 10.8125L29.0625 1.0625L36.5625 1.25L36.375 10.625L45.375 10.8125V16.625L36 16.8125L35.8125 24.875L43.6875 24.6875L43.875 24.875V30.5L35.8125 30.6875V39.3125H46.6875L46.5 45.3125L36.1875 45.5L26.4375 46.0625L16.5 46.8125L16.6875 39.875L28.125 39.3125L28.3125 31.25L20.0625 32.1875L20.25 25.4375L28.3125 25.0625L28.5 17.1875L24 17.5625L22.5 24.5L16.5 22.625L16.125 22.4375L16.6875 19.8125L15 18.3125L14.8125 40.4375V46.8125H7.5L7.875 16.4375L8.4375 1.25ZM74.775 6.3125L73.8375 1.25H81.15L82.0875 6.3125L86.9625 6.125C85.7125 4.625 85.4 3.375 86.025 2.375C86.525 1.625 87.2125 1.125 88.0875 0.875C89.2125 0.625 90.275 0.875 91.275 1.625C92.275 2.375 92.7125 3.25 92.5875 4.25C92.5875 4.5 92.4625 4.8125 92.2125 5.1875C91.9625 5.5625 91.7125 5.875 91.4625 6.125L97.275 6.3125L97.0875 11.9375L83.4 11.375C83.775 13 84.15 14.375 84.525 15.5L86.775 11.9375L92.775 14.9375L88.0875 22.625C88.5875 23.375 89.0875 23.9375 89.5875 24.3125L91.65 21.125L97.0875 24.875C96.3375 26.75 95.525 28.4375 94.65 29.9375C93.65 31.5625 92.4 32.5 90.9 32.75C88.9 33 86.7125 31.875 84.3375 29.375L82.65 32.5625L77.2125 28.4375L80.4 23C79.275 20.875 78.15 18.0625 77.025 14.5625L77.5875 17.75L61.0875 18.875L61.4625 13.8125L68.775 13.25L76.4625 12.6875L76.0875 11.5625L60.525 12.6875L58.8375 32.1875L51.7125 32.75L53.9625 6.875L74.775 6.3125ZM57.525 33.125L63.7125 35.75L59.2125 46.25L51.7125 43.25L57.525 33.125ZM75.7125 20.375C76.2125 21.25 76.4625 22.625 76.4625 24.5L76.275 30.5C78.775 30.5 80.4625 31.1875 81.3375 32.5625C82.0875 33.6875 82.275 34.875 81.9 36.125C81.65 37.125 81.15 37.875 80.4 38.375C79.65 38.875 78.7125 39.125 77.5875 39.125C76.4625 39.125 75.525 38.8125 74.775 38.1875C73.525 37.3125 73.025 36 73.275 34.25C73.4 33.375 73.775 32.4375 74.4 31.4375L60.3375 31.8125L60.9 19.625C66.4 18.875 70.4 18.625 72.9 18.875C74.275 19 75.2125 19.5 75.7125 20.375ZM72.15 32.5625L72.3375 39.875H81.7125V37.0625L88.0875 38.5625C88.0875 36.1875 89.025 34.75 90.9 34.25C93.4 33.625 95.275 34.3125 96.525 36.3125C97.15 37.3125 97.275 38.4375 96.9 39.6875C96.525 40.9375 95.775 41.8125 94.65 42.3125C93.025 43.0625 91.15 42.5 89.025 40.625C88.65 43.5 87.7125 45.1875 86.2125 45.6875L83.5875 46.625L68.9625 46.4375C68.0875 46.4375 67.15 45.875 66.15 44.75C65.65 44.25 65.275 43.25 65.025 41.75C64.9 41 64.9 40.0625 65.025 38.9375L65.4 32.75L72.15 32.5625ZM70.275 26.9375V23.75H66.7125L66.525 27.125L70.275 26.9375ZM102.113 29.1875L120.675 28.8125L120.863 25.4375L128.925 25.625L128.738 28.625H147.863L147.675 34.8125L137.925 34.625L148.238 40.0625L142.425 46.8125L129.113 38L129.3 46.4375L120.3 46.625V38.1875L109.988 46.8125L102.113 41.9375L110.363 35.9375L102.113 36.875V29.1875ZM103.988 16.625C102.488 15.75 101.8 14.3125 101.925 12.3125C102.05 11.1875 102.488 10.3125 103.238 9.6875C104.113 8.9375 105.238 8.5625 106.613 8.5625C109.238 8.5625 110.613 9.8125 110.738 12.3125C110.863 14.4375 110.113 15.875 108.488 16.625C106.863 17.375 105.363 17.375 103.988 16.625ZM115.238 12.125C116.738 13.375 118.3 14.9375 119.925 16.8125L108.488 27.5L103.05 22.8125L115.238 12.125ZM109.425 8.9375C107.925 8.1875 107.05 7 106.8 5.375C106.55 3.75 107.175 2.5 108.675 1.625C110.425 0.625 111.988 0.5 113.363 1.25C114.488 1.875 115.113 2.875 115.238 4.25C115.488 6.125 114.925 7.5625 113.55 8.5625C112.3 9.5625 110.925 9.6875 109.425 8.9375ZM118.988 14C119.113 11.125 119.363 8.5 119.738 6.125L126.3 5.9375L127.988 0.3125L135.3 1.8125L133.988 5.75C137.238 5.375 139.613 5.875 141.113 7.25C141.863 8 142.363 9 142.613 10.25C142.738 11 142.8 12.1875 142.8 13.8125V18.3125L147.863 18.5L147.488 25.4375L143.175 25.625C140.175 25.75 138.113 25.375 136.988 24.5C135.488 23.375 134.738 21.8125 134.738 19.8125V11.75L132.3 11.9375L128.175 24.875L120.675 23.1875L124.05 13.0625L118.988 14ZM155.512 25.0625L156.075 21.125L152.325 18.875L154.387 11.1875L156.825 12.5L157.762 6.3125L174.262 5.75L174.45 0.6875L182.7 1.0625L182.325 5.75L197.887 5.9375L198.075 11.75L184.387 11.5625L163.95 12.875L162.262 38.1875V46.625L153.825 45.875L154.575 33.125L152.512 34.25L152.137 26.5625L155.512 25.0625ZM163.762 38.9375H166.95L167.512 23.75H175.012L174.45 38.9375H177.075L177.637 20L166.012 21.125V14.5625L188.325 14.1875H195.825L195.637 19.625L185.887 19.4375L185.512 25.4375L195.45 25.25L195.262 31.0625L185.325 31.8125V38.75L198.262 38.5625L198.075 44.375L179.137 44.75L163.762 45.6875V38.9375ZM227.85 38.5625C230.975 36.4375 233.038 34.4375 234.038 32.5625C235.413 30.3125 236.1 27.5 236.1 24.125C236.1 20.625 235.35 17.875 233.85 15.875C232.35 13.875 230.475 12.5 228.225 11.75C225.85 11 223.413 10.9375 220.913 11.5625C217.038 12.6875 214.1 14.9375 212.1 18.3125C210.475 21.0625 209.788 23.875 210.038 26.75C210.163 28 210.475 29.0625 210.975 29.9375C211.725 31.1875 212.6 31.625 213.6 31.25C214.475 31 215.725 30.1875 217.35 28.8125C218.6 27.8125 219.538 27 220.163 26.375C222.413 24.25 224.85 21.5625 227.475 18.3125L232.913 23.1875C229.913 27.1875 227.35 30.25 225.225 32.375C222.1 35.5 218.913 37.875 215.663 39.5C213.663 40.5 211.725 40.8125 209.85 40.4375C207.725 40.0625 206.1 38.9375 204.975 37.0625C203.6 34.9375 202.85 32 202.725 28.25C202.6 25 202.975 22 203.85 19.25C205.225 14.75 207.663 11.1875 211.163 8.5625C215.163 5.5625 219.538 4.0625 224.288 4.0625C230.288 4.0625 235.163 6.1875 238.913 10.4375C241.038 12.8125 242.475 15.75 243.225 19.25C243.975 22.75 244.038 26.125 243.413 29.375C242.913 31.875 242.1 34.25 240.975 36.5C239.85 38.75 237.788 41.3125 234.788 44.1875L227.85 38.5625ZM258.562 3.3125C257.688 9.9375 257.188 15.0625 257.062 18.6875C256.938 21.5625 257 26.1875 257.25 32.5625L249.375 32.375C248.375 21.875 248.812 12 250.688 2.75L258.562 3.3125ZM268.688 28.25C269.688 22.75 270.625 14.0625 271.5 2.1875L280.5 2.75C279.375 14.875 278.375 23.75 277.5 29.375C276.875 33.125 275.688 38.375 273.938 45.125L265.312 43.25C266.688 38 267.812 33 268.688 28.25ZM300.9 22.4375C304.4 18.6875 307.337 15.0625 309.712 11.5625L287.775 14.75L287.025 5.375L303.525 3.875C305.9 3.625 308.087 3.4375 310.087 3.3125C312.712 3.1875 314.837 3.4375 316.462 4.0625C319.337 5.1875 320.775 7 320.775 9.5C320.775 11 320.337 12.5625 319.462 14.1875C318.837 15.4375 317.65 17.125 315.9 19.25L310.275 26.1875L325.275 38.375L317.962 44.75L304.087 33.125L292.65 44.9375L285.337 38.9375L293.4 30.5C296.15 27.5 298.65 24.8125 300.9 22.4375ZM331.237 3.3125H340.05L339.3 20.9375L341.925 15.875L363.862 24.875L360.3 32.375C356.8 30.625 353.237 28.875 349.612 27.125C345.987 25.625 342.55 24.25 339.3 23L338.925 44.5625H330.112L331.237 3.3125Z" fill="#FFB31F"/>
</svg>
