<svg width="98" height="48" viewBox="0 0 98 48" fill="none" xmlns="http://www.w3.org/2000/svg">
<path d="M1.875 25.0625L18 24.875L30.75 24.6875H35.0625C38.9375 24.6875 40.9375 24.6875 41.0625 24.6875C42.0625 24.6875 42.9375 24.75 43.6875 24.875C45.3125 25.25 46.25 26.125 46.5 27.5C46.75 28.375 46.75 30.1875 46.5 32.9375H38.8125V28.8125C31.0625 28.5625 26.5 28.625 25.125 29L23.25 30.125C26.625 30 29.125 30 30.75 30.125C34.125 30.5 36.1875 31.4375 36.9375 32.9375C37.6875 34.3125 37.4375 35.75 36.1875 37.25C35.3125 38.25 33.875 39.375 31.875 40.625L21.75 46.4375L13.6875 42.6875L17.4375 40.625L13.125 38.375L10.3125 41L3 37.4375L7.5 34.0625H0.75L1.875 25.0625ZM1.875 3.875L13.3125 3.5L13.6875 1.0625L21 0.875V3.5H26.4375V1.0625L34.5 1.25V3.5L46.6875 3.875V8L34.6875 7.8125L34.875 9.5H26.4375V8L20.625 8.1875L20.4375 10.0625H12.5625V8.9375L1.5 10.25L1.875 3.875ZM6.375 10.8125L20.25 10.625H33.1875C36.4375 10.625 38.6875 11.125 39.9375 12.125C41.3125 13.125 42.1875 14.75 42.5625 17C42.8125 18.375 42.9375 20.375 42.9375 23L23.8125 22.8125L5.25 23.9375L5.4375 18.3125L6.1875 12.125L6.375 10.8125ZM12.75 29.75L9 29.9375V32.75L12.75 29.75ZM15.5625 18.5L15.9375 15.3125L12.9375 15.5L12.75 18.5H15.5625ZM23.625 37.25L27.375 34.8125L19.6875 35.1875L23.625 37.25ZM25.3125 18.5V14.75L22.5 14.9375L22.125 18.5H25.3125ZM35.0625 18.5L34.6875 14.5625H31.6875V18.5H35.0625ZM58.275 15.125L58.4625 12.5C57.2125 13.75 55.9625 14.25 54.7125 14C53.2125 13.75 52.2125 12.9375 51.7125 11.5625C51.0875 10.0625 51.2125 8.75 52.0875 7.625C53.0875 6.375 54.275 5.8125 55.65 5.9375C56.775 6.0625 57.775 6.75 58.65 8V0.5L65.9625 0.6875L65.775 6.5C67.525 5.625 68.9 5.375 69.9 5.75C70.9 6.125 71.7125 7.125 72.3375 8.75L72.525 5.1875H80.2125V0.875L88.4625 0.6875L88.275 5.1875H97.0875V10.0625L88.0875 9.875V11.1875L95.4 11L95.5875 15.6875H88.0875V17.1875L97.0875 17V22.4375L92.9625 22.0625L80.5875 22.4375L69.9 23.5625L70.275 17.375L80.2125 17.1875V16.0625L73.0875 16.8125L73.4625 11.5625L80.2125 11.375V10.0625L72.3375 11V10.25L72.15 10.8125C71.65 12.3125 70.775 13.1875 69.525 13.4375C68.525 13.6875 67.2125 13.25 65.5875 12.125L65.4 15.125L70.0875 14.9375L69.9 20L65.4 20.5625L71.025 25.0625L68.4 31.8125L65.025 28.625L64.65 46.625H57.3375L57.7125 33.875L54.9 38.75L51.525 31.4375L57.3375 21.3125L51.525 22.4375L51.3375 15.3125L58.275 15.125ZM72.15 24.125L87.7125 23.375C93.3375 23.125 96.2125 25.8125 96.3375 31.4375L96.525 42.5C96.525 43.875 95.9 44.9375 94.65 45.6875C93.15 46.6875 90.15 47 85.65 46.625L83.9625 40.625L88.8375 40.4375V38.75L79.0875 39.5L78.9 46.625L71.2125 46.4375L72.15 24.125ZM88.8375 35.1875V33.875H79.275V35.1875H88.8375ZM88.65 29.9375L88.4625 28.0625L79.275 28.625V30.3125L88.65 29.9375Z" fill="#4E8DDB"/>
</svg>
