<svg width="123" height="45" viewBox="0 0 123 45" fill="none" xmlns="http://www.w3.org/2000/svg">
<path d="M10.4375 3.4375C9.0625 11.8125 8.25 18.3125 8 22.9375C7.625 28.1875 7.625 34.9375 8 43.1875L0.125 42.0625C0.125 35.3125 0.25 29.25 0.5 23.875C0.75 18.875 1.4375 11.8125 2.5625 2.6875L10.4375 3.4375ZM11 15.4375L25.0625 14.125L24.125 10.1875L12.3125 11.5L12.125 3.8125L33.125 3.0625L35.375 9.25H31.8125L32.75 13.9375H41.375V19.75L33.6875 19.9375L34.25 24.625L41.375 26.125L40.25 32.875L34.4375 31.5625C34.0625 34.5625 33.375 36.875 32.375 38.5C31.125 40.5 29.125 41.9375 26.375 42.8125C23.625 43.6875 21 43.875 18.5 43.375C14.875 42.625 12.625 40.5625 11.75 37.1875C10.875 33.6875 11.5 30.625 13.625 28C15.25 26.125 17.4375 24.8125 20.1875 24.0625C21.5625 23.6875 23.625 23.5625 26.375 23.6875L26 20.6875L11 22.5625V15.4375ZM26.375 32.875C26.5 32.125 26.5625 31.25 26.5625 30.25C24.6875 30 23.1875 29.9375 22.0625 30.0625C20.8125 30.3125 19.875 30.9375 19.25 31.9375C18.625 33.0625 18.5625 34.125 19.0625 35.125C19.5625 36.125 20.375 36.75 21.5 37C23.125 37.375 24.4375 36.75 25.4375 35.125C25.9375 34.375 26.25 33.625 26.375 32.875ZM36.5 1.1875L39.6875 8.875L36.3125 10L33.3125 1.75L36.5 1.1875ZM40.4375 0.0625L43.8125 7.5625L40.8125 8.6875L37.4375 1L40.4375 0.0625ZM69.8375 39.8125C67.8375 41.1875 64.8375 42.5 60.8375 43.75L57.8375 38.875C59.9625 38 61.9625 37.0625 63.8375 36.0625C66.4625 34.6875 68.0875 33.0625 68.7125 31.1875C69.2125 29.9375 69.0875 28.8125 68.3375 27.8125C67.7125 26.8125 66.7125 26.1875 65.3375 25.9375C63.5875 25.6875 61.65 25.8125 59.525 26.3125C57.275 26.9375 54.0875 28.4375 49.9625 30.8125L47.7125 24.625C52.7125 22.5 56.525 21.1875 59.15 20.6875C63.9 19.8125 67.8375 20.25 70.9625 22C72.8375 23.125 74.2125 24.5 75.0875 26.125C76.0875 28 76.275 30.125 75.65 32.5C74.9 35.375 72.9625 37.8125 69.8375 39.8125ZM89.1125 29.6875C90.3625 32.6875 91.925 34.625 93.8 35.5C95.675 36.375 98.675 36.6875 102.8 36.4375C107.425 36.1875 110.738 35.5625 112.738 34.5625C113.863 34.0625 115.363 32.75 117.238 30.625L122.113 36.4375C120.488 38.3125 119.113 39.6875 117.988 40.5625C116.488 41.6875 114.738 42.5 112.738 43C109.988 43.625 106.175 43.875 101.3 43.75C97.425 43.625 94.2375 43.1875 91.7375 42.4375C88.9875 41.5625 86.8 40.25 85.175 38.5C83.675 36.875 82.2375 33.9375 80.8625 29.6875H89.1125ZM100.363 17.125L99.2375 13.75L83.3 16L82.175 8.6875L97.175 7.5625L95.675 3.25L103.55 2.5L104.863 7L116.113 6.625L116.488 12.4375L106.738 13L107.863 16.75L120.05 16.375L120.8 22.375L109.738 23.125L111.238 28L103.738 29.3125L102.238 23.875C98.2375 24.25 95.2375 24.5625 93.2375 24.8125C90.1125 25.3125 86.425 25.9375 82.175 26.6875L81.2375 19L100.363 17.125Z" fill="white"/>
</svg>
