<svg width="176" height="47" viewBox="0 0 176 47" fill="none" xmlns="http://www.w3.org/2000/svg">
<rect width="176" height="47" rx="23.5" fill="#44AE7D"/>
<path d="M63.6562 17.5625L66.8438 17.75L66.4688 25.625L63.375 25.25L63.6562 17.5625ZM67.2188 12.125L70.7812 12.2188L70.5938 16.7188L72.0938 17.75L73.0312 13.7188L76.125 14.5625L75.75 16.8125L77.3438 16.9062L77.5312 12.0312L81.2812 12.125L81.1875 16.8125L85.6875 16.9062V19.8125L81 19.9062L80.9062 23.9375L84.8438 23.8438L84.9375 23.9375V26.75L80.9062 26.8438V31.1562H86.3438L86.25 34.1562L81.0938 34.25L76.2188 34.5312L71.25 34.9062L71.3438 31.4375L77.0625 31.1562L77.1562 27.125L73.0312 27.5938L73.125 24.2188L77.1562 24.0312L77.25 20.0938L75 20.2812L74.25 23.75L71.25 22.8125L71.0625 22.7188L71.3438 21.4062L70.5 20.6562L70.4062 31.7188V34.9062H66.75L66.9375 19.7188L67.2188 12.125ZM98.2313 14.75L98.6063 12.2188L102.45 12.125L102.169 14.75L111.356 14.6562L111.638 17.75H106.106L111.638 23.1875L108.544 25.7188L106.669 23.375L103.481 26L111.169 32.2812L107.888 35L104.044 31.9062L100.106 28.625L92.5125 34.8125L89.325 31.8125L93.45 28.7188L97.0125 26.0938L94.0125 23.75L91.95 26L88.8563 23.2812L93.9188 18.2188L88.7625 18.7812L89.0438 15.125L98.2313 14.75ZM100.294 23.375L103.856 20.5625L102.075 18.7812L103.575 17.6562L97.2938 17.8438L98.7 19.0625L96.9188 20.75L100.294 23.375Z" fill="white"/>
</svg>
