<svg width="26" height="36" viewBox="0 0 26 36" fill="none" xmlns="http://www.w3.org/2000/svg">
<path d="M0.829546 36V30.6818L13.2557 19.1761C14.3125 18.1534 15.1989 17.233 15.9148 16.4148C16.642 15.5966 17.1932 14.7955 17.5682 14.0114C17.9432 13.2159 18.1307 12.358 18.1307 11.4375C18.1307 10.4148 17.8977 9.53409 17.4318 8.79545C16.9659 8.04545 16.3295 7.47159 15.5227 7.07386C14.7159 6.66477 13.8011 6.46023 12.7784 6.46023C11.7102 6.46023 10.7784 6.67614 9.98295 7.10795C9.1875 7.53977 8.57386 8.15909 8.14205 8.96591C7.71023 9.77273 7.49432 10.733 7.49432 11.8466H0.488636C0.488636 9.5625 1.00568 7.57955 2.03977 5.89773C3.07386 4.21591 4.52273 2.91477 6.38636 1.99432C8.25 1.07386 10.3977 0.613635 12.8295 0.613635C15.3295 0.613635 17.5057 1.05682 19.358 1.94318C21.2216 2.81818 22.6705 4.03409 23.7045 5.59091C24.7386 7.14773 25.2557 8.93182 25.2557 10.9432C25.2557 12.2614 24.9943 13.5625 24.4716 14.8466C23.9602 16.1307 23.0455 17.5568 21.7273 19.125C20.4091 20.6818 18.5511 22.5511 16.1534 24.733L11.0568 29.7273V29.9659H25.7159V36H0.829546Z" fill="#99E3C1"/>
</svg>
