<svg width="176" height="47" viewBox="0 0 176 47" fill="none" xmlns="http://www.w3.org/2000/svg">
<rect width="176" height="47" rx="23.5" fill="#44AE7D"/>
<path d="M63.4688 24.0312C63.5312 23.7188 63.8438 22.2812 64.4062 19.7188L66 12.7812L70.125 13.5312L69.375 17.0938L72.9375 17L73.125 11.9375L77.3438 12.0312L77.0625 16.9062L84.5625 16.7188V20.0938L77.0625 20.2812V23.75L82.7812 23.6562V26.9375H78.4688L77.0625 27.0312V30.2188H86.4375V33.5938L76.125 33.6875L68.3438 34.25L63.6562 34.7188L63.8438 30.6875L72.6562 30.4062L72.75 27.2188L67.2188 27.5938L67.4062 24.875L63.4688 24.0312ZM72.75 23.8438L72.8438 20.5625L68.5312 20.9375L67.875 24.0312L72.75 23.8438ZM89.9813 18.875L94.7625 18.5938V16.5312L88.7625 17.0938L88.95 14L98.1375 13.7188L98.5125 12.0312H102.45L102.075 13.8125H111.356L111.169 16.4375L105.919 16.3438L105.45 18.3125L111.45 18.2188L111.638 20.9375C110.013 20.875 108.513 20.8438 107.138 20.8438C105.263 20.8438 103.669 20.875 102.356 20.9375C100.106 21.0625 97.8875 21.25 95.7 21.5L98.4188 22.3438L97.95 23.375L100.388 23.2812L100.481 21.7812H104.325V23.0938H109.294V25.625H104.231V27.125L107.888 26.9375L107.981 29.75L104.138 29.6562V31.1562H110.981L110.794 33.875C107.606 33.875 105.013 33.9062 103.013 33.9688C100.763 34.0312 97.45 34.2188 93.075 34.5312L93.1688 31.3438L100.013 31.1562L100.106 29.75L96.075 30.125L96.2625 27.4062L100.2 27.2188L100.294 25.9062L96.6375 26.0938L95.1375 29.75L92.7 28.7188L92.325 34.7188L88.6688 34.4375L89.9813 18.875ZM95.2313 21.5L93.1688 21.7812L92.7938 26.8438L95.2313 21.5ZM101.606 18.4062L102.075 16.3438H98.5125L98.4188 18.5L101.606 18.4062Z" fill="white"/>
</svg>
