<svg width="147" height="107" viewBox="0 0 147 107" fill="none" xmlns="http://www.w3.org/2000/svg">
<path d="M118.83 45V39.6818L131.256 28.1761C132.313 27.1534 133.199 26.233 133.915 25.4148C134.642 24.5966 135.193 23.7955 135.568 23.0114C135.943 22.2159 136.131 21.358 136.131 20.4375C136.131 19.4148 135.898 18.5341 135.432 17.7955C134.966 17.0455 134.33 16.4716 133.523 16.0739C132.716 15.6648 131.801 15.4602 130.778 15.4602C129.71 15.4602 128.778 15.6761 127.983 16.108C127.188 16.5398 126.574 17.1591 126.142 17.9659C125.71 18.7727 125.494 19.733 125.494 20.8466H118.489C118.489 18.5625 119.006 16.5795 120.04 14.8977C121.074 13.2159 122.523 11.9148 124.386 10.9943C126.25 10.0739 128.398 9.61364 130.83 9.61364C133.33 9.61364 135.506 10.0568 137.358 10.9432C139.222 11.8182 140.67 13.0341 141.705 14.5909C142.739 16.1477 143.256 17.9318 143.256 19.9432C143.256 21.2614 142.994 22.5625 142.472 23.8466C141.96 25.1307 141.045 26.5568 139.727 28.125C138.409 29.6818 136.551 31.5511 134.153 33.733L129.057 38.7273V38.9659H143.716V45H118.83Z" fill="#99E3C1"/>
<path d="M131 58L131 106" stroke="#44AE7D" stroke-linecap="round" stroke-linejoin="round" stroke-dasharray="1 5"/>
<path d="M19.992 23.752L18.048 22.288C17.544 22.456 16.608 22.576 15.552 22.576C14.496 22.576 8.352 22.576 7.08 22.576C6.384 22.576 4.896 22.504 4.248 22.408V25.84C4.776 25.792 6.096 25.672 7.08 25.672C8.112 25.672 14.232 25.672 15.24 25.672C14.688 27.376 13.224 29.752 11.64 31.552C9.384 34.048 5.688 36.976 1.8 38.416L4.296 41.008C8.016 39.256 11.64 36.28 14.328 33.184C16.392 30.784 18.168 27.52 19.152 25.24C19.368 24.736 19.8 24.016 19.992 23.752ZM14.64 31.192L12.384 33.424C14.952 35.752 17.568 38.608 19.344 41.08L22.08 38.704C20.52 36.784 17.112 33.208 14.64 31.192ZM30.024 21.616V24.712C30.744 24.664 31.776 24.616 32.592 24.616C34.104 24.616 40.824 24.616 42.24 24.616C43.056 24.616 43.992 24.664 44.808 24.712V21.616C43.992 21.712 43.032 21.784 42.24 21.784C40.824 21.784 34.104 21.784 32.592 21.784C31.776 21.784 30.792 21.712 30.024 21.616ZM27.216 27.736V30.88C27.888 30.832 28.824 30.808 29.52 30.808C31.032 30.808 43.824 30.808 45.24 30.808C45.912 30.808 46.824 30.832 47.448 30.856V27.736C46.8 27.856 45.744 27.88 45.24 27.88C43.824 27.88 31.032 27.88 29.52 27.88C28.776 27.88 27.936 27.832 27.216 27.736ZM39.504 29.416L36.168 29.44C36.168 32.008 35.832 34.264 34.632 36.088C33.696 37.504 31.992 38.872 30.288 39.544L33.12 41.584C35.232 40.48 37.104 38.632 37.92 36.952C38.952 34.96 39.504 32.56 39.504 29.416ZM52.584 28.888V32.68C53.496 32.608 55.104 32.536 56.448 32.536C59.28 32.536 67.176 32.536 69.36 32.536C70.368 32.536 71.592 32.656 72.168 32.68V28.888C71.52 28.936 70.464 29.056 69.336 29.056C67.2 29.056 59.28 29.056 56.448 29.056C55.2 29.056 53.472 28.96 52.584 28.888ZM92.6272 21.592L90.6112 22.408C91.4992 23.656 92.0272 24.688 92.7472 26.2L94.8112 25.288C94.2832 24.184 93.2992 22.6 92.6272 21.592ZM95.9392 20.416L93.8993 21.28C94.7873 22.48 95.3632 23.416 96.1312 24.928L98.1952 24.016C97.6192 22.96 96.6832 21.376 95.9392 20.416ZM82.2112 21.112L80.4592 23.752C82.0432 24.64 84.5632 26.272 85.8832 27.208L87.6832 24.544C86.4352 23.68 83.7952 21.976 82.2112 21.112ZM77.7712 38.152L79.5712 41.32C81.6832 40.936 85.1392 39.736 87.5632 38.344C91.4992 36.088 94.8832 33.04 97.1153 29.728L95.2672 26.464C93.3472 29.896 90.0112 33.184 85.9312 35.464C83.3152 36.904 80.4352 37.696 77.7712 38.152ZM78.5152 26.584L76.7632 29.248C78.3952 30.088 80.8672 31.72 82.2352 32.656L83.9872 29.968C82.7632 29.104 80.1232 27.448 78.5152 26.584Z" fill="#99E3C1"/>
</svg>
