<svg width="176" height="47" viewBox="0 0 176 47" fill="none" xmlns="http://www.w3.org/2000/svg">
<rect width="176" height="47" rx="23.5" fill="#44AE7D"/>
<path d="M63.5625 16.25L65.3438 16.1562L66.1875 11.9375L69.4688 12.5L68.8125 16.0625H73.4062L73.5 18.6875H72.2812L71.1562 27.5938L73.125 28.1562L72.5625 31.4375L70.7812 30.875L70.2188 34.8125L66.5625 34.0625L67.3125 29.6562C66 29.2812 65.0938 28.875 64.5938 28.4375C63.9688 27.9375 63.7188 27.25 63.8438 26.375L64.7812 19.25L63.4688 19.4375L63.5625 16.25ZM68.0625 26.5625L69.1875 18.875L68.3438 18.9688L67.2188 26.2812L68.0625 26.5625ZM84.0938 11.8438L86.25 14.1875L81.4688 14.9375L81.2812 20.8438L86.3438 20.9375L86.4375 23.9375L81.2812 24.0312L81.375 31.0625H85.4062L85.5 33.875L73.875 34.7188V31.1562L77.5312 31.0625L77.8125 24.2188L72.375 24.9688L72.4688 20.9375L77.7188 20.8438L77.9062 15.5938L73.7812 16.3438L71.5312 13.3438L84.0938 11.8438ZM88.7625 19.8125V16.1562L90.2625 16.0625L90.9188 12.0312L93.9188 12.2188L93.3563 15.9688C93.9813 15.9062 94.4813 15.875 94.8563 15.875C95.4188 15.875 95.8563 16 96.1688 16.25C96.7938 16.75 97.0125 17.5625 96.825 18.6875L95.2313 28.625L96.5438 29L97.2 12.7812L97.2938 12.5938L111.45 11.8438V14.4688L102.263 15.0312L100.763 15.3125L100.388 20.8438L102.075 20.75L111.45 20.4688V22.9062L106.388 23.1875L107.419 25.0625L109.575 23.1875L111.544 25.3438L108.919 27.6875L111.731 32.6562L109.106 34.4375H108.825L107.606 32.2812L102.919 33.9688C102.169 34.2188 101.544 34.0938 101.044 33.5938C100.669 33.2188 100.513 32.5 100.575 31.4375L101.044 23.6562L100.388 23.75L100.013 30.875L99.9188 34.8125L96.2625 34.5312C96.5125 30.2812 96.575 28.5625 96.45 29.375L95.9813 32.2812L94.7625 31.9062L94.3875 34.9062L90.825 33.875L91.4813 30.875C90.3563 30.4375 89.6375 30 89.325 29.5625C88.825 28.8125 88.6688 27.625 88.8563 26L89.7 19.7188L88.7625 19.8125ZM92.0438 27.6875L93.5438 19.25L92.7938 19.3438L92.2313 22.9062L91.6688 27.5938L92.0438 27.6875ZM110.419 16.1562L110.513 18.7812L103.106 19.3438L101.325 19.625V16.4375L110.419 16.1562ZM106.2 29.4688L104.419 26.375L104.231 30.125L106.2 29.4688Z" fill="white"/>
</svg>
