<svg width="98" height="22" viewBox="0 0 98 22" fill="none" xmlns="http://www.w3.org/2000/svg">
<path d="M18.992 3.752L17.048 2.288C16.544 2.456 15.608 2.576 14.552 2.576C13.496 2.576 7.352 2.576 6.08 2.576C5.384 2.576 3.896 2.504 3.248 2.408V5.84C3.776 5.792 5.096 5.672 6.08 5.672C7.112 5.672 13.232 5.672 14.24 5.672C13.688 7.376 12.224 9.752 10.64 11.552C8.384 14.048 4.688 16.976 0.8 18.416L3.296 21.008C7.016 19.256 10.64 16.28 13.328 13.184C15.392 10.784 17.168 7.52 18.152 5.24C18.368 4.736 18.8 4.016 18.992 3.752ZM13.64 11.192L11.384 13.424C13.952 15.752 16.568 18.608 18.344 21.08L21.08 18.704C19.52 16.784 16.112 13.208 13.64 11.192ZM29.024 1.616V4.712C29.744 4.664 30.776 4.616 31.592 4.616C33.104 4.616 39.824 4.616 41.24 4.616C42.056 4.616 42.992 4.664 43.808 4.712V1.616C42.992 1.712 42.032 1.784 41.24 1.784C39.824 1.784 33.104 1.784 31.592 1.784C30.776 1.784 29.792 1.712 29.024 1.616ZM26.216 7.736V10.88C26.888 10.832 27.824 10.808 28.52 10.808C30.032 10.808 42.824 10.808 44.24 10.808C44.912 10.808 45.824 10.832 46.448 10.856V7.736C45.8 7.856 44.744 7.88 44.24 7.88C42.824 7.88 30.032 7.88 28.52 7.88C27.776 7.88 26.936 7.832 26.216 7.736ZM38.504 9.416L35.168 9.44C35.168 12.008 34.832 14.264 33.632 16.088C32.696 17.504 30.992 18.872 29.288 19.544L32.12 21.584C34.232 20.48 36.104 18.632 36.92 16.952C37.952 14.96 38.504 12.56 38.504 9.416ZM51.584 8.888V12.68C52.496 12.608 54.104 12.536 55.448 12.536C58.28 12.536 66.176 12.536 68.36 12.536C69.368 12.536 70.592 12.656 71.168 12.68V8.888C70.52 8.936 69.464 9.056 68.336 9.056C66.2 9.056 58.28 9.056 55.448 9.056C54.2 9.056 52.472 8.96 51.584 8.888ZM91.6272 1.592L89.6112 2.408C90.4992 3.656 91.0272 4.688 91.7472 6.2L93.8112 5.288C93.2832 4.184 92.2992 2.6 91.6272 1.592ZM94.9392 0.415999L92.8993 1.28C93.7873 2.48 94.3632 3.416 95.1312 4.928L97.1952 4.016C96.6192 2.96 95.6832 1.376 94.9392 0.415999ZM81.2112 1.112L79.4592 3.752C81.0432 4.64 83.5632 6.272 84.8832 7.208L86.6832 4.544C85.4352 3.68 82.7952 1.976 81.2112 1.112ZM76.7712 18.152L78.5712 21.32C80.6832 20.936 84.1392 19.736 86.5632 18.344C90.4992 16.088 93.8832 13.04 96.1153 9.728L94.2672 6.464C92.3472 9.896 89.0112 13.184 84.9312 15.464C82.3152 16.904 79.4352 17.696 76.7712 18.152ZM77.5152 6.584L75.7632 9.248C77.3952 10.088 79.8672 11.72 81.2352 12.656L82.9872 9.968C81.7632 9.104 79.1232 7.448 77.5152 6.584Z" fill="#99E3C1"/>
</svg>
