<svg width="175" height="47" viewBox="0 0 175 47" fill="none" xmlns="http://www.w3.org/2000/svg">
<rect width="175" height="47" rx="23.5" fill="#44AE7D"/>
<path d="M53 26.1875L56.2812 27.3125L54.2188 33.9688L50.375 32.2812L53 26.1875ZM53.6562 12.125L67.625 12.0312C69 12.0312 69.9375 12.2812 70.4375 12.7812C71.125 13.4688 71.5 14.5 71.5625 15.875L71.75 23.375C67.625 23.3125 63.6875 23.3125 59.9375 23.375C58.375 23.375 55.8438 23.4688 52.3438 23.6562L53.6562 12.125ZM60.0312 20.6562L60.2188 18.875L57.0312 19.0625L56.8438 20.8438L60.0312 20.6562ZM61.4375 25.8125L61.25 30.9688L63.9688 31.0625L64.1562 28.7188L68.2812 29.375C68.2812 31.3125 68.1562 32.5938 67.9062 33.2188C67.6562 33.9062 67.0312 34.375 66.0312 34.625C65.2188 34.8125 64.25 34.875 63.125 34.8125L60.5938 34.7188C59.4062 34.6562 58.5938 34.5312 58.1562 34.3438C57.4062 33.9688 57.0625 33 57.125 31.4375L57.4062 25.9062L61.4375 25.8125ZM60.3125 16.5312L60.4062 16.4375L60.5 14.8438L57.4062 14.9375L57.2188 16.5312H60.3125ZM62.6562 27.6875C62.1562 27.125 61.9688 26.5 62.0938 25.8125C62.1562 25 62.5 24.4062 63.125 24.0312C63.8125 23.5938 64.5625 23.5625 65.375 23.9375C66.375 24.375 66.7812 25.1875 66.5938 26.375C66.5312 26.9375 66.2812 27.4375 65.8438 27.875C65.4062 28.3125 64.9062 28.5312 64.3438 28.5312C63.7188 28.5312 63.1562 28.25 62.6562 27.6875ZM67.0625 20.75V18.9688L63.7812 18.7812V20.8438L67.0625 20.75ZM67.0625 16.5312V14.75H64.0625L63.875 16.5312H67.0625ZM69.4062 31.625C68.7188 31.1875 68.375 30.5938 68.375 29.8438C68.375 28.4062 68.9688 27.5938 70.1562 27.4062C70.8438 27.2812 71.4688 27.4062 72.0312 27.7812C72.5938 28.1562 72.9375 28.625 73.0625 29.1875C73.1875 29.8125 73.125 30.375 72.875 30.875C72.5625 31.5 72.0312 31.875 71.2812 32C70.5312 32.125 69.9062 32 69.4062 31.625ZM78.4813 24.0312L75.8563 24.5938L75.7625 21.2188L80.2625 20.9375L80.9188 19.8125L77.9188 20.0938L78.1063 16.8125L82.7 16.7188L83.2625 15.7812L75.8563 16.4375L75.7625 13.25L84.8563 13.0625L85.6063 11.8438L89.7313 12.0312L89.2625 12.9688H98.6375V15.5L87.575 15.7812L87.0125 16.7188L96.3875 16.625L96.575 19.25L85.4188 19.5312L84.7625 20.6562L98.5438 20.4688L98.6375 23.1875H94.4188L98.7313 27.0312L96.7625 30.5L93.95 27.875L94.6063 33.9688L84.1063 34.5312L79.8875 34.7188L80.3563 28.3438L78.95 31.0625L75.6688 29.1875L78.4813 24.0312ZM90.575 24.5938L89.075 23.1875L83.075 23.4688L82.4188 24.7812L90.575 24.5938ZM90.7625 31.4375V30.3125L83.9188 30.5V31.625L90.7625 31.4375ZM90.575 27.9688L90.4813 26.9375L84.1063 27.125L84.0125 28.0625L90.575 27.9688ZM123.65 32.0938C123.65 32.7812 123.4 33.3438 122.9 33.7812C122.4 34.2188 121.713 34.5 120.838 34.625C120.338 34.6875 119.463 34.6875 118.213 34.625L117.838 31.4375L119.806 31.3438L119.9 26.6562L116.525 26.8438L116.338 34.7188H112.681L112.963 29.2812H109.963L112.681 32.1875L109.775 34.3438L107.15 30.875L108.556 29.375L105.369 29.6562L106.681 30.5938L106.588 30.9688L103.681 34.7188H103.4L100.869 32.75L102.931 30.0312L101.15 30.2188L101.056 27.0312L102.744 26.8438L103.025 17.75L100.963 17.9375V15.0312L103.213 14.8438L103.306 12.125H106.306L106.213 14.5625L108.369 14.4688L108.463 12.125H111.369V14.375H112.963V17H111.369V26.2812H112.869L112.963 29L114.088 12.9688C116.338 12.5312 118.275 12.2812 119.9 12.2188C120.713 12.1562 121.338 12.2188 121.775 12.4062C122.088 12.5312 122.4 12.7812 122.713 13.1562C123.025 13.5312 123.213 13.875 123.275 14.1875C123.4 14.5625 123.494 17.9688 123.556 24.4062L123.65 32.0938ZM108.275 26.375V24.9688L105.838 25.0625V26.5625L108.275 26.375ZM108.275 22.3438V20.8438L105.838 20.9375V22.5312L108.275 22.3438ZM108.275 18.5V17.1875L106.025 17.375L105.931 18.6875L108.275 18.5ZM119.9 23.375V21.125L116.9 21.2188L116.806 23.6562L119.9 23.375ZM119.9 18.2188L119.806 15.6875L117.275 15.875L116.994 18.3125L119.9 18.2188Z" fill="white"/>
</svg>
