<svg width="28" height="37" viewBox="0 0 28 37" fill="none" xmlns="http://www.w3.org/2000/svg">
<path d="M13.733 36.4773C11.1875 36.4773 8.92045 36.0398 6.93182 35.1648C4.95455 34.2784 3.39205 33.0625 2.24432 31.517C1.10795 29.9602 0.522727 28.1648 0.488636 26.1307H7.92045C7.96591 26.983 8.24432 27.733 8.75568 28.3807C9.27841 29.017 9.97159 29.5114 10.8352 29.8636C11.6989 30.2159 12.6705 30.392 13.75 30.392C14.875 30.392 15.8693 30.1932 16.733 29.7955C17.5966 29.3977 18.2727 28.8466 18.7614 28.142C19.25 27.4375 19.4943 26.625 19.4943 25.7045C19.4943 24.7727 19.233 23.9489 18.7102 23.233C18.1989 22.5057 17.4602 21.9375 16.4943 21.5284C15.5398 21.1193 14.4034 20.9148 13.0852 20.9148H9.82955V15.4943H13.0852C14.1989 15.4943 15.1818 15.3011 16.0341 14.9148C16.8977 14.5284 17.5682 13.9943 18.0455 13.3125C18.5227 12.6193 18.7614 11.8125 18.7614 10.892C18.7614 10.017 18.5511 9.25 18.1307 8.59091C17.7216 7.92045 17.142 7.39773 16.392 7.02273C15.6534 6.64773 14.7898 6.46023 13.8011 6.46023C12.8011 6.46023 11.8864 6.64205 11.0568 7.00568C10.2273 7.35795 9.5625 7.86364 9.0625 8.52273C8.5625 9.18182 8.29545 9.95454 8.26136 10.8409H1.1875C1.22159 8.82954 1.79545 7.05682 2.90909 5.52273C4.02273 3.98864 5.52273 2.78977 7.40909 1.92614C9.30682 1.05114 11.4489 0.613635 13.8352 0.613635C16.2443 0.613635 18.3523 1.05114 20.1591 1.92614C21.9659 2.80114 23.3693 3.98295 24.3693 5.47159C25.3807 6.94886 25.8807 8.60795 25.8693 10.4489C25.8807 12.4034 25.2727 14.0341 24.0455 15.3409C22.8295 16.6477 21.2443 17.4773 19.2898 17.8295V18.1023C21.858 18.4318 23.8125 19.3239 25.1534 20.7784C26.5057 22.2216 27.1761 24.0284 27.1648 26.1989C27.1761 28.1875 26.6023 29.9545 25.4432 31.5C24.2955 33.0455 22.7102 34.2614 20.6875 35.1477C18.6648 36.0341 16.3466 36.4773 13.733 36.4773Z" fill="#99E3C1"/>
</svg>
