<svg width="601" height="47" viewBox="0 0 601 47" fill="none" xmlns="http://www.w3.org/2000/svg">
<path d="M0.75 41.75L4.5 24.5L4.875 23.1875L12 24.6875L9.5625 43.25L0.75 41.75ZM1.3125 14.9375L19.5 14.5625V10.4375L5.625 12.125L5.8125 4.4375H19.6875L19.875 1.0625H28.3125L28.125 4.25L42.5625 4.625V10.4375H36L28.125 10.25L27.9375 14.1875H46.6875L46.875 20.1875H34.875V23.75L40.875 23L46.6875 38.1875L47.0625 40.25L39.75 42.5L35.4375 31.0625C35.6875 34.4375 35.8125 37.625 35.8125 40.625C35.8125 43.625 34.75 45.5 32.625 46.25C31.25 46.75 28.875 46.875 25.5 46.625L22.875 38.9375H27.1875L27 20.1875H21.375L20.4375 39.5V46.25L12 46.0625L13.6875 20.9375L1.3125 22.25V14.9375ZM51.9 8.75L57.9 8.5625L59.2125 2.5625L67.65 3.3125L66.3375 8.375C70.4625 8.25 74.775 8.1875 79.275 8.1875C82.775 8.1875 87.4625 8.375 93.3375 8.75V14.5625C88.8375 14.1875 85.65 14 83.775 14C80.15 14 76.65 14.125 73.275 14.375L64.8375 14.9375L64.275 19.25C68.275 18 71.2125 17.3125 73.0875 17.1875C81.3375 16.4375 86.8375 18.25 89.5875 22.625C90.7125 24.375 91.275 26.4375 91.275 28.8125C91.275 31.1875 90.7125 33.3125 89.5875 35.1875C87.8375 38.4375 84.9 40.9375 80.775 42.6875C78.15 43.8125 74.5875 44.5625 70.0875 44.9375L67.4625 37.625C72.5875 37.125 76.3375 36 78.7125 34.25C81.4625 32.375 82.65 30.375 82.275 28.25C81.9 26 80.0875 24.75 76.8375 24.5C74.0875 24.25 71.15 24.75 68.025 26L60.15 29C58.775 29.5 57.525 29.25 56.4 28.25C55.15 27.125 54.7125 25.5625 55.0875 23.5625L56.4 15.6875L51.7125 16.4375L51.9 8.75ZM103.238 24.5L100.8 20L106.425 17.375L109.05 23.1875L114.113 22.0625L114.488 16.0625L120.863 16.4375L120.488 21.3125C123.113 21.4375 125.113 22 126.488 23C128.613 24.5 129.55 26.8125 129.3 29.9375C129.175 31.4375 128.613 33 127.613 34.625C126.988 35.625 125.863 37.0625 124.238 38.9375L119.175 35.1875C119.925 34.3125 120.613 33.5 121.238 32.75C122.363 31.375 122.863 30.1875 122.738 29.1875C122.613 28.0625 121.613 27.4375 119.738 27.3125L119.363 31.4375L113.55 31.0625L113.738 27.875L111.488 28.625L117.3 42.5L111.863 45.125L105.863 30.125L100.8 32.5625L97.8 26.375L103.238 24.5ZM143.325 17.375C145.7 12.25 148.012 7.375 150.262 2.75L157.387 5.5625C155.512 9.1875 154.262 11.625 153.637 12.875C152.637 15.25 151.7 17.5625 150.825 19.8125C152.7 18.5625 154.262 17.8125 155.512 17.5625C157.262 17.0625 158.95 17.25 160.575 18.125C161.95 18.875 162.887 19.875 163.387 21.125C163.887 22.375 163.887 24.0625 163.387 26.1875C162.887 28.3125 162.575 29.9375 162.45 31.0625C162.2 33.3125 162.762 34.625 164.137 35C165.262 35.375 166.575 35 168.075 33.875C168.95 33.25 169.95 32.375 171.075 31.25L175.762 37.8125C172.512 41.0625 169.637 43.0625 167.137 43.8125C163.637 44.8125 160.512 44.6875 157.762 43.4375C156.012 42.6875 154.825 41.3125 154.2 39.3125C153.575 37.3125 153.45 35.25 153.825 33.125L154.575 29.375C154.95 27.375 154.637 26.1875 153.637 25.8125C152.512 25.4375 151.012 26 149.137 27.5C148.387 28.125 147.45 29.125 146.325 30.5L141.637 44.1875L134.325 41.1875C138.325 29.6875 141.325 21.75 143.325 17.375ZM186.975 17.9375L180.413 18.875L180.788 11L189.225 10.4375L191.85 2.5625L198.975 3.5L196.538 10.25H204.413C206.288 10.25 207.788 10.75 208.913 11.75C209.913 12.625 210.538 14.75 210.788 18.125C210.913 20.125 210.975 22.5 210.975 25.25V32.1875C210.975 35.8125 210.538 38.5625 209.663 40.4375C208.413 43.1875 206.163 44.5625 202.913 44.5625H195.225L193.913 37.4375L203.288 37.0625C203.538 33.4375 203.663 30.3125 203.663 27.6875C203.663 24.6875 203.475 21 203.1 16.625L194.663 17.1875L187.913 44.375L180.225 41.75L186.975 17.9375ZM214.35 3.125L216.975 10.625L212.288 11.9375L209.475 4.0625L214.35 3.125ZM220.163 11.375C220.788 14.625 221.288 17.625 221.663 20.375C222.038 22.5 222.413 26.375 222.788 32L215.475 33.125L212.288 12.5L220.163 11.375ZM219.6 2L222.6 9.6875L217.913 10.4375L215.288 3.125L219.6 2ZM246.938 4.625C252.188 4.5 259.562 4.5625 269.062 4.8125L269.438 11L262.688 11.1875C257.562 12.9375 253.75 14.75 251.25 16.625C246 20.625 243.188 24.625 242.812 28.625C242.438 32.25 243.875 34.5625 247.125 35.5625C249.25 36.1875 252 36.1875 255.375 35.5625C257.125 35.1875 260.25 34.375 264.75 33.125L267.375 40.0625C259.125 42.9375 252.625 44.1875 247.875 43.8125C242.25 43.4375 238.312 41.375 236.062 37.625C234.188 34.5 233.562 31 234.188 27.125C234.812 23.5 236.375 20.3125 238.875 17.5625C240.25 16.0625 242.5 14.25 245.625 12.125C241.375 12.5 238.562 12.75 237.188 12.875C235.938 13 232.938 13.5625 228.188 14.5625L227.625 5.5625C235.625 5.0625 242.062 4.75 246.938 4.625ZM260.625 15.5L263.812 24.125L259.5 26L256.312 16.625L260.625 15.5ZM266.062 14L269.25 21.875L264.938 23.5625L261.938 15.125L266.062 14ZM282.525 30.6875C283.775 33.6875 285.337 35.625 287.212 36.5C289.087 37.375 292.087 37.6875 296.212 37.4375C300.837 37.1875 304.15 36.5625 306.15 35.5625C307.275 35.0625 308.775 33.75 310.65 31.625L315.525 37.4375C313.9 39.3125 312.525 40.6875 311.4 41.5625C309.9 42.6875 308.15 43.5 306.15 44C303.4 44.625 299.587 44.875 294.712 44.75C290.837 44.625 287.65 44.1875 285.15 43.4375C282.4 42.5625 280.212 41.25 278.587 39.5C277.087 37.875 275.65 34.9375 274.275 30.6875H282.525ZM293.775 18.125L292.65 14.75L276.712 17L275.587 9.6875L290.587 8.5625L289.087 4.25L296.962 3.5L298.275 8L309.525 7.625L309.9 13.4375L300.15 14L301.275 17.75L313.462 17.375L314.212 23.375L303.15 24.125L304.65 29L297.15 30.3125L295.65 24.875C291.65 25.25 288.65 25.5625 286.65 25.8125C283.525 26.3125 279.837 26.9375 275.587 27.6875L274.65 20L293.775 18.125ZM340.05 9.875L326.362 11.9375L326.55 4.4375L345.112 2.9375C346.862 2.8125 348.237 2.8125 349.237 2.9375C350.362 3.0625 351.237 3.625 351.862 4.625C352.487 5.75 352.612 7 352.237 8.375C351.862 9.75 351.175 10.75 350.175 11.375L342.862 16.4375C345.737 16.0625 348.175 15.9375 350.175 16.0625C352.55 16.3125 354.487 17.125 355.987 18.5C357.987 20.25 359.175 22.5625 359.55 25.4375C359.925 28.0625 359.612 30.625 358.612 33.125C356.987 37.25 353.987 40.3125 349.612 42.3125C346.612 43.6875 343.8 44.5 341.175 44.75C338.425 45 335.862 44.75 333.487 44C329.987 42.875 328.05 40.75 327.675 37.625C327.3 34.375 328.425 31.6875 331.05 29.5625C332.675 28.3125 334.612 27.5 336.862 27.125C339.487 26.75 341.987 26.875 344.362 27.5C346.987 28.25 348.675 30 349.425 32.75C351.175 30.875 351.925 29.0625 351.675 27.3125C351.3 24.9375 349.987 23.375 347.737 22.625C345.862 22 343.487 22.0625 340.612 22.8125C337.612 23.5625 334.737 24.625 331.987 26C330.237 26.875 327.987 28.125 325.237 29.75L320.362 22.625L340.05 9.875ZM337.612 37.8125C339.362 38.3125 341.425 38 343.8 36.875C343.175 35.25 342.3 34.1875 341.175 33.6875C340.175 33.1875 339.112 33.0625 337.987 33.3125C336.862 33.5625 336.05 34.125 335.55 35C334.925 36.25 335.612 37.1875 337.612 37.8125ZM385.95 17.5625L385.388 14.1875L367.013 16.0625V8.5625L384.075 7.4375L382.95 3.125L391.2 2.75L392.138 7.25L403.95 7.4375V13.625L393.075 13.8125L393.638 17.1875L406.013 17.375L406.763 23.375H394.388L394.763 27.125L404.888 29L403.575 36.3125L395.138 34.625C394.638 37.375 393.638 39.5 392.138 41C389.138 44 384.825 45.5 379.2 45.5C375.95 45.5 373.325 44.5 371.325 42.5C369.325 40.5 368.388 37.9375 368.513 34.8125C368.513 32.8125 369.325 31 370.95 29.375C372.95 27.25 376.45 26.1875 381.45 26.1875C383.075 26.1875 384.95 26.25 387.075 26.375L386.7 24.125C380.45 24.5 375.513 24.9375 371.888 25.4375C370.138 25.6875 367.7 26.125 364.575 26.75V19.0625L385.95 17.5625ZM382.013 38C384.638 37.75 386.388 36.1875 387.263 33.3125C384.763 32.8125 383.013 32.5625 382.013 32.5625C380.138 32.4375 378.763 32.75 377.888 33.5C377.263 34 376.888 34.625 376.763 35.375C376.638 36.125 376.888 36.75 377.513 37.25C378.513 38 380.013 38.25 382.013 38ZM430.913 4.625C436.163 4.5 443.538 4.5625 453.038 4.8125L453.413 11L446.663 11.1875C441.538 12.9375 437.725 14.75 435.225 16.625C429.975 20.625 427.163 24.625 426.788 28.625C426.413 32.25 427.85 34.5625 431.1 35.5625C433.225 36.1875 435.975 36.1875 439.35 35.5625C441.1 35.1875 444.225 34.375 448.725 33.125L451.35 40.0625C443.1 42.9375 436.6 44.1875 431.85 43.8125C426.225 43.4375 422.288 41.375 420.038 37.625C418.163 34.5 417.538 31 418.163 27.125C418.788 23.5 420.35 20.3125 422.85 17.5625C424.225 16.0625 426.475 14.25 429.6 12.125C425.35 12.5 422.538 12.75 421.163 12.875C419.913 13 416.913 13.5625 412.163 14.5625L411.6 5.5625C419.6 5.0625 426.038 4.75 430.913 4.625ZM444.6 15.5L447.788 24.125L443.475 26L440.288 16.625L444.6 15.5ZM450.038 14L453.225 21.875L448.913 23.5625L445.913 15.125L450.038 14ZM483.375 38.5625C486.5 36.4375 488.562 34.4375 489.562 32.5625C490.938 30.3125 491.625 27.5 491.625 24.125C491.625 20.625 490.875 17.875 489.375 15.875C487.875 13.875 486 12.5 483.75 11.75C481.375 11 478.938 10.9375 476.438 11.5625C472.562 12.6875 469.625 14.9375 467.625 18.3125C466 21.0625 465.312 23.875 465.562 26.75C465.688 28 466 29.0625 466.5 29.9375C467.25 31.1875 468.125 31.625 469.125 31.25C470 31 471.25 30.1875 472.875 28.8125C474.125 27.8125 475.062 27 475.688 26.375C477.938 24.25 480.375 21.5625 483 18.3125L488.438 23.1875C485.438 27.1875 482.875 30.25 480.75 32.375C477.625 35.5 474.438 37.875 471.188 39.5C469.188 40.5 467.25 40.8125 465.375 40.4375C463.25 40.0625 461.625 38.9375 460.5 37.0625C459.125 34.9375 458.375 32 458.25 28.25C458.125 25 458.5 22 459.375 19.25C460.75 14.75 463.188 11.1875 466.688 8.5625C470.688 5.5625 475.062 4.0625 479.812 4.0625C485.812 4.0625 490.688 6.1875 494.438 10.4375C496.562 12.8125 498 15.75 498.75 19.25C499.5 22.75 499.562 26.125 498.938 29.375C498.438 31.875 497.625 34.25 496.5 36.5C495.375 38.75 493.312 41.3125 490.312 44.1875L483.375 38.5625ZM506.962 34.0625C507.462 32.3125 508.15 29 509.025 24.125L504.525 25.0625L504.15 17.9375C505.9 17.6875 507.525 17.5 509.025 17.375C511.4 17.25 513.15 17.5 514.275 18.125C515.15 18.625 515.587 19.9375 515.587 22.0625C515.587 23.1875 515.462 24.875 515.212 27.125C514.962 29.125 514.4 32 513.525 35.75L517.275 37.625L518.212 18.5L520.837 18.3125L522.525 2.75L538.275 1.4375C539.9 1.3125 541.025 1.3125 541.65 1.4375C542.775 1.6875 543.587 2.0625 544.087 2.5625C545.087 3.5625 545.587 5.625 545.587 8.75C545.587 10.875 545.525 13.5 545.4 16.625C546.9 16.875 547.9 17.375 548.4 18.125C549.025 19 549.275 20.9375 549.15 23.9375L548.962 29.75C548.837 33 548.65 35.1875 548.4 36.3125C547.9 38.1875 546.4 39.25 543.9 39.5C542.9 39.625 541.462 39.625 539.587 39.5L537.712 34.0625L541.462 33.6875L541.65 22.25C536.525 22.5 531.025 22.9375 525.15 23.5625L524.025 38H518.962C523.587 39.5 527.087 40.25 529.462 40.25H549.9L549.15 47L534.9 46.8125C530.4 46.8125 526.712 46.5625 523.837 46.0625C521.087 45.6875 517.025 44.3125 511.65 41.9375L510.15 46.8125L503.962 43.4375C505.212 39.9375 506.212 36.8125 506.962 34.0625ZM509.962 0.875L518.962 7.8125L513.525 13.25L504.712 6.125L509.962 0.875ZM526.837 24.6875C529.837 24.1875 532.525 23.875 534.9 23.75C537.775 23.625 539.4 24.5625 539.775 26.5625C540.025 27.6875 540.087 29.0625 539.962 30.6875C539.962 31.3125 539.712 32.25 539.212 33.5L526.275 34.0625L526.837 24.6875ZM529.275 17.5625L530.212 10.625L538.837 9.6875V6.875L528.712 7.4375L527.4 17.75L529.275 17.5625ZM534.337 29.375L534.525 27.875L531.337 28.0625V29.5625L534.337 29.375ZM538.837 14.5625H535.837L535.275 17.1875C536.775 17.0625 537.962 16.9375 538.837 16.8125V14.5625ZM560.737 19.625L554.55 20.1875L554.737 14.1875L561.487 13.8125L561.675 8.9375L557.362 10.0625L554.362 3.5L571.8 0.6875L574.612 5.375V5.75L568.425 6.875L568.05 13.4375H572.55V18.875H568.8L573.487 22.625L573.3 23.375L582.112 22.8125L600.112 22.4375L599.925 27.3125L589.612 27.5L589.237 31.25H597.675V36.3125L589.05 36.6875V39.3125H600.3L600.487 39.6875V45.125L583.612 45.3125L571.425 46.4375L570.675 46.625L571.05 39.3125H582.112V36.875L574.237 37.625L575.362 31.25H582.3L582.487 28.0625L572.737 29.375L573.112 23.9375L570.675 29.375H570.487L567.675 26.75L567.487 46.625H559.8L560.55 31.0625L556.8 36.875L556.612 36.6875L554.362 29.75L560.737 19.625ZM576.112 1.8125C579.487 1.4375 582.237 1.1875 584.362 1.0625C588.362 0.8125 591.612 1 594.112 1.625C595.612 2 596.675 2.5625 597.3 3.3125C598.55 4.6875 599.112 7 598.987 10.25V19.8125C594.112 19.9375 590.175 20.0625 587.175 20.1875C584.05 20.4375 579.675 20.875 574.05 21.5L576.112 1.8125ZM591.112 14.1875L591.3 7.8125L582.675 8L582.3 14.375L591.112 14.1875Z" fill="#44AE7D"/>
</svg>
