<svg width="192" height="73" viewBox="0 0 192 73" fill="none" xmlns="http://www.w3.org/2000/svg">
<rect width="192" height="73" rx="36.5" fill="#44AE7D"/>
<path d="M44.5 40.2812L49.4219 41.9688L46.3281 51.9531L40.5625 49.4219L44.5 40.2812ZM45.4844 19.1875L66.4375 19.0469C68.5 19.0469 69.9062 19.4219 70.6562 20.1719C71.6875 21.2031 72.25 22.75 72.3438 24.8125L72.625 36.0625C66.4375 35.9688 60.5312 35.9688 54.9062 36.0625C52.5625 36.0625 48.7656 36.2031 43.5156 36.4844L45.4844 19.1875ZM55.0469 31.9844L55.3281 29.3125L50.5469 29.5938L50.2656 32.2656L55.0469 31.9844ZM57.1562 39.7188L56.875 47.4531L60.9531 47.5938L61.2344 44.0781L67.4219 45.0625C67.4219 47.9688 67.2344 49.8906 66.8594 50.8281C66.4844 51.8594 65.5469 52.5625 64.0469 52.9375C62.8281 53.2188 61.375 53.3125 59.6875 53.2188L55.8906 53.0781C54.1094 52.9844 52.8906 52.7969 52.2344 52.5156C51.1094 51.9531 50.5938 50.5 50.6875 48.1562L51.1094 39.8594L57.1562 39.7188ZM55.4688 25.7969L55.6094 25.6562L55.75 23.2656L51.1094 23.4062L50.8281 25.7969H55.4688ZM58.9844 42.5312C58.2344 41.6875 57.9531 40.75 58.1406 39.7188C58.2344 38.5 58.75 37.6094 59.6875 37.0469C60.7188 36.3906 61.8438 36.3438 63.0625 36.9062C64.5625 37.5625 65.1719 38.7812 64.8906 40.5625C64.7969 41.4062 64.4219 42.1562 63.7656 42.8125C63.1094 43.4688 62.3594 43.7969 61.5156 43.7969C60.5781 43.7969 59.7344 43.375 58.9844 42.5312ZM65.5938 32.125V29.4531L60.6719 29.1719V32.2656L65.5938 32.125ZM65.5938 25.7969V23.125H61.0938L60.8125 25.7969H65.5938ZM69.1094 48.4375C68.0781 47.7812 67.5625 46.8906 67.5625 45.7656C67.5625 43.6094 68.4531 42.3906 70.2344 42.1094C71.2656 41.9219 72.2031 42.1094 73.0469 42.6719C73.8906 43.2344 74.4062 43.9375 74.5938 44.7812C74.7812 45.7188 74.6875 46.5625 74.3125 47.3125C73.8438 48.25 73.0469 48.8125 71.9219 49C70.7969 49.1875 69.8594 49 69.1094 48.4375ZM82.7219 37.0469L78.7844 37.8906L78.6437 32.8281L85.3937 32.4062L86.3781 30.7188L81.8781 31.1406L82.1594 26.2188L89.05 26.0781L89.8937 24.6719L78.7844 25.6562L78.6437 20.875L92.2844 20.5938L93.4094 18.7656L99.5969 19.0469L98.8937 20.4531H112.956V24.25L96.3625 24.6719L95.5187 26.0781L109.581 25.9375L109.862 29.875L93.1281 30.2969L92.1437 31.9844L112.816 31.7031L112.956 35.7812H106.628L113.097 41.5469L110.144 46.75L105.925 42.8125L106.909 51.9531L91.1594 52.7969L84.8312 53.0781L85.5344 43.5156L83.425 47.5938L78.5031 44.7812L82.7219 37.0469ZM100.862 37.8906L98.6125 35.7812L89.6125 36.2031L88.6281 38.1719L100.862 37.8906ZM101.144 48.1562V46.4688L90.8781 46.75V48.4375L101.144 48.1562ZM100.862 42.9531L100.722 41.4062L91.1594 41.6875L91.0187 43.0938L100.862 42.9531ZM150.475 49.1406C150.475 50.1719 150.1 51.0156 149.35 51.6719C148.6 52.3281 147.569 52.75 146.256 52.9375C145.506 53.0312 144.194 53.0312 142.319 52.9375L141.756 48.1562L144.709 48.0156L144.85 40.9844L139.787 41.2656L139.506 53.0781H134.022L134.444 44.9219H129.944L134.022 49.2812L129.662 52.5156L125.725 47.3125L127.834 45.0625L123.053 45.4844L125.022 46.8906L124.881 47.4531L120.522 53.0781H120.1L116.303 50.125L119.397 46.0469L116.725 46.3281L116.584 41.5469L119.116 41.2656L119.537 27.625L116.444 27.9062V23.5469L119.819 23.2656L119.959 19.1875H124.459L124.319 22.8438L127.553 22.7031L127.694 19.1875H132.053V22.5625H134.444V26.5H132.053V40.4219H134.303L134.444 44.5L136.131 20.4531C139.506 19.7969 142.412 19.4219 144.85 19.3281C146.069 19.2344 147.006 19.3281 147.662 19.6094C148.131 19.7969 148.6 20.1719 149.069 20.7344C149.537 21.2969 149.819 21.8125 149.912 22.2812C150.1 22.8438 150.241 27.9531 150.334 37.6094L150.475 49.1406ZM127.412 40.5625V38.4531L123.756 38.5938V40.8438L127.412 40.5625ZM127.412 34.5156V32.2656L123.756 32.4062V34.7969L127.412 34.5156ZM127.412 28.75V26.7812L124.037 27.0625L123.897 29.0312L127.412 28.75ZM144.85 36.0625V32.6875L140.35 32.8281L140.209 36.4844L144.85 36.0625ZM144.85 28.3281L144.709 24.5312L140.912 24.8125L140.491 28.4688L144.85 28.3281Z" fill="white"/>
</svg>
