<svg width="315" height="153" viewBox="0 0 315 153" fill="none" xmlns="http://www.w3.org/2000/svg">
<g filter="url(#filter0_d_689_1200)">
<rect y="0.225586" width="315" height="146" rx="30" fill="white" shape-rendering="crispEdges"/>
<path d="M52.652 52.2256H61.004V51.0256H57.676V40.4816H56.572C55.804 40.9616 54.812 41.1056 53.5 41.3136V42.2576H56.204V51.0256H52.652V52.2256ZM69.388 52.2256H77.74V50.9936H73.612C73.004 50.9936 72.396 51.0256 71.756 51.0736C74.764 48.6256 77.18 46.2256 77.18 43.8416C77.18 41.6336 75.628 40.2896 73.308 40.2896C71.644 40.2896 70.3 41.1216 69.196 42.3856L70.124 43.2336C71.052 42.1776 71.996 41.5056 73.244 41.5056C74.812 41.5056 75.724 42.5136 75.724 43.8896C75.724 45.9216 73.084 48.4176 69.388 51.3776V52.2256ZM89.836 46.6096C90.956 47.7136 91.996 48.3056 93.452 48.3056C95.132 48.3056 96.604 47.3456 97.628 45.5056L96.492 44.8976C95.82 46.1616 94.716 47.0256 93.468 47.0256C92.3 47.0256 91.596 46.5296 90.748 45.6976C89.628 44.5936 88.588 44.0016 87.132 44.0016C85.452 44.0016 83.98 44.9616 82.956 46.8016L84.092 47.4096C84.764 46.1456 85.868 45.2816 87.116 45.2816C88.284 45.2816 88.988 45.7936 89.836 46.6096ZM103.052 52.2256H111.404V51.0256H108.076V40.4816H106.972C106.204 40.9616 105.212 41.1056 103.9 41.3136V42.2576H106.604V51.0256H103.052V52.2256ZM124.268 52.4336C126.412 52.4336 128.108 51.0096 128.108 48.5136C128.108 46.0656 126.38 44.9136 124.348 44.9136C122.988 44.9136 121.932 45.5856 121.1 46.5616L121.132 47.9376C121.852 46.8176 122.956 46.0656 124.156 46.0656C125.564 46.0656 126.716 46.8656 126.716 48.5456C126.716 50.2736 125.692 51.2496 124.284 51.2496C122.524 51.2496 121.148 49.9376 121.148 46.8816C121.148 42.7696 123.02 41.5216 124.636 41.5216C125.676 41.5216 126.396 41.8736 127.084 42.5776L127.916 41.6816C127.196 40.8976 126.156 40.3056 124.588 40.3056C122.188 40.3056 119.756 42.1456 119.756 46.9296C119.756 50.8016 121.804 52.4336 124.268 52.4336ZM141.932 42.9456C142.188 48.4976 144.428 53.5536 146.572 53.5536C147.532 53.5536 147.948 52.9136 148.124 50.6896C147.836 50.5936 147.468 50.3696 147.212 50.1616C147.148 51.7776 147.004 52.4816 146.636 52.4816C145.356 52.4976 143.196 48.1136 143.052 42.9456H141.932ZM143.964 43.5696C144.668 44.0016 145.532 44.6416 145.948 45.0896L146.652 44.4816C146.236 44.0496 145.356 43.4256 144.652 43.0256L143.964 43.5696ZM140.14 48.8336C140.636 49.6016 141.116 50.6256 141.308 51.2816L142.156 50.9136C141.964 50.2896 141.452 49.2656 140.956 48.5296L140.14 48.8336ZM145.836 46.2736C144.924 49.1376 143.1 51.3616 140.652 52.6896C140.892 52.8816 141.308 53.2976 141.468 53.5216C143.932 52.0176 145.868 49.6656 146.924 46.5136L145.836 46.2736ZM136.94 48.5136C136.652 49.5216 136.204 50.5456 135.612 51.2816C135.836 51.3936 136.236 51.6496 136.412 51.7936C136.988 51.0256 137.532 49.8416 137.852 48.7216L136.94 48.5136ZM135.228 44.6256V45.6176H147.676V44.6256H135.228ZM136.38 46.8016V47.7296H141.708V46.8016H136.38ZM133.676 42.1456V43.1536H147.756V42.1456H133.676ZM140.988 39.9216V40.8336H146.236V39.9216H140.988ZM134.572 44.6256V47.3296C134.572 48.9776 134.428 51.2016 133.212 52.8336C133.468 52.9776 133.932 53.3296 134.124 53.5536C135.436 51.7936 135.692 49.1856 135.692 47.3456V44.6256H134.572ZM140.332 38.8016V42.6256H141.5V38.8016H140.332ZM136.268 39.5056V42.7536H137.388V39.5056H136.268ZM138.556 47.3616V52.1616C138.556 52.3056 138.524 52.3376 138.364 52.3536C138.204 52.3696 137.756 52.3696 137.212 52.3536C137.324 52.6256 137.484 53.0096 137.532 53.3136C138.268 53.3136 138.796 53.2976 139.132 53.1216C139.468 52.9616 139.548 52.6736 139.548 52.1776V47.3616H138.556ZM150.748 41.6976L150.892 43.1056C152.62 42.7376 156.7 42.3376 158.412 42.1616C156.956 43.0256 155.436 45.0736 155.436 47.5536C155.436 51.1376 158.796 52.7056 161.756 52.8176L162.22 51.5056C159.628 51.4096 156.7 50.4016 156.7 47.2816C156.7 45.3936 158.092 42.9456 160.38 42.2096C161.196 41.9856 162.588 41.9536 163.516 41.9696L163.5 40.6896C162.428 40.7216 160.94 40.8176 159.18 40.9616C156.236 41.2176 153.212 41.5056 152.188 41.6176C151.868 41.6496 151.356 41.6816 150.748 41.6976ZM161.196 43.9216L160.396 44.2736C160.876 44.9456 161.324 45.7616 161.692 46.5296L162.524 46.1616C162.172 45.4416 161.564 44.4496 161.196 43.9216ZM162.94 43.2496L162.156 43.6176C162.652 44.2896 163.132 45.0896 163.516 45.8576L164.332 45.4576C163.964 44.7536 163.34 43.7776 162.94 43.2496ZM169.932 43.3456H178.62V45.0736H169.932V43.3456ZM169.932 40.6736H178.62V42.3696H169.932V40.6736ZM168.732 39.6496V46.1136H179.852V39.6496H168.732ZM173.628 40.1136V45.6176H174.844V40.1136H173.628ZM167.436 47.6656V48.7696H179.676V47.6656H167.436ZM179.18 47.6656L179.164 47.8416C178.924 50.6896 178.636 51.9056 178.22 52.2416C178.076 52.3856 177.884 52.4016 177.516 52.4016C177.148 52.4016 176.092 52.3856 175.052 52.3056C175.26 52.6096 175.404 53.0736 175.436 53.4096C176.46 53.4576 177.452 53.4736 177.948 53.4416C178.524 53.4096 178.876 53.3296 179.228 52.9936C179.74 52.4976 180.06 51.2336 180.348 48.1936C180.38 48.0176 180.396 47.6656 180.396 47.6656H179.18ZM173.404 45.8896C173.004 49.0256 172.172 51.4096 166.988 52.4816C167.212 52.7216 167.516 53.2016 167.628 53.5056C173.116 52.2896 174.204 49.5376 174.652 45.8896H173.404ZM185.836 38.7856V53.4896H187.052V38.7856H185.836ZM184.364 41.8256C184.252 43.1216 183.964 44.8816 183.532 45.9536L184.476 46.2736C184.908 45.1216 185.196 43.2656 185.276 41.9696L184.364 41.8256ZM187.164 41.7296C187.612 42.6256 188.092 43.7936 188.268 44.4976L189.164 44.0496C188.988 43.3616 188.492 42.2256 187.996 41.3616L187.164 41.7296ZM190.428 39.5376C190.076 41.6976 189.436 43.8736 188.492 45.2816C188.796 45.4096 189.34 45.6656 189.58 45.8416C190.476 44.3376 191.18 42.0656 191.596 39.7296L190.428 39.5376ZM190.444 42.1776L190.076 43.3296H197.884V42.1776H190.444ZM193.036 38.8496V52.4496H194.236V38.8496H193.036ZM189.628 46.6576V47.7936H197.532V46.6576H189.628ZM188.428 51.7936V52.9456H198.268V51.7936H188.428ZM206.268 42.7696L206.284 43.9856C207.212 44.0496 208.044 44.0816 208.972 44.0816C210.844 44.0816 212.796 43.9536 214.492 43.6656V42.4336C212.876 42.7696 210.908 42.9136 208.988 42.9136C208.044 42.9136 207.18 42.8656 206.268 42.7696ZM211.868 39.9056H210.428C210.476 40.1936 210.492 40.6096 210.492 40.8976C210.492 41.4576 210.508 42.4656 210.508 43.5696C210.508 45.6816 210.716 48.6736 210.716 49.8256C210.716 50.8976 210.332 51.5696 208.988 51.5696C207.82 51.5696 207.036 51.1376 207.036 50.3056C207.036 49.5376 207.868 49.0096 209.068 49.0096C211.1 49.0096 212.716 50.0976 214.396 51.6656L215.084 50.6096C213.74 49.3936 211.868 48.0336 209.18 48.0336C207.068 48.0336 205.884 49.0896 205.884 50.4336C205.884 51.8736 207.052 52.7376 209.196 52.7376C211.356 52.7376 211.964 51.4576 211.964 50.1456C211.964 48.4976 211.724 46.0016 211.724 43.5376C211.724 42.5936 211.74 41.4576 211.772 40.8656C211.788 40.5616 211.82 40.2256 211.868 39.9056ZM203.98 40.0176L202.572 39.8896C202.556 40.2416 202.524 40.6576 202.46 41.0416C202.268 42.3536 201.724 45.4096 201.724 47.7616C201.724 49.9216 202.028 51.6816 202.332 52.8336L203.468 52.7376C203.452 52.5776 203.436 52.3376 203.42 52.1776C203.404 52.0016 203.436 51.6816 203.484 51.4576C203.644 50.6736 204.236 49.0416 204.636 47.9216L203.98 47.4096C203.708 48.0656 203.308 49.0416 203.052 49.7776C202.94 48.9936 202.892 48.3216 202.892 47.5376C202.892 45.7456 203.372 42.5776 203.692 41.0896C203.756 40.8016 203.884 40.2736 203.98 40.0176ZM219.612 38.8336V53.4896H220.7V38.8336H219.612ZM217.34 44.1616V45.2976H222.492V44.1616H217.34ZM219.548 44.7536C219.116 46.6096 218.108 49.0416 217.164 50.2896C217.372 50.6256 217.676 51.1536 217.804 51.5216C218.812 50.0496 219.804 47.2336 220.3 45.0896L219.548 44.7536ZM220.668 45.6016L220.076 46.0656C220.524 46.7536 221.644 48.7376 221.98 49.5696L222.78 48.6416C222.476 48.1296 221.068 46.0656 220.668 45.6016ZM217.516 40.0336C217.932 41.1376 218.3 42.6096 218.396 43.5536L219.276 43.3296C219.164 42.3856 218.796 40.9456 218.332 39.8256L217.516 40.0336ZM221.948 39.7616C221.724 40.8496 221.276 42.4176 220.924 43.3616L221.66 43.6016C222.076 42.7056 222.556 41.2016 222.956 40.0176L221.948 39.7616ZM223.5 40.0976V41.0096H231.644V40.0976H223.5ZM223.9 42.0016V42.8816H231.292V42.0016H223.9ZM223.052 43.9696V44.8976H232.044V43.9696H223.052ZM226.86 38.8016V44.4816H228.012V38.8016H226.86ZM224.06 45.8736V53.4896H225.196V46.7856H230.22V45.8736H224.06ZM229.852 45.8736V52.2736C229.852 52.4496 229.804 52.5136 229.596 52.5136C229.388 52.5136 228.732 52.5136 228.012 52.4976C228.156 52.7856 228.3 53.2016 228.364 53.4896C229.356 53.4896 230.028 53.4896 230.444 53.3296C230.876 53.1536 230.988 52.8496 230.988 52.2736V45.8736H229.852ZM224.668 47.9696V48.8336H230.316V47.9696H224.668ZM224.668 50.0336V50.8976H230.316V50.0336H224.668ZM234.46 48.2416V49.3136H248.588V48.2416H234.46ZM240.844 41.6016V53.5376H242.06V41.6016H240.844ZM240.428 48.7216C239.052 50.1936 236.348 51.5856 234.028 52.2096C234.316 52.4656 234.668 52.9296 234.86 53.2336C237.164 52.4656 239.9 50.9296 241.42 49.2016L240.428 48.7216ZM242.524 48.6896L241.532 49.1216C243.004 50.9456 245.66 52.5296 248.124 53.2656C248.3 52.9456 248.668 52.4656 248.94 52.2256C246.492 51.6176 243.852 50.2416 242.524 48.6896ZM237.18 44.5456H245.932V46.1136H237.18V44.5456ZM237.18 42.0656H245.932V43.6336H237.18V42.0656ZM236.028 41.1216V47.0896H247.132V41.1216H236.028ZM246.076 38.8496C245.644 39.6016 244.844 40.6736 244.236 41.3616L245.18 41.7616C245.82 41.1216 246.636 40.1616 247.292 39.2656L246.076 38.8496ZM235.708 39.3136C236.348 39.9536 237.036 40.8496 237.324 41.4576L238.38 40.9456C238.076 40.3216 237.372 39.4576 236.716 38.8656L235.708 39.3136ZM239.996 39.1056C240.46 39.7776 240.956 40.6896 241.132 41.2816L242.252 40.8816C242.06 40.2736 241.548 39.3936 241.052 38.7376L239.996 39.1056ZM251.548 41.6976L251.692 43.1056C253.42 42.7376 257.5 42.3376 259.212 42.1616C257.756 43.0256 256.236 45.0736 256.236 47.5536C256.236 51.1376 259.596 52.7056 262.556 52.8176L263.02 51.5056C260.428 51.4096 257.5 50.4016 257.5 47.2816C257.5 45.3936 258.892 42.9456 261.18 42.2096C261.996 41.9856 263.388 41.9536 264.316 41.9696L264.3 40.6896C263.228 40.7216 261.74 40.8176 259.98 40.9616C257.036 41.2176 254.012 41.5056 252.988 41.6176C252.668 41.6496 252.156 41.6816 251.548 41.6976ZM261.996 43.9216L261.196 44.2736C261.676 44.9456 262.124 45.7616 262.492 46.5296L263.324 46.1616C262.972 45.4416 262.364 44.4496 261.996 43.9216ZM263.74 43.2496L262.956 43.6176C263.452 44.2896 263.932 45.0896 264.316 45.8576L265.132 45.4576C264.764 44.7536 264.14 43.7776 263.74 43.2496ZM85.212 70.8336V85.4896H86.3V70.8336H85.212ZM82.94 76.1616V77.2976H88.092V76.1616H82.94ZM85.148 76.7536C84.716 78.6096 83.708 81.0416 82.764 82.2896C82.972 82.6256 83.276 83.1536 83.404 83.5216C84.412 82.0496 85.404 79.2336 85.9 77.0896L85.148 76.7536ZM86.268 77.6016L85.676 78.0656C86.124 78.7536 87.244 80.7376 87.58 81.5696L88.38 80.6416C88.076 80.1296 86.668 78.0656 86.268 77.6016ZM83.116 72.0336C83.532 73.1376 83.9 74.6096 83.996 75.5536L84.876 75.3296C84.764 74.3856 84.396 72.9456 83.932 71.8256L83.116 72.0336ZM87.548 71.7616C87.324 72.8496 86.876 74.4176 86.524 75.3616L87.26 75.6016C87.676 74.7056 88.156 73.2016 88.556 72.0176L87.548 71.7616ZM89.1 72.0976V73.0096H97.244V72.0976H89.1ZM89.5 74.0016V74.8816H96.892V74.0016H89.5ZM88.652 75.9696V76.8976H97.644V75.9696H88.652ZM92.46 70.8016V76.4816H93.612V70.8016H92.46ZM89.66 77.8736V85.4896H90.796V78.7856H95.82V77.8736H89.66ZM95.452 77.8736V84.2736C95.452 84.4496 95.404 84.5136 95.196 84.5136C94.988 84.5136 94.332 84.5136 93.612 84.4976C93.756 84.7856 93.9 85.2016 93.964 85.4896C94.956 85.4896 95.628 85.4896 96.044 85.3296C96.476 85.1536 96.588 84.8496 96.588 84.2736V77.8736H95.452ZM90.268 79.9696V80.8336H95.916V79.9696H90.268ZM90.268 82.0336V82.8976H95.916V82.0336H90.268ZM99.852 77.9376V79.1376H114.38V77.9376H99.852ZM106.508 75.3616V83.9536C106.508 84.2416 106.396 84.3216 106.06 84.3376C105.708 84.3536 104.524 84.3536 103.228 84.3056C103.436 84.6576 103.66 85.2016 103.756 85.5536C105.292 85.5536 106.332 85.5216 106.924 85.3296C107.532 85.1376 107.756 84.7696 107.756 83.9696V75.3616H106.508ZM101.5 71.9056V73.0896H111.948V71.9056H101.5ZM111.532 71.9056V72.1776C110.524 73.3136 108.396 74.8336 106.652 75.6656C106.892 75.8736 107.26 76.2576 107.436 76.5296C109.308 75.5696 111.58 73.9856 113.036 72.5136L112.124 71.8416L111.852 71.9056H111.532ZM122.684 71.8096L121.196 71.6496C121.196 72.8816 120.988 74.3216 120.684 75.6016C120.252 77.5536 118.972 81.8256 117.148 84.2736L118.46 84.7856C120.268 81.8736 121.404 77.8896 121.948 75.6336C122.172 74.6416 122.38 73.3296 122.492 72.7536C122.556 72.4496 122.62 72.0976 122.684 71.8096ZM128.188 73.6496L127.02 74.1776C128.14 75.5056 129.404 78.2896 129.868 79.9216L131.116 79.3296C130.572 77.8576 129.18 74.9456 128.188 73.6496ZM116.924 75.3136L117.052 76.7056C117.468 76.6416 118.124 76.5616 118.492 76.5136C119.468 76.4176 122.476 76.0496 123.548 76.0496C124.572 76.0496 125.244 76.3216 125.244 77.7936C125.244 79.5216 124.988 81.6016 124.476 82.6896C124.156 83.3776 123.676 83.5056 123.084 83.5056C122.636 83.5056 121.788 83.3936 121.116 83.1856L121.34 84.5136C121.836 84.6416 122.604 84.7536 123.212 84.7536C124.252 84.7536 125.052 84.4816 125.548 83.4096C126.22 82.0816 126.476 79.5376 126.476 77.6336C126.476 75.4736 125.308 74.9296 123.884 74.9296C122.796 74.9296 119.548 75.2816 118.348 75.3136C117.836 75.3296 117.42 75.3456 116.924 75.3136ZM128.364 71.3296L127.5 71.6976C127.948 72.3056 128.492 73.2656 128.812 73.9216L129.676 73.5376C129.34 72.8816 128.764 71.9056 128.364 71.3296ZM130.124 70.6896L129.276 71.0576C129.74 71.6496 130.268 72.5616 130.604 73.2656L131.484 72.8816C131.164 72.2896 130.556 71.2816 130.124 70.6896ZM140.492 73.4736L139.932 74.6256H148.076V73.4736H140.492ZM142.492 76.9456V78.0496H147.708V76.9456H142.492ZM142.476 80.4656V81.6016H147.932V80.4656H142.476ZM141.884 73.8416V85.5056H143.116V73.8416H141.884ZM141.1 70.9776C140.316 73.3296 139.02 75.6656 137.564 77.1536C137.836 77.3456 138.316 77.7776 138.492 77.9856C139.964 76.3376 141.356 73.8256 142.268 71.2816L141.1 70.9776ZM137.26 70.8496C136.348 73.2816 134.86 75.6816 133.26 77.2336C133.484 77.5216 133.852 78.1616 133.964 78.4496C135.708 76.6576 137.356 73.9216 138.412 71.2176L137.26 70.8496ZM135.548 74.9776V85.4896H136.764V73.7936L136.732 73.7776L135.548 74.9776ZM154.844 71.6816L154.524 72.9136C155.756 73.2336 159.212 73.9376 160.748 74.1456L161.052 72.9296C159.628 72.7856 156.22 72.1296 154.844 71.6816ZM154.492 74.6096L153.148 74.4336C153.052 76.0976 152.652 79.4576 152.332 80.9136L153.532 81.2016C153.628 80.9456 153.772 80.6896 154.012 80.4176C155.132 79.0576 156.86 78.2736 158.956 78.2736C160.588 78.2736 161.788 79.1856 161.788 80.4496C161.788 82.6416 159.324 84.0976 154.268 83.4896L154.652 84.7856C160.588 85.2816 163.132 83.3456 163.132 80.4976C163.132 78.6096 161.5 77.1376 159.052 77.1376C157.132 77.1376 155.372 77.7616 153.836 79.1056C153.996 78.0656 154.284 75.6976 154.492 74.6096ZM181.884 83.0096L181.676 81.6496C180.86 82.4976 180.012 82.9616 179.26 82.9616C178.684 82.9616 178.412 82.5296 178.412 81.9856C178.412 80.3696 179.02 77.6176 179.02 76.0176C179.02 74.7216 178.284 73.8736 176.78 73.8736C174.812 73.8736 172.156 76.1776 171.164 77.2656L171.148 78.8496C172.652 77.0256 174.972 75.0416 176.476 75.0416C177.292 75.0416 177.756 75.4416 177.756 76.3696C177.756 77.9216 177.164 80.5456 177.164 82.3376C177.164 83.6496 177.868 84.3536 178.94 84.3536C180.028 84.3536 181.02 83.8736 181.884 83.0096ZM171.132 75.3616L171.004 75.7936L170.94 76.6256C170.316 77.6816 168.156 80.6096 167.164 81.8576L167.964 82.9456C168.972 81.5536 170.46 79.3936 171.196 78.2576L171.676 76.0656C171.948 75.6176 172.38 74.9296 172.652 74.5136L172.188 73.9696C171.452 74.2096 169.452 74.4496 168.604 74.4976C168.204 74.5296 167.9 74.5296 167.548 74.5136L167.692 75.8416C168.876 75.6496 170.604 75.4416 171.132 75.3616ZM170.972 72.7216C170.972 73.3136 170.588 78.3856 170.556 79.7936C170.54 81.5536 170.524 82.3536 170.524 83.9056C170.524 84.1616 170.508 84.5456 170.476 84.8496H171.852C171.836 84.5456 171.788 84.1456 171.772 83.8736C171.708 82.4496 171.708 81.4736 171.708 80.0176C171.708 77.2016 172.188 72.6256 172.412 71.5856L170.908 71.5376C170.988 71.9376 170.972 72.3536 170.972 72.7216ZM191.548 83.7136V84.8016H197.132V83.7136H191.548ZM190.924 79.0256V85.5216H192.076V80.1296H196.572V85.4576H197.756V79.0256H190.924ZM189.836 76.3376L189.98 77.5216C191.964 77.3936 194.828 77.1696 197.532 76.9616L197.548 75.8896C194.7 76.0816 191.724 76.2416 189.836 76.3376ZM195.132 73.7616C196.188 75.1216 197.26 76.9456 197.644 78.1456L198.7 77.5696C198.268 76.3856 197.164 74.5936 196.092 73.2656L195.132 73.7616ZM192.956 70.7856C192.508 72.5776 191.644 75.1376 190.924 76.6896L191.948 76.9776C192.7 75.4576 193.612 73.0096 194.268 71.0576L192.956 70.7856ZM183.788 74.0976V75.2336H189.068V74.0976H183.788ZM186.22 70.7856C185.66 73.8256 184.668 78.1296 183.948 80.5616L184.94 81.1056C185.692 78.4336 186.716 74.1136 187.372 70.9136L186.22 70.7856ZM184.588 80.0816C186.38 81.1216 188.46 82.7376 189.404 83.9376L190.14 82.9616C189.18 81.7776 187.052 80.2416 185.26 79.2336L184.588 80.0816ZM188.604 74.0976V74.3536C188.22 79.7776 186.54 83.1856 183.884 84.5936C184.14 84.8336 184.46 85.2656 184.636 85.5536C187.58 83.7936 189.308 80.4016 189.74 74.2096L189.02 74.0656L188.812 74.0976H188.604ZM210.604 71.8416L209.212 71.7136C209.228 72.0816 209.18 72.6096 209.116 72.9296C208.716 75.2656 207.644 78.1936 206.588 79.8256C205.772 81.1216 204.652 82.4816 203.612 82.4816C202.892 82.4816 202.428 81.8416 202.428 80.7856C202.428 79.3456 203.292 77.6336 204.652 76.6576C205.9 75.7296 207.292 75.2016 208.844 75.2016C211.42 75.2016 213.116 76.9296 213.116 79.2816C213.116 81.7616 211.276 83.5056 207.932 83.8096L208.668 84.9456C212.108 84.4656 214.396 82.5296 214.396 79.3296C214.396 76.2096 212.124 74.0976 208.988 74.0976C207.34 74.0976 205.772 74.5136 204.188 75.5856C202.492 76.7216 201.26 78.8496 201.26 80.8656C201.26 82.7376 202.284 83.7456 203.5 83.7456C204.956 83.7456 206.124 82.5456 207.34 80.8496C208.62 79.0896 209.74 75.7456 210.316 73.1056C210.396 72.8016 210.492 72.2416 210.604 71.8416ZM204.044 72.5776L202.716 72.9936C202.924 73.4096 203.1 73.9376 203.26 74.4496C203.868 76.4496 204.796 78.8976 205.58 80.1456C206.188 81.1856 206.78 81.9696 207.42 82.6736L208.428 81.8576C207.66 81.1216 206.908 80.0656 206.364 79.1376C205.692 78.0176 204.796 75.5536 204.38 73.9856C204.252 73.5376 204.124 73.0096 204.044 72.5776ZM220.508 72.4496L220.54 73.7616C220.892 73.7136 221.244 73.6976 221.612 73.6656C222.444 73.6176 225.644 73.4896 226.492 73.4416C225.692 74.1616 223.676 75.8416 222.78 76.5776C221.868 77.3616 219.804 79.0896 218.476 80.1776L219.404 81.1056C221.42 79.0416 222.86 77.9216 225.516 77.9216C227.612 77.9216 229.116 79.0896 229.116 80.6736C229.116 82.6736 227.404 83.7936 224.684 83.7936C223.42 83.7936 222.54 83.3296 222.54 82.5456C222.54 81.9856 223.1 81.5376 223.836 81.5376C225.116 81.5376 225.9 82.5136 225.996 83.8736L227.148 83.6816C227.036 82.0656 225.964 80.5616 223.836 80.5616C222.364 80.5616 221.372 81.5536 221.372 82.6416C221.372 83.9856 222.7 84.9296 224.876 84.9296C228.268 84.9296 230.396 83.2496 230.396 80.6736C230.396 78.5136 228.492 76.9296 225.836 76.9296C225.116 76.9296 224.348 77.0096 223.612 77.2496C224.86 76.2256 227.036 74.3536 227.82 73.7456C228.124 73.5056 228.444 73.2976 228.732 73.1056L227.996 72.1616C227.82 72.2256 227.596 72.2576 227.116 72.3056C226.268 72.3856 222.476 72.4976 221.628 72.4976C221.308 72.4976 220.86 72.4816 220.508 72.4496ZM91.7064 105.314L90.3784 105.282C90.2184 106.946 89.8824 108.754 89.4184 110.274C88.6024 112.978 87.7384 114.066 86.9864 114.066C86.2664 114.066 85.3544 113.17 85.3544 111.154C85.3544 108.802 87.5464 105.906 91.0664 105.906C94.1384 105.906 95.9144 108.018 95.9144 110.578C95.9144 113.346 93.8984 114.882 91.8504 115.346C91.4664 115.426 90.9864 115.49 90.4744 115.538L91.2104 116.722C95.0184 116.226 97.2264 113.986 97.2264 110.642C97.2264 107.394 94.8424 104.754 91.0984 104.754C87.1784 104.754 84.0904 107.778 84.0904 111.25C84.0904 113.906 85.5144 115.538 86.9544 115.538C88.4264 115.538 89.7064 113.842 90.6824 110.562C91.1784 108.85 91.4984 106.978 91.7064 105.314ZM106.234 104.706V105.762H114.234V104.706H106.234ZM105.546 107.81V108.882H114.922V107.81H105.546ZM105.626 110.706V111.778H114.746V110.706H105.626ZM109.594 102.786V108.466H110.778V102.786H109.594ZM111.706 108.722V116.066C111.706 116.306 111.626 116.37 111.354 116.386C111.098 116.402 110.202 116.402 109.21 116.37C109.386 116.69 109.578 117.17 109.626 117.49C110.906 117.49 111.722 117.474 112.218 117.298C112.714 117.122 112.874 116.77 112.874 116.082V108.722H111.706ZM106.602 112.898C107.418 113.73 108.282 114.93 108.634 115.714L109.674 115.074C109.29 114.29 108.394 113.154 107.562 112.322L106.602 112.898ZM101.274 103.842V104.93H104.154V113.266H101.274V114.354H105.274V103.842H101.274ZM101.322 108.498V109.57H104.682V108.498H101.322ZM100.698 103.842V115.666H101.834V103.842H100.698ZM119.21 102.834V117.49H120.298V102.834H119.21ZM116.938 108.162V109.298H122.09V108.162H116.938ZM119.146 108.754C118.714 110.61 117.706 113.042 116.762 114.29C116.97 114.626 117.274 115.154 117.402 115.522C118.41 114.05 119.402 111.234 119.898 109.09L119.146 108.754ZM120.266 109.602L119.674 110.066C120.122 110.754 121.242 112.738 121.578 113.57L122.378 112.642C122.074 112.13 120.666 110.066 120.266 109.602ZM117.114 104.034C117.53 105.138 117.898 106.61 117.994 107.554L118.874 107.33C118.762 106.386 118.394 104.946 117.93 103.826L117.114 104.034ZM121.546 103.762C121.322 104.85 120.874 106.418 120.522 107.362L121.258 107.602C121.674 106.706 122.154 105.202 122.554 104.018L121.546 103.762ZM123.098 104.098V105.01H131.242V104.098H123.098ZM123.498 106.002V106.882H130.89V106.002H123.498ZM122.65 107.97V108.898H131.642V107.97H122.65ZM126.458 102.802V108.482H127.61V102.802H126.458ZM123.658 109.874V117.49H124.794V110.786H129.818V109.874H123.658ZM129.45 109.874V116.274C129.45 116.45 129.402 116.514 129.194 116.514C128.986 116.514 128.33 116.514 127.61 116.498C127.754 116.786 127.898 117.202 127.962 117.49C128.954 117.49 129.626 117.49 130.042 117.33C130.474 117.154 130.586 116.85 130.586 116.274V109.874H129.45ZM124.266 111.97V112.834H129.914V111.97H124.266ZM124.266 114.034V114.898H129.914V114.034H124.266ZM143.354 109.858C143.93 110.386 144.57 111.122 144.842 111.634L145.498 111.058C145.21 110.578 144.57 109.858 143.994 109.362L143.354 109.858ZM137.834 104.562V105.698H148.394V104.562H137.834ZM143.002 107.874V108.866H147.002V107.874H143.002ZM142.378 102.786V105.074H143.578V102.786H142.378ZM139.946 105.922C139.37 107.698 138.202 109.922 136.842 111.33C137.098 111.522 137.466 111.858 137.658 112.082C139.082 110.546 140.33 108.226 141.082 106.242L139.946 105.922ZM143.194 105.938C142.666 107.81 141.514 110.05 140.106 111.474C140.33 111.65 140.698 112.002 140.874 112.226C142.378 110.674 143.594 108.29 144.314 106.21L143.194 105.938ZM146.762 107.874V108.098C145.914 112.45 143.338 115.33 140.298 116.61C140.554 116.834 140.858 117.25 141.002 117.522C144.266 116.002 146.906 113.058 147.898 108.098L147.162 107.826L146.97 107.874H146.762ZM134.458 103.778C135.37 104.258 136.474 105.01 137.002 105.554L137.722 104.594C137.162 104.066 136.058 103.362 135.146 102.93L134.458 103.778ZM133.722 108.146C134.634 108.53 135.754 109.186 136.298 109.698L137.002 108.706C136.426 108.21 135.306 107.618 134.378 107.25L133.722 108.146ZM134.074 116.738L135.162 117.41C135.834 115.922 136.618 113.954 137.178 112.29L136.234 111.618C135.594 113.426 134.698 115.49 134.074 116.738ZM142.57 109.618L141.642 109.89C142.794 113.346 144.986 116.114 147.914 117.474C148.09 117.186 148.442 116.754 148.682 116.53C145.818 115.362 143.626 112.754 142.57 109.618ZM138.922 109.106V117.506H139.994V108.082L139.946 108.066L138.922 109.106ZM156.682 103.81L155.194 103.65C155.194 104.882 154.986 106.322 154.682 107.602C154.25 109.554 152.97 113.826 151.146 116.274L152.458 116.786C154.266 113.874 155.402 109.89 155.946 107.634C156.17 106.642 156.378 105.33 156.49 104.754C156.554 104.45 156.618 104.098 156.682 103.81ZM162.186 105.65L161.018 106.178C162.138 107.506 163.402 110.29 163.866 111.922L165.114 111.33C164.57 109.858 163.178 106.946 162.186 105.65ZM150.922 107.314L151.05 108.706C151.466 108.642 152.122 108.562 152.49 108.514C153.466 108.418 156.474 108.05 157.546 108.05C158.57 108.05 159.242 108.322 159.242 109.794C159.242 111.522 158.986 113.602 158.474 114.69C158.154 115.378 157.674 115.506 157.082 115.506C156.634 115.506 155.786 115.394 155.114 115.186L155.338 116.514C155.834 116.642 156.602 116.754 157.21 116.754C158.25 116.754 159.05 116.482 159.546 115.41C160.218 114.082 160.474 111.538 160.474 109.634C160.474 107.474 159.306 106.93 157.882 106.93C156.794 106.93 153.546 107.282 152.346 107.314C151.834 107.33 151.418 107.346 150.922 107.314ZM162.362 103.33L161.498 103.698C161.946 104.306 162.49 105.266 162.81 105.922L163.674 105.538C163.338 104.882 162.762 103.906 162.362 103.33ZM164.122 102.69L163.274 103.058C163.738 103.65 164.266 104.562 164.602 105.266L165.482 104.882C165.162 104.29 164.554 103.282 164.122 102.69ZM170.506 105.25V106.386H174.586V105.25H170.506ZM177.498 102.802V117.474H178.73V102.802H177.498ZM168.762 109.266C170.106 110.034 171.722 111.234 172.49 112.066L173.162 111.074C172.378 110.258 170.73 109.122 169.386 108.386L168.762 109.266ZM170.97 102.786C170.218 105.682 168.89 108.338 167.114 109.97C167.402 110.162 167.914 110.546 168.122 110.754C169.914 108.946 171.322 106.162 172.17 103.026L170.97 102.786ZM175.85 106.594L174.842 106.978C176.346 109.762 178.986 112.418 181.594 113.762C181.802 113.442 182.17 112.994 182.458 112.754C179.866 111.586 177.21 109.106 175.85 106.594ZM174.25 105.25V105.522C173.418 111.218 170.89 114.738 167.482 116.53C167.77 116.722 168.234 117.154 168.442 117.426C171.866 115.506 174.506 111.682 175.466 105.458L174.698 105.202L174.474 105.25H174.25ZM184.378 111.842L185.562 113.058C185.818 112.722 186.186 112.242 186.506 111.81C187.322 110.818 188.634 109.058 189.386 108.13C189.93 107.458 190.234 107.33 190.922 108.082C191.658 108.898 192.89 110.45 193.93 111.618C195.018 112.866 196.474 114.498 197.69 115.65L198.714 114.482C197.274 113.202 195.674 111.522 194.714 110.466C193.69 109.362 192.458 107.778 191.498 106.802C190.442 105.714 189.61 105.874 188.682 106.978C187.722 108.098 186.394 109.922 185.53 110.786C185.114 111.218 184.778 111.538 184.378 111.842ZM202.682 115.33V116.514H213.978V115.33H202.682ZM207.594 102.882V116.002H208.826V102.882H207.594ZM202.09 110.866V117.522H203.306V110.866H202.09ZM213.338 110.866V117.474H214.57V110.866H213.338ZM202.714 104.322V109.842H213.93V104.322H212.682V108.674H203.898V104.322H202.714ZM218.442 105.602L218.586 107.01C220.33 106.642 224.394 106.242 226.122 106.066C224.65 106.93 223.13 108.962 223.13 111.458C223.13 115.042 226.49 116.61 229.466 116.722L229.914 115.41C227.322 115.298 224.394 114.306 224.394 111.186C224.394 109.298 225.786 106.85 228.074 106.114C228.89 105.89 230.282 105.858 231.21 105.874L231.194 104.594C230.122 104.626 228.634 104.722 226.89 104.866C223.93 105.122 220.922 105.41 219.882 105.522C219.562 105.554 219.05 105.586 218.442 105.602ZM244.678 104.434L243.478 103.378C243.302 103.666 242.886 104.13 242.566 104.45C241.494 105.538 239.062 107.458 237.846 108.466C236.406 109.682 236.23 110.37 237.734 111.634C239.238 112.866 241.654 114.946 242.79 116.098C243.174 116.498 243.558 116.882 243.894 117.266L245.03 116.226C243.334 114.514 240.502 112.242 239.046 111.042C238.006 110.178 238.022 109.938 238.982 109.106C240.166 108.114 242.47 106.306 243.574 105.346C243.83 105.122 244.326 104.69 244.678 104.434ZM253.71 104.45L253.742 105.762C254.094 105.714 254.446 105.698 254.814 105.666C255.646 105.618 258.846 105.49 259.694 105.442C258.894 106.162 256.878 107.842 255.982 108.578C255.07 109.362 253.006 111.09 251.678 112.178L252.606 113.106C254.622 111.042 256.062 109.922 258.718 109.922C260.814 109.922 262.318 111.09 262.318 112.674C262.318 114.674 260.606 115.794 257.886 115.794C256.622 115.794 255.742 115.33 255.742 114.546C255.742 113.986 256.302 113.538 257.038 113.538C258.318 113.538 259.102 114.514 259.198 115.874L260.35 115.682C260.238 114.066 259.166 112.562 257.038 112.562C255.566 112.562 254.574 113.554 254.574 114.642C254.574 115.986 255.902 116.93 258.078 116.93C261.47 116.93 263.598 115.25 263.598 112.674C263.598 110.514 261.694 108.93 259.038 108.93C258.318 108.93 257.55 109.01 256.814 109.25C258.062 108.226 260.238 106.354 261.022 105.746C261.326 105.506 261.646 105.298 261.934 105.106L261.198 104.162C261.022 104.226 260.798 104.258 260.318 104.306C259.47 104.386 255.678 104.498 254.83 104.498C254.51 104.498 254.062 104.482 253.71 104.45Z" fill="#5D504F"/>
<path d="M51.9464 106.738V108.082H55.4184V106.738H51.9464ZM51.9464 108.962V110.306H55.4184V108.962H51.9464ZM52.8744 102.626C52.7464 103.25 52.4744 104.114 52.2504 104.738L54.0424 105.026C54.3464 104.482 54.7304 103.714 55.0824 102.866L52.8744 102.626ZM50.8584 104.418V112.05H52.5704V105.874H55.4984V104.418H50.8584ZM54.9064 104.418V115.682C54.9064 115.906 54.8264 115.97 54.6024 115.986C54.3784 115.986 53.6904 116.002 53.0344 115.97C53.2744 116.402 53.5464 117.186 53.6104 117.666C54.6984 117.666 55.4344 117.634 55.9784 117.33C56.5064 117.042 56.6664 116.562 56.6664 115.714V104.418H54.9064ZM49.5624 111.57L49.8024 113.25C51.3064 113.058 53.2424 112.818 55.0984 112.546L55.0344 110.994C53.0344 111.234 50.9704 111.442 49.5624 111.57ZM55.7864 108.978C54.5224 111.778 52.1704 114.034 49.3704 115.33C49.7544 115.666 50.3784 116.386 50.6344 116.754C53.4824 115.218 56.0104 112.69 57.5144 109.506L55.7864 108.978ZM57.1144 106.45V108.226H64.6184V106.45H57.1144ZM61.1624 102.738V115.458C61.1624 115.73 61.0664 115.81 60.7784 115.826C60.4904 115.826 59.6264 115.842 58.7464 115.794C59.0184 116.29 59.3704 117.154 59.4504 117.666C60.7624 117.682 61.6424 117.602 62.2504 117.282C62.8584 116.978 63.0664 116.466 63.0664 115.474V102.738H61.1624ZM57.5784 110.05C58.2184 111.218 58.8104 112.738 58.9704 113.698L60.7144 112.978C60.5224 111.986 59.8664 110.53 59.1784 109.41L57.5784 110.05ZM68.4744 102.706V117.618H70.1864V102.706H68.4744ZM66.4424 107.97V109.762H71.7224V107.97H66.4424ZM68.4584 108.93C68.0584 110.514 67.1144 112.738 66.1864 113.922C66.4744 114.466 66.9064 115.33 67.0664 115.922C68.1064 114.386 69.0344 111.586 69.5304 109.458L68.4584 108.93ZM70.2184 109.89L69.3384 110.626C69.8344 111.442 70.7624 113.234 71.1144 114.178L72.3304 112.706C72.0264 112.226 70.6344 110.322 70.2184 109.89ZM66.4264 103.954C66.8104 105.09 67.1144 106.61 67.1624 107.586L68.4904 107.266C68.4104 106.274 68.1064 104.786 67.6744 103.634L66.4264 103.954ZM70.8744 103.554C70.7144 104.674 70.3624 106.242 70.0584 107.234L71.1944 107.554C71.5624 106.626 72.0104 105.122 72.3944 103.874L70.8744 103.554ZM72.5864 103.81V105.186H80.9224V103.81H72.5864ZM72.9704 105.81V107.106H80.5864V105.81H72.9704ZM72.1384 107.794V109.186H81.3384V107.794H72.1384ZM75.6904 102.658V108.578H77.5144V102.658H75.6904ZM72.9704 109.842V117.682H74.7624V111.202H79.0504V109.842H72.9704ZM78.6184 109.842V115.922C78.6184 116.098 78.5544 116.162 78.3464 116.162C78.1544 116.162 77.4824 116.162 76.8904 116.13C77.0984 116.562 77.3064 117.202 77.3864 117.666C78.4104 117.666 79.1624 117.65 79.7064 117.41C80.2664 117.154 80.4104 116.738 80.4104 115.938V109.842H78.6184ZM73.9784 111.97V113.218H79.2424V111.97H73.9784ZM73.9784 113.986V115.234H79.2424V113.986H73.9784Z" fill="#E06363"/>
</g>
<defs>
<filter id="filter0_d_689_1200" x="0" y="0.225586" width="315" height="152" filterUnits="userSpaceOnUse" color-interpolation-filters="sRGB">
<feFlood flood-opacity="0" result="BackgroundImageFix"/>
<feColorMatrix in="SourceAlpha" type="matrix" values="0 0 0 0 0 0 0 0 0 0 0 0 0 0 0 0 0 0 127 0" result="hardAlpha"/>
<feOffset dy="6"/>
<feComposite in2="hardAlpha" operator="out"/>
<feColorMatrix type="matrix" values="0 0 0 0 0 0 0 0 0 0 0 0 0 0 0 0 0 0 0.1 0"/>
<feBlend mode="normal" in2="BackgroundImageFix" result="effect1_dropShadow_689_1200"/>
<feBlend mode="normal" in="SourceGraphic" in2="effect1_dropShadow_689_1200" result="shape"/>
</filter>
</defs>
</svg>
