<svg width="251" height="80" viewBox="0 0 251 80" fill="none" xmlns="http://www.w3.org/2000/svg">
<path d="M7.932 14.4336C10.588 14.4336 12.124 13.0256 12.124 11.2976C12.124 9.98559 11.372 9.07359 9.916 8.36959V8.30559C11.116 7.45759 11.708 6.48159 11.692 5.36159C11.676 3.64959 10.268 2.28959 7.884 2.28959C5.676 2.28959 4.124 3.60159 4.124 5.36159C4.14 6.49759 4.7 7.36159 5.868 7.95359V8.01759C4.46 8.76959 3.644 9.76159 3.644 11.2336C3.644 13.0096 5.244 14.4336 7.932 14.4336ZM8.972 7.92159C7.132 7.40959 5.484 6.83359 5.468 5.37759C5.468 4.25759 6.46 3.37759 7.852 3.37759C9.532 3.37759 10.396 4.41759 10.412 5.47359C10.412 6.35359 10.092 7.04159 8.972 7.92159ZM7.964 13.3456C6.172 13.3456 5.004 12.3536 5.004 11.1216C5.004 10.0496 5.596 9.21759 6.828 8.51359C8.988 9.15359 10.684 9.71359 10.684 11.2656C10.684 12.4016 9.692 13.3456 7.964 13.3456ZM24.236 8.60959C25.356 9.71359 26.396 10.3056 27.852 10.3056C29.532 10.3056 31.004 9.34559 32.028 7.50559L30.892 6.89759C30.22 8.16159 29.116 9.02559 27.868 9.02559C26.7 9.02559 25.996 8.52959 25.148 7.69759C24.028 6.59359 22.988 6.00159 21.532 6.00159C19.852 6.00159 18.38 6.96159 17.356 8.80159L18.492 9.40959C19.164 8.14559 20.268 7.28159 21.516 7.28159C22.684 7.28159 23.388 7.79359 24.236 8.60959ZM37.452 14.2256H45.804V13.0256H42.476V2.48159H41.372C40.604 2.96159 39.612 3.10559 38.3 3.31359V4.25759H41.004V13.0256H37.452V14.2256ZM58.252 14.4336C60.476 14.4336 62.3 13.1696 62.3 11.1216C62.3 9.48959 61.212 8.38559 59.724 8.11359V8.04959C61.116 7.64959 61.98 6.65759 61.98 5.24959C61.98 3.48959 60.524 2.28959 58.188 2.28959C56.556 2.28959 55.212 2.99359 54.092 4.06559L54.908 4.97759C55.836 4.00159 56.94 3.48959 58.14 3.48959C59.692 3.48959 60.572 4.28959 60.572 5.39359C60.572 6.54559 59.452 7.58559 56.828 7.58559V8.70559C59.74 8.70559 60.892 9.63359 60.892 11.0416C60.892 12.3856 59.676 13.2176 58.172 13.2176C56.604 13.2176 55.436 12.5456 54.556 11.5056L53.772 12.4496C54.684 13.5376 56.092 14.4336 58.252 14.4336ZM76.332 4.94559C76.588 10.4976 78.828 15.5536 80.972 15.5536C81.932 15.5536 82.348 14.9136 82.524 12.6896C82.236 12.5936 81.868 12.3696 81.612 12.1616C81.548 13.7776 81.404 14.4816 81.036 14.4816C79.756 14.4976 77.596 10.1136 77.452 4.94559H76.332ZM78.364 5.56959C79.068 6.00159 79.932 6.64159 80.348 7.08959L81.052 6.48159C80.636 6.04959 79.756 5.42559 79.052 5.02559L78.364 5.56959ZM74.54 10.8336C75.036 11.6016 75.516 12.6256 75.708 13.2816L76.556 12.9136C76.364 12.2896 75.852 11.2656 75.356 10.5296L74.54 10.8336ZM80.236 8.27359C79.324 11.1376 77.5 13.3616 75.052 14.6896C75.292 14.8816 75.708 15.2976 75.868 15.5216C78.332 14.0176 80.268 11.6656 81.324 8.51359L80.236 8.27359ZM71.34 10.5136C71.052 11.5216 70.604 12.5456 70.012 13.2816C70.236 13.3936 70.636 13.6496 70.812 13.7936C71.388 13.0256 71.932 11.8416 72.252 10.7216L71.34 10.5136ZM69.628 6.62559V7.61759H82.076V6.62559H69.628ZM70.78 8.80159V9.72959H76.108V8.80159H70.78ZM68.076 4.14559V5.15359H82.156V4.14559H68.076ZM75.388 1.92159V2.83359H80.636V1.92159H75.388ZM68.972 6.62559V9.32959C68.972 10.9776 68.828 13.2016 67.612 14.8336C67.868 14.9776 68.332 15.3296 68.524 15.5536C69.836 13.7936 70.092 11.1856 70.092 9.34559V6.62559H68.972ZM74.732 0.801585V4.62559H75.9V0.801585H74.732ZM70.668 1.50559V4.75359H71.788V1.50559H70.668ZM72.956 9.36159V14.1616C72.956 14.3056 72.924 14.3376 72.764 14.3536C72.604 14.3696 72.156 14.3696 71.612 14.3536C71.724 14.6256 71.884 15.0096 71.932 15.3136C72.668 15.3136 73.196 15.2976 73.532 15.1216C73.868 14.9616 73.948 14.6736 73.948 14.1776V9.36159H72.956ZM85.148 3.69759L85.292 5.10559C87.02 4.73759 91.1 4.33759 92.812 4.16159C91.356 5.02559 89.836 7.07359 89.836 9.55359C89.836 13.1376 93.196 14.7056 96.156 14.8176L96.62 13.5056C94.028 13.4096 91.1 12.4016 91.1 9.28159C91.1 7.39359 92.492 4.94559 94.78 4.20959C95.596 3.98559 96.988 3.95359 97.916 3.96959L97.9 2.68959C96.828 2.72159 95.34 2.81758 93.58 2.96159C90.636 3.21759 87.612 3.50559 86.588 3.61759C86.268 3.64959 85.756 3.68159 85.148 3.69759ZM95.596 5.92159L94.796 6.27359C95.276 6.94559 95.724 7.76159 96.092 8.52959L96.924 8.16159C96.572 7.44159 95.964 6.44959 95.596 5.92159ZM97.34 5.24959L96.556 5.61759C97.052 6.28959 97.532 7.08959 97.916 7.85759L98.732 7.45759C98.364 6.75359 97.74 5.77759 97.34 5.24959ZM101.5 4.62559V5.82559H115.948V4.62559H101.5ZM107.484 0.801585C106.348 3.93759 104.524 8.32159 103.276 10.8656L104.46 11.2976C105.708 8.67359 107.548 4.28959 108.78 1.02559L107.484 0.801585ZM112.204 5.15359C111.1 10.8976 108.604 13.4736 101.628 14.4016C101.868 14.7056 102.14 15.1856 102.268 15.5536C109.516 14.4816 112.284 11.6496 113.484 5.47359L112.204 5.15359ZM104.092 10.2576C107.836 11.5536 112.428 13.8256 114.652 15.5856L115.564 14.4816C113.196 12.7056 108.54 10.5456 104.876 9.32959L104.092 10.2576ZM120.236 0.785585V15.4896H121.452V0.785585H120.236ZM118.764 3.82559C118.652 5.12159 118.364 6.88159 117.932 7.95359L118.876 8.27359C119.308 7.12159 119.596 5.26559 119.676 3.96959L118.764 3.82559ZM121.564 3.72959C122.012 4.62559 122.492 5.79359 122.668 6.49759L123.564 6.04959C123.388 5.36159 122.892 4.22559 122.396 3.36159L121.564 3.72959ZM124.828 1.53759C124.476 3.69759 123.836 5.87359 122.892 7.28159C123.196 7.40959 123.74 7.66559 123.98 7.84159C124.876 6.33759 125.58 4.06559 125.996 1.72959L124.828 1.53759ZM124.844 4.17759L124.476 5.32959H132.284V4.17759H124.844ZM127.436 0.849586V14.4496H128.636V0.849586H127.436ZM124.028 8.65759V9.79359H131.932V8.65759H124.028ZM122.828 13.7936V14.9456H132.668V13.7936H122.828ZM143.308 3.31359L141.98 3.28159C141.82 4.94559 141.484 6.75359 141.02 8.27359C140.204 10.9776 139.34 12.0656 138.588 12.0656C137.868 12.0656 136.956 11.1696 136.956 9.15359C136.956 6.80159 139.148 3.90559 142.668 3.90559C145.74 3.90559 147.516 6.01759 147.516 8.57759C147.516 11.3456 145.5 12.8816 143.452 13.3456C143.068 13.4256 142.588 13.4896 142.076 13.5376L142.812 14.7216C146.62 14.2256 148.828 11.9856 148.828 8.64159C148.828 5.39359 146.444 2.75359 142.7 2.75359C138.78 2.75359 135.692 5.77759 135.692 9.24959C135.692 11.9056 137.116 13.5376 138.556 13.5376C140.028 13.5376 141.308 11.8416 142.284 8.56159C142.78 6.84959 143.1 4.97759 143.308 3.31359ZM6.684 33.8096L5.196 33.6496C5.196 34.8816 4.988 36.3216 4.684 37.6016C4.252 39.5536 2.972 43.8256 1.148 46.2736L2.46 46.7856C4.268 43.8736 5.404 39.8896 5.948 37.6336C6.172 36.6416 6.38 35.3296 6.492 34.7536C6.556 34.4496 6.62 34.0976 6.684 33.8096ZM12.188 35.6496L11.02 36.1776C12.14 37.5056 13.404 40.2896 13.868 41.9216L15.116 41.3296C14.572 39.8576 13.18 36.9456 12.188 35.6496ZM0.924002 37.3136L1.052 38.7056C1.468 38.6416 2.124 38.5616 2.492 38.5136C3.468 38.4176 6.476 38.0496 7.548 38.0496C8.572 38.0496 9.244 38.3216 9.244 39.7936C9.244 41.5216 8.988 43.6016 8.476 44.6896C8.156 45.3776 7.676 45.5056 7.084 45.5056C6.636 45.5056 5.788 45.3936 5.116 45.1856L5.34 46.5136C5.836 46.6416 6.604 46.7536 7.212 46.7536C8.252 46.7536 9.052 46.4816 9.548 45.4096C10.22 44.0816 10.476 41.5376 10.476 39.6336C10.476 37.4736 9.308 36.9296 7.884 36.9296C6.796 36.9296 3.548 37.2816 2.348 37.3136C1.836 37.3296 1.42 37.3456 0.924002 37.3136ZM12.364 33.3296L11.5 33.6976C11.948 34.3056 12.492 35.2656 12.812 35.9216L13.676 35.5376C13.34 34.8816 12.764 33.9056 12.364 33.3296ZM14.124 32.6896L13.276 33.0576C13.74 33.6496 14.268 34.5616 14.604 35.2656L15.484 34.8816C15.164 34.2896 14.556 33.2816 14.124 32.6896ZM23.068 36.7696L23.084 37.9856C24.012 38.0496 24.844 38.0816 25.772 38.0816C27.644 38.0816 29.596 37.9536 31.292 37.6656V36.4336C29.676 36.7696 27.708 36.9136 25.788 36.9136C24.844 36.9136 23.98 36.8656 23.068 36.7696ZM28.668 33.9056H27.228C27.276 34.1936 27.292 34.6096 27.292 34.8976C27.292 35.4576 27.308 36.4656 27.308 37.5696C27.308 39.6816 27.516 42.6736 27.516 43.8256C27.516 44.8976 27.132 45.5696 25.788 45.5696C24.62 45.5696 23.836 45.1376 23.836 44.3056C23.836 43.5376 24.668 43.0096 25.868 43.0096C27.9 43.0096 29.516 44.0976 31.196 45.6656L31.884 44.6096C30.54 43.3936 28.668 42.0336 25.98 42.0336C23.868 42.0336 22.684 43.0896 22.684 44.4336C22.684 45.8736 23.852 46.7376 25.996 46.7376C28.156 46.7376 28.764 45.4576 28.764 44.1456C28.764 42.4976 28.524 40.0016 28.524 37.5376C28.524 36.5936 28.54 35.4576 28.572 34.8656C28.588 34.5616 28.62 34.2256 28.668 33.9056ZM20.78 34.0176L19.372 33.8896C19.356 34.2416 19.324 34.6576 19.26 35.0416C19.068 36.3536 18.524 39.4096 18.524 41.7616C18.524 43.9216 18.828 45.6816 19.132 46.8336L20.268 46.7376C20.252 46.5776 20.236 46.3376 20.22 46.1776C20.204 46.0016 20.236 45.6816 20.284 45.4576C20.444 44.6736 21.036 43.0416 21.436 41.9216L20.78 41.4096C20.508 42.0656 20.108 43.0416 19.852 43.7776C19.74 42.9936 19.692 42.3216 19.692 41.5376C19.692 39.7456 20.172 36.5776 20.492 35.0896C20.556 34.8016 20.684 34.2736 20.78 34.0176ZM43.164 35.1856L42.252 35.5856C42.78 36.3216 43.34 37.3136 43.74 38.1616L44.684 37.7456C44.316 36.9776 43.564 35.7776 43.164 35.1856ZM45.228 34.3696L44.332 34.7856C44.86 35.5056 45.452 36.4816 45.884 37.3296L46.796 36.8816C46.412 36.1296 45.644 34.9296 45.228 34.3696ZM38.732 33.8736H37.1C37.212 34.3376 37.244 34.8976 37.244 35.4896C37.244 37.1696 37.084 41.2176 37.084 43.5856C37.084 46.2096 38.668 47.1536 40.972 47.1536C44.492 47.1536 46.556 45.1376 47.644 43.6336L46.748 42.5456C45.596 44.2096 43.932 45.8416 41.004 45.8416C39.484 45.8416 38.38 45.2336 38.38 43.4736C38.38 41.0896 38.508 37.2976 38.572 35.4896C38.604 34.9616 38.652 34.4176 38.732 33.8736ZM59.452 33.5376H58.092C58.14 33.7456 58.156 34.2256 58.156 34.4976C58.156 35.6176 58.156 37.2976 58.156 38.7376C58.156 40.1456 58.316 43.2176 58.316 44.4496C58.316 45.5696 57.532 45.8416 56.604 45.8416C55.02 45.8416 54.396 45.2976 54.396 44.5456C54.396 43.8096 55.212 43.2176 56.748 43.2176C59.596 43.2176 61.964 44.8176 63.404 46.1456L64.14 45.0096C62.908 44.0016 60.268 42.1776 56.892 42.1776C54.588 42.1776 53.196 43.1536 53.196 44.6096C53.196 46.1616 54.46 46.9776 56.764 46.9776C58.844 46.9776 59.58 45.8416 59.58 44.7216C59.58 43.6496 59.34 40.8496 59.34 38.7376C59.34 37.3936 59.34 35.2496 59.372 34.6096C59.388 34.1296 59.42 33.8096 59.452 33.5376ZM53.34 35.2656L53.356 36.4496C54.364 36.5776 56.332 36.7216 57.436 36.7216C59.58 36.7216 61.868 36.5136 63.676 36.3056V35.1376C61.596 35.4736 59.452 35.6176 57.42 35.6176C56.364 35.6176 54.364 35.4576 53.34 35.2656ZM53.26 38.6736L53.276 39.8736C54.412 40.0016 56.172 40.0816 57.276 40.0816C59.676 40.0816 61.628 39.9696 63.804 39.6976V38.4976C61.724 38.8016 59.596 38.9616 57.276 38.9616C56.22 38.9616 54.396 38.8496 53.26 38.6736ZM70.908 34.4496L70.94 35.7616C71.292 35.7136 71.644 35.6976 72.012 35.6656C72.844 35.6176 76.044 35.4896 76.892 35.4416C76.092 36.1616 74.076 37.8416 73.18 38.5776C72.268 39.3616 70.204 41.0896 68.876 42.1776L69.804 43.1056C71.82 41.0416 73.26 39.9216 75.916 39.9216C78.012 39.9216 79.516 41.0896 79.516 42.6736C79.516 44.6736 77.804 45.7936 75.084 45.7936C73.82 45.7936 72.94 45.3296 72.94 44.5456C72.94 43.9856 73.5 43.5376 74.236 43.5376C75.516 43.5376 76.3 44.5136 76.396 45.8736L77.548 45.6816C77.436 44.0656 76.364 42.5616 74.236 42.5616C72.764 42.5616 71.772 43.5536 71.772 44.6416C71.772 45.9856 73.1 46.9296 75.276 46.9296C78.668 46.9296 80.796 45.2496 80.796 42.6736C80.796 40.5136 78.892 38.9296 76.236 38.9296C75.516 38.9296 74.748 39.0096 74.012 39.2496C75.26 38.2256 77.436 36.3536 78.22 35.7456C78.524 35.5056 78.844 35.2976 79.132 35.1056L78.396 34.1616C78.22 34.2256 77.996 34.2576 77.516 34.3056C76.668 34.3856 72.876 34.4976 72.028 34.4976C71.708 34.4976 71.26 34.4816 70.908 34.4496ZM90.46 33.4576H89.052C89.1 33.7136 89.132 34.2736 89.132 34.5776C89.132 35.2336 89.068 37.8416 89.068 39.6816C89.068 41.4576 89.148 43.6816 89.148 44.6096C89.148 45.1376 88.94 45.3936 88.572 45.3936C87.948 45.3936 86.828 44.7536 86.828 44.0336C86.828 43.2176 88.06 42.1456 89.628 41.5376C90.988 40.9936 92.3 40.6896 93.74 40.6896C95.244 40.6896 96.476 41.4096 96.476 42.7696C96.476 44.2576 95.196 45.0096 93.804 45.2816C93.196 45.4096 92.524 45.3936 91.916 45.3936L92.364 46.6736C92.924 46.6416 93.644 46.6096 94.348 46.4496C96.556 45.9376 97.772 44.7056 97.772 42.7696C97.772 40.8496 96.092 39.5856 93.74 39.5856C92.476 39.5856 90.876 39.8736 89.452 40.4336C87.468 41.1856 85.564 42.6736 85.564 44.0816C85.564 45.5216 87.644 46.7376 88.892 46.7376C89.772 46.7376 90.316 46.2576 90.316 44.7856C90.316 43.7776 90.236 41.2816 90.236 39.6176C90.236 37.9536 90.316 35.5056 90.364 34.5616C90.38 34.1776 90.412 33.7456 90.46 33.4576ZM95.436 35.2336L94.844 36.1936C95.868 36.7376 97.66 37.8416 98.444 38.5776L99.084 37.5536C98.316 36.9136 96.572 35.8256 95.436 35.2336ZM85.836 36.3216L85.868 37.5536C86.396 37.6016 87.004 37.6336 87.9 37.6336C89.34 37.6336 91.964 37.2816 93.612 36.8816L93.58 35.6336C91.996 36.1136 89.452 36.4496 87.868 36.4496C87.292 36.4496 86.716 36.4336 85.836 36.3216ZM109.356 33.6656H107.836C107.9 33.9696 107.948 34.6736 107.964 35.2656C107.964 35.9536 107.98 37.2656 107.98 38.1936C107.98 39.8256 108.172 42.9296 108.172 44.1136C108.172 45.2176 107.596 45.7776 106.428 45.7776C104.876 45.7776 103.98 45.2816 103.98 44.4016C103.98 43.5056 104.924 42.9456 106.588 42.9456C109.388 42.9456 112.012 44.5136 113.612 46.1136L114.38 44.9136C112.748 43.4256 109.9 41.8256 106.732 41.8256C103.964 41.8256 102.716 42.9936 102.716 44.4496C102.716 46.2736 104.332 46.9616 106.556 46.9616C108.684 46.9616 109.484 45.8416 109.484 44.5456C109.484 43.1376 109.228 39.9376 109.228 38.1936C109.228 37.0896 109.228 35.9856 109.228 35.2656C109.244 34.7856 109.292 34.0176 109.356 33.6656ZM108.524 36.8976V38.0816C109.676 38.0816 112.284 37.9696 114.012 37.8096L113.964 36.6096C112.236 36.8176 109.628 36.8976 108.524 36.8976ZM121.676 34.2896L121.74 35.6016C122.092 35.5696 122.556 35.5216 122.972 35.4896C123.66 35.4256 126.46 35.2976 127.18 35.2496C126.156 36.1456 123.628 38.3696 121.884 39.5856C121.068 39.6816 119.98 39.8096 119.116 39.9056L119.228 41.1056C121.148 40.7856 123.292 40.5296 125.004 40.3856C124.172 40.8816 123.132 42.0496 123.132 43.4096C123.132 45.8736 125.26 47.0896 129.18 46.9296L129.436 45.6176C128.86 45.6656 128.092 45.6976 127.148 45.5856C125.676 45.3776 124.38 44.8336 124.38 43.2176C124.38 41.7136 125.916 40.4016 127.468 40.1776C128.428 40.0336 129.964 40.0176 131.532 40.0976L131.516 38.9136C129.228 38.9136 126.348 39.1216 123.916 39.3936C125.196 38.3696 127.5 36.4336 128.7 35.4576C128.924 35.2656 129.34 34.9936 129.548 34.8496L128.748 33.9376C128.556 34.0016 128.252 34.0656 127.868 34.0976C126.956 34.1936 123.66 34.3376 122.956 34.3376C122.46 34.3376 122.076 34.3216 121.676 34.2896ZM138.348 33.6336V34.8016H146.7V33.6336H138.348ZM138.348 37.4896V38.6416H146.764V37.4896H138.348ZM138.22 41.3616V42.5136H146.684V41.3616H138.22ZM137.612 33.6336V38.5776C137.612 41.1536 137.34 44.4016 134.764 46.6576C135.02 46.8336 135.5 47.2656 135.676 47.5216C138.428 45.1216 138.828 41.3456 138.828 38.5776V33.6336H137.612ZM146.172 33.6336V45.7296C146.172 46.0816 146.044 46.1936 145.676 46.2096C145.308 46.2096 143.996 46.2256 142.668 46.1776C142.876 46.5136 143.1 47.0896 143.18 47.4416C144.908 47.4416 145.964 47.4256 146.588 47.2176C147.196 47.0096 147.42 46.5936 147.42 45.7456V33.6336H146.172ZM158.38 35.4256L158.396 36.7216C160.14 36.9136 163.244 36.9136 164.956 36.7216V35.4256C163.372 35.6656 160.124 35.7296 158.38 35.4256ZM159.004 41.9536L157.852 41.8416C157.676 42.6096 157.596 43.1856 157.596 43.7136C157.596 45.2176 158.796 46.1136 161.468 46.1136C163.132 46.1136 164.476 45.9856 165.468 45.7776L165.436 44.4336C164.156 44.7376 162.908 44.8656 161.484 44.8656C159.292 44.8656 158.78 44.1456 158.78 43.4096C158.78 42.9776 158.86 42.5296 159.004 41.9536ZM155.34 34.1936L153.916 34.0816C153.9 34.4336 153.852 34.8336 153.804 35.2016C153.612 36.5296 153.084 39.2656 153.084 41.6176C153.084 43.7936 153.356 45.6336 153.676 46.7696L154.812 46.6896C154.796 46.5136 154.78 46.2896 154.764 46.1296C154.764 45.9376 154.796 45.6336 154.844 45.4096C154.988 44.6416 155.58 42.9616 155.98 41.8256L155.308 41.2976C155.036 41.9536 154.668 42.9136 154.396 43.6336C154.3 42.8496 154.252 42.1776 154.252 41.4096C154.252 39.6016 154.748 36.7536 155.052 35.2656C155.116 34.9776 155.244 34.4656 155.34 34.1936ZM168.604 39.3296V40.6416H183.244V39.3296H168.604ZM188.3 37.2816V38.2736H199.676V37.2816H188.3ZM188.524 41.9536V42.9456H197.676V41.9536H188.524ZM190.876 35.8896V40.9296H197.084V35.8896H195.916V39.9696H192.012V35.8896H190.876ZM197.356 41.9536V42.1296C195.9 44.8656 191.948 46.1136 187.9 46.4976C188.092 46.7696 188.316 47.2176 188.412 47.5216C192.716 46.9776 196.812 45.6336 198.572 42.3056L197.82 41.8896L197.596 41.9536H197.356ZM191.372 42.7856L190.332 43.1696C192.076 45.6656 195.404 47.0256 199.372 47.5376C199.516 47.2336 199.82 46.7696 200.076 46.5136C196.204 46.1136 192.892 44.9136 191.372 42.7856ZM192.54 32.8016V34.9776H193.772V32.8016H192.54ZM187.212 34.3856V35.4736H199.788V34.3856H187.212ZM186.62 34.3856V38.9936C186.62 41.3296 186.508 44.5776 185.196 46.8656C185.468 46.9936 185.98 47.3296 186.188 47.5376C187.564 45.1056 187.772 41.4896 187.772 38.9936V34.3856H186.62ZM203.308 34.4336V43.4096H204.444V34.7856L203.308 34.4336ZM202.124 43.1696L202.396 44.3696C203.868 44.0336 205.82 43.6016 207.676 43.1536L207.58 42.0656C205.564 42.4816 203.5 42.9296 202.124 43.1696ZM207.724 35.8096V39.8096C207.724 42.3536 207.26 44.9776 203.036 46.7056C203.292 46.9136 203.676 47.3456 203.836 47.6176C208.348 45.6976 208.876 42.7376 208.876 39.8256V35.8096H207.724ZM204.94 37.6176C205.42 38.6096 205.9 39.8896 206.044 40.6896L207.036 40.3216C206.876 39.5216 206.364 38.2736 205.852 37.2976L204.94 37.6176ZM212.012 37.6496C212.62 38.6896 213.244 40.0816 213.452 40.9456L214.444 40.5296C214.204 39.6656 213.564 38.3056 212.924 37.2816L212.012 37.6496ZM215.02 34.1936V43.5856C215.02 43.8256 214.94 43.8896 214.7 43.9056C214.46 43.9056 213.612 43.9056 212.716 43.8736C212.876 44.2256 213.036 44.7696 213.052 45.1056C214.332 45.1056 215.116 45.0896 215.58 44.8816C216.06 44.6736 216.204 44.2896 216.204 43.6016V34.1936H215.02ZM210.412 34.1936V47.5056H211.58V35.2976H215.58V34.1936H210.412ZM208.316 32.8176C207.052 33.5376 204.94 34.4496 203.436 34.9296L204.236 35.7456C205.772 35.2336 207.804 34.4336 209.276 33.6336L208.316 32.8176ZM219.26 42.2416V43.3136H233.388V42.2416H219.26ZM225.644 35.6016V47.5376H226.86V35.6016H225.644ZM225.228 42.7216C223.852 44.1936 221.148 45.5856 218.828 46.2096C219.116 46.4656 219.468 46.9296 219.66 47.2336C221.964 46.4656 224.7 44.9296 226.22 43.2016L225.228 42.7216ZM227.324 42.6896L226.332 43.1216C227.804 44.9456 230.46 46.5296 232.924 47.2656C233.1 46.9456 233.468 46.4656 233.74 46.2256C231.292 45.6176 228.652 44.2416 227.324 42.6896ZM221.98 38.5456H230.732V40.1136H221.98V38.5456ZM221.98 36.0656H230.732V37.6336H221.98V36.0656ZM220.828 35.1216V41.0896H231.932V35.1216H220.828ZM230.876 32.8496C230.444 33.6016 229.644 34.6736 229.036 35.3616L229.98 35.7616C230.62 35.1216 231.436 34.1616 232.092 33.2656L230.876 32.8496ZM220.508 33.3136C221.148 33.9536 221.836 34.8496 222.124 35.4576L223.18 34.9456C222.876 34.3216 222.172 33.4576 221.516 32.8656L220.508 33.3136ZM224.796 33.1056C225.26 33.7776 225.756 34.6896 225.932 35.2816L227.052 34.8816C226.86 34.2736 226.348 33.3936 225.852 32.7376L224.796 33.1056ZM242.092 33.7456L240.62 33.6016C240.62 34.8336 240.396 36.2736 240.108 37.5376C239.676 39.5056 238.396 43.7776 236.572 46.2096L237.868 46.7376C239.676 43.8096 240.828 39.8256 241.372 37.5856C241.58 36.5936 241.804 35.2816 241.9 34.7056C241.964 34.3856 242.028 34.0496 242.092 33.7456ZM247.612 35.4576L246.444 35.9856C247.564 37.2976 248.812 40.1296 249.292 41.7776L250.524 41.1856C249.996 39.6976 248.604 36.7536 247.612 35.4576ZM236.332 37.2656L236.476 38.6416C236.876 38.5776 237.548 38.4976 237.916 38.4496C238.892 38.3536 241.884 38.0016 242.956 38.0016C243.98 38.0016 244.652 38.2736 244.652 39.7296C244.652 41.4576 244.412 43.5536 243.9 44.6256C243.564 45.3296 243.084 45.4576 242.492 45.4576C242.044 45.4576 241.212 45.3296 240.54 45.1216L240.748 46.4656C241.26 46.5776 242.012 46.6896 242.636 46.6896C243.66 46.6896 244.46 46.4336 244.972 45.3616C245.628 44.0336 245.884 41.4896 245.884 39.5856C245.884 37.4096 244.716 36.8656 243.292 36.8656C242.204 36.8656 238.956 37.2336 237.772 37.2656C237.26 37.2816 236.844 37.2816 236.332 37.2656ZM72.6862 65.6816L72.3662 66.9136C73.5982 67.2336 77.0542 67.9376 78.5902 68.1456L78.8942 66.9296C77.4702 66.7856 74.0622 66.1296 72.6862 65.6816ZM72.3342 68.6096L70.9902 68.4336C70.8942 70.0976 70.4942 73.4576 70.1742 74.9136L71.3742 75.2016C71.4702 74.9456 71.6142 74.6896 71.8542 74.4176C72.9742 73.0576 74.7022 72.2736 76.7982 72.2736C78.4302 72.2736 79.6302 73.1856 79.6302 74.4496C79.6302 76.6416 77.1662 78.0976 72.1102 77.4896L72.4942 78.7856C78.4302 79.2816 80.9742 77.3456 80.9742 74.4976C80.9742 72.6096 79.3422 71.1376 76.8942 71.1376C74.9742 71.1376 73.2142 71.7616 71.6782 73.1056C71.8382 72.0656 72.1262 69.6976 72.3342 68.6096ZM86.5262 77.3296V78.5136H97.8222V77.3296H86.5262ZM91.4382 64.8816V78.0016H92.6702V64.8816H91.4382ZM85.9342 72.8656V79.5216H87.1502V72.8656H85.9342ZM97.1822 72.8656V79.4736H98.4142V72.8656H97.1822ZM86.5582 66.3216V71.8416H97.7742V66.3216H96.5262V70.6736H87.7422V66.3216H86.5582ZM102.286 67.6016L102.43 69.0096C104.174 68.6416 108.238 68.2416 109.966 68.0656C108.494 68.9296 106.974 70.9616 106.974 73.4576C106.974 77.0416 110.334 78.6096 113.31 78.7216L113.758 77.4096C111.166 77.2976 108.238 76.3056 108.238 73.1856C108.238 71.2976 109.63 68.8496 111.918 68.1136C112.734 67.8896 114.126 67.8576 115.054 67.8736L115.038 66.5936C113.966 66.6256 112.478 66.7216 110.734 66.8656C107.774 67.1216 104.766 67.4096 103.726 67.5216C103.406 67.5536 102.894 67.5856 102.286 67.6016ZM120.122 67.2656L120.202 68.4336C122.49 68.6576 124.73 68.6576 126.346 68.4976C127.626 68.3856 128.986 68.1136 130.026 67.8096L129.85 66.6416C128.698 67.0256 127.386 67.2976 126.074 67.4096C124.442 67.5696 122.346 67.5376 120.122 67.2656ZM119.802 70.5456L119.882 71.7456C122.634 71.9536 125.594 71.9056 127.562 71.6496C128.906 71.4896 130.122 71.2496 131.002 71.0096L130.794 69.8256C129.946 70.0816 128.65 70.4016 127.13 70.5616C125.258 70.7856 122.538 70.8336 119.802 70.5456ZM125.274 67.0576C125.498 67.8576 125.738 68.7056 126.138 69.8096C126.602 71.1056 127.274 72.6416 128.154 74.0176C127.658 73.9536 126.618 73.8416 125.754 73.7616L125.658 74.7376C126.762 74.8496 128.25 75.0096 129.146 75.2336L129.818 74.2576C129.578 74.0496 129.386 73.8256 129.21 73.5696C128.378 72.3376 127.674 70.8016 127.242 69.5536C126.842 68.4176 126.346 66.8016 126.186 65.4576L124.826 65.6336C125.002 66.0976 125.146 66.5936 125.274 67.0576ZM122.138 74.0016L120.89 73.7296C120.522 74.4336 120.25 75.1056 120.25 76.0176C120.282 78.0816 122.042 79.0096 125.162 79.0096C126.538 79.0096 127.786 78.9136 128.906 78.7216L128.97 77.4576C127.802 77.6816 126.634 77.7936 125.146 77.7936C122.634 77.7936 121.466 77.1216 121.466 75.8096C121.466 75.0896 121.754 74.5456 122.138 74.0016ZM141.13 65.6496L139.61 65.5216C139.642 65.8576 139.61 66.4016 139.546 66.8496C139.434 67.6816 139.018 69.6976 138.634 71.1696C138.026 73.4256 136.906 76.6736 135.946 78.3376L137.338 78.8016C138.186 77.0576 139.258 73.7456 139.834 71.4736C140.282 69.8736 140.618 68.0656 140.858 66.9136C140.922 66.6096 141.034 66.0016 141.13 65.6496ZM137.594 68.3216C137.002 68.3216 136.426 68.2896 135.674 68.1936L135.706 69.4416C136.298 69.4896 136.858 69.5056 137.562 69.5056C139.29 69.5056 141.706 69.2336 143.69 68.7856V67.5376C141.706 68.0336 139.354 68.3216 137.594 68.3216ZM142.65 70.5136V71.7136C143.626 71.6016 144.618 71.5376 145.61 71.5376C146.554 71.5376 147.482 71.6336 148.314 71.7296L148.346 70.5136C147.482 70.4176 146.506 70.3856 145.578 70.3856C144.554 70.3856 143.482 70.4336 142.65 70.5136ZM142.97 74.4016L141.786 74.2896C141.642 74.9616 141.546 75.5696 141.546 76.1776C141.546 77.7616 142.922 78.5296 145.434 78.5296C146.602 78.5296 147.674 78.4336 148.538 78.3056L148.586 77.0256C147.594 77.2176 146.506 77.3296 145.45 77.3296C143.178 77.3296 142.746 76.5936 142.746 75.8416C142.746 75.4256 142.842 74.9296 142.97 74.4016ZM152.666 66.4336V75.4096H153.802V66.7856L152.666 66.4336ZM151.482 75.1696L151.754 76.3696C153.226 76.0336 155.178 75.6016 157.034 75.1536L156.938 74.0656C154.922 74.4816 152.858 74.9296 151.482 75.1696ZM157.082 67.8096V71.8096C157.082 74.3536 156.618 76.9776 152.394 78.7056C152.65 78.9136 153.034 79.3456 153.194 79.6176C157.706 77.6976 158.234 74.7376 158.234 71.8256V67.8096H157.082ZM154.298 69.6176C154.778 70.6096 155.258 71.8896 155.402 72.6896L156.394 72.3216C156.234 71.5216 155.722 70.2736 155.21 69.2976L154.298 69.6176ZM161.37 69.6496C161.978 70.6896 162.602 72.0816 162.81 72.9456L163.802 72.5296C163.562 71.6656 162.922 70.3056 162.282 69.2816L161.37 69.6496ZM164.378 66.1936V75.5856C164.378 75.8256 164.298 75.8896 164.058 75.9056C163.818 75.9056 162.97 75.9056 162.074 75.8736C162.234 76.2256 162.394 76.7696 162.41 77.1056C163.69 77.1056 164.474 77.0896 164.938 76.8816C165.418 76.6736 165.562 76.2896 165.562 75.6016V66.1936H164.378ZM159.77 66.1936V79.5056H160.938V67.2976H164.938V66.1936H159.77ZM157.674 64.8176C156.41 65.5376 154.298 66.4496 152.794 66.9296L153.594 67.7456C155.13 67.2336 157.162 66.4336 158.634 65.6336L157.674 64.8176ZM168.41 71.9376V73.1376H182.938V71.9376H168.41ZM175.066 69.3616V77.9536C175.066 78.2416 174.954 78.3216 174.618 78.3376C174.266 78.3536 173.082 78.3536 171.786 78.3056C171.994 78.6576 172.218 79.2016 172.314 79.5536C173.85 79.5536 174.89 79.5216 175.482 79.3296C176.09 79.1376 176.314 78.7696 176.314 77.9696V69.3616H175.066ZM170.058 65.9056V67.0896H180.506V65.9056H170.058ZM180.09 65.9056V66.1776C179.082 67.3136 176.954 68.8336 175.21 69.6656C175.45 69.8736 175.818 70.2576 175.994 70.5296C177.866 69.5696 180.138 67.9856 181.594 66.5136L180.682 65.8416L180.41 65.9056H180.09Z" fill="#5D504F"/>
<path d="M155.404 1.39359V3.26558H163.404V1.39359H155.404ZM155.42 5.21759V7.04159H163.484V5.21759H155.42ZM155.34 9.00959V10.8656H163.372V9.00959H155.34ZM154.092 1.39359V6.68959C154.092 9.13759 153.868 12.2256 151.436 14.2896C151.852 14.5456 152.636 15.2656 152.924 15.6656C155.628 13.3936 156.06 9.47359 156.06 6.68959V1.39359H154.092ZM162.508 1.39359V13.2016C162.508 13.5376 162.38 13.6496 162.012 13.6656C161.628 13.6656 160.3 13.6816 159.164 13.6176C159.484 14.1296 159.852 15.0576 159.964 15.6336C161.628 15.6336 162.764 15.6016 163.532 15.2656C164.268 14.9456 164.54 14.3696 164.54 13.2336V1.39359H162.508ZM174.652 1.37759V3.02559H181.5V1.37759H174.652ZM175.244 9.96959V11.6656H182.716V9.96959H175.244ZM174.268 13.5376V15.2336H183.388V13.5376H174.268ZM180.94 1.37759V1.68159C179.996 4.52959 177.324 6.49759 174.14 7.31359C174.508 7.69759 174.972 8.43359 175.196 8.91359C178.796 7.77759 181.676 5.66559 182.94 1.87359L181.66 1.31359L181.308 1.37759H180.94ZM177.132 2.81758L175.452 3.36159C176.86 6.09759 179.212 7.95359 182.444 8.81759C182.7 8.35359 183.212 7.63359 183.612 7.26559C180.572 6.60959 178.236 5.00959 177.132 2.81758ZM177.964 8.06559V14.6256H179.852V8.06559H177.964ZM170.78 0.657585C170.412 1.77759 169.724 3.31359 169.148 4.25759L170.428 4.81759C171.052 3.92159 171.788 2.49759 172.444 1.28159L170.78 0.657585ZM172.62 2.54559C171.788 4.27359 170.316 6.62559 169.132 8.08159L170.236 8.70559C171.452 7.31359 173.02 5.08959 174.172 3.24959L172.62 2.54559ZM168.316 4.44959C169.132 5.21759 170.108 6.33759 170.492 7.10559L171.484 5.61759C171.068 4.88159 170.076 3.87359 169.228 3.13759L168.316 4.44959ZM172.14 6.36959C172.748 7.47359 173.292 8.92959 173.468 9.85759L174.828 9.24959C174.636 8.32159 174.028 6.91359 173.404 5.84159L172.14 6.36959ZM168.3 7.69759L168.46 9.37759C170.012 9.26559 172.06 9.13759 174.028 8.99359L174.044 7.47359C171.932 7.56959 169.772 7.64959 168.3 7.69759ZM172.492 10.3536C172.844 11.2976 173.26 12.5296 173.42 13.3296L174.828 12.8336C174.652 12.0336 174.236 10.8336 173.836 9.92159L172.492 10.3536ZM168.988 10.0496C168.86 11.4096 168.604 12.8336 168.14 13.7776C168.54 13.9376 169.26 14.2736 169.596 14.4816C170.06 13.4576 170.412 11.8576 170.572 10.3216L168.988 10.0496ZM170.78 8.54559V15.6816H172.46V8.54559H170.78ZM195.308 8.14559C195.308 11.5696 196.732 14.1296 198.46 15.8416L199.98 15.1536C198.364 13.4416 197.116 11.2176 197.116 8.14559C197.116 5.08959 198.364 2.86559 199.98 1.15359L198.46 0.465586C196.732 2.17759 195.308 4.73759 195.308 8.14559ZM204.812 3.53759V5.40959H215.948V3.53759H204.812ZM204.156 8.25759V10.0976H215.34V8.25759H204.156ZM202.3 13.3296V15.2016H216.764V13.3296H202.3ZM208.524 0.641585V14.2576H210.524V0.641585H208.524ZM204.828 0.833586C204.252 3.04158 203.228 5.24959 201.964 6.59359C202.46 6.86559 203.308 7.42559 203.692 7.76159C204.94 6.22559 206.108 3.76159 206.812 1.28159L204.828 0.833586ZM226.508 5.79359H231.356V7.16959H226.508V5.79359ZM226.508 2.94559H231.356V4.28959H226.508V2.94559ZM224.78 1.31359V8.78559H233.18V1.31359H224.78ZM224.668 10.1616V11.8896H233.356V10.1616H224.668ZM223.548 13.4256V15.1536H233.884V13.4256H223.548ZM218.86 1.55359V3.34559H224.172V1.55359H218.86ZM219.02 6.16159V7.93759H223.9V6.16159H219.02ZM218.684 12.2416L219.116 14.1936C220.652 13.6976 222.572 13.0736 224.364 12.4656L224.028 10.6256C222.108 11.2496 220.06 11.8896 218.684 12.2416ZM220.636 2.25759V12.3856L222.46 12.0976V2.25759H220.636ZM228.156 2.00159V8.03359H227.98V14.2416H229.948V8.03359H229.772V2.00159H228.156ZM240.476 8.14559C240.476 4.73759 239.052 2.17759 237.324 0.465586L235.804 1.15359C237.42 2.86559 238.668 5.08959 238.668 8.14559C238.668 11.2176 237.42 13.4416 235.804 15.1536L237.324 15.8416C239.052 14.1296 240.476 11.5696 240.476 8.14559Z" fill="#E06363"/>
</svg>
