<svg width="384" height="80" viewBox="0 0 384 80" fill="none" xmlns="http://www.w3.org/2000/svg">
<path d="M128.31 0.415999V15.44H130.246V0.415999H128.31ZM126.966 3.488C126.854 4.816 126.582 6.608 126.182 7.696L127.606 8.192C127.99 6.976 128.262 5.072 128.342 3.68L126.966 3.488ZM129.862 3.616C130.278 4.48 130.71 5.6 130.854 6.304L132.23 5.648C132.07 4.976 131.606 3.888 131.158 3.056L129.862 3.616ZM132.902 1.152C132.646 3.296 132.118 5.472 131.27 6.816C131.734 7.008 132.598 7.424 132.982 7.696C133.814 6.192 134.438 3.824 134.758 1.44L132.902 1.152ZM133.462 3.648L132.918 5.472H140.854V3.648H133.462ZM135.654 0.511999V14.16H137.574V0.511999H135.654ZM132.55 8.096V9.888H140.518V8.096H132.55ZM131.35 13.104V14.928H141.35V13.104H131.35ZM152.63 7.024C151.222 10.8 147.926 12.768 143.222 13.664C143.606 14.112 144.214 15.008 144.438 15.488C149.286 14.288 152.838 12 154.694 7.6L152.63 7.024ZM147.478 4.256C146.55 5.504 144.918 6.736 143.398 7.488C143.878 7.84 144.646 8.576 145.014 8.992C146.518 8.048 148.31 6.512 149.462 5.024L147.478 4.256ZM148.902 7.104L147.062 7.648C148.87 11.936 151.83 14.464 157.03 15.456C157.302 14.912 157.862 14.048 158.294 13.616C153.382 12.848 150.326 10.64 148.902 7.104ZM143.638 2.256V4.144H157.83V2.256H143.638ZM149.718 0.384V3.488H151.686V0.384H149.718ZM152.262 5.264C153.702 6.288 155.542 7.808 156.358 8.832L158.07 7.504C157.142 6.464 155.254 5.04 153.846 4.096L152.262 5.264ZM165.478 1.312L162.902 1.296C163.03 1.92 163.094 2.688 163.094 3.456C163.094 4.832 162.95 9.024 162.95 11.168C162.95 13.904 164.63 15.056 167.254 15.056C170.902 15.056 173.174 12.928 174.214 11.392L172.758 9.616C171.59 11.36 169.926 12.88 167.286 12.88C166.038 12.88 165.078 12.352 165.078 10.736C165.078 8.752 165.19 5.184 165.27 3.456C165.302 2.816 165.382 1.984 165.478 1.312ZM176.994 3.008L177.202 5.2C179.058 4.784 182.322 4.448 183.826 4.288C182.738 5.104 181.442 6.912 181.442 9.216C181.442 12.688 184.61 14.496 187.97 14.704L188.706 12.512C186.002 12.368 183.538 11.424 183.538 8.784C183.538 6.896 184.994 4.816 186.914 4.304C187.778 4.112 189.154 4.096 190.018 4.096L190.002 2.032C188.866 2.08 187.122 2.176 185.474 2.32C182.53 2.576 179.906 2.8 178.562 2.928C178.258 2.96 177.618 2.992 176.994 3.008ZM196.802 2.576L194.338 2.544C194.45 3.04 194.466 3.728 194.466 4.16C194.466 5.136 194.482 7.024 194.642 8.496C195.09 12.784 196.61 14.352 198.386 14.352C199.666 14.352 200.658 13.392 201.73 10.592L200.114 8.656C199.81 9.92 199.186 11.808 198.418 11.808C197.41 11.808 196.93 10.224 196.706 7.92C196.61 6.752 196.61 5.568 196.61 4.528C196.61 4.08 196.69 3.136 196.802 2.576ZM204.802 2.928L202.77 3.6C204.514 5.584 205.378 9.456 205.618 12.048L207.73 11.216C207.554 8.768 206.322 4.768 204.802 2.928ZM212.978 1.824L213.042 3.904C213.41 3.84 213.906 3.808 214.338 3.776C215.202 3.712 217.41 3.632 218.226 3.6C217.442 4.304 215.762 5.648 214.866 6.384C213.938 7.168 212.002 8.8 210.866 9.696L212.322 11.2C214.034 9.264 215.618 7.952 218.082 7.952C219.954 7.952 221.394 8.928 221.394 10.384C221.394 12.096 220.018 13.12 217.314 13.12C216.338 13.12 215.682 12.72 215.682 12.128C215.682 11.712 216.082 11.344 216.674 11.344C217.618 11.344 218.226 12.144 218.258 13.296L220.13 13.056C220.082 11.296 218.866 9.824 216.674 9.824C214.978 9.824 213.794 11.008 213.794 12.304C213.794 13.92 215.474 14.928 217.698 14.928C221.57 14.928 223.49 12.928 223.49 10.4C223.49 8.08 221.426 6.384 218.706 6.384C218.21 6.384 217.73 6.416 217.186 6.56C218.21 5.76 219.89 4.352 220.754 3.744C221.106 3.472 221.49 3.248 221.858 3.008L220.834 1.568C220.642 1.632 220.274 1.696 219.602 1.744C218.69 1.824 215.282 1.904 214.418 1.904C213.97 1.904 213.426 1.872 212.978 1.824ZM228.45 2.624V4.736H240.066V2.624H228.45ZM227.122 11.904V14.112H241.41V11.904H227.122ZM249.714 0.799999C249.602 2.896 249.826 10.208 243.394 13.776C244.05 14.224 244.674 14.816 245.01 15.312C251.554 11.296 251.762 3.488 251.906 0.799999H249.714ZM251.842 1.216L249.986 1.408C250.114 3.056 250.418 11.872 257.314 15.296C257.602 14.768 258.178 14.128 258.786 13.664C252.226 10.592 251.89 2.608 251.842 1.216Z" fill="#E06363"/>
<path d="M11.3624 36.4C11.3624 35.76 11.8904 35.232 12.5304 35.232C13.1864 35.232 13.6984 35.76 13.6984 36.4C13.6984 37.056 13.1864 37.584 12.5304 37.584C11.8904 37.584 11.3624 37.056 11.3624 36.4ZM10.5944 36.4C10.5944 37.472 11.4584 38.352 12.5304 38.352C13.6024 38.352 14.4824 37.472 14.4824 36.4C14.4824 35.328 13.6024 34.464 12.5304 34.464C11.4584 34.464 10.5944 35.328 10.5944 36.4ZM0.946434 41.792L2.13043 43.008C2.38643 42.688 2.72243 42.192 3.05843 41.776C3.77843 40.896 5.12243 39.136 5.89043 38.208C6.43443 37.536 6.73843 37.488 7.36243 38.08C8.03443 38.752 9.50643 40.336 10.4344 41.376C11.4744 42.544 12.8824 44.192 14.0184 45.568L15.1224 44.4C13.8904 43.072 12.2904 41.344 11.2024 40.192C10.2744 39.2 8.89843 37.76 7.92243 36.848C6.83443 35.808 6.08243 35.984 5.23443 36.992C4.22643 38.192 2.83443 39.968 2.06643 40.736C1.65043 41.152 1.34643 41.44 0.946434 41.792ZM19.7464 35.584V37.024C20.2264 37.008 20.7704 36.992 21.3144 36.992C22.0984 36.992 27.3784 36.992 28.1784 36.992C28.7064 36.992 29.3144 37.008 29.7464 37.024V35.584C29.3144 35.632 28.7544 35.664 28.1784 35.664C27.3624 35.664 22.3224 35.664 21.3144 35.664C20.7864 35.664 20.2584 35.632 19.7464 35.584ZM18.3704 43.52V45.056C18.8984 45.008 19.4584 44.976 20.0504 44.976C20.9624 44.976 28.7064 44.976 29.6344 44.976C30.0504 44.976 30.6104 45.008 31.0904 45.056V43.52C30.6264 43.568 30.0984 43.6 29.6344 43.6C28.7064 43.6 20.9624 43.6 20.0504 43.6C19.4584 43.6 18.9144 43.552 18.3704 43.52ZM46.4824 35.312L45.6824 34.688C45.4264 34.768 44.9944 34.816 44.4824 34.816C43.8744 34.816 38.9304 34.816 38.3064 34.816C37.8104 34.816 36.8984 34.752 36.6904 34.72V36.16C36.8664 36.144 37.7304 36.08 38.3064 36.08C38.8504 36.08 43.9704 36.08 44.5464 36.08C44.1304 37.408 42.9624 39.312 41.8744 40.544C40.2264 42.368 37.8744 44.288 35.2824 45.28L36.3064 46.352C38.8344 45.2 41.1224 43.296 42.9144 41.296C44.2424 39.824 45.4584 37.584 46.0984 36C46.1784 35.792 46.3864 35.44 46.4824 35.312ZM43.1224 40.464L42.2104 41.36C43.9384 42.88 45.8104 44.928 46.9624 46.448L48.0664 45.472C46.9784 44.144 44.8504 41.904 43.1224 40.464ZM57.4904 33.52L56.0184 33.376C56.0184 34.608 55.7944 36.048 55.5064 37.312C55.0744 39.28 53.7944 43.552 51.9704 45.984L53.2664 46.512C55.0744 43.584 56.2264 39.6 56.7704 37.36C56.9784 36.368 57.2024 35.056 57.2984 34.48C57.3624 34.16 57.4264 33.824 57.4904 33.52ZM63.0104 35.232L61.8424 35.76C62.9624 37.072 64.2104 39.904 64.6904 41.552L65.9224 40.96C65.3944 39.472 64.0024 36.528 63.0104 35.232ZM51.7304 37.04L51.8744 38.416C52.2744 38.352 52.9464 38.272 53.3144 38.224C54.2904 38.128 57.2824 37.776 58.3544 37.776C59.3784 37.776 60.0504 38.048 60.0504 39.504C60.0504 41.232 59.8104 43.328 59.2984 44.4C58.9624 45.104 58.4824 45.232 57.8904 45.232C57.4424 45.232 56.6104 45.104 55.9384 44.896L56.1464 46.24C56.6584 46.352 57.4104 46.464 58.0344 46.464C59.0584 46.464 59.8584 46.208 60.3704 45.136C61.0264 43.808 61.2824 41.264 61.2824 39.36C61.2824 37.184 60.1144 36.64 58.6904 36.64C57.6024 36.64 54.3544 37.008 53.1704 37.04C52.6584 37.056 52.2424 37.056 51.7304 37.04ZM72.6424 33.456L72.3224 34.688C73.5544 35.008 77.0104 35.712 78.5464 35.92L78.8504 34.704C77.4264 34.56 74.0184 33.904 72.6424 33.456ZM72.2904 36.384L70.9464 36.208C70.8504 37.872 70.4504 41.232 70.1304 42.688L71.3304 42.976C71.4264 42.72 71.5704 42.464 71.8104 42.192C72.9304 40.832 74.6584 40.048 76.7544 40.048C78.3864 40.048 79.5864 40.96 79.5864 42.224C79.5864 44.416 77.1224 45.872 72.0664 45.264L72.4504 46.56C78.3864 47.056 80.9304 45.12 80.9304 42.272C80.9304 40.384 79.2984 38.912 76.8504 38.912C74.9304 38.912 73.1704 39.536 71.6344 40.88C71.7944 39.84 72.0824 37.472 72.2904 36.384ZM90.8664 33.472L89.4264 33.408C89.4584 33.84 89.4264 34.224 89.3624 34.736C89.1704 36.272 88.3224 40.24 87.1064 42.624L88.2904 43.04C88.4504 42.768 88.5944 42.544 88.7864 42.304C89.8424 41.04 91.6184 40.384 93.5224 40.384C95.3944 40.384 96.3704 41.312 96.3704 42.496C96.3704 45.136 92.7864 45.76 89.0744 45.248L89.4104 46.528C94.2744 47.04 97.6824 45.808 97.6824 42.464C97.6824 40.592 96.1944 39.296 93.6504 39.296C91.9864 39.296 90.5464 39.696 89.1544 40.672C89.6984 39.184 90.3384 36.096 90.5624 34.816C90.6584 34.4 90.7384 33.904 90.8664 33.472ZM85.8904 35.52L85.9064 36.768C86.8184 36.848 87.8424 36.928 88.9304 36.928C91.1224 36.928 94.3864 36.608 96.6584 36.208L96.6264 34.976C94.1144 35.536 90.9624 35.776 88.9144 35.776C87.9544 35.776 86.7384 35.664 85.8904 35.52ZM102.05 37.648L102.642 39.072C103.922 38.56 107.986 36.8 110.626 36.8C112.786 36.8 114.018 38.128 114.018 39.808C114.018 43.072 110.274 44.352 106.098 44.464L106.674 45.792C111.602 45.504 115.41 43.664 115.41 39.824C115.41 37.152 113.298 35.616 110.658 35.616C108.322 35.616 105.17 36.768 103.826 37.2C103.218 37.376 102.642 37.552 102.05 37.648ZM118.578 41.616L119.762 42.832C120.018 42.496 120.386 42.016 120.706 41.584C121.522 40.592 122.834 38.832 123.586 37.904C124.13 37.232 124.434 37.104 125.122 37.856C125.858 38.672 127.09 40.224 128.13 41.392C129.218 42.64 130.674 44.272 131.89 45.424L132.914 44.256C131.474 42.976 129.874 41.296 128.914 40.24C127.89 39.136 126.658 37.552 125.698 36.576C124.642 35.488 123.81 35.648 122.882 36.752C121.922 37.872 120.594 39.696 119.73 40.56C119.314 40.992 118.978 41.312 118.578 41.616ZM137.41 32.608V47.264H138.498V32.608H137.41ZM135.138 37.936V39.072H140.29V37.936H135.138ZM137.346 38.528C136.914 40.384 135.906 42.816 134.962 44.064C135.17 44.4 135.474 44.928 135.602 45.296C136.61 43.824 137.602 41.008 138.098 38.864L137.346 38.528ZM138.466 39.376L137.874 39.84C138.322 40.528 139.442 42.512 139.778 43.344L140.578 42.416C140.274 41.904 138.866 39.84 138.466 39.376ZM135.314 33.808C135.73 34.912 136.098 36.384 136.194 37.328L137.074 37.104C136.962 36.16 136.594 34.72 136.13 33.6L135.314 33.808ZM139.746 33.536C139.522 34.624 139.074 36.192 138.722 37.136L139.458 37.376C139.874 36.48 140.354 34.976 140.754 33.792L139.746 33.536ZM141.298 33.872V34.784H149.442V33.872H141.298ZM141.698 35.776V36.656H149.09V35.776H141.698ZM140.85 37.744V38.672H149.842V37.744H140.85ZM144.658 32.576V38.256H145.81V32.576H144.658ZM141.858 39.648V47.264H142.994V40.56H148.018V39.648H141.858ZM147.65 39.648V46.048C147.65 46.224 147.602 46.288 147.394 46.288C147.186 46.288 146.53 46.288 145.81 46.272C145.954 46.56 146.098 46.976 146.162 47.264C147.154 47.264 147.826 47.264 148.242 47.104C148.674 46.928 148.786 46.624 148.786 46.048V39.648H147.65ZM142.466 41.744V42.608H148.114V41.744H142.466ZM142.466 43.808V44.672H148.114V43.808H142.466ZM161.554 39.632C162.13 40.16 162.77 40.896 163.042 41.408L163.698 40.832C163.41 40.352 162.77 39.632 162.194 39.136L161.554 39.632ZM156.034 34.336V35.472H166.594V34.336H156.034ZM161.202 37.648V38.64H165.202V37.648H161.202ZM160.578 32.56V34.848H161.778V32.56H160.578ZM158.146 35.696C157.57 37.472 156.402 39.696 155.042 41.104C155.298 41.296 155.666 41.632 155.858 41.856C157.282 40.32 158.53 38 159.282 36.016L158.146 35.696ZM161.394 35.712C160.866 37.584 159.714 39.824 158.306 41.248C158.53 41.424 158.898 41.776 159.074 42C160.578 40.448 161.794 38.064 162.514 35.984L161.394 35.712ZM164.962 37.648V37.872C164.114 42.224 161.538 45.104 158.498 46.384C158.754 46.608 159.058 47.024 159.202 47.296C162.466 45.776 165.106 42.832 166.098 37.872L165.362 37.6L165.17 37.648H164.962ZM152.658 33.552C153.57 34.032 154.674 34.784 155.202 35.328L155.922 34.368C155.362 33.84 154.258 33.136 153.346 32.704L152.658 33.552ZM151.922 37.92C152.834 38.304 153.954 38.96 154.498 39.472L155.202 38.48C154.626 37.984 153.506 37.392 152.578 37.024L151.922 37.92ZM152.274 46.512L153.362 47.184C154.034 45.696 154.818 43.728 155.378 42.064L154.434 41.392C153.794 43.2 152.898 45.264 152.274 46.512ZM160.77 39.392L159.842 39.664C160.994 43.12 163.186 45.888 166.114 47.248C166.29 46.96 166.642 46.528 166.882 46.304C164.018 45.136 161.826 42.528 160.77 39.392ZM157.122 38.88V47.28H158.194V37.856L158.146 37.84L157.122 38.88ZM175.458 33.36L174.146 33.248C174.098 34 173.874 34.96 173.522 35.84C172.978 37.2 171.906 39.056 169.602 41.264L170.706 42.08C171.234 41.424 171.682 40.848 172.146 40.4C172.882 39.744 173.89 39.232 174.914 39.232C175.746 39.232 176.386 39.664 176.402 40.592C176.418 41.424 176.402 43.072 176.338 43.92H177.57C177.554 42.928 177.522 41.088 177.522 40.256C177.522 38.96 176.562 38.224 175.33 38.224C174.626 38.224 173.714 38.448 173.09 38.816C173.73 37.984 174.322 36.912 174.722 35.936C175.138 34.864 175.314 33.984 175.458 33.36ZM169.97 35.088V36.288C170.866 36.352 171.922 36.384 172.61 36.384C174.642 36.384 177.618 36.24 179.858 35.904V34.72C177.602 35.12 174.834 35.248 172.674 35.248C171.938 35.248 170.834 35.2 169.97 35.088ZM182.194 38.944L181.682 37.76C181.234 37.984 180.834 38.16 180.354 38.384C179.298 38.88 178.002 39.376 176.482 40.16C174.578 41.136 172.594 42.336 172.594 44.288C172.594 46.224 174.434 46.72 176.706 46.72C178.098 46.72 179.874 46.592 181.09 46.448L181.138 45.152C179.73 45.408 178.002 45.552 176.754 45.552C175.106 45.552 173.874 45.36 173.874 44.112C173.874 43.008 174.994 42.144 176.578 41.312C178.13 40.512 179.65 39.904 180.786 39.456C181.218 39.296 181.794 39.072 182.194 38.944ZM189.986 38.912V40.016H200.082V38.912H189.986ZM190.498 35.616V36.688H199.602V35.616H190.498ZM194.274 36.112V38.496C194.274 40.144 193.986 42.496 190.098 44.064C190.37 44.272 190.738 44.688 190.898 44.944C194.93 43.136 195.474 40.512 195.474 38.512V36.112H194.274ZM195.81 39.616L194.77 39.84C195.474 42.448 196.93 44.176 199.346 45.024C199.506 44.704 199.842 44.24 200.114 44C197.826 43.344 196.418 41.856 195.81 39.616ZM189.074 38.88H185.666V40H187.906V44.544H189.074V38.88ZM189.074 44.016H187.986C187.17 44.704 186.226 45.408 185.458 45.92L186.098 47.152C186.962 46.448 187.778 45.76 188.546 45.072C189.57 46.336 191.01 46.896 193.09 46.976C194.866 47.04 198.178 47.008 199.938 46.944C199.986 46.576 200.194 46 200.322 45.712C198.434 45.84 194.834 45.888 193.09 45.824C191.25 45.744 189.826 45.2 189.074 44.016ZM185.842 33.68C186.882 34.384 188.082 35.472 188.594 36.24L189.538 35.456C188.994 34.672 187.778 33.632 186.722 32.96L185.842 33.68ZM197.506 32.56C197.17 33.376 196.514 34.528 196.018 35.248L196.994 35.616C197.522 34.944 198.178 33.888 198.722 32.976L197.506 32.56ZM191.122 33.04C191.746 33.84 192.338 34.944 192.546 35.664L193.634 35.184C193.41 34.448 192.786 33.392 192.146 32.624L191.122 33.04ZM205.506 34.224L205.538 35.536C205.89 35.488 206.242 35.472 206.61 35.44C207.442 35.392 210.642 35.264 211.49 35.216C210.69 35.936 208.674 37.616 207.778 38.352C206.866 39.136 204.802 40.864 203.474 41.952L204.402 42.88C206.418 40.816 207.858 39.696 210.514 39.696C212.61 39.696 214.114 40.864 214.114 42.448C214.114 44.448 212.402 45.568 209.682 45.568C208.418 45.568 207.538 45.104 207.538 44.32C207.538 43.76 208.098 43.312 208.834 43.312C210.114 43.312 210.898 44.288 210.994 45.648L212.146 45.456C212.034 43.84 210.962 42.336 208.834 42.336C207.362 42.336 206.37 43.328 206.37 44.416C206.37 45.76 207.698 46.704 209.874 46.704C213.266 46.704 215.394 45.024 215.394 42.448C215.394 40.288 213.49 38.704 210.834 38.704C210.114 38.704 209.346 38.784 208.61 39.024C209.858 38 212.034 36.128 212.818 35.52C213.122 35.28 213.442 35.072 213.73 34.88L212.994 33.936C212.818 34 212.594 34.032 212.114 34.08C211.266 34.16 207.474 34.272 206.626 34.272C206.306 34.272 205.858 34.256 205.506 34.224ZM222.866 46.896L223.954 45.968C222.946 44.8 221.506 43.36 220.354 42.432L219.314 43.344C220.45 44.272 221.826 45.632 222.866 46.896ZM238.21 32.608V47.264H239.298V32.608H238.21ZM235.938 37.936V39.072H241.09V37.936H235.938ZM238.146 38.528C237.714 40.384 236.706 42.816 235.762 44.064C235.97 44.4 236.274 44.928 236.402 45.296C237.41 43.824 238.402 41.008 238.898 38.864L238.146 38.528ZM239.266 39.376L238.674 39.84C239.122 40.528 240.242 42.512 240.578 43.344L241.378 42.416C241.074 41.904 239.666 39.84 239.266 39.376ZM236.114 33.808C236.53 34.912 236.898 36.384 236.994 37.328L237.874 37.104C237.762 36.16 237.394 34.72 236.93 33.6L236.114 33.808ZM240.546 33.536C240.322 34.624 239.874 36.192 239.522 37.136L240.258 37.376C240.674 36.48 241.154 34.976 241.554 33.792L240.546 33.536ZM242.098 33.872V34.784H250.242V33.872H242.098ZM242.498 35.776V36.656H249.89V35.776H242.498ZM241.65 37.744V38.672H250.642V37.744H241.65ZM245.458 32.576V38.256H246.61V32.576H245.458ZM242.658 39.648V47.264H243.794V40.56H248.818V39.648H242.658ZM248.45 39.648V46.048C248.45 46.224 248.402 46.288 248.194 46.288C247.986 46.288 247.33 46.288 246.61 46.272C246.754 46.56 246.898 46.976 246.962 47.264C247.954 47.264 248.626 47.264 249.042 47.104C249.474 46.928 249.586 46.624 249.586 46.048V39.648H248.45ZM243.266 41.744V42.608H248.914V41.744H243.266ZM243.266 43.808V44.672H248.914V43.808H243.266ZM252.85 39.712V40.912H267.378V39.712H252.85ZM259.506 37.136V45.728C259.506 46.016 259.394 46.096 259.058 46.112C258.706 46.128 257.522 46.128 256.226 46.08C256.434 46.432 256.658 46.976 256.754 47.328C258.29 47.328 259.33 47.296 259.922 47.104C260.53 46.912 260.754 46.544 260.754 45.744V37.136H259.506ZM254.498 33.68V34.864H264.946V33.68H254.498ZM264.53 33.68V33.952C263.522 35.088 261.394 36.608 259.65 37.44C259.89 37.648 260.258 38.032 260.434 38.304C262.306 37.344 264.578 35.76 266.034 34.288L265.122 33.616L264.85 33.68H264.53ZM275.266 36.544L275.282 37.76C276.21 37.824 277.042 37.856 277.97 37.856C279.842 37.856 281.794 37.728 283.49 37.44V36.208C281.874 36.544 279.906 36.688 277.986 36.688C277.042 36.688 276.178 36.64 275.266 36.544ZM280.866 33.68H279.426C279.474 33.968 279.49 34.384 279.49 34.672C279.49 35.232 279.506 36.24 279.506 37.344C279.506 39.456 279.714 42.448 279.714 43.6C279.714 44.672 279.33 45.344 277.986 45.344C276.818 45.344 276.034 44.912 276.034 44.08C276.034 43.312 276.866 42.784 278.066 42.784C280.098 42.784 281.714 43.872 283.394 45.44L284.082 44.384C282.738 43.168 280.866 41.808 278.178 41.808C276.066 41.808 274.882 42.864 274.882 44.208C274.882 45.648 276.05 46.512 278.194 46.512C280.354 46.512 280.962 45.232 280.962 43.92C280.962 42.272 280.722 39.776 280.722 37.312C280.722 36.368 280.738 35.232 280.77 34.64C280.786 34.336 280.818 34 280.866 33.68ZM272.978 33.792L271.57 33.664C271.554 34.016 271.522 34.432 271.458 34.816C271.266 36.128 270.722 39.184 270.722 41.536C270.722 43.696 271.026 45.456 271.33 46.608L272.466 46.512C272.45 46.352 272.434 46.112 272.418 45.952C272.402 45.776 272.434 45.456 272.482 45.232C272.642 44.448 273.234 42.816 273.634 41.696L272.978 41.184C272.706 41.84 272.306 42.816 272.05 43.552C271.938 42.768 271.89 42.096 271.89 41.312C271.89 39.52 272.37 36.352 272.69 34.864C272.754 34.576 272.882 34.048 272.978 33.792ZM292.466 33.472L291.026 33.408C291.058 33.84 291.026 34.224 290.962 34.736C290.77 36.272 289.922 40.24 288.706 42.624L289.89 43.04C290.05 42.768 290.194 42.544 290.386 42.304C291.442 41.04 293.218 40.384 295.122 40.384C296.994 40.384 297.97 41.312 297.97 42.496C297.97 45.136 294.386 45.76 290.674 45.248L291.01 46.528C295.874 47.04 299.282 45.808 299.282 42.464C299.282 40.592 297.794 39.296 295.25 39.296C293.586 39.296 292.146 39.696 290.754 40.672C291.298 39.184 291.938 36.096 292.162 34.816C292.258 34.4 292.338 33.904 292.466 33.472ZM287.49 35.52L287.506 36.768C288.418 36.848 289.442 36.928 290.53 36.928C292.722 36.928 295.986 36.608 298.258 36.208L298.226 34.976C295.714 35.536 292.562 35.776 290.514 35.776C289.554 35.776 288.338 35.664 287.49 35.52ZM303.65 37.648L304.242 39.072C305.522 38.56 309.586 36.8 312.226 36.8C314.386 36.8 315.618 38.128 315.618 39.808C315.618 43.072 311.874 44.352 307.698 44.464L308.274 45.792C313.202 45.504 317.01 43.664 317.01 39.824C317.01 37.152 314.898 35.616 312.258 35.616C309.922 35.616 306.77 36.768 305.426 37.2C304.818 37.376 304.242 37.552 303.65 37.648ZM326.658 33.36L325.346 33.248C325.298 34 325.074 34.96 324.722 35.84C324.178 37.2 323.106 39.056 320.802 41.264L321.906 42.08C322.434 41.424 322.882 40.848 323.346 40.4C324.082 39.744 325.09 39.232 326.114 39.232C326.946 39.232 327.586 39.664 327.602 40.592C327.618 41.424 327.602 43.072 327.538 43.92H328.77C328.754 42.928 328.722 41.088 328.722 40.256C328.722 38.96 327.762 38.224 326.53 38.224C325.826 38.224 324.914 38.448 324.29 38.816C324.93 37.984 325.522 36.912 325.922 35.936C326.338 34.864 326.514 33.984 326.658 33.36ZM321.17 35.088V36.288C322.066 36.352 323.122 36.384 323.81 36.384C325.842 36.384 328.818 36.24 331.058 35.904V34.72C328.802 35.12 326.034 35.248 323.874 35.248C323.138 35.248 322.034 35.2 321.17 35.088ZM333.394 38.944L332.882 37.76C332.434 37.984 332.034 38.16 331.554 38.384C330.498 38.88 329.202 39.376 327.682 40.16C325.778 41.136 323.794 42.336 323.794 44.288C323.794 46.224 325.634 46.72 327.906 46.72C329.298 46.72 331.074 46.592 332.29 46.448L332.338 45.152C330.93 45.408 329.202 45.552 327.954 45.552C326.306 45.552 325.074 45.36 325.074 44.112C325.074 43.008 326.194 42.144 327.778 41.312C329.33 40.512 330.85 39.904 331.986 39.456C332.418 39.296 332.994 39.072 333.394 38.944ZM340.226 38.88H336.754V40H339.09V44.544H340.226V38.88ZM340.226 44.064H339.186C338.338 44.752 337.346 45.472 336.546 45.968L337.138 47.152C338.05 46.464 338.914 45.76 339.73 45.072C340.722 46.336 342.178 46.896 344.274 46.976C346.066 47.056 349.49 47.024 351.266 46.944C351.33 46.592 351.506 46.032 351.65 45.76C349.73 45.888 346.034 45.936 344.274 45.856C342.386 45.792 341.01 45.248 340.226 44.064ZM337.026 33.68C338.034 34.432 339.202 35.568 339.698 36.352L340.61 35.52C340.082 34.736 338.882 33.648 337.858 32.928L337.026 33.68ZM343.426 35.248C344.978 35.84 346.962 36.752 347.97 37.376L348.786 36.624C347.714 35.984 345.698 35.104 344.194 34.576L343.426 35.248ZM341.906 36.592V44.88H343.042V37.52H350.178V36.592H341.906ZM349.602 36.592V43.664C349.602 43.872 349.554 43.936 349.346 43.936C349.138 43.936 348.466 43.952 347.714 43.92C347.858 44.192 348.002 44.608 348.05 44.912C349.122 44.912 349.794 44.912 350.21 44.72C350.642 44.544 350.754 44.272 350.754 43.68V36.592H349.602ZM341.906 33.232V34.192H349.89V33.232H341.906ZM342.53 38.928V39.824H350.066V38.928H342.53ZM342.53 41.28V42.208H350.066V41.28H342.53ZM345.73 36.976V44.816H346.818V36.976H345.73ZM349.49 33.232V33.456C348.77 34.208 347.282 35.136 345.97 35.648C346.146 35.824 346.45 36.144 346.61 36.352C348.066 35.744 349.682 34.752 350.754 33.744L350.018 33.168L349.762 33.232H349.49ZM355.458 39.616L356.002 40.944C357.026 40.528 360.53 39.072 362.498 39.072C364.146 39.072 365.218 40.08 365.218 41.44C365.218 44.048 362.178 45.04 358.706 45.136L359.234 46.368C363.538 46.112 366.514 44.544 366.514 41.456C366.514 39.28 364.866 37.92 362.594 37.92C360.722 37.92 358.082 38.88 356.946 39.232C356.45 39.392 355.922 39.536 355.458 39.616ZM370.246 35.376L370.39 36.784C372.134 36.416 376.198 36.016 377.926 35.84C376.454 36.704 374.934 38.736 374.934 41.232C374.934 44.816 378.294 46.384 381.27 46.496L381.718 45.184C379.126 45.072 376.198 44.08 376.198 40.96C376.198 39.072 377.59 36.624 379.878 35.888C380.694 35.664 382.086 35.632 383.014 35.648L382.998 34.368C381.926 34.4 380.438 34.496 378.694 34.64C375.734 34.896 372.726 35.184 371.686 35.296C371.366 35.328 370.854 35.36 370.246 35.376ZM67.652 71.712V72.912H82.18V71.712H67.652ZM74.308 69.136V77.728C74.308 78.016 74.196 78.096 73.86 78.112C73.508 78.128 72.324 78.128 71.028 78.08C71.236 78.432 71.46 78.976 71.556 79.328C73.092 79.328 74.132 79.296 74.724 79.104C75.332 78.912 75.556 78.544 75.556 77.744V69.136H74.308ZM69.3 65.68V66.864H79.748V65.68H69.3ZM79.332 65.68V65.952C78.324 67.088 76.196 68.608 74.452 69.44C74.692 69.648 75.06 70.032 75.236 70.304C77.108 69.344 79.38 67.76 80.836 66.288L79.924 65.616L79.652 65.68H79.332ZM88.708 69.568H94.644V71.68H88.708V69.568ZM87.572 68.576V72.672H95.844V68.576H87.572ZM91.028 72.096C90.996 72.832 90.884 73.92 90.756 74.624L91.812 74.864C91.988 74.208 92.18 73.216 92.404 72.336L91.028 72.096ZM86.484 74.096V79.232H87.684V75.152H95.908V79.184H97.14V74.096H86.484ZM87.028 77.52V78.592H96.468V77.52H87.028ZM90.996 64.56V66.736H92.26V64.56H90.996ZM84.996 66.096V69.728H86.18V67.2H97.22V69.728H98.452V66.096H84.996ZM107.78 67.2L107.796 68.496C109.54 68.688 112.644 68.688 114.356 68.496V67.2C112.772 67.44 109.524 67.504 107.78 67.2ZM108.404 73.728L107.252 73.616C107.076 74.384 106.996 74.96 106.996 75.488C106.996 76.992 108.196 77.888 110.868 77.888C112.532 77.888 113.876 77.76 114.868 77.552L114.836 76.208C113.556 76.512 112.308 76.64 110.884 76.64C108.692 76.64 108.18 75.92 108.18 75.184C108.18 74.752 108.26 74.304 108.404 73.728ZM104.74 65.968L103.316 65.856C103.3 66.208 103.252 66.608 103.204 66.976C103.012 68.304 102.484 71.04 102.484 73.392C102.484 75.568 102.756 77.408 103.076 78.544L104.212 78.464C104.196 78.288 104.18 78.064 104.164 77.904C104.164 77.712 104.196 77.408 104.244 77.184C104.388 76.416 104.98 74.736 105.38 73.6L104.708 73.072C104.436 73.728 104.068 74.688 103.796 75.408C103.7 74.624 103.652 73.952 103.652 73.184C103.652 71.376 104.148 68.528 104.452 67.04C104.516 66.752 104.644 66.24 104.74 65.968ZM120.932 65.536V66.752H125.46V65.536H120.932ZM124.852 65.536C124.852 68.544 125.38 75.36 131.78 79.232C132.004 78.944 132.484 78.432 132.756 78.224C126.436 74.48 126.084 68.4 126.084 65.536H124.852ZM124.404 68.672C123.428 73.2 121.428 76.432 117.876 78.288C118.196 78.512 118.74 79.008 118.964 79.264C122.5 77.184 124.612 73.808 125.764 68.928L124.404 68.672ZM137.908 66.224L137.94 67.536C138.292 67.488 138.644 67.472 139.012 67.44C139.844 67.392 143.044 67.264 143.892 67.216C143.092 67.936 141.076 69.616 140.18 70.352C139.268 71.136 137.204 72.864 135.876 73.952L136.804 74.88C138.82 72.816 140.26 71.696 142.916 71.696C145.012 71.696 146.516 72.864 146.516 74.448C146.516 76.448 144.804 77.568 142.084 77.568C140.82 77.568 139.94 77.104 139.94 76.32C139.94 75.76 140.5 75.312 141.236 75.312C142.516 75.312 143.3 76.288 143.396 77.648L144.548 77.456C144.436 75.84 143.364 74.336 141.236 74.336C139.764 74.336 138.772 75.328 138.772 76.416C138.772 77.76 140.1 78.704 142.276 78.704C145.668 78.704 147.796 77.024 147.796 74.448C147.796 72.288 145.892 70.704 143.236 70.704C142.516 70.704 141.748 70.784 141.012 71.024C142.26 70 144.436 68.128 145.22 67.52C145.524 67.28 145.844 67.072 146.132 66.88L145.396 65.936C145.22 66 144.996 66.032 144.516 66.08C143.668 66.16 139.876 66.272 139.028 66.272C138.708 66.272 138.26 66.256 137.908 66.224ZM152.708 66.208V75.184H153.844V66.56L152.708 66.208ZM151.524 74.944L151.796 76.144C153.268 75.808 155.22 75.376 157.076 74.928L156.98 73.84C154.964 74.256 152.9 74.704 151.524 74.944ZM157.124 67.584V71.584C157.124 74.128 156.66 76.752 152.436 78.48C152.692 78.688 153.076 79.12 153.236 79.392C157.748 77.472 158.276 74.512 158.276 71.6V67.584H157.124ZM154.34 69.392C154.82 70.384 155.3 71.664 155.444 72.464L156.436 72.096C156.276 71.296 155.764 70.048 155.252 69.072L154.34 69.392ZM161.412 69.424C162.02 70.464 162.644 71.856 162.852 72.72L163.844 72.304C163.604 71.44 162.964 70.08 162.324 69.056L161.412 69.424ZM164.42 65.968V75.36C164.42 75.6 164.34 75.664 164.1 75.68C163.86 75.68 163.012 75.68 162.116 75.648C162.276 76 162.436 76.544 162.452 76.88C163.732 76.88 164.516 76.864 164.98 76.656C165.46 76.448 165.604 76.064 165.604 75.376V65.968H164.42ZM159.812 65.968V79.28H160.98V67.072H164.98V65.968H159.812ZM157.716 64.592C156.452 65.312 154.34 66.224 152.836 66.704L153.636 67.52C155.172 67.008 157.204 66.208 158.676 65.408L157.716 64.592ZM168.452 71.712V72.912H182.98V71.712H168.452ZM175.108 69.136V77.728C175.108 78.016 174.996 78.096 174.66 78.112C174.308 78.128 173.124 78.128 171.828 78.08C172.036 78.432 172.26 78.976 172.356 79.328C173.892 79.328 174.932 79.296 175.524 79.104C176.132 78.912 176.356 78.544 176.356 77.744V69.136H175.108ZM170.1 65.68V66.864H180.548V65.68H170.1ZM180.132 65.68V65.952C179.124 67.088 176.996 68.608 175.252 69.44C175.492 69.648 175.86 70.032 176.036 70.304C177.908 69.344 180.18 67.76 181.636 66.288L180.724 65.616L180.452 65.68H180.132ZM191.78 67.2L191.796 68.496C193.54 68.688 196.644 68.688 198.356 68.496V67.2C196.772 67.44 193.524 67.504 191.78 67.2ZM192.404 73.728L191.252 73.616C191.076 74.384 190.996 74.96 190.996 75.488C190.996 76.992 192.196 77.888 194.868 77.888C196.532 77.888 197.876 77.76 198.868 77.552L198.836 76.208C197.556 76.512 196.308 76.64 194.884 76.64C192.692 76.64 192.18 75.92 192.18 75.184C192.18 74.752 192.26 74.304 192.404 73.728ZM188.74 65.968L187.316 65.856C187.3 66.208 187.252 66.608 187.204 66.976C187.012 68.304 186.484 71.04 186.484 73.392C186.484 75.568 186.756 77.408 187.076 78.544L188.212 78.464C188.196 78.288 188.18 78.064 188.164 77.904C188.164 77.712 188.196 77.408 188.244 77.184C188.388 76.416 188.98 74.736 189.38 73.6L188.708 73.072C188.436 73.728 188.068 74.688 187.796 75.408C187.7 74.624 187.652 73.952 187.652 73.184C187.652 71.376 188.148 68.528 188.452 67.04C188.516 66.752 188.644 66.24 188.74 65.968ZM208.132 72.304L208.116 72.496C207.876 76.08 207.604 77.536 207.172 77.904C206.98 78.064 206.804 78.08 206.452 78.08C206.068 78.08 204.996 78.064 203.924 77.968C204.164 78.32 204.34 78.832 204.372 79.216C205.396 79.264 206.404 79.28 206.9 79.248C207.492 79.2 207.86 79.088 208.196 78.72C208.756 78.16 209.044 76.656 209.316 72.864C209.348 72.704 209.364 72.304 209.364 72.304H208.132ZM203.38 68.912C203.172 70.544 202.772 72.672 202.436 74L203.636 74.192C203.956 72.848 204.34 70.64 204.612 68.912H203.38ZM213.684 64.736V79.28H214.884V64.736H213.684ZM203.412 72.304L203.252 73.424H208.5V72.304H203.412ZM203.828 68.912V70.048H209.284V65.232H202.852V66.352H208.1V68.912H203.828ZM220.964 67.04L221.044 68.208C223.332 68.432 225.572 68.432 227.188 68.272C228.468 68.16 229.828 67.888 230.868 67.584L230.692 66.416C229.54 66.8 228.228 67.072 226.916 67.184C225.284 67.344 223.188 67.312 220.964 67.04ZM220.644 70.32L220.724 71.52C223.476 71.728 226.436 71.68 228.404 71.424C229.748 71.264 230.964 71.024 231.844 70.784L231.636 69.6C230.788 69.856 229.492 70.176 227.972 70.336C226.1 70.56 223.38 70.608 220.644 70.32ZM226.116 66.832C226.34 67.632 226.58 68.48 226.98 69.584C227.444 70.88 228.116 72.416 228.996 73.792C228.5 73.728 227.46 73.616 226.596 73.536L226.5 74.512C227.604 74.624 229.092 74.784 229.988 75.008L230.66 74.032C230.42 73.824 230.228 73.6 230.052 73.344C229.22 72.112 228.516 70.576 228.084 69.328C227.684 68.192 227.188 66.576 227.028 65.232L225.668 65.408C225.844 65.872 225.988 66.368 226.116 66.832ZM222.98 73.776L221.732 73.504C221.364 74.208 221.092 74.88 221.092 75.792C221.124 77.856 222.884 78.784 226.004 78.784C227.38 78.784 228.628 78.688 229.748 78.496L229.812 77.232C228.644 77.456 227.476 77.568 225.988 77.568C223.476 77.568 222.308 76.896 222.308 75.584C222.308 74.864 222.596 74.32 222.98 73.776ZM242.276 64.56V66.544H243.476V64.56H242.276ZM236.068 65.856V68.688H237.188V66.896H248.564V68.688H249.716V65.856H236.068ZM237.812 68.192V69.168H247.972V68.192H237.812ZM242.34 67.104C242.068 69.552 241.156 70.608 237.156 71.12C237.348 71.344 237.604 71.776 237.7 72.032C242.052 71.376 243.14 70.032 243.492 67.104H242.34ZM241.908 70.112C243.812 70.624 246.228 71.52 247.46 72.208L248.068 71.344C246.788 70.656 244.356 69.808 242.5 69.36L241.908 70.112ZM235.812 72.032V73.104H249.988V72.032H235.812ZM246.484 72.72V77.904C246.484 78.128 246.404 78.176 246.148 78.208C245.892 78.208 245.012 78.208 244.02 78.176C244.18 78.512 244.356 78.96 244.404 79.28C245.668 79.28 246.5 79.28 246.996 79.104C247.524 78.928 247.668 78.608 247.668 77.936V72.72H246.484ZM237.908 74.096V78.448H239.028V74.096H237.908ZM238.452 74.096V75.04H243.06V76.688H238.452V77.632H244.196V74.096H238.452ZM263.524 65.664H262.164C262.212 65.952 262.26 66.512 262.26 66.88C262.26 67.76 262.26 68.88 262.244 69.776C262.228 70.912 262.164 72.304 262.068 72.912C262.004 73.28 261.844 73.344 261.444 73.344C261.076 73.344 260.404 73.264 259.844 73.136L259.828 74.256C260.244 74.336 261.348 74.48 261.94 74.48C262.66 74.48 263.028 74.272 263.172 73.552C263.332 72.72 263.38 70.992 263.412 69.76C263.444 68.944 263.444 67.824 263.46 66.832C263.46 66.48 263.492 65.936 263.524 65.664ZM257.204 66.176H255.796C255.876 66.656 255.892 67.04 255.892 67.52C255.892 68.256 255.876 73.536 255.908 74.88C255.972 77.424 256.324 78.288 260.02 78.288C261.652 78.288 263.604 78.128 264.676 78.016L264.724 76.672C263.684 76.864 261.7 77.04 259.956 77.04C257.188 77.04 257.172 76.432 257.108 74.704C257.076 73.6 257.124 69.2 257.14 67.472C257.14 66.976 257.156 66.544 257.204 66.176ZM252.42 70L252.548 71.312C252.996 71.248 253.684 71.152 254.164 71.088C256.196 70.848 262.628 70.176 265.188 70.128C265.588 70.128 266.196 70.112 266.436 70.128V68.864C266.068 68.896 265.604 68.928 265.188 68.944C261.908 69.12 255.812 69.76 254.084 69.904C253.508 69.968 252.916 70 252.42 70ZM273.844 65.456L273.524 66.688C274.756 67.008 278.212 67.712 279.748 67.92L280.052 66.704C278.628 66.56 275.22 65.904 273.844 65.456ZM273.492 68.384L272.148 68.208C272.052 69.872 271.652 73.232 271.332 74.688L272.532 74.976C272.628 74.72 272.772 74.464 273.012 74.192C274.132 72.832 275.86 72.048 277.956 72.048C279.588 72.048 280.788 72.96 280.788 74.224C280.788 76.416 278.324 77.872 273.268 77.264L273.652 78.56C279.588 79.056 282.132 77.12 282.132 74.272C282.132 72.384 280.5 70.912 278.052 70.912C276.132 70.912 274.372 71.536 272.836 72.88C272.996 71.84 273.284 69.472 273.492 68.384ZM300.884 76.784L300.676 75.424C299.86 76.272 299.012 76.736 298.26 76.736C297.684 76.736 297.412 76.304 297.412 75.76C297.412 74.144 298.02 71.392 298.02 69.792C298.02 68.496 297.284 67.648 295.78 67.648C293.812 67.648 291.156 69.952 290.164 71.04L290.148 72.624C291.652 70.8 293.972 68.816 295.476 68.816C296.292 68.816 296.756 69.216 296.756 70.144C296.756 71.696 296.164 74.32 296.164 76.112C296.164 77.424 296.868 78.128 297.94 78.128C299.028 78.128 300.02 77.648 300.884 76.784ZM290.132 69.136L290.004 69.568L289.94 70.4C289.316 71.456 287.156 74.384 286.164 75.632L286.964 76.72C287.972 75.328 289.46 73.168 290.196 72.032L290.676 69.84C290.948 69.392 291.38 68.704 291.652 68.288L291.188 67.744C290.452 67.984 288.452 68.224 287.604 68.272C287.204 68.304 286.9 68.304 286.548 68.288L286.692 69.616C287.876 69.424 289.604 69.216 290.132 69.136ZM289.972 66.496C289.972 67.088 289.588 72.16 289.556 73.568C289.54 75.328 289.524 76.128 289.524 77.68C289.524 77.936 289.508 78.32 289.476 78.624H290.852C290.836 78.32 290.788 77.92 290.772 77.648C290.708 76.224 290.708 75.248 290.708 73.792C290.708 70.976 291.188 66.4 291.412 65.36L289.908 65.312C289.988 65.712 289.972 66.128 289.972 66.496ZM305.908 66.224L305.94 67.536C306.292 67.488 306.644 67.472 307.012 67.44C307.844 67.392 311.044 67.264 311.892 67.216C311.092 67.936 309.076 69.616 308.18 70.352C307.268 71.136 305.204 72.864 303.876 73.952L304.804 74.88C306.82 72.816 308.26 71.696 310.916 71.696C313.012 71.696 314.516 72.864 314.516 74.448C314.516 76.448 312.804 77.568 310.084 77.568C308.82 77.568 307.94 77.104 307.94 76.32C307.94 75.76 308.5 75.312 309.236 75.312C310.516 75.312 311.3 76.288 311.396 77.648L312.548 77.456C312.436 75.84 311.364 74.336 309.236 74.336C307.764 74.336 306.772 75.328 306.772 76.416C306.772 77.76 308.1 78.704 310.276 78.704C313.668 78.704 315.796 77.024 315.796 74.448C315.796 72.288 313.892 70.704 311.236 70.704C310.516 70.704 309.748 70.784 309.012 71.024C310.26 70 312.436 68.128 313.22 67.52C313.524 67.28 313.844 67.072 314.132 66.88L313.396 65.936C313.22 66 312.996 66.032 312.516 66.08C311.668 66.16 307.876 66.272 307.028 66.272C306.708 66.272 306.26 66.256 305.908 66.224Z" fill="#5D504F"/>
</svg>
