<svg width="154" height="73" viewBox="0 0 154 73" fill="none" xmlns="http://www.w3.org/2000/svg">
<rect width="154" height="73" rx="36.5" fill="#44AE7D"/>
<path d="M40.9844 27.3438L45.7656 27.625L45.2031 39.4375L40.5625 38.875L40.9844 27.3438ZM46.3281 19.1875L51.6719 19.3281L51.3906 26.0781L53.6406 27.625L55.0469 21.5781L59.6875 22.8438L59.125 26.2188L61.5156 26.3594L61.7969 19.0469L67.4219 19.1875L67.2812 26.2188L74.0312 26.3594V30.7188L67 30.8594L66.8594 36.9062L72.7656 36.7656L72.9062 36.9062V41.125L66.8594 41.2656V47.7344H75.0156L74.875 52.2344L67.1406 52.375L59.8281 52.7969L52.375 53.3594L52.5156 48.1562L61.0938 47.7344L61.2344 41.6875L55.0469 42.3906L55.1875 37.3281L61.2344 37.0469L61.375 31.1406L58 31.4219L56.875 36.625L52.375 35.2188L52.0938 35.0781L52.5156 33.1094L51.25 31.9844L51.1094 48.5781V53.3594H45.625L45.9062 30.5781L46.3281 19.1875ZM92.8469 23.125L93.4094 19.3281L99.175 19.1875L98.7531 23.125L112.534 22.9844L112.956 27.625H104.659L112.956 35.7812L108.316 39.5781L105.503 36.0625L100.722 40L112.253 49.4219L107.331 53.5L101.566 48.8594L95.6594 43.9375L84.2687 53.2188L79.4875 48.7188L85.675 44.0781L91.0187 40.1406L86.5187 36.625L83.425 40L78.7844 35.9219L86.3781 28.3281L78.6437 29.1719L79.0656 23.6875L92.8469 23.125ZM95.9406 36.0625L101.284 31.8438L98.6125 29.1719L100.862 27.4844L91.4406 27.7656L93.55 29.5938L90.8781 32.125L95.9406 36.0625Z" fill="white"/>
</svg>
