<svg width="154" height="73" viewBox="0 0 154 73" fill="none" xmlns="http://www.w3.org/2000/svg">
<rect width="154" height="73" rx="36.5" fill="#44AE7D"/>
<path d="M40.8438 25.375L43.5156 25.2344L44.7812 18.9062L49.7031 19.75L48.7188 25.0938H55.6094L55.75 29.0312H53.9219L52.2344 42.3906L55.1875 43.2344L54.3438 48.1562L51.6719 47.3125L50.8281 53.2188L45.3438 52.0938L46.4688 45.4844C44.5 44.9219 43.1406 44.3125 42.3906 43.6562C41.4531 42.9062 41.0781 41.875 41.2656 40.5625L42.6719 29.875L40.7031 30.1562L40.8438 25.375ZM47.5938 40.8438L49.2812 29.3125L48.0156 29.4531L46.3281 40.4219L47.5938 40.8438ZM71.6406 18.7656L74.875 22.2812L67.7031 23.4062L67.4219 32.2656L75.0156 32.4062L75.1562 36.9062L67.4219 37.0469L67.5625 47.5938H73.6094L73.75 51.8125L56.3125 53.0781V47.7344L61.7969 47.5938L62.2188 37.3281L54.0625 38.4531L54.2031 32.4062L62.0781 32.2656L62.3594 24.3906L56.1719 25.5156L52.7969 21.0156L71.6406 18.7656ZM78.6437 30.7188V25.2344L80.8937 25.0938L81.8781 19.0469L86.3781 19.3281L85.5344 24.9531C86.4719 24.8594 87.2219 24.8125 87.7844 24.8125C88.6281 24.8125 89.2844 25 89.7531 25.375C90.6906 26.125 91.0187 27.3438 90.7375 29.0312L88.3469 43.9375L90.3156 44.5L91.3 20.1719L91.4406 19.8906L112.675 18.7656V22.7031L98.8937 23.5469L96.6437 23.9688L96.0812 32.2656L98.6125 32.125L112.675 31.7031V35.3594L105.081 35.7812L106.628 38.5938L109.862 35.7812L112.816 39.0156L108.878 42.5312L113.097 49.9844L109.159 52.6562H108.737L106.909 49.4219L99.8781 51.9531C98.7531 52.3281 97.8156 52.1406 97.0656 51.3906C96.5031 50.8281 96.2687 49.75 96.3625 48.1562L97.0656 36.4844L96.0812 36.625L95.5187 47.3125L95.3781 53.2188L89.8937 52.7969C90.2687 46.4219 90.3625 43.8438 90.175 45.0625L89.4719 49.4219L87.6437 48.8594L87.0812 53.3594L81.7375 51.8125L82.7219 47.3125C81.0344 46.6562 79.9562 46 79.4875 45.3438C78.7375 44.2188 78.5031 42.4375 78.7844 40L80.05 30.5781L78.6437 30.7188ZM83.5656 42.5312L85.8156 29.875L84.6906 30.0156L83.8469 35.3594L83.0031 42.3906L83.5656 42.5312ZM111.128 25.2344L111.269 29.1719L100.159 30.0156L97.4875 30.4375V25.6562L111.128 25.2344ZM104.8 45.2031L102.128 40.5625L101.847 46.1875L104.8 45.2031Z" fill="white"/>
</svg>
