<svg width="461" height="142" viewBox="0 0 461 142" fill="none" xmlns="http://www.w3.org/2000/svg">
<g filter="url(#filter0_d_709_1388)">
<rect width="461" height="136" rx="30" fill="white" shape-rendering="crispEdges"/>
<path d="M107.874 28.48V43.392H109.586V28.48H107.874ZM105.842 33.744V35.536H111.122V33.744H105.842ZM107.858 34.704C107.458 36.288 106.514 38.512 105.586 39.696C105.874 40.24 106.306 41.104 106.466 41.696C107.506 40.16 108.434 37.36 108.93 35.232L107.858 34.704ZM109.618 35.664L108.738 36.4C109.234 37.216 110.162 39.008 110.514 39.952L111.73 38.48C111.426 38 110.034 36.096 109.618 35.664ZM105.826 29.728C106.21 30.864 106.514 32.384 106.562 33.36L107.89 33.04C107.81 32.048 107.506 30.56 107.074 29.408L105.826 29.728ZM110.274 29.328C110.114 30.448 109.762 32.016 109.458 33.008L110.594 33.328C110.962 32.4 111.41 30.896 111.794 29.648L110.274 29.328ZM111.986 29.584V30.96H120.322V29.584H111.986ZM112.37 31.584V32.88H119.986V31.584H112.37ZM111.538 33.568V34.96H120.738V33.568H111.538ZM115.09 28.432V34.352H116.914V28.432H115.09ZM112.37 35.616V43.456H114.162V36.976H118.45V35.616H112.37ZM118.018 35.616V41.696C118.018 41.872 117.954 41.936 117.746 41.936C117.554 41.936 116.882 41.936 116.29 41.904C116.498 42.336 116.706 42.976 116.786 43.44C117.81 43.44 118.562 43.424 119.106 43.184C119.666 42.928 119.81 42.512 119.81 41.712V35.616H118.018ZM113.378 37.744V38.992H118.642V37.744H113.378ZM113.378 39.76V41.008H118.642V39.76H113.378ZM122.706 35.424V37.344H137.49V35.424H122.706ZM129.106 32.88V41.184C129.106 41.456 128.994 41.536 128.642 41.552C128.274 41.552 127.042 41.552 125.922 41.504C126.242 42.032 126.626 42.912 126.754 43.488C128.21 43.504 129.33 43.44 130.098 43.136C130.866 42.832 131.122 42.304 131.122 41.216V32.88H129.106ZM124.386 29.392V31.296H134.466V29.392H124.386ZM133.842 29.392V29.84C133.026 30.88 131.026 32.432 129.33 33.296C129.698 33.632 130.29 34.272 130.578 34.688C132.546 33.648 134.754 31.952 136.258 30.4L134.786 29.296L134.354 29.392H133.842ZM152.226 32.672L151.106 30.832C150.69 31.168 150.242 31.44 149.634 31.792C148.658 32.352 146.642 33.344 145.122 34.352C143.218 35.6 141.73 37.024 141.73 39.056C141.73 41.808 144.146 42.704 147.346 42.704C149.426 42.704 151.106 42.528 152.482 42.304L152.498 40C151.074 40.336 148.914 40.592 147.282 40.592C145.058 40.592 143.938 39.968 143.938 38.816C143.938 37.712 144.834 36.784 146.162 35.92C147.634 34.976 149.634 34.032 150.626 33.536C151.218 33.248 151.73 32.96 152.226 32.672ZM144.178 29.248L142.162 30.08C143.042 32.144 144.002 34.24 144.882 35.696L146.706 34.64C145.954 33.296 144.946 31.376 144.178 29.248ZM157.33 29.968V39.072H159.154V30.464L157.33 29.968ZM156.178 38.56L156.594 40.464C158.05 40.128 159.89 39.712 161.634 39.28L161.458 37.584C159.522 37.952 157.522 38.352 156.178 38.56ZM161.538 31.712V35.552C161.538 37.92 161.106 40.512 157.314 42.144C157.73 42.464 158.354 43.152 158.61 43.584C162.85 41.648 163.378 38.48 163.378 35.584V31.712H161.538ZM158.994 33.648C159.426 34.56 159.874 35.76 160.018 36.512L161.538 35.92C161.362 35.168 160.882 34.016 160.402 33.136L158.994 33.648ZM166.002 33.696C166.514 34.672 167.058 35.984 167.234 36.8L168.786 36.16C168.578 35.344 168.002 34.08 167.442 33.136L166.002 33.696ZM168.706 29.792V38.976C168.706 39.2 168.626 39.264 168.418 39.264C168.194 39.264 167.442 39.264 166.77 39.232C167.01 39.776 167.234 40.656 167.266 41.2C168.466 41.2 169.266 41.168 169.842 40.848C170.434 40.528 170.578 39.952 170.578 39.008V29.792H168.706ZM164.37 29.792V43.424H166.226V31.552H169.634V29.792H164.37ZM162.194 28.416C160.962 29.232 158.978 30.192 157.538 30.704L158.882 31.968C160.338 31.44 162.274 30.592 163.762 29.712L162.194 28.416ZM173.106 35.424V37.344H187.89V35.424H173.106ZM179.506 32.88V41.184C179.506 41.456 179.394 41.536 179.042 41.552C178.674 41.552 177.442 41.552 176.322 41.504C176.642 42.032 177.026 42.912 177.154 43.488C178.61 43.504 179.73 43.44 180.498 43.136C181.266 42.832 181.522 42.304 181.522 41.216V32.88H179.506ZM174.786 29.392V31.296H184.866V29.392H174.786ZM184.242 29.392V29.84C183.426 30.88 181.426 32.432 179.73 33.296C180.098 33.632 180.69 34.272 180.978 34.688C182.946 33.648 185.154 31.952 186.658 30.4L185.186 29.296L184.754 29.392H184.242ZM196.562 29.488L194.194 29.232C194.21 30.432 194.034 31.792 193.73 33.232C193.282 35.248 192.082 39.472 190.178 42.032L192.274 42.864C193.954 40.16 195.234 35.6 195.762 33.344C195.938 32.528 196.13 31.536 196.29 30.816C196.37 30.416 196.466 29.904 196.562 29.488ZM202.082 31.088L200.162 31.904C201.314 33.328 202.45 36.144 202.866 37.92L204.898 36.976C204.402 35.456 203.058 32.48 202.082 31.088ZM190.082 32.768L190.274 34.928C190.754 34.848 191.586 34.736 192.05 34.672C192.93 34.56 195.698 34.208 196.642 34.208C197.65 34.208 198.194 34.4 198.194 35.68C198.194 37.248 197.986 39.2 197.538 40.096C197.298 40.624 196.882 40.784 196.338 40.784C195.922 40.784 195.01 40.624 194.386 40.448L194.738 42.56C195.282 42.688 196.034 42.784 196.658 42.784C197.858 42.784 198.754 42.432 199.282 41.312C199.954 39.936 200.194 37.344 200.194 35.456C200.194 33.136 198.994 32.384 197.298 32.384C196.114 32.384 193.074 32.736 191.794 32.768C191.202 32.784 190.658 32.8 190.082 32.768ZM201.794 28.88L200.514 29.392C200.946 30.016 201.442 30.96 201.778 31.616L203.058 31.072C202.754 30.48 202.194 29.456 201.794 28.88ZM203.682 28.144L202.418 28.672C202.85 29.28 203.378 30.208 203.698 30.88L204.978 30.336C204.69 29.776 204.098 28.752 203.682 28.144ZM208.642 40.624V42.512H219.586V40.624H208.642ZM212.994 28.576V41.776H214.994V28.576H212.994ZM207.698 36.624V43.44H209.65V36.624H207.698ZM218.562 36.624V43.424H220.562V36.624H218.562ZM208.338 29.92V35.76H219.922V29.92H217.89V33.904H210.258V29.92H208.338ZM224.37 41.088L224.626 42.96C227.506 42.848 231.73 42.656 235.65 42.432L235.714 40.672C231.682 40.848 227.234 41.008 224.37 41.088ZM224.29 36.32V38.112H237.602V36.32H224.29ZM227.138 33.248V35.008H234.642V33.248H227.138ZM228.21 37.488C227.81 38.832 227.042 40.608 226.386 41.776L228.066 42.336C228.786 41.264 229.65 39.6 230.402 38.096L228.21 37.488ZM232.178 39.136C233.554 40.416 235.09 42.24 235.762 43.456L237.538 42.384C236.802 41.168 235.314 39.488 233.874 38.256L232.178 39.136ZM230.882 30.288C232.242 32.144 234.946 34.16 237.346 35.28C237.698 34.704 238.13 34.016 238.594 33.536C236.05 32.624 233.506 30.8 231.81 28.448H229.778C228.594 30.336 226.034 32.624 223.298 33.824C223.698 34.24 224.21 34.96 224.434 35.424C227.09 34.16 229.586 32.112 230.882 30.288ZM250.642 36.768C250.642 39.28 248.098 40.576 244.13 41.024L245.266 43.024C249.714 42.4 252.898 40.288 252.898 36.848C252.898 34.352 251.122 32.912 248.594 32.912C246.706 32.912 244.914 33.376 243.746 33.632C243.218 33.744 242.546 33.872 242.002 33.904L242.61 36.208C243.058 36.016 243.698 35.776 244.162 35.632C244.962 35.392 246.562 34.864 248.322 34.864C249.826 34.864 250.642 35.712 250.642 36.768ZM244.354 29.088L244.05 31.008C245.89 31.328 249.362 31.648 251.234 31.776L251.538 29.808C249.858 29.808 246.226 29.488 244.354 29.088ZM88.164 104.992V106.688H93.444V104.992H88.164ZM87.284 100.624V107.392H89.06V102.32H92.436V107.328H94.276V100.624H87.284ZM86.356 97.648L86.516 99.504C88.516 99.376 91.3 99.2 93.908 98.992L93.924 97.28C91.204 97.424 88.292 97.568 86.356 97.648ZM91.172 95.472C92.228 96.896 93.332 98.864 93.748 100.144L95.444 99.232C94.948 97.968 93.86 96.096 92.756 94.704L91.172 95.472ZM89.188 92.384C88.724 94.288 87.796 96.816 87.012 98.384L88.74 98.832C89.524 97.312 90.468 94.96 91.204 92.832L89.188 92.384ZM81.892 92.976V94.752H85.412V92.976H81.892ZM81.892 96.608V98.384H85.476V96.608H81.892ZM81.876 100.32V102.128H85.428V100.32H81.876ZM81.14 92.976V98.8C81.14 101.152 81.076 104.384 80.068 106.592C80.5 106.752 81.284 107.184 81.62 107.472C82.708 105.088 82.868 101.376 82.868 98.8V92.976H81.14ZM84.356 92.976V105.328C84.356 105.536 84.276 105.6 84.1 105.6C83.892 105.616 83.3 105.616 82.724 105.6C82.964 106.08 83.204 106.944 83.252 107.44C84.276 107.44 84.98 107.408 85.476 107.088C86.004 106.768 86.132 106.224 86.132 105.36V92.976H84.356ZM104.26 97.952H108.548V99.696H104.26V97.952ZM104.26 94.72H108.548V96.432H104.26V94.72ZM102.404 93.072V101.344H110.5V93.072H102.404ZM98.644 92.88V101.6H100.516V92.88H98.644ZM105.476 101.744V105.024C105.476 106.784 105.908 107.392 107.78 107.392C108.132 107.392 109.348 107.392 109.716 107.392C111.252 107.392 111.78 106.736 111.972 104.208C111.444 104.08 110.596 103.776 110.196 103.44C110.132 105.296 110.052 105.568 109.54 105.568C109.236 105.568 108.292 105.568 108.052 105.568C107.524 105.568 107.428 105.504 107.428 105.008V101.744H105.476ZM101.236 101.776C101.012 103.824 100.532 105.12 96.916 105.84C97.316 106.24 97.812 107.04 98.004 107.552C102.212 106.528 102.996 104.608 103.316 101.776H101.236ZM119.54 96.176L119.556 98.096C120.5 98.16 121.412 98.192 122.356 98.192C124.276 98.176 126.292 98.048 127.972 97.792V95.808C126.308 96.16 124.308 96.32 122.356 96.32C121.38 96.32 120.468 96.272 119.54 96.176ZM125.636 93.488H123.348C123.396 93.792 123.444 94.288 123.444 94.544C123.46 95.024 123.476 96.096 123.476 97.312C123.476 99.616 123.684 102.304 123.684 103.408C123.684 104.352 123.348 104.864 122.372 104.864C121.508 104.864 120.868 104.576 120.868 103.92C120.868 103.312 121.492 102.944 122.404 102.944C124.212 102.944 125.828 104.016 127.668 105.728L128.756 104.048C127.508 102.896 125.572 101.392 122.564 101.392C120.372 101.392 118.996 102.512 118.996 104.144C118.996 105.824 120.372 106.736 122.596 106.736C124.9 106.736 125.732 105.52 125.732 103.84C125.732 102.32 125.476 100.24 125.476 97.296C125.476 96.144 125.508 95.04 125.54 94.512C125.556 94.176 125.588 93.792 125.636 93.488ZM117.828 93.648L115.604 93.472C115.588 93.968 115.524 94.592 115.46 95.04C115.268 96.272 114.788 99.296 114.788 101.712C114.788 103.872 115.108 105.712 115.428 106.816L117.236 106.688C117.22 106.464 117.22 106.192 117.22 106.016C117.204 105.856 117.252 105.504 117.3 105.28C117.476 104.4 118.004 102.784 118.452 101.456L117.46 100.672C117.236 101.216 116.964 101.76 116.74 102.32C116.692 102 116.676 101.584 116.676 101.28C116.676 99.68 117.204 96.16 117.444 95.088C117.508 94.8 117.7 93.968 117.828 93.648ZM137.988 99.664C138.804 100.816 139.652 102.368 139.94 103.36L141.62 102.496C141.268 101.472 140.356 99.984 139.524 98.88L137.988 99.664ZM138.516 95.136V96.944H144.26V95.136H138.516ZM143.444 95.136V95.52C143.252 102.032 143.028 104.736 142.5 105.28C142.324 105.504 142.132 105.552 141.812 105.552C141.396 105.552 140.468 105.552 139.46 105.472C139.812 106.016 140.068 106.848 140.1 107.392C141.044 107.44 142.02 107.44 142.612 107.36C143.284 107.248 143.716 107.072 144.164 106.464C144.836 105.616 145.044 103.072 145.284 96.016C145.3 95.776 145.3 95.136 145.3 95.136H143.444ZM138.612 92.4C138.084 94.496 137.108 96.592 135.892 97.856C136.372 98.128 137.22 98.704 137.604 99.024C138.82 97.568 139.924 95.216 140.596 92.832L138.612 92.4ZM132.98 92.432C132.612 93.552 131.924 95.088 131.348 96.048L132.644 96.576C133.268 95.696 134.02 94.272 134.676 93.024L132.98 92.432ZM134.9 94.32C134.052 96.032 132.596 98.384 131.364 99.824L132.532 100.416C133.764 99.056 135.332 96.832 136.516 94.992L134.9 94.32ZM130.516 96.224C131.332 96.992 132.308 98.096 132.708 98.864L133.684 97.36C133.268 96.656 132.276 95.632 131.412 94.896L130.516 96.224ZM134.5 98.176C135.108 99.28 135.7 100.736 135.892 101.648L137.348 100.976C137.14 100.048 136.5 98.656 135.86 97.584L134.5 98.176ZM130.5 99.472L130.66 101.136C132.244 101.04 134.324 100.896 136.34 100.736V99.216C134.196 99.328 131.988 99.424 130.5 99.472ZM134.788 102.192C135.172 103.168 135.588 104.464 135.732 105.296L137.236 104.752C137.044 103.936 136.612 102.688 136.196 101.728L134.788 102.192ZM131.188 101.824C131.06 103.184 130.804 104.608 130.34 105.552C130.74 105.712 131.46 106.048 131.796 106.256C132.26 105.232 132.612 103.632 132.772 102.096L131.188 101.824ZM133.044 100.32V107.456H134.756V100.32H133.044ZM154.612 93.936C152.18 93.936 150.468 95.456 150.468 97.952C150.468 100.544 152.372 101.648 154.292 101.648C155.572 101.648 156.564 101.024 157.204 100.304L157.14 98.288C156.644 99.184 155.732 99.888 154.66 99.888C153.732 99.888 152.644 99.344 152.644 97.888C152.644 96.544 153.412 95.728 154.58 95.728C155.924 95.728 157.14 96.848 157.14 99.84C157.14 103.328 155.588 104.304 154.164 104.304C153.188 104.304 152.452 103.872 151.876 103.296L150.596 104.704C151.38 105.52 152.612 106.208 154.244 106.208C156.932 106.208 159.332 104.192 159.332 99.744C159.332 95.68 157.156 93.936 154.612 93.936ZM171.076 93.376L168.708 93.12C168.724 94.32 168.548 95.68 168.244 97.12C167.796 99.136 166.596 103.36 164.692 105.92L166.788 106.752C168.452 104.048 169.748 99.488 170.276 97.232C170.436 96.416 170.644 95.424 170.788 94.704C170.884 94.304 170.98 93.792 171.076 93.376ZM176.596 94.864L174.676 95.68C175.828 97.104 176.964 99.984 177.38 101.776L179.412 100.832C178.916 99.296 177.572 96.256 176.596 94.864ZM164.596 96.656L164.788 98.816C165.268 98.736 166.1 98.624 166.564 98.56C167.444 98.448 170.196 98.096 171.156 98.096C172.148 98.096 172.708 98.288 172.708 99.568C172.708 101.136 172.5 103.088 172.052 103.984C171.796 104.512 171.396 104.672 170.852 104.672C170.436 104.672 169.524 104.512 168.9 104.336L169.236 106.448C169.796 106.576 170.548 106.672 171.172 106.672C172.372 106.672 173.252 106.32 173.796 105.2C174.468 103.824 174.692 101.232 174.692 99.344C174.692 97.024 173.492 96.272 171.812 96.272C170.612 96.272 167.588 96.624 166.308 96.656C165.716 96.672 165.172 96.688 164.596 96.656ZM184.804 93.168V95.04H192.804V93.168H184.804ZM184.82 96.992V98.816H192.884V96.992H184.82ZM184.74 100.784V102.64H192.772V100.784H184.74ZM183.492 93.168V98.464C183.492 100.912 183.268 104 180.836 106.064C181.252 106.32 182.036 107.04 182.324 107.44C185.028 105.168 185.46 101.248 185.46 98.464V93.168H183.492ZM191.908 93.168V104.976C191.908 105.312 191.78 105.424 191.412 105.44C191.028 105.44 189.7 105.456 188.564 105.392C188.884 105.904 189.252 106.832 189.364 107.408C191.028 107.408 192.164 107.376 192.932 107.04C193.668 106.72 193.94 106.144 193.94 105.008V93.168H191.908Z" fill="#E06363"/>
<path d="M260.242 30.784V32.08C261.506 32.192 262.882 32.256 264.482 32.256C265.954 32.256 267.698 32.144 268.786 32.064V30.752C267.634 30.88 266.018 30.976 264.482 30.976C262.866 30.976 261.394 30.912 260.242 30.784ZM260.882 37.232L259.586 37.104C259.442 37.744 259.266 38.496 259.266 39.328C259.266 41.344 261.154 42.4 264.402 42.4C266.674 42.4 268.706 42.16 269.858 41.856L269.842 40.48C268.626 40.864 266.562 41.104 264.37 41.104C261.81 41.104 260.562 40.272 260.562 39.04C260.562 38.448 260.69 37.856 260.882 37.232ZM286.306 32.464L285.618 31.312C285.282 31.584 284.93 31.792 284.466 32.064C283.426 32.656 281.186 33.728 279.554 34.816C277.666 36.064 276.498 37.424 276.498 39.152C276.498 41.552 278.674 42.448 281.682 42.448C283.682 42.448 285.538 42.272 286.738 42.064L286.754 40.624C285.506 40.944 283.362 41.168 281.634 41.168C279.106 41.168 277.826 40.336 277.826 39.008C277.826 37.808 278.722 36.752 280.21 35.776C281.778 34.752 284.002 33.696 285.074 33.136C285.554 32.896 285.954 32.672 286.306 32.464ZM278.21 29.552L276.946 30.096C277.81 32.08 278.77 34.24 279.586 35.552L280.674 34.896C279.938 33.6 278.946 31.6 278.21 29.552ZM290.862 31.472L291.006 32.88C292.734 32.512 296.814 32.112 298.526 31.936C297.07 32.8 295.55 34.848 295.55 37.328C295.55 40.912 298.91 42.48 301.87 42.592L302.334 41.28C299.742 41.184 296.814 40.176 296.814 37.056C296.814 35.168 298.206 32.72 300.494 31.984C301.31 31.76 302.702 31.728 303.63 31.744L303.614 30.464C302.542 30.496 301.054 30.592 299.294 30.736C296.35 30.992 293.326 31.28 292.302 31.392C291.982 31.424 291.47 31.456 290.862 31.472ZM301.31 33.696L300.51 34.048C300.99 34.72 301.438 35.536 301.806 36.304L302.638 35.936C302.286 35.216 301.678 34.224 301.31 33.696ZM303.054 33.024L302.27 33.392C302.766 34.064 303.246 34.864 303.63 35.632L304.446 35.232C304.078 34.528 303.454 33.552 303.054 33.024ZM307.662 31.472L307.806 32.88C309.534 32.512 313.614 32.112 315.326 31.936C313.87 32.8 312.35 34.848 312.35 37.328C312.35 40.912 315.71 42.48 318.67 42.592L319.134 41.28C316.542 41.184 313.614 40.176 313.614 37.056C313.614 35.168 315.006 32.72 317.294 31.984C318.11 31.76 319.502 31.728 320.43 31.744L320.414 30.464C319.342 30.496 317.854 30.592 316.094 30.736C313.15 30.992 310.126 31.28 309.102 31.392C308.782 31.424 308.27 31.456 307.662 31.472ZM318.11 33.696L317.31 34.048C317.79 34.72 318.238 35.536 318.606 36.304L319.438 35.936C319.086 35.216 318.478 34.224 318.11 33.696ZM319.854 33.024L319.07 33.392C319.566 34.064 320.046 34.864 320.43 35.632L321.246 35.232C320.878 34.528 320.254 33.552 319.854 33.024ZM326.078 31.04L326.158 32.208C328.446 32.432 330.686 32.432 332.302 32.272C333.582 32.16 334.942 31.888 335.982 31.584L335.806 30.416C334.654 30.8 333.342 31.072 332.03 31.184C330.398 31.344 328.302 31.312 326.078 31.04ZM325.758 34.32L325.838 35.52C328.59 35.728 331.55 35.68 333.518 35.424C334.862 35.264 336.078 35.024 336.958 34.784L336.75 33.6C335.902 33.856 334.606 34.176 333.086 34.336C331.214 34.56 328.494 34.608 325.758 34.32ZM331.23 30.832C331.454 31.632 331.694 32.48 332.094 33.584C332.558 34.88 333.23 36.416 334.11 37.792C333.614 37.728 332.574 37.616 331.71 37.536L331.614 38.512C332.718 38.624 334.206 38.784 335.102 39.008L335.774 38.032C335.534 37.824 335.342 37.6 335.166 37.344C334.334 36.112 333.63 34.576 333.198 33.328C332.798 32.192 332.302 30.576 332.142 29.232L330.782 29.408C330.958 29.872 331.102 30.368 331.23 30.832ZM328.094 37.776L326.846 37.504C326.478 38.208 326.206 38.88 326.206 39.792C326.238 41.856 327.998 42.784 331.118 42.784C332.494 42.784 333.742 42.688 334.862 42.496L334.926 41.232C333.758 41.456 332.59 41.568 331.102 41.568C328.59 41.568 327.422 40.896 327.422 39.584C327.422 38.864 327.71 38.32 328.094 37.776ZM343.51 30.224L343.542 31.536C343.894 31.488 344.246 31.472 344.614 31.44C345.446 31.392 348.646 31.264 349.494 31.216C348.694 31.936 346.678 33.616 345.782 34.352C344.87 35.136 342.806 36.864 341.478 37.952L342.406 38.88C344.422 36.816 345.862 35.696 348.518 35.696C350.614 35.696 352.118 36.864 352.118 38.448C352.118 40.448 350.406 41.568 347.686 41.568C346.422 41.568 345.542 41.104 345.542 40.32C345.542 39.76 346.102 39.312 346.838 39.312C348.118 39.312 348.902 40.288 348.998 41.648L350.15 41.456C350.038 39.84 348.966 38.336 346.838 38.336C345.366 38.336 344.374 39.328 344.374 40.416C344.374 41.76 345.702 42.704 347.878 42.704C351.27 42.704 353.398 41.024 353.398 38.448C353.398 36.288 351.494 34.704 348.838 34.704C348.118 34.704 347.35 34.784 346.614 35.024C347.862 34 350.038 32.128 350.822 31.52C351.126 31.28 351.446 31.072 351.734 30.88L350.998 29.936C350.822 30 350.598 30.032 350.118 30.08C349.27 30.16 345.478 30.272 344.63 30.272C344.31 30.272 343.862 30.256 343.51 30.224ZM30.8489 67.712V68.912H45.3769V67.712H30.8489ZM37.5049 65.136V73.728C37.5049 74.016 37.3929 74.096 37.0569 74.112C36.7049 74.128 35.5209 74.128 34.2249 74.08C34.4329 74.432 34.6569 74.976 34.7529 75.328C36.2889 75.328 37.3289 75.296 37.9209 75.104C38.5289 74.912 38.7529 74.544 38.7529 73.744V65.136H37.5049ZM32.4969 61.68V62.864H42.9449V61.68H32.4969ZM42.5289 61.68V61.952C41.5209 63.088 39.3929 64.608 37.6489 65.44C37.8889 65.648 38.2569 66.032 38.4329 66.304C40.3049 65.344 42.5769 63.76 44.0329 62.288L43.1209 61.616L42.8489 61.68H42.5289ZM51.9049 65.568H57.8409V67.68H51.9049V65.568ZM50.7689 64.576V68.672H59.0409V64.576H50.7689ZM54.2249 68.096C54.1929 68.832 54.0809 69.92 53.9529 70.624L55.0089 70.864C55.1849 70.208 55.3769 69.216 55.6009 68.336L54.2249 68.096ZM49.6809 70.096V75.232H50.8809V71.152H59.1049V75.184H60.3369V70.096H49.6809ZM50.2249 73.52V74.592H59.6649V73.52H50.2249ZM54.1929 60.56V62.736H55.4569V60.56H54.1929ZM48.1929 62.096V65.728H49.3769V63.2H60.4169V65.728H61.6489V62.096H48.1929ZM64.9449 63.472L65.0889 64.88C66.8169 64.512 70.8969 64.112 72.6089 63.936C71.1529 64.8 69.6329 66.848 69.6329 69.328C69.6329 72.912 72.9929 74.48 75.9529 74.592L76.4169 73.28C73.8249 73.184 70.8969 72.176 70.8969 69.056C70.8969 67.168 72.2889 64.72 74.5769 63.984C75.3929 63.76 76.7849 63.728 77.7129 63.744L77.6969 62.464C76.6249 62.496 75.1369 62.592 73.3769 62.736C70.4329 62.992 67.4089 63.28 66.3849 63.392C66.0649 63.424 65.5529 63.456 64.9449 63.472ZM75.3929 65.696L74.5929 66.048C75.0729 66.72 75.5209 67.536 75.8889 68.304L76.7209 67.936C76.3689 67.216 75.7609 66.224 75.3929 65.696ZM77.1369 65.024L76.3529 65.392C76.8489 66.064 77.3289 66.864 77.7129 67.632L78.5289 67.232C78.1609 66.528 77.5369 65.552 77.1369 65.024ZM85.4089 64.448V73.024C85.4089 74.704 85.9049 75.152 87.6489 75.152C88.0489 75.152 90.4969 75.152 90.9129 75.152C92.6569 75.152 93.0249 74.288 93.2169 71.408C92.8649 71.328 92.3529 71.104 92.0489 70.88C91.9209 73.424 91.7769 73.952 90.8489 73.952C90.2729 73.952 88.1929 73.952 87.7449 73.952C86.8489 73.952 86.6569 73.808 86.6569 73.056V64.448H85.4089ZM85.4409 61.456C86.7849 62.384 88.5449 63.728 89.4729 64.544L90.2729 63.568C89.3449 62.816 87.6009 61.504 86.2249 60.608L85.4409 61.456ZM82.8489 65.408C82.5289 67.152 81.9049 69.328 80.9929 70.72L82.1289 71.184C83.0249 69.776 83.6169 67.472 83.9689 65.696L82.8489 65.408ZM92.3049 66.448C93.3769 68.048 94.4649 70.208 94.8649 71.632L96.0169 71.056C95.5689 69.648 94.4969 67.552 93.3769 65.952L92.3049 66.448ZM93.1529 61.52C90.8329 66.256 86.5289 70.88 81.0089 73.392C81.2649 73.632 81.6169 74.064 81.7929 74.336C87.4889 71.616 91.7129 67.008 94.3369 62.016L93.1529 61.52ZM98.0169 69.312V70.32H112.577V69.312H98.0169ZM98.4009 61.264V62.32H112.177V61.264H98.4009ZM103.569 67.632C102.577 69.2 101.089 71.344 100.065 72.64L101.201 73.024C102.225 71.712 103.697 69.616 104.737 67.952L103.569 67.632ZM108.369 69.664C107.089 72.784 103.953 73.92 98.2409 74.224C98.4329 74.496 98.6249 74.928 98.7049 75.28C104.705 74.832 108.113 73.52 109.521 70L108.369 69.664ZM100.929 72.48C104.993 73.232 108.913 74.32 111.361 75.328L112.081 74.352C109.601 73.376 105.489 72.304 101.537 71.6L100.929 72.48ZM102.769 61.664V67.248H103.905V61.664H102.769ZM106.497 61.664V67.248H107.633V61.664H106.497ZM100.321 64.672H110.305V66.848H100.321V64.672ZM99.2009 63.696V67.84H111.505V63.696H99.2009ZM115.633 63.92L115.729 65.12C116.321 65.136 117.009 65.152 117.601 65.152C119.553 65.168 121.649 64.816 123.217 64.384L123.185 63.2C121.345 63.808 119.329 64.016 117.601 64.016C116.913 64.016 116.225 63.984 115.633 63.92ZM121.313 61.312L119.905 61.168C119.857 62.288 119.505 63.696 119.153 64.704C118.497 66.592 117.009 69.44 115.585 71.104L116.817 71.744C118.145 69.952 119.617 67.04 120.385 64.736C120.769 63.6 121.105 62.096 121.313 61.312ZM125.089 66.256H123.825C123.889 68.016 124.065 70.88 124.065 72.096C124.065 72.96 123.617 73.664 122.289 73.664C121.041 73.664 120.417 73.152 120.417 72.416C120.417 71.68 121.217 71.136 122.401 71.136C124.753 71.136 126.593 72.56 127.825 73.68L128.497 72.592C127.185 71.456 125.121 70.112 122.433 70.112C120.641 70.112 119.249 71.04 119.249 72.512C119.249 74.112 120.673 74.816 122.433 74.816C124.417 74.816 125.233 73.776 125.233 72.496C125.233 71.44 125.089 69.008 125.057 67.968C125.041 67.392 125.041 66.912 125.089 66.256ZM128.289 66.672L129.009 65.616C128.241 65.04 126.433 64 125.265 63.504L124.625 64.464C125.681 64.96 127.425 65.936 128.289 66.672ZM135.889 61.392L135.681 62.56C137.633 62.912 140.433 63.264 142.033 63.408L142.209 62.224C140.673 62.144 137.617 61.776 135.889 61.392ZM142.529 65.968L141.761 65.088C141.601 65.152 141.265 65.232 140.993 65.264C139.777 65.424 136.065 65.664 135.137 65.696C134.625 65.696 134.161 65.696 133.793 65.664L133.905 67.056C134.241 67.008 134.657 66.944 135.185 66.912C136.161 66.832 138.849 66.592 140.113 66.528C138.545 68.096 134.193 72.464 133.537 73.104C133.233 73.408 132.945 73.664 132.737 73.824L133.953 74.672C134.865 73.52 136.609 71.68 137.201 71.12C137.569 70.752 137.953 70.528 138.385 70.528C138.833 70.528 139.185 70.832 139.361 71.392C139.521 71.84 139.745 72.784 139.905 73.264C140.257 74.32 141.041 74.624 142.337 74.624C143.185 74.624 144.657 74.512 145.329 74.384L145.425 73.04C144.657 73.232 143.441 73.376 142.401 73.376C141.569 73.376 141.201 73.104 141.009 72.496C140.849 71.984 140.625 71.168 140.465 70.704C140.241 70.048 139.873 69.632 139.265 69.568C139.089 69.52 138.801 69.52 138.625 69.536C139.233 68.912 141.025 67.232 141.633 66.672C141.825 66.512 142.225 66.176 142.529 65.968ZM151.265 62.848L149.713 62.816C149.809 63.184 149.809 63.872 149.809 64.24C149.809 65.168 149.841 67.12 149.985 68.496C150.433 72.64 151.873 74.144 153.393 74.144C154.481 74.144 155.441 73.216 156.417 70.512L155.409 69.376C154.993 70.976 154.241 72.624 153.425 72.624C152.273 72.624 151.505 70.848 151.233 68.176C151.121 66.864 151.105 65.392 151.121 64.4C151.137 63.984 151.185 63.216 151.265 62.848ZM159.585 63.28L158.353 63.712C159.873 65.584 160.849 68.88 161.121 71.76L162.417 71.248C162.177 68.544 161.025 65.136 159.585 63.28ZM172.84 61.44H171.32C171.384 61.744 171.432 62.448 171.448 63.04C171.448 63.728 171.464 65.04 171.464 65.968C171.464 67.6 171.656 70.704 171.656 71.888C171.656 72.992 171.08 73.552 169.912 73.552C168.36 73.552 167.464 73.056 167.464 72.176C167.464 71.28 168.408 70.72 170.072 70.72C172.872 70.72 175.496 72.288 177.096 73.888L177.864 72.688C176.232 71.2 173.384 69.6 170.216 69.6C167.448 69.6 166.2 70.768 166.2 72.224C166.2 74.048 167.816 74.736 170.04 74.736C172.168 74.736 172.968 73.616 172.968 72.32C172.968 70.912 172.712 67.712 172.712 65.968C172.712 64.864 172.712 63.76 172.712 63.04C172.728 62.56 172.776 61.792 172.84 61.44ZM172.008 64.672V65.856C173.16 65.856 175.768 65.744 177.496 65.584L177.448 64.384C175.72 64.592 173.112 64.672 172.008 64.672ZM192.488 68.688C192.488 71.552 189.752 73.072 185.864 73.568L186.6 74.784C190.744 74.144 193.848 72.208 193.848 68.736C193.848 66.448 192.168 65.184 189.896 65.184C188.04 65.184 186.232 65.696 185.112 65.952C184.616 66.048 184.088 66.16 183.64 66.192L184.04 67.664C184.424 67.504 184.904 67.328 185.4 67.184C186.328 66.912 187.912 66.384 189.752 66.384C191.4 66.384 192.488 67.328 192.488 68.688ZM185.768 61.472L185.576 62.688C187.384 63.008 190.6 63.328 192.376 63.456L192.568 62.224C191.016 62.208 187.544 61.872 185.768 61.472ZM205.144 61.36L203.832 61.248C203.784 62 203.56 62.96 203.208 63.84C202.664 65.2 201.592 67.056 199.288 69.264L200.392 70.08C200.92 69.424 201.368 68.848 201.832 68.4C202.568 67.744 203.576 67.232 204.6 67.232C205.432 67.232 206.072 67.664 206.088 68.592C206.104 69.424 206.088 71.072 206.024 71.92H207.256C207.24 70.928 207.208 69.088 207.208 68.256C207.208 66.96 206.248 66.224 205.016 66.224C204.312 66.224 203.4 66.448 202.776 66.816C203.416 65.984 204.008 64.912 204.408 63.936C204.824 62.864 205 61.984 205.144 61.36ZM199.656 63.088V64.288C200.552 64.352 201.608 64.384 202.296 64.384C204.328 64.384 207.304 64.24 209.544 63.904V62.72C207.288 63.12 204.52 63.248 202.36 63.248C201.624 63.248 200.52 63.2 199.656 63.088ZM211.88 66.944L211.368 65.76C210.92 65.984 210.52 66.16 210.04 66.384C208.984 66.88 207.688 67.376 206.168 68.16C204.264 69.136 202.28 70.336 202.28 72.288C202.28 74.224 204.12 74.72 206.392 74.72C207.784 74.72 209.56 74.592 210.776 74.448L210.824 73.152C209.416 73.408 207.688 73.552 206.44 73.552C204.792 73.552 203.56 73.36 203.56 72.112C203.56 71.008 204.68 70.144 206.264 69.312C207.816 68.512 209.336 67.904 210.472 67.456C210.904 67.296 211.48 67.072 211.88 66.944ZM221.656 61.424L220.232 61.344C220.264 61.632 220.264 61.92 220.216 62.48C220.04 64.688 219.288 69.472 219.288 71.184C219.288 73.792 221.048 74.752 223.208 74.752C226.376 74.752 228.504 73.296 228.504 70.912C228.504 69.552 227.96 68.432 226.856 67.216L225.448 67.52C226.632 68.512 227.208 69.696 227.208 70.768C227.208 72.432 225.656 73.488 223.224 73.488C221.4 73.488 220.52 72.544 220.52 70.992C220.52 69.264 221.24 64.336 221.448 62.544C221.512 62.192 221.56 61.856 221.656 61.424ZM216.536 63.552L216.456 64.72C217.864 65.104 219.784 65.344 221.192 65.344C222.488 65.344 223.432 65.296 224.456 65.2L224.488 63.984C223.544 64.128 222.44 64.192 221.224 64.192C219.8 64.192 217.88 63.984 216.536 63.552ZM216.136 67.536L216.072 68.752C217.528 69.2 219.464 69.392 221.208 69.392C222.28 69.392 223.272 69.36 224.344 69.248L224.36 68.032C223.24 68.192 222.136 68.224 221.032 68.224C219.56 68.224 217.688 68.08 216.136 67.536ZM236.728 61.456L236.408 62.688C237.64 63.008 241.096 63.712 242.632 63.92L242.936 62.704C241.512 62.56 238.104 61.904 236.728 61.456ZM236.376 64.384L235.032 64.208C234.936 65.872 234.536 69.232 234.216 70.688L235.416 70.976C235.512 70.72 235.656 70.464 235.896 70.192C237.016 68.832 238.744 68.048 240.84 68.048C242.472 68.048 243.672 68.96 243.672 70.224C243.672 72.416 241.208 73.872 236.152 73.264L236.536 74.56C242.472 75.056 245.016 73.12 245.016 70.272C245.016 68.384 243.384 66.912 240.936 66.912C239.016 66.912 237.256 67.536 235.72 68.88C235.88 67.84 236.168 65.472 236.376 64.384ZM250.744 67.616L251.288 68.944C252.312 68.528 255.816 67.072 257.784 67.072C259.432 67.072 260.504 68.08 260.504 69.44C260.504 72.048 257.464 73.04 253.992 73.136L254.52 74.368C258.824 74.112 261.8 72.544 261.8 69.456C261.8 67.28 260.152 65.92 257.88 65.92C256.008 65.92 253.368 66.88 252.232 67.232C251.736 67.392 251.208 67.536 250.744 67.616ZM265.532 63.376L265.676 64.784C267.42 64.416 271.484 64.016 273.212 63.84C271.74 64.704 270.22 66.736 270.22 69.232C270.22 72.816 273.58 74.384 276.556 74.496L277.004 73.184C274.412 73.072 271.484 72.08 271.484 68.96C271.484 67.072 272.876 64.624 275.164 63.888C275.98 63.664 277.372 63.632 278.3 63.648L278.284 62.368C277.212 62.4 275.724 62.496 273.98 62.64C271.02 62.896 268.012 63.184 266.972 63.296C266.652 63.328 266.14 63.36 265.532 63.376ZM287.98 61.52L286.508 61.376C286.508 62.608 286.284 64.048 285.996 65.312C285.564 67.28 284.284 71.552 282.46 73.984L283.756 74.512C285.564 71.584 286.716 67.6 287.26 65.36C287.468 64.368 287.692 63.056 287.788 62.48C287.852 62.16 287.916 61.824 287.98 61.52ZM293.5 63.232L292.332 63.76C293.452 65.072 294.7 67.904 295.18 69.552L296.412 68.96C295.884 67.472 294.492 64.528 293.5 63.232ZM282.22 65.04L282.364 66.416C282.764 66.352 283.436 66.272 283.804 66.224C284.78 66.128 287.772 65.776 288.844 65.776C289.868 65.776 290.54 66.048 290.54 67.504C290.54 69.232 290.3 71.328 289.788 72.4C289.452 73.104 288.972 73.232 288.38 73.232C287.932 73.232 287.1 73.104 286.428 72.896L286.636 74.24C287.148 74.352 287.9 74.464 288.524 74.464C289.548 74.464 290.348 74.208 290.86 73.136C291.516 71.808 291.772 69.264 291.772 67.36C291.772 65.184 290.604 64.64 289.18 64.64C288.092 64.64 284.844 65.008 283.66 65.04C283.148 65.056 282.732 65.056 282.22 65.04ZM303.131 61.456L302.811 62.688C304.043 63.008 307.499 63.712 309.035 63.92L309.339 62.704C307.915 62.56 304.507 61.904 303.131 61.456ZM302.779 64.384L301.435 64.208C301.339 65.872 300.939 69.232 300.619 70.688L301.819 70.976C301.915 70.72 302.059 70.464 302.299 70.192C303.419 68.832 305.147 68.048 307.243 68.048C308.875 68.048 310.075 68.96 310.075 70.224C310.075 72.416 307.611 73.872 302.555 73.264L302.939 74.56C308.875 75.056 311.419 73.12 311.419 70.272C311.419 68.384 309.787 66.912 307.339 66.912C305.419 66.912 303.659 67.536 302.123 68.88C302.283 67.84 302.571 65.472 302.779 64.384ZM321.18 61.648L319.66 61.52C319.692 61.856 319.66 62.4 319.596 62.848C319.484 63.696 319.068 65.696 318.668 67.168C318.076 69.424 316.956 72.688 315.98 74.336L317.388 74.8C318.236 73.056 319.308 69.744 319.884 67.472C320.332 65.888 320.668 64.064 320.892 62.912C320.956 62.608 321.084 62 321.18 61.648ZM317.644 64.32C317.052 64.32 316.476 64.304 315.724 64.208L315.756 65.44C316.348 65.488 316.908 65.504 317.612 65.504C319.34 65.504 321.756 65.248 323.74 64.8V63.536C321.756 64.048 319.404 64.32 317.644 64.32ZM322.7 66.528V67.712C323.676 67.6 324.652 67.552 325.66 67.552C326.604 67.552 327.532 67.632 328.364 67.728L328.396 66.512C327.532 66.416 326.556 66.384 325.628 66.384C324.588 66.384 323.532 66.448 322.7 66.528ZM323.02 70.416L321.836 70.288C321.692 70.976 321.596 71.568 321.596 72.176C321.596 73.76 322.972 74.544 325.484 74.544C326.652 74.544 327.724 74.432 328.588 74.32L328.636 73.024C327.644 73.216 326.54 73.344 325.5 73.344C323.228 73.344 322.796 72.608 322.796 71.856C322.796 71.44 322.892 70.928 323.02 70.416ZM326.652 62.144L325.804 62.496C326.236 63.104 326.796 64.08 327.116 64.72L327.98 64.336C327.644 63.696 327.068 62.704 326.652 62.144ZM328.428 61.488L327.58 61.856C328.028 62.464 328.572 63.36 328.908 64.064L329.772 63.68C329.468 63.072 328.86 62.08 328.428 61.488ZM334.988 66.256V67.392H343.788V66.256H334.988ZM333.388 61.248V62.32H338.156V61.248H333.388ZM332.972 69.792V70.896H345.74V69.792H332.972ZM337.74 61.248V61.488C336.764 64.096 334.236 66.304 331.836 67.28C332.076 67.504 332.428 67.92 332.588 68.192C335.196 67.024 337.82 64.752 338.988 61.584L338.188 61.2L337.964 61.248H337.74ZM336.7 66.8V69.52C336.7 71.328 336.268 73.2 332.636 74.416C332.892 74.64 333.26 75.088 333.42 75.36C337.372 73.984 337.884 71.76 337.884 69.536V66.8H336.7ZM340.652 60.624L339.596 60.928C340.86 64.176 343.18 66.88 346.092 68.176C346.284 67.872 346.652 67.408 346.924 67.152C344.076 66.048 341.772 63.52 340.652 60.624ZM333.164 63.52C333.916 64.08 334.844 64.88 335.292 65.376L336.092 64.656C335.628 64.16 334.684 63.392 333.932 62.864L333.164 63.52ZM343.628 60.736C343.02 61.472 341.916 62.48 341.116 63.072L341.852 63.648C342.668 63.088 343.74 62.192 344.556 61.376L343.628 60.736ZM345.532 62.576C344.844 63.328 343.644 64.384 342.764 64.992L343.5 65.568C344.396 64.96 345.548 64.048 346.428 63.216L345.532 62.576ZM340.684 66.832V73.472C340.684 74.8 341.036 75.168 342.396 75.168C342.684 75.168 344.204 75.168 344.508 75.168C345.692 75.168 346.028 74.592 346.14 72.528C345.804 72.464 345.324 72.256 345.052 72.048C344.988 73.76 344.908 74.08 344.396 74.08C344.076 74.08 342.812 74.08 342.572 74.08C342.012 74.08 341.916 73.984 341.916 73.472V66.832H340.684ZM352.108 66.88H348.924V68H350.956V72.544H352.108V66.88ZM352.108 72.064H351.068C350.316 72.752 349.452 73.472 348.748 73.984L349.372 75.152C350.172 74.448 350.908 73.76 351.612 73.072C352.604 74.336 354.06 74.896 356.172 74.976C357.964 75.056 361.388 75.024 363.196 74.944C363.244 74.592 363.436 74.032 363.58 73.76C361.644 73.888 357.948 73.936 356.172 73.856C354.268 73.792 352.86 73.248 352.108 72.064ZM349.068 61.632C350.044 62.416 351.148 63.536 351.596 64.336L352.588 63.584C352.092 62.8 350.972 61.696 349.98 60.976L349.068 61.632ZM354.908 65.008C355.244 65.52 355.548 66.224 355.628 66.688L356.732 66.4C356.62 65.936 356.3 65.248 355.932 64.752L354.908 65.008ZM353.932 61.792V62.688H362.268V61.792H353.932ZM353.82 68.544V69.44H362.492V68.544H353.82ZM353.212 66.56V67.472H363.132V66.56H353.212ZM352.86 63.888V64.816H363.356V63.888H352.86ZM353.02 70.64V71.568H363.228V70.64H353.02ZM357.42 60.56V64.48H358.62V60.56H357.42ZM357.42 66.976V73.088H358.62V66.976H357.42ZM360.028 64.688C359.868 65.168 359.532 65.92 359.276 66.416L360.22 66.704C360.508 66.272 360.86 65.632 361.196 65.008L360.028 64.688ZM370.427 61.536H368.795C368.891 62 368.939 62.56 368.939 63.152C368.939 64.832 368.779 68.88 368.779 71.248C368.779 73.872 370.363 74.816 372.667 74.816C376.171 74.816 378.251 72.816 379.339 71.296L378.443 70.208C377.291 71.872 375.627 73.504 372.699 73.504C371.179 73.504 370.075 72.896 370.075 71.136C370.075 68.752 370.203 64.96 370.267 63.152C370.299 62.624 370.347 62.064 370.427 61.536ZM382.647 63.376L382.791 64.784C384.535 64.416 388.599 64.016 390.327 63.84C388.855 64.704 387.335 66.736 387.335 69.232C387.335 72.816 390.695 74.384 393.671 74.496L394.119 73.184C391.527 73.072 388.599 72.08 388.599 68.96C388.599 67.072 389.991 64.624 392.279 63.888C393.095 63.664 394.487 63.632 395.415 63.648L395.399 62.368C394.327 62.4 392.839 62.496 391.095 62.64C388.135 62.896 385.127 63.184 384.087 63.296C383.767 63.328 383.255 63.36 382.647 63.376ZM401.671 62.848L400.119 62.816C400.215 63.184 400.215 63.872 400.215 64.24C400.215 65.168 400.247 67.12 400.391 68.496C400.839 72.64 402.279 74.144 403.799 74.144C404.887 74.144 405.847 73.216 406.823 70.512L405.815 69.376C405.399 70.976 404.647 72.624 403.831 72.624C402.679 72.624 401.911 70.848 401.639 68.176C401.527 66.864 401.511 65.392 401.527 64.4C401.543 63.984 401.591 63.216 401.671 62.848ZM409.991 63.28L408.759 63.712C410.279 65.584 411.255 68.88 411.527 71.76L412.823 71.248C412.583 68.544 411.431 65.136 409.991 63.28ZM426.167 62.208L424.967 61.152C424.791 61.44 424.375 61.904 424.055 62.224C422.983 63.312 420.551 65.232 419.335 66.24C417.895 67.456 417.719 68.144 419.223 69.408C420.727 70.64 423.143 72.72 424.279 73.872C424.663 74.272 425.047 74.656 425.383 75.04L426.519 74C424.823 72.288 421.991 70.016 420.535 68.816C419.495 67.952 419.511 67.712 420.471 66.88C421.655 65.888 423.959 64.08 425.063 63.12C425.319 62.896 425.815 62.464 426.167 62.208ZM204.292 93.52L202.82 93.376C202.82 94.608 202.596 96.048 202.308 97.312C201.876 99.28 200.596 103.552 198.772 105.984L200.068 106.512C201.876 103.584 203.028 99.6 203.572 97.36C203.78 96.368 204.004 95.056 204.1 94.48C204.164 94.16 204.228 93.824 204.292 93.52ZM209.812 95.232L208.644 95.76C209.764 97.072 211.012 99.904 211.492 101.552L212.724 100.96C212.196 99.472 210.804 96.528 209.812 95.232ZM198.532 97.04L198.676 98.416C199.076 98.352 199.748 98.272 200.116 98.224C201.092 98.128 204.084 97.776 205.156 97.776C206.18 97.776 206.852 98.048 206.852 99.504C206.852 101.232 206.612 103.328 206.1 104.4C205.764 105.104 205.284 105.232 204.692 105.232C204.244 105.232 203.412 105.104 202.74 104.896L202.948 106.24C203.46 106.352 204.212 106.464 204.836 106.464C205.86 106.464 206.66 106.208 207.172 105.136C207.828 103.808 208.084 101.264 208.084 99.36C208.084 97.184 206.916 96.64 205.492 96.64C204.404 96.64 201.156 97.008 199.972 97.04C199.46 97.056 199.044 97.056 198.532 97.04ZM226.276 93.536H224.772C224.836 93.776 224.9 94.128 224.932 94.48C224.98 95.152 225.044 97.632 225.044 98.656C225.044 101.728 224.964 103.552 223.252 105.04C222.852 105.44 222.196 105.84 221.7 106.048L222.868 106.944C226.26 104.96 226.26 102.336 226.26 98.672C226.26 97.776 226.196 95.072 226.212 94.48C226.212 94.112 226.228 93.792 226.276 93.536ZM220.42 96.848V98.112C221.124 98.176 222.244 98.224 223.028 98.224C225.06 98.224 227.3 98.08 228.852 97.824V96.528C227.252 96.896 224.98 97.024 223.012 97.024C222.132 97.024 221.124 96.96 220.42 96.848ZM218.18 93.776L216.692 93.616C216.676 93.904 216.66 94.336 216.612 94.688C216.42 96.032 216.004 98.48 216.004 101.088C216.004 103.088 216.516 105.168 216.836 106.16L217.94 106.032C217.924 105.856 217.892 105.648 217.892 105.488C217.876 105.296 217.908 104.992 217.956 104.768C218.132 103.968 218.612 102.336 218.996 101.232L218.308 100.816C218.02 101.6 217.668 102.576 217.46 103.264C216.836 100.64 217.396 97.136 217.908 94.816C217.972 94.512 218.084 94.064 218.18 93.776ZM232.244 95.376L232.388 96.784C234.132 96.416 238.196 96.016 239.924 95.84C238.452 96.704 236.932 98.736 236.932 101.232C236.932 104.816 240.292 106.384 243.268 106.496L243.716 105.184C241.124 105.072 238.196 104.08 238.196 100.96C238.196 99.072 239.588 96.624 241.876 95.888C242.692 95.664 244.084 95.632 245.012 95.648L244.996 94.368C243.924 94.4 242.436 94.496 240.692 94.64C237.732 94.896 234.724 95.184 233.684 95.296C233.364 95.328 232.852 95.36 232.244 95.376ZM251.028 95.68V96.848H262.116V95.68H251.028ZM250.324 100.368V101.52H261.54V100.368H250.324ZM248.58 105.6V106.768H262.868V105.6H248.58ZM255.108 92.576V106.192H256.34V92.576H255.108ZM251.508 92.832C250.9 95.12 249.86 97.344 248.548 98.768C248.852 98.928 249.396 99.28 249.636 99.488C250.916 97.952 252.036 95.584 252.74 93.104L251.508 92.832ZM273.652 93.312H272.292C272.34 93.52 272.356 94 272.356 94.272C272.356 95.392 272.356 97.072 272.356 98.512C272.356 99.92 272.516 102.992 272.516 104.224C272.516 105.344 271.732 105.616 270.804 105.616C269.22 105.616 268.596 105.072 268.596 104.32C268.596 103.584 269.412 102.992 270.948 102.992C273.796 102.992 276.164 104.592 277.604 105.92L278.34 104.784C277.108 103.776 274.468 101.952 271.092 101.952C268.788 101.952 267.396 102.928 267.396 104.384C267.396 105.936 268.66 106.752 270.964 106.752C273.044 106.752 273.78 105.616 273.78 104.496C273.78 103.424 273.54 100.624 273.54 98.512C273.54 97.168 273.54 95.024 273.572 94.384C273.588 93.904 273.62 93.584 273.652 93.312ZM267.54 95.04L267.556 96.224C268.564 96.352 270.532 96.496 271.636 96.496C273.78 96.496 276.068 96.288 277.876 96.08V94.912C275.796 95.248 273.652 95.392 271.62 95.392C270.564 95.392 268.564 95.232 267.54 95.04ZM267.46 98.448L267.476 99.648C268.612 99.776 270.372 99.856 271.476 99.856C273.876 99.856 275.828 99.744 278.004 99.472V98.272C275.924 98.576 273.796 98.736 271.476 98.736C270.42 98.736 268.596 98.624 267.46 98.448ZM296.884 104.784L296.676 103.424C295.86 104.272 295.012 104.736 294.26 104.736C293.684 104.736 293.412 104.304 293.412 103.76C293.412 102.144 294.02 99.392 294.02 97.792C294.02 96.496 293.284 95.648 291.78 95.648C289.812 95.648 287.156 97.952 286.164 99.04L286.148 100.624C287.652 98.8 289.972 96.816 291.476 96.816C292.292 96.816 292.756 97.216 292.756 98.144C292.756 99.696 292.164 102.32 292.164 104.112C292.164 105.424 292.868 106.128 293.94 106.128C295.028 106.128 296.02 105.648 296.884 104.784ZM286.132 97.136L286.004 97.568L285.94 98.4C285.316 99.456 283.156 102.384 282.164 103.632L282.964 104.72C283.972 103.328 285.46 101.168 286.196 100.032L286.676 97.84C286.948 97.392 287.38 96.704 287.652 96.288L287.188 95.744C286.452 95.984 284.452 96.224 283.604 96.272C283.204 96.304 282.9 96.304 282.548 96.288L282.692 97.616C283.876 97.424 285.604 97.216 286.132 97.136ZM285.972 94.496C285.972 95.088 285.588 100.16 285.556 101.568C285.54 103.328 285.524 104.128 285.524 105.68C285.524 105.936 285.508 106.32 285.476 106.624H286.852C286.836 106.32 286.788 105.92 286.772 105.648C286.708 104.224 286.708 103.248 286.708 101.792C286.708 98.976 287.188 94.4 287.412 93.36L285.908 93.312C285.988 93.712 285.972 94.128 285.972 94.496ZM301.908 94.224L301.94 95.536C302.292 95.488 302.644 95.472 303.012 95.44C303.844 95.392 307.044 95.264 307.892 95.216C307.092 95.936 305.076 97.616 304.18 98.352C303.268 99.136 301.204 100.864 299.876 101.952L300.804 102.88C302.82 100.816 304.26 99.696 306.916 99.696C309.012 99.696 310.516 100.864 310.516 102.448C310.516 104.448 308.804 105.568 306.084 105.568C304.82 105.568 303.94 105.104 303.94 104.32C303.94 103.76 304.5 103.312 305.236 103.312C306.516 103.312 307.3 104.288 307.396 105.648L308.548 105.456C308.436 103.84 307.364 102.336 305.236 102.336C303.764 102.336 302.772 103.328 302.772 104.416C302.772 105.76 304.1 106.704 306.276 106.704C309.668 106.704 311.796 105.024 311.796 102.448C311.796 100.288 309.892 98.704 307.236 98.704C306.516 98.704 305.748 98.784 305.012 99.024C306.26 98 308.436 96.128 309.22 95.52C309.524 95.28 309.844 95.072 310.132 94.88L309.396 93.936C309.22 94 308.996 94.032 308.516 94.08C307.668 94.16 303.876 94.272 303.028 94.272C302.708 94.272 302.26 94.256 301.908 94.224ZM316.724 93.472C317.604 93.824 318.724 94.4 319.284 94.8L319.924 93.872C319.348 93.472 318.212 92.944 317.332 92.656L316.724 93.472ZM315.524 96.144C316.42 96.448 317.556 96.96 318.148 97.328L318.74 96.384C318.148 96.032 316.996 95.568 316.116 95.296L315.524 96.144ZM315.988 101.232L316.82 102.16C317.812 101.12 318.868 99.872 319.78 98.752L319.14 97.952C318.1 99.152 316.836 100.464 315.988 101.232ZM322.212 101.728V107.296H323.444V101.728H322.212ZM315.732 103.056V104.144H330.116V103.056H315.732ZM322.068 92.496C321.348 94.08 320.116 95.616 318.804 96.608C319.092 96.8 319.556 97.216 319.748 97.44C321.06 96.32 322.388 94.608 323.22 92.832L322.068 92.496ZM320.836 95.344V100.992H322.004V94.352L320.836 95.344ZM321.556 94.32L320.964 95.312H329.396V94.32H321.556ZM320.836 100.64V101.632H329.828V100.64H320.836ZM321.316 96.48V97.376H328.916V96.48H321.316ZM321.316 98.528V99.44H328.964V98.528H321.316ZM324.596 94.704V101.024H325.748V94.704H324.596ZM325.444 92.576C325.204 93.216 324.756 94.16 324.356 94.768L325.348 95.024C325.764 94.464 326.276 93.616 326.74 92.816L325.444 92.576ZM339.22 92.704V96.448H340.356V92.704H339.22ZM343.348 92.704V96.448H344.5V92.704H343.348ZM342.276 99.584V107.2H343.268V99.584H342.276ZM336.628 94.064V95.12H347.012V94.064H336.628ZM339.588 101.552V102.416H345.956V101.552H339.588ZM339.588 103.792V104.64H345.956V103.792H339.588ZM337.428 97.008V98.064H347.076V97.008H337.428ZM336.9 97.008V100.448C336.9 102.256 336.788 104.752 335.636 106.544C335.892 106.688 336.356 107.072 336.532 107.28C337.796 105.344 338.02 102.464 338.02 100.464V97.008H336.9ZM338.98 99.248V107.28H340.02V100.16H346.116V99.248H338.98ZM345.62 99.248V106.112C345.62 106.288 345.572 106.336 345.38 106.352C345.204 106.368 344.644 106.368 343.956 106.352C344.1 106.624 344.212 107.024 344.26 107.296C345.204 107.296 345.812 107.28 346.196 107.12C346.58 106.944 346.676 106.656 346.676 106.112V99.248H345.62ZM335.412 92.656C334.644 95.12 333.38 97.584 331.972 99.184C332.18 99.488 332.5 100.128 332.612 100.416C334.196 98.544 335.62 95.728 336.532 92.96L335.412 92.656ZM334.132 96.576V107.28H335.268V95.504L335.236 95.472L334.132 96.576ZM358.532 93.328H357.06C357.092 93.472 357.14 93.92 357.172 94.352C357.22 95.232 357.236 98.416 357.236 99.12L358.452 99.744C358.436 98.464 358.404 95.376 358.452 94.336C358.452 94.144 358.5 93.52 358.532 93.328ZM350.02 95.568L350.052 96.8C352.468 96.624 355.892 96.512 358.644 96.512C360.996 96.512 362.436 96.544 363.332 96.592L363.348 95.408C362.596 95.392 360.612 95.392 358.66 95.392C356.196 95.392 352.196 95.536 350.02 95.568ZM358.42 100.208L357.54 99.76C357.796 101.472 357.156 102.304 356.164 102.304C355.284 102.304 354.532 101.728 354.532 100.72C354.532 99.68 355.316 99.024 356.164 99.024C357.028 99.024 357.732 99.632 357.732 101.072C357.732 103.712 356.036 105.136 353.124 105.824L354.196 106.864C357.908 105.76 358.964 103.36 358.964 101.184C358.964 99.344 358.02 97.968 356.164 97.968C354.644 97.968 353.332 99.152 353.332 100.736C353.332 102.48 354.628 103.424 355.972 103.424C357.428 103.424 358.42 102.352 358.42 100.208ZM369.108 94.224L369.14 95.536C369.492 95.488 369.844 95.472 370.212 95.44C371.044 95.392 374.244 95.264 375.092 95.216C374.292 95.936 372.276 97.616 371.38 98.352C370.468 99.136 368.404 100.864 367.076 101.952L368.004 102.88C370.02 100.816 371.46 99.696 374.116 99.696C376.212 99.696 377.716 100.864 377.716 102.448C377.716 104.448 376.004 105.568 373.284 105.568C372.02 105.568 371.14 105.104 371.14 104.32C371.14 103.76 371.7 103.312 372.436 103.312C373.716 103.312 374.5 104.288 374.596 105.648L375.748 105.456C375.636 103.84 374.564 102.336 372.436 102.336C370.964 102.336 369.972 103.328 369.972 104.416C369.972 105.76 371.3 106.704 373.476 106.704C376.868 106.704 378.996 105.024 378.996 102.448C378.996 100.288 377.092 98.704 374.436 98.704C373.716 98.704 372.948 98.784 372.212 99.024C373.46 98 375.636 96.128 376.42 95.52C376.724 95.28 377.044 95.072 377.332 94.88L376.596 93.936C376.42 94 376.196 94.032 375.716 94.08C374.868 94.16 371.076 94.272 370.228 94.272C369.908 94.272 369.46 94.256 369.108 94.224Z" fill="#5D504F"/>
</g>
<defs>
<filter id="filter0_d_709_1388" x="0" y="0" width="461" height="142" filterUnits="userSpaceOnUse" color-interpolation-filters="sRGB">
<feFlood flood-opacity="0" result="BackgroundImageFix"/>
<feColorMatrix in="SourceAlpha" type="matrix" values="0 0 0 0 0 0 0 0 0 0 0 0 0 0 0 0 0 0 127 0" result="hardAlpha"/>
<feOffset dy="6"/>
<feComposite in2="hardAlpha" operator="out"/>
<feColorMatrix type="matrix" values="0 0 0 0 0 0 0 0 0 0 0 0 0 0 0 0 0 0 0.1 0"/>
<feBlend mode="normal" in2="BackgroundImageFix" result="effect1_dropShadow_709_1388"/>
<feBlend mode="normal" in="SourceGraphic" in2="effect1_dropShadow_709_1388" result="shape"/>
</filter>
</defs>
</svg>
