<svg width="126" height="64" viewBox="0 0 126 64" fill="none" xmlns="http://www.w3.org/2000/svg">
<rect width="126" height="64" rx="32" fill="#F59494"/>
<path d="M32.184 26.016V33.024H35.768V29.344H56.472V33.024H60.248V26.016H32.184ZM36.824 31.808V35.328H53.688V31.808H36.824ZM56.472 16.64C50.584 17.792 40.952 18.56 32.472 18.848C32.824 19.68 33.272 21.152 33.336 22.112C41.848 21.856 51.832 21.152 59.064 19.744L56.472 16.64ZM35.288 22.72C35.96 23.936 36.696 25.536 36.952 26.592L40.472 25.536C40.184 24.48 39.384 22.944 38.648 21.792L35.288 22.72ZM43.736 22.048C44.344 23.392 44.888 25.184 45.016 26.304L48.6 25.44C48.44 24.288 47.8 22.56 47.128 21.28L43.736 22.048ZM53.912 21.216C53.368 22.88 52.344 25.152 51.48 26.688L54.616 27.616C55.576 26.24 56.856 24.16 57.976 22.176L53.912 21.216ZM52.28 31.808V32.416C49.4 39.232 41.304 42.144 31.448 43.136C32.216 43.936 33.304 45.632 33.688 46.592C43.768 45.152 52.536 41.6 56.344 33.216L53.752 31.68L53.08 31.808H52.28ZM40.6 34.4L37.24 35.776C41.72 41.92 48.856 45.28 58.488 46.528C58.968 45.44 60.024 43.776 60.824 42.912C51.512 42.048 44.184 39.264 40.6 34.4ZM68.952 16.96V46.784H72.376V16.96H68.952ZM64.888 27.488V31.072H75.448V27.488H64.888ZM68.92 29.408C68.12 32.576 66.232 37.024 64.376 39.392C64.952 40.48 65.816 42.208 66.136 43.392C68.216 40.32 70.072 34.72 71.064 30.464L68.92 29.408ZM72.44 31.328L70.68 32.8C71.672 34.432 73.528 38.016 74.232 39.904L76.664 36.96C76.056 36 73.272 32.192 72.44 31.328ZM64.856 19.456C65.624 21.728 66.232 24.768 66.328 26.72L68.984 26.08C68.824 24.096 68.216 21.12 67.352 18.816L64.856 19.456ZM73.752 18.656C73.432 20.896 72.728 24.032 72.12 26.016L74.392 26.656C75.128 24.8 76.024 21.792 76.792 19.296L73.752 18.656ZM77.176 19.168V21.92H93.848V19.168H77.176ZM77.944 23.168V25.76H93.176V23.168H77.944ZM76.28 27.136V29.92H94.68V27.136H76.28ZM83.384 16.864V28.704H87.032V16.864H83.384ZM77.944 31.232V46.912H81.528V33.952H90.104V31.232H77.944ZM89.24 31.232V43.392C89.24 43.744 89.112 43.872 88.696 43.872C88.312 43.872 86.968 43.872 85.784 43.808C86.2 44.672 86.616 45.952 86.776 46.88C88.824 46.88 90.328 46.848 91.416 46.368C92.536 45.856 92.824 45.024 92.824 43.424V31.232H89.24ZM79.96 35.488V37.984H90.488V35.488H79.96ZM79.96 39.52V42.016H90.488V39.52H79.96Z" fill="white"/>
</svg>
