<svg width="126" height="64" viewBox="0 0 126 64" fill="none" xmlns="http://www.w3.org/2000/svg">
<rect width="126" height="64" rx="32" fill="#F59494"/>
<path d="M47.128 41.984V45.376H57.688V41.984H47.128ZM45.368 33.248V46.784H48.92V36.64H55.672V46.656H59.352V33.248H45.368ZM43.512 27.296L43.832 31.008C47.832 30.752 53.4 30.4 58.616 29.984L58.648 26.56C53.208 26.848 47.384 27.136 43.512 27.296ZM53.144 22.944C55.256 25.792 57.464 29.728 58.296 32.288L61.688 30.464C60.696 27.936 58.52 24.192 56.312 21.408L53.144 22.944ZM49.176 16.768C48.248 20.576 46.392 25.632 44.824 28.768L48.28 29.664C49.848 26.624 51.736 21.92 53.208 17.664L49.176 16.768ZM34.584 17.952V21.504H41.624V17.952H34.584ZM34.584 25.216V28.768H41.752V25.216H34.584ZM34.552 32.64V36.256H41.656V32.64H34.552ZM33.08 17.952V29.6C33.08 34.304 32.952 40.768 30.936 45.184C31.8 45.504 33.368 46.368 34.04 46.944C36.216 42.176 36.536 34.752 36.536 29.6V17.952H33.08ZM39.512 17.952V42.656C39.512 43.072 39.352 43.2 39 43.2C38.584 43.232 37.4 43.232 36.248 43.2C36.728 44.16 37.208 45.888 37.304 46.88C39.352 46.88 40.76 46.816 41.752 46.176C42.808 45.536 43.064 44.448 43.064 42.72V17.952H39.512ZM79.32 27.904H87.896V31.392H79.32V27.904ZM79.32 21.44H87.896V24.864H79.32V21.44ZM75.608 18.144V34.688H91.8V18.144H75.608ZM68.088 17.76V35.2H71.832V17.76H68.088ZM81.752 35.488V42.048C81.752 45.568 82.616 46.784 86.36 46.784C87.064 46.784 89.496 46.784 90.232 46.784C93.304 46.784 94.36 45.472 94.744 40.416C93.688 40.16 91.992 39.552 91.192 38.88C91.064 42.592 90.904 43.136 89.88 43.136C89.272 43.136 87.384 43.136 86.904 43.136C85.848 43.136 85.656 43.008 85.656 42.016V35.488H81.752ZM73.272 35.552C72.824 39.648 71.864 42.24 64.632 43.68C65.432 44.48 66.424 46.08 66.808 47.104C75.224 45.056 76.792 41.216 77.432 35.552H73.272Z" fill="white"/>
</svg>
