<svg width="126" height="56" viewBox="0 0 126 56" fill="none" xmlns="http://www.w3.org/2000/svg">
<rect width="126" height="56" rx="28" fill="#F59494"/>
<path d="M47.128 37.984V41.376H57.688V37.984H47.128ZM45.368 29.248V42.784H48.92V32.64H55.672V42.656H59.352V29.248H45.368ZM43.512 23.296L43.832 27.008C47.832 26.752 53.4 26.4 58.616 25.984L58.648 22.56C53.208 22.848 47.384 23.136 43.512 23.296ZM53.144 18.944C55.256 21.792 57.464 25.728 58.296 28.288L61.688 26.464C60.696 23.936 58.52 20.192 56.312 17.408L53.144 18.944ZM49.176 12.768C48.248 16.576 46.392 21.632 44.824 24.768L48.28 25.664C49.848 22.624 51.736 17.92 53.208 13.664L49.176 12.768ZM34.584 13.952V17.504H41.624V13.952H34.584ZM34.584 21.216V24.768H41.752V21.216H34.584ZM34.552 28.64V32.256H41.656V28.64H34.552ZM33.08 13.952V25.6C33.08 30.304 32.952 36.768 30.936 41.184C31.8 41.504 33.368 42.368 34.04 42.944C36.216 38.176 36.536 30.752 36.536 25.6V13.952H33.08ZM39.512 13.952V38.656C39.512 39.072 39.352 39.2 39 39.2C38.584 39.232 37.4 39.232 36.248 39.2C36.728 40.16 37.208 41.888 37.304 42.88C39.352 42.88 40.76 42.816 41.752 42.176C42.808 41.536 43.064 40.448 43.064 38.72V13.952H39.512ZM79.32 23.904H87.896V27.392H79.32V23.904ZM79.32 17.44H87.896V20.864H79.32V17.44ZM75.608 14.144V30.688H91.8V14.144H75.608ZM68.088 13.76V31.2H71.832V13.76H68.088ZM81.752 31.488V38.048C81.752 41.568 82.616 42.784 86.36 42.784C87.064 42.784 89.496 42.784 90.232 42.784C93.304 42.784 94.36 41.472 94.744 36.416C93.688 36.16 91.992 35.552 91.192 34.88C91.064 38.592 90.904 39.136 89.88 39.136C89.272 39.136 87.384 39.136 86.904 39.136C85.848 39.136 85.656 39.008 85.656 38.016V31.488H81.752ZM73.272 31.552C72.824 35.648 71.864 38.24 64.632 39.68C65.432 40.48 66.424 42.08 66.808 43.104C75.224 41.056 76.792 37.216 77.432 31.552H73.272Z" fill="white"/>
</svg>
