<svg width="154" height="73" viewBox="0 0 154 73" fill="none" xmlns="http://www.w3.org/2000/svg">
<rect width="154" height="73" rx="36.5" fill="#44AE7D"/>
<path d="M40.7031 37.0469C40.7969 36.5781 41.2656 34.4219 42.1094 30.5781L44.5 20.1719L50.6875 21.2969L49.5625 26.6406L54.9062 26.5L55.1875 18.9062L61.5156 19.0469L61.0938 26.3594L72.3438 26.0781V31.1406L61.0938 31.4219V36.625L69.6719 36.4844V41.4062H63.2031L61.0938 41.5469V46.3281H75.1562V51.3906L59.6875 51.5312L48.0156 52.375L40.9844 53.0781L41.2656 47.0312L54.4844 46.6094L54.625 41.8281L46.3281 42.3906L46.6094 38.3125L40.7031 37.0469ZM54.625 36.7656L54.7656 31.8438L48.2969 32.4062L47.3125 37.0469L54.625 36.7656ZM80.4719 29.3125L87.6437 28.8906V25.7969L78.6437 26.6406L78.925 22L92.7062 21.5781L93.2687 19.0469H99.175L98.6125 21.7188H112.534L112.253 25.6562L104.378 25.5156L103.675 28.4688L112.675 28.3281L112.956 32.4062C110.519 32.3125 108.269 32.2656 106.206 32.2656C103.394 32.2656 101.003 32.3125 99.0344 32.4062C95.6594 32.5938 92.3312 32.875 89.05 33.25L93.1281 34.5156L92.425 36.0625L96.0812 35.9219L96.2219 33.6719H101.987V35.6406H109.441V39.4375H101.847V41.6875L107.331 41.4062L107.472 45.625L101.706 45.4844V47.7344H111.972L111.691 51.8125C106.909 51.8125 103.019 51.8594 100.019 51.9531C96.6437 52.0469 91.675 52.3281 85.1125 52.7969L85.2531 48.0156L95.5187 47.7344L95.6594 45.625L89.6125 46.1875L89.8937 42.1094L95.8 41.8281L95.9406 39.8594L90.4562 40.1406L88.2062 45.625L84.55 44.0781L83.9875 53.0781L78.5031 52.6562L80.4719 29.3125ZM88.3469 33.25L85.2531 33.6719L84.6906 41.2656L88.3469 33.25ZM97.9094 28.6094L98.6125 25.5156H93.2687L93.1281 28.75L97.9094 28.6094Z" fill="white"/>
</svg>
