<svg width="461" height="78" viewBox="0 0 461 78" fill="none" xmlns="http://www.w3.org/2000/svg">
<g filter="url(#filter0_d_709_1394)">
<rect width="461" height="72" rx="30" fill="white" shape-rendering="crispEdges"/>
<path d="M150.885 36.672C151.893 37.952 153.013 39.712 153.477 40.8L154.629 40.24C154.117 39.136 152.965 37.44 151.941 36.192L150.885 36.672ZM146.485 28.592V34.304H147.717V28.592H146.485ZM140.053 33.92V35.072H154.261V33.92H140.053ZM141.637 30.496V31.648H152.997V30.496H141.637ZM148.501 34.544V41.792C148.501 42 148.437 42.064 148.181 42.064C147.941 42.08 147.109 42.096 146.197 42.064C146.373 42.416 146.565 42.928 146.629 43.264C147.829 43.264 148.613 43.248 149.109 43.056C149.605 42.848 149.749 42.512 149.749 41.808V34.544H148.501ZM142.213 36.272C141.749 37.552 140.757 39.088 139.637 40.048C139.925 40.208 140.357 40.512 140.597 40.736C141.749 39.696 142.805 38.048 143.429 36.592L142.213 36.272ZM144.901 34.4V36.016C144.901 37.984 144.645 40.56 141.685 42.512C141.973 42.72 142.405 43.12 142.581 43.392C145.781 41.232 146.117 38.304 146.117 36.032V34.4H144.901ZM162.709 29.472L161.269 29.408C161.301 29.84 161.269 30.224 161.205 30.736C161.013 32.272 160.165 36.24 158.949 38.624L160.133 39.04C160.293 38.768 160.437 38.544 160.629 38.304C161.685 37.04 163.461 36.384 165.365 36.384C167.237 36.384 168.213 37.312 168.213 38.496C168.213 41.136 164.629 41.76 160.917 41.248L161.253 42.528C166.117 43.04 169.525 41.808 169.525 38.464C169.525 36.592 168.037 35.296 165.493 35.296C163.829 35.296 162.389 35.696 160.997 36.672C161.541 35.184 162.181 32.096 162.405 30.816C162.501 30.4 162.581 29.904 162.709 29.472ZM157.733 31.52L157.749 32.768C158.661 32.848 159.685 32.928 160.773 32.928C162.965 32.928 166.229 32.608 168.501 32.208L168.469 30.976C165.957 31.536 162.805 31.776 160.757 31.776C159.797 31.776 158.581 31.664 157.733 31.52ZM181.045 34.048L181.941 33.36C181.493 32.88 180.629 32.16 180.197 31.856L179.317 32.528C179.909 32.944 180.597 33.552 181.045 34.048ZM177.189 33.04L175.925 33.552C176.165 33.808 176.421 34.208 176.565 34.448C176.997 35.152 177.701 36.64 178.293 38C178.981 39.648 179.653 41.728 180.053 43.248L181.317 42.912C180.869 41.52 180.085 39.12 179.381 37.52C178.869 36.32 178.037 34.64 177.589 33.808C177.477 33.584 177.317 33.296 177.189 33.04ZM174.549 36.848L175.173 38.096C176.581 37.456 180.949 35.024 183.061 35.024C184.501 35.024 184.981 35.824 184.981 36.496C184.981 37.36 184.453 38.144 182.917 38.144C182.261 38.144 181.541 37.936 181.045 37.696L180.997 38.88C181.445 39.056 182.245 39.28 182.965 39.28C185.189 39.28 186.165 38.16 186.165 36.496C186.165 35.152 185.221 33.92 183.093 33.92C181.061 33.92 177.477 35.792 175.685 36.496C175.461 36.592 175.029 36.736 174.549 36.848ZM198.293 30.128L196.869 29.552C196.677 30.032 196.469 30.416 196.293 30.8C195.413 32.336 191.909 38.896 190.741 42.128L192.117 42.608C192.341 41.824 193.013 39.92 193.509 38.976C194.117 37.712 195.333 36.4 196.613 36.4C197.333 36.4 197.749 36.832 197.781 37.52C197.829 38.4 197.813 39.632 197.861 40.576C197.909 41.52 198.469 42.592 200.181 42.592C202.501 42.592 203.845 40.8 204.693 38.224L203.621 37.36C203.221 39.072 202.165 41.28 200.373 41.28C199.685 41.28 199.141 40.928 199.093 40.128C199.029 39.344 199.061 38.128 199.029 37.184C198.981 35.92 198.213 35.232 197.141 35.232C196.373 35.232 195.541 35.536 194.773 36.224C195.589 34.672 197.061 32.016 197.781 30.912C197.957 30.608 198.149 30.32 198.293 30.128ZM213.125 29.584L211.637 29.424C211.637 30.656 211.429 32.096 211.125 33.376C210.693 35.328 209.413 39.6 207.589 42.048L208.901 42.56C210.709 39.648 211.845 35.664 212.389 33.408C212.613 32.416 212.821 31.104 212.933 30.528C212.997 30.224 213.061 29.872 213.125 29.584ZM218.629 31.424L217.461 31.952C218.581 33.28 219.845 36.064 220.309 37.696L221.557 37.104C221.013 35.632 219.621 32.72 218.629 31.424ZM207.365 33.088L207.493 34.48C207.909 34.416 208.565 34.336 208.933 34.288C209.909 34.192 212.917 33.824 213.989 33.824C215.013 33.824 215.685 34.096 215.685 35.568C215.685 37.296 215.429 39.376 214.917 40.464C214.597 41.152 214.117 41.28 213.525 41.28C213.077 41.28 212.229 41.168 211.557 40.96L211.781 42.288C212.277 42.416 213.045 42.528 213.653 42.528C214.693 42.528 215.493 42.256 215.989 41.184C216.661 39.856 216.917 37.312 216.917 35.408C216.917 33.248 215.749 32.704 214.325 32.704C213.237 32.704 209.989 33.056 208.789 33.088C208.277 33.104 207.861 33.12 207.365 33.088ZM218.805 29.104L217.941 29.472C218.389 30.08 218.933 31.04 219.253 31.696L220.117 31.312C219.781 30.656 219.205 29.68 218.805 29.104ZM220.565 28.464L219.717 28.832C220.181 29.424 220.709 30.336 221.045 31.04L221.925 30.656C221.605 30.064 220.997 29.056 220.565 28.464ZM226.469 31.68V32.848H237.557V31.68H226.469ZM225.765 36.368V37.52H236.981V36.368H225.765ZM224.021 41.6V42.768H238.309V41.6H224.021ZM230.549 28.576V42.192H231.781V28.576H230.549ZM226.949 28.832C226.341 31.12 225.301 33.344 223.989 34.768C224.293 34.928 224.837 35.28 225.077 35.488C226.357 33.952 227.477 31.584 228.181 29.104L226.949 28.832ZM249.093 29.312H247.733C247.781 29.52 247.797 30 247.797 30.272C247.797 31.392 247.797 33.072 247.797 34.512C247.797 35.92 247.957 38.992 247.957 40.224C247.957 41.344 247.173 41.616 246.245 41.616C244.661 41.616 244.037 41.072 244.037 40.32C244.037 39.584 244.853 38.992 246.389 38.992C249.237 38.992 251.605 40.592 253.045 41.92L253.781 40.784C252.549 39.776 249.909 37.952 246.533 37.952C244.229 37.952 242.837 38.928 242.837 40.384C242.837 41.936 244.101 42.752 246.405 42.752C248.485 42.752 249.221 41.616 249.221 40.496C249.221 39.424 248.981 36.624 248.981 34.512C248.981 33.168 248.981 31.024 249.013 30.384C249.029 29.904 249.061 29.584 249.093 29.312ZM242.981 31.04L242.997 32.224C244.005 32.352 245.973 32.496 247.077 32.496C249.221 32.496 251.509 32.288 253.317 32.08V30.912C251.237 31.248 249.093 31.392 247.061 31.392C246.005 31.392 244.005 31.232 242.981 31.04ZM242.901 34.448L242.917 35.648C244.053 35.776 245.813 35.856 246.917 35.856C249.317 35.856 251.269 35.744 253.445 35.472V34.272C251.365 34.576 249.237 34.736 246.917 34.736C245.861 34.736 244.037 34.624 242.901 34.448ZM272.325 40.784L272.117 39.424C271.301 40.272 270.453 40.736 269.701 40.736C269.125 40.736 268.853 40.304 268.853 39.76C268.853 38.144 269.461 35.392 269.461 33.792C269.461 32.496 268.725 31.648 267.221 31.648C265.253 31.648 262.597 33.952 261.605 35.04L261.589 36.624C263.093 34.8 265.413 32.816 266.917 32.816C267.733 32.816 268.197 33.216 268.197 34.144C268.197 35.696 267.605 38.32 267.605 40.112C267.605 41.424 268.309 42.128 269.381 42.128C270.469 42.128 271.461 41.648 272.325 40.784ZM261.573 33.136L261.445 33.568L261.381 34.4C260.757 35.456 258.597 38.384 257.605 39.632L258.405 40.72C259.413 39.328 260.901 37.168 261.637 36.032L262.117 33.84C262.389 33.392 262.821 32.704 263.093 32.288L262.629 31.744C261.893 31.984 259.893 32.224 259.045 32.272C258.645 32.304 258.341 32.304 257.989 32.288L258.133 33.616C259.317 33.424 261.045 33.216 261.573 33.136ZM261.413 30.496C261.413 31.088 261.029 36.16 260.997 37.568C260.981 39.328 260.965 40.128 260.965 41.68C260.965 41.936 260.949 42.32 260.917 42.624H262.293C262.277 42.32 262.229 41.92 262.213 41.648C262.149 40.224 262.149 39.248 262.149 37.792C262.149 34.976 262.629 30.4 262.853 29.36L261.349 29.312C261.429 29.712 261.413 30.128 261.413 30.496ZM274.4 31.376L274.544 32.784C276.288 32.416 280.352 32.016 282.08 31.84C280.608 32.704 279.088 34.736 279.088 37.232C279.088 40.816 282.448 42.384 285.424 42.496L285.872 41.184C283.28 41.072 280.352 40.08 280.352 36.96C280.352 35.072 281.744 32.624 284.032 31.888C284.848 31.664 286.24 31.632 287.168 31.648L287.152 30.368C286.08 30.4 284.592 30.496 282.848 30.64C279.888 30.896 276.88 31.184 275.84 31.296C275.52 31.328 275.008 31.36 274.4 31.376ZM300.636 30.208L299.436 29.152C299.26 29.44 298.844 29.904 298.524 30.224C297.452 31.312 295.02 33.232 293.804 34.24C292.364 35.456 292.188 36.144 293.692 37.408C295.196 38.64 297.612 40.72 298.748 41.872C299.132 42.272 299.516 42.656 299.852 43.04L300.988 42C299.292 40.288 296.46 38.016 295.004 36.816C293.964 35.952 293.98 35.712 294.94 34.88C296.124 33.888 298.428 32.08 299.532 31.12C299.788 30.896 300.284 30.464 300.636 30.208ZM309.667 30.224L309.699 31.536C310.051 31.488 310.403 31.472 310.771 31.44C311.603 31.392 314.803 31.264 315.651 31.216C314.851 31.936 312.835 33.616 311.939 34.352C311.027 35.136 308.963 36.864 307.635 37.952L308.563 38.88C310.579 36.816 312.019 35.696 314.675 35.696C316.771 35.696 318.275 36.864 318.275 38.448C318.275 40.448 316.563 41.568 313.843 41.568C312.579 41.568 311.699 41.104 311.699 40.32C311.699 39.76 312.259 39.312 312.995 39.312C314.275 39.312 315.059 40.288 315.155 41.648L316.307 41.456C316.195 39.84 315.123 38.336 312.995 38.336C311.523 38.336 310.531 39.328 310.531 40.416C310.531 41.76 311.859 42.704 314.035 42.704C317.427 42.704 319.555 41.024 319.555 38.448C319.555 36.288 317.651 34.704 314.995 34.704C314.275 34.704 313.507 34.784 312.771 35.024C314.019 34 316.195 32.128 316.979 31.52C317.283 31.28 317.603 31.072 317.891 30.88L317.155 29.936C316.979 30 316.755 30.032 316.275 30.08C315.427 30.16 311.635 30.272 310.787 30.272C310.467 30.272 310.019 30.256 309.667 30.224Z" fill="#5D504F"/>
</g>
<defs>
<filter id="filter0_d_709_1394" x="0" y="0" width="461" height="78" filterUnits="userSpaceOnUse" color-interpolation-filters="sRGB">
<feFlood flood-opacity="0" result="BackgroundImageFix"/>
<feColorMatrix in="SourceAlpha" type="matrix" values="0 0 0 0 0 0 0 0 0 0 0 0 0 0 0 0 0 0 127 0" result="hardAlpha"/>
<feOffset dy="6"/>
<feComposite in2="hardAlpha" operator="out"/>
<feColorMatrix type="matrix" values="0 0 0 0 0 0 0 0 0 0 0 0 0 0 0 0 0 0 0.1 0"/>
<feBlend mode="normal" in2="BackgroundImageFix" result="effect1_dropShadow_709_1394"/>
<feBlend mode="normal" in="SourceGraphic" in2="effect1_dropShadow_709_1394" result="shape"/>
</filter>
</defs>
</svg>
