<svg width="107" height="23" viewBox="0 0 107 23" fill="none" xmlns="http://www.w3.org/2000/svg">
<path d="M8.34375 10.7188C10.0938 8.84375 11.5625 7.03125 12.75 5.28125L1.78125 6.875L1.40625 2.1875L9.65625 1.4375C10.8438 1.3125 11.9375 1.21875 12.9375 1.15625C14.25 1.09375 15.3125 1.21875 16.125 1.53125C17.5625 2.09375 18.2812 3 18.2812 4.25C18.2812 5 18.0625 5.78125 17.625 6.59375C17.3125 7.21875 16.7188 8.0625 15.8438 9.125L13.0312 12.5938L20.5312 18.6875L16.875 21.875L9.9375 16.0625L4.21875 21.9688L0.5625 18.9688L4.59375 14.75C5.96875 13.25 7.21875 11.9062 8.34375 10.7188ZM23.0438 7.71875L43.95 7.4375V10.7188L34.95 10.9062L37.2938 11.75L32.9813 22.0625L28.3875 20.5625L33.075 11.0938L22.95 12.2188L23.0438 7.71875ZM42.1688 1.0625V4.53125C38.8563 4.65625 35.8563 4.8125 33.1688 5C31.2313 5.125 28.45 5.375 24.825 5.75V1.625L42.1688 1.0625ZM46.3688 9.6875L66.4313 9.40625L66.3375 12.5C61.775 12.625 57.6813 12.7812 54.0563 12.9688C52.7438 13.0938 50.1813 13.375 46.3688 13.8125V9.6875ZM70.1625 6.21875L77.7562 8.65625L76.8187 12.3125L68.6625 10.5312L70.1625 6.21875ZM87.4125 7.25L89.5687 10.625L72.6937 21.875L70.2562 18.0312L87.4125 7.25ZM73.2562 0.5L80.0062 3.6875L78.1312 6.96875L71.1 4.0625L73.2562 0.5ZM85.1625 1.4375L85.2562 1.53125L86.5687 5.75L84.0375 6.3125L82.8187 1.8125L85.1625 1.4375ZM87.6937 0.875L89.5687 4.8125L87.0375 5.5625H86.9437L85.4437 1.34375L87.6937 0.875ZM103.613 13.1562H106.144L105.956 17.2812L103.519 17.4688L103.331 22.25H99.3L99.3938 17.75L93.8625 18.2188C92.8 18.3438 92.175 18 91.9875 17.1875C91.8625 16.625 91.8625 16.0625 91.9875 15.5C92.175 14.75 92.6438 13.4688 93.3938 11.6562C94.0188 10.2188 94.5813 8.96875 95.0813 7.90625L98.6438 0.59375L102.394 0.40625C103.769 0.34375 104.394 1.09375 104.269 2.65625L103.613 13.1562ZM99.7688 13.1562L100.238 6.03125C99.55 7.59375 99.05 8.78125 98.7375 9.59375C98.3625 10.4688 97.8938 11.6875 97.3313 13.25L99.7688 13.1562Z" fill="#44AE7D"/>
</svg>
