<svg width="118" height="116" viewBox="0 0 118 116" fill="none" xmlns="http://www.w3.org/2000/svg">
<rect width="118" height="116" rx="58" fill="#FFB31F"/>
<path d="M39.25 27.875L38.625 24.5H43.5L44.125 27.875L47.375 27.75C46.5417 26.75 46.3333 25.9167 46.75 25.25C47.0833 24.75 47.5417 24.4167 48.125 24.25C48.875 24.0833 49.5833 24.25 50.25 24.75C50.9167 25.25 51.2083 25.8333 51.125 26.5C51.125 26.6667 51.0417 26.875 50.875 27.125C50.7083 27.375 50.5417 27.5833 50.375 27.75L54.25 27.875L54.125 31.625L45 31.25C45.25 32.3333 45.5 33.25 45.75 34L47.25 31.625L51.25 33.625L48.125 38.75C48.4583 39.25 48.7917 39.625 49.125 39.875L50.5 37.75L54.125 40.25C53.625 41.5 53.0833 42.625 52.5 43.625C51.8333 44.7083 51 45.3333 50 45.5C48.6667 45.6667 47.2083 44.9167 45.625 43.25L44.5 45.375L40.875 42.625L43 39C42.25 37.5833 41.5 35.7083 40.75 33.375L41.125 35.5L30.125 36.25L30.375 32.875L35.25 32.5L40.375 32.125L40.125 31.375L29.75 32.125L28.625 45.125L23.875 45.5L25.375 28.25L39.25 27.875ZM27.75 45.75L31.875 47.5L28.875 54.5L23.875 52.5L27.75 45.75ZM39.875 37.25C40.2083 37.8333 40.375 38.75 40.375 40L40.25 44C41.9167 44 43.0417 44.4583 43.625 45.375C44.125 46.125 44.25 46.9167 44 47.75C43.8333 48.4167 43.5 48.9167 43 49.25C42.5 49.5833 41.875 49.75 41.125 49.75C40.375 49.75 39.75 49.5417 39.25 49.125C38.4167 48.5417 38.0833 47.6667 38.25 46.5C38.3333 45.9167 38.5833 45.2917 39 44.625L29.625 44.875L30 36.75C33.6667 36.25 36.3333 36.0833 38 36.25C38.9167 36.3333 39.5417 36.6667 39.875 37.25ZM37.5 45.375L37.625 50.25H43.875V48.375L48.125 49.375C48.125 47.7917 48.75 46.8333 50 46.5C51.6667 46.0833 52.9167 46.5417 53.75 47.875C54.1667 48.5417 54.25 49.2917 54 50.125C53.75 50.9583 53.25 51.5417 52.5 51.875C51.4167 52.375 50.1667 52 48.75 50.75C48.5 52.6667 47.875 53.7917 46.875 54.125L45.125 54.75L35.375 54.625C34.7917 54.625 34.1667 54.25 33.5 53.5C33.1667 53.1667 32.9167 52.5 32.75 51.5C32.6667 51 32.6667 50.375 32.75 49.625L33 45.5L37.5 45.375ZM36.25 41.625V39.5H33.875L33.75 41.75L36.25 41.625ZM63.395 43.125L75.77 42.875L75.895 40.625L81.27 40.75L81.145 42.75H93.895L93.77 46.875L87.27 46.75L94.145 50.375L90.27 54.875L81.395 49L81.52 54.625L75.52 54.75V49.125L68.645 54.875L63.395 51.625L68.895 47.625L63.395 48.25V43.125ZM64.645 34.75C63.645 34.1667 63.1867 33.2083 63.27 31.875C63.3533 31.125 63.645 30.5417 64.145 30.125C64.7283 29.625 65.4783 29.375 66.395 29.375C68.145 29.375 69.0617 30.2083 69.145 31.875C69.2283 33.2917 68.7283 34.25 67.645 34.75C66.5617 35.25 65.5617 35.25 64.645 34.75ZM72.145 31.75C73.145 32.5833 74.1867 33.625 75.27 34.875L67.645 42L64.02 38.875L72.145 31.75ZM68.27 29.625C67.27 29.125 66.6867 28.3333 66.52 27.25C66.3533 26.1667 66.77 25.3333 67.77 24.75C68.9367 24.0833 69.9783 24 70.895 24.5C71.645 24.9167 72.0617 25.5833 72.145 26.5C72.3117 27.75 71.9367 28.7083 71.02 29.375C70.1867 30.0417 69.27 30.125 68.27 29.625ZM74.645 33C74.7283 31.0833 74.895 29.3333 75.145 27.75L79.52 27.625L80.645 23.875L85.52 24.875L84.645 27.5C86.8117 27.25 88.395 27.5833 89.395 28.5C89.895 29 90.2283 29.6667 90.395 30.5C90.4783 31 90.52 31.7917 90.52 32.875V35.875L93.895 36L93.645 40.625L90.77 40.75C88.77 40.8333 87.395 40.5833 86.645 40C85.645 39.25 85.145 38.2083 85.145 36.875V31.5L83.52 31.625L80.77 40.25L75.77 39.125L78.02 32.375L74.645 33ZM25 81.375H28.25L27.375 90L23.625 89.875L25 81.375ZM27.625 65.375C28.7083 64.375 29.7917 63.4167 30.875 62.5L33.625 65L33.875 65.375L30.125 69L31 69.875L34.5 66.625L37.125 69.25L39.625 67L43.375 69.25L46.375 66.375L36.75 66.875L37 62.875L47.25 62.625C48.75 62.5417 49.8333 62.625 50.5 62.875C51.4167 63.2083 51.9583 63.75 52.125 64.5C52.375 65.5833 51.9583 66.8333 50.875 68.25C50.2917 69 49.125 70.2083 47.375 71.875L54.375 76.625L52 80.375L44 75C42.5 76.5833 40.9583 78.125 39.375 79.625L36.625 77.125L37.125 80.375L33.5 80.875L33.375 79.625H32.875L32.75 83.625C34.1667 82.4583 35.5 82.5833 36.75 84V81.625L42.25 81.25V77.625H46.875L47 77.75V81.25L52.5 81.5L52.25 85L46.875 84.875L47 88.375H53.875L54 91.75L43.25 92.125L35 92.625L34.625 88.875L42.25 88.5V85L37 85.375C36.5 86.375 35.9583 87.0417 35.375 87.375C34.625 87.7917 33.75 87.625 32.75 86.875L32.625 92.75L28.25 92.875L28.75 80.25C27.6667 80.3333 26.875 80.375 26.375 80.375C25.625 80.375 24.9583 80.0417 24.375 79.375C23.875 78.7083 23.7917 78 24.125 77.25C24.4583 76.5 24.9583 75.7917 25.625 75.125C26.2083 74.5417 26.8333 73.9583 27.5 73.375C26.4167 71.9583 25.75 71.0833 25.5 70.75C25.1667 70.1667 25.0417 69.5833 25.125 69C25.2917 68 26.125 66.7917 27.625 65.375ZM32.75 76.625L32.375 74.375L35.875 74L36.25 76.125H36.375L40 72.5L36.375 70.375L29.625 77L32.75 76.625ZM68.145 76.875L67.395 86.75L68.645 86.375L69.27 75.25L63.645 75.75L64.145 63C68.395 62.6667 71.3533 62.5417 73.02 62.625C74.6867 62.7083 75.7283 63.125 76.145 63.875C76.4783 64.4583 76.6033 65.9167 76.52 68.25L82.52 62.25L86.77 64.125L86.395 64.625C88.3117 64.625 89.5617 64.6667 90.145 64.75C90.9783 64.9167 91.5617 65.25 91.895 65.75C92.395 66.5 92.395 67.4167 91.895 68.5C91.8117 68.6667 91.52 69.125 91.02 69.875C90.1867 71.125 89.1033 72.4167 87.77 73.75L94.145 78.875L91.895 82.625C92.0617 84.2083 92.1867 85.5833 92.27 86.75C92.3533 88.25 92.3533 89.9583 92.27 91.875L77.145 92.75L77.77 84.5L74.52 81.75V81.625L76.145 79.875L73.02 80.125L72.895 85L75.895 84L75.77 88.5L73.145 89.625L68.395 91.5C66.395 92.3333 64.9783 92.1667 64.145 91C63.4783 90.1667 63.2283 88.75 63.395 86.75L64.02 77.125L68.145 76.875ZM72.02 71.5L72.27 66.125L68.645 66.25L68.52 71.5H72.02ZM76.395 76.5L76.27 79.75L81.645 74L79.145 72L78.145 73L76.395 71.375L76.27 74.75L73.395 74.875L73.145 76.625L76.395 76.5ZM84.395 70.875L87.145 67.875L83.145 68L82.145 68.875L84.395 70.875ZM87.52 88.375L87.395 83.25L82.52 83.375L82.27 88.5L87.52 88.375ZM88.27 79.75L84.895 76.875L82.27 79.75H88.27Z" fill="white"/>
</svg>
