<svg width="338" height="48" viewBox="0 0 338 48" fill="none" xmlns="http://www.w3.org/2000/svg">
<path d="M3.9375 20.0625L4.03125 18.75C3.40625 19.375 2.78125 19.625 2.15625 19.5C1.40625 19.375 0.90625 18.9688 0.65625 18.2812C0.34375 17.5312 0.40625 16.875 0.84375 16.3125C1.34375 15.6875 1.9375 15.4062 2.625 15.4688C3.1875 15.5312 3.6875 15.875 4.125 16.5V12.75L7.78125 12.8438L7.6875 15.75C8.5625 15.3125 9.25 15.1875 9.75 15.375C10.25 15.5625 10.6562 16.0625 10.9688 16.875L11.0625 15.0938H14.9062V12.9375L19.0312 12.8438L18.9375 15.0938H23.3438V17.5312L18.8438 17.4375V18.0938L22.5 18L22.5938 20.3438H18.8438V21.0938L23.3438 21V23.7188L21.2812 23.5312L15.0938 23.7188L9.75 24.2812L9.9375 21.1875L14.9062 21.0938V20.5312L11.3438 20.9062L11.5312 18.2812L14.9062 18.1875V17.5312L10.9688 18V17.625L10.875 17.9062C10.625 18.6562 10.1875 19.0938 9.5625 19.2188C9.0625 19.3438 8.40625 19.125 7.59375 18.5625L7.5 20.0625L9.84375 19.9688L9.75 22.5L7.5 22.7812L10.3125 25.0312L9 28.4062L7.3125 26.8125L7.125 35.8125H3.46875L3.65625 29.4375L2.25 31.875L0.5625 28.2188L3.46875 23.1562L0.5625 23.7188L0.46875 20.1562L3.9375 20.0625ZM10.875 24.5625L18.6562 24.1875C21.4688 24.0625 22.9062 25.4062 22.9688 28.2188L23.0625 33.75C23.0625 34.4375 22.75 34.9688 22.125 35.3438C21.375 35.8438 19.875 36 17.625 35.8125L16.7812 32.8125L19.2188 32.7188V31.875L14.3438 32.25L14.25 35.8125L10.4062 35.7188L10.875 24.5625ZM19.2188 30.0938V29.4375H14.4375V30.0938H19.2188ZM19.125 27.4688L19.0312 26.5312L14.4375 26.8125V27.6562L19.125 27.4688ZM35.2313 19.3125L35.325 18.1875H38.1375L36.2625 17.25L36.5438 16.6875H34.575L34.1063 18.8438H30.3563L30.825 16.9688L29.8875 17.0625L28.95 18.9375L25.8563 17.25L28.8563 12.9375L31.95 13.5L31.3875 14.4375L36.825 14.25L36.7313 16.4062L39.2625 12.8438L42.3563 13.5938L41.9813 14.1562L48.5438 14.25V16.5938L45.1688 16.5V18.4688L41.7 18.5625V16.5L40.4813 16.5938L39.45 18.4688L39.1688 18.5625L39.075 19.4062L43.2 19.2188C44.075 19.1562 44.7625 19.1562 45.2625 19.2188C46.075 19.2812 46.7625 19.4688 47.325 19.7812C48.0125 20.2188 48.4188 20.9062 48.5438 21.8438C48.6063 22.4688 48.6063 23.3125 48.5438 24.375H44.6063V22.2188L38.7938 22.125L33.075 22.4062C32.7625 22.4062 32.2 22.4688 31.3875 22.5938C30.8875 22.6562 30.3563 22.7812 29.7938 22.9688L29.5125 24.8438L25.8563 25.125L26.325 19.875L35.2313 19.3125ZM44.1375 25.4062C44.2 26.0938 44.2 26.9688 44.1375 28.0312L33.5438 28.4062V28.9688L42.45 28.7812C44.075 28.7188 45.0438 29.5312 45.3563 31.2188C45.5438 32.2188 45.575 33.5938 45.45 35.3438C43.1375 35.2812 40.8563 35.25 38.6063 35.25C37.2313 35.25 34.0438 35.4062 29.0438 35.7188L29.9813 23.25C32.7938 23.0625 35.5125 22.875 38.1375 22.6875C39.575 22.5625 40.575 22.5312 41.1375 22.5938C42.0125 22.6562 42.7 22.8438 43.2 23.1562C43.7625 23.5312 44.075 24.2812 44.1375 25.4062ZM40.95 32.625V31.125L33.3563 31.3125L33.2625 32.625H40.95ZM39.5438 26.1562V24.75L33.9188 24.8438L33.7313 26.3438L39.5438 26.1562Z" fill="#5D504F"/>
<line x1="63.5" y1="23.5" x2="336.5" y2="23.5" stroke="#5D504F" stroke-width="3" stroke-linecap="round" stroke-dasharray="1 7"/>
</svg>
