<svg width="368" height="48" viewBox="0 0 368 48" fill="none" xmlns="http://www.w3.org/2000/svg">
<path d="M321.938 20.0625L322.031 18.75C321.406 19.375 320.781 19.625 320.156 19.5C319.406 19.375 318.906 18.9688 318.656 18.2812C318.344 17.5312 318.406 16.875 318.844 16.3125C319.344 15.6875 319.938 15.4062 320.625 15.4688C321.188 15.5312 321.688 15.875 322.125 16.5V12.75L325.781 12.8438L325.688 15.75C326.562 15.3125 327.25 15.1875 327.75 15.375C328.25 15.5625 328.656 16.0625 328.969 16.875L329.062 15.0938H332.906V12.9375L337.031 12.8438L336.938 15.0938H341.344V17.5312L336.844 17.4375V18.0938L340.5 18L340.594 20.3438H336.844V21.0938L341.344 21V23.7188L339.281 23.5312L333.094 23.7188L327.75 24.2812L327.938 21.1875L332.906 21.0938V20.5312L329.344 20.9062L329.531 18.2812L332.906 18.1875V17.5312L328.969 18V17.625L328.875 17.9062C328.625 18.6562 328.188 19.0938 327.562 19.2188C327.062 19.3438 326.406 19.125 325.594 18.5625L325.5 20.0625L327.844 19.9688L327.75 22.5L325.5 22.7812L328.312 25.0312L327 28.4062L325.312 26.8125L325.125 35.8125H321.469L321.656 29.4375L320.25 31.875L318.562 28.2188L321.469 23.1562L318.562 23.7188L318.469 20.1562L321.938 20.0625ZM328.875 24.5625L336.656 24.1875C339.469 24.0625 340.906 25.4062 340.969 28.2188L341.062 33.75C341.062 34.4375 340.75 34.9688 340.125 35.3438C339.375 35.8438 337.875 36 335.625 35.8125L334.781 32.8125L337.219 32.7188V31.875L332.344 32.25L332.25 35.8125L328.406 35.7188L328.875 24.5625ZM337.219 30.0938V29.4375H332.438V30.0938H337.219ZM337.125 27.4688L337.031 26.5312L332.438 26.8125V27.6562L337.125 27.4688ZM346.856 31.3125L343.856 31.6875V28.2188L352.95 27.9375L353.044 26.625L349.856 26.7188L345.45 27.1875L346.2 18.0938L347.888 17.9062C346.888 17.1562 346.419 16.4062 346.481 15.6562C346.544 14.8438 346.919 14.2812 347.606 13.9688C348.419 13.5938 349.2 13.5625 349.95 13.875C350.638 14.1875 351.075 14.7188 351.263 15.4688C351.45 16.4062 351.138 17.2188 350.325 17.9062L354.544 17.7188C353.731 17.4688 353.2 16.9375 352.95 16.125C352.638 15 352.95 14.1562 353.888 13.5938C354.825 13.0938 355.669 13.0938 356.419 13.5938C357.294 14.2188 357.606 15.0938 357.356 16.2188C357.169 17.0312 356.544 17.5312 355.481 17.7188H357.638L360.169 13.0312L364.294 14.1562L361.575 17.7188C362.763 18.1562 363.575 18.7188 364.013 19.4062C364.388 19.9688 364.638 20.9062 364.763 22.2188C364.825 22.9062 364.856 24.3125 364.856 26.4375L357.45 26.5312V27.8438L366.544 27.9375L366.638 30.6562H362.325L366.638 32.9062L363.638 35.7188L357.356 32.1562L357.45 35.5312L352.95 35.9062V32.0625L347.231 36L343.763 33.4688L346.856 31.3125ZM352.95 24.375V23.1562L350.231 23.3438L350.138 24.4688L352.95 24.375ZM352.95 21.0938V20.0625L350.325 20.25L350.231 21.1875L352.95 21.0938ZM360.169 24.2812V23.0625H357.45V24.2812H360.169ZM360.075 21L359.981 19.875H357.45V20.9062L360.075 21Z" fill="#E05353"/>
<line x1="1.5" y1="26.5" x2="301.5" y2="26.5" stroke="#E05353" stroke-width="3" stroke-linecap="round" stroke-dasharray="1 7"/>
</svg>
