<svg width="406" height="60" viewBox="0 0 406 60" fill="none" xmlns="http://www.w3.org/2000/svg">
<path d="M359.938 32.0625L360.031 30.75C359.406 31.375 358.781 31.625 358.156 31.5C357.406 31.375 356.906 30.9688 356.656 30.2812C356.344 29.5312 356.406 28.875 356.844 28.3125C357.344 27.6875 357.938 27.4062 358.625 27.4688C359.188 27.5312 359.688 27.875 360.125 28.5V24.75L363.781 24.8438L363.688 27.75C364.562 27.3125 365.25 27.1875 365.75 27.375C366.25 27.5625 366.656 28.0625 366.969 28.875L367.062 27.0938H370.906V24.9375L375.031 24.8438L374.938 27.0938H379.344V29.5312L374.844 29.4375V30.0938L378.5 30L378.594 32.3438H374.844V33.0938L379.344 33V35.7188L377.281 35.5312L371.094 35.7188L365.75 36.2812L365.938 33.1875L370.906 33.0938V32.5312L367.344 32.9062L367.531 30.2812L370.906 30.1875V29.5312L366.969 30V29.625L366.875 29.9062C366.625 30.6562 366.188 31.0938 365.562 31.2188C365.062 31.3438 364.406 31.125 363.594 30.5625L363.5 32.0625L365.844 31.9688L365.75 34.5L363.5 34.7812L366.312 37.0312L365 40.4062L363.312 38.8125L363.125 47.8125H359.469L359.656 41.4375L358.25 43.875L356.562 40.2188L359.469 35.1562L356.562 35.7188L356.469 32.1562L359.938 32.0625ZM366.875 36.5625L374.656 36.1875C377.469 36.0625 378.906 37.4062 378.969 40.2188L379.062 45.75C379.062 46.4375 378.75 46.9688 378.125 47.3438C377.375 47.8438 375.875 48 373.625 47.8125L372.781 44.8125L375.219 44.7188V43.875L370.344 44.25L370.25 47.8125L366.406 47.7188L366.875 36.5625ZM375.219 42.0938V41.4375H370.438V42.0938H375.219ZM375.125 39.4688L375.031 38.5312L370.438 38.8125V39.6562L375.125 39.4688ZM391.606 34.125L391.513 32.625L392.45 32.7188L395.544 28.5938L385.231 29.625L385.325 25.5938L397.325 25.125C398.013 25.125 398.481 25.125 398.731 25.125C399.356 25.1875 399.794 25.375 400.044 25.6875C400.356 26.0625 400.481 26.6562 400.419 27.4688C400.356 27.9688 400.2 28.4062 399.95 28.7812L396.763 33.375L396.388 34.125H404.544L404.638 37.125L396.294 37.3125L396.481 44.0625C396.544 45.5625 396.2 46.5312 395.45 46.9688C395.013 47.2812 394.45 47.4688 393.763 47.5312C393.013 47.6562 391.419 47.7188 388.981 47.7188L388.044 43.6875L391.981 43.5938L391.794 37.3125L381.95 38.4375V34.4062L391.606 34.125Z" fill="#E05353"/>
<path d="M2 2L43.7945 38H341" stroke="#E05353" stroke-width="3" stroke-linecap="round" stroke-dasharray="1 7"/>
</svg>
