<svg width="266" height="48" viewBox="0 0 266 48" fill="none" xmlns="http://www.w3.org/2000/svg">
<path d="M0.46875 35.1562L1.21875 20.625L1.6875 13.5938L1.78125 13.5L6.28125 13.4062L18.8438 13.3125C20.1562 13.3125 21.0938 13.75 21.6562 14.625C22.0938 15.25 22.375 16.125 22.5 17.25C22.625 18.125 22.6875 19.0625 22.6875 20.0625L22.5938 20.1562L15.1875 20.25L9.28125 20.625L5.0625 21L4.78125 30.75L8.15625 26.4375L5.4375 27.0938V23.625L5.53125 23.3438L9.9375 23.1562C10.6875 23.1562 11.3438 23.625 11.9062 24.5625L12 20.625L15.9375 20.4375L15.8438 23.5312L16.7812 24.6562L19.7812 21.4688L22.9688 23.8125L19.125 26.9062L21.0938 28.875L23.3438 31.3125L20.7188 33.9375L15.75 28.5938V31.9688C15.8125 33.5938 15.375 34.75 14.4375 35.4375C14 35.625 13.3125 35.7188 12.375 35.7188C11.6875 35.7188 10.9688 35.7188 10.2188 35.7188L9.09375 32.4375H11.8125L12 25.9688L8.15625 32.9062L4.78125 30.8438L4.6875 35.625L0.46875 35.1562ZM18.0938 17.7188L18 15.8438L10.2188 16.125L5.4375 16.5L5.25 17.9062L18.0938 17.7188ZM27.5438 27.75C27.7938 26.625 28.0125 25.5938 28.2 24.6562L25.6688 25.3125V21.6562C26.5438 21.5312 27.3875 21.4375 28.2 21.375C29.2 21.3125 30.0438 21.4375 30.7313 21.75C31.7313 22.1875 32.075 23.25 31.7625 24.9375C31.5125 26.125 31.1375 27.8438 30.6375 30.0938L33.075 30.9375L33.7313 20.3438V20.25L33.825 20.1562L38.7 19.875L39.075 19.2188C37.7625 19.2812 36.825 19.3438 36.2625 19.4062C35.5125 19.5312 34.2938 19.75 32.6063 20.0625L32.9813 16.4062L35.2313 16.125C34.6063 15.0625 34.5438 14.2188 35.0438 13.5938C35.3563 13.2188 35.7313 13 36.1688 12.9375C36.7313 12.8125 37.2625 12.9062 37.7625 13.2188C38.2 13.4688 38.4813 13.8125 38.6063 14.25C38.7938 14.75 38.7 15.375 38.325 16.125L40.8563 16.0312L42.9188 13.0312L46.4813 13.9688L44.9813 16.125H48.7313V18.75L42.9188 18.9375L42.3563 19.7812C43.2313 19.7188 43.8875 19.6875 44.325 19.6875C45.1375 19.6875 45.7313 19.8125 46.1063 20.0625C46.7313 20.4375 47.1375 21.0938 47.325 22.0312C47.45 22.4688 47.5125 23.3438 47.5125 24.6562L47.6063 28.5938L47.5125 30.8438H39.45L33.3563 31.125C34.9188 31.4375 36.4813 31.75 38.0438 32.0625C40.1063 32.4375 43.6063 32.5 48.5438 32.25C48.3563 33.5625 48.1063 34.6562 47.7938 35.5312L47.7 35.8125C44.6375 36 42.0438 36.0312 39.9188 35.9062C37.1688 35.7812 33.7313 34.9688 29.6063 33.4688L28.95 35.5312L25.575 33.4688C26.2 32.2812 26.6063 31.3438 26.7938 30.6562C27.0438 29.8438 27.2938 28.875 27.5438 27.75ZM27.45 13.5938H27.5438L32.1375 16.5V16.6875L30.2625 19.2188L25.6688 15.6562L27.45 13.5938ZM37.0125 28.5L39.2625 28.3125L43.6688 28.2188V27.2812L37.0125 27.6562V28.5ZM43.6688 25.4062V24.6562L37.0125 24.9375V25.5L43.6688 25.4062ZM43.6688 22.6875V21.9375L37.3875 22.125L37.2938 22.7812L43.6688 22.6875Z" fill="#E05353"/>
<line x1="63.5" y1="25.5" x2="264.5" y2="25.5" stroke="#E05353" stroke-width="3" stroke-linecap="round" stroke-dasharray="1 7"/>
</svg>
