<svg width="92" height="92" viewBox="0 0 92 92" fill="none" xmlns="http://www.w3.org/2000/svg">
<circle cx="46" cy="46" r="45" fill="white" stroke="#44AE7D" stroke-width="2"/>
<path fill-rule="evenodd" clip-rule="evenodd" d="M28.4711 23.9545C27.8075 24.5738 28.2458 25.6855 29.1534 25.6855H33.1344C33.1329 25.7084 33.1321 25.7315 33.1321 25.7547V67.5031C33.1321 68.0554 33.5798 68.5031 34.1321 68.5031H47.0252C47.5774 68.5031 48.0252 68.0554 48.0252 67.5031V25.7547C48.0252 25.7315 48.0244 25.7084 48.0228 25.6855H52.0039C52.9115 25.6855 53.3497 24.5738 52.6862 23.9545L41.2609 13.2909C40.8767 12.9323 40.2805 12.9323 39.8963 13.2909L28.4711 23.9545Z" fill="#A0EDC9"/>
<path d="M66.7773 33.1758C65.4065 30.5385 65.5208 29 60.1518 29H59.5807H59.0095C53.6406 29 53.7548 30.6484 52.384 33.1758C51.8129 34.2747 48.9571 45.5934 48.1574 48.8901C47.8147 50.0989 48.0432 51.4176 48.7286 52.2967C48.9571 52.6264 49.2998 52.8462 49.6425 52.956C49.7567 52.956 49.7567 52.956 49.8709 52.956C50.899 52.956 51.6987 52.2967 51.6987 51.6374L54.326 37.3516L52.4983 48.1209V76.8022C52.384 77.9011 53.2979 78.8901 54.5545 79C54.6687 79 54.6687 79 54.6687 79C55.811 79 57.9814 78.1209 58.0957 77.1319L59.4664 53.5055L60.8372 77.1319C60.9515 78.2308 63.1219 79 64.2642 79H64.3784C65.635 78.8901 66.5488 77.9011 66.4346 76.8022V48.1209L64.4927 37.022L67.12 51.3077C67.2342 52.1868 68.0339 52.8462 69.062 52.8462C69.1762 52.8462 69.1762 52.8462 69.2904 52.8462C69.7474 52.8462 70.0901 52.5165 70.4327 52.0769C71.0039 51.3077 71.1181 50.0989 70.8897 49.1099C70.3185 45.9231 67.4627 34.2747 66.7773 33.1758Z" stroke="#44AE7D" stroke-width="1.5" stroke-linejoin="round"/>
<path d="M64.247 21.4732L64.2465 21.4866V21.5C64.2465 24.0658 62.1532 26.25 59.4983 26.25C56.9339 26.25 54.75 24.1563 54.75 21.5C54.75 18.9342 56.8434 16.75 59.4983 16.75C62.1884 16.75 64.3406 18.8526 64.247 21.4732Z" stroke="#44AE7D" stroke-width="1.5"/>
<path d="M38.7843 45.1746C37.486 43.2041 37.5942 42 32.5092 42H31.9682H31.4273C26.3423 42 26.4505 43.2041 25.1522 45.1746C24.6112 46.0503 21.9065 54.3698 21.1491 56.7781C20.8245 57.6538 21.0409 58.6391 21.6901 59.2959C21.9065 59.5148 22.231 59.7337 22.5556 59.7337C22.6638 59.7337 22.6638 59.7337 22.772 59.7337C23.7457 59.7337 24.503 59.1864 24.503 58.7485L26.9914 48.1302L25.2604 56.1213V77.358C25.1522 78.2337 26.0177 78.8905 27.2078 79C27.316 79 27.316 79 27.316 79C28.3979 79 30.4535 78.3432 30.5617 77.5769L31.86 60.0621L33.1583 77.5769C33.2665 78.3432 35.3221 79 36.4041 79H36.5122C37.7023 79 38.5679 78.2337 38.4597 77.358V56.1213L36.8368 48.0207L39.3252 58.6391C39.4334 59.2959 40.1907 59.8432 41.1645 59.8432C41.2726 59.8432 41.2726 59.8432 41.3808 59.8432C41.8136 59.8432 42.1382 59.6243 42.4627 59.2959C43.0037 58.7485 43.1119 57.8728 42.8955 57.1065C42.03 54.5888 39.3252 46.0503 38.7843 45.1746Z" fill="white" stroke="#44AE7D" stroke-width="1.5" stroke-linejoin="round"/>
<path d="M26.75 34.5C26.75 31.9344 28.8439 29.75 31.5 29.75C34.0656 29.75 36.25 31.8439 36.25 34.5C36.25 37.0656 34.1561 39.25 31.5 39.25C28.9344 39.25 26.75 37.1561 26.75 34.5Z" fill="white" stroke="#44AE7D" stroke-width="1.5"/>
</svg>
