<svg width="237" height="92" viewBox="0 0 237 92" fill="none" xmlns="http://www.w3.org/2000/svg">
<rect x="62" y="22" width="175" height="47" rx="23.5" fill="#44AE7D"/>
<path d="M115 48.1875L118.281 49.3125L116.219 55.9688L112.375 54.2812L115 48.1875ZM115.656 34.125L129.625 34.0312C131 34.0312 131.938 34.2812 132.438 34.7812C133.125 35.4688 133.5 36.5 133.562 37.875L133.75 45.375C129.625 45.3125 125.688 45.3125 121.938 45.375C120.375 45.375 117.844 45.4688 114.344 45.6562L115.656 34.125ZM122.031 42.6562L122.219 40.875L119.031 41.0625L118.844 42.8438L122.031 42.6562ZM123.438 47.8125L123.25 52.9688L125.969 53.0625L126.156 50.7188L130.281 51.375C130.281 53.3125 130.156 54.5938 129.906 55.2188C129.656 55.9062 129.031 56.375 128.031 56.625C127.219 56.8125 126.25 56.875 125.125 56.8125L122.594 56.7188C121.406 56.6562 120.594 56.5312 120.156 56.3438C119.406 55.9688 119.062 55 119.125 53.4375L119.406 47.9062L123.438 47.8125ZM122.312 38.5312L122.406 38.4375L122.5 36.8438L119.406 36.9375L119.219 38.5312H122.312ZM124.656 49.6875C124.156 49.125 123.969 48.5 124.094 47.8125C124.156 47 124.5 46.4062 125.125 46.0312C125.812 45.5938 126.562 45.5625 127.375 45.9375C128.375 46.375 128.781 47.1875 128.594 48.375C128.531 48.9375 128.281 49.4375 127.844 49.875C127.406 50.3125 126.906 50.5312 126.344 50.5312C125.719 50.5312 125.156 50.25 124.656 49.6875ZM129.062 42.75V40.9688L125.781 40.7812V42.8438L129.062 42.75ZM129.062 38.5312V36.75H126.062L125.875 38.5312H129.062ZM131.406 53.625C130.719 53.1875 130.375 52.5938 130.375 51.8438C130.375 50.4062 130.969 49.5938 132.156 49.4062C132.844 49.2812 133.469 49.4062 134.031 49.7812C134.594 50.1562 134.938 50.625 135.062 51.1875C135.188 51.8125 135.125 52.375 134.875 52.875C134.562 53.5 134.031 53.875 133.281 54C132.531 54.125 131.906 54 131.406 53.625ZM140.481 46.0312L137.856 46.5938L137.763 43.2188L142.263 42.9375L142.919 41.8125L139.919 42.0938L140.106 38.8125L144.7 38.7188L145.263 37.7812L137.856 38.4375L137.763 35.25L146.856 35.0625L147.606 33.8438L151.731 34.0312L151.263 34.9688H160.638V37.5L149.575 37.7812L149.013 38.7188L158.388 38.625L158.575 41.25L147.419 41.5312L146.763 42.6562L160.544 42.4688L160.638 45.1875H156.419L160.731 49.0312L158.763 52.5L155.95 49.875L156.606 55.9688L146.106 56.5312L141.888 56.7188L142.356 50.3438L140.95 53.0625L137.669 51.1875L140.481 46.0312ZM152.575 46.5938L151.075 45.1875L145.075 45.4688L144.419 46.7812L152.575 46.5938ZM152.763 53.4375V52.3125L145.919 52.5V53.625L152.763 53.4375ZM152.575 49.9688L152.481 48.9375L146.106 49.125L146.013 50.0625L152.575 49.9688ZM185.65 54.0938C185.65 54.7812 185.4 55.3438 184.9 55.7812C184.4 56.2188 183.713 56.5 182.838 56.625C182.338 56.6875 181.463 56.6875 180.213 56.625L179.838 53.4375L181.806 53.3438L181.9 48.6562L178.525 48.8438L178.338 56.7188H174.681L174.963 51.2812H171.963L174.681 54.1875L171.775 56.3438L169.15 52.875L170.556 51.375L167.369 51.6562L168.681 52.5938L168.588 52.9688L165.681 56.7188H165.4L162.869 54.75L164.931 52.0312L163.15 52.2188L163.056 49.0312L164.744 48.8438L165.025 39.75L162.963 39.9375V37.0312L165.213 36.8438L165.306 34.125H168.306L168.213 36.5625L170.369 36.4688L170.463 34.125H173.369V36.375H174.963V39H173.369V48.2812H174.869L174.963 51L176.088 34.9688C178.338 34.5312 180.275 34.2812 181.9 34.2188C182.713 34.1562 183.338 34.2188 183.775 34.4062C184.088 34.5312 184.4 34.7812 184.713 35.1562C185.025 35.5312 185.213 35.875 185.275 36.1875C185.4 36.5625 185.494 39.9688 185.556 46.4062L185.65 54.0938ZM170.275 48.375V46.9688L167.838 47.0625V48.5625L170.275 48.375ZM170.275 44.3438V42.8438L167.838 42.9375V44.5312L170.275 44.3438ZM170.275 40.5V39.1875L168.025 39.375L167.931 40.6875L170.275 40.5ZM181.9 45.375V43.125L178.9 43.2188L178.806 45.6562L181.9 45.375ZM181.9 40.2188L181.806 37.6875L179.275 37.875L178.994 40.3125L181.9 40.2188Z" fill="white"/>
<circle cx="46" cy="46" r="45" fill="white" stroke="#44AE7D" stroke-width="2"/>
<path fill-rule="evenodd" clip-rule="evenodd" d="M28.4711 23.9545C27.8075 24.5738 28.2458 25.6855 29.1534 25.6855H33.1344C33.1329 25.7084 33.1321 25.7315 33.1321 25.7547V67.5031C33.1321 68.0554 33.5798 68.5031 34.1321 68.5031H47.0252C47.5774 68.5031 48.0252 68.0554 48.0252 67.5031V25.7547C48.0252 25.7315 48.0244 25.7084 48.0228 25.6855H52.0039C52.9115 25.6855 53.3497 24.5738 52.6862 23.9545L41.2609 13.2909C40.8767 12.9323 40.2805 12.9323 39.8963 13.2909L28.4711 23.9545Z" fill="#A0EDC9"/>
<path d="M66.7773 33.1758C65.4065 30.5385 65.5208 29 60.1518 29H59.5807H59.0095C53.6406 29 53.7548 30.6484 52.384 33.1758C51.8129 34.2747 48.9571 45.5934 48.1574 48.8901C47.8147 50.0989 48.0432 51.4176 48.7286 52.2967C48.9571 52.6264 49.2998 52.8462 49.6425 52.956C49.7567 52.956 49.7567 52.956 49.8709 52.956C50.899 52.956 51.6987 52.2967 51.6987 51.6374L54.326 37.3516L52.4983 48.1209V76.8022C52.384 77.9011 53.2979 78.8901 54.5545 79C54.6687 79 54.6687 79 54.6687 79C55.811 79 57.9814 78.1209 58.0957 77.1319L59.4664 53.5055L60.8372 77.1319C60.9515 78.2308 63.1219 79 64.2642 79H64.3784C65.635 78.8901 66.5488 77.9011 66.4346 76.8022V48.1209L64.4927 37.022L67.12 51.3077C67.2342 52.1868 68.0339 52.8462 69.062 52.8462C69.1762 52.8462 69.1762 52.8462 69.2904 52.8462C69.7474 52.8462 70.0901 52.5165 70.4327 52.0769C71.0039 51.3077 71.1181 50.0989 70.8897 49.1099C70.3185 45.9231 67.4627 34.2747 66.7773 33.1758Z" stroke="#44AE7D" stroke-width="1.5" stroke-linejoin="round"/>
<path d="M64.247 21.4732L64.2465 21.4866V21.5C64.2465 24.0658 62.1532 26.25 59.4983 26.25C56.9339 26.25 54.75 24.1563 54.75 21.5C54.75 18.9342 56.8434 16.75 59.4983 16.75C62.1884 16.75 64.3406 18.8526 64.247 21.4732Z" stroke="#44AE7D" stroke-width="1.5"/>
<path d="M38.7843 45.1746C37.486 43.2041 37.5942 42 32.5092 42H31.9682H31.4273C26.3423 42 26.4505 43.2041 25.1522 45.1746C24.6112 46.0503 21.9065 54.3698 21.1491 56.7781C20.8245 57.6538 21.0409 58.6391 21.6901 59.2959C21.9065 59.5148 22.231 59.7337 22.5556 59.7337C22.6638 59.7337 22.6638 59.7337 22.772 59.7337C23.7457 59.7337 24.503 59.1864 24.503 58.7485L26.9914 48.1302L25.2604 56.1213V77.358C25.1522 78.2337 26.0177 78.8905 27.2078 79C27.316 79 27.316 79 27.316 79C28.3979 79 30.4535 78.3432 30.5617 77.5769L31.86 60.0621L33.1583 77.5769C33.2665 78.3432 35.3221 79 36.4041 79H36.5122C37.7023 79 38.5679 78.2337 38.4597 77.358V56.1213L36.8368 48.0207L39.3252 58.6391C39.4334 59.2959 40.1907 59.8432 41.1645 59.8432C41.2726 59.8432 41.2726 59.8432 41.3808 59.8432C41.8136 59.8432 42.1382 59.6243 42.4627 59.2959C43.0037 58.7485 43.1119 57.8728 42.8955 57.1065C42.03 54.5888 39.3252 46.0503 38.7843 45.1746Z" fill="white" stroke="#44AE7D" stroke-width="1.5" stroke-linejoin="round"/>
<path d="M26.75 34.5C26.75 31.9344 28.8439 29.75 31.5 29.75C34.0656 29.75 36.25 31.8439 36.25 34.5C36.25 37.0656 34.1561 39.25 31.5 39.25C28.9344 39.25 26.75 37.1561 26.75 34.5Z" fill="white" stroke="#44AE7D" stroke-width="1.5"/>
</svg>
