<svg width="174" height="65" viewBox="0 0 174 65" fill="none" xmlns="http://www.w3.org/2000/svg">
<rect width="174" height="65" rx="32.5" fill="#44AE7D"/>
<path d="M50.8438 21.375L53.5156 21.2344L54.7812 14.9062L59.7031 15.75L58.7188 21.0938H65.6094L65.75 25.0312H63.9219L62.2344 38.3906L65.1875 39.2344L64.3438 44.1562L61.6719 43.3125L60.8281 49.2188L55.3438 48.0938L56.4688 41.4844C54.5 40.9219 53.1406 40.3125 52.3906 39.6562C51.4531 38.9062 51.0781 37.875 51.2656 36.5625L52.6719 25.875L50.7031 26.1562L50.8438 21.375ZM57.5938 36.8438L59.2812 25.3125L58.0156 25.4531L56.3281 36.4219L57.5938 36.8438ZM81.6406 14.7656L84.875 18.2812L77.7031 19.4062L77.4219 28.2656L85.0156 28.4062L85.1562 32.9062L77.4219 33.0469L77.5625 43.5938H83.6094L83.75 47.8125L66.3125 49.0781V43.7344L71.7969 43.5938L72.2188 33.3281L64.0625 34.4531L64.2031 28.4062L72.0781 28.2656L72.3594 20.3906L66.1719 21.5156L62.7969 17.0156L81.6406 14.7656ZM88.6437 26.7188V21.2344L90.8937 21.0938L91.8781 15.0469L96.3781 15.3281L95.5344 20.9531C96.4719 20.8594 97.2219 20.8125 97.7844 20.8125C98.6281 20.8125 99.2844 21 99.7531 21.375C100.691 22.125 101.019 23.3438 100.737 25.0312L98.3469 39.9375L100.316 40.5L101.3 16.1719L101.441 15.8906L122.675 14.7656V18.7031L108.894 19.5469L106.644 19.9688L106.081 28.2656L108.612 28.125L122.675 27.7031V31.3594L115.081 31.7812L116.628 34.5938L119.862 31.7812L122.816 35.0156L118.878 38.5312L123.097 45.9844L119.159 48.6562H118.737L116.909 45.4219L109.878 47.9531C108.753 48.3281 107.816 48.1406 107.066 47.3906C106.503 46.8281 106.269 45.75 106.362 44.1562L107.066 32.4844L106.081 32.625L105.519 43.3125L105.378 49.2188L99.8937 48.7969C100.269 42.4219 100.362 39.8438 100.175 41.0625L99.4719 45.4219L97.6437 44.8594L97.0812 49.3594L91.7375 47.8125L92.7219 43.3125C91.0344 42.6562 89.9562 42 89.4875 41.3438C88.7375 40.2188 88.5031 38.4375 88.7844 36L90.05 26.5781L88.6437 26.7188ZM93.5656 38.5312L95.8156 25.875L94.6906 26.0156L93.8469 31.3594L93.0031 38.3906L93.5656 38.5312ZM121.128 21.2344L121.269 25.1719L110.159 26.0156L107.487 26.4375V21.6562L121.128 21.2344ZM114.8 41.2031L112.128 36.5625L111.847 42.1875L114.8 41.2031Z" fill="white"/>
</svg>
