<svg width="205" height="111" viewBox="0 0 205 111" fill="none" xmlns="http://www.w3.org/2000/svg">
<path fill-rule="evenodd" clip-rule="evenodd" d="M11.6253 93L33.3753 75.375L12.3753 79.125L11.6253 66L17.2503 65.625L18.7503 25.875L29.6253 25.5L32.6253 13.125L45.7503 13.5L43.1253 24.375C45.5324 24.375 47.5339 24.6068 49.1298 25.0703C50.8489 25.5696 52.0974 26.3378 52.8753 27.375C53.286 28.0938 53.6335 28.918 53.9177 29.8476C54.2964 31.0862 54.5627 32.512 54.7168 34.125C54.7286 34.2489 54.7398 34.3739 54.7503 34.5C54.9306 35.9428 55.0459 40.4428 55.0962 48C55.1068 49.5948 55.1145 51.3257 55.1193 53.1927C55.1233 54.743 55.1253 56.3871 55.1253 58.125V63L60.7503 68.25L55.1253 73.875V91.5C55.6253 96.25 55.0003 99.625 53.2503 101.625C51.2503 103.625 45.8753 104.625 37.1253 104.625L33.0003 93L41.2503 92.625V85.5L19.5003 104.625L11.6253 93ZM30.2422 103.169L23.4623 109.131C22.1687 110.268 20.4487 110.795 18.74 110.577C17.0313 110.358 15.4989 109.416 14.5328 107.99L6.65779 96.3651C4.91083 93.7862 5.42777 90.2995 7.8478 88.3384L11.8425 85.1013C10.6909 84.9986 9.58143 84.5641 8.65642 83.8335C7.30976 82.7699 6.48297 81.1805 6.38507 79.4673L5.63507 66.3423C5.44729 63.0562 7.94197 60.2322 11.2262 60.0133L11.4584 59.9978L12.7546 25.6487C12.8732 22.5052 15.3996 19.987 18.5435 19.8786L24.8671 19.6605L26.7942 11.7114C27.4617 8.95784 29.9645 7.04653 32.7967 7.12745L45.9217 7.50245C47.7299 7.55411 49.4184 8.41887 50.517 9.85604C51.6157 11.2932 52.0073 13.1493 51.5828 14.9078L50.5386 19.2337C50.7199 19.2834 50.8995 19.3356 51.0773 19.3903C53.4854 20.1313 55.9334 21.4525 57.6753 23.775C57.8246 23.974 57.9613 24.1822 58.0848 24.3982C58.7377 25.5409 59.2508 26.7745 59.6489 28.0718L74.7683 27.5761L74.2549 14.4851C74.192 12.8809 74.7746 11.3185 75.8724 10.1471C76.9702 8.97571 78.4916 8.29312 80.0965 8.25197L94.7215 7.87697C96.3389 7.8355 97.9046 8.44901 99.0632 9.57833C100.222 10.7076 100.875 12.257 100.875 13.875V27.375H101.243C101.671 25.7078 102.456 24.0882 103.639 22.5664C103.656 22.5447 103.673 22.5232 103.69 22.5018C106.607 18.8556 110.641 16.6009 115.5 16.8604V12C115.5 10.382 116.154 8.83265 117.312 7.70333C118.471 6.57401 120.037 5.9605 121.654 6.00197L136.279 6.37697C137.877 6.41794 139.392 7.0946 140.489 8.25691C141.586 9.41922 142.174 10.9711 142.122 12.5685L142.006 16.1602C143.178 16.1602 144.355 16.3172 145.515 16.6791C146.542 15.8615 147.842 15.375 149.25 15.375H158.625V12.75C158.625 9.48941 161.229 6.82564 164.489 6.75155L180.989 6.37655C182.647 6.33887 184.246 6.98904 185.408 8.17268C186.569 9.35633 187.189 10.9679 187.12 12.6248L187.005 15.375H198.375C201.689 15.375 204.375 18.0613 204.375 21.375V31.125C204.375 32.738 203.726 34.283 202.574 35.4116C202.146 35.8298 201.664 36.1778 201.143 36.4485L201.275 39.7472C201.745 40.0068 202.183 40.3307 202.574 40.7134C203.726 41.842 204.375 43.387 204.375 45V55.875C204.375 57.5608 203.666 59.1688 202.421 60.3055C201.73 60.9373 200.908 61.3911 200.026 61.6434C201.938 65.1707 202.776 69.331 202.874 73.7417L202.874 73.7733L203.249 95.8983C203.25 95.9322 203.25 95.9661 203.25 96C203.25 100.96 200.809 104.94 196.704 107.449C194.043 109.18 190.715 109.963 187.372 110.311C183.866 110.677 179.711 110.622 175.002 110.229C172.506 110.021 170.402 108.285 169.724 105.874L168.111 100.137L167.998 104.408C167.911 107.716 165.162 110.329 161.854 110.248L146.479 109.873C144.87 109.834 143.344 109.15 142.244 107.975C141.144 106.799 140.563 105.231 140.631 103.623L141.598 80.5952C141.06 80.6492 140.521 80.6296 139.996 80.5403L139.499 104.375C139.431 107.639 136.765 110.25 133.5 110.25H118.875C117.253 110.25 115.701 109.593 114.571 108.43C113.441 107.266 112.83 105.695 112.878 104.074L113.161 94.4411C111.156 94.1583 109.412 92.8766 108.553 91.0144L101.803 76.3894C100.988 74.6242 101.079 72.5738 102.047 70.8878L107.221 61.875C105.876 61.8684 104.559 61.4094 103.493 60.553C102.118 59.4488 101.299 57.7957 101.252 56.0328L101.122 51.0665L100.564 51.093L100.874 79.0143L101.247 93.5291C101.402 96.8859 100.793 100.295 98.8056 103.218C96.7809 106.195 93.7997 107.973 90.5374 108.89C88.5129 109.487 86.0143 109.714 83.4003 109.779C80.6509 109.848 77.328 109.743 73.4762 109.487C71.1615 109.332 69.1431 107.858 68.2928 105.699L63.4178 93.3242C62.7013 91.5051 62.9159 89.451 63.993 87.8194C65.0701 86.1878 66.8746 85.1833 68.8289 85.1274L75.9778 84.9232L75.7433 75.5456C74.3748 76.0382 72.9195 76.3486 71.3959 76.4774C68.2783 76.7565 65.3741 76.1216 62.8205 74.6651L61.1253 76.3603V91.1977C61.6197 96.2908 61.1533 101.705 57.7658 105.576C57.6781 105.676 57.5871 105.773 57.4929 105.868C55.1467 108.214 51.7589 109.226 48.8165 109.774C45.6183 110.369 41.6776 110.625 37.1253 110.625C34.5851 110.625 32.3202 109.025 31.4707 106.631L30.2422 103.169ZM66.5383 69.831C67.8621 70.4195 69.3078 70.6425 70.8753 70.5C72.666 70.3508 74.2339 69.8453 75.5793 68.9835C76.4878 68.4015 77.2948 67.657 78.0003 66.75C79.7503 64.5 80.2503 61.875 79.5003 58.875C78.7992 56.2457 77.3606 54.3538 75.1847 53.1994C74.6776 52.9303 74.1305 52.7014 73.5434 52.5124C73.0566 52.3558 72.5422 52.2266 72.0003 52.125C68.7416 51.6036 66.1966 52.0337 64.3651 53.4152C62.6838 54.6834 61.6039 56.7533 61.1253 59.625C61.0897 59.8567 61.061 60.0858 61.0393 60.3125C60.9505 61.2417 60.9791 62.1283 61.1253 62.9721C61.3372 64.1956 61.7962 65.3292 62.5022 66.3729C62.8562 66.8962 63.2722 67.3969 63.7503 67.875C64.6103 68.735 65.5396 69.387 66.5383 69.831ZM81.0003 45.75L82.1253 90.75L69.0003 91.125L73.8753 103.5C81.3753 104 86.3753 103.875 88.8753 103.125C93.3753 101.875 95.5003 98.75 95.2503 93.75L94.8753 79.125L94.5003 45.375L102.375 45L102 33.375H94.8753V13.875L80.2503 14.25L81.0003 33.375L58.1253 34.125V48L81.0003 45.75ZM107.625 34.125C107.754 34.4781 107.899 34.8127 108.06 35.1287C108.14 35.285 108.224 35.4368 108.312 35.584C109.43 37.4573 111.201 38.596 113.625 39C114.046 39.0841 114.466 39.1258 114.887 39.125C116.798 39.1215 118.71 38.241 120.621 36.4835C120.789 36.3291 120.957 36.1679 121.125 36L120.75 41.25L106.875 41.625L107.25 55.875L118.875 53.625L107.25 73.875L114 88.5L119.625 78.75L118.875 104.25H133.5L134.25 68.25L141 74.625L146.25 61.125L135 52.125L144 51L144.375 40.875L135 41.25L135.375 35.25C137.622 36.8052 139.569 37.7034 141.219 37.9448C141.955 38.0527 142.633 38.0294 143.25 37.875C143.596 37.8059 143.927 37.7129 144.244 37.596C144.424 37.5298 144.598 37.4559 144.769 37.3744C144.807 37.3563 144.844 37.3377 144.882 37.3188C145.713 36.8991 146.432 36.2924 147.039 35.4987C147.295 35.1637 147.531 34.7954 147.747 34.3937C147.833 34.2348 147.915 34.0707 147.995 33.9014C148.128 33.6158 148.253 33.3153 148.369 33C148.414 32.8773 148.458 32.7523 148.5 32.625L148.875 31.5V33L164.625 31.125V33.75L151.125 34.125L150.375 44.625L164.625 43.125V45.375L144.75 45.75L144 58.125L165.375 55.875L190.125 55.125L198.375 55.875V45L180.375 45.375V42.375H195.375L195 33L180.375 33.375V30.75L198.375 31.125V21.375H180.75L181.125 12.375L164.625 12.75V21.375H149.25L148.875 28.5C148.675 27.9787 148.465 27.4896 148.245 27.0327C148.007 26.5373 147.757 26.0797 147.496 25.6599C146.497 24.0526 145.332 22.9993 144 22.5C143.744 22.4039 143.476 22.3284 143.195 22.2733C142.763 22.1887 142.302 22.1525 141.813 22.1648C140.134 22.207 138.113 22.8188 135.75 24L136.125 12.375L121.5 12V27C119.75 24.5 117.75 23.125 115.5 22.875C112.75 22.625 110.375 23.75 108.375 26.25C107.506 27.3675 107.007 28.5775 106.878 29.88C106.774 30.9282 106.91 32.0364 107.285 33.2045C107.382 33.5073 107.496 33.8141 107.625 34.125ZM190.268 59.8399C190.09 59.7358 189.909 59.6356 189.724 59.5392C187.086 58.1644 183.72 57.568 179.625 57.75L148.5 59.25L146.625 103.875L162 104.25L162.375 90L181.875 88.5V91.875L172.125 92.25L175.5 104.25C184.5 105 190.5 104.375 193.5 102.375C196 100.875 197.25 98.75 197.25 96L196.875 73.875C196.749 68.2097 195.229 64.0342 192.313 61.3486C191.694 60.7786 191.013 60.2757 190.268 59.8399ZM162.75 78.75V81.375H181.875V78.75H162.75ZM162.75 71.625V68.25L181.125 67.125L181.5 70.875L162.75 71.625ZM41.2503 58.125L40.8753 63L32.2503 64.125L32.6253 59.25L41.2503 58.125ZM32.2503 38.625L32.6253 34.875L41.2503 33.75V38.25L32.2503 38.625ZM41.2503 45.75L32.6253 46.125V51.75L40.8753 51.375L41.2503 45.75Z" fill="#306AB2"/>
<g filter="url(#filter0_d_1089_1173)">
<path d="M26.375 70.375L5.375 74.125L4.625 61L10.25 60.625L11.75 20.875L22.625 20.5L25.625 8.125L38.75 8.5L36.125 19.375C41.125 19.375 44.375 20.375 45.875 22.375C46.875 24.125 47.5 26.5 47.75 29.5C48 31.5 48.125 39.375 48.125 53.125V58L53.75 63.25L48.125 68.875V86.5C48.625 91.25 48 94.625 46.25 96.625C44.25 98.625 38.875 99.625 30.125 99.625L26 88L34.25 87.625V80.5L12.5 99.625L4.625 88L26.375 70.375ZM33.875 58L34.25 53.125L25.625 54.25L25.25 59.125L33.875 58ZM34.25 33.25V28.75L25.625 29.875L25.25 33.625L34.25 33.25ZM33.875 46.375L34.25 40.75L25.625 41.125V46.75L33.875 46.375ZM51.125 29.125L74 28.375L73.25 9.25L87.875 8.875V28.375H95L95.375 40L87.5 40.375L87.875 74.125L88.25 88.75C88.5 93.75 86.375 96.875 81.875 98.125C79.375 98.875 74.375 99 66.875 98.5L62 86.125L75.125 85.75L74 40.75L51.125 43V29.125ZM56.75 62.875C54.5 60.625 53.625 57.875 54.125 54.625C55.125 48.625 58.75 46.125 65 47.125C69 47.875 71.5 50.125 72.5 53.875C73.25 56.875 72.75 59.5 71 61.75C69.25 64 66.875 65.25 63.875 65.5C61.125 65.75 58.75 64.875 56.75 62.875Z" fill="white"/>
<path d="M113.75 36.25L114.125 31C111.625 33.5 109.125 34.5 106.625 34C103.625 33.5 101.625 31.875 100.625 29.125C99.375 26.125 99.625 23.5 101.375 21.25C103.375 18.75 105.75 17.625 108.5 17.875C110.75 18.125 112.75 19.5 114.5 22V7L129.125 7.375L128.75 19C132.25 17.25 135 16.75 137 17.5C139 18.25 140.625 20.25 141.875 23.5L142.25 16.375H157.625V7.75L174.125 7.375L173.75 16.375H191.375V26.125L173.375 25.75V28.375L188 28L188.375 37.375H173.375V40.375L191.375 40V50.875L183.125 50.125L158.375 50.875L137 53.125L137.75 40.75L157.625 40.375V38.125L143.375 39.625L144.125 29.125L157.625 28.75V26.125L141.875 28V26.5L141.5 27.625C140.5 30.625 138.75 32.375 136.25 32.875C134.25 33.375 131.625 32.5 128.375 30.25L128 36.25L137.375 35.875L137 46L128 47.125L139.25 56.125L134 69.625L127.25 63.25L126.5 99.25H111.875L112.625 73.75L107 83.5L100.25 68.875L111.875 48.625L100.25 50.875L99.875 36.625L113.75 36.25ZM141.5 54.25L172.625 52.75C183.875 52.25 189.625 57.625 189.875 68.875L190.25 91C190.25 93.75 189 95.875 186.5 97.375C183.5 99.375 177.5 100 168.5 99.25L165.125 87.25L174.875 86.875V83.5L155.375 85L155 99.25L139.625 98.875L141.5 54.25ZM174.875 76.375V73.75H155.75V76.375H174.875ZM174.5 65.875L174.125 62.125L155.75 63.25V66.625L174.5 65.875Z" fill="white"/>
</g>
<path d="M28.375 69.375L7.375 73.125L6.625 60L12.25 59.625L13.75 19.875L24.625 19.5L27.625 7.125L40.75 7.5L38.125 18.375C43.125 18.375 46.375 19.375 47.875 21.375C48.875 23.125 49.5 25.5 49.75 28.5C50 30.5 50.125 38.375 50.125 52.125V57L55.75 62.25L50.125 67.875V85.5C50.625 90.25 50 93.625 48.25 95.625C46.25 97.625 40.875 98.625 32.125 98.625L28 87L36.25 86.625V79.5L14.5 98.625L6.625 87L28.375 69.375ZM35.875 57L36.25 52.125L27.625 53.25L27.25 58.125L35.875 57ZM36.25 32.25V27.75L27.625 28.875L27.25 32.625L36.25 32.25ZM35.875 45.375L36.25 39.75L27.625 40.125V45.75L35.875 45.375ZM53.125 28.125L76 27.375L75.25 8.25L89.875 7.875V27.375H97L97.375 39L89.5 39.375L89.875 73.125L90.25 87.75C90.5 92.75 88.375 95.875 83.875 97.125C81.375 97.875 76.375 98 68.875 97.5L64 85.125L77.125 84.75L76 39.75L53.125 42V28.125ZM58.75 61.875C56.5 59.625 55.625 56.875 56.125 53.625C57.125 47.625 60.75 45.125 67 46.125C71 46.875 73.5 49.125 74.5 52.875C75.25 55.875 74.75 58.5 73 60.75C71.25 63 68.875 64.25 65.875 64.5C63.125 64.75 60.75 63.875 58.75 61.875Z" fill="white"/>
<path d="M115.75 35.25L116.125 30C113.625 32.5 111.125 33.5 108.625 33C105.625 32.5 103.625 30.875 102.625 28.125C101.375 25.125 101.625 22.5 103.375 20.25C105.375 17.75 107.75 16.625 110.5 16.875C112.75 17.125 114.75 18.5 116.5 21V6L131.125 6.375L130.75 18C134.25 16.25 137 15.75 139 16.5C141 17.25 142.625 19.25 143.875 22.5L144.25 15.375H159.625V6.75L176.125 6.375L175.75 15.375H193.375V25.125L175.375 24.75V27.375L190 27L190.375 36.375H175.375V39.375L193.375 39V49.875L185.125 49.125L160.375 49.875L139 52.125L139.75 39.75L159.625 39.375V37.125L145.375 38.625L146.125 28.125L159.625 27.75V25.125L143.875 27V25.5L143.5 26.625C142.5 29.625 140.75 31.375 138.25 31.875C136.25 32.375 133.625 31.5 130.375 29.25L130 35.25L139.375 34.875L139 45L130 46.125L141.25 55.125L136 68.625L129.25 62.25L128.5 98.25H113.875L114.625 72.75L109 82.5L102.25 67.875L113.875 47.625L102.25 49.875L101.875 35.625L115.75 35.25ZM143.5 53.25L174.625 51.75C185.875 51.25 191.625 56.625 191.875 67.875L192.25 90C192.25 92.75 191 94.875 188.5 96.375C185.5 98.375 179.5 99 170.5 98.25L167.125 86.25L176.875 85.875V82.5L157.375 84L157 98.25L141.625 97.875L143.5 53.25ZM176.875 75.375V72.75H157.75V75.375H176.875ZM176.5 64.875L176.125 61.125L157.75 62.25V65.625L176.5 64.875Z" fill="white"/>
<path fill-rule="evenodd" clip-rule="evenodd" d="M6.6253 87L28.3753 69.375L7.3753 73.125L6.6253 60L12.2503 59.625L13.7503 19.875L24.6253 19.5L27.6253 7.125L40.7503 7.5L38.1253 18.375C40.5324 18.375 42.5339 18.6068 44.1298 19.0703C45.8489 19.5696 47.0974 20.3378 47.8753 21.375C48.286 22.0938 48.6335 22.918 48.9177 23.8476C49.2964 25.0862 49.5627 26.512 49.7168 28.125C49.7286 28.2489 49.7398 28.3739 49.7503 28.5C49.9306 29.9428 50.0459 34.4428 50.0962 42C50.1068 43.5948 50.1145 45.3257 50.1193 47.1927C50.1233 48.743 50.1253 50.3871 50.1253 52.125V57L55.7503 62.25L50.1253 67.875V85.5C50.6253 90.25 50.0003 93.625 48.2503 95.625C46.2503 97.625 40.8753 98.625 32.1253 98.625L28.0003 87L36.2503 86.625V79.5L14.5003 98.625L6.6253 87ZM25.2422 97.1692L18.4623 103.131C17.1687 104.268 15.4487 104.795 13.74 104.577C12.0313 104.358 10.4989 103.416 9.53279 101.99L1.65779 90.3651C-0.089173 87.7862 0.427766 84.2995 2.8478 82.3384L6.84249 79.1013C5.69091 78.9986 4.58143 78.5641 3.65642 77.8335C2.30976 76.7699 1.48297 75.1805 1.38507 73.4673L0.63507 60.3423C0.44729 57.0562 2.94197 54.2322 6.22618 54.0133L6.45837 53.9978L7.75456 19.6487C7.87319 16.5052 10.3996 13.987 13.5435 13.8786L19.8671 13.6605L21.7942 5.7114C22.4617 2.95784 24.9645 1.04653 27.7967 1.12745L40.9217 1.50245C42.7299 1.55411 44.4184 2.41887 45.517 3.85604C46.6157 5.2932 47.0073 7.14935 46.5828 8.90785L45.5386 13.2337C45.7199 13.2834 45.8995 13.3356 46.0773 13.3903C48.4854 14.1313 50.9334 15.4525 52.6753 17.775C52.8246 17.974 52.9613 18.1822 53.0848 18.3982C53.7377 19.5409 54.2508 20.7745 54.6489 22.0718L69.7683 21.5761L69.2549 8.48512C69.192 6.88095 69.7746 5.31848 70.8724 4.14709C71.9702 2.97571 73.4916 2.29312 75.0965 2.25197L89.7215 1.87697C91.3389 1.8355 92.9046 2.44901 94.0632 3.57833C95.2219 4.70765 95.8753 6.25704 95.8753 7.875V21.375H96.243C96.6713 19.7078 97.4555 18.0882 98.6392 16.5664C98.656 16.5447 98.673 16.5232 98.6901 16.5018C101.607 12.8556 105.641 10.6009 110.5 10.8604V6C110.5 4.38204 111.154 2.83265 112.312 1.70333C113.471 0.574014 115.037 -0.0394987 116.654 0.00197393L131.279 0.376974C132.877 0.417939 134.392 1.0946 135.489 2.25691C136.586 3.41922 137.174 4.97111 137.122 6.56845L137.006 10.1602C138.178 10.1602 139.355 10.3172 140.515 10.6791C141.542 9.86152 142.842 9.375 144.25 9.375H153.625V6.75C153.625 3.48941 156.229 0.825637 159.489 0.751551L175.989 0.376551C177.647 0.338872 179.246 0.989035 180.408 2.17268C181.569 3.35633 182.189 4.9679 182.12 6.62479L182.005 9.375H193.375C196.689 9.375 199.375 12.0613 199.375 15.375V25.125C199.375 26.738 198.726 28.283 197.574 29.4116C197.146 29.8298 196.664 30.1778 196.143 30.4485L196.275 33.7472C196.745 34.0068 197.183 34.3307 197.574 34.7134C198.726 35.842 199.375 37.387 199.375 39V49.875C199.375 51.5608 198.666 53.1688 197.421 54.3055C196.73 54.9373 195.908 55.3911 195.026 55.6434C196.938 59.1707 197.776 63.331 197.874 67.7417L197.874 67.7733L198.249 89.8983C198.25 89.9322 198.25 89.9661 198.25 90C198.25 94.9604 195.809 98.9398 191.704 101.449C189.043 103.18 185.715 103.963 182.372 104.311C178.866 104.677 174.711 104.622 170.002 104.229C167.506 104.021 165.402 102.285 164.724 99.8745L163.111 94.1366L162.998 98.4078C162.911 101.716 160.162 104.329 156.854 104.248L141.479 103.873C139.87 103.834 138.344 103.15 137.244 101.975C136.144 100.799 135.563 99.2313 135.631 97.6231L136.598 74.5952C136.06 74.6492 135.521 74.6296 134.996 74.5403L134.499 98.375C134.431 101.639 131.765 104.25 128.5 104.25H113.875C112.253 104.25 110.701 103.593 109.571 102.43C108.441 101.266 107.83 99.6948 107.878 98.0736L108.161 88.4411C106.156 88.1583 104.412 86.8766 103.553 85.0144L96.8025 70.3894C95.9879 68.6242 96.0789 66.5738 97.0468 64.8878L102.221 55.875C100.876 55.8684 99.5594 55.4094 98.4932 54.553C97.1183 53.4488 96.2988 51.7957 96.2524 50.0328L96.1217 45.0665L95.5642 45.093L95.8744 73.0143L96.2466 87.5291C96.4025 90.8859 95.7933 94.2945 93.8056 97.2176C91.7809 100.195 88.7997 101.973 85.5374 102.89C83.5129 103.487 81.0143 103.714 78.4003 103.779C75.6509 103.848 72.328 103.743 68.4762 103.487C66.1615 103.332 64.1431 101.858 63.2928 99.6992L58.4178 87.3242C57.7013 85.5051 57.9159 83.451 58.993 81.8194C60.0701 80.1878 61.8746 79.1833 63.8289 79.1274L70.9778 78.9232L70.7433 69.5456C69.3748 70.0382 67.9195 70.3486 66.3959 70.4774C63.2783 70.7565 60.3741 70.1216 57.8205 68.6651L56.1253 70.3603V85.1977C56.6197 90.2908 56.1533 95.7046 52.7658 99.576C52.6781 99.6762 52.5871 99.7735 52.4929 99.8676C50.1467 102.214 46.7589 103.226 43.8165 103.774C40.6183 104.369 36.6776 104.625 32.1253 104.625C29.5851 104.625 27.3202 103.025 26.4707 100.631L25.2422 97.1692ZM61.5383 63.831C62.8621 64.4195 64.3078 64.6425 65.8753 64.5C67.666 64.3508 69.2339 63.8453 70.5793 62.9835C71.4878 62.4015 72.2948 61.657 73.0003 60.75C74.7503 58.5 75.2503 55.875 74.5003 52.875C73.7992 50.2457 72.3606 48.3538 70.1847 47.1994C69.6776 46.9303 69.1305 46.7014 68.5434 46.5124C68.0566 46.3558 67.5422 46.2266 67.0003 46.125C63.7416 45.6036 61.1966 46.0337 59.3651 47.4152C57.6838 48.6834 56.6039 50.7533 56.1253 53.625C56.0897 53.8567 56.061 54.0858 56.0393 54.3125C55.9505 55.2417 55.9791 56.1283 56.1253 56.9721C56.3372 58.1956 56.7962 59.3292 57.5022 60.3729C57.8562 60.8962 58.2722 61.3969 58.7503 61.875C59.6103 62.735 60.5396 63.387 61.5383 63.831ZM76.0003 39.75L77.1253 84.75L64.0003 85.125L68.8753 97.5C76.3753 98 81.3753 97.875 83.8753 97.125C88.3753 95.875 90.5003 92.75 90.2503 87.75L89.8753 73.125L89.5003 39.375L97.3753 39L97.0003 27.375H89.8753V7.875L75.2503 8.25L76.0003 27.375L53.1253 28.125V42L76.0003 39.75ZM102.625 28.125C102.754 28.4781 102.899 28.8127 103.06 29.1287C103.14 29.285 103.224 29.4368 103.312 29.584C104.43 31.4573 106.201 32.596 108.625 33C109.046 33.0841 109.466 33.1258 109.887 33.125C111.798 33.1215 113.71 32.241 115.621 30.4835C115.789 30.3291 115.957 30.1679 116.125 30L115.75 35.25L101.875 35.625L102.25 49.875L113.875 47.625L102.25 67.875L109 82.5L114.625 72.75L113.875 98.25H128.5L129.25 62.25L136 68.625L141.25 55.125L130 46.125L139 45L139.375 34.875L130 35.25L130.375 29.25C132.622 30.8052 134.569 31.7034 136.219 31.9448C136.955 32.0527 137.633 32.0294 138.25 31.875C138.596 31.8059 138.927 31.7129 139.244 31.596C139.424 31.5298 139.598 31.4559 139.769 31.3744C139.807 31.3563 139.844 31.3377 139.882 31.3188C140.713 30.8991 141.432 30.2924 142.039 29.4987C142.295 29.1637 142.531 28.7954 142.747 28.3937C142.833 28.2348 142.915 28.0707 142.995 27.9014C143.128 27.6158 143.253 27.3153 143.369 27C143.414 26.8773 143.458 26.7523 143.5 26.625L143.875 25.5V27L159.625 25.125V27.75L146.125 28.125L145.375 38.625L159.625 37.125V39.375L139.75 39.75L139 52.125L160.375 49.875L185.125 49.125L193.375 49.875V39L175.375 39.375V36.375H190.375L190 27L175.375 27.375V24.75L193.375 25.125V15.375H175.75L176.125 6.375L159.625 6.75V15.375H144.25L143.875 22.5C143.675 21.9787 143.465 21.4896 143.245 21.0327C143.007 20.5373 142.757 20.0797 142.496 19.6599C141.497 18.0526 140.332 16.9993 139 16.5C138.744 16.4039 138.476 16.3284 138.195 16.2733C137.763 16.1887 137.302 16.1525 136.813 16.1648C135.134 16.207 133.113 16.8188 130.75 18L131.125 6.375L116.5 6V21C114.75 18.5 112.75 17.125 110.5 16.875C107.75 16.625 105.375 17.75 103.375 20.25C102.506 21.3675 102.007 22.5775 101.878 23.88C101.774 24.9282 101.91 26.0364 102.285 27.2045C102.382 27.5073 102.496 27.8141 102.625 28.125ZM185.268 53.8399C185.09 53.7358 184.909 53.6356 184.724 53.5392C182.086 52.1644 178.72 51.568 174.625 51.75L143.5 53.25L141.625 97.875L157 98.25L157.375 84L176.875 82.5V85.875L167.125 86.25L170.5 98.25C179.5 99 185.5 98.375 188.5 96.375C191 94.875 192.25 92.75 192.25 90L191.875 67.875C191.749 62.2097 190.229 58.0342 187.313 55.3486C186.694 54.7786 186.013 54.2757 185.268 53.8399ZM157.75 72.75V75.375H176.875V72.75H157.75ZM157.75 65.625V62.25L176.125 61.125L176.5 64.875L157.75 65.625ZM36.2503 52.125L35.8753 57L27.2503 58.125L27.6253 53.25L36.2503 52.125ZM27.2503 32.625L27.6253 28.875L36.2503 27.75V32.25L27.2503 32.625ZM36.2503 39.75L27.6253 40.125V45.75L35.8753 45.375L36.2503 39.75Z" fill="#4E8DDB"/>
<defs>
<filter id="filter0_d_1089_1173" x="4.625" y="7" width="193.75" height="99.625" filterUnits="userSpaceOnUse" color-interpolation-filters="sRGB">
<feFlood flood-opacity="0" result="BackgroundImageFix"/>
<feColorMatrix in="SourceAlpha" type="matrix" values="0 0 0 0 0 0 0 0 0 0 0 0 0 0 0 0 0 0 127 0" result="hardAlpha"/>
<feOffset dx="7" dy="7"/>
<feComposite in2="hardAlpha" operator="out"/>
<feColorMatrix type="matrix" values="0 0 0 0 0.189583 0 0 0 0 0.417642 0 0 0 0 0.7 0 0 0 1 0"/>
<feBlend mode="normal" in2="BackgroundImageFix" result="effect1_dropShadow_1089_1173"/>
<feBlend mode="normal" in="SourceGraphic" in2="effect1_dropShadow_1089_1173" result="shape"/>
</filter>
</defs>
</svg>
