<svg width="309" height="48" viewBox="0 0 309 48" fill="none" xmlns="http://www.w3.org/2000/svg">
<path d="M262.938 20.0625L263.031 18.75C262.406 19.375 261.781 19.625 261.156 19.5C260.406 19.375 259.906 18.9688 259.656 18.2812C259.344 17.5312 259.406 16.875 259.844 16.3125C260.344 15.6875 260.938 15.4062 261.625 15.4688C262.188 15.5312 262.688 15.875 263.125 16.5V12.75L266.781 12.8438L266.688 15.75C267.562 15.3125 268.25 15.1875 268.75 15.375C269.25 15.5625 269.656 16.0625 269.969 16.875L270.062 15.0938H273.906V12.9375L278.031 12.8438L277.938 15.0938H282.344V17.5312L277.844 17.4375V18.0938L281.5 18L281.594 20.3438H277.844V21.0938L282.344 21V23.7188L280.281 23.5312L274.094 23.7188L268.75 24.2812L268.938 21.1875L273.906 21.0938V20.5312L270.344 20.9062L270.531 18.2812L273.906 18.1875V17.5312L269.969 18V17.625L269.875 17.9062C269.625 18.6562 269.188 19.0938 268.562 19.2188C268.062 19.3438 267.406 19.125 266.594 18.5625L266.5 20.0625L268.844 19.9688L268.75 22.5L266.5 22.7812L269.312 25.0312L268 28.4062L266.312 26.8125L266.125 35.8125H262.469L262.656 29.4375L261.25 31.875L259.562 28.2188L262.469 23.1562L259.562 23.7188L259.469 20.1562L262.938 20.0625ZM269.875 24.5625L277.656 24.1875C280.469 24.0625 281.906 25.4062 281.969 28.2188L282.062 33.75C282.062 34.4375 281.75 34.9688 281.125 35.3438C280.375 35.8438 278.875 36 276.625 35.8125L275.781 32.8125L278.219 32.7188V31.875L273.344 32.25L273.25 35.8125L269.406 35.7188L269.875 24.5625ZM278.219 30.0938V29.4375H273.438V30.0938H278.219ZM278.125 27.4688L278.031 26.5312L273.438 26.8125V27.6562L278.125 27.4688ZM294.606 22.125L294.513 20.625L295.45 20.7188L298.544 16.5938L288.231 17.625L288.325 13.5938L300.325 13.125C301.013 13.125 301.481 13.125 301.731 13.125C302.356 13.1875 302.794 13.375 303.044 13.6875C303.356 14.0625 303.481 14.6562 303.419 15.4688C303.356 15.9688 303.2 16.4062 302.95 16.7812L299.763 21.375L299.388 22.125H307.544L307.638 25.125L299.294 25.3125L299.481 32.0625C299.544 33.5625 299.2 34.5312 298.45 34.9688C298.013 35.2812 297.45 35.4688 296.763 35.5312C296.013 35.6562 294.419 35.7188 291.981 35.7188L291.044 31.6875L294.981 31.5938L294.794 25.3125L284.95 26.4375V22.4062L294.606 22.125Z" fill="#E05353"/>
<path d="M2 31L240.5 31.5" stroke="#E05353" stroke-width="3" stroke-linecap="round" stroke-dasharray="1 7"/>
</svg>
