<svg width="277" height="62" viewBox="0 0 277 62" fill="none" xmlns="http://www.w3.org/2000/svg">
<path d="M2 60L37.1219 24H210" stroke="#E05353" stroke-width="3" stroke-linecap="round" stroke-dasharray="1 7"/>
<path d="M230.938 20.0625L231.031 18.75C230.406 19.375 229.781 19.625 229.156 19.5C228.406 19.375 227.906 18.9688 227.656 18.2812C227.344 17.5312 227.406 16.875 227.844 16.3125C228.344 15.6875 228.938 15.4062 229.625 15.4688C230.188 15.5312 230.688 15.875 231.125 16.5V12.75L234.781 12.8438L234.688 15.75C235.562 15.3125 236.25 15.1875 236.75 15.375C237.25 15.5625 237.656 16.0625 237.969 16.875L238.062 15.0938H241.906V12.9375L246.031 12.8438L245.938 15.0938H250.344V17.5312L245.844 17.4375V18.0938L249.5 18L249.594 20.3438H245.844V21.0938L250.344 21V23.7188L248.281 23.5312L242.094 23.7188L236.75 24.2812L236.938 21.1875L241.906 21.0938V20.5312L238.344 20.9062L238.531 18.2812L241.906 18.1875V17.5312L237.969 18V17.625L237.875 17.9062C237.625 18.6562 237.188 19.0938 236.562 19.2188C236.062 19.3438 235.406 19.125 234.594 18.5625L234.5 20.0625L236.844 19.9688L236.75 22.5L234.5 22.7812L237.312 25.0312L236 28.4062L234.312 26.8125L234.125 35.8125H230.469L230.656 29.4375L229.25 31.875L227.562 28.2188L230.469 23.1562L227.562 23.7188L227.469 20.1562L230.938 20.0625ZM237.875 24.5625L245.656 24.1875C248.469 24.0625 249.906 25.4062 249.969 28.2188L250.062 33.75C250.062 34.4375 249.75 34.9688 249.125 35.3438C248.375 35.8438 246.875 36 244.625 35.8125L243.781 32.8125L246.219 32.7188V31.875L241.344 32.25L241.25 35.8125L237.406 35.7188L237.875 24.5625ZM246.219 30.0938V29.4375H241.438V30.0938H246.219ZM246.125 27.4688L246.031 26.5312L241.438 26.8125V27.6562L246.125 27.4688ZM255.856 31.3125L252.856 31.6875V28.2188L261.95 27.9375L262.044 26.625L258.856 26.7188L254.45 27.1875L255.2 18.0938L256.888 17.9062C255.888 17.1562 255.419 16.4062 255.481 15.6562C255.544 14.8438 255.919 14.2812 256.606 13.9688C257.419 13.5938 258.2 13.5625 258.95 13.875C259.638 14.1875 260.075 14.7188 260.263 15.4688C260.45 16.4062 260.138 17.2188 259.325 17.9062L263.544 17.7188C262.731 17.4688 262.2 16.9375 261.95 16.125C261.638 15 261.95 14.1562 262.888 13.5938C263.825 13.0938 264.669 13.0938 265.419 13.5938C266.294 14.2188 266.606 15.0938 266.356 16.2188C266.169 17.0312 265.544 17.5312 264.481 17.7188H266.638L269.169 13.0312L273.294 14.1562L270.575 17.7188C271.763 18.1562 272.575 18.7188 273.013 19.4062C273.388 19.9688 273.638 20.9062 273.763 22.2188C273.825 22.9062 273.856 24.3125 273.856 26.4375L266.45 26.5312V27.8438L275.544 27.9375L275.638 30.6562H271.325L275.638 32.9062L272.638 35.7188L266.356 32.1562L266.45 35.5312L261.95 35.9062V32.0625L256.231 36L252.763 33.4688L255.856 31.3125ZM261.95 24.375V23.1562L259.231 23.3438L259.138 24.4688L261.95 24.375ZM261.95 21.0938V20.0625L259.325 20.25L259.231 21.1875L261.95 21.0938ZM269.169 24.2812V23.0625H266.45V24.2812H269.169ZM269.075 21L268.981 19.875H266.45V20.9062L269.075 21Z" fill="#E05353"/>
</svg>
