<svg width="399" height="48" viewBox="0 0 399 48" fill="none" xmlns="http://www.w3.org/2000/svg">
<path d="M12.8438 18.0938C13.4688 18.6562 15.1562 20.5312 17.9062 23.7188L22.5 28.9688L19.5 32.4375L9.65625 21.8438L4.21875 30.1875L0.5625 27L4.6875 21.0938L5.53125 19.9688C7.03125 18.0312 8.40625 16.9688 9.65625 16.7812C10.7188 16.6562 11.7812 17.0938 12.8438 18.0938ZM16.9688 20.7188C16.2188 20.1562 15.8125 19.4688 15.75 18.6562C15.6875 17.9062 15.8438 17.2188 16.2188 16.5938C16.6562 15.9062 17.25 15.4688 18 15.2812C18.875 15.0938 19.6875 15.25 20.4375 15.75C21.1875 16.25 21.625 16.9375 21.75 17.8125C21.875 18.6875 21.6562 19.4688 21.0938 20.1562C20.5938 20.8438 19.9062 21.2188 19.0312 21.2812C18.2188 21.3438 17.5312 21.1562 16.9688 20.7188ZM17.4375 19.5C17.8125 19.9375 18.2812 20.1562 18.8438 20.1562C19.3438 20.1562 19.75 20 20.0625 19.6875C20.5 19.3125 20.7188 18.8438 20.7188 18.2812C20.6562 17.0938 20.0625 16.4688 18.9375 16.4062C18.3125 16.4062 17.8438 16.5625 17.5312 16.875C17.1562 17.25 16.9688 17.6562 16.9688 18.0938C16.9688 18.6562 17.125 19.125 17.4375 19.5ZM24.7313 28.7812C28.5438 28.5938 31.7 28.4688 34.2 28.4062C36.95 28.3438 40.7 28.3125 45.45 28.3125L45.5438 31.875C41.2313 31.9375 37.8563 32.0312 35.4188 32.1562C33.1063 32.3438 29.5438 32.75 24.7313 33.375V28.7812ZM43.2938 16.3125L43.2 19.875L26.9813 20.8125L26.8875 16.5L43.2938 16.3125ZM55.7438 23.7188C57.4938 21.8438 58.9625 20.0312 60.15 18.2812L49.1813 19.875L48.8063 15.1875L57.0563 14.4375C58.2438 14.3125 59.3375 14.2188 60.3375 14.1562C61.65 14.0938 62.7125 14.2188 63.525 14.5312C64.9625 15.0938 65.6813 16 65.6813 17.25C65.6813 18 65.4625 18.7812 65.025 19.5938C64.7125 20.2188 64.1188 21.0625 63.2438 22.125L60.4313 25.5938L67.9313 31.6875L64.275 34.875L57.3375 29.0625L51.6188 34.9688L47.9625 31.9688L51.9938 27.75C53.3688 26.25 54.6188 24.9062 55.7438 23.7188Z" fill="#E05353"/>
<line x1="82.5" y1="23.5" x2="397.5" y2="23.5" stroke="#E05353" stroke-width="3" stroke-linecap="round" stroke-dasharray="1 7"/>
</svg>
