<svg width="90" height="231" viewBox="0 0 90 231" fill="none" xmlns="http://www.w3.org/2000/svg">
<path d="M5.71875 14.7188C5.03125 18.9062 4.625 22.1562 4.5 24.4688C4.3125 27.0938 4.3125 30.4688 4.5 34.5938L0.5625 34.0312C0.5625 30.6562 0.625 27.625 0.75 24.9375C0.875 22.4375 1.21875 18.9062 1.78125 14.3438L5.71875 14.7188ZM6 20.7188L13.0312 20.0625L12.5625 18.0938L6.65625 18.75L6.5625 14.9062L17.0625 14.5312L18.1875 17.625H16.4062L16.875 19.9688H21.1875V22.875L17.3438 22.9688L17.625 25.3125L21.1875 26.0625L20.625 29.4375L17.7188 28.7812C17.5312 30.2812 17.1875 31.4375 16.6875 32.25C16.0625 33.25 15.0625 33.9688 13.6875 34.4062C12.3125 34.8438 11 34.9375 9.75 34.6875C7.9375 34.3125 6.8125 33.2812 6.375 31.5938C5.9375 29.8438 6.25 28.3125 7.3125 27C8.125 26.0625 9.21875 25.4062 10.5938 25.0312C11.2812 24.8438 12.3125 24.7812 13.6875 24.8438L13.5 23.3438L6 24.2812V20.7188ZM13.6875 29.4375C13.75 29.0625 13.7812 28.625 13.7812 28.125C12.8438 28 12.0938 27.9688 11.5312 28.0312C10.9062 28.1562 10.4375 28.4688 10.125 28.9688C9.8125 29.5312 9.78125 30.0625 10.0312 30.5625C10.2812 31.0625 10.6875 31.375 11.25 31.5C12.0625 31.6875 12.7188 31.375 13.2188 30.5625C13.4688 30.1875 13.625 29.8125 13.6875 29.4375ZM18.75 13.5938L20.3438 17.4375L18.6562 18L17.1562 13.875L18.75 13.5938ZM20.7188 13.0312L22.4062 16.7812L20.9062 17.3438L19.2188 13.5L20.7188 13.0312ZM40.2938 32.4375C39.5438 33.1875 38.2938 34.2188 36.5438 35.5312L33.2625 32.7188C34.3875 31.9062 35.5125 31.0625 36.6375 30.1875C38.075 29.0625 38.9813 27.9062 39.3563 26.7188C39.6063 25.9062 39.6063 25.1875 39.3563 24.5625C39.0438 23.875 38.5125 23.4062 37.7625 23.1562C36.6375 22.7812 35.1688 22.9062 33.3563 23.5312C31.4188 24.1562 29.1063 25.3125 26.4188 27L24.1688 23.8125C26.9188 22 29.075 20.8438 30.6375 20.3438C32.8875 19.5938 34.95 19.3125 36.825 19.5C39.575 19.75 41.5438 20.8125 42.7313 22.6875C43.7313 24.3125 43.9813 25.9688 43.4813 27.6562C43.0438 29.2188 41.9813 30.8125 40.2938 32.4375ZM34.0125 14.4375C34.95 14.5625 36.9188 14.9688 39.9188 15.6562L39.075 18.5625C36.95 18.0625 35.2313 17.7188 33.9188 17.5312C32.9813 17.4062 31.0125 17.2188 28.0125 16.9688L28.8563 14.0625C31.4813 14.1875 33.2 14.3125 34.0125 14.4375ZM50.4938 25.6875C50.9313 27.625 51.5563 28.9062 52.3688 29.5312C53.3688 30.3438 55.0563 30.6875 57.4313 30.5625C58.9313 30.5 60.2438 30.2812 61.3688 29.9062C62.0563 29.6562 63.0875 29.1875 64.4625 28.5L66.6188 32.625C64.2438 33.625 62.3375 34.25 60.9 34.5C59.275 34.75 57.4 34.8125 55.275 34.6875C53.775 34.5625 52.525 34.3125 51.525 33.9375C50.2125 33.4375 49.1188 32.625 48.2438 31.5C47.4313 30.5 46.7438 28.875 46.1813 26.625L50.4938 25.6875ZM64.5563 18.375C64.5563 19.8125 64.0875 21.75 63.15 24.1875L58.9313 23.1562C59.2438 22.3438 59.4938 21.5938 59.6813 20.9062C59.8688 20.2188 60.0563 19.2812 60.2438 18.0938C57.9938 18.2188 56.275 18.375 55.0875 18.5625C53.5875 18.8125 51.5563 19.2812 48.9938 19.9688L48.2438 16.2188C52.7438 15.1562 56.15 14.5625 58.4625 14.4375C59.8375 14.375 60.9625 14.4375 61.8375 14.625C62.775 14.8125 63.4313 15.1875 63.8063 15.75C64.3063 16.4375 64.5563 17.3125 64.5563 18.375ZM84.975 32.4375C84.225 33.1875 82.975 34.2188 81.225 35.5312L77.9437 32.7188C79.0687 31.9062 80.1937 31.0625 81.3187 30.1875C82.7562 29.0625 83.6625 27.9062 84.0375 26.7188C84.2875 25.9062 84.2875 25.1875 84.0375 24.5625C83.725 23.875 83.1937 23.4062 82.4437 23.1562C81.3187 22.7812 79.85 22.9062 78.0375 23.5312C76.1 24.1562 73.7875 25.3125 71.1 27L68.85 23.8125C71.6 22 73.7562 20.8438 75.3187 20.3438C77.5687 19.5938 79.6312 19.3125 81.5062 19.5C84.2562 19.75 86.225 20.8125 87.4125 22.6875C88.4125 24.3125 88.6625 25.9688 88.1625 27.6562C87.725 29.2188 86.6625 30.8125 84.975 32.4375ZM78.6937 14.4375C79.6312 14.5625 81.6 14.9688 84.6 15.6562L83.7562 18.5625C81.6312 18.0625 79.9125 17.7188 78.6 17.5312C77.6625 17.4062 75.6937 17.2188 72.6937 16.9688L73.5375 14.0625C76.1625 14.1875 77.8812 14.3125 78.6937 14.4375Z" fill="#E05353"/>
<line x1="43.5" y1="54.5" x2="43.5" y2="229.5" stroke="#E05353" stroke-width="3" stroke-linecap="round" stroke-dasharray="1 7"/>
</svg>
