<svg width="434" height="62" viewBox="0 0 434 62" fill="none" xmlns="http://www.w3.org/2000/svg">
<path d="M387.938 34.0625L388.031 32.75C387.406 33.375 386.781 33.625 386.156 33.5C385.406 33.375 384.906 32.9688 384.656 32.2812C384.344 31.5312 384.406 30.875 384.844 30.3125C385.344 29.6875 385.938 29.4062 386.625 29.4688C387.188 29.5312 387.688 29.875 388.125 30.5V26.75L391.781 26.8438L391.688 29.75C392.562 29.3125 393.25 29.1875 393.75 29.375C394.25 29.5625 394.656 30.0625 394.969 30.875L395.062 29.0938H398.906V26.9375L403.031 26.8438L402.938 29.0938H407.344V31.5312L402.844 31.4375V32.0938L406.5 32L406.594 34.3438H402.844V35.0938L407.344 35V37.7188L405.281 37.5312L399.094 37.7188L393.75 38.2812L393.938 35.1875L398.906 35.0938V34.5312L395.344 34.9062L395.531 32.2812L398.906 32.1875V31.5312L394.969 32V31.625L394.875 31.9062C394.625 32.6562 394.188 33.0938 393.562 33.2188C393.062 33.3438 392.406 33.125 391.594 32.5625L391.5 34.0625L393.844 33.9688L393.75 36.5L391.5 36.7812L394.312 39.0312L393 42.4062L391.312 40.8125L391.125 49.8125H387.469L387.656 43.4375L386.25 45.875L384.562 42.2188L387.469 37.1562L384.562 37.7188L384.469 34.1562L387.938 34.0625ZM394.875 38.5625L402.656 38.1875C405.469 38.0625 406.906 39.4062 406.969 42.2188L407.062 47.75C407.062 48.4375 406.75 48.9688 406.125 49.3438C405.375 49.8438 403.875 50 401.625 49.8125L400.781 46.8125L403.219 46.7188V45.875L398.344 46.25L398.25 49.8125L394.406 49.7188L394.875 38.5625ZM403.219 44.0938V43.4375H398.438V44.0938H403.219ZM403.125 41.4688L403.031 40.5312L398.438 40.8125V41.6562L403.125 41.4688ZM419.606 36.125L419.513 34.625L420.45 34.7188L423.544 30.5938L413.231 31.625L413.325 27.5938L425.325 27.125C426.013 27.125 426.481 27.125 426.731 27.125C427.356 27.1875 427.794 27.375 428.044 27.6875C428.356 28.0625 428.481 28.6562 428.419 29.4688C428.356 29.9688 428.2 30.4062 427.95 30.7812L424.763 35.375L424.388 36.125H432.544L432.638 39.125L424.294 39.3125L424.481 46.0625C424.544 47.5625 424.2 48.5312 423.45 48.9688C423.013 49.2812 422.45 49.4688 421.763 49.5312C421.013 49.6562 419.419 49.7188 416.981 49.7188L416.044 45.6875L419.981 45.5938L419.794 39.3125L409.95 40.4375V36.4062L419.606 36.125Z" fill="#E05353"/>
<path d="M2 2L47 38H367" stroke="#E05353" stroke-width="3" stroke-linecap="round" stroke-dasharray="1 7"/>
</svg>
