<svg width="242" height="47" viewBox="0 0 242 47" fill="none" xmlns="http://www.w3.org/2000/svg">
<path d="M1 28.0625L13.9375 27.5L16.5625 24.5L2.875 25.8125L5.6875 2.1875L5.875 1.8125L33.0625 0.875C35.4375 0.75 37.25 1.125 38.5 2C39.875 3 40.625 4.375 40.75 6.125L41.5 23.5625L26.3125 23.9375L24.4375 26.9375C29.0625 26.6875 32.9375 26.625 36.0625 26.75C38.4375 26.875 40.125 27.625 41.125 29C41.75 30 42.125 31.6875 42.25 34.0625L42.4375 41.1875C42.5625 42.9375 41.8125 44.375 40.1875 45.5C39.0625 46.375 37.25 46.8125 34.75 46.8125C32.625 46.8125 30.6875 46.75 28.9375 46.625L25.9375 38.5625H33.625V32.5625L20.5 33.3125L12.625 46.625L3.8125 42.3125L9.25 34.625L0.625 35.9375L0.8125 35.5625V35.375L1 28.0625ZM17.5 19.4375L17.6875 15.6875L11.875 16.25L11.5 19.625L17.5 19.4375ZM18.25 10.625L18.4375 6.875L13 7.25L12.625 10.8125L18.25 10.625ZM31.75 10.4375V6.125L26.3125 6.3125L26.125 10.4375H31.75ZM26.5 19.25H31.75V14.75L26.3125 14.9375L26.5 19.25ZM74.65 38.5625C77.775 36.4375 79.8375 34.4375 80.8375 32.5625C82.2125 30.3125 82.9 27.5 82.9 24.125C82.9 20.625 82.15 17.875 80.65 15.875C79.15 13.875 77.275 12.5 75.025 11.75C72.65 11 70.2125 10.9375 67.7125 11.5625C63.8375 12.6875 60.9 14.9375 58.9 18.3125C57.275 21.0625 56.5875 23.875 56.8375 26.75C56.9625 28 57.275 29.0625 57.775 29.9375C58.525 31.1875 59.4 31.625 60.4 31.25C61.275 31 62.525 30.1875 64.15 28.8125C65.4 27.8125 66.3375 27 66.9625 26.375C69.2125 24.25 71.65 21.5625 74.275 18.3125L79.7125 23.1875C76.7125 27.1875 74.15 30.25 72.025 32.375C68.9 35.5 65.7125 37.875 62.4625 39.5C60.4625 40.5 58.525 40.8125 56.65 40.4375C54.525 40.0625 52.9 38.9375 51.775 37.0625C50.4 34.9375 49.65 32 49.525 28.25C49.4 25 49.775 22 50.65 19.25C52.025 14.75 54.4625 11.1875 57.9625 8.5625C61.9625 5.5625 66.3375 4.0625 71.0875 4.0625C77.0875 4.0625 81.9625 6.1875 85.7125 10.4375C87.8375 12.8125 89.275 15.75 90.025 19.25C90.775 22.75 90.8375 26.125 90.2125 29.375C89.7125 31.875 88.9 34.25 87.775 36.5C86.65 38.75 84.5875 41.3125 81.5875 44.1875L74.65 38.5625ZM99.55 7.25L115.113 6.5L116.8 1.25L124.113 2.75L122.8 6.6875L131.238 6.875C133.488 6.875 135.113 7.25 136.113 8C136.363 8.25 136.613 8.4375 136.863 8.5625C137.113 8.8125 137.363 9.125 137.613 9.5C138.238 10.875 138.613 13.5625 138.738 17.5625L139.3 37.625C139.3 38.875 139.113 40.1875 138.738 41.5625C138.113 43.4375 137.3 44.6875 136.3 45.3125C135.05 46.0625 133.3 46.5 131.05 46.625C130.05 46.625 128.675 46.625 126.925 46.625L124.675 38.5625H131.238L131.05 31.25L130.488 14.375L130.113 14L120.363 14.1875L117.925 20.9375L130.3 29.5625L130.488 29.75L126.175 35.9375L125.988 36.125L115.675 28.4375L113.05 37.4375C111.8 37.0625 110.613 36.625 109.488 36.125C108.613 35.75 107.425 35.1875 105.925 34.4375L112.3 14.5625L106.863 14.9375L106.488 19.25L105.363 35.5625L104.8 46.8125L96.925 45.875L99.55 7.25ZM146.2 12.125L152.575 12.5L151.825 28.25L145.637 27.5L146.2 12.125ZM153.325 1.25L160.45 1.4375L160.075 10.4375L163.075 12.5L164.95 4.4375L171.137 6.125L170.387 10.625L173.575 10.8125L173.95 1.0625L181.45 1.25L181.262 10.625L190.262 10.8125V16.625L180.887 16.8125L180.7 24.875L188.575 24.6875L188.762 24.875V30.5L180.7 30.6875V39.3125H191.575L191.387 45.3125L181.075 45.5L171.325 46.0625L161.387 46.8125L161.575 39.875L173.012 39.3125L173.2 31.25L164.95 32.1875L165.137 25.4375L173.2 25.0625L173.387 17.1875L168.887 17.5625L167.387 24.5L161.387 22.625L161.012 22.4375L161.575 19.8125L159.887 18.3125L159.7 40.4375V46.8125H152.387L152.762 16.4375L153.325 1.25ZM203.913 25.4375L196.6 26.5625V20L212.35 18.6875L215.163 16.4375L198.288 18.3125L198.85 2.5625L199.788 2.375L209.913 0.875C211.913 0.625 213.6 1 214.975 2C216.725 3.375 217.538 5.875 217.413 9.5L217.225 15.6875L224.163 17L223.225 18.125L241.788 18.5V23.75H234.475L241.975 28.4375L238.788 32.1875C239.538 33.9375 239.975 35.375 240.1 36.5C240.225 37.75 240.038 40.5625 239.538 44.9375L220.788 44.75L221.35 28.4375H227.163L220.975 24.125L215.913 24.5L209.913 29.375C212.913 28.75 215.038 29 216.288 30.125C217.663 31.25 218.288 32.75 218.163 34.625L217.788 44.75L198.85 46.8125L199.038 34.625L196.225 31.625L203.913 25.4375ZM210.1 11.1875L210.288 6.875L205.413 7.0625L205.225 11.75L210.1 11.1875ZM210.85 40.25L211.225 35.375L205.788 35.75L205.413 41L210.85 40.25ZM221.538 1.25L230.35 1.0625C236.85 0.9375 239.975 4.1875 239.725 10.8125L239.538 15.6875L220.975 16.0625L221.538 1.25ZM232.038 39.3125L232.225 34.8125L227.35 34.625L227.163 39.5L232.038 39.3125ZM232.225 10.625V6.5H227.725L227.538 10.625H232.225Z" fill="#4E8DDB"/>
</svg>
