<svg width="417" height="48" viewBox="0 0 417 48" fill="none" xmlns="http://www.w3.org/2000/svg">
<path d="M370.938 20.0625L371.031 18.75C370.406 19.375 369.781 19.625 369.156 19.5C368.406 19.375 367.906 18.9688 367.656 18.2812C367.344 17.5312 367.406 16.875 367.844 16.3125C368.344 15.6875 368.938 15.4062 369.625 15.4688C370.188 15.5312 370.688 15.875 371.125 16.5V12.75L374.781 12.8438L374.688 15.75C375.562 15.3125 376.25 15.1875 376.75 15.375C377.25 15.5625 377.656 16.0625 377.969 16.875L378.062 15.0938H381.906V12.9375L386.031 12.8438L385.938 15.0938H390.344V17.5312L385.844 17.4375V18.0938L389.5 18L389.594 20.3438H385.844V21.0938L390.344 21V23.7188L388.281 23.5312L382.094 23.7188L376.75 24.2812L376.938 21.1875L381.906 21.0938V20.5312L378.344 20.9062L378.531 18.2812L381.906 18.1875V17.5312L377.969 18V17.625L377.875 17.9062C377.625 18.6562 377.188 19.0938 376.562 19.2188C376.062 19.3438 375.406 19.125 374.594 18.5625L374.5 20.0625L376.844 19.9688L376.75 22.5L374.5 22.7812L377.312 25.0312L376 28.4062L374.312 26.8125L374.125 35.8125H370.469L370.656 29.4375L369.25 31.875L367.562 28.2188L370.469 23.1562L367.562 23.7188L367.469 20.1562L370.938 20.0625ZM377.875 24.5625L385.656 24.1875C388.469 24.0625 389.906 25.4062 389.969 28.2188L390.062 33.75C390.062 34.4375 389.75 34.9688 389.125 35.3438C388.375 35.8438 386.875 36 384.625 35.8125L383.781 32.8125L386.219 32.7188V31.875L381.344 32.25L381.25 35.8125L377.406 35.7188L377.875 24.5625ZM386.219 30.0938V29.4375H381.438V30.0938H386.219ZM386.125 27.4688L386.031 26.5312L381.438 26.8125V27.6562L386.125 27.4688ZM395.856 31.3125L392.856 31.6875V28.2188L401.95 27.9375L402.044 26.625L398.856 26.7188L394.45 27.1875L395.2 18.0938L396.888 17.9062C395.888 17.1562 395.419 16.4062 395.481 15.6562C395.544 14.8438 395.919 14.2812 396.606 13.9688C397.419 13.5938 398.2 13.5625 398.95 13.875C399.638 14.1875 400.075 14.7188 400.263 15.4688C400.45 16.4062 400.138 17.2188 399.325 17.9062L403.544 17.7188C402.731 17.4688 402.2 16.9375 401.95 16.125C401.638 15 401.95 14.1562 402.888 13.5938C403.825 13.0938 404.669 13.0938 405.419 13.5938C406.294 14.2188 406.606 15.0938 406.356 16.2188C406.169 17.0312 405.544 17.5312 404.481 17.7188H406.638L409.169 13.0312L413.294 14.1562L410.575 17.7188C411.763 18.1562 412.575 18.7188 413.013 19.4062C413.388 19.9688 413.638 20.9062 413.763 22.2188C413.825 22.9062 413.856 24.3125 413.856 26.4375L406.45 26.5312V27.8438L415.544 27.9375L415.638 30.6562H411.325L415.638 32.9062L412.638 35.7188L406.356 32.1562L406.45 35.5312L401.95 35.9062V32.0625L396.231 36L392.763 33.4688L395.856 31.3125ZM401.95 24.375V23.1562L399.231 23.3438L399.138 24.4688L401.95 24.375ZM401.95 21.0938V20.0625L399.325 20.25L399.231 21.1875L401.95 21.0938ZM409.169 24.2812V23.0625H406.45V24.2812H409.169ZM409.075 21L408.981 19.875H406.45V20.9062L409.075 21Z" fill="#5D504F"/>
<line x1="1.5" y1="31.5" x2="348.5" y2="31.5" stroke="#5D504F" stroke-width="3" stroke-linecap="round" stroke-dasharray="1 7"/>
</svg>
