<svg width="245" height="64" viewBox="0 0 245 64" fill="none" xmlns="http://www.w3.org/2000/svg">
<path d="M200.344 35.8125L199.594 31.5938H201.375L201.469 27L199.5 27.1875L199.125 35.625L195.562 35.25L196.875 13.4062L202.219 13.3125C203.219 13.3125 203.938 13.5 204.375 13.875C204.938 14.375 205.219 15.1562 205.219 16.2188L204.75 33.2812C204.688 34.9688 203.812 35.8125 202.125 35.8125H200.344ZM201.562 24.375L201.656 21.9375L199.781 22.125L199.688 24.375H201.562ZM201.656 19.125L201.844 16.2188L200.156 16.3125L199.969 19.2188L201.656 19.125ZM205.5 30.8438H209.719L210.281 18.5625L206.156 18.9375L206.25 14.9062L217.969 14.7188L218.062 18.375H214.219V30.75L218.344 30.8438V34.3125L205.219 34.7812L205.5 30.8438ZM221.044 26.625L221.7 13.5L222.45 13.4062L229.294 13.2188C229.856 13.2188 230.513 13.6875 231.263 14.625C231.575 15.0625 231.763 15.5 231.825 15.9375C231.888 16.4375 231.919 17.1875 231.919 18.1875L231.825 24.1875L225.263 24.9375V35.8125L220.856 35.625L221.044 26.625ZM227.981 21.4688L228.075 19.6875L225.45 19.9688L225.356 21.4688H227.981ZM228.169 17.4375V15.9375L225.638 16.125L225.544 17.4375H228.169ZM232.669 13.2188H239.606C240.669 13.1562 241.638 13.5312 242.513 14.3438C243.138 15.0938 243.45 15.875 243.45 16.6875L243.544 27.1875V31.6875C243.544 32.75 243.356 33.625 242.981 34.3125C242.419 35.25 241.356 35.7188 239.794 35.7188H236.794C235.856 33.0312 235.356 31.6562 235.294 31.5938L235.388 31.4062L239.606 31.3125L239.513 24C237.763 23.9375 236.575 23.9062 235.95 23.9062C235.45 23.9062 234.231 23.9688 232.294 24.0938V23.7188L232.669 13.2188ZM239.325 21.2812V19.875L236.419 19.9688L236.325 21.375L239.325 21.2812ZM239.231 17.4375L239.138 15.9375H236.513L236.419 17.4375H239.231Z" fill="#E05353"/>
<path d="M1.5 62.5L46.5 26.5H178" stroke="#E05353" stroke-width="3" stroke-linecap="round" stroke-dasharray="1 7"/>
</svg>
