<svg width="94" height="46" viewBox="0 0 94 46" fill="none" xmlns="http://www.w3.org/2000/svg">
<path d="M2.9375 8.3125L15.125 7L17.375 0.0625L26 0.625L24.125 6.625C27.375 6.5 30.125 6.5 32.375 6.625C34.75 6.875 36.4375 7.75 37.4375 9.25C38.4375 11 39 13.25 39.125 16L39.875 42.625C31.75 43 24.6875 43.375 18.6875 43.75C14.8125 44 8.75 44.625 0.5 45.625L2.9375 8.3125ZM30.875 37.375L30.6875 32.3125L9.3125 34L9.125 38.6875L30.875 37.375ZM30.5 26.875L30.3125 22.5625L9.5 24.0625V28L30.5 26.875ZM29.9375 17.125L29.75 12.8125L10.0625 14.3125L9.875 17.875L29.9375 17.125ZM49.025 2.5L56.525 1.1875C60.15 0.5625 63.65 0.3125 67.025 0.4375C69.65 0.5625 71.025 1.75 71.15 4L71.525 8.5L55.2125 10L54.8375 15.25L71.9 14.5L71.7125 18.25L65.9 18.4375C65.9 22.0625 65.8375 24.5 65.7125 25.75C65.8375 27 65.65 27.9375 65.15 28.5625C64.525 29.3125 63.5875 29.6875 62.3375 29.6875C61.2125 29.6875 60.15 29.625 59.15 29.5L58.2125 25.5625H60.8375L61.2125 18.625L57.4625 19C59.0875 19.5 60.0875 20.125 60.4625 20.875C60.8375 21.75 60.8375 22.625 60.4625 23.5C60.2125 24.25 59.7125 24.75 58.9625 25C57.2125 25.75 55.65 25.1875 54.275 23.3125L54.0875 29.3125L47.7125 29.125L49.025 2.5ZM54.275 31.1875L59.525 34.5625L53.7125 45.625L47.7125 42.4375L54.275 31.1875ZM54.4625 20.875C55.0875 20.125 55.775 19.5625 56.525 19.1875H54.4625V20.875ZM64.2125 5.3125V3.8125L55.775 4.5625L55.5875 6.25L64.2125 5.3125ZM56.525 10.75L70.025 9.625L70.4 13.1875L56.525 14.125V10.75ZM60.8375 30.25H67.4V39.625L74.525 39.4375L75.65 35.3125L82.9625 37L81.0875 32.125L86.7125 29.6875L92.525 42.4375L85.775 44.3125L83.525 38.3125C82.275 41.5625 81.3375 43.5 80.7125 44.125C79.7125 45.125 77.275 45.625 73.4 45.625H67.4C66.15 45.625 65.025 45.5 64.025 45.25C62.65 45 61.7125 44.5 61.2125 43.75C60.7125 43.125 60.4625 41.8125 60.4625 39.8125V30.4375L60.8375 30.25ZM66.4625 21.25C67.0875 19.75 68.15 19 69.65 19C70.775 19 71.65 19.375 72.275 20.125C73.025 21 73.2125 22 72.8375 23.125C72.4625 24.25 71.775 25 70.775 25.375C69.4 25.875 68.2125 25.625 67.2125 24.625C66.2125 23.5 65.9625 22.375 66.4625 21.25ZM70.775 34C69.275 32.875 68.65 31.5625 68.9 30.0625C69.15 28.4375 69.9 27.25 71.15 26.5C72.4 25.75 73.775 25.625 75.275 26.125C76.275 26.5 77.025 27.1875 77.525 28.1875C78.025 29.0625 78.2125 30 78.0875 31C77.8375 33.375 76.4625 34.6875 73.9625 34.9375C72.7125 35.0625 71.65 34.75 70.775 34ZM83.15 7.1875L82.775 0.4375L89.525 0.625L89.9 7.1875H92.9L93.0875 12.25L90.0875 12.4375C90.3375 17.1875 90.4 20.5 90.275 22.375C90.15 24.625 89.3375 26.125 87.8375 26.875C86.2125 27.625 83.275 27.875 79.025 27.625L77.525 22L83.7125 21.625L83.525 12.625L77.3375 13L82.775 17.6875L78.8375 21.0625L72.4625 15.8125L76.2125 13L72.4625 13.375V7.375L83.15 7.1875Z" fill="white"/>
</svg>
