<svg width="25" height="26" viewBox="0 0 25 26" fill="none" xmlns="http://www.w3.org/2000/svg">
<rect y="0.25" width="25" height="25" rx="3" fill="#75BE5B"/>
<path d="M14.7003 17.2997L18.4725 20.2869L16.663 21.857L12.9482 18.8699L14.7003 17.2997ZM18.5682 12.0723V12.7329C18.5682 13.7924 18.4246 14.7435 18.1374 15.586C17.8565 16.4285 17.4512 17.1466 16.9215 17.7402C16.3917 18.3274 15.7662 18.7774 15.0449 19.0901C14.3237 19.4029 13.5226 19.5592 12.6418 19.5592C11.7674 19.5592 10.9663 19.4029 10.2387 19.0901C9.51108 18.7774 8.88238 18.3274 8.35261 17.7402C7.82284 17.1466 7.41115 16.4285 7.11754 15.586C6.83032 14.7435 6.68671 13.7924 6.68671 12.7329V12.0723C6.68671 11.0063 6.83032 10.0553 7.11754 9.21917C7.41115 8.37665 7.81965 7.65859 8.34303 7.06499C8.86642 6.47139 9.49193 6.01822 10.2196 5.70546C10.9472 5.39271 11.7482 5.23633 12.6227 5.23633C13.5035 5.23633 14.3045 5.39271 15.0258 5.70546C15.7534 6.01822 16.3821 6.47139 16.9119 7.06499C17.4417 7.65859 17.8502 8.37665 18.1374 9.21917C18.4246 10.0553 18.5682 11.0063 18.5682 12.0723ZM15.6673 12.7329V12.0531C15.6673 11.3127 15.597 10.6617 15.4566 10.1C15.3226 9.53831 15.1247 9.06598 14.863 8.68302C14.6077 8.30005 14.2918 8.01283 13.9152 7.82135C13.5386 7.62348 13.1078 7.52455 12.6227 7.52455C12.1376 7.52455 11.7067 7.62348 11.3302 7.82135C10.9536 8.01283 10.6376 8.30005 10.3823 8.68302C10.127 9.06598 9.93234 9.53831 9.7983 10.1C9.66427 10.6617 9.59725 11.3127 9.59725 12.0531V12.7329C9.59725 13.4669 9.66427 14.1179 9.7983 14.686C9.93234 15.2477 10.127 15.7232 10.3823 16.1126C10.644 16.4955 10.9632 16.7859 11.3397 16.9838C11.7227 17.1817 12.1567 17.2806 12.6418 17.2806C13.1269 17.2806 13.5546 17.1817 13.9248 16.9838C14.3013 16.7859 14.6173 16.4955 14.8726 16.1126C15.1343 15.7232 15.3322 15.2477 15.4662 14.686C15.6002 14.1179 15.6673 13.4669 15.6673 12.7329Z" fill="white"/>
</svg>
