<svg width="110" height="112" viewBox="0 0 110 112" fill="none" xmlns="http://www.w3.org/2000/svg">
<rect width="110" height="112" rx="55" fill="#F59494"/>
<path d="M33.3025 40.5C32.4692 40.75 30.9275 41.0417 28.6775 41.375L28.4275 49.125H23.5525L24.6775 25L30.0525 23.875C32.2192 23.4583 33.8442 23.25 34.9275 23.25C36.8442 23.3333 38.3442 24 39.4275 25.25C40.4275 26.4167 41.0525 27.9583 41.3025 29.875C41.5525 31.9583 41.3025 33.7917 40.5525 35.375C39.8025 36.9583 38.7608 38.125 37.4275 38.875C36.3442 39.4583 34.9692 40 33.3025 40.5ZM29.4275 28.625L28.9275 36.625C30.3442 36.4583 31.3442 36.2917 31.9275 36.125C33.3442 35.7083 34.4275 35.1667 35.1775 34.5C35.8442 33.9167 36.2608 33.2083 36.4275 32.375C36.5942 31.4583 36.4692 30.5 36.0525 29.5C35.4692 28.1667 34.5108 27.625 33.1775 27.875L29.4275 28.625ZM52.4375 40.875L50.8125 36L50.4375 48.875L44.8125 49L45.4375 36.125L46.0625 23.375L49.4375 23.25C50.8542 23.1667 51.8125 23.8333 52.3125 25.25L55.8125 37.375L61.8125 23.125H63.5625C64.4792 23.125 65.1458 23.3333 65.5625 23.75C66.2292 24.4167 66.5625 25.25 66.5625 26.25L66.6875 49L60.9375 48.875L61.6875 36.25L57.8125 44.375C57.2292 45.5417 56.6875 46.25 56.1875 46.5C55.6875 46.75 55.2292 46.7917 54.8125 46.625C54.3958 46.4583 54.1042 46.0833 53.9375 45.5L52.4375 40.875ZM71.8225 43.125C73.3225 43.9583 74.6142 44.5833 75.6975 45C76.8642 45.4167 77.9892 45.4167 79.0725 45C79.9058 44.6667 80.3225 43.9167 80.3225 42.75C80.3225 42.0833 80.1558 41.4583 79.8225 40.875C79.4892 40.2917 78.7808 39.6667 77.6975 39C76.3642 38.1667 75.5308 37.6667 75.1975 37.5C74.7808 37.25 74.0308 36.6667 72.9475 35.75C72.3642 35.1667 71.9475 34.4167 71.6975 33.5C71.1975 31.25 71.5725 29.0833 72.8225 27C73.9892 24.9167 75.9058 23.7083 78.5725 23.375C81.8225 22.9583 84.0725 23.5417 85.3225 25.125C85.8225 25.7083 86.1142 26.5833 86.1975 27.75C86.2808 28.4167 86.2808 29.5833 86.1975 31.25H81.5725C81.5725 30.1667 81.5308 29.2083 81.4475 28.375C81.3642 27.4583 80.9475 26.9583 80.1975 26.875C79.0308 26.7083 78.1975 27.2083 77.6975 28.375C77.2808 29.2917 77.1558 30.1667 77.3225 31C77.5725 32.25 78.5725 33.4167 80.3225 34.5L81.5725 35.25C84.9058 37.25 86.4058 39.75 86.0725 42.75C85.8225 44.0833 85.3642 45.25 84.6975 46.25C84.0308 47.25 83.1558 47.9583 82.0725 48.375C80.4058 49.0417 78.5308 49.25 76.4475 49C74.8642 48.8333 72.7392 48.0417 70.0725 46.625L71.8225 43.125ZM29.245 63.5L34.12 61.625L36.87 67.375L47.62 64.625L49.62 69.5L38.995 72L41.245 76.875L36.495 78.625L34.62 74C32.87 75 31.745 76.125 31.245 77.375C29.995 80.375 30.5783 82.5 32.995 83.75C34.745 84.6667 36.8283 85 39.245 84.75C40.8283 84.5833 42.2867 84.2083 43.62 83.625C45.12 82.875 46.745 81.9167 48.495 80.75L51.495 84.875C47.5783 87.4583 44.37 89 41.87 89.5C39.5367 89.9167 37.3283 90 35.245 89.75C32.0783 89.3333 29.62 88.3333 27.87 86.75C25.5367 84.5 24.7033 81.375 25.37 77.375C25.62 75.625 26.2867 74.125 27.37 72.875C28.4533 71.625 30.0783 70.375 32.245 69.125L29.245 63.5ZM64.38 61.875C63.5467 69.375 63.0883 75 63.005 78.75C62.9217 81.5833 62.9217 85.125 63.005 89.375L57.755 88.75C57.8383 83.1667 57.9633 78.7917 58.13 75.625C58.2967 72.7083 58.7967 68 59.63 61.5L64.38 61.875ZM64.755 67.75L74.88 67.25L73.88 61.875L79.13 61.5L80.13 67.25L85.505 67.375V71.5H80.505L80.755 75.5L85.38 76L85.505 81.125L81.005 80.5C80.9217 83.75 80.255 86.0417 79.005 87.375C77.505 89.0417 75.2133 89.7083 72.13 89.375C68.4633 89.0417 66.2967 87.4167 65.63 84.5C65.0467 81.8333 65.63 79.5 67.38 77.5C68.5467 76.25 69.88 75.4583 71.38 75.125C72.63 74.875 74.13 74.8333 75.88 75L75.63 71.875L64.63 72.875L64.755 67.75ZM75.38 83.375C75.88 82.7083 76.0883 81.5417 76.005 79.875C74.5883 79.7083 73.5467 79.7083 72.88 79.875C71.5467 80.125 70.7133 80.7917 70.38 81.875C70.0467 82.7917 70.1717 83.5417 70.755 84.125C71.255 84.625 71.9633 84.8333 72.88 84.75C73.9633 84.5833 74.7967 84.125 75.38 83.375Z" fill="white"/>
</svg>
