<svg width="97" height="81" viewBox="0 0 97 81" fill="none" xmlns="http://www.w3.org/2000/svg">
<path d="M95.8164 65.8516C94.2164 63.8516 88.8164 58.6849 86.3164 56.3516C98.7164 45.9516 92.1497 33.3516 87.3164 28.3516C89.483 23.8515 90.7164 12.8514 78.3164 4.85158C65.9164 -3.14823 54.1497 0.518327 49.8164 3.35158C44.6497 1.35158 30.0807 -2.4717 18.3164 6.35156C4.31638 16.8516 4.14971 26.3516 4.81638 32.8516C1.81638 35.6849 -3.18362 44.1516 2.81638 59.3516C8.81638 74.5516 23.6497 76.3516 30.3164 75.3516C35.1164 82.9516 43.3164 80.5182 46.8164 78.3516C64.8164 82.3516 76.3164 71.6849 79.8164 65.8516C83.6497 66.8516 91.8164 68.9516 93.8164 69.3516C96.3164 69.8516 97.8164 68.3516 95.8164 65.8516Z" fill="#F59494"/>
<path d="M64.5268 58.9602C65.1214 57.3867 65.034 55.7482 64.2649 54.0447C63.5656 52.4961 62.3169 51.3821 60.5186 50.7026C58.9451 50.108 57.384 50.1604 55.8354 50.8596C54.2868 51.5589 53.1727 52.8076 52.4933 54.6059C51.8987 56.1794 51.986 57.8179 52.7552 59.5214C53.4544 61.07 54.7032 62.184 56.5015 62.8635C58.075 63.4581 59.636 63.4057 61.1847 62.7065C62.7333 62.0072 63.8473 60.7584 64.5268 58.9602ZM58.166 46.7311L38.0792 15.2515L26.9441 22.7963C29.8462 26.3332 33.505 30.9266 37.9205 36.5767C40.9624 40.4233 44.8584 45.7486 49.6086 52.5526L58.166 46.7311Z" fill="white"/>
</svg>
