<svg width="288" height="47" viewBox="0 0 288 47" fill="none" xmlns="http://www.w3.org/2000/svg">
<path d="M1 28.0625L13.9375 27.5L16.5625 24.5L2.875 25.8125L5.6875 2.1875L5.875 1.8125L33.0625 0.875C35.4375 0.75 37.25 1.125 38.5 2C39.875 3 40.625 4.375 40.75 6.125L41.5 23.5625L26.3125 23.9375L24.4375 26.9375C29.0625 26.6875 32.9375 26.625 36.0625 26.75C38.4375 26.875 40.125 27.625 41.125 29C41.75 30 42.125 31.6875 42.25 34.0625L42.4375 41.1875C42.5625 42.9375 41.8125 44.375 40.1875 45.5C39.0625 46.375 37.25 46.8125 34.75 46.8125C32.625 46.8125 30.6875 46.75 28.9375 46.625L25.9375 38.5625H33.625V32.5625L20.5 33.3125L12.625 46.625L3.8125 42.3125L9.25 34.625L0.625 35.9375L0.8125 35.5625V35.375L1 28.0625ZM17.5 19.4375L17.6875 15.6875L11.875 16.25L11.5 19.625L17.5 19.4375ZM18.25 10.625L18.4375 6.875L13 7.25L12.625 10.8125L18.25 10.625ZM31.75 10.4375V6.125L26.3125 6.3125L26.125 10.4375H31.75ZM26.5 19.25H31.75V14.75L26.3125 14.9375L26.5 19.25ZM48.94 13.8125L61.315 13.625L67.315 0.875L75.565 3.875L71.065 13.4375L94.69 14.1875L94.315 20.1875L87.0025 20L77.44 35L88.1275 40.0625L83.6275 46.8125L73.5025 41.75L70.69 46.625L63.3775 42.875L66.19 38.1875L60.565 35.9375C57.815 34.8125 56.0025 33.625 55.1275 32.375C54.1275 30.875 54.3775 28.5 55.8775 25.25L57.565 21.6875L48.7525 22.625L48.94 13.8125ZM70.5025 31.4375L77.815 20.1875L67.69 20.5625L63.7525 28.8125L70.5025 31.4375ZM123.13 38.5625C126.255 36.4375 128.317 34.4375 129.317 32.5625C130.692 30.3125 131.38 27.5 131.38 24.125C131.38 20.625 130.63 17.875 129.13 15.875C127.63 13.875 125.755 12.5 123.505 11.75C121.13 11 118.692 10.9375 116.192 11.5625C112.317 12.6875 109.38 14.9375 107.38 18.3125C105.755 21.0625 105.067 23.875 105.317 26.75C105.442 28 105.755 29.0625 106.255 29.9375C107.005 31.1875 107.88 31.625 108.88 31.25C109.755 31 111.005 30.1875 112.63 28.8125C113.88 27.8125 114.817 27 115.442 26.375C117.692 24.25 120.13 21.5625 122.755 18.3125L128.192 23.1875C125.192 27.1875 122.63 30.25 120.505 32.375C117.38 35.5 114.192 37.875 110.942 39.5C108.942 40.5 107.005 40.8125 105.13 40.4375C103.005 40.0625 101.38 38.9375 100.255 37.0625C98.88 34.9375 98.13 32 98.005 28.25C97.88 25 98.255 22 99.13 19.25C100.505 14.75 102.942 11.1875 106.442 8.5625C110.442 5.5625 114.817 4.0625 119.567 4.0625C125.567 4.0625 130.442 6.1875 134.192 10.4375C136.317 12.8125 137.755 15.75 138.505 19.25C139.255 22.75 139.317 26.125 138.692 29.375C138.192 31.875 137.38 34.25 136.255 36.5C135.13 38.75 133.067 41.3125 130.067 44.1875L123.13 38.5625ZM151.945 1.4375L159.445 3.5L157.57 7.0625C159.57 6.8125 161.445 6.6875 163.195 6.6875C165.82 6.6875 167.445 7.75 168.07 9.875C168.57 11.5 168.508 13.375 167.883 15.5C165.258 24.875 161.133 35.3125 155.508 46.8125L147.445 44L155.133 27.5L150.633 25.8125L149.508 29.375L142.945 25.625L151.945 1.4375ZM157.758 20.375L159.82 14.1875L154.57 14.75V14.9375L153.07 18.875L153.258 19.0625L157.758 20.375ZM178.57 1.0625L178.945 17.375L188.695 23.5625L185.695 31.625L178.758 26.9375L179.32 46.25H170.695L170.133 13.4375L169.383 0.875L178.57 1.0625ZM192.76 12.125L199.135 12.5L198.385 28.25L192.197 27.5L192.76 12.125ZM199.885 1.25L207.01 1.4375L206.635 10.4375L209.635 12.5L211.51 4.4375L217.697 6.125L216.947 10.625L220.135 10.8125L220.51 1.0625L228.01 1.25L227.822 10.625L236.822 10.8125V16.625L227.447 16.8125L227.26 24.875L235.135 24.6875L235.322 24.875V30.5L227.26 30.6875V39.3125H238.135L237.947 45.3125L227.635 45.5L217.885 46.0625L207.947 46.8125L208.135 39.875L219.572 39.3125L219.76 31.25L211.51 32.1875L211.697 25.4375L219.76 25.0625L219.947 17.1875L215.447 17.5625L213.947 24.5L207.947 22.625L207.572 22.4375L208.135 19.8125L206.447 18.3125L206.26 40.4375V46.8125H198.947L199.322 16.4375L199.885 1.25ZM249.512 25.4375L242.2 26.5625V20L257.95 18.6875L260.762 16.4375L243.887 18.3125L244.45 2.5625L245.387 2.375L255.512 0.875C257.512 0.625 259.2 1 260.575 2C262.325 3.375 263.137 5.875 263.012 9.5L262.825 15.6875L269.762 17L268.825 18.125L287.387 18.5V23.75H280.075L287.575 28.4375L284.387 32.1875C285.137 33.9375 285.575 35.375 285.7 36.5C285.825 37.75 285.637 40.5625 285.137 44.9375L266.387 44.75L266.95 28.4375H272.762L266.575 24.125L261.512 24.5L255.512 29.375C258.512 28.75 260.637 29 261.887 30.125C263.262 31.25 263.887 32.75 263.762 34.625L263.387 44.75L244.45 46.8125L244.637 34.625L241.825 31.625L249.512 25.4375ZM255.7 11.1875L255.887 6.875L251.012 7.0625L250.825 11.75L255.7 11.1875ZM256.45 40.25L256.825 35.375L251.387 35.75L251.012 41L256.45 40.25ZM267.137 1.25L275.95 1.0625C282.45 0.9375 285.575 4.1875 285.325 10.8125L285.137 15.6875L266.575 16.0625L267.137 1.25ZM277.637 39.3125L277.825 34.8125L272.95 34.625L272.762 39.5L277.637 39.3125ZM277.825 10.625V6.5H273.325L273.137 10.625H277.825Z" fill="#E06363"/>
</svg>
