<svg width="97" height="81" viewBox="0 0 97 81" fill="none" xmlns="http://www.w3.org/2000/svg">
<path d="M95.8164 65.8516C94.2164 63.8516 88.8164 58.6849 86.3164 56.3516C98.7164 45.9516 92.1497 33.3516 87.3164 28.3516C89.483 23.8515 90.7164 12.8514 78.3164 4.85158C65.9164 -3.14823 54.1497 0.518327 49.8164 3.35158C44.6497 1.35158 30.0807 -2.4717 18.3164 6.35156C4.31638 16.8516 4.14971 26.3516 4.81638 32.8516C1.81638 35.6849 -3.18362 44.1516 2.81638 59.3516C8.81638 74.5516 23.6497 76.3516 30.3164 75.3516C35.1164 82.9516 43.3164 80.5182 46.8164 78.3516C64.8164 82.3516 76.3164 71.6849 79.8164 65.8516C83.6497 66.8516 91.8164 68.9516 93.8164 69.3516C96.3164 69.8516 97.8164 68.3516 95.8164 65.8516Z" fill="#F59494"/>
<path d="M13.3438 46L13.4375 45.9062L11.5625 46.0938L12.5938 29.6875L17.4688 29.4062C19.0312 29.3438 20.0312 29.4688 20.4688 29.7812C21.1562 30.2812 21.5 30.9375 21.5 31.75L21.3125 39.7188L21.2188 44.9688L15.3125 45.625L17 46.0938L15.0312 52L11.5625 50.9688V50.7812L13.3438 46ZM17.6562 42.3438L17.8438 40.0938L15.4062 40.375L15.3125 42.4375L17.6562 42.3438ZM17.8438 37.9375L18.0312 36.0625L15.5 36.25L15.4062 37.9375H17.8438ZM18.125 33.7188V31.9375L15.7812 32.125L15.6875 33.8125L18.125 33.7188ZM17.75 49.4688C17.3125 48.9062 17.1562 48.25 17.2812 47.5C17.4688 46.3125 18.2188 45.7812 19.5312 45.9062C20.7812 46.0312 21.4688 46.6562 21.5938 47.7812C21.6562 48.4688 21.4688 49.0625 21.0312 49.5625C20.5312 50.0625 19.9375 50.2812 19.25 50.2188C18.5625 50.1562 18.0625 49.9062 17.75 49.4688ZM22.4375 44.5938L22.625 40.375L26 40.1875L26.1875 29.2188L30.0312 29.125L29.9375 32.7812H34.3438V35.7812L29.75 36.0625L29.8438 40.0938C30.7188 40.0938 31.3438 40.125 31.7188 40.1875C32.2812 40.3125 32.7188 40.5312 33.0312 40.8438C33.4688 41.2188 33.7812 41.8125 33.9688 42.625C34.1562 43.375 34.25 44.125 34.25 44.875L34.3438 47.875L34.4375 51.0625L26.1875 51.4375L22.3438 51.7188L22.4375 44.5938ZM30.2188 47.7812V43.375L26.1875 43.5625L26.0938 47.875L30.2188 47.7812ZM44.72 31.0938C44.22 33.5312 43.9075 35.125 43.7825 35.875C43.595 37.125 43.47 38.875 43.4075 41.125L46.1262 39.1562L47.8137 42.9062L43.97 45.5312C42.47 46.5312 41.2825 46.6875 40.4075 46C39.97 45.625 39.6575 44.9375 39.47 43.9375C39.345 43.1875 39.2825 42.1562 39.2825 40.8438C39.345 38.4688 39.8762 35.0312 40.8762 30.5312L44.72 31.0938ZM51.3762 40.375C51.5637 37.5625 51.3762 34.1875 50.8137 30.25L54.9387 29.7812C55.3137 33.7188 55.5012 36.5938 55.5012 38.4062C55.5012 41.3438 55.1262 45.5 54.3762 50.875L50.1575 50.5C50.7825 46.625 51.1887 43.25 51.3762 40.375ZM60.7212 31.75L69.815 31.6562L69.9087 29.0312L74.315 29.125L74.1275 31.6562L83.315 31.75L83.1275 35.125L71.5025 34.9375L70.8462 36.9062H75.1587C76.0337 36.9688 76.7525 37.0312 77.315 37.0938C77.8775 37.2188 78.315 37.4375 78.6275 37.75C79.3775 38.5 79.7525 39.7812 79.7525 41.5938V48.5312C79.7525 49.0312 79.5337 49.6875 79.0962 50.5C78.7837 51.0625 78.0025 51.4375 76.7525 51.625C75.815 51.75 74.5337 51.7812 72.9087 51.7188L71.4087 47.6875L75.5337 47.5938L75.2525 40.375L69.815 40.6562L66.7212 51.625L62.4087 50.5L66.1587 38.2188L67.0025 35.3125C64.815 35.5 62.6275 35.7188 60.44 35.9688L60.7212 31.75Z" fill="white"/>
</svg>
