<svg width="110" height="112" viewBox="0 0 110 112" fill="none" xmlns="http://www.w3.org/2000/svg">
<rect width="110" height="112" rx="55" fill="#F59494"/>
<path d="M22.745 38.375C22.8283 37.9583 23.245 36.0417 23.995 32.625L26.12 23.375L31.62 24.375L30.62 29.125L35.37 29L35.62 22.25L41.245 22.375L40.87 28.875L50.87 28.625V33.125L40.87 33.375V38L48.495 37.875V42.25H42.745L40.87 42.375V46.625H53.37V51.125L39.62 51.25L29.245 52L22.995 52.625L23.245 47.25L34.995 46.875L35.12 42.625L27.745 43.125L27.995 39.5L22.745 38.375ZM35.12 38.125L35.245 33.75L29.495 34.25L28.62 38.375L35.12 38.125ZM68.005 24.75V28.5L64.38 28.875L64.13 32.375H67.255V36.375L64.005 36.625L63.88 41.5L67.255 40.5V44.625L57.505 48.75L56.505 44L59.63 42.875L60.005 37.125L57.38 37.5L57.255 32.625L60.13 32.375L60.38 29.125L56.505 29.625L56.63 24.875L68.005 24.75ZM74.38 47.5L74.505 45.75L69.38 46.25L69.505 41.5L74.63 41.375L74.755 39.375L67.63 39.875L68.755 27.75L69.005 22.875L69.13 22.75L81.88 22.625C83.7967 22.625 85.13 23.2083 85.88 24.375C86.38 25.125 86.6717 26.2917 86.755 27.875C86.755 28.375 86.7967 29.625 86.88 31.625C86.9633 34.125 87.005 36.5417 87.005 38.875L79.63 39.125V41.375L84.755 41.5L84.88 45.375H79.63V47.375H86.88V51.375C82.5467 51.375 78.505 51.4167 74.755 51.5C73.005 51.5833 70.005 51.8333 65.755 52.25L65.63 47.75L74.38 47.5ZM74.755 35.25V32.5L73.255 32.625L73.13 35.375L74.755 35.25ZM75.13 29.25L75.255 26.5L73.63 26.625L73.38 29.25H75.13ZM81.63 34.875V32.25H79.63V34.875H81.63ZM81.63 29.25V26.5L79.63 26.625V29.25H81.63ZM41.75 74.75L41.875 72.875L39.625 71.25L41.625 66.75L42.75 67.375C42.8333 66.125 43 64.875 43.25 63.625L46.75 63.375L54.625 62.875L54.75 60.375H59.75L59.625 62.625L70 62.875L70.125 66H65L54.625 66.625L47.5 67.375L46.125 81.875L45.625 90.75L40.75 90.375L41.5 80.625L39.875 82.375L39.75 77.25L41.75 74.75ZM55 73.375L53.125 72.375L55 70.25L49.125 70.875L49.5 67.5C54.5833 67.0833 59.25 66.875 63.5 66.875C64.5 66.875 65.25 66.9583 65.75 67.125C66.5833 67.375 66.9167 67.8333 66.75 68.5C66.6667 69.0833 65.9583 70.0833 64.625 71.5L63.25 73C65.0833 72.9167 66.2917 73 66.875 73.25C67.5417 73.5833 68.0833 74.1667 68.5 75C68.8333 75.6667 69 76.2917 69 76.875L69.375 86C69.4583 87.9167 69 89.25 68 90C67.4167 90.4167 66.5833 90.6667 65.5 90.75C64.5833 90.8333 63.5833 90.8333 62.5 90.75L61.375 86.625L64.25 86.5V84.125L60.75 84.25V88.875H55.875L56 84.625L52.25 85.125L52.125 90.875H47.25L47.375 88.25L48.125 77.875L48.625 73.75L55 73.375ZM56.125 81.625V80.625L52.5 80.875L52.375 81.875L56.125 81.625ZM56.125 77.625V76.5L52.875 76.75L52.75 77.75L56.125 77.625ZM58.75 71L60 69.75L56.75 70L58.75 71ZM64.25 81.375L64.125 80.25L60.75 80.375V81.375H64.25ZM64 77.375L63.875 76L60.875 76.125L60.75 77.5L64 77.375Z" fill="white"/>
</svg>
