<svg width="148" height="148" viewBox="0 0 148 148" fill="none" xmlns="http://www.w3.org/2000/svg">
<rect width="148" height="148" rx="74" fill="#4E8DDB"/>
<path d="M49.415 26.375C48.0817 29.7917 47.2067 32.5 46.79 34.5C46.3733 36.3333 46.2483 39.3333 46.415 43.5L49.665 38L53.915 40.75L50.29 47.625C49.54 49.0417 48.9567 50 48.54 50.5C47.8733 51.3333 47.0817 51.8333 46.165 52C44.3317 52.25 42.9983 51.125 42.165 48.625C41.665 47.0417 41.3733 44.9583 41.29 42.375C41.2067 39.2917 41.415 36.3333 41.915 33.5C42.3317 31.3333 43.2067 28.3333 44.54 24.5L49.415 26.375ZM65.415 25.25C66.415 29 67.1233 32.2083 67.54 34.875C68.04 37.875 68.415 41.9583 68.665 47.125L63.165 47.25C62.9983 42.25 62.7483 38.5833 62.415 36.25C62.0817 34.1667 61.3317 30.875 60.165 26.375L65.415 25.25ZM101.585 46.5C99.5017 48 96.5017 49.75 92.585 51.75L89.585 46.5C92.585 45.25 94.6267 44.2917 95.71 43.625C98.3767 42.125 100.002 40.5 100.585 38.75C101.002 37.5833 101.043 36.4583 100.71 35.375C100.377 34.2083 99.6683 33.375 98.585 32.875C97.5017 32.375 96.0433 32.25 94.21 32.5C92.21 32.75 90.085 33.375 87.835 34.375C86.585 34.9583 84.71 35.9167 82.21 37.25L78.96 32.25C82.3767 30.5 85.085 29.2917 87.085 28.625C90.085 27.625 92.6683 27.0833 94.835 27C97.7517 26.9167 100.168 27.5417 102.085 28.875C103.835 30.125 105.085 31.75 105.835 33.75C106.668 36 106.835 38.125 106.335 40.125C105.752 42.4583 104.168 44.5833 101.585 46.5ZM23.33 64.25L24.33 59.125L28.83 59.625L27.955 63.875C29.1217 63.875 29.9133 63.875 30.33 63.875C31.33 63.9583 32.0383 64.2083 32.455 64.625C33.1217 65.2917 33.3717 66.3333 33.205 67.75L31.58 79.5L33.455 80.125L32.955 85L30.83 84.25L29.955 89.625L25.455 88.75L26.58 82.875C24.33 82.375 22.8717 81.875 22.205 81.375C21.5383 80.9583 21.1633 80.2083 21.08 79.125C21.08 78.625 21.1633 77.7917 21.33 76.625L22.58 68.875L21.08 69.125L20.955 64.5L23.33 64.25ZM27.33 78.375L28.83 67.875L27.33 68.125L25.58 77.875L27.33 78.375ZM34.33 75.25L47.455 74.875L48.705 75.125C49.6217 75.2917 50.33 76.125 50.83 77.625C50.9967 78.2083 51.08 79.3333 51.08 81C51.08 83 51.1217 85.375 51.205 88.125L33.205 88.875L34.33 75.25ZM42.58 60.25L39.205 68.375L45.08 67.75L43.33 62.875L47.58 61.25L51.58 72.75L47.33 74.25L46.455 71.75L37.33 73.25C36.58 73.3333 35.955 73.375 35.455 73.375C34.705 73.2917 34.1633 73.0417 33.83 72.625C33.4967 72.125 33.3717 71.5417 33.455 70.875C33.5383 70.2083 33.9133 69.125 34.58 67.625L38.205 59.25L42.58 60.25ZM45.955 84.125L45.705 78.875L39.205 79.125L38.705 84.125H45.955ZM74.375 70.375L74 68.125L61.75 69.375V64.375L73.125 63.625L72.375 60.75L77.875 60.5L78.5 63.5L86.375 63.625V67.75L79.125 67.875L79.5 70.125L87.75 70.25L88.25 74.25H80L80.25 76.75L87 78L86.125 82.875L80.5 81.75C80.1667 83.5833 79.5 85 78.5 86C76.5 88 73.625 89 69.875 89C67.7083 89 65.9583 88.3333 64.625 87C63.2917 85.6667 62.6667 83.9583 62.75 81.875C62.75 80.5417 63.2917 79.3333 64.375 78.25C65.7083 76.8333 68.0417 76.125 71.375 76.125C72.4583 76.125 73.7083 76.1667 75.125 76.25L74.875 74.75C70.7083 75 67.4167 75.2917 65 75.625C63.8333 75.7917 62.2083 76.0833 60.125 76.5V71.375L74.375 70.375ZM71.75 84C73.5 83.8333 74.6667 82.7917 75.25 80.875C73.5833 80.5417 72.4167 80.375 71.75 80.375C70.5 80.2917 69.5833 80.5 69 81C68.5833 81.3333 68.3333 81.75 68.25 82.25C68.1667 82.75 68.3333 83.1667 68.75 83.5C69.4167 84 70.4167 84.1667 71.75 84ZM112.045 65.25L102.92 66.625L103.045 61.625L115.42 60.625C116.587 60.5417 117.503 60.5417 118.17 60.625C118.92 60.7083 119.503 61.0833 119.92 61.75C120.337 62.5 120.42 63.3333 120.17 64.25C119.92 65.1667 119.462 65.8333 118.795 66.25L113.92 69.625C115.837 69.375 117.462 69.2917 118.795 69.375C120.378 69.5417 121.67 70.0833 122.67 71C124.003 72.1667 124.795 73.7083 125.045 75.625C125.295 77.375 125.087 79.0833 124.42 80.75C123.337 83.5 121.337 85.5417 118.42 86.875C116.42 87.7917 114.545 88.3333 112.795 88.5C110.962 88.6667 109.253 88.5 107.67 88C105.337 87.25 104.045 85.8333 103.795 83.75C103.545 81.5833 104.295 79.7917 106.045 78.375C107.128 77.5417 108.42 77 109.92 76.75C111.67 76.5 113.337 76.5833 114.92 77C116.67 77.5 117.795 78.6667 118.295 80.5C119.462 79.25 119.962 78.0417 119.795 76.875C119.545 75.2917 118.67 74.25 117.17 73.75C115.92 73.3333 114.337 73.375 112.42 73.875C110.42 74.375 108.503 75.0833 106.67 76C105.503 76.5833 104.003 77.4167 102.17 78.5L98.92 73.75L112.045 65.25ZM110.42 83.875C111.587 84.2083 112.962 84 114.545 83.25C114.128 82.1667 113.545 81.4583 112.795 81.125C112.128 80.7917 111.42 80.7083 110.67 80.875C109.92 81.0417 109.378 81.4167 109.045 82C108.628 82.8333 109.087 83.4583 110.42 83.875ZM58.165 120.375C60.2483 118.958 61.6233 117.625 62.29 116.375C63.2067 114.875 63.665 113 63.665 110.75C63.665 108.417 63.165 106.583 62.165 105.25C61.165 103.917 59.915 103 58.415 102.5C56.8317 102 55.2067 101.958 53.54 102.375C50.9567 103.125 48.9983 104.625 47.665 106.875C46.5817 108.708 46.1233 110.583 46.29 112.5C46.3733 113.333 46.5817 114.042 46.915 114.625C47.415 115.458 47.9983 115.75 48.665 115.5C49.2483 115.333 50.0817 114.792 51.165 113.875C51.9983 113.208 52.6233 112.667 53.04 112.25C54.54 110.833 56.165 109.042 57.915 106.875L61.54 110.125C59.54 112.792 57.8317 114.833 56.415 116.25C54.3317 118.333 52.2067 119.917 50.04 121C48.7067 121.667 47.415 121.875 46.165 121.625C44.7483 121.375 43.665 120.625 42.915 119.375C41.9983 117.958 41.4983 116 41.415 113.5C41.3317 111.333 41.5817 109.333 42.165 107.5C43.0817 104.5 44.7067 102.125 47.04 100.375C49.7067 98.375 52.6233 97.375 55.79 97.375C59.79 97.375 63.04 98.7917 65.54 101.625C66.9567 103.208 67.915 105.167 68.415 107.5C68.915 109.833 68.9567 112.083 68.54 114.25C68.2067 115.917 67.665 117.5 66.915 119C66.165 120.5 64.79 122.208 62.79 124.125L58.165 120.375ZM98.21 108.75C96.71 109.917 95.6267 111.917 94.96 114.75L89.96 114C90.3767 112.333 90.7517 111.208 91.085 110.625C91.7517 109.292 92.585 108.208 93.585 107.375L96.71 104.625C97.2933 104.042 97.5433 103.292 97.46 102.375C97.3767 101.542 97.0017 100.958 96.335 100.625C95.4183 100.125 94.1683 100.083 92.585 100.5C91.0017 100.917 89.0433 102.167 86.71 104.25L83.71 100.625C85.71 98.9583 87.46 97.7917 88.96 97.125C90.71 96.375 92.5017 95.9583 94.335 95.875C97.085 95.7917 99.1267 96.375 100.46 97.625C102.043 99.125 102.71 101 102.46 103.25C102.293 104.833 101.71 106 100.71 106.75L98.21 108.75ZM89.835 121C89.2517 120.417 88.96 119.667 88.96 118.75C88.96 117.75 89.2517 116.958 89.835 116.375C90.4183 115.792 91.1267 115.5 91.96 115.5C92.8767 115.5 93.6683 115.833 94.335 116.5C94.9183 117.083 95.21 117.833 95.21 118.75C95.21 119.667 94.9183 120.417 94.335 121C93.7517 121.583 93.0433 121.875 92.21 121.875C91.21 121.875 90.4183 121.583 89.835 121Z" fill="white"/>
</svg>
