<svg width="118" height="116" viewBox="0 0 118 116" fill="none" xmlns="http://www.w3.org/2000/svg">
<rect width="118" height="116" rx="58" fill="#4E8DDB"/>
<path d="M30.125 27.5L35 25.625L37.75 31.375L48.5 28.625L50.5 33.5L39.875 36L42.125 40.875L37.375 42.625L35.5 38C33.75 39 32.625 40.125 32.125 41.375C30.875 44.375 31.4583 46.5 33.875 47.75C35.625 48.6667 37.7083 49 40.125 48.75C41.7083 48.5833 43.1667 48.2083 44.5 47.625C46 46.875 47.625 45.9167 49.375 44.75L52.375 48.875C48.4583 51.4583 45.25 53 42.75 53.5C40.4167 53.9167 38.2083 54 36.125 53.75C32.9583 53.3333 30.5 52.3333 28.75 50.75C26.4167 48.5 25.5833 45.375 26.25 41.375C26.5 39.625 27.1667 38.125 28.25 36.875C29.3333 35.625 30.9583 34.375 33.125 33.125L30.125 27.5ZM71.02 25.875C70.1867 33.375 69.7283 39 69.645 42.75C69.5617 45.5833 69.5617 49.125 69.645 53.375L64.395 52.75C64.4783 47.1667 64.6033 42.7917 64.77 39.625C64.9367 36.7083 65.4367 32 66.27 25.5L71.02 25.875ZM71.395 31.75L81.52 31.25L80.52 25.875L85.77 25.5L86.77 31.25L92.145 31.375V35.5H87.145L87.395 39.5L92.02 40L92.145 45.125L87.645 44.5C87.5617 47.75 86.895 50.0417 85.645 51.375C84.145 53.0417 81.8533 53.7083 78.77 53.375C75.1033 53.0417 72.9367 51.4167 72.27 48.5C71.6867 45.8333 72.27 43.5 74.02 41.5C75.1867 40.25 76.52 39.4583 78.02 39.125C79.27 38.875 80.77 38.8333 82.52 39L82.27 35.875L71.27 36.875L71.395 31.75ZM82.02 47.375C82.52 46.7083 82.7283 45.5417 82.645 43.875C81.2283 43.7083 80.1867 43.7083 79.52 43.875C78.1867 44.125 77.3533 44.7917 77.02 45.875C76.6867 46.7917 76.8117 47.5417 77.395 48.125C77.895 48.625 78.6033 48.8333 79.52 48.75C80.6033 48.5833 81.4367 48.125 82.02 47.375ZM33.375 64.125L31.875 67.125V92.5H26.625L26.875 77.125L25.875 79.625H25.625L23.75 74.5L29.375 62.25L33.375 64.125ZM45.75 83.75L33.625 85.25L34.125 70.875L38.875 70.125C41.2083 69.7917 42.875 69.7917 43.875 70.125C45.0417 70.5417 45.625 71.4583 45.625 72.875L45.75 83.75ZM33.75 63.875L33.875 63.625L54.125 63.125V67.125H52.375L52.875 79.75L53 85.75C53 87 52.9583 88 52.875 88.75C52.7083 89.9167 52.2917 90.8333 51.625 91.5C50.875 92.1667 49.9167 92.5417 48.75 92.625C47.75 92.7083 46.5833 92.6667 45.25 92.5L43.625 87.375L47.5 87.25C47.5833 83.5833 47.625 80.625 47.625 78.375C47.5417 76.0417 47.3333 72.4167 47 67.5L33.75 69V63.875ZM41 80.125V74.375L38.25 74.5L38 80.375L41 80.125ZM83.77 75.75C82.27 76.9167 81.1867 78.9167 80.52 81.75L75.52 81C75.9367 79.3333 76.3117 78.2083 76.645 77.625C77.3117 76.2917 78.145 75.2083 79.145 74.375L82.27 71.625C82.8533 71.0417 83.1033 70.2917 83.02 69.375C82.9367 68.5417 82.5617 67.9583 81.895 67.625C80.9783 67.125 79.7283 67.0833 78.145 67.5C76.5617 67.9167 74.6033 69.1667 72.27 71.25L69.27 67.625C71.27 65.9583 73.02 64.7917 74.52 64.125C76.27 63.375 78.0617 62.9583 79.895 62.875C82.645 62.7917 84.6867 63.375 86.02 64.625C87.6033 66.125 88.27 68 88.02 70.25C87.8533 71.8333 87.27 73 86.27 73.75L83.77 75.75ZM75.395 88C74.8117 87.4167 74.52 86.6667 74.52 85.75C74.52 84.75 74.8117 83.9583 75.395 83.375C75.9783 82.7917 76.6867 82.5 77.52 82.5C78.4367 82.5 79.2283 82.8333 79.895 83.5C80.4783 84.0833 80.77 84.8333 80.77 85.75C80.77 86.6667 80.4783 87.4167 79.895 88C79.3117 88.5833 78.6033 88.875 77.77 88.875C76.77 88.875 75.9783 88.5833 75.395 88Z" fill="white"/>
</svg>
