<svg id="Layer_1" data-name="Layer 1" xmlns="http://www.w3.org/2000/svg" viewBox="0 0 1000 1000"><defs><style>.cls-1{fill:#fabeae;}.cls-2{fill:#fff;}.cls-3{fill:#e8706c;opacity:0.6;}.cls-4{fill:#245389;}</style></defs><rect class="cls-1" width="1000" height="1000" rx="500"/><path class="cls-2" d="M352.13,691.23q-43,9.64-109.15-6.81-68.35-17.58-97.56-90.82-13.23-30.65-17.64-71a209.1,209.1,0,0,1,3.3-68.12q18.19-74.92,84.34-102.17,95.36-43.12,165.37-17.6,52.92,19.31,86,74.93a289.76,289.76,0,0,1,14.33,51.09q11.58,60.74-8.26,131.69-11,38.6-34.18,60.16-15.44,14.21-22.05,14.19Q354.32,690.67,352.13,691.23Z"/><path class="cls-2" d="M742.59,691.23q-43,9.64-109.14-6.81-68.37-17.58-97.57-90.82-13.23-30.65-17.65-71-3.86-35.76,3.32-68.12,18.18-74.92,84.33-102.17,95.37-43.12,165.37-17.6,52.92,19.31,86,74.93a290.64,290.64,0,0,1,14.34,51.09q11.56,60.74-8.27,131.69-11,38.6-34.18,60.16-15.43,14.21-22,14.19Q744.78,690.67,742.59,691.23Z"/><path class="cls-3" d="M59.92,587.81c-15.22,14.76-15.06,35.51-11.68,55.56,6.2,28,15.91,42.27,41.28,49.46q27.92,7.95,82,0,46.5-9.65,61.73-27.25,16.91-19.86,7.61-64.14-6.78-31.79-44.82-41.44-33-7.93-82.87,1.14Q79.36,568.52,59.92,587.81Z"/><path class="cls-3" d="M761,609.8Q738.14,631.94,743.22,662q9.28,42,47.35,52.79,27.91,8,82,0,46.5-9.64,61.73-27.25,16.9-19.86,7.61-64.14-6.78-31.78-44.82-41.43-33-7.95-82.87,1.13Q780.41,590.5,761,609.8Z"/><path class="cls-4" d="M271.92,553.89q-9.37,13.93-7.29,32.88,3.81,26.46,19.44,33.24,11.44,5,33.67,0,19.08-6.06,25.34-17.15,6.93-12.51,3.12-40.39-2.79-20-18.4-26.1-13.53-5-34,.72A41,41,0,0,0,271.92,553.89Z"/><path class="cls-4" d="M662.38,553.89q-9.37,13.93-7.29,32.88,3.81,26.46,19.44,33.24,11.44,5,33.67,0,19.08-6.06,25.34-17.15,6.93-12.51,3.12-40.39-2.77-20-18.4-26.1-13.53-5-34,.72A41,41,0,0,0,662.38,553.89Z"/></svg>