<svg width="60" height="60" viewBox="0 0 60 60" fill="none" xmlns="http://www.w3.org/2000/svg">
<circle cx="30" cy="30" r="30" fill="#BDEDE7"/>
<path d="M45.3 28.3025C44.8491 28.3025 44.4167 28.4816 44.0979 28.8004C43.7791 29.1192 43.6 29.5516 43.6 30.0025C43.6202 33.1866 42.5295 36.2781 40.5156 38.7446C38.5017 41.2111 35.6908 42.8981 32.5669 43.5151C29.4431 44.1321 26.2018 43.6404 23.4015 42.1248C20.6011 40.6092 18.4169 38.1644 17.2251 35.2117C16.0332 32.2589 15.9083 28.983 16.872 25.9481C17.8356 22.9132 19.8273 20.3093 22.5042 18.5849C25.1811 16.8605 28.3755 16.1235 31.5372 16.5009C34.699 16.8783 37.6302 18.3465 39.826 20.6525H35.746C35.2951 20.6525 34.8627 20.8316 34.5439 21.1504C34.2251 21.4692 34.046 21.9016 34.046 22.3525C34.046 22.8033 34.2251 23.2357 34.5439 23.5546C34.8627 23.8734 35.2951 24.0525 35.746 24.0525H43.447C43.8979 24.0525 44.3303 23.8734 44.6491 23.5546C44.9679 23.2357 45.147 22.8033 45.147 22.3525V14.7025C45.147 14.2516 44.9679 13.8192 44.6491 13.5004C44.3303 13.1816 43.8979 13.0025 43.447 13.0025C42.9961 13.0025 42.5637 13.1816 42.2449 13.5004C41.9261 13.8192 41.747 14.2516 41.747 14.7025V17.7115C38.9159 15.0052 35.2373 13.3594 31.3328 13.0523C27.4284 12.7453 23.5377 13.7958 20.3184 16.0263C17.0991 18.2567 14.7486 21.5304 13.6644 25.2938C12.5802 29.0572 12.8287 33.0796 14.3678 36.681C15.907 40.2823 18.6425 43.2418 22.1118 45.0591C25.5812 46.8764 29.5716 47.44 33.4086 46.6548C37.2455 45.8695 40.6937 43.7835 43.1701 40.7493C45.6466 37.7151 46.9994 33.919 47 30.0025C47 29.5516 46.8209 29.1192 46.5021 28.8004C46.1833 28.4816 45.7509 28.3025 45.3 28.3025Z" fill="white"/>
</svg>
