<svg width="200" height="56" viewBox="0 0 200 56" fill="none" xmlns="http://www.w3.org/2000/svg">
<rect width="200" height="56" rx="28" fill="#44AEA1"/>
<path d="M65.8 22.72L65.82 25.12C67 25.2 68.14 25.24 69.32 25.24C71.72 25.22 74.24 25.06 76.34 24.74V22.26C74.26 22.7 71.76 22.9 69.32 22.9C68.1 22.9 66.96 22.84 65.8 22.72ZM73.42 19.36H70.56C70.62 19.74 70.68 20.36 70.68 20.68C70.7 21.28 70.72 22.62 70.72 24.14C70.72 27.02 70.98 30.38 70.98 31.76C70.98 32.94 70.56 33.58 69.34 33.58C68.26 33.58 67.46 33.22 67.46 32.4C67.46 31.64 68.24 31.18 69.38 31.18C71.64 31.18 73.66 32.52 75.96 34.66L77.32 32.56C75.76 31.12 73.34 29.24 69.58 29.24C66.84 29.24 65.12 30.64 65.12 32.68C65.12 34.78 66.84 35.92 69.62 35.92C72.5 35.92 73.54 34.4 73.54 32.3C73.54 30.4 73.22 27.8 73.22 24.12C73.22 22.68 73.26 21.3 73.3 20.64C73.32 20.22 73.36 19.74 73.42 19.36ZM63.66 19.56L60.88 19.34C60.86 19.96 60.78 20.74 60.7 21.3C60.46 22.84 59.86 26.62 59.86 29.64C59.86 32.34 60.26 34.64 60.66 36.02L62.92 35.86C62.9 35.58 62.9 35.24 62.9 35.02C62.88 34.82 62.94 34.38 63 34.1C63.22 33 63.88 30.98 64.44 29.32L63.2 28.34C62.92 29.02 62.58 29.7 62.3 30.4C62.24 30 62.22 29.48 62.22 29.1C62.22 27.1 62.88 22.7 63.18 21.36C63.26 21 63.5 19.96 63.66 19.56ZM91.86 20.88L90.12 21.6C90.86 22.64 91.36 23.6 91.96 24.86L93.76 24.08C93.3 23.16 92.42 21.72 91.86 20.88ZM94.54 19.78L92.82 20.56C93.56 21.56 94.12 22.48 94.76 23.74L96.5 22.9C96.04 22 95.14 20.58 94.54 19.78ZM86.7 19.26L83.48 19.24C83.66 20.02 83.74 20.98 83.74 21.94C83.74 23.64 83.54 28.9 83.54 31.58C83.54 35 85.66 36.44 88.94 36.44C93.5 36.44 96.32 33.76 97.62 31.86L95.8 29.64C94.36 31.82 92.26 33.72 88.96 33.72C87.4 33.72 86.2 33.06 86.2 31.04C86.2 28.56 86.36 24.08 86.44 21.94C86.48 21.14 86.58 20.12 86.7 19.26ZM115.18 19.32L112.4 19.06C112.42 19.54 112.36 20.38 112.26 20.96C111.84 23.42 110.68 27.1 109.14 29.36C108.1 30.94 107 32.22 105.96 32.22C105.26 32.22 104.84 31.6 104.84 30.62C104.84 28.98 105.76 27.02 107.32 25.92C108.72 24.9 110.34 24.14 112.42 24.14C115.3 24.14 117.16 26.02 117.16 28.74C117.16 31.24 115.44 33.48 111.04 33.86L112.56 36.18C116.74 35.54 119.76 33.1 119.76 28.86C119.76 24.7 116.8 21.92 112.68 21.92C110.54 21.92 108.52 22.42 106.38 23.8C104.04 25.3 102.5 28.16 102.5 30.84C102.5 33.42 104.02 34.82 105.68 34.82C107.52 34.82 108.8 33.78 110.64 31.46C112.56 29.04 113.86 24.88 114.7 21.34C114.82 20.86 115 19.88 115.18 19.32ZM106.74 19.98L104.1 20.82C104.46 21.54 104.7 22.18 104.92 22.88C105.84 25.84 107.04 29.04 108.26 30.82C108.9 31.84 109.5 32.6 110.28 33.48L112.32 31.86C111.38 30.98 110.44 29.72 109.76 28.64C108.84 27.2 107.78 24.14 107.16 21.9C107 21.32 106.84 20.66 106.74 19.98ZM127.2 19.78L127.28 22.38C127.74 22.3 128.36 22.26 128.9 22.22C129.98 22.14 132.74 22.04 133.76 22C132.78 22.88 130.68 24.56 129.56 25.48C128.4 26.46 125.98 28.5 124.56 29.62L126.38 31.5C128.52 29.08 130.5 27.44 133.58 27.44C135.92 27.44 137.72 28.66 137.72 30.48C137.72 32.62 136 33.9 132.62 33.9C131.4 33.9 130.58 33.4 130.58 32.66C130.58 32.14 131.08 31.68 131.82 31.68C133 31.68 133.76 32.68 133.8 34.12L136.14 33.82C136.08 31.62 134.56 29.78 131.82 29.78C129.7 29.78 128.22 31.26 128.22 32.88C128.22 34.9 130.32 36.16 133.1 36.16C137.94 36.16 140.34 33.66 140.34 30.5C140.34 27.6 137.76 25.48 134.36 25.48C133.74 25.48 133.14 25.52 132.46 25.7C133.74 24.7 135.84 22.94 136.92 22.18C137.36 21.84 137.84 21.56 138.3 21.26L137.02 19.46C136.78 19.54 136.32 19.62 135.48 19.68C134.34 19.78 130.08 19.88 129 19.88C128.44 19.88 127.76 19.84 127.2 19.78Z" fill="white"/>
</svg>
