<svg width="245" height="64" viewBox="0 0 245 64" fill="none" xmlns="http://www.w3.org/2000/svg">
<path d="M203.156 12.9375L207.656 14.625L206.625 15.1875L205.594 36L201.375 35.3438L201.938 30.75L201.281 31.125L198.469 32.1562C197.406 32.5312 196.625 32.4375 196.125 31.875C195.75 31.4375 195.594 30.7188 195.656 29.7188L195.844 27.0938L196.406 17.3438L195.375 16.3125L203.156 12.9375ZM202.219 27L202.406 24.6562C201.406 25.2188 200.469 25.1875 199.594 24.5625L199.406 28.125L202.219 27ZM201.281 20.0625C201.719 20.0625 202.219 20.25 202.781 20.625L203.062 16.5938L199.875 17.9062L199.688 20.625C200.312 20.25 200.844 20.0625 201.281 20.0625ZM217.594 14.625C218.094 15.375 218.312 16.4062 218.25 17.7188V30.375C218.25 31.0625 217.938 31.6875 217.312 32.25C216.938 32.625 216.281 32.8125 215.344 32.8125C214.531 32.8125 213.688 32.7812 212.812 32.7188L211.594 28.875L214.594 28.7812L214.688 23.8125C214.125 24.3125 213.625 24.5938 213.188 24.6562C212.75 24.7188 212.156 24.625 211.406 24.375L211.312 35.8125H207.656L208.125 13.4062C210.688 13.2188 212.938 13.1875 214.875 13.3125C216.188 13.375 217.094 13.8125 217.594 14.625ZM213.094 19.875C213.469 19.875 213.969 20.0938 214.594 20.5312L214.5 16.5L211.5 16.6875L211.406 20.3438C212.031 20.0312 212.594 19.875 213.094 19.875ZM223.856 31.3125L220.856 31.6875V28.2188L229.95 27.9375L230.044 26.625L226.856 26.7188L222.45 27.1875L223.2 18.0938L224.888 17.9062C223.888 17.1562 223.419 16.4062 223.481 15.6562C223.544 14.8438 223.919 14.2812 224.606 13.9688C225.419 13.5938 226.2 13.5625 226.95 13.875C227.638 14.1875 228.075 14.7188 228.263 15.4688C228.45 16.4062 228.138 17.2188 227.325 17.9062L231.544 17.7188C230.731 17.4688 230.2 16.9375 229.95 16.125C229.638 15 229.95 14.1562 230.888 13.5938C231.825 13.0938 232.669 13.0938 233.419 13.5938C234.294 14.2188 234.606 15.0938 234.356 16.2188C234.169 17.0312 233.544 17.5312 232.481 17.7188H234.638L237.169 13.0312L241.294 14.1562L238.575 17.7188C239.763 18.1562 240.575 18.7188 241.013 19.4062C241.388 19.9688 241.638 20.9062 241.763 22.2188C241.825 22.9062 241.856 24.3125 241.856 26.4375L234.45 26.5312V27.8438L243.544 27.9375L243.638 30.6562H239.325L243.638 32.9062L240.638 35.7188L234.356 32.1562L234.45 35.5312L229.95 35.9062V32.0625L224.231 36L220.763 33.4688L223.856 31.3125ZM229.95 24.375V23.1562L227.231 23.3438L227.138 24.4688L229.95 24.375ZM229.95 21.0938V20.0625L227.325 20.25L227.231 21.1875L229.95 21.0938ZM237.169 24.2812V23.0625H234.45V24.2812H237.169ZM237.075 21L236.981 19.875H234.45V20.9062L237.075 21Z" fill="#5D504F"/>
<path d="M1.5 62.5L46.5 26.5H178" stroke="#5D504F" stroke-width="3" stroke-linecap="round" stroke-dasharray="1 7"/>
</svg>
