<svg width="333" height="48" viewBox="0 0 333 48" fill="none" xmlns="http://www.w3.org/2000/svg">
<path d="M8.65625 12.9375L13.1562 14.625L12.125 15.1875L11.0938 36L6.875 35.3438L7.4375 30.75L6.78125 31.125L3.96875 32.1562C2.90625 32.5312 2.125 32.4375 1.625 31.875C1.25 31.4375 1.09375 30.7188 1.15625 29.7188L1.34375 27.0938L1.90625 17.3438L0.875 16.3125L8.65625 12.9375ZM7.71875 27L7.90625 24.6562C6.90625 25.2188 5.96875 25.1875 5.09375 24.5625L4.90625 28.125L7.71875 27ZM6.78125 20.0625C7.21875 20.0625 7.71875 20.25 8.28125 20.625L8.5625 16.5938L5.375 17.9062L5.1875 20.625C5.8125 20.25 6.34375 20.0625 6.78125 20.0625ZM23.0938 14.625C23.5938 15.375 23.8125 16.4062 23.75 17.7188V30.375C23.75 31.0625 23.4375 31.6875 22.8125 32.25C22.4375 32.625 21.7812 32.8125 20.8438 32.8125C20.0312 32.8125 19.1875 32.7812 18.3125 32.7188L17.0938 28.875L20.0938 28.7812L20.1875 23.8125C19.625 24.3125 19.125 24.5938 18.6875 24.6562C18.25 24.7188 17.6562 24.625 16.9062 24.375L16.8125 35.8125H13.1562L13.625 13.4062C16.1875 13.2188 18.4375 13.1875 20.375 13.3125C21.6875 13.375 22.5938 13.8125 23.0938 14.625ZM18.5938 19.875C18.9688 19.875 19.4688 20.0938 20.0938 20.5312L20 16.5L17 16.6875L16.9062 20.3438C17.5312 20.0312 18.0938 19.875 18.5938 19.875ZM36.1063 22.125L36.0125 20.625L36.95 20.7188L40.0438 16.5938L29.7313 17.625L29.825 13.5938L41.825 13.125C42.5125 13.125 42.9813 13.125 43.2313 13.125C43.8563 13.1875 44.2938 13.375 44.5438 13.6875C44.8563 14.0625 44.9813 14.6562 44.9188 15.4688C44.8563 15.9688 44.7 16.4062 44.45 16.7812L41.2625 21.375L40.8875 22.125H49.0438L49.1375 25.125L40.7938 25.3125L40.9813 32.0625C41.0438 33.5625 40.7 34.5312 39.95 34.9688C39.5125 35.2812 38.95 35.4688 38.2625 35.5312C37.5125 35.6562 35.9188 35.7188 33.4813 35.7188L32.5438 31.6875L36.4813 31.5938L36.2938 25.3125L26.45 26.4375V22.4062L36.1063 22.125Z" fill="#E05353"/>
<path d="M64 26H331" stroke="#E05353" stroke-width="3" stroke-linecap="round" stroke-dasharray="1 7"/>
</svg>
