<svg width="341" height="48" viewBox="0 0 341 48" fill="none" xmlns="http://www.w3.org/2000/svg">
<path d="M295.25 16.875L298.25 16.7812L298.906 13.7812L303.125 14.1562L302.469 16.6875C304.531 16.625 306.688 16.5938 308.938 16.5938C310.688 16.5938 313.031 16.6875 315.969 16.875V19.7812C313.719 19.5938 312.125 19.5 311.188 19.5C309.375 19.5 307.625 19.5625 305.938 19.6875L301.719 19.9688L301.438 22.125C303.438 21.5 304.906 21.1562 305.844 21.0938C309.969 20.7188 312.719 21.625 314.094 23.8125C314.656 24.6875 314.938 25.7188 314.938 26.9062C314.938 28.0938 314.656 29.1562 314.094 30.0938C313.219 31.7188 311.75 32.9688 309.688 33.8438C308.375 34.4062 306.594 34.7812 304.344 34.9688L303.031 31.3125C305.594 31.0625 307.469 30.5 308.656 29.625C310.031 28.6875 310.625 27.6875 310.438 26.625C310.25 25.5 309.344 24.875 307.719 24.75C306.344 24.625 304.875 24.875 303.312 25.5L299.375 27C298.688 27.25 298.062 27.125 297.5 26.625C296.875 26.0625 296.656 25.2812 296.844 24.2812L297.5 20.3438L295.156 20.7188L295.25 16.875ZM335.169 30.375C333.606 31.5 331.356 32.8125 328.419 34.3125L326.169 30.375C328.419 29.4375 329.95 28.7188 330.763 28.2188C332.763 27.0938 333.981 25.875 334.419 24.5625C334.731 23.6875 334.763 22.8438 334.513 22.0312C334.263 21.1562 333.731 20.5312 332.919 20.1562C332.106 19.7812 331.013 19.6875 329.638 19.875C328.138 20.0625 326.544 20.5312 324.856 21.2812C323.919 21.7188 322.513 22.4375 320.638 23.4375L318.2 19.6875C320.763 18.375 322.794 17.4688 324.294 16.9688C326.544 16.2188 328.481 15.8125 330.106 15.75C332.294 15.6875 334.106 16.1562 335.544 17.1562C336.856 18.0938 337.794 19.3125 338.356 20.8125C338.981 22.5 339.106 24.0938 338.731 25.5938C338.294 27.3438 337.106 28.9375 335.169 30.375Z" fill="#5D504F"/>
<line x1="2" y1="22.5" x2="277" y2="22.5" stroke="#5D504F" stroke-width="3" stroke-linecap="round" stroke-dasharray="1 7"/>
</svg>
