<svg width="50" height="242" viewBox="0 0 50 242" fill="none" xmlns="http://www.w3.org/2000/svg">
<path d="M10.4062 22.125L10.3125 20.625L11.25 20.7188L14.3438 16.5938L4.03125 17.625L4.125 13.5938L16.125 13.125C16.8125 13.125 17.2812 13.125 17.5312 13.125C18.1562 13.1875 18.5938 13.375 18.8438 13.6875C19.1562 14.0625 19.2812 14.6562 19.2188 15.4688C19.1562 15.9688 19 16.4062 18.75 16.7812L15.5625 21.375L15.1875 22.125H23.3438L23.4375 25.125L15.0938 25.3125L15.2812 32.0625C15.3438 33.5625 15 34.5312 14.25 34.9688C13.8125 35.2812 13.25 35.4688 12.5625 35.5312C11.8125 35.6562 10.2188 35.7188 7.78125 35.7188L6.84375 31.6875L10.7812 31.5938L10.5938 25.3125L0.75 26.4375V22.4062L10.4062 22.125ZM26.6063 16.4062L34.8563 15.375L35.2313 13.4062L39.2625 13.3125L39.075 15.0938C40.7 15.0312 42.7 14.9688 45.075 14.9062C45.7625 14.9062 46.2938 14.9375 46.6688 15C47.2938 15.125 47.7625 15.4375 48.075 15.9375C48.5125 16.5625 48.7 17.7812 48.6375 19.5938L48.3563 19.6875L44.7938 19.875L44.7 17.7188C41.8875 17.7812 39.7313 17.875 38.2313 18C37.1688 18.125 34.5125 18.4688 30.2625 19.0312L30.075 21.1875L25.95 21.5625L25.8563 21.4688L26.6063 16.4062ZM28.575 27.4688C29.7 27.1562 30.5438 26.9688 31.1063 26.9062C32.4188 26.8438 33.7313 26.7812 35.0438 26.7188L35.6063 25.5938L30.075 26.1562C30.1375 25.0938 30.2313 24.1562 30.3563 23.3438C30.4813 22.1562 30.6375 21.0312 30.825 19.9688L31.0125 19.5938L40.4813 18.6562C41.9813 18.5312 43.0125 18.75 43.575 19.3125C44.0125 19.8125 44.2938 20.5 44.4188 21.375C44.5438 22.125 44.6063 23.3438 44.6063 25.0312L39.6375 25.4062L39.075 26.3438C40.575 26.2812 42.0438 26.25 43.4813 26.25C44.7313 26.25 45.575 26.5312 46.0125 27.0938C46.2625 27.4688 46.4813 28.0312 46.6688 28.7812C46.8563 29.7188 47.0438 31.6562 47.2313 34.5938L37.1063 34.9688L28.0125 35.9062L28.575 27.4688ZM42.6375 31.875L42.5438 29.1562L32.7 29.7188L32.4188 32.4375L42.6375 31.875ZM40.6688 22.5938V21L34.4813 21.5625L34.2 23.0625L40.6688 22.5938Z" fill="#E05353"/>
<line x1="23.5" y1="54.5" x2="23.5" y2="240.5" stroke="#E05353" stroke-width="3" stroke-linecap="round" stroke-dasharray="1 7"/>
</svg>
