<svg width="335" height="64" viewBox="0 0 335 64" fill="none" xmlns="http://www.w3.org/2000/svg">
<path d="M292.656 12.9375L297.156 14.625L296.125 15.1875L295.094 36L290.875 35.3438L291.438 30.75L290.781 31.125L287.969 32.1562C286.906 32.5312 286.125 32.4375 285.625 31.875C285.25 31.4375 285.094 30.7188 285.156 29.7188L285.344 27.0938L285.906 17.3438L284.875 16.3125L292.656 12.9375ZM291.719 27L291.906 24.6562C290.906 25.2188 289.969 25.1875 289.094 24.5625L288.906 28.125L291.719 27ZM290.781 20.0625C291.219 20.0625 291.719 20.25 292.281 20.625L292.562 16.5938L289.375 17.9062L289.188 20.625C289.812 20.25 290.344 20.0625 290.781 20.0625ZM307.094 14.625C307.594 15.375 307.812 16.4062 307.75 17.7188V30.375C307.75 31.0625 307.438 31.6875 306.812 32.25C306.438 32.625 305.781 32.8125 304.844 32.8125C304.031 32.8125 303.188 32.7812 302.312 32.7188L301.094 28.875L304.094 28.7812L304.188 23.8125C303.625 24.3125 303.125 24.5938 302.688 24.6562C302.25 24.7188 301.656 24.625 300.906 24.375L300.812 35.8125H297.156L297.625 13.4062C300.188 13.2188 302.438 13.1875 304.375 13.3125C305.688 13.375 306.594 13.8125 307.094 14.625ZM302.594 19.875C302.969 19.875 303.469 20.0938 304.094 20.5312L304 16.5L301 16.6875L300.906 20.3438C301.531 20.0312 302.094 19.875 302.594 19.875ZM313.356 31.3125L310.356 31.6875V28.2188L319.45 27.9375L319.544 26.625L316.356 26.7188L311.95 27.1875L312.7 18.0938L314.388 17.9062C313.388 17.1562 312.919 16.4062 312.981 15.6562C313.044 14.8438 313.419 14.2812 314.106 13.9688C314.919 13.5938 315.7 13.5625 316.45 13.875C317.138 14.1875 317.575 14.7188 317.763 15.4688C317.95 16.4062 317.638 17.2188 316.825 17.9062L321.044 17.7188C320.231 17.4688 319.7 16.9375 319.45 16.125C319.138 15 319.45 14.1562 320.388 13.5938C321.325 13.0938 322.169 13.0938 322.919 13.5938C323.794 14.2188 324.106 15.0938 323.856 16.2188C323.669 17.0312 323.044 17.5312 321.981 17.7188H324.138L326.669 13.0312L330.794 14.1562L328.075 17.7188C329.263 18.1562 330.075 18.7188 330.513 19.4062C330.888 19.9688 331.138 20.9062 331.263 22.2188C331.325 22.9062 331.356 24.3125 331.356 26.4375L323.95 26.5312V27.8438L333.044 27.9375L333.138 30.6562H328.825L333.138 32.9062L330.138 35.7188L323.856 32.1562L323.95 35.5312L319.45 35.9062V32.0625L313.731 36L310.263 33.4688L313.356 31.3125ZM319.45 24.375V23.1562L316.731 23.3438L316.638 24.4688L319.45 24.375ZM319.45 21.0938V20.0625L316.825 20.25L316.731 21.1875L319.45 21.0938ZM326.669 24.2812V23.0625H323.95V24.2812H326.669ZM326.575 21L326.481 19.875H323.95V20.9062L326.575 21Z" fill="#5D504F"/>
<path d="M2 62.5L47 26.5H268.5" stroke="#5D504F" stroke-width="3" stroke-linecap="round" stroke-dasharray="1 7"/>
</svg>
