<svg width="271" height="48" viewBox="0 0 271 48" fill="none" xmlns="http://www.w3.org/2000/svg">
<path d="M225.844 35.8125L225.094 31.5938H226.875L226.969 27L225 27.1875L224.625 35.625L221.062 35.25L222.375 13.4062L227.719 13.3125C228.719 13.3125 229.438 13.5 229.875 13.875C230.438 14.375 230.719 15.1562 230.719 16.2188L230.25 33.2812C230.188 34.9688 229.312 35.8125 227.625 35.8125H225.844ZM227.062 24.375L227.156 21.9375L225.281 22.125L225.188 24.375H227.062ZM227.156 19.125L227.344 16.2188L225.656 16.3125L225.469 19.2188L227.156 19.125ZM231 30.8438H235.219L235.781 18.5625L231.656 18.9375L231.75 14.9062L243.469 14.7188L243.562 18.375H239.719V30.75L243.844 30.8438V34.3125L230.719 34.7812L231 30.8438ZM246.544 26.625L247.2 13.5L247.95 13.4062L254.794 13.2188C255.356 13.2188 256.013 13.6875 256.763 14.625C257.075 15.0625 257.263 15.5 257.325 15.9375C257.388 16.4375 257.419 17.1875 257.419 18.1875L257.325 24.1875L250.763 24.9375V35.8125L246.356 35.625L246.544 26.625ZM253.481 21.4688L253.575 19.6875L250.95 19.9688L250.856 21.4688H253.481ZM253.669 17.4375V15.9375L251.138 16.125L251.044 17.4375H253.669ZM258.169 13.2188H265.106C266.169 13.1562 267.138 13.5312 268.013 14.3438C268.638 15.0938 268.95 15.875 268.95 16.6875L269.044 27.1875V31.6875C269.044 32.75 268.856 33.625 268.481 34.3125C267.919 35.25 266.856 35.7188 265.294 35.7188H262.294C261.356 33.0312 260.856 31.6562 260.794 31.5938L260.888 31.4062L265.106 31.3125L265.013 24C263.263 23.9375 262.075 23.9062 261.45 23.9062C260.95 23.9062 259.731 23.9688 257.794 24.0938V23.7188L258.169 13.2188ZM264.825 21.2812V19.875L261.919 19.9688L261.825 21.375L264.825 21.2812ZM264.731 17.4375L264.638 15.9375H262.013L261.919 17.4375H264.731Z" fill="#E05353"/>
<line x1="1.5" y1="22.5" x2="203.5" y2="22.5" stroke="#E05353" stroke-width="3" stroke-linecap="round" stroke-dasharray="1 7"/>
</svg>
